G04 EAGLE Gerber RS-274X export*
G75*
%MOMM*%
%FSLAX34Y34*%
%LPD*%
%INBottom Copper*%
%IPPOS*%
%AMOC8*
5,1,8,0,0,1.08239X$1,22.5*%
G01*
%ADD10P,1.649562X8X22.500000*%
%ADD11C,0.152400*%
%ADD12C,0.654800*%


D10*
X482600Y25400D03*
X25400Y127000D03*
D11*
X408432Y56388D02*
X466344Y56388D01*
X408432Y56388D02*
X347472Y117348D01*
X35052Y117348D01*
X25400Y127000D01*
D12*
X466344Y56388D03*
D11*
X457200Y50292D02*
X409956Y50292D01*
X457200Y50292D02*
X481584Y25908D01*
X482600Y25400D01*
X350520Y109728D02*
X211836Y109728D01*
X350520Y109728D02*
X409956Y50292D01*
D12*
X409956Y50292D03*
X211836Y109728D03*
D11*
X291084Y138684D02*
X306324Y123444D01*
X400812Y123444D01*
D12*
X291084Y138684D03*
X306324Y123444D03*
X400812Y123444D03*
D11*
X431292Y111252D02*
X466344Y111252D01*
X431292Y111252D02*
X397764Y144780D01*
X28956Y144780D01*
X15240Y131064D01*
X15240Y121920D01*
X105156Y32004D01*
X181356Y32004D01*
D12*
X466344Y111252D03*
X181356Y32004D03*
D11*
X306324Y38100D02*
X358140Y38100D01*
X361188Y35052D01*
D12*
X306324Y38100D03*
X361188Y35052D03*
D11*
X217932Y76200D02*
X184404Y109728D01*
X367284Y10668D02*
X406908Y10668D01*
X367284Y10668D02*
X359664Y3048D01*
X275844Y3048D01*
X217932Y60960D01*
X217932Y76200D01*
D12*
X184404Y109728D03*
X217932Y76200D03*
X406908Y10668D03*
M02*
