G04 EAGLE Gerber RS-274X export*
G75*
%MOMM*%
%FSLAX34Y34*%
%LPD*%
%INTop Copper*%
%IPPOS*%
%AMOC8*
5,1,8,0,0,1.08239X$1,22.5*%
G01*
%ADD10R,1.200000X1.200000*%
%ADD11R,1.300000X1.500000*%
%ADD12R,1.600000X1.800000*%
%ADD13R,1.950000X1.500000*%
%ADD14R,2.700000X2.550000*%
%ADD15R,1.470000X1.270000*%
%ADD16R,1.500000X1.000000*%
%ADD17R,2.000000X1.000000*%
%ADD18C,2.200000*%
%ADD19R,2.200000X0.600000*%
%ADD20P,1.649562X8X22.500000*%
%ADD21R,2.200000X1.500000*%
%ADD22R,1.400000X1.000000*%
%ADD23R,1.600000X1.803000*%
%ADD24R,1.803000X1.600000*%
%ADD25R,0.600000X0.600000*%
%ADD26C,0.152400*%
%ADD27C,0.654800*%


D10*
X455100Y116400D03*
X481100Y116400D03*
X481100Y55400D03*
X455100Y55400D03*
D11*
X375700Y15300D03*
X394700Y15300D03*
D12*
X388000Y124100D03*
X416000Y124100D03*
X249500Y14100D03*
X277500Y14100D03*
D13*
X244550Y139700D03*
X272050Y139700D03*
D14*
X119200Y104150D03*
X119200Y40650D03*
D15*
X385400Y50900D03*
X385400Y93900D03*
D16*
X319580Y139130D03*
X319580Y109150D03*
D17*
X322120Y124140D03*
D18*
X341290Y124140D02*
X356290Y124140D01*
D19*
X287700Y50800D03*
X235700Y50800D03*
X287700Y38100D03*
X287700Y63500D03*
X287700Y76200D03*
X235700Y38100D03*
X235700Y63500D03*
X235700Y76200D03*
X287700Y101600D03*
X235700Y101600D03*
X287700Y88900D03*
X287700Y114300D03*
X235700Y88900D03*
X235700Y114300D03*
D20*
X482600Y25400D03*
X25400Y127000D03*
D21*
X426100Y87700D03*
X426100Y56700D03*
X338900Y58800D03*
X338900Y89800D03*
X181100Y89700D03*
X181100Y58700D03*
X63900Y56800D03*
X63900Y87800D03*
D22*
X76500Y25200D03*
X54500Y15700D03*
X54500Y34700D03*
D23*
X194720Y19100D03*
X166280Y19100D03*
X319780Y34700D03*
X348220Y34700D03*
D24*
X25900Y86920D03*
X25900Y58480D03*
D23*
X163180Y129700D03*
X191620Y129700D03*
X451020Y15300D03*
X422580Y15300D03*
D25*
X74500Y132000D03*
X65000Y132000D03*
X55500Y132000D03*
X55500Y108000D03*
X65000Y108000D03*
X74500Y108000D03*
D26*
X466344Y56388D02*
X480060Y56388D01*
X481100Y55400D01*
D27*
X466344Y56388D03*
D26*
X455676Y54864D02*
X455676Y51816D01*
X481584Y25908D01*
X455676Y54864D02*
X455100Y55400D01*
X481584Y25908D02*
X482600Y25400D01*
X409956Y50292D02*
X385572Y50292D01*
X385400Y50900D01*
X211836Y109728D02*
X192024Y129540D01*
X191620Y129700D01*
D27*
X409956Y50292D03*
X211836Y109728D03*
D26*
X422148Y117348D02*
X443484Y117348D01*
X454152Y117348D01*
X422148Y117348D02*
X416052Y123444D01*
X454152Y117348D02*
X455100Y116400D01*
X416052Y123444D02*
X416000Y124100D01*
X385572Y25908D02*
X376428Y16764D01*
X385572Y25908D02*
X413004Y25908D01*
X417576Y21336D02*
X422148Y16764D01*
X417576Y21336D02*
X413004Y25908D01*
X376428Y16764D02*
X375700Y15300D01*
X422148Y16764D02*
X422580Y15300D01*
X443484Y47244D02*
X443484Y117348D01*
X443484Y47244D02*
X417576Y21336D01*
X422580Y15300D01*
X291084Y138684D02*
X272796Y138684D01*
X306324Y123444D02*
X321564Y123444D01*
X272796Y138684D02*
X272050Y139700D01*
X321564Y123444D02*
X322120Y124140D01*
X323088Y124968D02*
X347472Y124968D01*
X348790Y124140D01*
X323088Y124968D02*
X322120Y124140D01*
X248412Y25908D02*
X248412Y15240D01*
X248412Y25908D02*
X236220Y38100D01*
X248412Y15240D02*
X249500Y14100D01*
X236220Y38100D02*
X235700Y38100D01*
X48768Y106680D02*
X24384Y106680D01*
X48768Y106680D02*
X54864Y106680D01*
X24384Y106680D02*
X13716Y96012D01*
X13716Y50292D01*
X47244Y16764D01*
X51816Y16764D02*
X53340Y16764D01*
X51816Y16764D02*
X47244Y16764D01*
X54864Y106680D02*
X55500Y108000D01*
X53340Y16764D02*
X54500Y15700D01*
X74676Y39624D02*
X118872Y39624D01*
X74676Y39624D02*
X51816Y16764D01*
X118872Y39624D02*
X119200Y40650D01*
X54500Y15700D02*
X51816Y16764D01*
X121920Y38100D02*
X235700Y38100D01*
X121920Y38100D02*
X120396Y39624D01*
X119200Y40650D01*
X219456Y123444D02*
X306324Y123444D01*
X219456Y123444D02*
X201168Y141732D01*
X54864Y141732D01*
X48768Y135636D01*
X48768Y106680D01*
X400812Y123444D02*
X414528Y123444D01*
X416000Y124100D01*
D27*
X291084Y138684D03*
X306324Y123444D03*
X400812Y123444D03*
D26*
X161544Y24384D02*
X77724Y24384D01*
X161544Y24384D02*
X166116Y19812D01*
X77724Y24384D02*
X76500Y25200D01*
X166116Y19812D02*
X166280Y19100D01*
X53340Y35052D02*
X48768Y35052D01*
X25908Y57912D01*
X53340Y35052D02*
X54500Y34700D01*
X25908Y57912D02*
X25900Y58480D01*
X25908Y86868D02*
X42672Y86868D01*
X59436Y70104D01*
X280416Y70104D01*
X286512Y64008D01*
X25908Y86868D02*
X25900Y86920D01*
X286512Y64008D02*
X287700Y63500D01*
X470916Y115824D02*
X480060Y115824D01*
X470916Y115824D02*
X466344Y111252D01*
X193548Y19812D02*
X181356Y32004D01*
X480060Y115824D02*
X481100Y116400D01*
X194720Y19100D02*
X193548Y19812D01*
D27*
X466344Y111252D03*
X181356Y32004D03*
D26*
X385572Y92964D02*
X420624Y92964D01*
X425196Y88392D01*
X385572Y92964D02*
X385400Y93900D01*
X425196Y88392D02*
X426100Y87700D01*
X370332Y108204D02*
X353568Y108204D01*
X320040Y108204D01*
X370332Y108204D02*
X384048Y94488D01*
X320040Y108204D02*
X319580Y109150D01*
X384048Y94488D02*
X385400Y93900D01*
X321564Y15240D02*
X278892Y15240D01*
X321564Y15240D02*
X330708Y24384D01*
X330708Y44196D01*
X324612Y50292D01*
X324612Y67056D01*
X336804Y79248D01*
X350520Y79248D01*
X353568Y82296D01*
X353568Y108204D01*
X278892Y15240D02*
X277500Y14100D01*
X219456Y103632D02*
X120396Y103632D01*
X219456Y103632D02*
X224028Y108204D01*
X318516Y108204D01*
X120396Y103632D02*
X119200Y104150D01*
X318516Y108204D02*
X319580Y109150D01*
X320040Y138684D02*
X373380Y138684D01*
X387096Y124968D01*
X320040Y138684D02*
X319580Y139130D01*
X387096Y124968D02*
X388000Y124100D01*
X361188Y35052D02*
X426720Y35052D01*
X361188Y35052D02*
X348996Y35052D01*
X426720Y35052D02*
X440436Y48768D01*
X440436Y96012D01*
X423672Y112776D01*
X399288Y112776D01*
X388620Y123444D01*
X348996Y35052D02*
X348220Y34700D01*
X388620Y123444D02*
X388000Y124100D01*
X251460Y138684D02*
X245364Y138684D01*
X251460Y138684D02*
X260604Y129540D01*
X307848Y129540D01*
X318516Y140208D01*
X245364Y138684D02*
X244550Y139700D01*
X318516Y140208D02*
X319580Y139130D01*
X306324Y38100D02*
X287700Y38100D01*
D27*
X306324Y38100D03*
X361188Y35052D03*
D26*
X394716Y15240D02*
X402336Y15240D01*
X406908Y10668D02*
X414528Y3048D01*
X406908Y10668D02*
X402336Y15240D01*
X414528Y3048D02*
X437388Y3048D01*
X449580Y15240D01*
X394716Y15240D02*
X394700Y15300D01*
X449580Y15240D02*
X451020Y15300D01*
X184404Y109728D02*
X164592Y129540D01*
X217932Y76200D02*
X235700Y76200D01*
X164592Y129540D02*
X163180Y129700D01*
D27*
X184404Y109728D03*
X217932Y76200D03*
X406908Y10668D03*
D26*
X179832Y57912D02*
X64008Y57912D01*
X63900Y56800D01*
X179832Y57912D02*
X181100Y58700D01*
X181356Y89916D02*
X219456Y89916D01*
X224028Y94488D01*
X333756Y94488D01*
X338328Y89916D01*
X181356Y89916D02*
X181100Y89700D01*
X338328Y89916D02*
X338900Y89800D01*
X396240Y57912D02*
X425196Y57912D01*
X396240Y57912D02*
X393192Y60960D01*
X341376Y60960D01*
X339852Y59436D01*
X425196Y57912D02*
X426100Y56700D01*
X339852Y59436D02*
X338900Y58800D01*
X318516Y50292D02*
X318516Y35052D01*
X318516Y50292D02*
X292608Y76200D01*
X287700Y76200D01*
X318516Y35052D02*
X319780Y34700D01*
X74676Y118872D02*
X74676Y131064D01*
X74676Y118872D02*
X114300Y79248D01*
X211836Y79248D01*
X214884Y82296D01*
X280416Y82296D01*
X286512Y88392D01*
X74676Y131064D02*
X74500Y132000D01*
X286512Y88392D02*
X287700Y88900D01*
X64008Y132588D02*
X56388Y132588D01*
X55500Y132000D01*
X64008Y132588D02*
X65000Y132000D01*
X64008Y106680D02*
X64008Y88392D01*
X64008Y106680D02*
X65000Y108000D01*
X64008Y88392D02*
X63900Y87800D01*
X65532Y108204D02*
X65532Y131064D01*
X65000Y132000D01*
X65532Y108204D02*
X65000Y108000D01*
M02*
