G04 EAGLE Gerber RS-274X export*
G75*
%MOMM*%
%FSLAX34Y34*%
%LPD*%
%INSilkscreen Bottom*%
%IPPOS*%
%AMOC8*
5,1,8,0,0,1.08239X$1,22.5*%
G01*
%ADD10C,0.076200*%


D10*
X439619Y60381D02*
X439619Y69779D01*
X439619Y66646D02*
X437008Y66646D01*
X436931Y66644D01*
X436855Y66638D01*
X436778Y66629D01*
X436702Y66616D01*
X436628Y66599D01*
X436553Y66579D01*
X436480Y66554D01*
X436409Y66527D01*
X436338Y66496D01*
X436270Y66461D01*
X436203Y66423D01*
X436138Y66382D01*
X436075Y66338D01*
X436015Y66291D01*
X435956Y66240D01*
X435901Y66187D01*
X435848Y66132D01*
X435797Y66073D01*
X435750Y66013D01*
X435706Y65950D01*
X435665Y65885D01*
X435627Y65818D01*
X435592Y65750D01*
X435561Y65679D01*
X435534Y65608D01*
X435509Y65535D01*
X435489Y65461D01*
X435472Y65386D01*
X435459Y65310D01*
X435450Y65234D01*
X435444Y65157D01*
X435442Y65080D01*
X435442Y60381D01*
X432158Y66646D02*
X429025Y66646D01*
X431114Y69779D02*
X431114Y61947D01*
X431112Y61870D01*
X431106Y61794D01*
X431097Y61717D01*
X431084Y61641D01*
X431067Y61566D01*
X431047Y61492D01*
X431022Y61419D01*
X430995Y61348D01*
X430964Y61277D01*
X430929Y61209D01*
X430891Y61142D01*
X430850Y61077D01*
X430806Y61014D01*
X430759Y60954D01*
X430708Y60895D01*
X430655Y60840D01*
X430600Y60787D01*
X430541Y60736D01*
X430481Y60689D01*
X430418Y60645D01*
X430353Y60604D01*
X430286Y60566D01*
X430218Y60531D01*
X430147Y60500D01*
X430076Y60473D01*
X430003Y60448D01*
X429929Y60428D01*
X429854Y60411D01*
X429778Y60398D01*
X429701Y60389D01*
X429625Y60383D01*
X429548Y60381D01*
X429025Y60381D01*
X426367Y66646D02*
X423234Y66646D01*
X425323Y69779D02*
X425323Y61947D01*
X425322Y61947D02*
X425320Y61870D01*
X425314Y61794D01*
X425305Y61717D01*
X425292Y61641D01*
X425275Y61566D01*
X425255Y61492D01*
X425230Y61419D01*
X425203Y61348D01*
X425172Y61277D01*
X425137Y61209D01*
X425099Y61142D01*
X425058Y61077D01*
X425014Y61014D01*
X424967Y60954D01*
X424916Y60895D01*
X424863Y60840D01*
X424808Y60787D01*
X424749Y60736D01*
X424689Y60689D01*
X424626Y60645D01*
X424561Y60604D01*
X424494Y60566D01*
X424426Y60531D01*
X424355Y60500D01*
X424284Y60473D01*
X424211Y60448D01*
X424137Y60428D01*
X424062Y60411D01*
X423986Y60398D01*
X423909Y60389D01*
X423833Y60383D01*
X423756Y60381D01*
X423234Y60381D01*
X419457Y57248D02*
X419457Y66646D01*
X416846Y66646D01*
X416769Y66644D01*
X416693Y66638D01*
X416616Y66629D01*
X416540Y66616D01*
X416466Y66599D01*
X416391Y66579D01*
X416318Y66554D01*
X416247Y66527D01*
X416176Y66496D01*
X416108Y66461D01*
X416041Y66423D01*
X415976Y66382D01*
X415913Y66338D01*
X415853Y66291D01*
X415794Y66240D01*
X415739Y66187D01*
X415686Y66132D01*
X415635Y66073D01*
X415588Y66013D01*
X415544Y65950D01*
X415503Y65885D01*
X415465Y65818D01*
X415430Y65750D01*
X415399Y65679D01*
X415372Y65608D01*
X415347Y65535D01*
X415327Y65461D01*
X415310Y65386D01*
X415297Y65310D01*
X415288Y65234D01*
X415282Y65157D01*
X415280Y65080D01*
X415280Y61947D01*
X415282Y61870D01*
X415288Y61794D01*
X415297Y61717D01*
X415310Y61641D01*
X415327Y61566D01*
X415347Y61492D01*
X415372Y61419D01*
X415399Y61348D01*
X415430Y61277D01*
X415465Y61209D01*
X415503Y61142D01*
X415544Y61077D01*
X415588Y61014D01*
X415635Y60954D01*
X415686Y60895D01*
X415739Y60840D01*
X415794Y60787D01*
X415853Y60736D01*
X415913Y60689D01*
X415976Y60645D01*
X416041Y60604D01*
X416108Y60566D01*
X416176Y60531D01*
X416247Y60500D01*
X416318Y60473D01*
X416391Y60448D01*
X416466Y60428D01*
X416541Y60411D01*
X416616Y60398D01*
X416693Y60389D01*
X416769Y60383D01*
X416846Y60381D01*
X419457Y60381D01*
X410794Y64036D02*
X408184Y62992D01*
X410795Y64036D02*
X410861Y64064D01*
X410926Y64097D01*
X410989Y64132D01*
X411050Y64171D01*
X411109Y64213D01*
X411165Y64258D01*
X411219Y64306D01*
X411270Y64357D01*
X411319Y64410D01*
X411364Y64467D01*
X411407Y64525D01*
X411446Y64585D01*
X411483Y64648D01*
X411515Y64713D01*
X411544Y64779D01*
X411570Y64846D01*
X411592Y64915D01*
X411610Y64985D01*
X411625Y65056D01*
X411636Y65127D01*
X411643Y65199D01*
X411646Y65271D01*
X411645Y65343D01*
X411640Y65416D01*
X411632Y65487D01*
X411620Y65559D01*
X411604Y65629D01*
X411584Y65698D01*
X411560Y65767D01*
X411533Y65834D01*
X411503Y65899D01*
X411469Y65963D01*
X411431Y66025D01*
X411391Y66085D01*
X411347Y66142D01*
X411300Y66197D01*
X411250Y66250D01*
X411198Y66299D01*
X411143Y66346D01*
X411086Y66390D01*
X411026Y66431D01*
X410964Y66468D01*
X410900Y66503D01*
X410835Y66533D01*
X410768Y66561D01*
X410700Y66584D01*
X410630Y66604D01*
X410560Y66620D01*
X410489Y66633D01*
X410417Y66641D01*
X410345Y66646D01*
X410273Y66647D01*
X410272Y66646D02*
X410121Y66642D01*
X409970Y66634D01*
X409819Y66623D01*
X409668Y66607D01*
X409518Y66587D01*
X409368Y66564D01*
X409219Y66537D01*
X409071Y66506D01*
X408923Y66471D01*
X408777Y66433D01*
X408631Y66390D01*
X408487Y66344D01*
X408344Y66295D01*
X408202Y66242D01*
X408062Y66185D01*
X407923Y66124D01*
X408184Y62992D02*
X408118Y62964D01*
X408053Y62931D01*
X407990Y62896D01*
X407929Y62857D01*
X407870Y62815D01*
X407814Y62770D01*
X407760Y62722D01*
X407709Y62671D01*
X407660Y62618D01*
X407615Y62561D01*
X407572Y62503D01*
X407533Y62443D01*
X407496Y62380D01*
X407464Y62315D01*
X407435Y62249D01*
X407409Y62182D01*
X407387Y62113D01*
X407369Y62043D01*
X407354Y61972D01*
X407343Y61901D01*
X407336Y61829D01*
X407333Y61757D01*
X407334Y61685D01*
X407339Y61612D01*
X407347Y61541D01*
X407359Y61469D01*
X407375Y61399D01*
X407395Y61330D01*
X407419Y61261D01*
X407446Y61194D01*
X407476Y61129D01*
X407510Y61065D01*
X407548Y61003D01*
X407588Y60943D01*
X407632Y60886D01*
X407679Y60831D01*
X407729Y60778D01*
X407781Y60729D01*
X407836Y60682D01*
X407893Y60638D01*
X407953Y60597D01*
X408015Y60560D01*
X408079Y60525D01*
X408144Y60495D01*
X408211Y60467D01*
X408279Y60444D01*
X408349Y60424D01*
X408419Y60408D01*
X408490Y60395D01*
X408562Y60387D01*
X408634Y60382D01*
X408706Y60381D01*
X408916Y60386D01*
X409125Y60397D01*
X409334Y60412D01*
X409542Y60432D01*
X409750Y60458D01*
X409957Y60488D01*
X410164Y60523D01*
X410369Y60563D01*
X410574Y60607D01*
X410777Y60657D01*
X410980Y60711D01*
X411181Y60771D01*
X411380Y60834D01*
X411578Y60903D01*
X403654Y61164D02*
X403654Y61686D01*
X403132Y61686D01*
X403132Y61164D01*
X403654Y61164D01*
X403654Y65341D02*
X403654Y65863D01*
X403132Y65863D01*
X403132Y65341D01*
X403654Y65341D01*
X399691Y59337D02*
X395514Y70823D01*
X388199Y70823D02*
X392375Y59337D01*
X383235Y60381D02*
X380624Y60381D01*
X383235Y60381D02*
X383312Y60383D01*
X383388Y60389D01*
X383465Y60398D01*
X383541Y60411D01*
X383616Y60428D01*
X383690Y60448D01*
X383763Y60473D01*
X383834Y60500D01*
X383905Y60531D01*
X383973Y60566D01*
X384040Y60604D01*
X384105Y60645D01*
X384168Y60689D01*
X384228Y60736D01*
X384287Y60787D01*
X384342Y60840D01*
X384395Y60895D01*
X384446Y60954D01*
X384493Y61014D01*
X384537Y61077D01*
X384578Y61142D01*
X384616Y61209D01*
X384651Y61277D01*
X384682Y61348D01*
X384709Y61419D01*
X384734Y61492D01*
X384754Y61566D01*
X384771Y61641D01*
X384784Y61717D01*
X384793Y61794D01*
X384799Y61870D01*
X384801Y61947D01*
X384801Y65080D01*
X384799Y65157D01*
X384793Y65233D01*
X384784Y65310D01*
X384771Y65386D01*
X384754Y65461D01*
X384734Y65535D01*
X384709Y65608D01*
X384682Y65679D01*
X384651Y65750D01*
X384616Y65818D01*
X384578Y65885D01*
X384537Y65950D01*
X384493Y66013D01*
X384446Y66073D01*
X384395Y66132D01*
X384342Y66187D01*
X384287Y66240D01*
X384228Y66291D01*
X384168Y66338D01*
X384105Y66382D01*
X384040Y66423D01*
X383973Y66461D01*
X383905Y66496D01*
X383834Y66527D01*
X383763Y66554D01*
X383690Y66579D01*
X383616Y66599D01*
X383541Y66616D01*
X383465Y66629D01*
X383388Y66638D01*
X383312Y66644D01*
X383235Y66646D01*
X380624Y66646D01*
X380624Y58815D01*
X380625Y58815D02*
X380627Y58738D01*
X380633Y58662D01*
X380642Y58585D01*
X380655Y58509D01*
X380672Y58434D01*
X380692Y58360D01*
X380717Y58287D01*
X380744Y58216D01*
X380775Y58145D01*
X380810Y58077D01*
X380848Y58010D01*
X380889Y57945D01*
X380933Y57882D01*
X380980Y57822D01*
X381031Y57763D01*
X381084Y57708D01*
X381139Y57655D01*
X381198Y57604D01*
X381258Y57557D01*
X381321Y57513D01*
X381386Y57472D01*
X381453Y57434D01*
X381521Y57399D01*
X381592Y57368D01*
X381663Y57341D01*
X381736Y57316D01*
X381810Y57296D01*
X381885Y57279D01*
X381961Y57266D01*
X382038Y57257D01*
X382114Y57251D01*
X382191Y57249D01*
X382191Y57248D02*
X384279Y57248D01*
X376571Y60381D02*
X376571Y66646D01*
X376832Y69257D02*
X376832Y69779D01*
X376310Y69779D01*
X376310Y69257D01*
X376832Y69257D01*
X373637Y66646D02*
X370504Y66646D01*
X372593Y69779D02*
X372593Y61947D01*
X372592Y61947D02*
X372590Y61870D01*
X372584Y61794D01*
X372575Y61717D01*
X372562Y61641D01*
X372545Y61566D01*
X372525Y61492D01*
X372500Y61419D01*
X372473Y61348D01*
X372442Y61277D01*
X372407Y61209D01*
X372369Y61142D01*
X372328Y61077D01*
X372284Y61014D01*
X372237Y60954D01*
X372186Y60895D01*
X372133Y60840D01*
X372078Y60787D01*
X372019Y60736D01*
X371959Y60689D01*
X371896Y60645D01*
X371831Y60604D01*
X371764Y60566D01*
X371696Y60531D01*
X371625Y60500D01*
X371554Y60473D01*
X371481Y60448D01*
X371407Y60428D01*
X371332Y60411D01*
X371256Y60398D01*
X371179Y60389D01*
X371103Y60383D01*
X371026Y60381D01*
X370504Y60381D01*
X366772Y60381D02*
X366772Y69779D01*
X366772Y66646D02*
X364162Y66646D01*
X364085Y66644D01*
X364009Y66638D01*
X363932Y66629D01*
X363856Y66616D01*
X363782Y66599D01*
X363707Y66579D01*
X363634Y66554D01*
X363563Y66527D01*
X363492Y66496D01*
X363424Y66461D01*
X363357Y66423D01*
X363292Y66382D01*
X363229Y66338D01*
X363169Y66291D01*
X363110Y66240D01*
X363055Y66187D01*
X363002Y66132D01*
X362951Y66073D01*
X362904Y66013D01*
X362860Y65950D01*
X362819Y65885D01*
X362781Y65818D01*
X362746Y65750D01*
X362715Y65679D01*
X362688Y65608D01*
X362663Y65535D01*
X362643Y65461D01*
X362626Y65386D01*
X362613Y65310D01*
X362604Y65234D01*
X362598Y65157D01*
X362596Y65080D01*
X362595Y65080D02*
X362595Y60381D01*
X358238Y61947D02*
X358238Y66646D01*
X358238Y61947D02*
X358236Y61870D01*
X358230Y61794D01*
X358221Y61717D01*
X358208Y61641D01*
X358191Y61566D01*
X358171Y61492D01*
X358146Y61419D01*
X358119Y61348D01*
X358088Y61277D01*
X358053Y61209D01*
X358015Y61142D01*
X357974Y61077D01*
X357930Y61014D01*
X357883Y60954D01*
X357832Y60895D01*
X357779Y60840D01*
X357724Y60787D01*
X357665Y60736D01*
X357605Y60689D01*
X357542Y60645D01*
X357477Y60604D01*
X357410Y60566D01*
X357342Y60531D01*
X357271Y60500D01*
X357200Y60473D01*
X357127Y60448D01*
X357053Y60428D01*
X356978Y60411D01*
X356902Y60398D01*
X356825Y60389D01*
X356749Y60383D01*
X356672Y60381D01*
X354061Y60381D01*
X354061Y66646D01*
X349658Y69779D02*
X349658Y60381D01*
X347047Y60381D01*
X346970Y60383D01*
X346894Y60389D01*
X346817Y60398D01*
X346741Y60411D01*
X346667Y60428D01*
X346592Y60448D01*
X346519Y60473D01*
X346448Y60500D01*
X346377Y60531D01*
X346309Y60566D01*
X346242Y60604D01*
X346177Y60645D01*
X346114Y60689D01*
X346054Y60736D01*
X345995Y60787D01*
X345940Y60840D01*
X345887Y60895D01*
X345836Y60954D01*
X345789Y61014D01*
X345745Y61077D01*
X345704Y61142D01*
X345666Y61209D01*
X345631Y61277D01*
X345600Y61348D01*
X345573Y61419D01*
X345548Y61492D01*
X345528Y61566D01*
X345511Y61641D01*
X345498Y61717D01*
X345489Y61793D01*
X345483Y61870D01*
X345481Y61947D01*
X345481Y65080D01*
X345483Y65157D01*
X345489Y65233D01*
X345498Y65310D01*
X345511Y65386D01*
X345528Y65461D01*
X345548Y65535D01*
X345573Y65608D01*
X345600Y65679D01*
X345631Y65750D01*
X345666Y65818D01*
X345704Y65885D01*
X345745Y65950D01*
X345789Y66013D01*
X345836Y66073D01*
X345887Y66132D01*
X345940Y66187D01*
X345995Y66240D01*
X346054Y66291D01*
X346114Y66338D01*
X346177Y66382D01*
X346242Y66423D01*
X346309Y66461D01*
X346377Y66496D01*
X346448Y66527D01*
X346519Y66554D01*
X346592Y66579D01*
X346667Y66599D01*
X346742Y66616D01*
X346817Y66629D01*
X346894Y66638D01*
X346970Y66644D01*
X347047Y66646D01*
X349658Y66646D01*
X342085Y60903D02*
X342085Y60381D01*
X342085Y60903D02*
X341563Y60903D01*
X341563Y60381D01*
X342085Y60381D01*
X336545Y60381D02*
X334456Y60381D01*
X336545Y60381D02*
X336622Y60383D01*
X336698Y60389D01*
X336775Y60398D01*
X336851Y60411D01*
X336926Y60428D01*
X337000Y60448D01*
X337073Y60473D01*
X337144Y60500D01*
X337215Y60531D01*
X337283Y60566D01*
X337350Y60604D01*
X337415Y60645D01*
X337478Y60689D01*
X337538Y60736D01*
X337597Y60787D01*
X337652Y60840D01*
X337705Y60895D01*
X337756Y60954D01*
X337803Y61014D01*
X337847Y61077D01*
X337888Y61142D01*
X337926Y61209D01*
X337961Y61277D01*
X337992Y61348D01*
X338019Y61419D01*
X338044Y61492D01*
X338064Y61566D01*
X338081Y61641D01*
X338094Y61717D01*
X338103Y61794D01*
X338109Y61870D01*
X338111Y61947D01*
X338111Y65080D01*
X338109Y65157D01*
X338103Y65233D01*
X338094Y65310D01*
X338081Y65386D01*
X338064Y65461D01*
X338044Y65535D01*
X338019Y65608D01*
X337992Y65679D01*
X337961Y65750D01*
X337926Y65818D01*
X337888Y65885D01*
X337847Y65950D01*
X337803Y66013D01*
X337756Y66073D01*
X337705Y66132D01*
X337652Y66187D01*
X337597Y66240D01*
X337538Y66291D01*
X337478Y66338D01*
X337415Y66382D01*
X337350Y66423D01*
X337283Y66461D01*
X337215Y66496D01*
X337144Y66527D01*
X337073Y66554D01*
X337000Y66579D01*
X336926Y66599D01*
X336851Y66616D01*
X336775Y66629D01*
X336698Y66638D01*
X336622Y66644D01*
X336545Y66646D01*
X334456Y66646D01*
X331111Y64558D02*
X331111Y62469D01*
X331110Y64558D02*
X331108Y64648D01*
X331102Y64737D01*
X331093Y64827D01*
X331079Y64916D01*
X331062Y65004D01*
X331041Y65091D01*
X331016Y65178D01*
X330987Y65263D01*
X330955Y65347D01*
X330920Y65429D01*
X330880Y65510D01*
X330838Y65589D01*
X330792Y65666D01*
X330742Y65741D01*
X330690Y65814D01*
X330634Y65885D01*
X330576Y65953D01*
X330514Y66018D01*
X330450Y66081D01*
X330383Y66141D01*
X330314Y66198D01*
X330242Y66252D01*
X330168Y66303D01*
X330092Y66351D01*
X330014Y66395D01*
X329934Y66436D01*
X329852Y66474D01*
X329769Y66508D01*
X329684Y66538D01*
X329598Y66565D01*
X329512Y66588D01*
X329424Y66607D01*
X329335Y66622D01*
X329246Y66634D01*
X329157Y66642D01*
X329067Y66646D01*
X328977Y66646D01*
X328887Y66642D01*
X328798Y66634D01*
X328709Y66622D01*
X328620Y66607D01*
X328532Y66588D01*
X328446Y66565D01*
X328360Y66538D01*
X328275Y66508D01*
X328192Y66474D01*
X328110Y66436D01*
X328030Y66395D01*
X327952Y66351D01*
X327876Y66303D01*
X327802Y66252D01*
X327730Y66198D01*
X327661Y66141D01*
X327594Y66081D01*
X327530Y66018D01*
X327468Y65953D01*
X327410Y65885D01*
X327354Y65814D01*
X327302Y65741D01*
X327252Y65666D01*
X327206Y65589D01*
X327164Y65510D01*
X327124Y65429D01*
X327089Y65347D01*
X327057Y65263D01*
X327028Y65178D01*
X327003Y65091D01*
X326982Y65004D01*
X326965Y64916D01*
X326951Y64827D01*
X326942Y64737D01*
X326936Y64648D01*
X326934Y64558D01*
X326934Y62469D01*
X326936Y62379D01*
X326942Y62290D01*
X326951Y62200D01*
X326965Y62111D01*
X326982Y62023D01*
X327003Y61936D01*
X327028Y61849D01*
X327057Y61764D01*
X327089Y61680D01*
X327124Y61598D01*
X327164Y61517D01*
X327206Y61438D01*
X327252Y61361D01*
X327302Y61286D01*
X327354Y61213D01*
X327410Y61142D01*
X327468Y61074D01*
X327530Y61009D01*
X327594Y60946D01*
X327661Y60886D01*
X327730Y60829D01*
X327802Y60775D01*
X327876Y60724D01*
X327952Y60676D01*
X328030Y60632D01*
X328110Y60591D01*
X328192Y60553D01*
X328275Y60519D01*
X328360Y60489D01*
X328446Y60462D01*
X328532Y60439D01*
X328620Y60420D01*
X328709Y60405D01*
X328798Y60393D01*
X328887Y60385D01*
X328977Y60381D01*
X329067Y60381D01*
X329157Y60385D01*
X329246Y60393D01*
X329335Y60405D01*
X329424Y60420D01*
X329512Y60439D01*
X329598Y60462D01*
X329684Y60489D01*
X329769Y60519D01*
X329852Y60553D01*
X329934Y60591D01*
X330014Y60632D01*
X330092Y60676D01*
X330168Y60724D01*
X330242Y60775D01*
X330314Y60829D01*
X330383Y60886D01*
X330450Y60946D01*
X330514Y61009D01*
X330576Y61074D01*
X330634Y61142D01*
X330690Y61213D01*
X330742Y61286D01*
X330792Y61361D01*
X330838Y61438D01*
X330880Y61517D01*
X330920Y61598D01*
X330955Y61680D01*
X330987Y61764D01*
X331016Y61849D01*
X331041Y61936D01*
X331062Y62023D01*
X331079Y62111D01*
X331093Y62200D01*
X331102Y62290D01*
X331108Y62379D01*
X331110Y62469D01*
X322706Y60381D02*
X322706Y66646D01*
X318007Y66646D01*
X317930Y66644D01*
X317854Y66638D01*
X317777Y66629D01*
X317701Y66616D01*
X317626Y66599D01*
X317552Y66579D01*
X317479Y66554D01*
X317408Y66527D01*
X317337Y66496D01*
X317269Y66461D01*
X317202Y66423D01*
X317137Y66382D01*
X317074Y66338D01*
X317014Y66291D01*
X316955Y66240D01*
X316900Y66187D01*
X316847Y66132D01*
X316796Y66073D01*
X316749Y66013D01*
X316705Y65950D01*
X316664Y65885D01*
X316626Y65818D01*
X316591Y65750D01*
X316560Y65679D01*
X316533Y65608D01*
X316508Y65535D01*
X316488Y65461D01*
X316471Y65386D01*
X316458Y65310D01*
X316449Y65233D01*
X316443Y65157D01*
X316441Y65080D01*
X316441Y60381D01*
X319574Y60381D02*
X319574Y66646D01*
X312518Y59337D02*
X308341Y70823D01*
X304115Y64036D02*
X301505Y62992D01*
X304115Y64036D02*
X304181Y64064D01*
X304246Y64097D01*
X304309Y64132D01*
X304370Y64171D01*
X304429Y64213D01*
X304485Y64258D01*
X304539Y64306D01*
X304590Y64357D01*
X304639Y64410D01*
X304684Y64467D01*
X304727Y64525D01*
X304766Y64585D01*
X304803Y64648D01*
X304835Y64713D01*
X304864Y64779D01*
X304890Y64846D01*
X304912Y64915D01*
X304930Y64985D01*
X304945Y65056D01*
X304956Y65127D01*
X304963Y65199D01*
X304966Y65271D01*
X304965Y65343D01*
X304960Y65416D01*
X304952Y65487D01*
X304940Y65559D01*
X304924Y65629D01*
X304904Y65698D01*
X304880Y65767D01*
X304853Y65834D01*
X304823Y65899D01*
X304789Y65963D01*
X304751Y66025D01*
X304711Y66085D01*
X304667Y66142D01*
X304620Y66197D01*
X304570Y66250D01*
X304518Y66299D01*
X304463Y66346D01*
X304406Y66390D01*
X304346Y66431D01*
X304284Y66468D01*
X304220Y66503D01*
X304155Y66533D01*
X304088Y66561D01*
X304020Y66584D01*
X303950Y66604D01*
X303880Y66620D01*
X303809Y66633D01*
X303737Y66641D01*
X303665Y66646D01*
X303593Y66647D01*
X303593Y66646D02*
X303442Y66642D01*
X303291Y66634D01*
X303140Y66623D01*
X302989Y66607D01*
X302839Y66587D01*
X302689Y66564D01*
X302540Y66537D01*
X302392Y66506D01*
X302244Y66471D01*
X302098Y66433D01*
X301952Y66390D01*
X301808Y66344D01*
X301665Y66295D01*
X301523Y66242D01*
X301383Y66185D01*
X301244Y66124D01*
X301504Y62992D02*
X301438Y62964D01*
X301373Y62931D01*
X301310Y62896D01*
X301249Y62857D01*
X301190Y62815D01*
X301134Y62770D01*
X301080Y62722D01*
X301029Y62671D01*
X300980Y62618D01*
X300935Y62561D01*
X300892Y62503D01*
X300853Y62443D01*
X300816Y62380D01*
X300784Y62315D01*
X300755Y62249D01*
X300729Y62182D01*
X300707Y62113D01*
X300689Y62043D01*
X300674Y61972D01*
X300663Y61901D01*
X300656Y61829D01*
X300653Y61757D01*
X300654Y61685D01*
X300659Y61612D01*
X300667Y61541D01*
X300679Y61469D01*
X300695Y61399D01*
X300715Y61330D01*
X300739Y61261D01*
X300766Y61194D01*
X300796Y61129D01*
X300830Y61065D01*
X300868Y61003D01*
X300908Y60943D01*
X300952Y60886D01*
X300999Y60831D01*
X301049Y60778D01*
X301101Y60729D01*
X301156Y60682D01*
X301213Y60638D01*
X301273Y60597D01*
X301335Y60560D01*
X301399Y60525D01*
X301464Y60495D01*
X301531Y60467D01*
X301599Y60444D01*
X301669Y60424D01*
X301739Y60408D01*
X301810Y60395D01*
X301882Y60387D01*
X301954Y60382D01*
X302026Y60381D01*
X302236Y60386D01*
X302445Y60397D01*
X302654Y60412D01*
X302862Y60432D01*
X303070Y60458D01*
X303277Y60488D01*
X303484Y60523D01*
X303689Y60563D01*
X303894Y60607D01*
X304097Y60657D01*
X304300Y60711D01*
X304501Y60771D01*
X304700Y60834D01*
X304898Y60903D01*
X297742Y66646D02*
X294610Y66646D01*
X296698Y69779D02*
X296698Y61947D01*
X296696Y61870D01*
X296690Y61794D01*
X296681Y61717D01*
X296668Y61641D01*
X296651Y61566D01*
X296631Y61492D01*
X296606Y61419D01*
X296579Y61348D01*
X296548Y61277D01*
X296513Y61209D01*
X296475Y61142D01*
X296434Y61077D01*
X296390Y61014D01*
X296343Y60954D01*
X296292Y60895D01*
X296239Y60840D01*
X296184Y60787D01*
X296125Y60736D01*
X296065Y60689D01*
X296002Y60645D01*
X295937Y60604D01*
X295870Y60566D01*
X295802Y60531D01*
X295731Y60500D01*
X295660Y60473D01*
X295587Y60448D01*
X295513Y60428D01*
X295438Y60411D01*
X295362Y60398D01*
X295285Y60389D01*
X295209Y60383D01*
X295132Y60381D01*
X294610Y60381D01*
X290832Y60381D02*
X290832Y69779D01*
X290832Y60381D02*
X288221Y60381D01*
X288144Y60383D01*
X288068Y60389D01*
X287991Y60398D01*
X287915Y60411D01*
X287841Y60428D01*
X287766Y60448D01*
X287693Y60473D01*
X287622Y60500D01*
X287551Y60531D01*
X287483Y60566D01*
X287416Y60604D01*
X287351Y60645D01*
X287288Y60689D01*
X287228Y60736D01*
X287169Y60787D01*
X287114Y60840D01*
X287061Y60895D01*
X287010Y60954D01*
X286963Y61014D01*
X286919Y61077D01*
X286878Y61142D01*
X286840Y61209D01*
X286805Y61277D01*
X286774Y61348D01*
X286747Y61419D01*
X286722Y61492D01*
X286702Y61566D01*
X286685Y61641D01*
X286672Y61717D01*
X286663Y61793D01*
X286657Y61870D01*
X286655Y61947D01*
X286655Y65080D01*
X286657Y65157D01*
X286663Y65233D01*
X286672Y65310D01*
X286685Y65386D01*
X286702Y65461D01*
X286722Y65535D01*
X286747Y65608D01*
X286774Y65679D01*
X286805Y65750D01*
X286840Y65818D01*
X286878Y65885D01*
X286919Y65950D01*
X286963Y66013D01*
X287010Y66073D01*
X287061Y66132D01*
X287114Y66187D01*
X287169Y66240D01*
X287228Y66291D01*
X287288Y66338D01*
X287351Y66382D01*
X287416Y66423D01*
X287483Y66461D01*
X287551Y66496D01*
X287622Y66527D01*
X287693Y66554D01*
X287766Y66579D01*
X287841Y66599D01*
X287916Y66616D01*
X287991Y66629D01*
X288068Y66638D01*
X288144Y66644D01*
X288221Y66646D01*
X290832Y66646D01*
X282865Y62469D02*
X280777Y69779D01*
X282865Y62469D02*
X277644Y62469D01*
X279211Y60381D02*
X279211Y64558D01*
X271633Y64558D02*
X268500Y64558D01*
X271633Y64558D02*
X271722Y64560D01*
X271810Y64566D01*
X271898Y64575D01*
X271986Y64588D01*
X272073Y64605D01*
X272159Y64625D01*
X272244Y64650D01*
X272329Y64677D01*
X272412Y64709D01*
X272493Y64743D01*
X272573Y64782D01*
X272651Y64823D01*
X272728Y64868D01*
X272802Y64916D01*
X272875Y64967D01*
X272945Y65021D01*
X273012Y65079D01*
X273078Y65139D01*
X273140Y65201D01*
X273200Y65267D01*
X273258Y65334D01*
X273312Y65404D01*
X273363Y65477D01*
X273411Y65551D01*
X273456Y65628D01*
X273497Y65706D01*
X273536Y65786D01*
X273570Y65867D01*
X273602Y65950D01*
X273629Y66035D01*
X273654Y66120D01*
X273674Y66206D01*
X273691Y66293D01*
X273704Y66381D01*
X273713Y66469D01*
X273719Y66557D01*
X273721Y66646D01*
X273721Y67168D01*
X273722Y67168D02*
X273720Y67269D01*
X273714Y67370D01*
X273704Y67471D01*
X273691Y67571D01*
X273673Y67671D01*
X273652Y67770D01*
X273626Y67868D01*
X273597Y67965D01*
X273565Y68061D01*
X273528Y68155D01*
X273488Y68248D01*
X273444Y68340D01*
X273397Y68429D01*
X273346Y68517D01*
X273292Y68603D01*
X273235Y68686D01*
X273175Y68768D01*
X273111Y68846D01*
X273045Y68923D01*
X272975Y68996D01*
X272903Y69067D01*
X272828Y69135D01*
X272750Y69200D01*
X272670Y69262D01*
X272588Y69321D01*
X272503Y69377D01*
X272417Y69429D01*
X272328Y69478D01*
X272237Y69524D01*
X272145Y69565D01*
X272051Y69604D01*
X271956Y69638D01*
X271860Y69669D01*
X271762Y69696D01*
X271664Y69720D01*
X271564Y69739D01*
X271464Y69755D01*
X271364Y69767D01*
X271263Y69775D01*
X271162Y69779D01*
X271060Y69779D01*
X270959Y69775D01*
X270858Y69767D01*
X270758Y69755D01*
X270658Y69739D01*
X270558Y69720D01*
X270460Y69696D01*
X270362Y69669D01*
X270266Y69638D01*
X270171Y69604D01*
X270077Y69565D01*
X269985Y69524D01*
X269894Y69478D01*
X269806Y69429D01*
X269719Y69377D01*
X269634Y69321D01*
X269552Y69262D01*
X269472Y69200D01*
X269394Y69135D01*
X269319Y69067D01*
X269247Y68996D01*
X269177Y68923D01*
X269111Y68846D01*
X269047Y68768D01*
X268987Y68686D01*
X268930Y68603D01*
X268876Y68517D01*
X268825Y68429D01*
X268778Y68340D01*
X268734Y68248D01*
X268694Y68155D01*
X268657Y68061D01*
X268625Y67965D01*
X268596Y67868D01*
X268570Y67770D01*
X268549Y67671D01*
X268531Y67571D01*
X268518Y67471D01*
X268508Y67370D01*
X268502Y67269D01*
X268500Y67168D01*
X268500Y64558D01*
X268502Y64432D01*
X268508Y64306D01*
X268517Y64180D01*
X268530Y64055D01*
X268548Y63930D01*
X268568Y63805D01*
X268593Y63681D01*
X268621Y63558D01*
X268653Y63436D01*
X268689Y63315D01*
X268728Y63195D01*
X268771Y63077D01*
X268818Y62960D01*
X268868Y62844D01*
X268922Y62729D01*
X268978Y62617D01*
X269039Y62506D01*
X269102Y62397D01*
X269169Y62290D01*
X269239Y62185D01*
X269313Y62082D01*
X269389Y61982D01*
X269468Y61884D01*
X269550Y61788D01*
X269636Y61695D01*
X269723Y61604D01*
X269814Y61517D01*
X269907Y61431D01*
X270003Y61349D01*
X270101Y61270D01*
X270201Y61194D01*
X270304Y61120D01*
X270409Y61050D01*
X270516Y60983D01*
X270625Y60920D01*
X270736Y60859D01*
X270848Y60803D01*
X270963Y60749D01*
X271079Y60699D01*
X271196Y60652D01*
X271314Y60609D01*
X271434Y60570D01*
X271555Y60534D01*
X271677Y60502D01*
X271800Y60474D01*
X271924Y60449D01*
X272049Y60429D01*
X272174Y60411D01*
X272299Y60398D01*
X272425Y60389D01*
X272551Y60383D01*
X272677Y60381D01*
X264578Y65080D02*
X264576Y65265D01*
X264569Y65450D01*
X264558Y65634D01*
X264543Y65818D01*
X264523Y66002D01*
X264499Y66186D01*
X264470Y66368D01*
X264437Y66550D01*
X264400Y66731D01*
X264358Y66911D01*
X264312Y67091D01*
X264262Y67269D01*
X264208Y67445D01*
X264149Y67621D01*
X264087Y67795D01*
X264020Y67967D01*
X263949Y68138D01*
X263874Y68307D01*
X263795Y68474D01*
X263765Y68554D01*
X263732Y68633D01*
X263695Y68710D01*
X263655Y68786D01*
X263612Y68860D01*
X263566Y68932D01*
X263516Y69001D01*
X263464Y69069D01*
X263408Y69134D01*
X263350Y69197D01*
X263288Y69256D01*
X263225Y69314D01*
X263158Y69368D01*
X263090Y69419D01*
X263019Y69467D01*
X262946Y69512D01*
X262872Y69554D01*
X262795Y69592D01*
X262717Y69627D01*
X262638Y69659D01*
X262557Y69687D01*
X262475Y69711D01*
X262391Y69732D01*
X262308Y69749D01*
X262223Y69762D01*
X262138Y69771D01*
X262053Y69777D01*
X261967Y69779D01*
X261881Y69777D01*
X261796Y69771D01*
X261711Y69762D01*
X261626Y69749D01*
X261543Y69732D01*
X261459Y69711D01*
X261377Y69687D01*
X261297Y69659D01*
X261217Y69627D01*
X261139Y69592D01*
X261062Y69554D01*
X260988Y69512D01*
X260915Y69467D01*
X260844Y69419D01*
X260776Y69368D01*
X260709Y69314D01*
X260646Y69256D01*
X260585Y69197D01*
X260526Y69134D01*
X260471Y69069D01*
X260418Y69001D01*
X260368Y68932D01*
X260322Y68860D01*
X260279Y68786D01*
X260239Y68710D01*
X260202Y68633D01*
X260169Y68554D01*
X260139Y68474D01*
X260060Y68307D01*
X259985Y68138D01*
X259914Y67967D01*
X259847Y67795D01*
X259785Y67621D01*
X259726Y67445D01*
X259672Y67269D01*
X259622Y67091D01*
X259576Y66911D01*
X259534Y66731D01*
X259497Y66550D01*
X259464Y66368D01*
X259435Y66186D01*
X259411Y66002D01*
X259391Y65818D01*
X259376Y65634D01*
X259365Y65450D01*
X259358Y65265D01*
X259356Y65080D01*
X264578Y65080D02*
X264576Y64895D01*
X264569Y64710D01*
X264558Y64526D01*
X264543Y64342D01*
X264523Y64158D01*
X264499Y63974D01*
X264470Y63792D01*
X264437Y63610D01*
X264400Y63429D01*
X264358Y63249D01*
X264312Y63069D01*
X264262Y62891D01*
X264208Y62715D01*
X264149Y62539D01*
X264087Y62365D01*
X264020Y62193D01*
X263949Y62022D01*
X263874Y61853D01*
X263795Y61686D01*
X263765Y61606D01*
X263732Y61527D01*
X263695Y61450D01*
X263655Y61374D01*
X263612Y61300D01*
X263566Y61228D01*
X263516Y61159D01*
X263463Y61091D01*
X263408Y61026D01*
X263349Y60963D01*
X263288Y60904D01*
X263225Y60846D01*
X263158Y60792D01*
X263090Y60741D01*
X263019Y60693D01*
X262946Y60648D01*
X262872Y60606D01*
X262795Y60568D01*
X262717Y60533D01*
X262638Y60501D01*
X262557Y60473D01*
X262475Y60449D01*
X262391Y60428D01*
X262308Y60411D01*
X262223Y60398D01*
X262138Y60389D01*
X262053Y60383D01*
X261967Y60381D01*
X260139Y61686D02*
X260060Y61853D01*
X259985Y62022D01*
X259914Y62193D01*
X259847Y62365D01*
X259785Y62539D01*
X259726Y62715D01*
X259672Y62891D01*
X259622Y63069D01*
X259576Y63249D01*
X259534Y63429D01*
X259497Y63610D01*
X259464Y63792D01*
X259435Y63974D01*
X259411Y64158D01*
X259391Y64342D01*
X259376Y64526D01*
X259365Y64710D01*
X259358Y64895D01*
X259356Y65080D01*
X260139Y61686D02*
X260169Y61606D01*
X260202Y61527D01*
X260239Y61450D01*
X260279Y61374D01*
X260322Y61300D01*
X260368Y61228D01*
X260418Y61159D01*
X260471Y61091D01*
X260526Y61026D01*
X260585Y60963D01*
X260646Y60904D01*
X260709Y60846D01*
X260776Y60792D01*
X260844Y60741D01*
X260915Y60693D01*
X260988Y60648D01*
X261062Y60606D01*
X261139Y60568D01*
X261217Y60533D01*
X261297Y60501D01*
X261377Y60473D01*
X261459Y60449D01*
X261543Y60428D01*
X261626Y60411D01*
X261711Y60398D01*
X261796Y60389D01*
X261881Y60383D01*
X261967Y60381D01*
X264055Y62469D02*
X259878Y67691D01*
X255433Y68735D02*
X255433Y69779D01*
X250212Y69779D01*
X252823Y60381D01*
X246290Y62992D02*
X246288Y63093D01*
X246282Y63194D01*
X246272Y63295D01*
X246259Y63395D01*
X246241Y63495D01*
X246220Y63594D01*
X246194Y63692D01*
X246165Y63789D01*
X246133Y63885D01*
X246096Y63979D01*
X246056Y64072D01*
X246012Y64164D01*
X245965Y64253D01*
X245914Y64341D01*
X245860Y64427D01*
X245803Y64510D01*
X245743Y64592D01*
X245679Y64670D01*
X245613Y64747D01*
X245543Y64820D01*
X245471Y64891D01*
X245396Y64959D01*
X245318Y65024D01*
X245238Y65086D01*
X245156Y65145D01*
X245071Y65201D01*
X244985Y65253D01*
X244896Y65302D01*
X244805Y65348D01*
X244713Y65389D01*
X244619Y65428D01*
X244524Y65462D01*
X244428Y65493D01*
X244330Y65520D01*
X244232Y65544D01*
X244132Y65563D01*
X244032Y65579D01*
X243932Y65591D01*
X243831Y65599D01*
X243730Y65603D01*
X243628Y65603D01*
X243527Y65599D01*
X243426Y65591D01*
X243326Y65579D01*
X243226Y65563D01*
X243126Y65544D01*
X243028Y65520D01*
X242930Y65493D01*
X242834Y65462D01*
X242739Y65428D01*
X242645Y65389D01*
X242553Y65348D01*
X242462Y65302D01*
X242374Y65253D01*
X242287Y65201D01*
X242202Y65145D01*
X242120Y65086D01*
X242040Y65024D01*
X241962Y64959D01*
X241887Y64891D01*
X241815Y64820D01*
X241745Y64747D01*
X241679Y64670D01*
X241615Y64592D01*
X241555Y64510D01*
X241498Y64427D01*
X241444Y64341D01*
X241393Y64253D01*
X241346Y64164D01*
X241302Y64072D01*
X241262Y63979D01*
X241225Y63885D01*
X241193Y63789D01*
X241164Y63692D01*
X241138Y63594D01*
X241117Y63495D01*
X241099Y63395D01*
X241086Y63295D01*
X241076Y63194D01*
X241070Y63093D01*
X241068Y62992D01*
X241070Y62891D01*
X241076Y62790D01*
X241086Y62689D01*
X241099Y62589D01*
X241117Y62489D01*
X241138Y62390D01*
X241164Y62292D01*
X241193Y62195D01*
X241225Y62099D01*
X241262Y62005D01*
X241302Y61912D01*
X241346Y61820D01*
X241393Y61731D01*
X241444Y61643D01*
X241498Y61557D01*
X241555Y61474D01*
X241615Y61392D01*
X241679Y61314D01*
X241745Y61237D01*
X241815Y61164D01*
X241887Y61093D01*
X241962Y61025D01*
X242040Y60960D01*
X242120Y60898D01*
X242202Y60839D01*
X242287Y60783D01*
X242374Y60731D01*
X242462Y60682D01*
X242553Y60636D01*
X242645Y60595D01*
X242739Y60556D01*
X242834Y60522D01*
X242930Y60491D01*
X243028Y60464D01*
X243126Y60440D01*
X243226Y60421D01*
X243326Y60405D01*
X243426Y60393D01*
X243527Y60385D01*
X243628Y60381D01*
X243730Y60381D01*
X243831Y60385D01*
X243932Y60393D01*
X244032Y60405D01*
X244132Y60421D01*
X244232Y60440D01*
X244330Y60464D01*
X244428Y60491D01*
X244524Y60522D01*
X244619Y60556D01*
X244713Y60595D01*
X244805Y60636D01*
X244896Y60682D01*
X244984Y60731D01*
X245071Y60783D01*
X245156Y60839D01*
X245238Y60898D01*
X245318Y60960D01*
X245396Y61025D01*
X245471Y61093D01*
X245543Y61164D01*
X245613Y61237D01*
X245679Y61314D01*
X245743Y61392D01*
X245803Y61474D01*
X245860Y61557D01*
X245914Y61643D01*
X245965Y61731D01*
X246012Y61820D01*
X246056Y61912D01*
X246096Y62005D01*
X246133Y62099D01*
X246165Y62195D01*
X246194Y62292D01*
X246220Y62390D01*
X246241Y62489D01*
X246259Y62589D01*
X246272Y62689D01*
X246282Y62790D01*
X246288Y62891D01*
X246290Y62992D01*
X245767Y67691D02*
X245765Y67781D01*
X245759Y67870D01*
X245750Y67960D01*
X245736Y68049D01*
X245719Y68137D01*
X245698Y68224D01*
X245673Y68311D01*
X245644Y68396D01*
X245612Y68480D01*
X245577Y68562D01*
X245537Y68643D01*
X245495Y68722D01*
X245449Y68799D01*
X245399Y68874D01*
X245347Y68947D01*
X245291Y69018D01*
X245233Y69086D01*
X245171Y69151D01*
X245107Y69214D01*
X245040Y69274D01*
X244971Y69331D01*
X244899Y69385D01*
X244825Y69436D01*
X244749Y69484D01*
X244671Y69528D01*
X244591Y69569D01*
X244509Y69607D01*
X244426Y69641D01*
X244341Y69671D01*
X244255Y69698D01*
X244169Y69721D01*
X244081Y69740D01*
X243992Y69755D01*
X243903Y69767D01*
X243814Y69775D01*
X243724Y69779D01*
X243634Y69779D01*
X243544Y69775D01*
X243455Y69767D01*
X243366Y69755D01*
X243277Y69740D01*
X243189Y69721D01*
X243103Y69698D01*
X243017Y69671D01*
X242932Y69641D01*
X242849Y69607D01*
X242767Y69569D01*
X242687Y69528D01*
X242609Y69484D01*
X242533Y69436D01*
X242459Y69385D01*
X242387Y69331D01*
X242318Y69274D01*
X242251Y69214D01*
X242187Y69151D01*
X242125Y69086D01*
X242067Y69018D01*
X242011Y68947D01*
X241959Y68874D01*
X241909Y68799D01*
X241863Y68722D01*
X241821Y68643D01*
X241781Y68562D01*
X241746Y68480D01*
X241714Y68396D01*
X241685Y68311D01*
X241660Y68224D01*
X241639Y68137D01*
X241622Y68049D01*
X241608Y67960D01*
X241599Y67870D01*
X241593Y67781D01*
X241591Y67691D01*
X241593Y67601D01*
X241599Y67512D01*
X241608Y67422D01*
X241622Y67333D01*
X241639Y67245D01*
X241660Y67158D01*
X241685Y67071D01*
X241714Y66986D01*
X241746Y66902D01*
X241781Y66820D01*
X241821Y66739D01*
X241863Y66660D01*
X241909Y66583D01*
X241959Y66508D01*
X242011Y66435D01*
X242067Y66364D01*
X242125Y66296D01*
X242187Y66231D01*
X242251Y66168D01*
X242318Y66108D01*
X242387Y66051D01*
X242459Y65997D01*
X242533Y65946D01*
X242609Y65898D01*
X242687Y65854D01*
X242767Y65813D01*
X242849Y65775D01*
X242932Y65741D01*
X243017Y65711D01*
X243103Y65684D01*
X243189Y65661D01*
X243277Y65642D01*
X243366Y65627D01*
X243455Y65615D01*
X243544Y65607D01*
X243634Y65603D01*
X243724Y65603D01*
X243814Y65607D01*
X243903Y65615D01*
X243992Y65627D01*
X244081Y65642D01*
X244169Y65661D01*
X244255Y65684D01*
X244341Y65711D01*
X244426Y65741D01*
X244509Y65775D01*
X244591Y65813D01*
X244671Y65854D01*
X244749Y65898D01*
X244825Y65946D01*
X244899Y65997D01*
X244971Y66051D01*
X245040Y66108D01*
X245107Y66168D01*
X245171Y66231D01*
X245233Y66296D01*
X245291Y66364D01*
X245347Y66435D01*
X245399Y66508D01*
X245449Y66583D01*
X245495Y66660D01*
X245537Y66739D01*
X245577Y66820D01*
X245612Y66902D01*
X245644Y66986D01*
X245673Y67071D01*
X245698Y67158D01*
X245719Y67245D01*
X245736Y67333D01*
X245750Y67422D01*
X245759Y67512D01*
X245765Y67601D01*
X245767Y67691D01*
X237538Y59337D02*
X233361Y70823D01*
X229613Y66646D02*
X229613Y60381D01*
X229613Y66646D02*
X227003Y66646D01*
X226926Y66644D01*
X226850Y66638D01*
X226773Y66629D01*
X226697Y66616D01*
X226623Y66599D01*
X226548Y66579D01*
X226475Y66554D01*
X226404Y66527D01*
X226333Y66496D01*
X226265Y66461D01*
X226198Y66423D01*
X226133Y66382D01*
X226070Y66338D01*
X226010Y66291D01*
X225951Y66240D01*
X225896Y66187D01*
X225843Y66132D01*
X225792Y66073D01*
X225745Y66013D01*
X225701Y65950D01*
X225660Y65885D01*
X225622Y65818D01*
X225587Y65750D01*
X225556Y65679D01*
X225529Y65608D01*
X225504Y65535D01*
X225484Y65461D01*
X225467Y65386D01*
X225454Y65310D01*
X225445Y65234D01*
X225439Y65157D01*
X225437Y65080D01*
X225436Y65080D02*
X225436Y60381D01*
X220600Y64036D02*
X217990Y62992D01*
X220601Y64036D02*
X220667Y64064D01*
X220732Y64097D01*
X220795Y64132D01*
X220856Y64171D01*
X220915Y64213D01*
X220971Y64258D01*
X221025Y64306D01*
X221076Y64357D01*
X221125Y64410D01*
X221170Y64467D01*
X221213Y64525D01*
X221252Y64585D01*
X221289Y64648D01*
X221321Y64713D01*
X221350Y64779D01*
X221376Y64846D01*
X221398Y64915D01*
X221416Y64985D01*
X221431Y65056D01*
X221442Y65127D01*
X221449Y65199D01*
X221452Y65271D01*
X221451Y65343D01*
X221446Y65416D01*
X221438Y65487D01*
X221426Y65559D01*
X221410Y65629D01*
X221390Y65698D01*
X221366Y65767D01*
X221339Y65834D01*
X221309Y65899D01*
X221275Y65963D01*
X221237Y66025D01*
X221197Y66085D01*
X221153Y66142D01*
X221106Y66197D01*
X221056Y66250D01*
X221004Y66299D01*
X220949Y66346D01*
X220892Y66390D01*
X220832Y66431D01*
X220770Y66468D01*
X220706Y66503D01*
X220641Y66533D01*
X220574Y66561D01*
X220506Y66584D01*
X220436Y66604D01*
X220366Y66620D01*
X220295Y66633D01*
X220223Y66641D01*
X220151Y66646D01*
X220079Y66647D01*
X220078Y66646D02*
X219927Y66642D01*
X219776Y66634D01*
X219625Y66623D01*
X219474Y66607D01*
X219324Y66587D01*
X219174Y66564D01*
X219025Y66537D01*
X218877Y66506D01*
X218729Y66471D01*
X218583Y66433D01*
X218437Y66390D01*
X218293Y66344D01*
X218150Y66295D01*
X218008Y66242D01*
X217868Y66185D01*
X217729Y66124D01*
X217990Y62992D02*
X217924Y62964D01*
X217859Y62931D01*
X217796Y62896D01*
X217735Y62857D01*
X217676Y62815D01*
X217620Y62770D01*
X217566Y62722D01*
X217515Y62671D01*
X217466Y62618D01*
X217421Y62561D01*
X217378Y62503D01*
X217339Y62443D01*
X217302Y62380D01*
X217270Y62315D01*
X217241Y62249D01*
X217215Y62182D01*
X217193Y62113D01*
X217175Y62043D01*
X217160Y61972D01*
X217149Y61901D01*
X217142Y61829D01*
X217139Y61757D01*
X217140Y61685D01*
X217145Y61612D01*
X217153Y61541D01*
X217165Y61469D01*
X217181Y61399D01*
X217201Y61330D01*
X217225Y61261D01*
X217252Y61194D01*
X217282Y61129D01*
X217316Y61065D01*
X217354Y61003D01*
X217394Y60943D01*
X217438Y60886D01*
X217485Y60831D01*
X217535Y60778D01*
X217587Y60729D01*
X217642Y60682D01*
X217699Y60638D01*
X217759Y60597D01*
X217821Y60560D01*
X217885Y60525D01*
X217950Y60495D01*
X218017Y60467D01*
X218085Y60444D01*
X218155Y60424D01*
X218225Y60408D01*
X218296Y60395D01*
X218368Y60387D01*
X218440Y60382D01*
X218512Y60381D01*
X218722Y60386D01*
X218931Y60397D01*
X219140Y60412D01*
X219348Y60432D01*
X219556Y60458D01*
X219763Y60488D01*
X219970Y60523D01*
X220175Y60563D01*
X220380Y60607D01*
X220583Y60657D01*
X220786Y60711D01*
X220987Y60771D01*
X221186Y60834D01*
X221384Y60903D01*
X211882Y60381D02*
X209794Y60381D01*
X211882Y60381D02*
X211959Y60383D01*
X212035Y60389D01*
X212112Y60398D01*
X212188Y60411D01*
X212263Y60428D01*
X212337Y60448D01*
X212410Y60473D01*
X212481Y60500D01*
X212552Y60531D01*
X212620Y60566D01*
X212687Y60604D01*
X212752Y60645D01*
X212815Y60689D01*
X212875Y60736D01*
X212934Y60787D01*
X212989Y60840D01*
X213042Y60895D01*
X213093Y60954D01*
X213140Y61014D01*
X213184Y61077D01*
X213225Y61142D01*
X213263Y61209D01*
X213298Y61277D01*
X213329Y61348D01*
X213356Y61419D01*
X213381Y61492D01*
X213401Y61566D01*
X213418Y61641D01*
X213431Y61717D01*
X213440Y61794D01*
X213446Y61870D01*
X213448Y61947D01*
X213448Y65080D01*
X213446Y65157D01*
X213440Y65233D01*
X213431Y65310D01*
X213418Y65386D01*
X213401Y65461D01*
X213381Y65535D01*
X213356Y65608D01*
X213329Y65679D01*
X213298Y65750D01*
X213263Y65818D01*
X213225Y65885D01*
X213184Y65950D01*
X213140Y66013D01*
X213093Y66073D01*
X213042Y66132D01*
X212989Y66187D01*
X212934Y66240D01*
X212875Y66291D01*
X212815Y66338D01*
X212752Y66382D01*
X212687Y66423D01*
X212620Y66461D01*
X212552Y66496D01*
X212481Y66527D01*
X212410Y66554D01*
X212337Y66579D01*
X212263Y66599D01*
X212188Y66616D01*
X212112Y66629D01*
X212035Y66638D01*
X211959Y66644D01*
X211882Y66646D01*
X209794Y66646D01*
X204667Y64036D02*
X202317Y64036D01*
X204667Y64035D02*
X204751Y64033D01*
X204836Y64027D01*
X204919Y64017D01*
X205003Y64004D01*
X205085Y63986D01*
X205167Y63965D01*
X205248Y63940D01*
X205327Y63912D01*
X205405Y63879D01*
X205481Y63843D01*
X205556Y63804D01*
X205629Y63761D01*
X205700Y63715D01*
X205768Y63666D01*
X205834Y63614D01*
X205898Y63558D01*
X205959Y63500D01*
X206017Y63439D01*
X206073Y63375D01*
X206125Y63309D01*
X206174Y63241D01*
X206220Y63170D01*
X206263Y63097D01*
X206302Y63022D01*
X206338Y62946D01*
X206371Y62868D01*
X206399Y62789D01*
X206424Y62708D01*
X206445Y62626D01*
X206463Y62544D01*
X206476Y62460D01*
X206486Y62377D01*
X206492Y62292D01*
X206494Y62208D01*
X206492Y62124D01*
X206486Y62039D01*
X206476Y61956D01*
X206463Y61872D01*
X206445Y61790D01*
X206424Y61708D01*
X206399Y61627D01*
X206371Y61548D01*
X206338Y61470D01*
X206302Y61394D01*
X206263Y61319D01*
X206220Y61246D01*
X206174Y61175D01*
X206125Y61107D01*
X206073Y61041D01*
X206017Y60977D01*
X205959Y60916D01*
X205898Y60858D01*
X205834Y60802D01*
X205768Y60750D01*
X205700Y60701D01*
X205629Y60655D01*
X205556Y60612D01*
X205481Y60573D01*
X205405Y60537D01*
X205327Y60504D01*
X205248Y60476D01*
X205167Y60451D01*
X205085Y60430D01*
X205003Y60412D01*
X204919Y60399D01*
X204836Y60389D01*
X204751Y60383D01*
X204667Y60381D01*
X202317Y60381D01*
X202317Y65080D01*
X202319Y65157D01*
X202325Y65233D01*
X202334Y65310D01*
X202347Y65386D01*
X202364Y65461D01*
X202384Y65535D01*
X202409Y65608D01*
X202436Y65679D01*
X202467Y65750D01*
X202502Y65818D01*
X202540Y65885D01*
X202581Y65950D01*
X202625Y66013D01*
X202672Y66073D01*
X202723Y66132D01*
X202776Y66187D01*
X202831Y66240D01*
X202890Y66291D01*
X202950Y66338D01*
X203013Y66382D01*
X203078Y66423D01*
X203145Y66461D01*
X203213Y66496D01*
X203284Y66527D01*
X203355Y66554D01*
X203428Y66579D01*
X203503Y66599D01*
X203578Y66616D01*
X203653Y66629D01*
X203730Y66638D01*
X203806Y66644D01*
X203883Y66646D01*
X203884Y66646D02*
X205972Y66646D01*
X198093Y69779D02*
X198093Y61947D01*
X198091Y61870D01*
X198085Y61794D01*
X198076Y61717D01*
X198063Y61641D01*
X198046Y61566D01*
X198026Y61492D01*
X198001Y61419D01*
X197974Y61348D01*
X197943Y61277D01*
X197908Y61209D01*
X197870Y61142D01*
X197829Y61077D01*
X197785Y61014D01*
X197738Y60954D01*
X197687Y60895D01*
X197634Y60840D01*
X197579Y60787D01*
X197520Y60736D01*
X197460Y60689D01*
X197397Y60645D01*
X197332Y60604D01*
X197265Y60566D01*
X197197Y60531D01*
X197126Y60500D01*
X197055Y60473D01*
X196982Y60448D01*
X196908Y60428D01*
X196833Y60411D01*
X196757Y60398D01*
X196680Y60389D01*
X196604Y60383D01*
X196527Y60381D01*
X191776Y60381D02*
X189165Y60381D01*
X191776Y60381D02*
X191853Y60383D01*
X191929Y60389D01*
X192006Y60398D01*
X192082Y60411D01*
X192157Y60428D01*
X192231Y60448D01*
X192304Y60473D01*
X192375Y60500D01*
X192446Y60531D01*
X192514Y60566D01*
X192581Y60604D01*
X192646Y60645D01*
X192709Y60689D01*
X192769Y60736D01*
X192828Y60787D01*
X192883Y60840D01*
X192936Y60895D01*
X192987Y60954D01*
X193034Y61014D01*
X193078Y61077D01*
X193119Y61142D01*
X193157Y61209D01*
X193192Y61277D01*
X193223Y61348D01*
X193250Y61419D01*
X193275Y61492D01*
X193295Y61566D01*
X193312Y61641D01*
X193325Y61717D01*
X193334Y61794D01*
X193340Y61870D01*
X193342Y61947D01*
X193342Y64558D01*
X193340Y64648D01*
X193334Y64737D01*
X193325Y64827D01*
X193311Y64916D01*
X193294Y65004D01*
X193273Y65091D01*
X193248Y65178D01*
X193219Y65263D01*
X193187Y65347D01*
X193152Y65429D01*
X193112Y65510D01*
X193070Y65589D01*
X193024Y65666D01*
X192974Y65741D01*
X192922Y65814D01*
X192866Y65885D01*
X192808Y65953D01*
X192746Y66018D01*
X192682Y66081D01*
X192615Y66141D01*
X192546Y66198D01*
X192474Y66252D01*
X192400Y66303D01*
X192324Y66351D01*
X192246Y66395D01*
X192166Y66436D01*
X192084Y66474D01*
X192001Y66508D01*
X191916Y66538D01*
X191830Y66565D01*
X191744Y66588D01*
X191656Y66607D01*
X191567Y66622D01*
X191478Y66634D01*
X191389Y66642D01*
X191299Y66646D01*
X191209Y66646D01*
X191119Y66642D01*
X191030Y66634D01*
X190941Y66622D01*
X190852Y66607D01*
X190764Y66588D01*
X190678Y66565D01*
X190592Y66538D01*
X190507Y66508D01*
X190424Y66474D01*
X190342Y66436D01*
X190262Y66395D01*
X190184Y66351D01*
X190108Y66303D01*
X190034Y66252D01*
X189962Y66198D01*
X189893Y66141D01*
X189826Y66081D01*
X189762Y66018D01*
X189700Y65953D01*
X189642Y65885D01*
X189586Y65814D01*
X189534Y65741D01*
X189484Y65666D01*
X189438Y65589D01*
X189396Y65510D01*
X189356Y65429D01*
X189321Y65347D01*
X189289Y65263D01*
X189260Y65178D01*
X189235Y65091D01*
X189214Y65004D01*
X189197Y64916D01*
X189183Y64827D01*
X189174Y64737D01*
X189168Y64648D01*
X189166Y64558D01*
X189165Y64558D02*
X189165Y63514D01*
X193342Y63514D01*
X185242Y64036D02*
X178977Y64036D01*
X173272Y64036D02*
X170923Y64036D01*
X173272Y64035D02*
X173356Y64033D01*
X173441Y64027D01*
X173524Y64017D01*
X173608Y64004D01*
X173690Y63986D01*
X173772Y63965D01*
X173853Y63940D01*
X173932Y63912D01*
X174010Y63879D01*
X174086Y63843D01*
X174161Y63804D01*
X174234Y63761D01*
X174305Y63715D01*
X174373Y63666D01*
X174439Y63614D01*
X174503Y63558D01*
X174564Y63500D01*
X174622Y63439D01*
X174678Y63375D01*
X174730Y63309D01*
X174779Y63241D01*
X174825Y63170D01*
X174868Y63097D01*
X174907Y63022D01*
X174943Y62946D01*
X174976Y62868D01*
X175004Y62789D01*
X175029Y62708D01*
X175050Y62626D01*
X175068Y62544D01*
X175081Y62460D01*
X175091Y62377D01*
X175097Y62292D01*
X175099Y62208D01*
X175097Y62124D01*
X175091Y62039D01*
X175081Y61956D01*
X175068Y61872D01*
X175050Y61790D01*
X175029Y61708D01*
X175004Y61627D01*
X174976Y61548D01*
X174943Y61470D01*
X174907Y61394D01*
X174868Y61319D01*
X174825Y61246D01*
X174779Y61175D01*
X174730Y61107D01*
X174678Y61041D01*
X174622Y60977D01*
X174564Y60916D01*
X174503Y60858D01*
X174439Y60802D01*
X174373Y60750D01*
X174305Y60701D01*
X174234Y60655D01*
X174161Y60612D01*
X174086Y60573D01*
X174010Y60537D01*
X173932Y60504D01*
X173853Y60476D01*
X173772Y60451D01*
X173690Y60430D01*
X173608Y60412D01*
X173524Y60399D01*
X173441Y60389D01*
X173356Y60383D01*
X173272Y60381D01*
X170923Y60381D01*
X170923Y65080D01*
X170925Y65157D01*
X170931Y65233D01*
X170940Y65310D01*
X170953Y65386D01*
X170970Y65461D01*
X170990Y65535D01*
X171015Y65608D01*
X171042Y65679D01*
X171073Y65750D01*
X171108Y65818D01*
X171146Y65885D01*
X171187Y65950D01*
X171231Y66013D01*
X171278Y66073D01*
X171329Y66132D01*
X171382Y66187D01*
X171437Y66240D01*
X171496Y66291D01*
X171556Y66338D01*
X171619Y66382D01*
X171684Y66423D01*
X171751Y66461D01*
X171819Y66496D01*
X171890Y66527D01*
X171961Y66554D01*
X172034Y66579D01*
X172109Y66599D01*
X172184Y66616D01*
X172259Y66629D01*
X172336Y66638D01*
X172412Y66644D01*
X172489Y66646D01*
X174578Y66646D01*
X162693Y69779D02*
X162693Y60381D01*
X165304Y60381D01*
X165381Y60383D01*
X165457Y60389D01*
X165534Y60398D01*
X165610Y60411D01*
X165685Y60428D01*
X165759Y60448D01*
X165832Y60473D01*
X165903Y60500D01*
X165974Y60531D01*
X166042Y60566D01*
X166109Y60604D01*
X166174Y60645D01*
X166237Y60689D01*
X166297Y60736D01*
X166356Y60787D01*
X166411Y60840D01*
X166464Y60895D01*
X166515Y60954D01*
X166562Y61014D01*
X166606Y61077D01*
X166647Y61142D01*
X166685Y61209D01*
X166720Y61277D01*
X166751Y61348D01*
X166778Y61419D01*
X166803Y61492D01*
X166823Y61566D01*
X166840Y61641D01*
X166853Y61717D01*
X166862Y61794D01*
X166868Y61870D01*
X166870Y61947D01*
X166870Y65080D01*
X166868Y65157D01*
X166862Y65233D01*
X166853Y65310D01*
X166840Y65386D01*
X166823Y65461D01*
X166803Y65535D01*
X166778Y65608D01*
X166751Y65679D01*
X166720Y65750D01*
X166685Y65818D01*
X166647Y65885D01*
X166606Y65950D01*
X166562Y66013D01*
X166515Y66073D01*
X166464Y66132D01*
X166411Y66187D01*
X166356Y66240D01*
X166297Y66291D01*
X166237Y66338D01*
X166174Y66382D01*
X166109Y66423D01*
X166042Y66461D01*
X165974Y66496D01*
X165903Y66527D01*
X165832Y66554D01*
X165759Y66579D01*
X165685Y66599D01*
X165610Y66616D01*
X165534Y66629D01*
X165457Y66638D01*
X165381Y66644D01*
X165304Y66646D01*
X162693Y66646D01*
X156813Y64036D02*
X154464Y64036D01*
X156813Y64035D02*
X156897Y64033D01*
X156982Y64027D01*
X157065Y64017D01*
X157149Y64004D01*
X157231Y63986D01*
X157313Y63965D01*
X157394Y63940D01*
X157473Y63912D01*
X157551Y63879D01*
X157627Y63843D01*
X157702Y63804D01*
X157775Y63761D01*
X157846Y63715D01*
X157914Y63666D01*
X157980Y63614D01*
X158044Y63558D01*
X158105Y63500D01*
X158163Y63439D01*
X158219Y63375D01*
X158271Y63309D01*
X158320Y63241D01*
X158366Y63170D01*
X158409Y63097D01*
X158448Y63022D01*
X158484Y62946D01*
X158517Y62868D01*
X158545Y62789D01*
X158570Y62708D01*
X158591Y62626D01*
X158609Y62544D01*
X158622Y62460D01*
X158632Y62377D01*
X158638Y62292D01*
X158640Y62208D01*
X158638Y62124D01*
X158632Y62039D01*
X158622Y61956D01*
X158609Y61872D01*
X158591Y61790D01*
X158570Y61708D01*
X158545Y61627D01*
X158517Y61548D01*
X158484Y61470D01*
X158448Y61394D01*
X158409Y61319D01*
X158366Y61246D01*
X158320Y61175D01*
X158271Y61107D01*
X158219Y61041D01*
X158163Y60977D01*
X158105Y60916D01*
X158044Y60858D01*
X157980Y60802D01*
X157914Y60750D01*
X157846Y60701D01*
X157775Y60655D01*
X157702Y60612D01*
X157627Y60573D01*
X157551Y60537D01*
X157473Y60504D01*
X157394Y60476D01*
X157313Y60451D01*
X157231Y60430D01*
X157149Y60412D01*
X157065Y60399D01*
X156982Y60389D01*
X156897Y60383D01*
X156813Y60381D01*
X154464Y60381D01*
X154464Y65080D01*
X154466Y65157D01*
X154472Y65233D01*
X154481Y65310D01*
X154494Y65386D01*
X154511Y65461D01*
X154531Y65535D01*
X154556Y65608D01*
X154583Y65679D01*
X154614Y65750D01*
X154649Y65818D01*
X154687Y65885D01*
X154728Y65950D01*
X154772Y66013D01*
X154819Y66073D01*
X154870Y66132D01*
X154923Y66187D01*
X154978Y66240D01*
X155037Y66291D01*
X155097Y66338D01*
X155160Y66382D01*
X155225Y66423D01*
X155292Y66461D01*
X155360Y66496D01*
X155431Y66527D01*
X155502Y66554D01*
X155575Y66579D01*
X155650Y66599D01*
X155725Y66616D01*
X155800Y66629D01*
X155877Y66638D01*
X155953Y66644D01*
X156030Y66646D01*
X158119Y66646D01*
X150015Y66646D02*
X150015Y57248D01*
X150015Y66646D02*
X147405Y66646D01*
X147328Y66644D01*
X147252Y66638D01*
X147175Y66629D01*
X147099Y66616D01*
X147025Y66599D01*
X146950Y66579D01*
X146877Y66554D01*
X146806Y66527D01*
X146735Y66496D01*
X146667Y66461D01*
X146600Y66423D01*
X146535Y66382D01*
X146472Y66338D01*
X146412Y66291D01*
X146353Y66240D01*
X146298Y66187D01*
X146245Y66132D01*
X146194Y66073D01*
X146147Y66013D01*
X146103Y65950D01*
X146062Y65885D01*
X146024Y65818D01*
X145989Y65750D01*
X145958Y65679D01*
X145931Y65608D01*
X145906Y65535D01*
X145886Y65461D01*
X145869Y65386D01*
X145856Y65310D01*
X145847Y65234D01*
X145841Y65157D01*
X145839Y65080D01*
X145838Y65080D02*
X145838Y61947D01*
X145839Y61947D02*
X145841Y61870D01*
X145847Y61794D01*
X145856Y61717D01*
X145869Y61641D01*
X145886Y61566D01*
X145906Y61492D01*
X145931Y61419D01*
X145958Y61348D01*
X145989Y61277D01*
X146024Y61209D01*
X146062Y61142D01*
X146103Y61077D01*
X146147Y61014D01*
X146194Y60954D01*
X146245Y60895D01*
X146298Y60840D01*
X146353Y60787D01*
X146412Y60736D01*
X146472Y60689D01*
X146535Y60645D01*
X146600Y60604D01*
X146667Y60566D01*
X146735Y60531D01*
X146806Y60500D01*
X146877Y60473D01*
X146950Y60448D01*
X147025Y60428D01*
X147100Y60411D01*
X147175Y60398D01*
X147252Y60389D01*
X147328Y60383D01*
X147405Y60381D01*
X150015Y60381D01*
X142905Y66646D02*
X139772Y66646D01*
X141861Y69779D02*
X141861Y61947D01*
X141860Y61947D02*
X141858Y61870D01*
X141852Y61794D01*
X141843Y61717D01*
X141830Y61641D01*
X141813Y61566D01*
X141793Y61492D01*
X141768Y61419D01*
X141741Y61348D01*
X141710Y61277D01*
X141675Y61209D01*
X141637Y61142D01*
X141596Y61077D01*
X141552Y61014D01*
X141505Y60954D01*
X141454Y60895D01*
X141401Y60840D01*
X141346Y60787D01*
X141287Y60736D01*
X141227Y60689D01*
X141164Y60645D01*
X141099Y60604D01*
X141032Y60566D01*
X140964Y60531D01*
X140893Y60500D01*
X140822Y60473D01*
X140749Y60448D01*
X140675Y60428D01*
X140600Y60411D01*
X140524Y60398D01*
X140447Y60389D01*
X140371Y60383D01*
X140294Y60381D01*
X139772Y60381D01*
X134779Y60381D02*
X132168Y60381D01*
X134779Y60381D02*
X134856Y60383D01*
X134932Y60389D01*
X135009Y60398D01*
X135085Y60411D01*
X135160Y60428D01*
X135234Y60448D01*
X135307Y60473D01*
X135378Y60500D01*
X135449Y60531D01*
X135517Y60566D01*
X135584Y60604D01*
X135649Y60645D01*
X135712Y60689D01*
X135772Y60736D01*
X135831Y60787D01*
X135886Y60840D01*
X135939Y60895D01*
X135990Y60954D01*
X136037Y61014D01*
X136081Y61077D01*
X136122Y61142D01*
X136160Y61209D01*
X136195Y61277D01*
X136226Y61348D01*
X136253Y61419D01*
X136278Y61492D01*
X136298Y61566D01*
X136315Y61641D01*
X136328Y61717D01*
X136337Y61794D01*
X136343Y61870D01*
X136345Y61947D01*
X136345Y64558D01*
X136344Y64558D02*
X136342Y64648D01*
X136336Y64737D01*
X136327Y64827D01*
X136313Y64916D01*
X136296Y65004D01*
X136275Y65091D01*
X136250Y65178D01*
X136221Y65263D01*
X136189Y65347D01*
X136154Y65429D01*
X136114Y65510D01*
X136072Y65589D01*
X136026Y65666D01*
X135976Y65741D01*
X135924Y65814D01*
X135868Y65885D01*
X135810Y65953D01*
X135748Y66018D01*
X135684Y66081D01*
X135617Y66141D01*
X135548Y66198D01*
X135476Y66252D01*
X135402Y66303D01*
X135326Y66351D01*
X135248Y66395D01*
X135168Y66436D01*
X135086Y66474D01*
X135003Y66508D01*
X134918Y66538D01*
X134832Y66565D01*
X134746Y66588D01*
X134658Y66607D01*
X134569Y66622D01*
X134480Y66634D01*
X134391Y66642D01*
X134301Y66646D01*
X134211Y66646D01*
X134121Y66642D01*
X134032Y66634D01*
X133943Y66622D01*
X133854Y66607D01*
X133766Y66588D01*
X133680Y66565D01*
X133594Y66538D01*
X133509Y66508D01*
X133426Y66474D01*
X133344Y66436D01*
X133264Y66395D01*
X133186Y66351D01*
X133110Y66303D01*
X133036Y66252D01*
X132964Y66198D01*
X132895Y66141D01*
X132828Y66081D01*
X132764Y66018D01*
X132702Y65953D01*
X132644Y65885D01*
X132588Y65814D01*
X132536Y65741D01*
X132486Y65666D01*
X132440Y65589D01*
X132398Y65510D01*
X132358Y65429D01*
X132323Y65347D01*
X132291Y65263D01*
X132262Y65178D01*
X132237Y65091D01*
X132216Y65004D01*
X132199Y64916D01*
X132185Y64827D01*
X132176Y64737D01*
X132170Y64648D01*
X132168Y64558D01*
X132168Y63514D01*
X136345Y63514D01*
X128064Y60381D02*
X128064Y66646D01*
X124931Y66646D01*
X124931Y65602D01*
X121844Y64036D02*
X115579Y64036D01*
X107525Y60381D02*
X107525Y69779D01*
X107525Y60381D02*
X110136Y60381D01*
X110213Y60383D01*
X110289Y60389D01*
X110366Y60398D01*
X110442Y60411D01*
X110517Y60428D01*
X110591Y60448D01*
X110664Y60473D01*
X110735Y60500D01*
X110806Y60531D01*
X110874Y60566D01*
X110941Y60604D01*
X111006Y60645D01*
X111069Y60689D01*
X111129Y60736D01*
X111188Y60787D01*
X111243Y60840D01*
X111296Y60895D01*
X111347Y60954D01*
X111394Y61014D01*
X111438Y61077D01*
X111479Y61142D01*
X111517Y61209D01*
X111552Y61277D01*
X111583Y61348D01*
X111610Y61419D01*
X111635Y61492D01*
X111655Y61566D01*
X111672Y61641D01*
X111685Y61717D01*
X111694Y61794D01*
X111700Y61870D01*
X111702Y61947D01*
X111702Y65080D01*
X111700Y65157D01*
X111694Y65233D01*
X111685Y65310D01*
X111672Y65386D01*
X111655Y65461D01*
X111635Y65535D01*
X111610Y65608D01*
X111583Y65679D01*
X111552Y65750D01*
X111517Y65818D01*
X111479Y65885D01*
X111438Y65950D01*
X111394Y66013D01*
X111347Y66073D01*
X111296Y66132D01*
X111243Y66187D01*
X111188Y66240D01*
X111129Y66291D01*
X111069Y66338D01*
X111006Y66382D01*
X110941Y66423D01*
X110874Y66461D01*
X110806Y66496D01*
X110735Y66527D01*
X110664Y66554D01*
X110591Y66579D01*
X110517Y66599D01*
X110442Y66616D01*
X110366Y66629D01*
X110289Y66638D01*
X110213Y66644D01*
X110136Y66646D01*
X107525Y66646D01*
X101860Y60381D02*
X99250Y60381D01*
X101860Y60381D02*
X101937Y60383D01*
X102013Y60389D01*
X102090Y60398D01*
X102166Y60411D01*
X102241Y60428D01*
X102315Y60448D01*
X102388Y60473D01*
X102459Y60500D01*
X102530Y60531D01*
X102598Y60566D01*
X102665Y60604D01*
X102730Y60645D01*
X102793Y60689D01*
X102853Y60736D01*
X102912Y60787D01*
X102967Y60840D01*
X103020Y60895D01*
X103071Y60954D01*
X103118Y61014D01*
X103162Y61077D01*
X103203Y61142D01*
X103241Y61209D01*
X103276Y61277D01*
X103307Y61348D01*
X103334Y61419D01*
X103359Y61492D01*
X103379Y61566D01*
X103396Y61641D01*
X103409Y61717D01*
X103418Y61794D01*
X103424Y61870D01*
X103426Y61947D01*
X103427Y61947D02*
X103427Y64558D01*
X103426Y64558D02*
X103424Y64648D01*
X103418Y64737D01*
X103409Y64827D01*
X103395Y64916D01*
X103378Y65004D01*
X103357Y65091D01*
X103332Y65178D01*
X103303Y65263D01*
X103271Y65347D01*
X103236Y65429D01*
X103196Y65510D01*
X103154Y65589D01*
X103108Y65666D01*
X103058Y65741D01*
X103006Y65814D01*
X102950Y65885D01*
X102892Y65953D01*
X102830Y66018D01*
X102766Y66081D01*
X102699Y66141D01*
X102630Y66198D01*
X102558Y66252D01*
X102484Y66303D01*
X102408Y66351D01*
X102330Y66395D01*
X102250Y66436D01*
X102168Y66474D01*
X102085Y66508D01*
X102000Y66538D01*
X101914Y66565D01*
X101828Y66588D01*
X101740Y66607D01*
X101651Y66622D01*
X101562Y66634D01*
X101473Y66642D01*
X101383Y66646D01*
X101293Y66646D01*
X101203Y66642D01*
X101114Y66634D01*
X101025Y66622D01*
X100936Y66607D01*
X100848Y66588D01*
X100762Y66565D01*
X100676Y66538D01*
X100591Y66508D01*
X100508Y66474D01*
X100426Y66436D01*
X100346Y66395D01*
X100268Y66351D01*
X100192Y66303D01*
X100118Y66252D01*
X100046Y66198D01*
X99977Y66141D01*
X99910Y66081D01*
X99846Y66018D01*
X99784Y65953D01*
X99726Y65885D01*
X99670Y65814D01*
X99618Y65741D01*
X99568Y65666D01*
X99522Y65589D01*
X99480Y65510D01*
X99440Y65429D01*
X99405Y65347D01*
X99373Y65263D01*
X99344Y65178D01*
X99319Y65091D01*
X99298Y65004D01*
X99281Y64916D01*
X99267Y64827D01*
X99258Y64737D01*
X99252Y64648D01*
X99250Y64558D01*
X99250Y63514D01*
X103427Y63514D01*
X93925Y60381D02*
X91837Y60381D01*
X93925Y60381D02*
X94002Y60383D01*
X94078Y60389D01*
X94155Y60398D01*
X94231Y60411D01*
X94306Y60428D01*
X94380Y60448D01*
X94453Y60473D01*
X94524Y60500D01*
X94595Y60531D01*
X94663Y60566D01*
X94730Y60604D01*
X94795Y60645D01*
X94858Y60689D01*
X94918Y60736D01*
X94977Y60787D01*
X95032Y60840D01*
X95085Y60895D01*
X95136Y60954D01*
X95183Y61014D01*
X95227Y61077D01*
X95268Y61142D01*
X95306Y61209D01*
X95341Y61277D01*
X95372Y61348D01*
X95399Y61419D01*
X95424Y61492D01*
X95444Y61566D01*
X95461Y61641D01*
X95474Y61717D01*
X95483Y61794D01*
X95489Y61870D01*
X95491Y61947D01*
X95492Y61947D02*
X95492Y65080D01*
X95491Y65080D02*
X95489Y65157D01*
X95483Y65233D01*
X95474Y65310D01*
X95461Y65386D01*
X95444Y65461D01*
X95424Y65535D01*
X95399Y65608D01*
X95372Y65679D01*
X95341Y65750D01*
X95306Y65818D01*
X95268Y65885D01*
X95227Y65950D01*
X95183Y66013D01*
X95136Y66073D01*
X95085Y66132D01*
X95032Y66187D01*
X94977Y66240D01*
X94918Y66291D01*
X94858Y66338D01*
X94795Y66382D01*
X94730Y66423D01*
X94663Y66461D01*
X94595Y66496D01*
X94524Y66527D01*
X94453Y66554D01*
X94380Y66579D01*
X94306Y66599D01*
X94231Y66616D01*
X94155Y66629D01*
X94078Y66638D01*
X94002Y66644D01*
X93925Y66646D01*
X91837Y66646D01*
X88492Y64558D02*
X88492Y62469D01*
X88491Y64558D02*
X88489Y64648D01*
X88483Y64737D01*
X88474Y64827D01*
X88460Y64916D01*
X88443Y65004D01*
X88422Y65091D01*
X88397Y65178D01*
X88368Y65263D01*
X88336Y65347D01*
X88301Y65429D01*
X88261Y65510D01*
X88219Y65589D01*
X88173Y65666D01*
X88123Y65741D01*
X88071Y65814D01*
X88015Y65885D01*
X87957Y65953D01*
X87895Y66018D01*
X87831Y66081D01*
X87764Y66141D01*
X87695Y66198D01*
X87623Y66252D01*
X87549Y66303D01*
X87473Y66351D01*
X87395Y66395D01*
X87315Y66436D01*
X87233Y66474D01*
X87150Y66508D01*
X87065Y66538D01*
X86979Y66565D01*
X86893Y66588D01*
X86805Y66607D01*
X86716Y66622D01*
X86627Y66634D01*
X86538Y66642D01*
X86448Y66646D01*
X86358Y66646D01*
X86268Y66642D01*
X86179Y66634D01*
X86090Y66622D01*
X86001Y66607D01*
X85913Y66588D01*
X85827Y66565D01*
X85741Y66538D01*
X85656Y66508D01*
X85573Y66474D01*
X85491Y66436D01*
X85411Y66395D01*
X85333Y66351D01*
X85257Y66303D01*
X85183Y66252D01*
X85111Y66198D01*
X85042Y66141D01*
X84975Y66081D01*
X84911Y66018D01*
X84849Y65953D01*
X84791Y65885D01*
X84735Y65814D01*
X84683Y65741D01*
X84633Y65666D01*
X84587Y65589D01*
X84545Y65510D01*
X84505Y65429D01*
X84470Y65347D01*
X84438Y65263D01*
X84409Y65178D01*
X84384Y65091D01*
X84363Y65004D01*
X84346Y64916D01*
X84332Y64827D01*
X84323Y64737D01*
X84317Y64648D01*
X84315Y64558D01*
X84315Y62469D01*
X84317Y62379D01*
X84323Y62290D01*
X84332Y62200D01*
X84346Y62111D01*
X84363Y62023D01*
X84384Y61936D01*
X84409Y61849D01*
X84438Y61764D01*
X84470Y61680D01*
X84505Y61598D01*
X84545Y61517D01*
X84587Y61438D01*
X84633Y61361D01*
X84683Y61286D01*
X84735Y61213D01*
X84791Y61142D01*
X84849Y61074D01*
X84911Y61009D01*
X84975Y60946D01*
X85042Y60886D01*
X85111Y60829D01*
X85183Y60775D01*
X85257Y60724D01*
X85333Y60676D01*
X85411Y60632D01*
X85491Y60591D01*
X85573Y60553D01*
X85656Y60519D01*
X85741Y60489D01*
X85827Y60462D01*
X85913Y60439D01*
X86001Y60420D01*
X86090Y60405D01*
X86179Y60393D01*
X86268Y60385D01*
X86358Y60381D01*
X86448Y60381D01*
X86538Y60385D01*
X86627Y60393D01*
X86716Y60405D01*
X86805Y60420D01*
X86893Y60439D01*
X86979Y60462D01*
X87065Y60489D01*
X87150Y60519D01*
X87233Y60553D01*
X87315Y60591D01*
X87395Y60632D01*
X87473Y60676D01*
X87549Y60724D01*
X87623Y60775D01*
X87695Y60829D01*
X87764Y60886D01*
X87831Y60946D01*
X87895Y61009D01*
X87957Y61074D01*
X88015Y61142D01*
X88071Y61213D01*
X88123Y61286D01*
X88173Y61361D01*
X88219Y61438D01*
X88261Y61517D01*
X88301Y61598D01*
X88336Y61680D01*
X88368Y61764D01*
X88397Y61849D01*
X88422Y61936D01*
X88443Y62023D01*
X88460Y62111D01*
X88474Y62200D01*
X88483Y62290D01*
X88489Y62379D01*
X88491Y62469D01*
X76436Y60381D02*
X76436Y69779D01*
X76436Y60381D02*
X79046Y60381D01*
X79123Y60383D01*
X79199Y60389D01*
X79276Y60398D01*
X79352Y60411D01*
X79427Y60428D01*
X79501Y60448D01*
X79574Y60473D01*
X79645Y60500D01*
X79716Y60531D01*
X79784Y60566D01*
X79851Y60604D01*
X79916Y60645D01*
X79979Y60689D01*
X80039Y60736D01*
X80098Y60787D01*
X80153Y60840D01*
X80206Y60895D01*
X80257Y60954D01*
X80304Y61014D01*
X80348Y61077D01*
X80389Y61142D01*
X80427Y61209D01*
X80462Y61277D01*
X80493Y61348D01*
X80520Y61419D01*
X80545Y61492D01*
X80565Y61566D01*
X80582Y61641D01*
X80595Y61717D01*
X80604Y61794D01*
X80610Y61870D01*
X80612Y61947D01*
X80612Y65080D01*
X80610Y65157D01*
X80604Y65233D01*
X80595Y65310D01*
X80582Y65386D01*
X80565Y65461D01*
X80545Y65535D01*
X80520Y65608D01*
X80493Y65679D01*
X80462Y65750D01*
X80427Y65818D01*
X80389Y65885D01*
X80348Y65950D01*
X80304Y66013D01*
X80257Y66073D01*
X80206Y66132D01*
X80153Y66187D01*
X80098Y66240D01*
X80039Y66291D01*
X79979Y66338D01*
X79916Y66382D01*
X79851Y66423D01*
X79784Y66461D01*
X79716Y66496D01*
X79645Y66527D01*
X79574Y66554D01*
X79501Y66579D01*
X79427Y66599D01*
X79352Y66616D01*
X79276Y66629D01*
X79199Y66638D01*
X79123Y66644D01*
X79046Y66646D01*
X76436Y66646D01*
X70771Y60381D02*
X68160Y60381D01*
X70771Y60381D02*
X70848Y60383D01*
X70924Y60389D01*
X71001Y60398D01*
X71077Y60411D01*
X71152Y60428D01*
X71226Y60448D01*
X71299Y60473D01*
X71370Y60500D01*
X71441Y60531D01*
X71509Y60566D01*
X71576Y60604D01*
X71641Y60645D01*
X71704Y60689D01*
X71764Y60736D01*
X71823Y60787D01*
X71878Y60840D01*
X71931Y60895D01*
X71982Y60954D01*
X72029Y61014D01*
X72073Y61077D01*
X72114Y61142D01*
X72152Y61209D01*
X72187Y61277D01*
X72218Y61348D01*
X72245Y61419D01*
X72270Y61492D01*
X72290Y61566D01*
X72307Y61641D01*
X72320Y61717D01*
X72329Y61794D01*
X72335Y61870D01*
X72337Y61947D01*
X72337Y64558D01*
X72335Y64648D01*
X72329Y64737D01*
X72320Y64827D01*
X72306Y64916D01*
X72289Y65004D01*
X72268Y65091D01*
X72243Y65178D01*
X72214Y65263D01*
X72182Y65347D01*
X72147Y65429D01*
X72107Y65510D01*
X72065Y65589D01*
X72019Y65666D01*
X71969Y65741D01*
X71917Y65814D01*
X71861Y65885D01*
X71803Y65953D01*
X71741Y66018D01*
X71677Y66081D01*
X71610Y66141D01*
X71541Y66198D01*
X71469Y66252D01*
X71395Y66303D01*
X71319Y66351D01*
X71241Y66395D01*
X71161Y66436D01*
X71079Y66474D01*
X70996Y66508D01*
X70911Y66538D01*
X70825Y66565D01*
X70739Y66588D01*
X70651Y66607D01*
X70562Y66622D01*
X70473Y66634D01*
X70384Y66642D01*
X70294Y66646D01*
X70204Y66646D01*
X70114Y66642D01*
X70025Y66634D01*
X69936Y66622D01*
X69847Y66607D01*
X69759Y66588D01*
X69673Y66565D01*
X69587Y66538D01*
X69502Y66508D01*
X69419Y66474D01*
X69337Y66436D01*
X69257Y66395D01*
X69179Y66351D01*
X69103Y66303D01*
X69029Y66252D01*
X68957Y66198D01*
X68888Y66141D01*
X68821Y66081D01*
X68757Y66018D01*
X68695Y65953D01*
X68637Y65885D01*
X68581Y65814D01*
X68529Y65741D01*
X68479Y65666D01*
X68433Y65589D01*
X68391Y65510D01*
X68351Y65429D01*
X68316Y65347D01*
X68284Y65263D01*
X68255Y65178D01*
X68230Y65091D01*
X68209Y65004D01*
X68192Y64916D01*
X68178Y64827D01*
X68169Y64737D01*
X68163Y64648D01*
X68161Y64558D01*
X68160Y64558D02*
X68160Y63514D01*
X72337Y63514D01*
X64056Y60381D02*
X64056Y66646D01*
X60924Y66646D01*
X60924Y65602D01*
M02*
