G04 EAGLE Gerber RS-274X export*
G75*
%MOMM*%
%FSLAX34Y34*%
%LPD*%
%INSoldermask Top*%
%IPPOS*%
%AMOC8*
5,1,8,0,0,1.08239X$1,22.5*%
G01*
%ADD10R,1.403200X1.403200*%
%ADD11R,1.503200X1.703200*%
%ADD12R,1.803200X2.003200*%
%ADD13R,2.153200X1.703200*%
%ADD14R,2.903200X2.753200*%
%ADD15R,1.673200X1.473200*%
%ADD16C,2.403200*%
%ADD17R,1.575000X1.050000*%
%ADD18R,2.403200X0.803200*%
%ADD19P,1.869504X8X22.500000*%
%ADD20R,2.403200X1.703200*%
%ADD21R,1.603200X1.203200*%
%ADD22R,1.803200X2.006200*%
%ADD23R,2.006200X1.803200*%
%ADD24R,0.803200X0.803200*%
%ADD25C,0.858000*%


D10*
X455100Y116400D03*
X481100Y116400D03*
X481100Y55400D03*
X455100Y55400D03*
D11*
X375700Y15300D03*
X394700Y15300D03*
D12*
X388000Y124100D03*
X416000Y124100D03*
X249500Y14100D03*
X277500Y14100D03*
D13*
X244550Y139700D03*
X272050Y139700D03*
D14*
X119200Y104150D03*
X119200Y40650D03*
D15*
X385400Y50900D03*
X385400Y93900D03*
D16*
X356290Y124140D02*
X341290Y124140D01*
D17*
X319515Y139140D03*
X319515Y109140D03*
X319515Y124140D03*
D18*
X287700Y50800D03*
X235700Y50800D03*
X287700Y38100D03*
X287700Y63500D03*
X287700Y76200D03*
X235700Y38100D03*
X235700Y63500D03*
X235700Y76200D03*
X287700Y101600D03*
X235700Y101600D03*
X287700Y88900D03*
X287700Y114300D03*
X235700Y88900D03*
X235700Y114300D03*
D19*
X482600Y25400D03*
X25400Y127000D03*
D20*
X426100Y87700D03*
X426100Y56700D03*
X338900Y58800D03*
X338900Y89800D03*
X181100Y89700D03*
X181100Y58700D03*
X63900Y56800D03*
X63900Y87800D03*
D21*
X76500Y25200D03*
X54500Y15700D03*
X54500Y34700D03*
D22*
X194720Y19100D03*
X166280Y19100D03*
X319780Y34700D03*
X348220Y34700D03*
D23*
X25900Y86920D03*
X25900Y58480D03*
D22*
X163180Y129700D03*
X191620Y129700D03*
X451020Y15300D03*
X422580Y15300D03*
D24*
X74500Y132000D03*
X65000Y132000D03*
X55500Y132000D03*
X55500Y108000D03*
X65000Y108000D03*
X74500Y108000D03*
D25*
X466344Y56388D03*
X409956Y50292D03*
X211836Y109728D03*
X291084Y138684D03*
X306324Y123444D03*
X400812Y123444D03*
X466344Y111252D03*
X181356Y32004D03*
X306324Y38100D03*
X361188Y35052D03*
X184404Y109728D03*
X217932Y76200D03*
X406908Y10668D03*
M02*
