G04 EAGLE Gerber RS-274X export*
G75*
%MOMM*%
%FSLAX34Y34*%
%LPD*%
%INSolderpaste Top*%
%IPPOS*%
%AMOC8*
5,1,8,0,0,1.08239X$1,22.5*%
G01*
%ADD10R,1.200000X1.200000*%
%ADD11R,1.300000X1.500000*%
%ADD12R,1.600000X1.800000*%
%ADD13R,1.950000X1.500000*%
%ADD14R,2.700000X2.550000*%
%ADD15R,1.470000X1.270000*%
%ADD16R,1.400000X0.800000*%
%ADD17R,2.200000X1.800000*%
%ADD18R,2.200000X0.600000*%
%ADD19R,2.200000X1.500000*%
%ADD20R,1.400000X1.000000*%
%ADD21R,1.600000X1.803000*%
%ADD22R,1.803000X1.600000*%
%ADD23R,0.600000X0.600000*%


D10*
X455100Y116400D03*
X481100Y116400D03*
X481100Y55400D03*
X455100Y55400D03*
D11*
X375700Y15300D03*
X394700Y15300D03*
D12*
X388000Y124100D03*
X416000Y124100D03*
X249500Y14100D03*
X277500Y14100D03*
D13*
X244550Y139700D03*
X272050Y139700D03*
D14*
X119200Y104150D03*
X119200Y40650D03*
D15*
X385400Y50900D03*
X385400Y93900D03*
D16*
X319590Y124140D03*
X319590Y109140D03*
X319590Y139140D03*
D17*
X350390Y124140D03*
D18*
X287700Y50800D03*
X235700Y50800D03*
X287700Y38100D03*
X287700Y63500D03*
X287700Y76200D03*
X235700Y38100D03*
X235700Y63500D03*
X235700Y76200D03*
X287700Y101600D03*
X235700Y101600D03*
X287700Y88900D03*
X287700Y114300D03*
X235700Y88900D03*
X235700Y114300D03*
D19*
X426100Y87700D03*
X426100Y56700D03*
X338900Y58800D03*
X338900Y89800D03*
X181100Y89700D03*
X181100Y58700D03*
X63900Y56800D03*
X63900Y87800D03*
D20*
X76500Y25200D03*
X54500Y15700D03*
X54500Y34700D03*
D21*
X194720Y19100D03*
X166280Y19100D03*
X319780Y34700D03*
X348220Y34700D03*
D22*
X25900Y86920D03*
X25900Y58480D03*
D21*
X163180Y129700D03*
X191620Y129700D03*
X451020Y15300D03*
X422580Y15300D03*
D23*
X74500Y132000D03*
X65000Y132000D03*
X55500Y132000D03*
X55500Y108000D03*
X65000Y108000D03*
X74500Y108000D03*
M02*
