G04 EAGLE Gerber RS-274X export*
G75*
%MOMM*%
%FSLAX34Y34*%
%LPD*%
%INSoldermask Top*%
%IPPOS*%
%AMOC8*
5,1,8,0,0,1.08239X$1,22.5*%
G01*
%ADD10C,2.003200*%
%ADD11C,3.503200*%
%ADD12C,1.524000*%
%ADD13R,1.803200X2.006200*%
%ADD14C,1.211200*%
%ADD15P,1.951982X8X202.500000*%
%ADD16R,5.283200X2.743200*%
%ADD17R,1.603200X2.003200*%
%ADD18C,0.959600*%
%ADD19P,1.255139X8X22.500000*%


D10*
X150000Y14000D03*
X472000Y125000D03*
D11*
X248000Y72500D03*
D12*
X41604Y47100D02*
X28396Y47100D01*
X28396Y72500D02*
X41604Y72500D01*
X41604Y97900D02*
X28396Y97900D01*
X580396Y97900D02*
X593604Y97900D01*
X593604Y72500D02*
X580396Y72500D01*
X580396Y47100D02*
X593604Y47100D01*
D13*
X500320Y33600D03*
X471880Y33600D03*
X501020Y72600D03*
X472580Y72600D03*
X92720Y99100D03*
X64280Y99100D03*
X93280Y47440D03*
X64840Y47440D03*
D14*
X294460Y103550D02*
X304540Y103550D01*
X304540Y90850D02*
X294460Y90850D01*
X294460Y78150D02*
X304540Y78150D01*
X304540Y65450D02*
X294460Y65450D01*
X294460Y52750D02*
X304540Y52750D01*
X304540Y40050D02*
X294460Y40050D01*
D15*
X272500Y29000D03*
D16*
X28000Y130000D03*
X28000Y15500D03*
X593500Y129500D03*
X594000Y15500D03*
X386500Y130000D03*
X386000Y15000D03*
D17*
X172000Y55000D03*
X138000Y55000D03*
X172000Y100000D03*
X138000Y100000D03*
D18*
X185000Y75000D03*
D19*
X545500Y16000D03*
X74000Y15704D03*
X543500Y129296D03*
X74000Y129000D03*
D18*
X470000Y55000D03*
X485000Y50000D03*
X421270Y126270D03*
M02*
