G04 EAGLE Gerber RS-274X export*
G75*
%MOMM*%
%FSLAX34Y34*%
%LPD*%
%INTop Copper*%
%IPPOS*%
%AMOC8*
5,1,8,0,0,1.08239X$1,22.5*%
G01*
%ADD10C,1.320800*%
%ADD11R,1.600000X1.803000*%
%ADD12C,1.008000*%
%ADD13P,1.732040X8X202.500000*%
%ADD14R,5.080000X2.540000*%
%ADD15R,1.400000X1.800000*%
%ADD16C,0.254000*%
%ADD17C,0.756400*%
%ADD18C,0.609600*%
%ADD19P,1.035198X8X22.500000*%


D10*
X41604Y47100D02*
X28396Y47100D01*
X28396Y72500D02*
X41604Y72500D01*
X41604Y97900D02*
X28396Y97900D01*
X580396Y97900D02*
X593604Y97900D01*
X593604Y72500D02*
X580396Y72500D01*
X580396Y47100D02*
X593604Y47100D01*
D11*
X500320Y33600D03*
X471880Y33600D03*
X501020Y72600D03*
X472580Y72600D03*
X92720Y99100D03*
X64280Y99100D03*
X93280Y47440D03*
X64840Y47440D03*
D12*
X294460Y103550D02*
X304540Y103550D01*
X304540Y90850D02*
X294460Y90850D01*
X294460Y78150D02*
X304540Y78150D01*
X304540Y65450D02*
X294460Y65450D01*
X294460Y52750D02*
X304540Y52750D01*
X304540Y40050D02*
X294460Y40050D01*
D13*
X272500Y29000D03*
D14*
X28000Y130000D03*
X28000Y15500D03*
X593500Y129500D03*
X594000Y15500D03*
X386500Y130000D03*
X386000Y15000D03*
D15*
X172000Y55000D03*
X138000Y55000D03*
X172000Y100000D03*
X138000Y100000D03*
D16*
X198000Y29000D02*
X272500Y29000D01*
X198000Y29000D02*
X172000Y55000D01*
X172000Y75000D01*
X172000Y100000D01*
D17*
X185000Y75000D03*
D16*
X172000Y75000D01*
D18*
X545500Y16000D02*
X546000Y15500D01*
D19*
X545500Y16000D03*
D18*
X546000Y15500D02*
X594000Y15500D01*
X73500Y15500D02*
X28000Y15500D01*
X73500Y15500D02*
X74000Y15000D01*
X74000Y15704D01*
D19*
X74000Y15704D03*
D16*
X98500Y15500D02*
X138000Y55000D01*
X98500Y15500D02*
X73500Y15500D01*
D18*
X543704Y129500D02*
X593500Y129500D01*
X543704Y129500D02*
X543500Y129296D01*
D19*
X543500Y129296D03*
D18*
X29000Y129000D02*
X28000Y130000D01*
X29000Y129000D02*
X74000Y129000D01*
X75000Y129000D01*
D19*
X74000Y129000D03*
D16*
X109000Y129000D02*
X138000Y100000D01*
X109000Y129000D02*
X75000Y129000D01*
X472580Y72600D02*
X472580Y57580D01*
X470000Y55000D01*
D17*
X470000Y55000D03*
D16*
X102440Y47440D02*
X93280Y47440D01*
X102440Y47440D02*
X125000Y70000D01*
X150000Y70000D01*
X155000Y65000D01*
X155000Y45000D01*
X185000Y15000D01*
X300000Y15000D02*
X315000Y30000D01*
X315000Y45000D01*
X307250Y52750D02*
X299500Y52750D01*
X300000Y15000D02*
X185000Y15000D01*
X307250Y52750D02*
X315000Y45000D01*
X573500Y33600D02*
X587000Y47100D01*
X573500Y33600D02*
X500320Y33600D01*
X526320Y97900D02*
X587000Y97900D01*
X526320Y97900D02*
X501020Y72600D01*
X485000Y46720D02*
X471880Y33600D01*
X485000Y46720D02*
X485000Y50000D01*
D17*
X485000Y50000D03*
D16*
X110900Y99100D02*
X92720Y99100D01*
X110900Y99100D02*
X125000Y85000D01*
X150000Y85000D01*
X155000Y90000D01*
X155000Y115000D02*
X160000Y120000D01*
X155000Y115000D02*
X155000Y90000D01*
X160000Y120000D02*
X195000Y120000D01*
X225150Y89850D01*
X225150Y63035D01*
X248135Y40050D01*
X299500Y40050D01*
X63080Y97900D02*
X35000Y97900D01*
X63080Y97900D02*
X64280Y99100D01*
X64500Y47100D02*
X35000Y47100D01*
X64500Y47100D02*
X64840Y47440D01*
D18*
X299500Y130000D02*
X386500Y130000D01*
X299500Y130000D02*
X299500Y103550D01*
X386000Y15000D02*
X435000Y15000D01*
X450000Y30000D01*
X450000Y115000D02*
X438730Y126270D01*
X421270Y126270D01*
D17*
X421270Y126270D03*
D18*
X450000Y115000D02*
X450000Y30000D01*
M02*
