G04 EAGLE Gerber RS-274X export*
G75*
%MOMM*%
%FSLAX34Y34*%
%LPD*%
%IN*%
%IPPOS*%
%AMOC8*
5,1,8,0,0,1.08239X$1,22.5*%
G01*
%ADD10C,0.254000*%


D10*
X0Y0D02*
X622000Y0D01*
X622000Y145000D01*
X0Y145000D01*
X0Y0D01*
X320000Y29500D02*
X435000Y29500D01*
X435000Y115000D01*
X320000Y115000D01*
X320000Y29500D01*
X159000Y13607D02*
X158932Y12824D01*
X158795Y12050D01*
X158592Y11291D01*
X158323Y10553D01*
X157991Y9840D01*
X157598Y9160D01*
X157147Y8516D01*
X156642Y7914D01*
X156086Y7358D01*
X155484Y6853D01*
X154840Y6402D01*
X154160Y6009D01*
X153447Y5677D01*
X152709Y5408D01*
X151950Y5205D01*
X151176Y5069D01*
X150393Y5000D01*
X149607Y5000D01*
X148824Y5069D01*
X148050Y5205D01*
X147291Y5408D01*
X146553Y5677D01*
X145840Y6009D01*
X145160Y6402D01*
X144516Y6853D01*
X143914Y7358D01*
X143358Y7914D01*
X142853Y8516D01*
X142402Y9160D01*
X142009Y9840D01*
X141677Y10553D01*
X141408Y11291D01*
X141205Y12050D01*
X141069Y12824D01*
X141000Y13607D01*
X141000Y14393D01*
X141069Y15176D01*
X141205Y15950D01*
X141408Y16709D01*
X141677Y17447D01*
X142009Y18160D01*
X142402Y18840D01*
X142853Y19484D01*
X143358Y20086D01*
X143914Y20642D01*
X144516Y21147D01*
X145160Y21598D01*
X145840Y21991D01*
X146553Y22323D01*
X147291Y22592D01*
X148050Y22795D01*
X148824Y22932D01*
X149607Y23000D01*
X150393Y23000D01*
X151176Y22932D01*
X151950Y22795D01*
X152709Y22592D01*
X153447Y22323D01*
X154160Y21991D01*
X154840Y21598D01*
X155484Y21147D01*
X156086Y20642D01*
X156642Y20086D01*
X157147Y19484D01*
X157598Y18840D01*
X157991Y18160D01*
X158323Y17447D01*
X158592Y16709D01*
X158795Y15950D01*
X158932Y15176D01*
X159000Y14393D01*
X159000Y13607D01*
X481000Y124607D02*
X480932Y123824D01*
X480795Y123050D01*
X480592Y122291D01*
X480323Y121553D01*
X479991Y120840D01*
X479598Y120160D01*
X479147Y119516D01*
X478642Y118914D01*
X478086Y118358D01*
X477484Y117853D01*
X476840Y117402D01*
X476160Y117009D01*
X475447Y116677D01*
X474709Y116408D01*
X473950Y116205D01*
X473176Y116069D01*
X472393Y116000D01*
X471607Y116000D01*
X470824Y116069D01*
X470050Y116205D01*
X469291Y116408D01*
X468553Y116677D01*
X467840Y117009D01*
X467160Y117402D01*
X466516Y117853D01*
X465914Y118358D01*
X465358Y118914D01*
X464853Y119516D01*
X464402Y120160D01*
X464009Y120840D01*
X463677Y121553D01*
X463408Y122291D01*
X463205Y123050D01*
X463069Y123824D01*
X463000Y124607D01*
X463000Y125393D01*
X463069Y126176D01*
X463205Y126950D01*
X463408Y127709D01*
X463677Y128447D01*
X464009Y129160D01*
X464402Y129840D01*
X464853Y130484D01*
X465358Y131086D01*
X465914Y131642D01*
X466516Y132147D01*
X467160Y132598D01*
X467840Y132991D01*
X468553Y133323D01*
X469291Y133592D01*
X470050Y133795D01*
X470824Y133932D01*
X471607Y134000D01*
X472393Y134000D01*
X473176Y133932D01*
X473950Y133795D01*
X474709Y133592D01*
X475447Y133323D01*
X476160Y132991D01*
X476840Y132598D01*
X477484Y132147D01*
X478086Y131642D01*
X478642Y131086D01*
X479147Y130484D01*
X479598Y129840D01*
X479991Y129160D01*
X480323Y128447D01*
X480592Y127709D01*
X480795Y126950D01*
X480932Y126176D01*
X481000Y125393D01*
X481000Y124607D01*
X264500Y71960D02*
X264429Y70882D01*
X264288Y69811D01*
X264078Y68751D01*
X263798Y67708D01*
X263451Y66685D01*
X263037Y65687D01*
X262560Y64718D01*
X262019Y63782D01*
X261419Y62884D01*
X260762Y62027D01*
X260049Y61215D01*
X259285Y60451D01*
X258473Y59739D01*
X257616Y59081D01*
X256718Y58481D01*
X255782Y57941D01*
X254813Y57463D01*
X253815Y57049D01*
X252792Y56702D01*
X251749Y56422D01*
X250689Y56212D01*
X249618Y56071D01*
X248540Y56000D01*
X247460Y56000D01*
X246382Y56071D01*
X245311Y56212D01*
X244251Y56422D01*
X243208Y56702D01*
X242185Y57049D01*
X241187Y57463D01*
X240218Y57941D01*
X239282Y58481D01*
X238384Y59081D01*
X237527Y59739D01*
X236715Y60451D01*
X235951Y61215D01*
X235239Y62027D01*
X234581Y62884D01*
X233981Y63782D01*
X233441Y64718D01*
X232963Y65687D01*
X232549Y66685D01*
X232202Y67708D01*
X231922Y68751D01*
X231712Y69811D01*
X231571Y70882D01*
X231500Y71960D01*
X231500Y73040D01*
X231571Y74118D01*
X231712Y75189D01*
X231922Y76249D01*
X232202Y77292D01*
X232549Y78315D01*
X232963Y79313D01*
X233441Y80282D01*
X233981Y81218D01*
X234581Y82116D01*
X235239Y82973D01*
X235951Y83785D01*
X236715Y84549D01*
X237527Y85262D01*
X238384Y85919D01*
X239282Y86519D01*
X240218Y87060D01*
X241187Y87537D01*
X242185Y87951D01*
X243208Y88298D01*
X244251Y88578D01*
X245311Y88788D01*
X246382Y88929D01*
X247460Y89000D01*
X248540Y89000D01*
X249618Y88929D01*
X250689Y88788D01*
X251749Y88578D01*
X252792Y88298D01*
X253815Y87951D01*
X254813Y87537D01*
X255782Y87060D01*
X256718Y86519D01*
X257616Y85919D01*
X258473Y85262D01*
X259285Y84549D01*
X260049Y83785D01*
X260762Y82973D01*
X261419Y82116D01*
X262019Y81218D01*
X262560Y80282D01*
X263037Y79313D01*
X263451Y78315D01*
X263798Y77292D01*
X264078Y76249D01*
X264288Y75189D01*
X264429Y74118D01*
X264500Y73040D01*
X264500Y71960D01*
M02*
