G04 EAGLE Gerber RS-274X export*
G75*
%MOMM*%
%FSLAX34Y34*%
%LPD*%
%INTop Copper*%
%IPPOS*%
%AMOC8*
5,1,8,0,0,1.08239X$1,22.5*%
G01*
%ADD10R,1.200000X1.200000*%
%ADD11R,1.300000X1.500000*%
%ADD12R,1.500000X1.300000*%
%ADD13R,1.000000X1.500000*%
%ADD14R,1.000000X2.000000*%
%ADD15C,2.200000*%
%ADD16R,1.000000X1.100000*%
%ADD17R,5.080000X2.540000*%
%ADD18R,0.600000X0.420000*%
%ADD19P,1.429621X8X112.500000*%
%ADD20P,2.089446X8X22.500000*%
%ADD21R,0.600000X1.600000*%
%ADD22R,2.200000X2.000000*%
%ADD23C,0.295000*%
%ADD24C,1.879600*%
%ADD25R,0.375000X0.500000*%
%ADD26R,0.300000X0.650000*%
%ADD27C,0.609600*%
%ADD28C,0.152400*%
%ADD29C,0.756400*%


D10*
X278600Y64900D03*
X278600Y38900D03*
X217600Y38900D03*
X217600Y64900D03*
D11*
X415200Y20700D03*
X396200Y20700D03*
D12*
X616400Y62400D03*
X616400Y43400D03*
D13*
X509690Y83010D03*
X479710Y83010D03*
D14*
X494700Y80470D03*
D15*
X494700Y61300D02*
X494700Y46300D01*
D16*
X153500Y85200D03*
X136500Y85200D03*
X14200Y87300D03*
X31200Y87300D03*
X922600Y87300D03*
X939600Y87300D03*
X431500Y79800D03*
X448500Y79800D03*
X392700Y79800D03*
X409700Y79800D03*
D17*
X549400Y89900D03*
X197400Y90100D03*
X547400Y13300D03*
X198400Y13500D03*
D18*
X440100Y19300D03*
X440100Y25800D03*
X440100Y32300D03*
X459100Y32300D03*
X459100Y25800D03*
X459100Y19300D03*
D19*
X934400Y42200D03*
X934400Y67600D03*
X13200Y41200D03*
X13200Y66600D03*
D20*
X400000Y54000D03*
X450000Y54000D03*
D21*
X338950Y26000D03*
X351650Y26000D03*
X364350Y26000D03*
X377050Y26000D03*
X377050Y78000D03*
X364350Y78000D03*
X351650Y78000D03*
X338950Y78000D03*
D22*
X766000Y38000D03*
X766000Y68000D03*
X849000Y38000D03*
X849000Y68000D03*
X807000Y38000D03*
X807000Y68000D03*
X891000Y38000D03*
X891000Y68000D03*
D23*
X645375Y35475D02*
X645375Y18925D01*
X642425Y18925D01*
X642425Y35475D01*
X645375Y35475D01*
X645375Y21727D02*
X642425Y21727D01*
X642425Y24529D02*
X645375Y24529D01*
X645375Y27331D02*
X642425Y27331D01*
X642425Y30133D02*
X645375Y30133D01*
X645375Y32935D02*
X642425Y32935D01*
X658075Y35475D02*
X658075Y18925D01*
X655125Y18925D01*
X655125Y35475D01*
X658075Y35475D01*
X658075Y21727D02*
X655125Y21727D01*
X655125Y24529D02*
X658075Y24529D01*
X658075Y27331D02*
X655125Y27331D01*
X655125Y30133D02*
X658075Y30133D01*
X658075Y32935D02*
X655125Y32935D01*
X670775Y35475D02*
X670775Y18925D01*
X667825Y18925D01*
X667825Y35475D01*
X670775Y35475D01*
X670775Y21727D02*
X667825Y21727D01*
X667825Y24529D02*
X670775Y24529D01*
X670775Y27331D02*
X667825Y27331D01*
X667825Y30133D02*
X670775Y30133D01*
X670775Y32935D02*
X667825Y32935D01*
X683475Y35475D02*
X683475Y18925D01*
X680525Y18925D01*
X680525Y35475D01*
X683475Y35475D01*
X683475Y21727D02*
X680525Y21727D01*
X680525Y24529D02*
X683475Y24529D01*
X683475Y27331D02*
X680525Y27331D01*
X680525Y30133D02*
X683475Y30133D01*
X683475Y32935D02*
X680525Y32935D01*
X696175Y35475D02*
X696175Y18925D01*
X693225Y18925D01*
X693225Y35475D01*
X696175Y35475D01*
X696175Y21727D02*
X693225Y21727D01*
X693225Y24529D02*
X696175Y24529D01*
X696175Y27331D02*
X693225Y27331D01*
X693225Y30133D02*
X696175Y30133D01*
X696175Y32935D02*
X693225Y32935D01*
X708875Y35475D02*
X708875Y18925D01*
X705925Y18925D01*
X705925Y35475D01*
X708875Y35475D01*
X708875Y21727D02*
X705925Y21727D01*
X705925Y24529D02*
X708875Y24529D01*
X708875Y27331D02*
X705925Y27331D01*
X705925Y30133D02*
X708875Y30133D01*
X708875Y32935D02*
X705925Y32935D01*
X721575Y35475D02*
X721575Y18925D01*
X718625Y18925D01*
X718625Y35475D01*
X721575Y35475D01*
X721575Y21727D02*
X718625Y21727D01*
X718625Y24529D02*
X721575Y24529D01*
X721575Y27331D02*
X718625Y27331D01*
X718625Y30133D02*
X721575Y30133D01*
X721575Y32935D02*
X718625Y32935D01*
X721575Y68525D02*
X721575Y85075D01*
X721575Y68525D02*
X718625Y68525D01*
X718625Y85075D01*
X721575Y85075D01*
X721575Y71327D02*
X718625Y71327D01*
X718625Y74129D02*
X721575Y74129D01*
X721575Y76931D02*
X718625Y76931D01*
X718625Y79733D02*
X721575Y79733D01*
X721575Y82535D02*
X718625Y82535D01*
X708875Y85075D02*
X708875Y68525D01*
X705925Y68525D01*
X705925Y85075D01*
X708875Y85075D01*
X708875Y71327D02*
X705925Y71327D01*
X705925Y74129D02*
X708875Y74129D01*
X708875Y76931D02*
X705925Y76931D01*
X705925Y79733D02*
X708875Y79733D01*
X708875Y82535D02*
X705925Y82535D01*
X696175Y85075D02*
X696175Y68525D01*
X693225Y68525D01*
X693225Y85075D01*
X696175Y85075D01*
X696175Y71327D02*
X693225Y71327D01*
X693225Y74129D02*
X696175Y74129D01*
X696175Y76931D02*
X693225Y76931D01*
X693225Y79733D02*
X696175Y79733D01*
X696175Y82535D02*
X693225Y82535D01*
X683475Y85075D02*
X683475Y68525D01*
X680525Y68525D01*
X680525Y85075D01*
X683475Y85075D01*
X683475Y71327D02*
X680525Y71327D01*
X680525Y74129D02*
X683475Y74129D01*
X683475Y76931D02*
X680525Y76931D01*
X680525Y79733D02*
X683475Y79733D01*
X683475Y82535D02*
X680525Y82535D01*
X670775Y85075D02*
X670775Y68525D01*
X667825Y68525D01*
X667825Y85075D01*
X670775Y85075D01*
X670775Y71327D02*
X667825Y71327D01*
X667825Y74129D02*
X670775Y74129D01*
X670775Y76931D02*
X667825Y76931D01*
X667825Y79733D02*
X670775Y79733D01*
X670775Y82535D02*
X667825Y82535D01*
X658075Y85075D02*
X658075Y68525D01*
X655125Y68525D01*
X655125Y85075D01*
X658075Y85075D01*
X658075Y71327D02*
X655125Y71327D01*
X655125Y74129D02*
X658075Y74129D01*
X658075Y76931D02*
X655125Y76931D01*
X655125Y79733D02*
X658075Y79733D01*
X658075Y82535D02*
X655125Y82535D01*
X645375Y85075D02*
X645375Y68525D01*
X642425Y68525D01*
X642425Y85075D01*
X645375Y85075D01*
X645375Y71327D02*
X642425Y71327D01*
X642425Y74129D02*
X645375Y74129D01*
X645375Y76931D02*
X642425Y76931D01*
X642425Y79733D02*
X645375Y79733D01*
X645375Y82535D02*
X642425Y82535D01*
D24*
X191000Y51000D03*
X165600Y51000D03*
X140200Y51000D03*
D25*
X103625Y42500D03*
X114375Y42500D03*
D26*
X109000Y41750D03*
D25*
X114375Y59500D03*
X103625Y59500D03*
D26*
X109000Y60250D03*
D25*
X77625Y42500D03*
X88375Y42500D03*
D26*
X83000Y41750D03*
D25*
X88375Y59500D03*
X77625Y59500D03*
D26*
X83000Y60250D03*
D12*
X558000Y42500D03*
X558000Y61500D03*
X593000Y42500D03*
X593000Y61500D03*
X56000Y41500D03*
X56000Y60500D03*
D27*
X359000Y54000D02*
X400000Y54000D01*
X351650Y61350D02*
X351650Y78000D01*
X351650Y61350D02*
X359000Y54000D01*
D28*
X408432Y64008D02*
X408432Y79248D01*
X408432Y64008D02*
X400812Y56388D01*
X408432Y79248D02*
X409700Y79800D01*
X400812Y56388D02*
X400000Y54000D01*
D27*
X431292Y54000D02*
X450000Y54000D01*
X431292Y54000D02*
X426000Y54000D01*
X411000Y39000D01*
X347000Y39000D02*
X338950Y30950D01*
X338950Y26000D01*
X347000Y39000D02*
X411000Y39000D01*
D28*
X431292Y54000D02*
X431292Y79248D01*
X431500Y79800D01*
D27*
X278600Y75600D02*
X278600Y64900D01*
X278600Y75600D02*
X282000Y79000D01*
X322000Y79000D01*
X337950Y79000D01*
X338950Y78000D01*
X849000Y68000D02*
X891000Y68000D01*
X849000Y68000D02*
X807000Y68000D01*
X766000Y68000D01*
D29*
X322000Y79000D03*
X761000Y97000D03*
D27*
X766000Y92000D01*
X766000Y68000D01*
D28*
X438912Y32004D02*
X406908Y32004D01*
X396240Y21336D01*
X438912Y32004D02*
X440100Y32300D01*
X396240Y21336D02*
X396200Y20700D01*
X609600Y44196D02*
X615696Y44196D01*
X609600Y44196D02*
X601980Y51816D01*
X545592Y51816D01*
X539496Y57912D01*
X498348Y57912D01*
X495300Y54864D01*
X615696Y44196D02*
X616400Y43400D01*
X495300Y54864D02*
X494700Y53800D01*
X495300Y60960D02*
X495300Y79248D01*
X495300Y60960D02*
X498348Y57912D01*
X495300Y79248D02*
X494700Y80470D01*
X498348Y57912D02*
X494700Y53800D01*
X446532Y33528D02*
X440436Y33528D01*
X446532Y33528D02*
X466344Y53340D01*
X493776Y53340D01*
X440436Y33528D02*
X440100Y32300D01*
X493776Y53340D02*
X494700Y53800D01*
X92964Y60960D02*
X88392Y60960D01*
X92964Y60960D02*
X97536Y65532D01*
X88392Y60960D02*
X88375Y59500D01*
X460248Y19812D02*
X486156Y19812D01*
X489204Y22860D01*
X496824Y22860D01*
X501396Y18288D01*
X460248Y19812D02*
X459100Y19300D01*
X644652Y77724D02*
X644652Y85344D01*
X655320Y96012D01*
X687324Y96012D01*
X644652Y77724D02*
X643900Y76800D01*
X760012Y96012D02*
X761000Y97000D01*
X760012Y96012D02*
X687324Y96012D01*
X637032Y44196D02*
X617220Y44196D01*
X637032Y44196D02*
X643128Y50292D01*
X672084Y50292D01*
X687324Y65532D01*
X687324Y96012D01*
X617220Y44196D02*
X616400Y43400D01*
D29*
X97536Y65532D03*
X501396Y18288D03*
D28*
X644652Y27432D02*
X644652Y30480D01*
X653796Y39624D01*
X662940Y39624D02*
X672084Y39624D01*
X662940Y39624D02*
X653796Y39624D01*
X672084Y39624D02*
X676656Y35052D01*
X676656Y16764D01*
X679704Y13716D01*
X684276Y13716D01*
X688848Y18288D01*
X688848Y36576D01*
X691896Y39624D01*
X728472Y39624D01*
X757428Y10668D01*
X864108Y10668D01*
X890016Y36576D01*
X644652Y27432D02*
X643900Y27200D01*
X890016Y36576D02*
X891000Y38000D01*
X103632Y38100D02*
X103632Y41148D01*
X103632Y38100D02*
X106680Y35052D01*
X149352Y35052D01*
X164592Y50292D01*
X103625Y42500D02*
X103632Y41148D01*
X164592Y50292D02*
X165600Y51000D01*
X510540Y82296D02*
X515112Y82296D01*
X534924Y62484D01*
X557784Y62484D01*
X558000Y61500D01*
X609600Y62484D02*
X615696Y62484D01*
X609600Y62484D02*
X600456Y71628D01*
X568452Y71628D01*
X559308Y62484D01*
X615696Y62484D02*
X616400Y62400D01*
X559308Y62484D02*
X558000Y61500D01*
X175260Y51816D02*
X166116Y51816D01*
X175260Y51816D02*
X190500Y67056D01*
X205740Y67056D01*
X510540Y70104D02*
X510540Y82296D01*
X166116Y51816D02*
X165600Y51000D01*
X509690Y83010D02*
X510540Y82296D01*
X662940Y41148D02*
X662940Y39624D01*
D29*
X205740Y67056D03*
X510540Y70104D03*
X662940Y41148D03*
D27*
X364350Y78000D02*
X364000Y78350D01*
X364000Y86000D01*
X363684Y86316D01*
X359000Y91000D01*
X279000Y91000D02*
X263000Y75000D01*
X263000Y52000D01*
X276100Y38900D02*
X278600Y38900D01*
X279000Y91000D02*
X359000Y91000D01*
X276100Y38900D02*
X263000Y52000D01*
X351650Y26000D02*
X364350Y26000D01*
X351650Y26000D02*
X351650Y17650D01*
X346620Y12620D01*
X302380Y12620D02*
X281000Y34000D01*
X276100Y38900D01*
X302380Y12620D02*
X346620Y12620D01*
X807000Y38000D02*
X849000Y38000D01*
X807000Y38000D02*
X766000Y38000D01*
X766000Y23000D01*
X760000Y17000D01*
D29*
X760000Y17000D03*
X281000Y19000D03*
D27*
X281000Y34000D01*
D28*
X458724Y83820D02*
X478536Y83820D01*
X458724Y83820D02*
X451104Y91440D01*
X368808Y91440D01*
X363684Y86316D01*
X478536Y83820D02*
X479710Y83010D01*
X911352Y42672D02*
X934212Y42672D01*
X911352Y42672D02*
X903732Y50292D01*
X864108Y50292D01*
X851916Y38100D01*
X934212Y42672D02*
X934400Y42200D01*
X851916Y38100D02*
X849000Y38000D01*
X396240Y80772D02*
X393192Y80772D01*
X396240Y80772D02*
X403860Y88392D01*
X440436Y88392D01*
X448056Y80772D01*
X393192Y80772D02*
X392700Y79800D01*
X448056Y80772D02*
X448500Y79800D01*
X423672Y21336D02*
X416052Y21336D01*
X423672Y21336D02*
X428244Y25908D01*
X441960Y68580D02*
X441960Y73152D01*
X448056Y79248D01*
X416052Y21336D02*
X415200Y20700D01*
X448056Y79248D02*
X448500Y79800D01*
X655320Y76200D02*
X655320Y59436D01*
X655320Y76200D02*
X656600Y76800D01*
D29*
X428244Y25908D03*
X441960Y68580D03*
X655320Y59436D03*
D28*
X377952Y25908D02*
X377952Y21336D01*
X388620Y10668D01*
X502920Y10668D01*
X521208Y28956D01*
X574548Y28956D01*
X592836Y10668D01*
X685800Y10668D01*
X693420Y18288D01*
X693420Y25908D01*
X377952Y25908D02*
X377050Y26000D01*
X693420Y25908D02*
X694700Y27200D01*
X377952Y64008D02*
X377952Y77724D01*
X720852Y76200D02*
X728472Y83820D01*
X377952Y77724D02*
X377050Y78000D01*
X720100Y76800D02*
X720852Y76200D01*
D29*
X377952Y64008D03*
X728472Y83820D03*
D28*
X13716Y86868D02*
X13716Y67056D01*
X13716Y86868D02*
X14200Y87300D01*
X13716Y67056D02*
X13200Y66600D01*
X455676Y32004D02*
X458724Y32004D01*
X455676Y32004D02*
X449580Y25908D01*
X449580Y22860D01*
X48768Y86868D02*
X32004Y86868D01*
X458724Y32004D02*
X459100Y32300D01*
X32004Y86868D02*
X31200Y87300D01*
D29*
X449580Y22860D03*
X48768Y86868D03*
D28*
X440436Y18288D02*
X445008Y18288D01*
X449580Y13716D01*
X489204Y13716D01*
X492252Y16764D01*
X819912Y86868D02*
X922020Y86868D01*
X440436Y18288D02*
X440100Y19300D01*
X922020Y86868D02*
X922600Y87300D01*
D29*
X492252Y16764D03*
X819912Y86868D03*
D28*
X938784Y86868D02*
X938784Y71628D01*
X935736Y68580D01*
X938784Y86868D02*
X939600Y87300D01*
X935736Y68580D02*
X934400Y67600D01*
D27*
X549400Y89900D02*
X540300Y99000D01*
X206300Y99000D02*
X197400Y90100D01*
X206300Y99000D02*
X540300Y99000D01*
X217600Y87600D02*
X217600Y64900D01*
X217600Y87600D02*
X218000Y88000D01*
X215900Y90100D01*
X197400Y90100D01*
D28*
X83820Y64008D02*
X83820Y60960D01*
X83820Y64008D02*
X103632Y83820D01*
X135636Y83820D01*
X83820Y60960D02*
X83000Y60250D01*
X135636Y83820D02*
X136500Y85200D01*
X137160Y85344D02*
X146304Y94488D01*
X192024Y94488D01*
X195072Y91440D01*
X137160Y85344D02*
X136500Y85200D01*
X195072Y91440D02*
X197400Y90100D01*
D27*
X198400Y13500D02*
X206900Y5000D01*
X539100Y5000D02*
X547400Y13300D01*
X539100Y5000D02*
X206900Y5000D01*
X217600Y12600D02*
X217600Y38900D01*
X217600Y12600D02*
X216000Y11000D01*
X200900Y11000D01*
X198400Y13500D01*
D28*
X83820Y38100D02*
X83820Y41148D01*
X83820Y38100D02*
X106680Y15240D01*
X196596Y15240D01*
X83820Y41148D02*
X83000Y41750D01*
X196596Y15240D02*
X198400Y13500D01*
X440436Y25908D02*
X443484Y25908D01*
X455676Y38100D01*
X461772Y38100D01*
X467868Y32004D01*
X573024Y35052D02*
X594360Y13716D01*
X658368Y13716D01*
X670560Y25908D01*
X440436Y25908D02*
X440100Y25800D01*
X669300Y27200D02*
X670560Y25908D01*
D29*
X467868Y32004D03*
X573024Y35052D03*
D28*
X153924Y73152D02*
X153924Y83820D01*
X637032Y64008D02*
X647700Y64008D01*
X650748Y67056D01*
X650748Y86868D01*
X653796Y89916D01*
X659892Y89916D01*
X669036Y80772D01*
X669036Y77724D01*
X153924Y83820D02*
X153500Y85200D01*
X669036Y77724D02*
X669300Y76800D01*
D29*
X153924Y73152D03*
X637032Y64008D03*
D28*
X600456Y60960D02*
X594360Y60960D01*
X600456Y60960D02*
X608076Y53340D01*
X661416Y53340D01*
X681228Y73152D01*
X681228Y76200D01*
X594360Y60960D02*
X593000Y61500D01*
X681228Y76200D02*
X682000Y76800D01*
X510540Y25908D02*
X460248Y25908D01*
X510540Y25908D02*
X536448Y51816D01*
X646176Y44196D02*
X656844Y44196D01*
X659892Y47244D01*
X669036Y47244D01*
X681228Y35052D01*
X681228Y27432D01*
X460248Y25908D02*
X459100Y25800D01*
X681228Y27432D02*
X682000Y27200D01*
D29*
X536448Y51816D03*
X646176Y44196D03*
D28*
X694944Y77724D02*
X694944Y83820D01*
X701040Y89916D01*
X166116Y76200D02*
X140208Y50292D01*
X694700Y76800D02*
X694944Y77724D01*
X140200Y51000D02*
X140208Y50292D01*
D29*
X701040Y89916D03*
X166116Y76200D03*
D28*
X76200Y59436D02*
X56388Y59436D01*
X76200Y59436D02*
X77625Y59500D01*
X56388Y59436D02*
X56000Y60500D01*
X56388Y42672D02*
X74676Y42672D01*
X76200Y42672D01*
X77625Y42500D01*
X56388Y42672D02*
X56000Y41500D01*
X86868Y42672D02*
X86868Y47244D01*
X85344Y48768D01*
X80772Y48768D01*
X74676Y42672D01*
X86868Y42672D02*
X88375Y42500D01*
X108204Y42672D02*
X108204Y45720D01*
X105156Y48768D01*
X85344Y48768D01*
X108204Y42672D02*
X109000Y41750D01*
X114300Y42672D02*
X114300Y59436D01*
X114300Y42672D02*
X114375Y42500D01*
X114300Y59436D02*
X114375Y59500D01*
X115824Y41148D02*
X128016Y41148D01*
X536448Y42672D02*
X557784Y42672D01*
X115824Y41148D02*
X114375Y42500D01*
X557784Y42672D02*
X558000Y42500D01*
D29*
X128016Y41148D03*
X536448Y42672D03*
D28*
X108204Y59436D02*
X103632Y59436D01*
X103625Y59500D01*
X108204Y59436D02*
X109000Y60250D01*
X102108Y59436D02*
X96012Y59436D01*
X88392Y51816D01*
X73152Y51816D01*
X586740Y35052D02*
X586740Y30480D01*
X586740Y35052D02*
X592836Y41148D01*
X103625Y59500D02*
X102108Y59436D01*
X592836Y41148D02*
X593000Y42500D01*
D29*
X73152Y51816D03*
X586740Y30480D03*
M02*
