G04 EAGLE Gerber RS-274X export*
G75*
%MOMM*%
%FSLAX34Y34*%
%LPD*%
%INSilkscreen Top*%
%IPPOS*%
%AMOC8*
5,1,8,0,0,1.08239X$1,22.5*%
G01*
%ADD10C,0.076200*%
%ADD11C,0.203200*%
%ADD12C,0.101600*%
%ADD13R,0.300000X4.100000*%
%ADD14C,0.127000*%
%ADD15C,0.152400*%
%ADD16C,0.254000*%
%ADD17C,0.150000*%


D10*
X683381Y2381D02*
X683381Y9747D01*
X683381Y7292D02*
X685427Y7292D01*
X685496Y7290D01*
X685564Y7284D01*
X685633Y7275D01*
X685700Y7261D01*
X685767Y7244D01*
X685833Y7223D01*
X685897Y7199D01*
X685960Y7170D01*
X686021Y7139D01*
X686080Y7104D01*
X686138Y7066D01*
X686193Y7024D01*
X686245Y6980D01*
X686295Y6932D01*
X686343Y6882D01*
X686387Y6830D01*
X686429Y6775D01*
X686467Y6717D01*
X686502Y6658D01*
X686533Y6597D01*
X686562Y6534D01*
X686586Y6470D01*
X686607Y6404D01*
X686624Y6337D01*
X686638Y6270D01*
X686647Y6201D01*
X686653Y6133D01*
X686655Y6064D01*
X686655Y2381D01*
X689334Y7292D02*
X691790Y7292D01*
X690153Y9747D02*
X690153Y3609D01*
X690152Y3609D02*
X690154Y3540D01*
X690160Y3472D01*
X690169Y3403D01*
X690183Y3336D01*
X690200Y3269D01*
X690221Y3203D01*
X690245Y3139D01*
X690274Y3076D01*
X690305Y3015D01*
X690340Y2956D01*
X690378Y2898D01*
X690420Y2843D01*
X690464Y2791D01*
X690512Y2741D01*
X690562Y2693D01*
X690614Y2649D01*
X690669Y2607D01*
X690727Y2569D01*
X690786Y2534D01*
X690847Y2503D01*
X690910Y2474D01*
X690974Y2450D01*
X691040Y2429D01*
X691107Y2412D01*
X691174Y2398D01*
X691243Y2389D01*
X691311Y2383D01*
X691380Y2381D01*
X691790Y2381D01*
X693967Y7292D02*
X696423Y7292D01*
X694786Y9747D02*
X694786Y3609D01*
X694785Y3609D02*
X694787Y3540D01*
X694793Y3472D01*
X694802Y3403D01*
X694816Y3336D01*
X694833Y3269D01*
X694854Y3203D01*
X694878Y3139D01*
X694907Y3076D01*
X694938Y3015D01*
X694973Y2956D01*
X695011Y2898D01*
X695053Y2843D01*
X695097Y2791D01*
X695145Y2741D01*
X695195Y2693D01*
X695247Y2649D01*
X695302Y2607D01*
X695360Y2569D01*
X695419Y2534D01*
X695480Y2503D01*
X695543Y2474D01*
X695607Y2450D01*
X695673Y2429D01*
X695740Y2412D01*
X695807Y2398D01*
X695876Y2389D01*
X695944Y2383D01*
X696013Y2381D01*
X696423Y2381D01*
X699515Y-74D02*
X699515Y7292D01*
X701561Y7292D01*
X701630Y7290D01*
X701698Y7284D01*
X701767Y7275D01*
X701834Y7261D01*
X701901Y7244D01*
X701967Y7223D01*
X702031Y7199D01*
X702094Y7170D01*
X702155Y7139D01*
X702214Y7104D01*
X702272Y7066D01*
X702327Y7024D01*
X702379Y6980D01*
X702429Y6932D01*
X702477Y6882D01*
X702521Y6830D01*
X702563Y6775D01*
X702601Y6717D01*
X702636Y6658D01*
X702667Y6597D01*
X702696Y6534D01*
X702720Y6470D01*
X702741Y6404D01*
X702758Y6337D01*
X702772Y6270D01*
X702781Y6201D01*
X702787Y6133D01*
X702789Y6064D01*
X702789Y3609D01*
X702787Y3540D01*
X702781Y3472D01*
X702772Y3403D01*
X702758Y3336D01*
X702741Y3269D01*
X702720Y3203D01*
X702696Y3139D01*
X702667Y3076D01*
X702636Y3015D01*
X702601Y2956D01*
X702563Y2898D01*
X702521Y2843D01*
X702477Y2791D01*
X702429Y2741D01*
X702379Y2693D01*
X702327Y2649D01*
X702272Y2608D01*
X702214Y2569D01*
X702155Y2534D01*
X702094Y2503D01*
X702031Y2474D01*
X701967Y2450D01*
X701901Y2429D01*
X701834Y2412D01*
X701767Y2398D01*
X701699Y2389D01*
X701630Y2383D01*
X701561Y2381D01*
X699515Y2381D01*
X706428Y5246D02*
X708474Y4427D01*
X706428Y5246D02*
X706369Y5271D01*
X706312Y5300D01*
X706257Y5333D01*
X706204Y5369D01*
X706153Y5407D01*
X706105Y5449D01*
X706059Y5494D01*
X706016Y5541D01*
X705976Y5591D01*
X705939Y5643D01*
X705905Y5698D01*
X705874Y5754D01*
X705847Y5812D01*
X705824Y5872D01*
X705804Y5932D01*
X705788Y5994D01*
X705775Y6057D01*
X705767Y6121D01*
X705762Y6184D01*
X705761Y6248D01*
X705764Y6312D01*
X705771Y6376D01*
X705782Y6439D01*
X705796Y6501D01*
X705814Y6563D01*
X705836Y6623D01*
X705861Y6682D01*
X705890Y6739D01*
X705923Y6794D01*
X705958Y6847D01*
X705997Y6898D01*
X706039Y6947D01*
X706083Y6993D01*
X706131Y7036D01*
X706180Y7076D01*
X706233Y7113D01*
X706287Y7147D01*
X706343Y7178D01*
X706401Y7205D01*
X706460Y7229D01*
X706521Y7248D01*
X706583Y7265D01*
X706646Y7277D01*
X706709Y7286D01*
X706773Y7291D01*
X706837Y7292D01*
X706973Y7288D01*
X707108Y7280D01*
X707244Y7268D01*
X707378Y7252D01*
X707513Y7232D01*
X707646Y7209D01*
X707779Y7181D01*
X707911Y7150D01*
X708042Y7115D01*
X708172Y7076D01*
X708301Y7033D01*
X708428Y6986D01*
X708554Y6936D01*
X708679Y6882D01*
X708474Y4427D02*
X708533Y4402D01*
X708590Y4373D01*
X708645Y4340D01*
X708698Y4304D01*
X708749Y4266D01*
X708797Y4224D01*
X708843Y4179D01*
X708886Y4132D01*
X708926Y4082D01*
X708963Y4030D01*
X708997Y3975D01*
X709028Y3919D01*
X709055Y3861D01*
X709078Y3801D01*
X709098Y3741D01*
X709114Y3679D01*
X709127Y3616D01*
X709135Y3552D01*
X709140Y3489D01*
X709141Y3425D01*
X709138Y3361D01*
X709131Y3297D01*
X709120Y3234D01*
X709106Y3172D01*
X709088Y3110D01*
X709066Y3050D01*
X709041Y2991D01*
X709012Y2934D01*
X708979Y2879D01*
X708944Y2826D01*
X708905Y2775D01*
X708863Y2726D01*
X708819Y2680D01*
X708771Y2637D01*
X708722Y2597D01*
X708669Y2560D01*
X708615Y2526D01*
X708559Y2495D01*
X708501Y2468D01*
X708442Y2444D01*
X708381Y2425D01*
X708319Y2408D01*
X708256Y2396D01*
X708193Y2387D01*
X708129Y2382D01*
X708065Y2381D01*
X707901Y2385D01*
X707737Y2393D01*
X707573Y2405D01*
X707410Y2421D01*
X707247Y2441D01*
X707084Y2464D01*
X706923Y2492D01*
X706761Y2523D01*
X706601Y2558D01*
X706442Y2597D01*
X706283Y2640D01*
X706126Y2686D01*
X705969Y2736D01*
X705814Y2790D01*
X712123Y2995D02*
X712123Y3404D01*
X712532Y3404D01*
X712532Y2995D01*
X712123Y2995D01*
X712123Y6269D02*
X712123Y6678D01*
X712532Y6678D01*
X712532Y6269D01*
X712123Y6269D01*
X715324Y1563D02*
X718598Y10565D01*
X724450Y10565D02*
X721176Y1563D01*
X728459Y2381D02*
X730505Y2381D01*
X728459Y2381D02*
X728390Y2383D01*
X728322Y2389D01*
X728253Y2398D01*
X728186Y2412D01*
X728119Y2429D01*
X728053Y2450D01*
X727989Y2474D01*
X727926Y2503D01*
X727865Y2534D01*
X727806Y2569D01*
X727748Y2607D01*
X727693Y2649D01*
X727641Y2693D01*
X727591Y2741D01*
X727543Y2791D01*
X727499Y2843D01*
X727457Y2898D01*
X727419Y2956D01*
X727384Y3015D01*
X727353Y3076D01*
X727324Y3139D01*
X727300Y3203D01*
X727279Y3269D01*
X727262Y3336D01*
X727248Y3403D01*
X727239Y3472D01*
X727233Y3540D01*
X727231Y3609D01*
X727231Y6064D01*
X727233Y6133D01*
X727239Y6201D01*
X727248Y6270D01*
X727262Y6337D01*
X727279Y6404D01*
X727300Y6470D01*
X727324Y6534D01*
X727353Y6597D01*
X727384Y6658D01*
X727419Y6717D01*
X727457Y6775D01*
X727499Y6830D01*
X727543Y6882D01*
X727591Y6932D01*
X727641Y6980D01*
X727693Y7024D01*
X727748Y7066D01*
X727806Y7104D01*
X727865Y7139D01*
X727926Y7170D01*
X727989Y7199D01*
X728053Y7223D01*
X728119Y7244D01*
X728186Y7261D01*
X728253Y7275D01*
X728322Y7284D01*
X728390Y7290D01*
X728459Y7292D01*
X730505Y7292D01*
X730505Y1153D01*
X730503Y1084D01*
X730497Y1016D01*
X730488Y947D01*
X730474Y880D01*
X730457Y813D01*
X730436Y747D01*
X730412Y683D01*
X730383Y620D01*
X730352Y559D01*
X730317Y500D01*
X730279Y442D01*
X730237Y387D01*
X730193Y335D01*
X730145Y285D01*
X730095Y237D01*
X730043Y193D01*
X729988Y152D01*
X729930Y113D01*
X729871Y78D01*
X729810Y47D01*
X729747Y18D01*
X729683Y-6D01*
X729617Y-27D01*
X729550Y-44D01*
X729483Y-58D01*
X729415Y-67D01*
X729346Y-73D01*
X729277Y-75D01*
X729277Y-74D02*
X727640Y-74D01*
X733786Y2381D02*
X733786Y7292D01*
X733581Y9338D02*
X733581Y9747D01*
X733990Y9747D01*
X733990Y9338D01*
X733581Y9338D01*
X736151Y7292D02*
X738607Y7292D01*
X736970Y9747D02*
X736970Y3609D01*
X736969Y3609D02*
X736971Y3540D01*
X736977Y3472D01*
X736986Y3403D01*
X737000Y3336D01*
X737017Y3269D01*
X737038Y3203D01*
X737062Y3139D01*
X737091Y3076D01*
X737122Y3015D01*
X737157Y2956D01*
X737195Y2898D01*
X737237Y2843D01*
X737281Y2791D01*
X737329Y2741D01*
X737379Y2693D01*
X737431Y2649D01*
X737486Y2607D01*
X737544Y2569D01*
X737603Y2534D01*
X737664Y2503D01*
X737727Y2474D01*
X737791Y2450D01*
X737857Y2429D01*
X737924Y2412D01*
X737991Y2398D01*
X738060Y2389D01*
X738128Y2383D01*
X738197Y2381D01*
X738607Y2381D01*
X741658Y2381D02*
X741658Y9747D01*
X741658Y7292D02*
X743704Y7292D01*
X743773Y7290D01*
X743841Y7284D01*
X743910Y7275D01*
X743977Y7261D01*
X744044Y7244D01*
X744110Y7223D01*
X744174Y7199D01*
X744237Y7170D01*
X744298Y7139D01*
X744357Y7104D01*
X744415Y7066D01*
X744470Y7024D01*
X744522Y6980D01*
X744572Y6932D01*
X744620Y6882D01*
X744664Y6830D01*
X744706Y6775D01*
X744744Y6717D01*
X744779Y6658D01*
X744810Y6597D01*
X744839Y6534D01*
X744863Y6470D01*
X744884Y6404D01*
X744901Y6337D01*
X744915Y6270D01*
X744924Y6201D01*
X744930Y6133D01*
X744932Y6064D01*
X744932Y2381D01*
X748486Y3609D02*
X748486Y7292D01*
X748486Y3609D02*
X748488Y3540D01*
X748494Y3472D01*
X748503Y3403D01*
X748517Y3336D01*
X748534Y3269D01*
X748555Y3203D01*
X748579Y3139D01*
X748608Y3076D01*
X748639Y3015D01*
X748674Y2956D01*
X748712Y2898D01*
X748754Y2843D01*
X748798Y2791D01*
X748846Y2741D01*
X748896Y2693D01*
X748948Y2649D01*
X749003Y2607D01*
X749061Y2569D01*
X749120Y2534D01*
X749181Y2503D01*
X749244Y2474D01*
X749308Y2450D01*
X749374Y2429D01*
X749441Y2412D01*
X749508Y2398D01*
X749577Y2389D01*
X749645Y2383D01*
X749714Y2381D01*
X751760Y2381D01*
X751760Y7292D01*
X755354Y9747D02*
X755354Y2381D01*
X757400Y2381D01*
X757469Y2383D01*
X757537Y2389D01*
X757606Y2398D01*
X757673Y2412D01*
X757740Y2429D01*
X757806Y2450D01*
X757870Y2474D01*
X757933Y2503D01*
X757994Y2534D01*
X758053Y2569D01*
X758111Y2607D01*
X758166Y2649D01*
X758218Y2693D01*
X758268Y2741D01*
X758316Y2791D01*
X758360Y2843D01*
X758402Y2898D01*
X758440Y2956D01*
X758475Y3015D01*
X758506Y3076D01*
X758535Y3139D01*
X758559Y3203D01*
X758580Y3269D01*
X758597Y3336D01*
X758611Y3403D01*
X758620Y3472D01*
X758626Y3540D01*
X758628Y3609D01*
X758628Y6064D01*
X758626Y6133D01*
X758620Y6201D01*
X758611Y6270D01*
X758597Y6337D01*
X758580Y6404D01*
X758559Y6470D01*
X758535Y6534D01*
X758506Y6597D01*
X758475Y6658D01*
X758440Y6717D01*
X758402Y6775D01*
X758360Y6830D01*
X758316Y6882D01*
X758268Y6932D01*
X758218Y6980D01*
X758166Y7024D01*
X758111Y7066D01*
X758053Y7104D01*
X757994Y7139D01*
X757933Y7170D01*
X757870Y7199D01*
X757806Y7223D01*
X757740Y7244D01*
X757673Y7261D01*
X757606Y7275D01*
X757537Y7284D01*
X757469Y7290D01*
X757400Y7292D01*
X755354Y7292D01*
X761379Y2790D02*
X761379Y2381D01*
X761379Y2790D02*
X761788Y2790D01*
X761788Y2381D01*
X761379Y2381D01*
X765816Y2381D02*
X767453Y2381D01*
X765816Y2381D02*
X765747Y2383D01*
X765679Y2389D01*
X765610Y2398D01*
X765543Y2412D01*
X765476Y2429D01*
X765410Y2450D01*
X765346Y2474D01*
X765283Y2503D01*
X765222Y2534D01*
X765163Y2569D01*
X765105Y2607D01*
X765050Y2649D01*
X764998Y2693D01*
X764948Y2741D01*
X764900Y2791D01*
X764856Y2843D01*
X764814Y2898D01*
X764776Y2956D01*
X764741Y3015D01*
X764710Y3076D01*
X764681Y3139D01*
X764657Y3203D01*
X764636Y3269D01*
X764619Y3336D01*
X764605Y3403D01*
X764596Y3472D01*
X764590Y3540D01*
X764588Y3609D01*
X764588Y6064D01*
X764590Y6133D01*
X764596Y6201D01*
X764605Y6270D01*
X764619Y6337D01*
X764636Y6404D01*
X764657Y6470D01*
X764681Y6534D01*
X764710Y6597D01*
X764741Y6658D01*
X764776Y6717D01*
X764814Y6775D01*
X764856Y6830D01*
X764900Y6882D01*
X764948Y6932D01*
X764998Y6980D01*
X765050Y7024D01*
X765105Y7066D01*
X765163Y7104D01*
X765222Y7139D01*
X765283Y7170D01*
X765346Y7199D01*
X765410Y7223D01*
X765476Y7244D01*
X765543Y7261D01*
X765610Y7275D01*
X765679Y7284D01*
X765747Y7290D01*
X765816Y7292D01*
X767453Y7292D01*
X770187Y5655D02*
X770187Y4018D01*
X770187Y5655D02*
X770189Y5734D01*
X770195Y5813D01*
X770204Y5892D01*
X770217Y5970D01*
X770235Y6047D01*
X770255Y6123D01*
X770280Y6198D01*
X770308Y6272D01*
X770339Y6345D01*
X770375Y6416D01*
X770413Y6485D01*
X770455Y6552D01*
X770500Y6617D01*
X770548Y6680D01*
X770599Y6741D01*
X770653Y6798D01*
X770709Y6854D01*
X770768Y6906D01*
X770830Y6956D01*
X770894Y7002D01*
X770960Y7046D01*
X771028Y7086D01*
X771098Y7122D01*
X771170Y7156D01*
X771244Y7186D01*
X771318Y7212D01*
X771394Y7235D01*
X771471Y7253D01*
X771548Y7269D01*
X771627Y7280D01*
X771705Y7288D01*
X771784Y7292D01*
X771864Y7292D01*
X771943Y7288D01*
X772021Y7280D01*
X772100Y7269D01*
X772177Y7253D01*
X772254Y7235D01*
X772330Y7212D01*
X772404Y7186D01*
X772478Y7156D01*
X772550Y7122D01*
X772620Y7086D01*
X772688Y7046D01*
X772754Y7002D01*
X772818Y6956D01*
X772880Y6906D01*
X772939Y6854D01*
X772995Y6798D01*
X773049Y6741D01*
X773100Y6680D01*
X773148Y6617D01*
X773193Y6552D01*
X773235Y6485D01*
X773273Y6416D01*
X773309Y6345D01*
X773340Y6272D01*
X773368Y6198D01*
X773393Y6123D01*
X773413Y6047D01*
X773431Y5970D01*
X773444Y5892D01*
X773453Y5813D01*
X773459Y5734D01*
X773461Y5655D01*
X773461Y4018D01*
X773459Y3939D01*
X773453Y3860D01*
X773444Y3781D01*
X773431Y3703D01*
X773413Y3626D01*
X773393Y3550D01*
X773368Y3475D01*
X773340Y3401D01*
X773309Y3328D01*
X773273Y3257D01*
X773235Y3188D01*
X773193Y3121D01*
X773148Y3056D01*
X773100Y2993D01*
X773049Y2932D01*
X772995Y2875D01*
X772939Y2819D01*
X772880Y2767D01*
X772818Y2717D01*
X772754Y2671D01*
X772688Y2627D01*
X772620Y2587D01*
X772550Y2551D01*
X772478Y2517D01*
X772404Y2487D01*
X772330Y2461D01*
X772254Y2438D01*
X772177Y2420D01*
X772100Y2404D01*
X772021Y2393D01*
X771943Y2385D01*
X771864Y2381D01*
X771784Y2381D01*
X771705Y2385D01*
X771627Y2393D01*
X771548Y2404D01*
X771471Y2420D01*
X771394Y2438D01*
X771318Y2461D01*
X771244Y2487D01*
X771170Y2517D01*
X771098Y2551D01*
X771028Y2587D01*
X770960Y2627D01*
X770894Y2671D01*
X770830Y2717D01*
X770768Y2767D01*
X770709Y2819D01*
X770653Y2875D01*
X770599Y2932D01*
X770548Y2993D01*
X770500Y3056D01*
X770455Y3121D01*
X770413Y3188D01*
X770375Y3257D01*
X770339Y3328D01*
X770308Y3401D01*
X770280Y3475D01*
X770255Y3550D01*
X770235Y3626D01*
X770217Y3703D01*
X770204Y3781D01*
X770195Y3860D01*
X770189Y3939D01*
X770187Y4018D01*
X776928Y2381D02*
X776928Y7292D01*
X780611Y7292D01*
X780680Y7290D01*
X780748Y7284D01*
X780817Y7275D01*
X780884Y7261D01*
X780951Y7244D01*
X781017Y7223D01*
X781081Y7199D01*
X781144Y7170D01*
X781205Y7139D01*
X781264Y7104D01*
X781322Y7066D01*
X781377Y7024D01*
X781429Y6980D01*
X781479Y6932D01*
X781527Y6882D01*
X781571Y6830D01*
X781613Y6775D01*
X781651Y6717D01*
X781686Y6658D01*
X781717Y6597D01*
X781746Y6534D01*
X781770Y6470D01*
X781791Y6404D01*
X781808Y6337D01*
X781822Y6270D01*
X781831Y6201D01*
X781837Y6133D01*
X781839Y6064D01*
X781839Y2381D01*
X779383Y2381D02*
X779383Y7292D01*
X785062Y1563D02*
X788335Y10565D01*
X791771Y5246D02*
X793818Y4427D01*
X791772Y5246D02*
X791713Y5271D01*
X791656Y5300D01*
X791601Y5333D01*
X791548Y5369D01*
X791497Y5407D01*
X791449Y5449D01*
X791403Y5494D01*
X791360Y5541D01*
X791320Y5591D01*
X791283Y5643D01*
X791249Y5698D01*
X791218Y5754D01*
X791191Y5812D01*
X791168Y5872D01*
X791148Y5932D01*
X791132Y5994D01*
X791119Y6057D01*
X791111Y6121D01*
X791106Y6184D01*
X791105Y6248D01*
X791108Y6312D01*
X791115Y6376D01*
X791126Y6439D01*
X791140Y6501D01*
X791158Y6563D01*
X791180Y6623D01*
X791205Y6682D01*
X791234Y6739D01*
X791267Y6794D01*
X791302Y6847D01*
X791341Y6898D01*
X791383Y6947D01*
X791427Y6993D01*
X791475Y7036D01*
X791524Y7076D01*
X791577Y7113D01*
X791631Y7147D01*
X791687Y7178D01*
X791745Y7205D01*
X791804Y7229D01*
X791865Y7248D01*
X791927Y7265D01*
X791990Y7277D01*
X792053Y7286D01*
X792117Y7291D01*
X792181Y7292D01*
X792180Y7292D02*
X792316Y7288D01*
X792451Y7280D01*
X792587Y7268D01*
X792721Y7252D01*
X792856Y7232D01*
X792989Y7209D01*
X793122Y7181D01*
X793254Y7150D01*
X793385Y7115D01*
X793515Y7076D01*
X793644Y7033D01*
X793771Y6986D01*
X793897Y6936D01*
X794022Y6882D01*
X793817Y4427D02*
X793876Y4402D01*
X793933Y4373D01*
X793988Y4340D01*
X794041Y4304D01*
X794092Y4266D01*
X794140Y4224D01*
X794186Y4179D01*
X794229Y4132D01*
X794269Y4082D01*
X794306Y4030D01*
X794340Y3975D01*
X794371Y3919D01*
X794398Y3861D01*
X794421Y3801D01*
X794441Y3741D01*
X794457Y3679D01*
X794470Y3616D01*
X794478Y3552D01*
X794483Y3489D01*
X794484Y3425D01*
X794481Y3361D01*
X794474Y3297D01*
X794463Y3234D01*
X794449Y3172D01*
X794431Y3110D01*
X794409Y3050D01*
X794384Y2991D01*
X794355Y2934D01*
X794322Y2879D01*
X794287Y2826D01*
X794248Y2775D01*
X794206Y2726D01*
X794162Y2680D01*
X794114Y2637D01*
X794065Y2597D01*
X794012Y2560D01*
X793958Y2526D01*
X793902Y2495D01*
X793844Y2468D01*
X793785Y2444D01*
X793724Y2425D01*
X793662Y2408D01*
X793599Y2396D01*
X793536Y2387D01*
X793472Y2382D01*
X793408Y2381D01*
X793244Y2385D01*
X793080Y2393D01*
X792916Y2405D01*
X792753Y2421D01*
X792590Y2441D01*
X792427Y2464D01*
X792266Y2492D01*
X792104Y2523D01*
X791944Y2558D01*
X791785Y2597D01*
X791626Y2640D01*
X791469Y2686D01*
X791312Y2736D01*
X791157Y2790D01*
X796867Y7292D02*
X799322Y7292D01*
X797686Y9747D02*
X797686Y3609D01*
X797685Y3609D02*
X797687Y3540D01*
X797693Y3472D01*
X797702Y3403D01*
X797716Y3336D01*
X797733Y3269D01*
X797754Y3203D01*
X797778Y3139D01*
X797807Y3076D01*
X797838Y3015D01*
X797873Y2956D01*
X797911Y2898D01*
X797953Y2843D01*
X797997Y2791D01*
X798045Y2741D01*
X798095Y2693D01*
X798147Y2649D01*
X798202Y2607D01*
X798260Y2569D01*
X798319Y2534D01*
X798380Y2503D01*
X798443Y2474D01*
X798507Y2450D01*
X798573Y2429D01*
X798640Y2412D01*
X798707Y2398D01*
X798776Y2389D01*
X798844Y2383D01*
X798913Y2381D01*
X799322Y2381D01*
X802415Y2381D02*
X802415Y9747D01*
X802415Y2381D02*
X804461Y2381D01*
X804530Y2383D01*
X804598Y2389D01*
X804667Y2398D01*
X804734Y2412D01*
X804801Y2429D01*
X804867Y2450D01*
X804931Y2474D01*
X804994Y2503D01*
X805055Y2534D01*
X805114Y2569D01*
X805172Y2607D01*
X805227Y2649D01*
X805279Y2693D01*
X805329Y2741D01*
X805377Y2791D01*
X805421Y2843D01*
X805463Y2898D01*
X805501Y2956D01*
X805536Y3015D01*
X805567Y3076D01*
X805596Y3139D01*
X805620Y3203D01*
X805641Y3269D01*
X805658Y3336D01*
X805672Y3403D01*
X805681Y3472D01*
X805687Y3540D01*
X805689Y3609D01*
X805689Y6064D01*
X805687Y6133D01*
X805681Y6201D01*
X805672Y6270D01*
X805658Y6337D01*
X805641Y6404D01*
X805620Y6470D01*
X805596Y6534D01*
X805567Y6597D01*
X805536Y6658D01*
X805501Y6717D01*
X805463Y6775D01*
X805421Y6830D01*
X805377Y6882D01*
X805329Y6932D01*
X805279Y6980D01*
X805227Y7024D01*
X805172Y7066D01*
X805114Y7104D01*
X805055Y7139D01*
X804994Y7170D01*
X804931Y7199D01*
X804867Y7223D01*
X804801Y7244D01*
X804734Y7261D01*
X804667Y7275D01*
X804598Y7284D01*
X804530Y7290D01*
X804461Y7292D01*
X802415Y7292D01*
X808792Y4018D02*
X810429Y9747D01*
X808792Y4018D02*
X812885Y4018D01*
X811657Y5655D02*
X811657Y2381D01*
X817745Y5655D02*
X820200Y5655D01*
X817745Y5655D02*
X817667Y5657D01*
X817589Y5662D01*
X817512Y5672D01*
X817435Y5685D01*
X817359Y5701D01*
X817284Y5721D01*
X817210Y5745D01*
X817137Y5772D01*
X817065Y5803D01*
X816995Y5837D01*
X816926Y5874D01*
X816860Y5915D01*
X816795Y5959D01*
X816733Y6005D01*
X816673Y6055D01*
X816615Y6107D01*
X816560Y6162D01*
X816508Y6220D01*
X816458Y6280D01*
X816412Y6342D01*
X816368Y6407D01*
X816327Y6474D01*
X816290Y6542D01*
X816256Y6612D01*
X816225Y6684D01*
X816198Y6757D01*
X816174Y6831D01*
X816154Y6906D01*
X816138Y6982D01*
X816125Y7059D01*
X816115Y7136D01*
X816110Y7214D01*
X816108Y7292D01*
X816108Y7701D01*
X816110Y7790D01*
X816116Y7879D01*
X816126Y7968D01*
X816139Y8056D01*
X816156Y8144D01*
X816178Y8231D01*
X816203Y8316D01*
X816231Y8401D01*
X816264Y8484D01*
X816300Y8566D01*
X816339Y8646D01*
X816382Y8724D01*
X816428Y8800D01*
X816478Y8875D01*
X816531Y8947D01*
X816587Y9016D01*
X816646Y9083D01*
X816707Y9148D01*
X816772Y9209D01*
X816839Y9268D01*
X816908Y9324D01*
X816980Y9377D01*
X817055Y9427D01*
X817131Y9473D01*
X817209Y9516D01*
X817289Y9555D01*
X817371Y9591D01*
X817454Y9624D01*
X817539Y9652D01*
X817624Y9677D01*
X817711Y9699D01*
X817799Y9716D01*
X817887Y9729D01*
X817976Y9739D01*
X818065Y9745D01*
X818154Y9747D01*
X818243Y9745D01*
X818332Y9739D01*
X818421Y9729D01*
X818509Y9716D01*
X818597Y9699D01*
X818684Y9677D01*
X818769Y9652D01*
X818854Y9624D01*
X818937Y9591D01*
X819019Y9555D01*
X819099Y9516D01*
X819177Y9473D01*
X819253Y9427D01*
X819328Y9377D01*
X819400Y9324D01*
X819469Y9268D01*
X819536Y9209D01*
X819601Y9148D01*
X819662Y9083D01*
X819721Y9016D01*
X819777Y8947D01*
X819830Y8875D01*
X819880Y8800D01*
X819926Y8724D01*
X819969Y8646D01*
X820008Y8566D01*
X820044Y8484D01*
X820077Y8401D01*
X820105Y8316D01*
X820130Y8231D01*
X820152Y8144D01*
X820169Y8056D01*
X820182Y7968D01*
X820192Y7879D01*
X820198Y7790D01*
X820200Y7701D01*
X820200Y5655D01*
X820198Y5543D01*
X820192Y5432D01*
X820183Y5320D01*
X820170Y5209D01*
X820152Y5099D01*
X820132Y4989D01*
X820107Y4880D01*
X820079Y4772D01*
X820047Y4665D01*
X820011Y4559D01*
X819972Y4454D01*
X819929Y4351D01*
X819883Y4249D01*
X819833Y4149D01*
X819780Y4050D01*
X819723Y3954D01*
X819664Y3859D01*
X819601Y3767D01*
X819535Y3677D01*
X819466Y3589D01*
X819394Y3503D01*
X819319Y3420D01*
X819241Y3340D01*
X819161Y3262D01*
X819078Y3187D01*
X818992Y3115D01*
X818904Y3046D01*
X818814Y2980D01*
X818722Y2917D01*
X818627Y2858D01*
X818531Y2801D01*
X818432Y2748D01*
X818332Y2698D01*
X818230Y2652D01*
X818127Y2609D01*
X818022Y2570D01*
X817916Y2534D01*
X817809Y2502D01*
X817701Y2474D01*
X817592Y2449D01*
X817482Y2429D01*
X817372Y2411D01*
X817261Y2398D01*
X817149Y2389D01*
X817038Y2383D01*
X816926Y2381D01*
X823423Y6064D02*
X823425Y6217D01*
X823431Y6370D01*
X823440Y6522D01*
X823454Y6675D01*
X823471Y6827D01*
X823492Y6978D01*
X823517Y7129D01*
X823546Y7279D01*
X823578Y7429D01*
X823615Y7577D01*
X823655Y7725D01*
X823698Y7872D01*
X823746Y8017D01*
X823797Y8161D01*
X823851Y8304D01*
X823910Y8446D01*
X823971Y8585D01*
X824037Y8724D01*
X824063Y8794D01*
X824093Y8864D01*
X824126Y8931D01*
X824162Y8997D01*
X824201Y9061D01*
X824244Y9123D01*
X824290Y9182D01*
X824338Y9240D01*
X824389Y9294D01*
X824443Y9347D01*
X824500Y9396D01*
X824559Y9443D01*
X824620Y9486D01*
X824683Y9527D01*
X824748Y9564D01*
X824815Y9599D01*
X824884Y9629D01*
X824954Y9657D01*
X825025Y9680D01*
X825097Y9701D01*
X825170Y9717D01*
X825244Y9730D01*
X825319Y9740D01*
X825394Y9745D01*
X825469Y9747D01*
X825544Y9745D01*
X825619Y9740D01*
X825694Y9730D01*
X825768Y9717D01*
X825841Y9701D01*
X825913Y9680D01*
X825984Y9657D01*
X826054Y9629D01*
X826123Y9599D01*
X826190Y9564D01*
X826255Y9527D01*
X826318Y9486D01*
X826379Y9443D01*
X826438Y9396D01*
X826495Y9347D01*
X826549Y9294D01*
X826600Y9240D01*
X826649Y9182D01*
X826694Y9123D01*
X826737Y9061D01*
X826776Y8997D01*
X826813Y8931D01*
X826845Y8863D01*
X826875Y8794D01*
X826901Y8724D01*
X826966Y8586D01*
X827028Y8446D01*
X827086Y8304D01*
X827141Y8161D01*
X827192Y8017D01*
X827240Y7872D01*
X827283Y7725D01*
X827323Y7578D01*
X827360Y7429D01*
X827392Y7279D01*
X827421Y7129D01*
X827446Y6978D01*
X827467Y6827D01*
X827484Y6675D01*
X827498Y6522D01*
X827507Y6370D01*
X827513Y6217D01*
X827515Y6064D01*
X823422Y6064D02*
X823424Y5911D01*
X823430Y5758D01*
X823439Y5605D01*
X823453Y5453D01*
X823470Y5301D01*
X823491Y5150D01*
X823516Y4999D01*
X823545Y4848D01*
X823577Y4699D01*
X823614Y4550D01*
X823654Y4403D01*
X823697Y4256D01*
X823745Y4111D01*
X823796Y3966D01*
X823851Y3824D01*
X823909Y3682D01*
X823971Y3542D01*
X824036Y3404D01*
X824037Y3404D02*
X824063Y3333D01*
X824093Y3264D01*
X824126Y3197D01*
X824162Y3131D01*
X824201Y3067D01*
X824244Y3005D01*
X824290Y2946D01*
X824338Y2888D01*
X824389Y2834D01*
X824443Y2781D01*
X824500Y2732D01*
X824559Y2685D01*
X824620Y2642D01*
X824683Y2601D01*
X824748Y2564D01*
X824815Y2529D01*
X824884Y2499D01*
X824954Y2471D01*
X825025Y2448D01*
X825097Y2427D01*
X825170Y2411D01*
X825244Y2398D01*
X825319Y2388D01*
X825394Y2383D01*
X825469Y2381D01*
X826901Y3404D02*
X826966Y3542D01*
X827028Y3682D01*
X827086Y3824D01*
X827141Y3967D01*
X827192Y4111D01*
X827240Y4256D01*
X827283Y4403D01*
X827323Y4551D01*
X827360Y4699D01*
X827392Y4849D01*
X827421Y4999D01*
X827446Y5150D01*
X827467Y5301D01*
X827484Y5453D01*
X827498Y5606D01*
X827507Y5758D01*
X827513Y5911D01*
X827515Y6064D01*
X826901Y3404D02*
X826875Y3334D01*
X826845Y3264D01*
X826813Y3197D01*
X826776Y3131D01*
X826737Y3067D01*
X826694Y3005D01*
X826648Y2946D01*
X826600Y2888D01*
X826549Y2834D01*
X826495Y2781D01*
X826438Y2732D01*
X826379Y2685D01*
X826318Y2642D01*
X826255Y2601D01*
X826190Y2564D01*
X826123Y2529D01*
X826054Y2499D01*
X825984Y2471D01*
X825913Y2448D01*
X825841Y2427D01*
X825768Y2411D01*
X825694Y2398D01*
X825619Y2388D01*
X825544Y2383D01*
X825469Y2381D01*
X823832Y4018D02*
X827106Y8110D01*
X830738Y8929D02*
X830738Y9747D01*
X834830Y9747D01*
X832784Y2381D01*
X838053Y4427D02*
X838055Y4516D01*
X838061Y4605D01*
X838071Y4694D01*
X838084Y4782D01*
X838101Y4870D01*
X838123Y4957D01*
X838148Y5042D01*
X838176Y5127D01*
X838209Y5210D01*
X838245Y5292D01*
X838284Y5372D01*
X838327Y5450D01*
X838373Y5526D01*
X838423Y5601D01*
X838476Y5673D01*
X838532Y5742D01*
X838591Y5809D01*
X838652Y5874D01*
X838717Y5935D01*
X838784Y5994D01*
X838853Y6050D01*
X838925Y6103D01*
X839000Y6153D01*
X839076Y6199D01*
X839154Y6242D01*
X839234Y6281D01*
X839316Y6317D01*
X839399Y6350D01*
X839484Y6378D01*
X839569Y6403D01*
X839656Y6425D01*
X839744Y6442D01*
X839832Y6455D01*
X839921Y6465D01*
X840010Y6471D01*
X840099Y6473D01*
X840188Y6471D01*
X840277Y6465D01*
X840366Y6455D01*
X840454Y6442D01*
X840542Y6425D01*
X840629Y6403D01*
X840714Y6378D01*
X840799Y6350D01*
X840882Y6317D01*
X840964Y6281D01*
X841044Y6242D01*
X841122Y6199D01*
X841198Y6153D01*
X841273Y6103D01*
X841345Y6050D01*
X841414Y5994D01*
X841481Y5935D01*
X841546Y5874D01*
X841607Y5809D01*
X841666Y5742D01*
X841722Y5673D01*
X841775Y5601D01*
X841825Y5526D01*
X841871Y5450D01*
X841914Y5372D01*
X841953Y5292D01*
X841989Y5210D01*
X842022Y5127D01*
X842050Y5042D01*
X842075Y4957D01*
X842097Y4870D01*
X842114Y4782D01*
X842127Y4694D01*
X842137Y4605D01*
X842143Y4516D01*
X842145Y4427D01*
X842143Y4338D01*
X842137Y4249D01*
X842127Y4160D01*
X842114Y4072D01*
X842097Y3984D01*
X842075Y3897D01*
X842050Y3812D01*
X842022Y3727D01*
X841989Y3644D01*
X841953Y3562D01*
X841914Y3482D01*
X841871Y3404D01*
X841825Y3328D01*
X841775Y3253D01*
X841722Y3181D01*
X841666Y3112D01*
X841607Y3045D01*
X841546Y2980D01*
X841481Y2919D01*
X841414Y2860D01*
X841345Y2804D01*
X841273Y2751D01*
X841198Y2701D01*
X841122Y2655D01*
X841044Y2612D01*
X840964Y2573D01*
X840882Y2537D01*
X840799Y2504D01*
X840714Y2476D01*
X840629Y2451D01*
X840542Y2429D01*
X840454Y2412D01*
X840366Y2399D01*
X840277Y2389D01*
X840188Y2383D01*
X840099Y2381D01*
X840010Y2383D01*
X839921Y2389D01*
X839832Y2399D01*
X839744Y2412D01*
X839656Y2429D01*
X839569Y2451D01*
X839484Y2476D01*
X839399Y2504D01*
X839316Y2537D01*
X839234Y2573D01*
X839154Y2612D01*
X839076Y2655D01*
X839000Y2701D01*
X838925Y2751D01*
X838853Y2804D01*
X838784Y2860D01*
X838717Y2919D01*
X838652Y2980D01*
X838591Y3045D01*
X838532Y3112D01*
X838476Y3181D01*
X838423Y3253D01*
X838373Y3328D01*
X838327Y3404D01*
X838284Y3482D01*
X838245Y3562D01*
X838209Y3644D01*
X838176Y3727D01*
X838148Y3812D01*
X838123Y3897D01*
X838101Y3984D01*
X838084Y4072D01*
X838071Y4160D01*
X838061Y4249D01*
X838055Y4338D01*
X838053Y4427D01*
X838462Y8110D02*
X838464Y8189D01*
X838470Y8268D01*
X838479Y8347D01*
X838492Y8425D01*
X838510Y8502D01*
X838530Y8578D01*
X838555Y8653D01*
X838583Y8727D01*
X838614Y8800D01*
X838650Y8871D01*
X838688Y8940D01*
X838730Y9007D01*
X838775Y9072D01*
X838823Y9135D01*
X838874Y9196D01*
X838928Y9253D01*
X838984Y9309D01*
X839043Y9361D01*
X839105Y9411D01*
X839169Y9457D01*
X839235Y9501D01*
X839303Y9541D01*
X839373Y9577D01*
X839445Y9611D01*
X839519Y9641D01*
X839593Y9667D01*
X839669Y9690D01*
X839746Y9708D01*
X839823Y9724D01*
X839902Y9735D01*
X839980Y9743D01*
X840059Y9747D01*
X840139Y9747D01*
X840218Y9743D01*
X840296Y9735D01*
X840375Y9724D01*
X840452Y9708D01*
X840529Y9690D01*
X840605Y9667D01*
X840679Y9641D01*
X840753Y9611D01*
X840825Y9577D01*
X840895Y9541D01*
X840963Y9501D01*
X841029Y9457D01*
X841093Y9411D01*
X841155Y9361D01*
X841214Y9309D01*
X841270Y9253D01*
X841324Y9196D01*
X841375Y9135D01*
X841423Y9072D01*
X841468Y9007D01*
X841510Y8940D01*
X841548Y8871D01*
X841584Y8800D01*
X841615Y8727D01*
X841643Y8653D01*
X841668Y8578D01*
X841688Y8502D01*
X841706Y8425D01*
X841719Y8347D01*
X841728Y8268D01*
X841734Y8189D01*
X841736Y8110D01*
X841734Y8031D01*
X841728Y7952D01*
X841719Y7873D01*
X841706Y7795D01*
X841688Y7718D01*
X841668Y7642D01*
X841643Y7567D01*
X841615Y7493D01*
X841584Y7420D01*
X841548Y7349D01*
X841510Y7280D01*
X841468Y7213D01*
X841423Y7148D01*
X841375Y7085D01*
X841324Y7024D01*
X841270Y6967D01*
X841214Y6911D01*
X841155Y6859D01*
X841093Y6809D01*
X841029Y6763D01*
X840963Y6719D01*
X840895Y6679D01*
X840825Y6643D01*
X840753Y6609D01*
X840679Y6579D01*
X840605Y6553D01*
X840529Y6530D01*
X840452Y6512D01*
X840375Y6496D01*
X840296Y6485D01*
X840218Y6477D01*
X840139Y6473D01*
X840059Y6473D01*
X839980Y6477D01*
X839902Y6485D01*
X839823Y6496D01*
X839746Y6512D01*
X839669Y6530D01*
X839593Y6553D01*
X839519Y6579D01*
X839445Y6609D01*
X839373Y6643D01*
X839303Y6679D01*
X839235Y6719D01*
X839169Y6763D01*
X839105Y6809D01*
X839043Y6859D01*
X838984Y6911D01*
X838928Y6967D01*
X838874Y7024D01*
X838823Y7085D01*
X838775Y7148D01*
X838730Y7213D01*
X838688Y7280D01*
X838650Y7349D01*
X838614Y7420D01*
X838583Y7493D01*
X838555Y7567D01*
X838530Y7642D01*
X838510Y7718D01*
X838492Y7795D01*
X838479Y7873D01*
X838470Y7952D01*
X838464Y8031D01*
X838462Y8110D01*
X845046Y1563D02*
X848320Y10565D01*
X851386Y7292D02*
X851386Y2381D01*
X851386Y7292D02*
X853432Y7292D01*
X853501Y7290D01*
X853569Y7284D01*
X853638Y7275D01*
X853705Y7261D01*
X853772Y7244D01*
X853838Y7223D01*
X853902Y7199D01*
X853965Y7170D01*
X854026Y7139D01*
X854085Y7104D01*
X854143Y7066D01*
X854198Y7024D01*
X854250Y6980D01*
X854300Y6932D01*
X854348Y6882D01*
X854392Y6830D01*
X854434Y6775D01*
X854472Y6717D01*
X854507Y6658D01*
X854538Y6597D01*
X854567Y6534D01*
X854591Y6470D01*
X854612Y6404D01*
X854629Y6337D01*
X854643Y6270D01*
X854652Y6201D01*
X854658Y6133D01*
X854660Y6064D01*
X854660Y2381D01*
X858584Y5246D02*
X860630Y4427D01*
X858584Y5246D02*
X858525Y5271D01*
X858468Y5300D01*
X858413Y5333D01*
X858360Y5369D01*
X858309Y5407D01*
X858261Y5449D01*
X858215Y5494D01*
X858172Y5541D01*
X858132Y5591D01*
X858095Y5643D01*
X858061Y5698D01*
X858030Y5754D01*
X858003Y5812D01*
X857980Y5872D01*
X857960Y5932D01*
X857944Y5994D01*
X857931Y6057D01*
X857923Y6121D01*
X857918Y6184D01*
X857917Y6248D01*
X857920Y6312D01*
X857927Y6376D01*
X857938Y6439D01*
X857952Y6501D01*
X857970Y6563D01*
X857992Y6623D01*
X858017Y6682D01*
X858046Y6739D01*
X858079Y6794D01*
X858114Y6847D01*
X858153Y6898D01*
X858195Y6947D01*
X858239Y6993D01*
X858287Y7036D01*
X858336Y7076D01*
X858389Y7113D01*
X858443Y7147D01*
X858499Y7178D01*
X858557Y7205D01*
X858616Y7229D01*
X858677Y7248D01*
X858739Y7265D01*
X858802Y7277D01*
X858865Y7286D01*
X858929Y7291D01*
X858993Y7292D01*
X858992Y7292D02*
X859128Y7288D01*
X859263Y7280D01*
X859399Y7268D01*
X859533Y7252D01*
X859668Y7232D01*
X859801Y7209D01*
X859934Y7181D01*
X860066Y7150D01*
X860197Y7115D01*
X860327Y7076D01*
X860456Y7033D01*
X860583Y6986D01*
X860709Y6936D01*
X860834Y6882D01*
X860630Y4427D02*
X860689Y4402D01*
X860746Y4373D01*
X860801Y4340D01*
X860854Y4304D01*
X860905Y4266D01*
X860953Y4224D01*
X860999Y4179D01*
X861042Y4132D01*
X861082Y4082D01*
X861119Y4030D01*
X861153Y3975D01*
X861184Y3919D01*
X861211Y3861D01*
X861234Y3801D01*
X861254Y3741D01*
X861270Y3679D01*
X861283Y3616D01*
X861291Y3552D01*
X861296Y3489D01*
X861297Y3425D01*
X861294Y3361D01*
X861287Y3297D01*
X861276Y3234D01*
X861262Y3172D01*
X861244Y3110D01*
X861222Y3050D01*
X861197Y2991D01*
X861168Y2934D01*
X861135Y2879D01*
X861100Y2826D01*
X861061Y2775D01*
X861019Y2726D01*
X860975Y2680D01*
X860927Y2637D01*
X860878Y2597D01*
X860825Y2560D01*
X860771Y2526D01*
X860715Y2495D01*
X860657Y2468D01*
X860598Y2444D01*
X860537Y2425D01*
X860475Y2408D01*
X860412Y2396D01*
X860349Y2387D01*
X860285Y2382D01*
X860221Y2381D01*
X860057Y2385D01*
X859893Y2393D01*
X859729Y2405D01*
X859566Y2421D01*
X859403Y2441D01*
X859240Y2464D01*
X859079Y2492D01*
X858917Y2523D01*
X858757Y2558D01*
X858598Y2597D01*
X858439Y2640D01*
X858282Y2686D01*
X858125Y2736D01*
X857970Y2790D01*
X865546Y2381D02*
X867183Y2381D01*
X865546Y2381D02*
X865477Y2383D01*
X865409Y2389D01*
X865340Y2398D01*
X865273Y2412D01*
X865206Y2429D01*
X865140Y2450D01*
X865076Y2474D01*
X865013Y2503D01*
X864952Y2534D01*
X864893Y2569D01*
X864835Y2607D01*
X864780Y2649D01*
X864728Y2693D01*
X864678Y2741D01*
X864630Y2791D01*
X864586Y2843D01*
X864544Y2898D01*
X864506Y2956D01*
X864471Y3015D01*
X864440Y3076D01*
X864411Y3139D01*
X864387Y3203D01*
X864366Y3269D01*
X864349Y3336D01*
X864335Y3403D01*
X864326Y3472D01*
X864320Y3540D01*
X864318Y3609D01*
X864319Y3609D02*
X864319Y6064D01*
X864318Y6064D02*
X864320Y6133D01*
X864326Y6201D01*
X864335Y6270D01*
X864349Y6337D01*
X864366Y6404D01*
X864387Y6470D01*
X864411Y6534D01*
X864440Y6597D01*
X864471Y6658D01*
X864506Y6717D01*
X864544Y6775D01*
X864586Y6830D01*
X864630Y6882D01*
X864678Y6932D01*
X864728Y6980D01*
X864780Y7024D01*
X864835Y7066D01*
X864893Y7104D01*
X864952Y7139D01*
X865013Y7170D01*
X865076Y7199D01*
X865140Y7223D01*
X865206Y7244D01*
X865273Y7261D01*
X865340Y7275D01*
X865409Y7284D01*
X865477Y7290D01*
X865546Y7292D01*
X867183Y7292D01*
X871309Y5246D02*
X873151Y5246D01*
X871309Y5245D02*
X871234Y5243D01*
X871159Y5237D01*
X871085Y5227D01*
X871011Y5214D01*
X870938Y5196D01*
X870866Y5175D01*
X870796Y5150D01*
X870727Y5121D01*
X870659Y5089D01*
X870593Y5053D01*
X870529Y5014D01*
X870467Y4972D01*
X870408Y4926D01*
X870351Y4877D01*
X870296Y4826D01*
X870245Y4771D01*
X870196Y4714D01*
X870150Y4655D01*
X870108Y4593D01*
X870069Y4529D01*
X870033Y4463D01*
X870001Y4395D01*
X869972Y4326D01*
X869947Y4256D01*
X869926Y4184D01*
X869908Y4111D01*
X869895Y4037D01*
X869885Y3963D01*
X869879Y3888D01*
X869877Y3813D01*
X869879Y3738D01*
X869885Y3663D01*
X869895Y3589D01*
X869908Y3515D01*
X869926Y3442D01*
X869947Y3370D01*
X869972Y3300D01*
X870001Y3231D01*
X870033Y3163D01*
X870069Y3097D01*
X870108Y3033D01*
X870150Y2971D01*
X870196Y2912D01*
X870245Y2855D01*
X870296Y2800D01*
X870351Y2749D01*
X870408Y2700D01*
X870467Y2654D01*
X870529Y2612D01*
X870593Y2573D01*
X870659Y2537D01*
X870727Y2505D01*
X870796Y2476D01*
X870866Y2451D01*
X870938Y2430D01*
X871011Y2412D01*
X871085Y2399D01*
X871159Y2389D01*
X871234Y2383D01*
X871309Y2381D01*
X873151Y2381D01*
X873151Y6064D01*
X873149Y6133D01*
X873143Y6201D01*
X873134Y6270D01*
X873120Y6337D01*
X873103Y6404D01*
X873082Y6470D01*
X873058Y6534D01*
X873029Y6597D01*
X872998Y6658D01*
X872963Y6717D01*
X872925Y6775D01*
X872883Y6830D01*
X872839Y6882D01*
X872791Y6932D01*
X872741Y6980D01*
X872689Y7024D01*
X872634Y7066D01*
X872576Y7104D01*
X872517Y7139D01*
X872456Y7170D01*
X872393Y7199D01*
X872329Y7223D01*
X872263Y7244D01*
X872196Y7261D01*
X872129Y7275D01*
X872060Y7284D01*
X871992Y7290D01*
X871923Y7292D01*
X870286Y7292D01*
X876584Y9747D02*
X876584Y3609D01*
X876586Y3540D01*
X876592Y3472D01*
X876601Y3403D01*
X876615Y3336D01*
X876632Y3269D01*
X876653Y3203D01*
X876677Y3139D01*
X876706Y3076D01*
X876737Y3015D01*
X876772Y2956D01*
X876810Y2898D01*
X876852Y2843D01*
X876896Y2791D01*
X876944Y2741D01*
X876994Y2693D01*
X877046Y2649D01*
X877101Y2607D01*
X877159Y2569D01*
X877218Y2534D01*
X877279Y2503D01*
X877342Y2474D01*
X877406Y2450D01*
X877472Y2429D01*
X877539Y2412D01*
X877606Y2398D01*
X877675Y2389D01*
X877743Y2383D01*
X877812Y2381D01*
X881631Y2381D02*
X883677Y2381D01*
X881631Y2381D02*
X881562Y2383D01*
X881494Y2389D01*
X881425Y2398D01*
X881358Y2412D01*
X881291Y2429D01*
X881225Y2450D01*
X881161Y2474D01*
X881098Y2503D01*
X881037Y2534D01*
X880978Y2569D01*
X880920Y2607D01*
X880865Y2649D01*
X880813Y2693D01*
X880763Y2741D01*
X880715Y2791D01*
X880671Y2843D01*
X880629Y2898D01*
X880591Y2956D01*
X880556Y3015D01*
X880525Y3076D01*
X880496Y3139D01*
X880472Y3203D01*
X880451Y3269D01*
X880434Y3336D01*
X880420Y3403D01*
X880411Y3472D01*
X880405Y3540D01*
X880403Y3609D01*
X880403Y5655D01*
X880405Y5734D01*
X880411Y5813D01*
X880420Y5892D01*
X880433Y5970D01*
X880451Y6047D01*
X880471Y6123D01*
X880496Y6198D01*
X880524Y6272D01*
X880555Y6345D01*
X880591Y6416D01*
X880629Y6485D01*
X880671Y6552D01*
X880716Y6617D01*
X880764Y6680D01*
X880815Y6741D01*
X880869Y6798D01*
X880925Y6854D01*
X880984Y6906D01*
X881046Y6956D01*
X881110Y7002D01*
X881176Y7046D01*
X881244Y7086D01*
X881314Y7122D01*
X881386Y7156D01*
X881460Y7186D01*
X881534Y7212D01*
X881610Y7235D01*
X881687Y7253D01*
X881764Y7269D01*
X881843Y7280D01*
X881921Y7288D01*
X882000Y7292D01*
X882080Y7292D01*
X882159Y7288D01*
X882237Y7280D01*
X882316Y7269D01*
X882393Y7253D01*
X882470Y7235D01*
X882546Y7212D01*
X882620Y7186D01*
X882694Y7156D01*
X882766Y7122D01*
X882836Y7086D01*
X882904Y7046D01*
X882970Y7002D01*
X883034Y6956D01*
X883096Y6906D01*
X883155Y6854D01*
X883211Y6798D01*
X883265Y6741D01*
X883316Y6680D01*
X883364Y6617D01*
X883409Y6552D01*
X883451Y6485D01*
X883489Y6416D01*
X883525Y6345D01*
X883556Y6272D01*
X883584Y6198D01*
X883609Y6123D01*
X883629Y6047D01*
X883647Y5970D01*
X883660Y5892D01*
X883669Y5813D01*
X883675Y5734D01*
X883677Y5655D01*
X883677Y4836D01*
X880403Y4836D01*
X886900Y5246D02*
X891810Y5246D01*
X896425Y5246D02*
X898266Y5246D01*
X896425Y5245D02*
X896350Y5243D01*
X896275Y5237D01*
X896201Y5227D01*
X896127Y5214D01*
X896054Y5196D01*
X895982Y5175D01*
X895912Y5150D01*
X895843Y5121D01*
X895775Y5089D01*
X895709Y5053D01*
X895645Y5014D01*
X895583Y4972D01*
X895524Y4926D01*
X895467Y4877D01*
X895412Y4826D01*
X895361Y4771D01*
X895312Y4714D01*
X895266Y4655D01*
X895224Y4593D01*
X895185Y4529D01*
X895149Y4463D01*
X895117Y4395D01*
X895088Y4326D01*
X895063Y4256D01*
X895042Y4184D01*
X895024Y4111D01*
X895011Y4037D01*
X895001Y3963D01*
X894995Y3888D01*
X894993Y3813D01*
X894995Y3738D01*
X895001Y3663D01*
X895011Y3589D01*
X895024Y3515D01*
X895042Y3442D01*
X895063Y3370D01*
X895088Y3300D01*
X895117Y3231D01*
X895149Y3163D01*
X895185Y3097D01*
X895224Y3033D01*
X895266Y2971D01*
X895312Y2912D01*
X895361Y2855D01*
X895412Y2800D01*
X895467Y2749D01*
X895524Y2700D01*
X895583Y2654D01*
X895645Y2612D01*
X895709Y2573D01*
X895775Y2537D01*
X895843Y2505D01*
X895912Y2476D01*
X895982Y2451D01*
X896054Y2430D01*
X896127Y2412D01*
X896201Y2399D01*
X896275Y2389D01*
X896350Y2383D01*
X896425Y2381D01*
X898266Y2381D01*
X898266Y6064D01*
X898264Y6133D01*
X898258Y6201D01*
X898249Y6270D01*
X898235Y6337D01*
X898218Y6404D01*
X898197Y6470D01*
X898173Y6534D01*
X898144Y6597D01*
X898113Y6658D01*
X898078Y6717D01*
X898040Y6775D01*
X897998Y6830D01*
X897954Y6882D01*
X897906Y6932D01*
X897856Y6980D01*
X897804Y7024D01*
X897749Y7066D01*
X897691Y7104D01*
X897632Y7139D01*
X897571Y7170D01*
X897508Y7199D01*
X897444Y7223D01*
X897378Y7244D01*
X897311Y7261D01*
X897244Y7275D01*
X897175Y7284D01*
X897107Y7290D01*
X897038Y7292D01*
X895402Y7292D01*
X904850Y9747D02*
X904850Y2381D01*
X902804Y2381D01*
X902735Y2383D01*
X902667Y2389D01*
X902598Y2398D01*
X902531Y2412D01*
X902464Y2429D01*
X902398Y2450D01*
X902334Y2474D01*
X902271Y2503D01*
X902210Y2534D01*
X902151Y2569D01*
X902093Y2607D01*
X902038Y2649D01*
X901986Y2693D01*
X901936Y2741D01*
X901888Y2791D01*
X901844Y2843D01*
X901802Y2898D01*
X901764Y2956D01*
X901729Y3015D01*
X901698Y3076D01*
X901669Y3139D01*
X901645Y3203D01*
X901624Y3269D01*
X901607Y3336D01*
X901593Y3403D01*
X901584Y3472D01*
X901578Y3540D01*
X901576Y3609D01*
X901576Y6064D01*
X901578Y6133D01*
X901584Y6201D01*
X901593Y6270D01*
X901607Y6337D01*
X901624Y6404D01*
X901645Y6470D01*
X901669Y6534D01*
X901698Y6597D01*
X901729Y6658D01*
X901764Y6717D01*
X901802Y6775D01*
X901844Y6830D01*
X901888Y6882D01*
X901936Y6932D01*
X901986Y6980D01*
X902038Y7024D01*
X902093Y7066D01*
X902151Y7104D01*
X902210Y7139D01*
X902271Y7170D01*
X902334Y7199D01*
X902398Y7223D01*
X902464Y7244D01*
X902531Y7261D01*
X902598Y7275D01*
X902667Y7284D01*
X902735Y7290D01*
X902804Y7292D01*
X904850Y7292D01*
X909592Y5246D02*
X911433Y5246D01*
X909592Y5245D02*
X909517Y5243D01*
X909442Y5237D01*
X909368Y5227D01*
X909294Y5214D01*
X909221Y5196D01*
X909149Y5175D01*
X909079Y5150D01*
X909010Y5121D01*
X908942Y5089D01*
X908876Y5053D01*
X908812Y5014D01*
X908750Y4972D01*
X908691Y4926D01*
X908634Y4877D01*
X908579Y4826D01*
X908528Y4771D01*
X908479Y4714D01*
X908433Y4655D01*
X908391Y4593D01*
X908352Y4529D01*
X908316Y4463D01*
X908284Y4395D01*
X908255Y4326D01*
X908230Y4256D01*
X908209Y4184D01*
X908191Y4111D01*
X908178Y4037D01*
X908168Y3963D01*
X908162Y3888D01*
X908160Y3813D01*
X908162Y3738D01*
X908168Y3663D01*
X908178Y3589D01*
X908191Y3515D01*
X908209Y3442D01*
X908230Y3370D01*
X908255Y3300D01*
X908284Y3231D01*
X908316Y3163D01*
X908352Y3097D01*
X908391Y3033D01*
X908433Y2971D01*
X908479Y2912D01*
X908528Y2855D01*
X908579Y2800D01*
X908634Y2749D01*
X908691Y2700D01*
X908750Y2654D01*
X908812Y2612D01*
X908876Y2573D01*
X908942Y2537D01*
X909010Y2505D01*
X909079Y2476D01*
X909149Y2451D01*
X909221Y2430D01*
X909294Y2412D01*
X909368Y2399D01*
X909442Y2389D01*
X909517Y2383D01*
X909592Y2381D01*
X911433Y2381D01*
X911433Y6064D01*
X911434Y6064D02*
X911432Y6133D01*
X911426Y6201D01*
X911417Y6270D01*
X911403Y6337D01*
X911386Y6404D01*
X911365Y6470D01*
X911341Y6534D01*
X911312Y6597D01*
X911281Y6658D01*
X911246Y6717D01*
X911208Y6775D01*
X911166Y6830D01*
X911122Y6882D01*
X911074Y6932D01*
X911024Y6980D01*
X910972Y7024D01*
X910917Y7066D01*
X910859Y7104D01*
X910800Y7139D01*
X910739Y7170D01*
X910676Y7199D01*
X910612Y7223D01*
X910546Y7244D01*
X910479Y7261D01*
X910412Y7275D01*
X910343Y7284D01*
X910275Y7290D01*
X910206Y7292D01*
X908569Y7292D01*
X915069Y7292D02*
X915069Y-74D01*
X915069Y7292D02*
X917115Y7292D01*
X917184Y7290D01*
X917252Y7284D01*
X917321Y7275D01*
X917388Y7261D01*
X917455Y7244D01*
X917521Y7223D01*
X917585Y7199D01*
X917648Y7170D01*
X917709Y7139D01*
X917768Y7104D01*
X917826Y7066D01*
X917881Y7024D01*
X917933Y6980D01*
X917983Y6932D01*
X918031Y6882D01*
X918075Y6830D01*
X918117Y6775D01*
X918155Y6717D01*
X918190Y6658D01*
X918221Y6597D01*
X918250Y6534D01*
X918274Y6470D01*
X918295Y6404D01*
X918312Y6337D01*
X918326Y6270D01*
X918335Y6201D01*
X918341Y6133D01*
X918343Y6064D01*
X918343Y3609D01*
X918341Y3540D01*
X918335Y3472D01*
X918326Y3403D01*
X918312Y3336D01*
X918295Y3269D01*
X918274Y3203D01*
X918250Y3139D01*
X918221Y3076D01*
X918190Y3015D01*
X918155Y2956D01*
X918117Y2898D01*
X918075Y2843D01*
X918031Y2791D01*
X917983Y2741D01*
X917933Y2693D01*
X917881Y2649D01*
X917826Y2608D01*
X917768Y2569D01*
X917709Y2534D01*
X917648Y2503D01*
X917585Y2474D01*
X917521Y2450D01*
X917455Y2429D01*
X917388Y2412D01*
X917321Y2398D01*
X917253Y2389D01*
X917184Y2383D01*
X917115Y2381D01*
X915069Y2381D01*
X920738Y7292D02*
X923193Y7292D01*
X921556Y9747D02*
X921556Y3609D01*
X921558Y3540D01*
X921564Y3472D01*
X921573Y3403D01*
X921587Y3336D01*
X921604Y3269D01*
X921625Y3203D01*
X921649Y3139D01*
X921678Y3076D01*
X921709Y3015D01*
X921744Y2956D01*
X921782Y2898D01*
X921824Y2843D01*
X921868Y2791D01*
X921916Y2741D01*
X921966Y2693D01*
X922018Y2649D01*
X922073Y2607D01*
X922131Y2569D01*
X922190Y2534D01*
X922251Y2503D01*
X922314Y2474D01*
X922378Y2450D01*
X922444Y2429D01*
X922511Y2412D01*
X922578Y2398D01*
X922647Y2389D01*
X922715Y2383D01*
X922784Y2381D01*
X923193Y2381D01*
X927228Y2381D02*
X929275Y2381D01*
X927228Y2381D02*
X927159Y2383D01*
X927091Y2389D01*
X927022Y2398D01*
X926955Y2412D01*
X926888Y2429D01*
X926822Y2450D01*
X926758Y2474D01*
X926695Y2503D01*
X926634Y2534D01*
X926575Y2569D01*
X926517Y2607D01*
X926462Y2649D01*
X926410Y2693D01*
X926360Y2741D01*
X926312Y2791D01*
X926268Y2843D01*
X926226Y2898D01*
X926188Y2956D01*
X926153Y3015D01*
X926122Y3076D01*
X926093Y3139D01*
X926069Y3203D01*
X926048Y3269D01*
X926031Y3336D01*
X926017Y3403D01*
X926008Y3472D01*
X926002Y3540D01*
X926000Y3609D01*
X926001Y3609D02*
X926001Y5655D01*
X926003Y5734D01*
X926009Y5813D01*
X926018Y5892D01*
X926031Y5970D01*
X926049Y6047D01*
X926069Y6123D01*
X926094Y6198D01*
X926122Y6272D01*
X926153Y6345D01*
X926189Y6416D01*
X926227Y6485D01*
X926269Y6552D01*
X926314Y6617D01*
X926362Y6680D01*
X926413Y6741D01*
X926467Y6798D01*
X926523Y6854D01*
X926582Y6906D01*
X926644Y6956D01*
X926708Y7002D01*
X926774Y7046D01*
X926842Y7086D01*
X926912Y7122D01*
X926984Y7156D01*
X927058Y7186D01*
X927132Y7212D01*
X927208Y7235D01*
X927285Y7253D01*
X927362Y7269D01*
X927441Y7280D01*
X927519Y7288D01*
X927598Y7292D01*
X927678Y7292D01*
X927757Y7288D01*
X927835Y7280D01*
X927914Y7269D01*
X927991Y7253D01*
X928068Y7235D01*
X928144Y7212D01*
X928218Y7186D01*
X928292Y7156D01*
X928364Y7122D01*
X928434Y7086D01*
X928502Y7046D01*
X928568Y7002D01*
X928632Y6956D01*
X928694Y6906D01*
X928753Y6854D01*
X928809Y6798D01*
X928863Y6741D01*
X928914Y6680D01*
X928962Y6617D01*
X929007Y6552D01*
X929049Y6485D01*
X929087Y6416D01*
X929123Y6345D01*
X929154Y6272D01*
X929182Y6198D01*
X929207Y6123D01*
X929227Y6047D01*
X929245Y5970D01*
X929258Y5892D01*
X929267Y5813D01*
X929273Y5734D01*
X929275Y5655D01*
X929275Y4836D01*
X926001Y4836D01*
X932631Y2381D02*
X932631Y7292D01*
X935086Y7292D01*
X935086Y6473D01*
X937618Y5246D02*
X942529Y5246D01*
X948985Y2381D02*
X948985Y9747D01*
X948985Y2381D02*
X946938Y2381D01*
X946869Y2383D01*
X946801Y2389D01*
X946732Y2398D01*
X946665Y2412D01*
X946598Y2429D01*
X946532Y2450D01*
X946468Y2474D01*
X946405Y2503D01*
X946344Y2534D01*
X946285Y2569D01*
X946227Y2607D01*
X946172Y2649D01*
X946120Y2693D01*
X946070Y2741D01*
X946022Y2791D01*
X945978Y2843D01*
X945936Y2898D01*
X945898Y2956D01*
X945863Y3015D01*
X945832Y3076D01*
X945803Y3139D01*
X945779Y3203D01*
X945758Y3269D01*
X945741Y3336D01*
X945727Y3403D01*
X945718Y3472D01*
X945712Y3540D01*
X945710Y3609D01*
X945711Y3609D02*
X945711Y6064D01*
X945710Y6064D02*
X945712Y6133D01*
X945718Y6201D01*
X945727Y6270D01*
X945741Y6337D01*
X945758Y6404D01*
X945779Y6470D01*
X945803Y6534D01*
X945832Y6597D01*
X945863Y6658D01*
X945898Y6717D01*
X945936Y6775D01*
X945978Y6830D01*
X946022Y6882D01*
X946070Y6932D01*
X946120Y6980D01*
X946172Y7024D01*
X946227Y7066D01*
X946285Y7104D01*
X946344Y7139D01*
X946405Y7170D01*
X946468Y7199D01*
X946532Y7223D01*
X946598Y7244D01*
X946665Y7261D01*
X946732Y7275D01*
X946801Y7284D01*
X946869Y7290D01*
X946938Y7292D01*
X948985Y7292D01*
X953563Y2381D02*
X955609Y2381D01*
X953563Y2381D02*
X953494Y2383D01*
X953426Y2389D01*
X953357Y2398D01*
X953290Y2412D01*
X953223Y2429D01*
X953157Y2450D01*
X953093Y2474D01*
X953030Y2503D01*
X952969Y2534D01*
X952910Y2569D01*
X952852Y2607D01*
X952797Y2649D01*
X952745Y2693D01*
X952695Y2741D01*
X952647Y2791D01*
X952603Y2843D01*
X952561Y2898D01*
X952523Y2956D01*
X952488Y3015D01*
X952457Y3076D01*
X952428Y3139D01*
X952404Y3203D01*
X952383Y3269D01*
X952366Y3336D01*
X952352Y3403D01*
X952343Y3472D01*
X952337Y3540D01*
X952335Y3609D01*
X952335Y5655D01*
X952337Y5734D01*
X952343Y5813D01*
X952352Y5892D01*
X952365Y5970D01*
X952383Y6047D01*
X952403Y6123D01*
X952428Y6198D01*
X952456Y6272D01*
X952487Y6345D01*
X952523Y6416D01*
X952561Y6485D01*
X952603Y6552D01*
X952648Y6617D01*
X952696Y6680D01*
X952747Y6741D01*
X952801Y6798D01*
X952857Y6854D01*
X952916Y6906D01*
X952978Y6956D01*
X953042Y7002D01*
X953108Y7046D01*
X953176Y7086D01*
X953246Y7122D01*
X953318Y7156D01*
X953392Y7186D01*
X953466Y7212D01*
X953542Y7235D01*
X953619Y7253D01*
X953696Y7269D01*
X953775Y7280D01*
X953853Y7288D01*
X953932Y7292D01*
X954012Y7292D01*
X954091Y7288D01*
X954169Y7280D01*
X954248Y7269D01*
X954325Y7253D01*
X954402Y7235D01*
X954478Y7212D01*
X954552Y7186D01*
X954626Y7156D01*
X954698Y7122D01*
X954768Y7086D01*
X954836Y7046D01*
X954902Y7002D01*
X954966Y6956D01*
X955028Y6906D01*
X955087Y6854D01*
X955143Y6798D01*
X955197Y6741D01*
X955248Y6680D01*
X955296Y6617D01*
X955341Y6552D01*
X955383Y6485D01*
X955421Y6416D01*
X955457Y6345D01*
X955488Y6272D01*
X955516Y6198D01*
X955541Y6123D01*
X955561Y6047D01*
X955579Y5970D01*
X955592Y5892D01*
X955601Y5813D01*
X955607Y5734D01*
X955609Y5655D01*
X955609Y4836D01*
X952335Y4836D01*
X959912Y2381D02*
X961549Y2381D01*
X959912Y2381D02*
X959843Y2383D01*
X959775Y2389D01*
X959706Y2398D01*
X959639Y2412D01*
X959572Y2429D01*
X959506Y2450D01*
X959442Y2474D01*
X959379Y2503D01*
X959318Y2534D01*
X959259Y2569D01*
X959201Y2607D01*
X959146Y2649D01*
X959094Y2693D01*
X959044Y2741D01*
X958996Y2791D01*
X958952Y2843D01*
X958910Y2898D01*
X958872Y2956D01*
X958837Y3015D01*
X958806Y3076D01*
X958777Y3139D01*
X958753Y3203D01*
X958732Y3269D01*
X958715Y3336D01*
X958701Y3403D01*
X958692Y3472D01*
X958686Y3540D01*
X958684Y3609D01*
X958684Y6064D01*
X958686Y6133D01*
X958692Y6201D01*
X958701Y6270D01*
X958715Y6337D01*
X958732Y6404D01*
X958753Y6470D01*
X958777Y6534D01*
X958806Y6597D01*
X958837Y6658D01*
X958872Y6717D01*
X958910Y6775D01*
X958952Y6830D01*
X958996Y6882D01*
X959044Y6932D01*
X959094Y6980D01*
X959146Y7024D01*
X959201Y7066D01*
X959259Y7104D01*
X959318Y7139D01*
X959379Y7170D01*
X959442Y7199D01*
X959506Y7223D01*
X959572Y7244D01*
X959639Y7261D01*
X959706Y7275D01*
X959775Y7284D01*
X959843Y7290D01*
X959912Y7292D01*
X961549Y7292D01*
X964283Y5655D02*
X964283Y4018D01*
X964283Y5655D02*
X964285Y5734D01*
X964291Y5813D01*
X964300Y5892D01*
X964313Y5970D01*
X964331Y6047D01*
X964351Y6123D01*
X964376Y6198D01*
X964404Y6272D01*
X964435Y6345D01*
X964471Y6416D01*
X964509Y6485D01*
X964551Y6552D01*
X964596Y6617D01*
X964644Y6680D01*
X964695Y6741D01*
X964749Y6798D01*
X964805Y6854D01*
X964864Y6906D01*
X964926Y6956D01*
X964990Y7002D01*
X965056Y7046D01*
X965124Y7086D01*
X965194Y7122D01*
X965266Y7156D01*
X965340Y7186D01*
X965414Y7212D01*
X965490Y7235D01*
X965567Y7253D01*
X965644Y7269D01*
X965723Y7280D01*
X965801Y7288D01*
X965880Y7292D01*
X965960Y7292D01*
X966039Y7288D01*
X966117Y7280D01*
X966196Y7269D01*
X966273Y7253D01*
X966350Y7235D01*
X966426Y7212D01*
X966500Y7186D01*
X966574Y7156D01*
X966646Y7122D01*
X966716Y7086D01*
X966784Y7046D01*
X966850Y7002D01*
X966914Y6956D01*
X966976Y6906D01*
X967035Y6854D01*
X967091Y6798D01*
X967145Y6741D01*
X967196Y6680D01*
X967244Y6617D01*
X967289Y6552D01*
X967331Y6485D01*
X967369Y6416D01*
X967405Y6345D01*
X967436Y6272D01*
X967464Y6198D01*
X967489Y6123D01*
X967509Y6047D01*
X967527Y5970D01*
X967540Y5892D01*
X967549Y5813D01*
X967555Y5734D01*
X967557Y5655D01*
X967557Y4018D01*
X967555Y3939D01*
X967549Y3860D01*
X967540Y3781D01*
X967527Y3703D01*
X967509Y3626D01*
X967489Y3550D01*
X967464Y3475D01*
X967436Y3401D01*
X967405Y3328D01*
X967369Y3257D01*
X967331Y3188D01*
X967289Y3121D01*
X967244Y3056D01*
X967196Y2993D01*
X967145Y2932D01*
X967091Y2875D01*
X967035Y2819D01*
X966976Y2767D01*
X966914Y2717D01*
X966850Y2671D01*
X966784Y2627D01*
X966716Y2587D01*
X966646Y2551D01*
X966574Y2517D01*
X966500Y2487D01*
X966426Y2461D01*
X966350Y2438D01*
X966273Y2420D01*
X966196Y2404D01*
X966117Y2393D01*
X966039Y2385D01*
X965960Y2381D01*
X965880Y2381D01*
X965801Y2385D01*
X965723Y2393D01*
X965644Y2404D01*
X965567Y2420D01*
X965490Y2438D01*
X965414Y2461D01*
X965340Y2487D01*
X965266Y2517D01*
X965194Y2551D01*
X965124Y2587D01*
X965056Y2627D01*
X964990Y2671D01*
X964926Y2717D01*
X964864Y2767D01*
X964805Y2819D01*
X964749Y2875D01*
X964695Y2932D01*
X964644Y2993D01*
X964596Y3056D01*
X964551Y3121D01*
X964509Y3188D01*
X964471Y3257D01*
X964435Y3328D01*
X964404Y3401D01*
X964376Y3475D01*
X964351Y3550D01*
X964331Y3626D01*
X964313Y3703D01*
X964300Y3781D01*
X964291Y3860D01*
X964285Y3939D01*
X964283Y4018D01*
X973856Y2381D02*
X973856Y9747D01*
X973856Y2381D02*
X971810Y2381D01*
X971741Y2383D01*
X971673Y2389D01*
X971604Y2398D01*
X971537Y2412D01*
X971470Y2429D01*
X971404Y2450D01*
X971340Y2474D01*
X971277Y2503D01*
X971216Y2534D01*
X971157Y2569D01*
X971099Y2607D01*
X971044Y2649D01*
X970992Y2693D01*
X970942Y2741D01*
X970894Y2791D01*
X970850Y2843D01*
X970808Y2898D01*
X970770Y2956D01*
X970735Y3015D01*
X970704Y3076D01*
X970675Y3139D01*
X970651Y3203D01*
X970630Y3269D01*
X970613Y3336D01*
X970599Y3403D01*
X970590Y3472D01*
X970584Y3540D01*
X970582Y3609D01*
X970582Y6064D01*
X970584Y6133D01*
X970590Y6201D01*
X970599Y6270D01*
X970613Y6337D01*
X970630Y6404D01*
X970651Y6470D01*
X970675Y6534D01*
X970704Y6597D01*
X970735Y6658D01*
X970770Y6717D01*
X970808Y6775D01*
X970850Y6830D01*
X970894Y6882D01*
X970942Y6932D01*
X970992Y6980D01*
X971044Y7024D01*
X971099Y7066D01*
X971157Y7104D01*
X971216Y7139D01*
X971277Y7170D01*
X971340Y7199D01*
X971404Y7223D01*
X971470Y7244D01*
X971537Y7261D01*
X971604Y7275D01*
X971673Y7284D01*
X971741Y7290D01*
X971810Y7292D01*
X973856Y7292D01*
X978435Y2381D02*
X980481Y2381D01*
X978435Y2381D02*
X978366Y2383D01*
X978298Y2389D01*
X978229Y2398D01*
X978162Y2412D01*
X978095Y2429D01*
X978029Y2450D01*
X977965Y2474D01*
X977902Y2503D01*
X977841Y2534D01*
X977782Y2569D01*
X977724Y2607D01*
X977669Y2649D01*
X977617Y2693D01*
X977567Y2741D01*
X977519Y2791D01*
X977475Y2843D01*
X977433Y2898D01*
X977395Y2956D01*
X977360Y3015D01*
X977329Y3076D01*
X977300Y3139D01*
X977276Y3203D01*
X977255Y3269D01*
X977238Y3336D01*
X977224Y3403D01*
X977215Y3472D01*
X977209Y3540D01*
X977207Y3609D01*
X977207Y5655D01*
X977209Y5734D01*
X977215Y5813D01*
X977224Y5892D01*
X977237Y5970D01*
X977255Y6047D01*
X977275Y6123D01*
X977300Y6198D01*
X977328Y6272D01*
X977359Y6345D01*
X977395Y6416D01*
X977433Y6485D01*
X977475Y6552D01*
X977520Y6617D01*
X977568Y6680D01*
X977619Y6741D01*
X977673Y6798D01*
X977729Y6854D01*
X977788Y6906D01*
X977850Y6956D01*
X977914Y7002D01*
X977980Y7046D01*
X978048Y7086D01*
X978118Y7122D01*
X978190Y7156D01*
X978264Y7186D01*
X978338Y7212D01*
X978414Y7235D01*
X978491Y7253D01*
X978568Y7269D01*
X978647Y7280D01*
X978725Y7288D01*
X978804Y7292D01*
X978884Y7292D01*
X978963Y7288D01*
X979041Y7280D01*
X979120Y7269D01*
X979197Y7253D01*
X979274Y7235D01*
X979350Y7212D01*
X979424Y7186D01*
X979498Y7156D01*
X979570Y7122D01*
X979640Y7086D01*
X979708Y7046D01*
X979774Y7002D01*
X979838Y6956D01*
X979900Y6906D01*
X979959Y6854D01*
X980015Y6798D01*
X980069Y6741D01*
X980120Y6680D01*
X980168Y6617D01*
X980213Y6552D01*
X980255Y6485D01*
X980293Y6416D01*
X980329Y6345D01*
X980360Y6272D01*
X980388Y6198D01*
X980413Y6123D01*
X980433Y6047D01*
X980451Y5970D01*
X980464Y5892D01*
X980473Y5813D01*
X980479Y5734D01*
X980481Y5655D01*
X980481Y4836D01*
X977207Y4836D01*
X983837Y2381D02*
X983837Y7292D01*
X986292Y7292D01*
X986292Y6473D01*
D11*
X268100Y28400D02*
X268100Y75400D01*
X268100Y28400D02*
X228100Y28400D01*
X228100Y75400D01*
X268100Y75400D01*
D12*
X257800Y70950D02*
X257800Y64600D01*
X260800Y39200D02*
X254450Y39200D01*
X257550Y42350D02*
X257550Y36000D01*
X235350Y67900D02*
X235416Y67958D01*
X235479Y68019D01*
X235539Y68082D01*
X235597Y68148D01*
X235651Y68217D01*
X235703Y68288D01*
X235751Y68361D01*
X235796Y68436D01*
X235837Y68513D01*
X235875Y68592D01*
X235909Y68673D01*
X235940Y68755D01*
X235967Y68838D01*
X235990Y68923D01*
X236009Y69008D01*
X236025Y69095D01*
X236037Y69181D01*
X236045Y69269D01*
X236049Y69356D01*
X236049Y69444D01*
X236045Y69531D01*
X236037Y69619D01*
X236025Y69705D01*
X236009Y69792D01*
X235990Y69877D01*
X235967Y69962D01*
X235940Y70045D01*
X235909Y70127D01*
X235875Y70208D01*
X235837Y70287D01*
X235796Y70364D01*
X235751Y70439D01*
X235703Y70512D01*
X235651Y70583D01*
X235597Y70652D01*
X235539Y70718D01*
X235479Y70781D01*
X235416Y70842D01*
X235350Y70900D01*
X235350Y67900D02*
X235284Y67842D01*
X235221Y67781D01*
X235161Y67718D01*
X235103Y67652D01*
X235049Y67583D01*
X234997Y67512D01*
X234949Y67439D01*
X234904Y67364D01*
X234863Y67287D01*
X234825Y67208D01*
X234791Y67127D01*
X234760Y67045D01*
X234733Y66962D01*
X234710Y66877D01*
X234691Y66792D01*
X234675Y66705D01*
X234663Y66619D01*
X234655Y66531D01*
X234651Y66444D01*
X234651Y66356D01*
X234655Y66269D01*
X234663Y66181D01*
X234675Y66095D01*
X234691Y66008D01*
X234710Y65923D01*
X234733Y65838D01*
X234760Y65755D01*
X234791Y65673D01*
X234825Y65592D01*
X234863Y65513D01*
X234904Y65436D01*
X234949Y65361D01*
X234997Y65288D01*
X235049Y65217D01*
X235103Y65148D01*
X235161Y65082D01*
X235221Y65019D01*
X235284Y64958D01*
X235350Y64900D01*
X235350Y39150D02*
X235416Y39092D01*
X235479Y39031D01*
X235539Y38968D01*
X235597Y38902D01*
X235651Y38833D01*
X235703Y38762D01*
X235751Y38689D01*
X235796Y38614D01*
X235837Y38537D01*
X235875Y38458D01*
X235909Y38377D01*
X235940Y38295D01*
X235967Y38212D01*
X235990Y38127D01*
X236009Y38042D01*
X236025Y37955D01*
X236037Y37869D01*
X236045Y37781D01*
X236049Y37694D01*
X236049Y37606D01*
X236045Y37519D01*
X236037Y37431D01*
X236025Y37345D01*
X236009Y37258D01*
X235990Y37173D01*
X235967Y37088D01*
X235940Y37005D01*
X235909Y36923D01*
X235875Y36842D01*
X235837Y36763D01*
X235796Y36686D01*
X235751Y36611D01*
X235703Y36538D01*
X235651Y36467D01*
X235597Y36398D01*
X235539Y36332D01*
X235479Y36269D01*
X235416Y36208D01*
X235350Y36150D01*
X235284Y36092D01*
X235221Y36031D01*
X235161Y35968D01*
X235103Y35902D01*
X235049Y35833D01*
X234997Y35762D01*
X234949Y35689D01*
X234904Y35614D01*
X234863Y35537D01*
X234825Y35458D01*
X234791Y35377D01*
X234760Y35295D01*
X234733Y35212D01*
X234710Y35127D01*
X234691Y35042D01*
X234675Y34955D01*
X234663Y34869D01*
X234655Y34781D01*
X234651Y34694D01*
X234651Y34606D01*
X234655Y34519D01*
X234663Y34431D01*
X234675Y34345D01*
X234691Y34258D01*
X234710Y34173D01*
X234733Y34088D01*
X234760Y34005D01*
X234791Y33923D01*
X234825Y33842D01*
X234863Y33763D01*
X234904Y33686D01*
X234949Y33611D01*
X234997Y33538D01*
X235049Y33467D01*
X235103Y33398D01*
X235161Y33332D01*
X235221Y33269D01*
X235284Y33208D01*
X235350Y33150D01*
D13*
X264600Y51900D03*
D10*
X406445Y5253D02*
X408081Y5253D01*
X406445Y5253D02*
X406367Y5255D01*
X406289Y5260D01*
X406212Y5270D01*
X406135Y5283D01*
X406059Y5299D01*
X405984Y5319D01*
X405910Y5343D01*
X405837Y5370D01*
X405765Y5401D01*
X405695Y5435D01*
X405627Y5472D01*
X405560Y5513D01*
X405495Y5557D01*
X405433Y5603D01*
X405373Y5653D01*
X405315Y5705D01*
X405260Y5760D01*
X405208Y5818D01*
X405158Y5878D01*
X405112Y5940D01*
X405068Y6005D01*
X405027Y6072D01*
X404990Y6140D01*
X404956Y6210D01*
X404925Y6282D01*
X404898Y6355D01*
X404874Y6429D01*
X404854Y6504D01*
X404838Y6580D01*
X404825Y6657D01*
X404815Y6734D01*
X404810Y6812D01*
X404808Y6890D01*
X404808Y10982D01*
X404810Y11062D01*
X404816Y11142D01*
X404826Y11222D01*
X404839Y11301D01*
X404857Y11380D01*
X404878Y11457D01*
X404904Y11533D01*
X404933Y11608D01*
X404965Y11682D01*
X405001Y11754D01*
X405041Y11824D01*
X405084Y11891D01*
X405130Y11957D01*
X405180Y12020D01*
X405232Y12081D01*
X405287Y12140D01*
X405346Y12195D01*
X405406Y12247D01*
X405470Y12297D01*
X405536Y12343D01*
X405603Y12386D01*
X405673Y12426D01*
X405745Y12462D01*
X405819Y12494D01*
X405893Y12523D01*
X405970Y12549D01*
X406047Y12570D01*
X406126Y12588D01*
X406205Y12601D01*
X406285Y12611D01*
X406365Y12617D01*
X406445Y12619D01*
X408081Y12619D01*
X410927Y10982D02*
X412973Y12619D01*
X412973Y5253D01*
X410927Y5253D02*
X415019Y5253D01*
X636847Y56645D02*
X636847Y58281D01*
X636847Y56645D02*
X636845Y56567D01*
X636840Y56489D01*
X636830Y56412D01*
X636817Y56335D01*
X636801Y56259D01*
X636781Y56184D01*
X636757Y56110D01*
X636730Y56037D01*
X636699Y55965D01*
X636665Y55895D01*
X636628Y55827D01*
X636587Y55760D01*
X636543Y55695D01*
X636497Y55633D01*
X636447Y55573D01*
X636395Y55515D01*
X636340Y55460D01*
X636282Y55408D01*
X636222Y55358D01*
X636160Y55312D01*
X636095Y55268D01*
X636029Y55227D01*
X635960Y55190D01*
X635890Y55156D01*
X635818Y55125D01*
X635745Y55098D01*
X635671Y55074D01*
X635596Y55054D01*
X635520Y55038D01*
X635443Y55025D01*
X635366Y55015D01*
X635288Y55010D01*
X635210Y55008D01*
X631118Y55008D01*
X631038Y55010D01*
X630958Y55016D01*
X630878Y55026D01*
X630799Y55039D01*
X630720Y55057D01*
X630643Y55078D01*
X630567Y55104D01*
X630492Y55133D01*
X630418Y55165D01*
X630346Y55201D01*
X630276Y55241D01*
X630209Y55284D01*
X630143Y55330D01*
X630080Y55380D01*
X630019Y55432D01*
X629960Y55487D01*
X629905Y55546D01*
X629853Y55606D01*
X629803Y55670D01*
X629757Y55735D01*
X629714Y55803D01*
X629674Y55873D01*
X629638Y55945D01*
X629606Y56019D01*
X629577Y56093D01*
X629552Y56170D01*
X629530Y56247D01*
X629512Y56326D01*
X629499Y56405D01*
X629489Y56484D01*
X629483Y56565D01*
X629481Y56645D01*
X629481Y58281D01*
X636847Y61127D02*
X636847Y63173D01*
X636845Y63262D01*
X636839Y63351D01*
X636829Y63440D01*
X636816Y63528D01*
X636799Y63616D01*
X636777Y63703D01*
X636752Y63788D01*
X636724Y63873D01*
X636691Y63956D01*
X636655Y64038D01*
X636616Y64118D01*
X636573Y64196D01*
X636527Y64272D01*
X636477Y64347D01*
X636424Y64419D01*
X636368Y64488D01*
X636309Y64555D01*
X636248Y64620D01*
X636183Y64681D01*
X636116Y64740D01*
X636047Y64796D01*
X635975Y64849D01*
X635900Y64899D01*
X635824Y64945D01*
X635746Y64988D01*
X635666Y65027D01*
X635584Y65063D01*
X635501Y65096D01*
X635416Y65124D01*
X635331Y65149D01*
X635244Y65171D01*
X635156Y65188D01*
X635068Y65201D01*
X634979Y65211D01*
X634890Y65217D01*
X634801Y65219D01*
X634712Y65217D01*
X634623Y65211D01*
X634534Y65201D01*
X634446Y65188D01*
X634358Y65171D01*
X634271Y65149D01*
X634186Y65124D01*
X634101Y65096D01*
X634018Y65063D01*
X633936Y65027D01*
X633856Y64988D01*
X633778Y64945D01*
X633702Y64899D01*
X633627Y64849D01*
X633555Y64796D01*
X633486Y64740D01*
X633419Y64681D01*
X633354Y64620D01*
X633293Y64555D01*
X633234Y64488D01*
X633178Y64419D01*
X633125Y64347D01*
X633075Y64272D01*
X633029Y64196D01*
X632986Y64118D01*
X632947Y64038D01*
X632911Y63956D01*
X632878Y63873D01*
X632850Y63788D01*
X632825Y63703D01*
X632803Y63616D01*
X632786Y63528D01*
X632773Y63440D01*
X632763Y63351D01*
X632757Y63262D01*
X632755Y63173D01*
X629481Y63582D02*
X629481Y61127D01*
X629481Y63582D02*
X629483Y63661D01*
X629489Y63740D01*
X629498Y63819D01*
X629511Y63897D01*
X629529Y63974D01*
X629549Y64050D01*
X629574Y64125D01*
X629602Y64199D01*
X629633Y64272D01*
X629669Y64343D01*
X629707Y64412D01*
X629749Y64479D01*
X629794Y64544D01*
X629842Y64607D01*
X629893Y64668D01*
X629947Y64725D01*
X630003Y64781D01*
X630062Y64833D01*
X630124Y64883D01*
X630188Y64929D01*
X630254Y64973D01*
X630322Y65013D01*
X630392Y65049D01*
X630464Y65083D01*
X630538Y65113D01*
X630612Y65139D01*
X630688Y65162D01*
X630765Y65180D01*
X630842Y65196D01*
X630921Y65207D01*
X630999Y65215D01*
X631078Y65219D01*
X631158Y65219D01*
X631237Y65215D01*
X631315Y65207D01*
X631394Y65196D01*
X631471Y65180D01*
X631548Y65162D01*
X631624Y65139D01*
X631698Y65113D01*
X631772Y65083D01*
X631844Y65049D01*
X631914Y65013D01*
X631982Y64973D01*
X632048Y64929D01*
X632112Y64883D01*
X632174Y64833D01*
X632233Y64781D01*
X632289Y64725D01*
X632343Y64668D01*
X632394Y64607D01*
X632442Y64544D01*
X632487Y64479D01*
X632529Y64412D01*
X632567Y64343D01*
X632603Y64272D01*
X632634Y64199D01*
X632662Y64125D01*
X632687Y64050D01*
X632707Y63974D01*
X632725Y63897D01*
X632738Y63819D01*
X632747Y63740D01*
X632753Y63661D01*
X632755Y63582D01*
X632755Y61945D01*
D14*
X472350Y51010D02*
X472350Y75650D01*
X517050Y75650D02*
X517050Y51010D01*
D10*
X132298Y71103D02*
X132298Y78469D01*
X134344Y78469D01*
X134433Y78467D01*
X134522Y78461D01*
X134611Y78451D01*
X134699Y78438D01*
X134787Y78421D01*
X134874Y78399D01*
X134959Y78374D01*
X135044Y78346D01*
X135127Y78313D01*
X135209Y78277D01*
X135289Y78238D01*
X135367Y78195D01*
X135443Y78149D01*
X135518Y78099D01*
X135590Y78046D01*
X135659Y77990D01*
X135726Y77931D01*
X135791Y77870D01*
X135852Y77805D01*
X135911Y77738D01*
X135967Y77669D01*
X136020Y77597D01*
X136070Y77522D01*
X136116Y77446D01*
X136159Y77368D01*
X136198Y77288D01*
X136234Y77206D01*
X136267Y77123D01*
X136295Y77038D01*
X136320Y76953D01*
X136342Y76866D01*
X136359Y76778D01*
X136372Y76690D01*
X136382Y76601D01*
X136388Y76512D01*
X136390Y76423D01*
X136388Y76334D01*
X136382Y76245D01*
X136372Y76156D01*
X136359Y76068D01*
X136342Y75980D01*
X136320Y75893D01*
X136295Y75808D01*
X136267Y75723D01*
X136234Y75640D01*
X136198Y75558D01*
X136159Y75478D01*
X136116Y75400D01*
X136070Y75324D01*
X136020Y75249D01*
X135967Y75177D01*
X135911Y75108D01*
X135852Y75041D01*
X135791Y74976D01*
X135726Y74915D01*
X135659Y74856D01*
X135590Y74800D01*
X135518Y74747D01*
X135443Y74697D01*
X135367Y74651D01*
X135289Y74608D01*
X135209Y74569D01*
X135127Y74533D01*
X135044Y74500D01*
X134959Y74472D01*
X134874Y74447D01*
X134787Y74425D01*
X134699Y74408D01*
X134611Y74395D01*
X134522Y74385D01*
X134433Y74379D01*
X134344Y74377D01*
X132298Y74377D01*
X134753Y74377D02*
X136390Y71103D01*
X139562Y76832D02*
X141608Y78469D01*
X141608Y71103D01*
X139562Y71103D02*
X143654Y71103D01*
X146877Y76832D02*
X148923Y78469D01*
X148923Y71103D01*
X146877Y71103D02*
X150969Y71103D01*
X16731Y94031D02*
X16731Y101397D01*
X18777Y101397D01*
X18866Y101395D01*
X18955Y101389D01*
X19044Y101379D01*
X19132Y101366D01*
X19220Y101349D01*
X19307Y101327D01*
X19392Y101302D01*
X19477Y101274D01*
X19560Y101241D01*
X19642Y101205D01*
X19722Y101166D01*
X19800Y101123D01*
X19876Y101077D01*
X19951Y101027D01*
X20023Y100974D01*
X20092Y100918D01*
X20159Y100859D01*
X20224Y100798D01*
X20285Y100733D01*
X20344Y100666D01*
X20400Y100597D01*
X20453Y100525D01*
X20503Y100450D01*
X20549Y100374D01*
X20592Y100296D01*
X20631Y100216D01*
X20667Y100134D01*
X20700Y100051D01*
X20728Y99966D01*
X20753Y99881D01*
X20775Y99794D01*
X20792Y99706D01*
X20805Y99618D01*
X20815Y99529D01*
X20821Y99440D01*
X20823Y99351D01*
X20821Y99262D01*
X20815Y99173D01*
X20805Y99084D01*
X20792Y98996D01*
X20775Y98908D01*
X20753Y98821D01*
X20728Y98736D01*
X20700Y98651D01*
X20667Y98568D01*
X20631Y98486D01*
X20592Y98406D01*
X20549Y98328D01*
X20503Y98252D01*
X20453Y98177D01*
X20400Y98105D01*
X20344Y98036D01*
X20285Y97969D01*
X20224Y97904D01*
X20159Y97843D01*
X20092Y97784D01*
X20023Y97728D01*
X19951Y97675D01*
X19876Y97625D01*
X19800Y97579D01*
X19722Y97536D01*
X19642Y97497D01*
X19560Y97461D01*
X19477Y97428D01*
X19392Y97400D01*
X19307Y97375D01*
X19220Y97353D01*
X19132Y97336D01*
X19044Y97323D01*
X18955Y97313D01*
X18866Y97307D01*
X18777Y97305D01*
X16731Y97305D01*
X19186Y97305D02*
X20823Y94031D01*
X28088Y99556D02*
X28086Y99641D01*
X28080Y99726D01*
X28070Y99810D01*
X28057Y99894D01*
X28039Y99978D01*
X28018Y100060D01*
X27993Y100141D01*
X27964Y100221D01*
X27931Y100300D01*
X27895Y100377D01*
X27855Y100452D01*
X27812Y100526D01*
X27766Y100597D01*
X27716Y100666D01*
X27663Y100733D01*
X27607Y100797D01*
X27548Y100858D01*
X27487Y100917D01*
X27423Y100973D01*
X27356Y101026D01*
X27287Y101076D01*
X27216Y101122D01*
X27142Y101165D01*
X27067Y101205D01*
X26990Y101241D01*
X26911Y101274D01*
X26831Y101303D01*
X26750Y101328D01*
X26668Y101349D01*
X26584Y101367D01*
X26500Y101380D01*
X26416Y101390D01*
X26331Y101396D01*
X26246Y101398D01*
X26246Y101397D02*
X26150Y101395D01*
X26054Y101389D01*
X25959Y101379D01*
X25864Y101366D01*
X25769Y101348D01*
X25676Y101327D01*
X25583Y101302D01*
X25492Y101273D01*
X25401Y101241D01*
X25312Y101205D01*
X25225Y101165D01*
X25139Y101122D01*
X25055Y101076D01*
X24973Y101026D01*
X24893Y100972D01*
X24816Y100916D01*
X24741Y100856D01*
X24668Y100794D01*
X24598Y100728D01*
X24530Y100660D01*
X24465Y100589D01*
X24404Y100516D01*
X24345Y100440D01*
X24289Y100361D01*
X24237Y100281D01*
X24188Y100198D01*
X24142Y100114D01*
X24100Y100028D01*
X24062Y99940D01*
X24027Y99851D01*
X23995Y99760D01*
X27473Y98124D02*
X27533Y98183D01*
X27590Y98245D01*
X27645Y98309D01*
X27696Y98376D01*
X27745Y98445D01*
X27791Y98515D01*
X27834Y98588D01*
X27874Y98662D01*
X27910Y98738D01*
X27943Y98816D01*
X27973Y98895D01*
X28000Y98975D01*
X28023Y99056D01*
X28042Y99138D01*
X28058Y99220D01*
X28071Y99304D01*
X28080Y99388D01*
X28085Y99472D01*
X28087Y99556D01*
X27473Y98123D02*
X23995Y94031D01*
X28087Y94031D01*
X925131Y94031D02*
X925131Y101397D01*
X927177Y101397D01*
X927266Y101395D01*
X927355Y101389D01*
X927444Y101379D01*
X927532Y101366D01*
X927620Y101349D01*
X927707Y101327D01*
X927792Y101302D01*
X927877Y101274D01*
X927960Y101241D01*
X928042Y101205D01*
X928122Y101166D01*
X928200Y101123D01*
X928276Y101077D01*
X928351Y101027D01*
X928423Y100974D01*
X928492Y100918D01*
X928559Y100859D01*
X928624Y100798D01*
X928685Y100733D01*
X928744Y100666D01*
X928800Y100597D01*
X928853Y100525D01*
X928903Y100450D01*
X928949Y100374D01*
X928992Y100296D01*
X929031Y100216D01*
X929067Y100134D01*
X929100Y100051D01*
X929128Y99966D01*
X929153Y99881D01*
X929175Y99794D01*
X929192Y99706D01*
X929205Y99618D01*
X929215Y99529D01*
X929221Y99440D01*
X929223Y99351D01*
X929221Y99262D01*
X929215Y99173D01*
X929205Y99084D01*
X929192Y98996D01*
X929175Y98908D01*
X929153Y98821D01*
X929128Y98736D01*
X929100Y98651D01*
X929067Y98568D01*
X929031Y98486D01*
X928992Y98406D01*
X928949Y98328D01*
X928903Y98252D01*
X928853Y98177D01*
X928800Y98105D01*
X928744Y98036D01*
X928685Y97969D01*
X928624Y97904D01*
X928559Y97843D01*
X928492Y97784D01*
X928423Y97728D01*
X928351Y97675D01*
X928276Y97625D01*
X928200Y97579D01*
X928122Y97536D01*
X928042Y97497D01*
X927960Y97461D01*
X927877Y97428D01*
X927792Y97400D01*
X927707Y97375D01*
X927620Y97353D01*
X927532Y97336D01*
X927444Y97323D01*
X927355Y97313D01*
X927266Y97307D01*
X927177Y97305D01*
X925131Y97305D01*
X927586Y97305D02*
X929223Y94031D01*
X932395Y95668D02*
X934032Y101397D01*
X932395Y95668D02*
X936487Y95668D01*
X935260Y97305D02*
X935260Y94031D01*
X434031Y93897D02*
X434031Y86531D01*
X434031Y93897D02*
X436077Y93897D01*
X436166Y93895D01*
X436255Y93889D01*
X436344Y93879D01*
X436432Y93866D01*
X436520Y93849D01*
X436607Y93827D01*
X436692Y93802D01*
X436777Y93774D01*
X436860Y93741D01*
X436942Y93705D01*
X437022Y93666D01*
X437100Y93623D01*
X437176Y93577D01*
X437251Y93527D01*
X437323Y93474D01*
X437392Y93418D01*
X437459Y93359D01*
X437524Y93298D01*
X437585Y93233D01*
X437644Y93166D01*
X437700Y93097D01*
X437753Y93025D01*
X437803Y92950D01*
X437849Y92874D01*
X437892Y92796D01*
X437931Y92716D01*
X437967Y92634D01*
X438000Y92551D01*
X438028Y92466D01*
X438053Y92381D01*
X438075Y92294D01*
X438092Y92206D01*
X438105Y92118D01*
X438115Y92029D01*
X438121Y91940D01*
X438123Y91851D01*
X438121Y91762D01*
X438115Y91673D01*
X438105Y91584D01*
X438092Y91496D01*
X438075Y91408D01*
X438053Y91321D01*
X438028Y91236D01*
X438000Y91151D01*
X437967Y91068D01*
X437931Y90986D01*
X437892Y90906D01*
X437849Y90828D01*
X437803Y90752D01*
X437753Y90677D01*
X437700Y90605D01*
X437644Y90536D01*
X437585Y90469D01*
X437524Y90404D01*
X437459Y90343D01*
X437392Y90284D01*
X437323Y90228D01*
X437251Y90175D01*
X437176Y90125D01*
X437100Y90079D01*
X437022Y90036D01*
X436942Y89997D01*
X436860Y89961D01*
X436777Y89928D01*
X436692Y89900D01*
X436607Y89875D01*
X436520Y89853D01*
X436432Y89836D01*
X436344Y89823D01*
X436255Y89813D01*
X436166Y89807D01*
X436077Y89805D01*
X434031Y89805D01*
X436486Y89805D02*
X438123Y86531D01*
X441295Y86531D02*
X443750Y86531D01*
X443828Y86533D01*
X443906Y86538D01*
X443983Y86548D01*
X444060Y86561D01*
X444136Y86577D01*
X444211Y86597D01*
X444285Y86621D01*
X444358Y86648D01*
X444430Y86679D01*
X444500Y86713D01*
X444569Y86750D01*
X444635Y86791D01*
X444700Y86835D01*
X444762Y86881D01*
X444822Y86931D01*
X444880Y86983D01*
X444935Y87038D01*
X444987Y87096D01*
X445037Y87156D01*
X445083Y87218D01*
X445127Y87283D01*
X445168Y87350D01*
X445205Y87418D01*
X445239Y87488D01*
X445270Y87560D01*
X445297Y87633D01*
X445321Y87707D01*
X445341Y87782D01*
X445357Y87858D01*
X445370Y87935D01*
X445380Y88012D01*
X445385Y88090D01*
X445387Y88168D01*
X445387Y88986D01*
X445385Y89064D01*
X445380Y89142D01*
X445370Y89219D01*
X445357Y89296D01*
X445341Y89372D01*
X445321Y89447D01*
X445297Y89521D01*
X445270Y89594D01*
X445239Y89666D01*
X445205Y89736D01*
X445168Y89805D01*
X445127Y89871D01*
X445083Y89936D01*
X445037Y89998D01*
X444987Y90058D01*
X444935Y90116D01*
X444880Y90171D01*
X444822Y90223D01*
X444762Y90273D01*
X444700Y90319D01*
X444635Y90363D01*
X444569Y90404D01*
X444500Y90441D01*
X444430Y90475D01*
X444358Y90506D01*
X444285Y90533D01*
X444211Y90557D01*
X444136Y90577D01*
X444060Y90593D01*
X443983Y90606D01*
X443906Y90616D01*
X443828Y90621D01*
X443750Y90623D01*
X441295Y90623D01*
X441295Y93897D01*
X445387Y93897D01*
X395231Y93897D02*
X395231Y86531D01*
X395231Y93897D02*
X397277Y93897D01*
X397366Y93895D01*
X397455Y93889D01*
X397544Y93879D01*
X397632Y93866D01*
X397720Y93849D01*
X397807Y93827D01*
X397892Y93802D01*
X397977Y93774D01*
X398060Y93741D01*
X398142Y93705D01*
X398222Y93666D01*
X398300Y93623D01*
X398376Y93577D01*
X398451Y93527D01*
X398523Y93474D01*
X398592Y93418D01*
X398659Y93359D01*
X398724Y93298D01*
X398785Y93233D01*
X398844Y93166D01*
X398900Y93097D01*
X398953Y93025D01*
X399003Y92950D01*
X399049Y92874D01*
X399092Y92796D01*
X399131Y92716D01*
X399167Y92634D01*
X399200Y92551D01*
X399228Y92466D01*
X399253Y92381D01*
X399275Y92294D01*
X399292Y92206D01*
X399305Y92118D01*
X399315Y92029D01*
X399321Y91940D01*
X399323Y91851D01*
X399321Y91762D01*
X399315Y91673D01*
X399305Y91584D01*
X399292Y91496D01*
X399275Y91408D01*
X399253Y91321D01*
X399228Y91236D01*
X399200Y91151D01*
X399167Y91068D01*
X399131Y90986D01*
X399092Y90906D01*
X399049Y90828D01*
X399003Y90752D01*
X398953Y90677D01*
X398900Y90605D01*
X398844Y90536D01*
X398785Y90469D01*
X398724Y90404D01*
X398659Y90343D01*
X398592Y90284D01*
X398523Y90228D01*
X398451Y90175D01*
X398376Y90125D01*
X398300Y90079D01*
X398222Y90036D01*
X398142Y89997D01*
X398060Y89961D01*
X397977Y89928D01*
X397892Y89900D01*
X397807Y89875D01*
X397720Y89853D01*
X397632Y89836D01*
X397544Y89823D01*
X397455Y89813D01*
X397366Y89807D01*
X397277Y89805D01*
X395231Y89805D01*
X397686Y89805D02*
X399323Y86531D01*
X402495Y90623D02*
X404950Y90623D01*
X405028Y90621D01*
X405106Y90616D01*
X405183Y90606D01*
X405260Y90593D01*
X405336Y90577D01*
X405411Y90557D01*
X405485Y90533D01*
X405558Y90506D01*
X405630Y90475D01*
X405700Y90441D01*
X405769Y90404D01*
X405835Y90363D01*
X405900Y90319D01*
X405962Y90273D01*
X406022Y90223D01*
X406080Y90171D01*
X406135Y90116D01*
X406187Y90058D01*
X406237Y89998D01*
X406283Y89936D01*
X406327Y89871D01*
X406368Y89805D01*
X406405Y89736D01*
X406439Y89666D01*
X406470Y89594D01*
X406497Y89521D01*
X406521Y89447D01*
X406541Y89372D01*
X406557Y89296D01*
X406570Y89219D01*
X406580Y89142D01*
X406585Y89064D01*
X406587Y88986D01*
X406587Y88577D01*
X406585Y88488D01*
X406579Y88399D01*
X406569Y88310D01*
X406556Y88222D01*
X406539Y88134D01*
X406517Y88047D01*
X406492Y87962D01*
X406464Y87877D01*
X406431Y87794D01*
X406395Y87712D01*
X406356Y87632D01*
X406313Y87554D01*
X406267Y87478D01*
X406217Y87403D01*
X406164Y87331D01*
X406108Y87262D01*
X406049Y87195D01*
X405988Y87130D01*
X405923Y87069D01*
X405856Y87010D01*
X405787Y86954D01*
X405715Y86901D01*
X405640Y86851D01*
X405564Y86805D01*
X405486Y86762D01*
X405406Y86723D01*
X405324Y86687D01*
X405241Y86654D01*
X405156Y86626D01*
X405071Y86601D01*
X404984Y86579D01*
X404896Y86562D01*
X404808Y86549D01*
X404719Y86539D01*
X404630Y86533D01*
X404541Y86531D01*
X404452Y86533D01*
X404363Y86539D01*
X404274Y86549D01*
X404186Y86562D01*
X404098Y86579D01*
X404011Y86601D01*
X403926Y86626D01*
X403841Y86654D01*
X403758Y86687D01*
X403676Y86723D01*
X403596Y86762D01*
X403518Y86805D01*
X403442Y86851D01*
X403367Y86901D01*
X403295Y86954D01*
X403226Y87010D01*
X403159Y87069D01*
X403094Y87130D01*
X403033Y87195D01*
X402974Y87262D01*
X402918Y87331D01*
X402865Y87403D01*
X402815Y87478D01*
X402769Y87554D01*
X402726Y87632D01*
X402687Y87712D01*
X402651Y87794D01*
X402618Y87877D01*
X402590Y87962D01*
X402565Y88047D01*
X402543Y88134D01*
X402526Y88222D01*
X402513Y88310D01*
X402503Y88399D01*
X402497Y88488D01*
X402495Y88577D01*
X402495Y90623D01*
X402497Y90737D01*
X402503Y90851D01*
X402513Y90965D01*
X402527Y91079D01*
X402545Y91192D01*
X402567Y91304D01*
X402592Y91415D01*
X402622Y91525D01*
X402655Y91635D01*
X402692Y91743D01*
X402733Y91849D01*
X402778Y91955D01*
X402826Y92058D01*
X402878Y92160D01*
X402934Y92260D01*
X402992Y92358D01*
X403055Y92454D01*
X403120Y92547D01*
X403189Y92639D01*
X403261Y92727D01*
X403336Y92814D01*
X403414Y92897D01*
X403495Y92978D01*
X403578Y93056D01*
X403665Y93131D01*
X403753Y93203D01*
X403845Y93272D01*
X403938Y93337D01*
X404034Y93399D01*
X404132Y93458D01*
X404232Y93514D01*
X404334Y93566D01*
X404437Y93614D01*
X404543Y93659D01*
X404649Y93700D01*
X404757Y93737D01*
X404867Y93770D01*
X404977Y93800D01*
X405088Y93825D01*
X405200Y93847D01*
X405313Y93865D01*
X405427Y93879D01*
X405541Y93889D01*
X405655Y93895D01*
X405769Y93897D01*
D14*
X443600Y14800D02*
X455600Y14800D01*
X455600Y36800D02*
X443600Y36800D01*
X438364Y11800D02*
X438366Y11894D01*
X438372Y11988D01*
X438382Y12082D01*
X438396Y12175D01*
X438414Y12268D01*
X438435Y12360D01*
X438461Y12450D01*
X438490Y12540D01*
X438523Y12628D01*
X438560Y12715D01*
X438600Y12800D01*
X438644Y12884D01*
X438692Y12965D01*
X438742Y13045D01*
X438797Y13122D01*
X438854Y13197D01*
X438914Y13269D01*
X438978Y13339D01*
X439044Y13406D01*
X439113Y13470D01*
X439185Y13531D01*
X439259Y13589D01*
X439336Y13644D01*
X439415Y13696D01*
X439496Y13744D01*
X439579Y13789D01*
X439663Y13830D01*
X439750Y13868D01*
X439838Y13902D01*
X439927Y13932D01*
X440017Y13959D01*
X440109Y13981D01*
X440201Y14000D01*
X440295Y14015D01*
X440388Y14026D01*
X440482Y14033D01*
X440576Y14036D01*
X440671Y14035D01*
X440765Y14030D01*
X440859Y14021D01*
X440952Y14008D01*
X441045Y13991D01*
X441137Y13971D01*
X441228Y13946D01*
X441318Y13918D01*
X441406Y13886D01*
X441494Y13850D01*
X441579Y13810D01*
X441663Y13767D01*
X441745Y13721D01*
X441825Y13671D01*
X441903Y13617D01*
X441978Y13561D01*
X442051Y13501D01*
X442122Y13438D01*
X442189Y13373D01*
X442254Y13304D01*
X442316Y13233D01*
X442375Y13160D01*
X442431Y13084D01*
X442483Y13005D01*
X442532Y12925D01*
X442578Y12842D01*
X442620Y12758D01*
X442659Y12672D01*
X442694Y12584D01*
X442725Y12495D01*
X442753Y12405D01*
X442776Y12314D01*
X442796Y12222D01*
X442812Y12129D01*
X442824Y12035D01*
X442832Y11941D01*
X442836Y11847D01*
X442836Y11753D01*
X442832Y11659D01*
X442824Y11565D01*
X442812Y11471D01*
X442796Y11378D01*
X442776Y11286D01*
X442753Y11195D01*
X442725Y11105D01*
X442694Y11016D01*
X442659Y10928D01*
X442620Y10842D01*
X442578Y10758D01*
X442532Y10675D01*
X442483Y10595D01*
X442431Y10516D01*
X442375Y10440D01*
X442316Y10367D01*
X442254Y10296D01*
X442189Y10227D01*
X442122Y10162D01*
X442051Y10099D01*
X441978Y10039D01*
X441903Y9983D01*
X441825Y9929D01*
X441745Y9879D01*
X441663Y9833D01*
X441579Y9790D01*
X441494Y9750D01*
X441406Y9714D01*
X441318Y9682D01*
X441228Y9654D01*
X441137Y9629D01*
X441045Y9609D01*
X440952Y9592D01*
X440859Y9579D01*
X440765Y9570D01*
X440671Y9565D01*
X440576Y9564D01*
X440482Y9567D01*
X440388Y9574D01*
X440295Y9585D01*
X440201Y9600D01*
X440109Y9619D01*
X440017Y9641D01*
X439927Y9668D01*
X439838Y9698D01*
X439750Y9732D01*
X439663Y9770D01*
X439579Y9811D01*
X439496Y9856D01*
X439415Y9904D01*
X439336Y9956D01*
X439259Y10011D01*
X439185Y10069D01*
X439113Y10130D01*
X439044Y10194D01*
X438978Y10261D01*
X438914Y10331D01*
X438854Y10403D01*
X438797Y10478D01*
X438742Y10555D01*
X438692Y10635D01*
X438644Y10716D01*
X438600Y10800D01*
X438560Y10885D01*
X438523Y10972D01*
X438490Y11060D01*
X438461Y11150D01*
X438435Y11240D01*
X438414Y11332D01*
X438396Y11425D01*
X438382Y11518D01*
X438372Y11612D01*
X438366Y11706D01*
X438364Y11800D01*
D15*
X919160Y54900D02*
X919165Y55272D01*
X919178Y55643D01*
X919201Y56014D01*
X919232Y56384D01*
X919273Y56753D01*
X919323Y57121D01*
X919381Y57488D01*
X919449Y57853D01*
X919525Y58217D01*
X919610Y58578D01*
X919705Y58937D01*
X919807Y59294D01*
X919919Y59649D01*
X920039Y60000D01*
X920167Y60349D01*
X920304Y60694D01*
X920450Y61036D01*
X920603Y61374D01*
X920765Y61708D01*
X920935Y62038D01*
X921113Y62364D01*
X921299Y62686D01*
X921493Y63003D01*
X921694Y63315D01*
X921903Y63622D01*
X922119Y63924D01*
X922343Y64221D01*
X922573Y64512D01*
X922811Y64797D01*
X923056Y65077D01*
X923307Y65350D01*
X923565Y65617D01*
X923829Y65878D01*
X924100Y66133D01*
X924377Y66380D01*
X924660Y66621D01*
X924948Y66855D01*
X925242Y67082D01*
X925542Y67301D01*
X919160Y54900D02*
X919165Y54528D01*
X919178Y54157D01*
X919201Y53785D01*
X919233Y53415D01*
X919273Y53045D01*
X919323Y52677D01*
X919382Y52309D01*
X919449Y51944D01*
X919526Y51580D01*
X919612Y51218D01*
X919706Y50858D01*
X919809Y50501D01*
X919920Y50146D01*
X920041Y49794D01*
X920170Y49445D01*
X920307Y49100D01*
X920453Y48758D01*
X920607Y48419D01*
X920769Y48084D01*
X920939Y47754D01*
X921118Y47428D01*
X921304Y47106D01*
X921498Y46788D01*
X921700Y46476D01*
X921909Y46169D01*
X922126Y45867D01*
X922350Y45570D01*
X922581Y45278D01*
X922819Y44993D01*
X923065Y44713D01*
X923317Y44440D01*
X923575Y44172D01*
X923840Y43912D01*
X924111Y43657D01*
X924389Y43409D01*
X924672Y43169D01*
X924961Y42935D01*
X925256Y42708D01*
X949640Y54900D02*
X949636Y55265D01*
X949623Y55630D01*
X949601Y55994D01*
X949570Y56357D01*
X949531Y56720D01*
X949483Y57082D01*
X949426Y57442D01*
X949361Y57801D01*
X949288Y58159D01*
X949205Y58514D01*
X949115Y58867D01*
X949015Y59219D01*
X948908Y59567D01*
X948792Y59913D01*
X948668Y60256D01*
X948535Y60596D01*
X948395Y60933D01*
X948247Y61266D01*
X948090Y61596D01*
X947926Y61922D01*
X947754Y62244D01*
X947574Y62561D01*
X947387Y62874D01*
X947193Y63183D01*
X946991Y63487D01*
X946781Y63786D01*
X946565Y64080D01*
X946342Y64368D01*
X946112Y64651D01*
X945875Y64929D01*
X945632Y65201D01*
X945382Y65467D01*
X945126Y65727D01*
X944863Y65980D01*
X944595Y66228D01*
X944321Y66468D01*
X944041Y66703D01*
X943756Y66930D01*
X949640Y54900D02*
X949636Y54535D01*
X949623Y54170D01*
X949601Y53806D01*
X949570Y53443D01*
X949531Y53080D01*
X949483Y52718D01*
X949426Y52358D01*
X949361Y51999D01*
X949288Y51641D01*
X949205Y51286D01*
X949115Y50933D01*
X949015Y50581D01*
X948908Y50233D01*
X948792Y49887D01*
X948668Y49544D01*
X948535Y49204D01*
X948395Y48867D01*
X948247Y48534D01*
X948090Y48204D01*
X947926Y47878D01*
X947754Y47556D01*
X947574Y47239D01*
X947387Y46926D01*
X947193Y46617D01*
X946991Y46313D01*
X946781Y46014D01*
X946565Y45720D01*
X946342Y45432D01*
X946112Y45149D01*
X945875Y44871D01*
X945632Y44599D01*
X945382Y44333D01*
X945126Y44073D01*
X944863Y43820D01*
X944595Y43572D01*
X944321Y43332D01*
X944041Y43097D01*
X943756Y42870D01*
D16*
X914080Y54900D02*
X914086Y55394D01*
X914104Y55888D01*
X914134Y56382D01*
X914176Y56875D01*
X914230Y57366D01*
X914296Y57856D01*
X914374Y58344D01*
X914464Y58831D01*
X914565Y59315D01*
X914679Y59796D01*
X914804Y60274D01*
X914940Y60750D01*
X915088Y61221D01*
X915248Y61689D01*
X915419Y62153D01*
X915601Y62613D01*
X915794Y63068D01*
X915998Y63519D01*
X916213Y63964D01*
X916439Y64404D01*
X916676Y64838D01*
X916923Y65266D01*
X917180Y65688D01*
X917448Y66104D01*
X917726Y66513D01*
X918013Y66915D01*
X918310Y67311D01*
X918617Y67698D01*
X918933Y68079D01*
X919258Y68451D01*
X919593Y68816D01*
X919936Y69172D01*
X920287Y69519D01*
X920647Y69859D01*
X921015Y70189D01*
X921391Y70510D01*
X914080Y54900D02*
X914086Y54412D01*
X914103Y53925D01*
X914133Y53438D01*
X914174Y52951D01*
X914226Y52466D01*
X914291Y51982D01*
X914367Y51500D01*
X914454Y51020D01*
X914553Y50542D01*
X914663Y50067D01*
X914785Y49594D01*
X914918Y49125D01*
X915063Y48658D01*
X915218Y48196D01*
X915385Y47737D01*
X915562Y47282D01*
X915751Y46832D01*
X915950Y46387D01*
X916160Y45946D01*
X916380Y45510D01*
X916611Y45080D01*
X916852Y44656D01*
X917103Y44238D01*
X917364Y43825D01*
X917635Y43419D01*
X917915Y43020D01*
X918205Y42627D01*
X918505Y42242D01*
X918814Y41864D01*
X919131Y41493D01*
X919458Y41131D01*
X919793Y40776D01*
X920136Y40429D01*
X920488Y40091D01*
X920847Y39761D01*
X921215Y39440D01*
X921590Y39127D01*
X921973Y38824D01*
X922362Y38530D01*
X922759Y38246D01*
X923162Y37971D01*
X923572Y37706D01*
X923988Y37451D01*
X924410Y37206D01*
X924838Y36971D01*
X954720Y54900D02*
X954714Y55390D01*
X954696Y55880D01*
X954667Y56369D01*
X954625Y56858D01*
X954572Y57345D01*
X954508Y57831D01*
X954431Y58315D01*
X954343Y58797D01*
X954243Y59277D01*
X954132Y59755D01*
X954009Y60229D01*
X953874Y60701D01*
X953729Y61169D01*
X953572Y61633D01*
X953404Y62094D01*
X953225Y62550D01*
X953035Y63002D01*
X952834Y63449D01*
X952622Y63891D01*
X952400Y64328D01*
X952168Y64760D01*
X951925Y65186D01*
X951671Y65605D01*
X951408Y66019D01*
X951135Y66426D01*
X950852Y66826D01*
X950559Y67220D01*
X950258Y67606D01*
X949946Y67985D01*
X949626Y68356D01*
X949297Y68719D01*
X948960Y69075D01*
X948613Y69422D01*
X948259Y69760D01*
X947896Y70090D01*
X947526Y70412D01*
X954720Y54900D02*
X954714Y54403D01*
X954696Y53906D01*
X954665Y53410D01*
X954623Y52915D01*
X954568Y52421D01*
X954502Y51928D01*
X954423Y51438D01*
X954332Y50949D01*
X954230Y50463D01*
X954115Y49979D01*
X953989Y49499D01*
X953851Y49021D01*
X953702Y48547D01*
X953541Y48077D01*
X953368Y47611D01*
X953184Y47149D01*
X952989Y46692D01*
X952783Y46240D01*
X952566Y45793D01*
X952337Y45352D01*
X952099Y44916D01*
X951849Y44486D01*
X951589Y44063D01*
X951319Y43645D01*
X951039Y43235D01*
X950749Y42832D01*
X950449Y42435D01*
X950139Y42047D01*
X949820Y41666D01*
X949492Y41293D01*
X949155Y40928D01*
X948809Y40571D01*
X948454Y40223D01*
X948091Y39884D01*
X947720Y39553D01*
X947340Y39232D01*
X946953Y38920D01*
X946559Y38618D01*
X946157Y38326D01*
X945748Y38043D01*
X945333Y37771D01*
X944910Y37508D01*
X944482Y37257D01*
D15*
X4342Y66301D02*
X4042Y66082D01*
X3748Y65855D01*
X3460Y65621D01*
X3177Y65380D01*
X2900Y65133D01*
X2629Y64878D01*
X2365Y64617D01*
X2107Y64350D01*
X1856Y64077D01*
X1611Y63797D01*
X1373Y63512D01*
X1143Y63221D01*
X919Y62924D01*
X703Y62622D01*
X494Y62315D01*
X293Y62003D01*
X99Y61686D01*
X-87Y61364D01*
X-265Y61038D01*
X-435Y60708D01*
X-597Y60374D01*
X-750Y60036D01*
X-896Y59694D01*
X-1033Y59349D01*
X-1161Y59000D01*
X-1281Y58649D01*
X-1393Y58294D01*
X-1495Y57937D01*
X-1590Y57578D01*
X-1675Y57217D01*
X-1751Y56853D01*
X-1819Y56488D01*
X-1877Y56121D01*
X-1927Y55753D01*
X-1968Y55384D01*
X-1999Y55014D01*
X-2022Y54643D01*
X-2035Y54272D01*
X-2040Y53900D01*
X-2035Y53528D01*
X-2022Y53157D01*
X-1999Y52785D01*
X-1967Y52415D01*
X-1927Y52045D01*
X-1877Y51677D01*
X-1818Y51309D01*
X-1751Y50944D01*
X-1674Y50580D01*
X-1588Y50218D01*
X-1494Y49858D01*
X-1391Y49501D01*
X-1280Y49146D01*
X-1159Y48794D01*
X-1030Y48445D01*
X-893Y48100D01*
X-747Y47758D01*
X-593Y47419D01*
X-431Y47084D01*
X-261Y46754D01*
X-82Y46428D01*
X104Y46106D01*
X298Y45788D01*
X500Y45476D01*
X709Y45169D01*
X926Y44867D01*
X1150Y44570D01*
X1381Y44278D01*
X1619Y43993D01*
X1865Y43713D01*
X2117Y43440D01*
X2375Y43172D01*
X2640Y42912D01*
X2911Y42657D01*
X3189Y42409D01*
X3472Y42169D01*
X3761Y41935D01*
X4056Y41708D01*
X28440Y53900D02*
X28436Y54265D01*
X28423Y54630D01*
X28401Y54994D01*
X28370Y55357D01*
X28331Y55720D01*
X28283Y56082D01*
X28226Y56442D01*
X28161Y56801D01*
X28088Y57159D01*
X28005Y57514D01*
X27915Y57867D01*
X27815Y58219D01*
X27708Y58567D01*
X27592Y58913D01*
X27468Y59256D01*
X27335Y59596D01*
X27195Y59933D01*
X27047Y60266D01*
X26890Y60596D01*
X26726Y60922D01*
X26554Y61244D01*
X26374Y61561D01*
X26187Y61874D01*
X25993Y62183D01*
X25791Y62487D01*
X25581Y62786D01*
X25365Y63080D01*
X25142Y63368D01*
X24912Y63651D01*
X24675Y63929D01*
X24432Y64201D01*
X24182Y64467D01*
X23926Y64727D01*
X23663Y64980D01*
X23395Y65228D01*
X23121Y65468D01*
X22841Y65703D01*
X22556Y65930D01*
X28440Y53900D02*
X28436Y53535D01*
X28423Y53170D01*
X28401Y52806D01*
X28370Y52443D01*
X28331Y52080D01*
X28283Y51718D01*
X28226Y51358D01*
X28161Y50999D01*
X28088Y50641D01*
X28005Y50286D01*
X27915Y49933D01*
X27815Y49581D01*
X27708Y49233D01*
X27592Y48887D01*
X27468Y48544D01*
X27335Y48204D01*
X27195Y47867D01*
X27047Y47534D01*
X26890Y47204D01*
X26726Y46878D01*
X26554Y46556D01*
X26374Y46239D01*
X26187Y45926D01*
X25993Y45617D01*
X25791Y45313D01*
X25581Y45014D01*
X25365Y44720D01*
X25142Y44432D01*
X24912Y44149D01*
X24675Y43871D01*
X24432Y43599D01*
X24182Y43333D01*
X23926Y43073D01*
X23663Y42820D01*
X23395Y42572D01*
X23121Y42332D01*
X22841Y42097D01*
X22556Y41870D01*
D16*
X-7120Y53900D02*
X-7114Y54394D01*
X-7096Y54888D01*
X-7066Y55382D01*
X-7024Y55875D01*
X-6970Y56366D01*
X-6904Y56856D01*
X-6826Y57344D01*
X-6736Y57831D01*
X-6635Y58315D01*
X-6521Y58796D01*
X-6396Y59274D01*
X-6260Y59750D01*
X-6112Y60221D01*
X-5952Y60689D01*
X-5781Y61153D01*
X-5599Y61613D01*
X-5406Y62068D01*
X-5202Y62519D01*
X-4987Y62964D01*
X-4761Y63404D01*
X-4524Y63838D01*
X-4277Y64266D01*
X-4020Y64688D01*
X-3752Y65104D01*
X-3474Y65513D01*
X-3187Y65915D01*
X-2890Y66311D01*
X-2583Y66698D01*
X-2267Y67079D01*
X-1942Y67451D01*
X-1607Y67816D01*
X-1264Y68172D01*
X-913Y68519D01*
X-553Y68859D01*
X-185Y69189D01*
X191Y69510D01*
X-7120Y53900D02*
X-7114Y53412D01*
X-7097Y52925D01*
X-7067Y52438D01*
X-7026Y51951D01*
X-6974Y51466D01*
X-6909Y50982D01*
X-6833Y50500D01*
X-6746Y50020D01*
X-6647Y49542D01*
X-6537Y49067D01*
X-6415Y48594D01*
X-6282Y48125D01*
X-6137Y47658D01*
X-5982Y47196D01*
X-5815Y46737D01*
X-5638Y46282D01*
X-5449Y45832D01*
X-5250Y45387D01*
X-5040Y44946D01*
X-4820Y44510D01*
X-4589Y44080D01*
X-4348Y43656D01*
X-4097Y43238D01*
X-3836Y42825D01*
X-3565Y42419D01*
X-3285Y42020D01*
X-2995Y41627D01*
X-2695Y41242D01*
X-2386Y40864D01*
X-2069Y40493D01*
X-1742Y40131D01*
X-1407Y39776D01*
X-1064Y39429D01*
X-712Y39091D01*
X-353Y38761D01*
X15Y38440D01*
X390Y38127D01*
X773Y37824D01*
X1162Y37530D01*
X1559Y37246D01*
X1962Y36971D01*
X2372Y36706D01*
X2788Y36451D01*
X3210Y36206D01*
X3638Y35971D01*
X33520Y53900D02*
X33514Y54390D01*
X33496Y54880D01*
X33467Y55369D01*
X33425Y55858D01*
X33372Y56345D01*
X33308Y56831D01*
X33231Y57315D01*
X33143Y57797D01*
X33043Y58277D01*
X32932Y58755D01*
X32809Y59229D01*
X32674Y59701D01*
X32529Y60169D01*
X32372Y60633D01*
X32204Y61094D01*
X32025Y61550D01*
X31835Y62002D01*
X31634Y62449D01*
X31422Y62891D01*
X31200Y63328D01*
X30968Y63760D01*
X30725Y64186D01*
X30471Y64605D01*
X30208Y65019D01*
X29935Y65426D01*
X29652Y65826D01*
X29359Y66220D01*
X29058Y66606D01*
X28746Y66985D01*
X28426Y67356D01*
X28097Y67719D01*
X27760Y68075D01*
X27413Y68422D01*
X27059Y68760D01*
X26696Y69090D01*
X26326Y69412D01*
X33520Y53900D02*
X33514Y53403D01*
X33496Y52906D01*
X33465Y52410D01*
X33423Y51915D01*
X33368Y51421D01*
X33302Y50928D01*
X33223Y50438D01*
X33132Y49949D01*
X33030Y49463D01*
X32915Y48979D01*
X32789Y48499D01*
X32651Y48021D01*
X32502Y47547D01*
X32341Y47077D01*
X32168Y46611D01*
X31984Y46149D01*
X31789Y45692D01*
X31583Y45240D01*
X31366Y44793D01*
X31137Y44352D01*
X30899Y43916D01*
X30649Y43486D01*
X30389Y43063D01*
X30119Y42645D01*
X29839Y42235D01*
X29549Y41832D01*
X29249Y41435D01*
X28939Y41047D01*
X28620Y40666D01*
X28292Y40293D01*
X27955Y39928D01*
X27609Y39571D01*
X27254Y39223D01*
X26891Y38884D01*
X26520Y38553D01*
X26140Y38232D01*
X25753Y37920D01*
X25359Y37618D01*
X24957Y37326D01*
X24548Y37043D01*
X24133Y36771D01*
X23710Y36508D01*
X23282Y36257D01*
D15*
X393650Y66700D02*
X406350Y66700D01*
X412700Y60350D01*
X412700Y47650D01*
X406350Y41300D01*
X387300Y47650D02*
X387300Y60350D01*
X393650Y66700D01*
X387300Y47650D02*
X393650Y41300D01*
X406350Y41300D01*
X443650Y66700D02*
X456350Y66700D01*
X462700Y60350D01*
X462700Y47650D01*
X456350Y41300D01*
X437300Y47650D02*
X437300Y60350D01*
X443650Y66700D01*
X437300Y47650D02*
X443650Y41300D01*
X456350Y41300D01*
D11*
X381950Y30900D02*
X381950Y72850D01*
X334050Y72850D02*
X334050Y30900D01*
X334600Y45650D02*
X334758Y45652D01*
X334917Y45658D01*
X335075Y45668D01*
X335232Y45682D01*
X335390Y45699D01*
X335546Y45721D01*
X335703Y45746D01*
X335858Y45776D01*
X336013Y45809D01*
X336167Y45846D01*
X336320Y45887D01*
X336472Y45932D01*
X336622Y45981D01*
X336772Y46033D01*
X336920Y46089D01*
X337067Y46149D01*
X337212Y46212D01*
X337355Y46279D01*
X337497Y46349D01*
X337637Y46423D01*
X337775Y46501D01*
X337911Y46582D01*
X338045Y46666D01*
X338177Y46753D01*
X338307Y46844D01*
X338434Y46938D01*
X338559Y47035D01*
X338682Y47136D01*
X338802Y47239D01*
X338919Y47345D01*
X339034Y47454D01*
X339146Y47566D01*
X339255Y47681D01*
X339361Y47798D01*
X339464Y47918D01*
X339565Y48041D01*
X339662Y48166D01*
X339756Y48293D01*
X339847Y48423D01*
X339934Y48555D01*
X340018Y48689D01*
X340099Y48825D01*
X340177Y48963D01*
X340251Y49103D01*
X340321Y49245D01*
X340388Y49388D01*
X340451Y49533D01*
X340511Y49680D01*
X340567Y49828D01*
X340619Y49978D01*
X340668Y50128D01*
X340713Y50280D01*
X340754Y50433D01*
X340791Y50587D01*
X340824Y50742D01*
X340854Y50897D01*
X340879Y51054D01*
X340901Y51210D01*
X340918Y51368D01*
X340932Y51525D01*
X340942Y51683D01*
X340948Y51842D01*
X340950Y52000D01*
X340948Y52158D01*
X340942Y52317D01*
X340932Y52475D01*
X340918Y52632D01*
X340901Y52790D01*
X340879Y52946D01*
X340854Y53103D01*
X340824Y53258D01*
X340791Y53413D01*
X340754Y53567D01*
X340713Y53720D01*
X340668Y53872D01*
X340619Y54022D01*
X340567Y54172D01*
X340511Y54320D01*
X340451Y54467D01*
X340388Y54612D01*
X340321Y54755D01*
X340251Y54897D01*
X340177Y55037D01*
X340099Y55175D01*
X340018Y55311D01*
X339934Y55445D01*
X339847Y55577D01*
X339756Y55707D01*
X339662Y55834D01*
X339565Y55959D01*
X339464Y56082D01*
X339361Y56202D01*
X339255Y56319D01*
X339146Y56434D01*
X339034Y56546D01*
X338919Y56655D01*
X338802Y56761D01*
X338682Y56864D01*
X338559Y56965D01*
X338434Y57062D01*
X338307Y57156D01*
X338177Y57247D01*
X338045Y57334D01*
X337911Y57418D01*
X337775Y57499D01*
X337637Y57577D01*
X337497Y57651D01*
X337355Y57721D01*
X337212Y57788D01*
X337067Y57851D01*
X336920Y57911D01*
X336772Y57967D01*
X336622Y58019D01*
X336472Y58068D01*
X336320Y58113D01*
X336167Y58154D01*
X336013Y58191D01*
X335858Y58224D01*
X335703Y58254D01*
X335546Y58279D01*
X335390Y58301D01*
X335232Y58318D01*
X335075Y58332D01*
X334917Y58342D01*
X334758Y58348D01*
X334600Y58350D01*
D10*
X751569Y44255D02*
X751569Y42618D01*
X751567Y42540D01*
X751562Y42462D01*
X751552Y42385D01*
X751539Y42308D01*
X751523Y42232D01*
X751503Y42157D01*
X751479Y42083D01*
X751452Y42010D01*
X751421Y41938D01*
X751387Y41868D01*
X751350Y41800D01*
X751309Y41733D01*
X751265Y41668D01*
X751219Y41606D01*
X751169Y41546D01*
X751117Y41488D01*
X751062Y41433D01*
X751004Y41381D01*
X750944Y41331D01*
X750882Y41285D01*
X750817Y41241D01*
X750751Y41200D01*
X750682Y41163D01*
X750612Y41129D01*
X750540Y41098D01*
X750467Y41071D01*
X750393Y41047D01*
X750318Y41027D01*
X750242Y41011D01*
X750165Y40998D01*
X750088Y40988D01*
X750010Y40983D01*
X749932Y40981D01*
X745840Y40981D01*
X745760Y40983D01*
X745680Y40989D01*
X745600Y40999D01*
X745521Y41012D01*
X745442Y41030D01*
X745365Y41051D01*
X745289Y41077D01*
X745214Y41106D01*
X745140Y41138D01*
X745068Y41174D01*
X744998Y41214D01*
X744931Y41257D01*
X744865Y41303D01*
X744802Y41353D01*
X744741Y41405D01*
X744682Y41460D01*
X744627Y41519D01*
X744575Y41579D01*
X744525Y41643D01*
X744479Y41708D01*
X744436Y41776D01*
X744396Y41846D01*
X744360Y41918D01*
X744328Y41992D01*
X744299Y42066D01*
X744274Y42143D01*
X744252Y42220D01*
X744234Y42299D01*
X744221Y42378D01*
X744211Y42457D01*
X744205Y42538D01*
X744203Y42618D01*
X744203Y44255D01*
X744203Y48737D02*
X749932Y47100D01*
X749932Y51192D01*
X748295Y49965D02*
X751569Y49965D01*
X833569Y44255D02*
X833569Y42618D01*
X833567Y42540D01*
X833562Y42462D01*
X833552Y42385D01*
X833539Y42308D01*
X833523Y42232D01*
X833503Y42157D01*
X833479Y42083D01*
X833452Y42010D01*
X833421Y41938D01*
X833387Y41868D01*
X833350Y41800D01*
X833309Y41733D01*
X833265Y41668D01*
X833219Y41606D01*
X833169Y41546D01*
X833117Y41488D01*
X833062Y41433D01*
X833004Y41381D01*
X832944Y41331D01*
X832882Y41285D01*
X832817Y41241D01*
X832751Y41200D01*
X832682Y41163D01*
X832612Y41129D01*
X832540Y41098D01*
X832467Y41071D01*
X832393Y41047D01*
X832318Y41027D01*
X832242Y41011D01*
X832165Y40998D01*
X832088Y40988D01*
X832010Y40983D01*
X831932Y40981D01*
X827840Y40981D01*
X827760Y40983D01*
X827680Y40989D01*
X827600Y40999D01*
X827521Y41012D01*
X827442Y41030D01*
X827365Y41051D01*
X827289Y41077D01*
X827214Y41106D01*
X827140Y41138D01*
X827068Y41174D01*
X826998Y41214D01*
X826931Y41257D01*
X826865Y41303D01*
X826802Y41353D01*
X826741Y41405D01*
X826682Y41460D01*
X826627Y41519D01*
X826575Y41579D01*
X826525Y41643D01*
X826479Y41708D01*
X826436Y41776D01*
X826396Y41846D01*
X826360Y41918D01*
X826328Y41992D01*
X826299Y42066D01*
X826274Y42143D01*
X826252Y42220D01*
X826234Y42299D01*
X826221Y42378D01*
X826211Y42457D01*
X826205Y42538D01*
X826203Y42618D01*
X826203Y44255D01*
X833569Y47100D02*
X833569Y49555D01*
X833567Y49633D01*
X833562Y49711D01*
X833552Y49788D01*
X833539Y49865D01*
X833523Y49941D01*
X833503Y50016D01*
X833479Y50090D01*
X833452Y50163D01*
X833421Y50235D01*
X833387Y50305D01*
X833350Y50374D01*
X833309Y50440D01*
X833265Y50505D01*
X833219Y50567D01*
X833169Y50627D01*
X833117Y50685D01*
X833062Y50740D01*
X833004Y50792D01*
X832944Y50842D01*
X832882Y50888D01*
X832817Y50932D01*
X832751Y50973D01*
X832682Y51010D01*
X832612Y51044D01*
X832540Y51075D01*
X832467Y51102D01*
X832393Y51126D01*
X832318Y51146D01*
X832242Y51162D01*
X832165Y51175D01*
X832088Y51185D01*
X832010Y51190D01*
X831932Y51192D01*
X831114Y51192D01*
X831034Y51190D01*
X830954Y51184D01*
X830874Y51174D01*
X830795Y51161D01*
X830716Y51143D01*
X830639Y51122D01*
X830563Y51096D01*
X830488Y51067D01*
X830414Y51035D01*
X830342Y50999D01*
X830272Y50959D01*
X830205Y50916D01*
X830139Y50870D01*
X830076Y50820D01*
X830015Y50768D01*
X829956Y50713D01*
X829901Y50654D01*
X829849Y50594D01*
X829799Y50530D01*
X829753Y50464D01*
X829710Y50397D01*
X829670Y50327D01*
X829634Y50255D01*
X829602Y50181D01*
X829573Y50107D01*
X829547Y50030D01*
X829526Y49953D01*
X829508Y49874D01*
X829495Y49795D01*
X829485Y49715D01*
X829479Y49635D01*
X829477Y49555D01*
X829477Y47100D01*
X826203Y47100D01*
X826203Y51192D01*
X791569Y44255D02*
X791569Y42618D01*
X791567Y42540D01*
X791562Y42462D01*
X791552Y42385D01*
X791539Y42308D01*
X791523Y42232D01*
X791503Y42157D01*
X791479Y42083D01*
X791452Y42010D01*
X791421Y41938D01*
X791387Y41868D01*
X791350Y41800D01*
X791309Y41733D01*
X791265Y41668D01*
X791219Y41606D01*
X791169Y41546D01*
X791117Y41488D01*
X791062Y41433D01*
X791004Y41381D01*
X790944Y41331D01*
X790882Y41285D01*
X790817Y41241D01*
X790751Y41200D01*
X790682Y41163D01*
X790612Y41129D01*
X790540Y41098D01*
X790467Y41071D01*
X790393Y41047D01*
X790318Y41027D01*
X790242Y41011D01*
X790165Y40998D01*
X790088Y40988D01*
X790010Y40983D01*
X789932Y40981D01*
X785840Y40981D01*
X785760Y40983D01*
X785680Y40989D01*
X785600Y40999D01*
X785521Y41012D01*
X785442Y41030D01*
X785365Y41051D01*
X785289Y41077D01*
X785214Y41106D01*
X785140Y41138D01*
X785068Y41174D01*
X784998Y41214D01*
X784931Y41257D01*
X784865Y41303D01*
X784802Y41353D01*
X784741Y41405D01*
X784682Y41460D01*
X784627Y41519D01*
X784575Y41579D01*
X784525Y41643D01*
X784479Y41708D01*
X784436Y41776D01*
X784396Y41846D01*
X784360Y41918D01*
X784328Y41992D01*
X784299Y42066D01*
X784274Y42143D01*
X784252Y42220D01*
X784234Y42299D01*
X784221Y42378D01*
X784211Y42457D01*
X784205Y42538D01*
X784203Y42618D01*
X784203Y44255D01*
X787477Y47100D02*
X787477Y49555D01*
X787479Y49633D01*
X787484Y49711D01*
X787494Y49788D01*
X787507Y49865D01*
X787523Y49941D01*
X787543Y50016D01*
X787567Y50090D01*
X787594Y50163D01*
X787625Y50235D01*
X787659Y50305D01*
X787696Y50374D01*
X787737Y50440D01*
X787781Y50505D01*
X787827Y50567D01*
X787877Y50627D01*
X787929Y50685D01*
X787984Y50740D01*
X788042Y50792D01*
X788102Y50842D01*
X788164Y50888D01*
X788229Y50932D01*
X788296Y50973D01*
X788364Y51010D01*
X788434Y51044D01*
X788506Y51075D01*
X788579Y51102D01*
X788653Y51126D01*
X788728Y51146D01*
X788804Y51162D01*
X788881Y51175D01*
X788958Y51185D01*
X789036Y51190D01*
X789114Y51192D01*
X789523Y51192D01*
X789612Y51190D01*
X789701Y51184D01*
X789790Y51174D01*
X789878Y51161D01*
X789966Y51144D01*
X790053Y51122D01*
X790138Y51097D01*
X790223Y51069D01*
X790306Y51036D01*
X790388Y51000D01*
X790468Y50961D01*
X790546Y50918D01*
X790622Y50872D01*
X790697Y50822D01*
X790769Y50769D01*
X790838Y50713D01*
X790905Y50654D01*
X790970Y50593D01*
X791031Y50528D01*
X791090Y50461D01*
X791146Y50392D01*
X791199Y50320D01*
X791249Y50245D01*
X791295Y50169D01*
X791338Y50091D01*
X791377Y50011D01*
X791413Y49929D01*
X791446Y49846D01*
X791474Y49761D01*
X791499Y49676D01*
X791521Y49589D01*
X791538Y49501D01*
X791551Y49413D01*
X791561Y49324D01*
X791567Y49235D01*
X791569Y49146D01*
X791567Y49057D01*
X791561Y48968D01*
X791551Y48879D01*
X791538Y48791D01*
X791521Y48703D01*
X791499Y48616D01*
X791474Y48531D01*
X791446Y48446D01*
X791413Y48363D01*
X791377Y48281D01*
X791338Y48201D01*
X791295Y48123D01*
X791249Y48047D01*
X791199Y47972D01*
X791146Y47900D01*
X791090Y47831D01*
X791031Y47764D01*
X790970Y47699D01*
X790905Y47638D01*
X790838Y47579D01*
X790769Y47523D01*
X790697Y47470D01*
X790622Y47420D01*
X790546Y47374D01*
X790468Y47331D01*
X790388Y47292D01*
X790306Y47256D01*
X790223Y47223D01*
X790138Y47195D01*
X790053Y47170D01*
X789966Y47148D01*
X789878Y47131D01*
X789790Y47118D01*
X789701Y47108D01*
X789612Y47102D01*
X789523Y47100D01*
X787477Y47100D01*
X787363Y47102D01*
X787249Y47108D01*
X787135Y47118D01*
X787021Y47132D01*
X786908Y47150D01*
X786796Y47172D01*
X786685Y47197D01*
X786575Y47227D01*
X786465Y47260D01*
X786357Y47297D01*
X786251Y47338D01*
X786145Y47383D01*
X786042Y47431D01*
X785940Y47483D01*
X785840Y47539D01*
X785742Y47597D01*
X785646Y47660D01*
X785553Y47725D01*
X785461Y47794D01*
X785373Y47866D01*
X785286Y47941D01*
X785203Y48019D01*
X785122Y48100D01*
X785044Y48183D01*
X784969Y48269D01*
X784897Y48358D01*
X784828Y48450D01*
X784763Y48543D01*
X784701Y48639D01*
X784642Y48737D01*
X784586Y48837D01*
X784534Y48939D01*
X784486Y49042D01*
X784441Y49147D01*
X784400Y49254D01*
X784363Y49362D01*
X784330Y49472D01*
X784300Y49582D01*
X784275Y49693D01*
X784253Y49805D01*
X784235Y49918D01*
X784221Y50032D01*
X784211Y50146D01*
X784205Y50260D01*
X784203Y50374D01*
X875569Y46255D02*
X875569Y44618D01*
X875567Y44540D01*
X875562Y44462D01*
X875552Y44385D01*
X875539Y44308D01*
X875523Y44232D01*
X875503Y44157D01*
X875479Y44083D01*
X875452Y44010D01*
X875421Y43938D01*
X875387Y43868D01*
X875350Y43800D01*
X875309Y43733D01*
X875265Y43668D01*
X875219Y43606D01*
X875169Y43546D01*
X875117Y43488D01*
X875062Y43433D01*
X875004Y43381D01*
X874944Y43331D01*
X874882Y43285D01*
X874817Y43241D01*
X874751Y43200D01*
X874682Y43163D01*
X874612Y43129D01*
X874540Y43098D01*
X874467Y43071D01*
X874393Y43047D01*
X874318Y43027D01*
X874242Y43011D01*
X874165Y42998D01*
X874088Y42988D01*
X874010Y42983D01*
X873932Y42981D01*
X869840Y42981D01*
X869760Y42983D01*
X869680Y42989D01*
X869600Y42999D01*
X869521Y43012D01*
X869442Y43030D01*
X869365Y43051D01*
X869289Y43077D01*
X869214Y43106D01*
X869140Y43138D01*
X869068Y43174D01*
X868998Y43214D01*
X868931Y43257D01*
X868865Y43303D01*
X868802Y43353D01*
X868741Y43405D01*
X868682Y43460D01*
X868627Y43519D01*
X868575Y43579D01*
X868525Y43643D01*
X868479Y43708D01*
X868436Y43776D01*
X868396Y43846D01*
X868360Y43918D01*
X868328Y43992D01*
X868299Y44066D01*
X868274Y44143D01*
X868252Y44220D01*
X868234Y44299D01*
X868221Y44378D01*
X868211Y44457D01*
X868205Y44538D01*
X868203Y44618D01*
X868203Y46255D01*
X868203Y49100D02*
X869021Y49100D01*
X868203Y49100D02*
X868203Y53192D01*
X875569Y51146D01*
D17*
X636000Y7700D02*
X636002Y7789D01*
X636008Y7878D01*
X636018Y7967D01*
X636032Y8055D01*
X636049Y8142D01*
X636071Y8228D01*
X636097Y8314D01*
X636126Y8398D01*
X636159Y8481D01*
X636195Y8562D01*
X636236Y8642D01*
X636279Y8719D01*
X636326Y8795D01*
X636377Y8868D01*
X636430Y8939D01*
X636487Y9008D01*
X636547Y9074D01*
X636610Y9138D01*
X636675Y9198D01*
X636743Y9256D01*
X636814Y9310D01*
X636887Y9361D01*
X636962Y9409D01*
X637039Y9454D01*
X637118Y9495D01*
X637199Y9532D01*
X637281Y9566D01*
X637365Y9597D01*
X637450Y9623D01*
X637536Y9646D01*
X637623Y9664D01*
X637711Y9679D01*
X637800Y9690D01*
X637889Y9697D01*
X637978Y9700D01*
X638067Y9699D01*
X638156Y9694D01*
X638244Y9685D01*
X638333Y9672D01*
X638420Y9655D01*
X638507Y9635D01*
X638593Y9610D01*
X638677Y9582D01*
X638760Y9550D01*
X638842Y9514D01*
X638922Y9475D01*
X639000Y9432D01*
X639076Y9386D01*
X639150Y9336D01*
X639222Y9283D01*
X639291Y9227D01*
X639358Y9168D01*
X639422Y9106D01*
X639483Y9042D01*
X639542Y8974D01*
X639597Y8904D01*
X639649Y8832D01*
X639698Y8757D01*
X639743Y8681D01*
X639785Y8602D01*
X639823Y8522D01*
X639858Y8440D01*
X639889Y8356D01*
X639917Y8271D01*
X639940Y8185D01*
X639960Y8098D01*
X639976Y8011D01*
X639988Y7922D01*
X639996Y7834D01*
X640000Y7745D01*
X640000Y7655D01*
X639996Y7566D01*
X639988Y7478D01*
X639976Y7389D01*
X639960Y7302D01*
X639940Y7215D01*
X639917Y7129D01*
X639889Y7044D01*
X639858Y6960D01*
X639823Y6878D01*
X639785Y6798D01*
X639743Y6719D01*
X639698Y6643D01*
X639649Y6568D01*
X639597Y6496D01*
X639542Y6426D01*
X639483Y6358D01*
X639422Y6294D01*
X639358Y6232D01*
X639291Y6173D01*
X639222Y6117D01*
X639150Y6064D01*
X639076Y6014D01*
X639000Y5968D01*
X638922Y5925D01*
X638842Y5886D01*
X638760Y5850D01*
X638677Y5818D01*
X638593Y5790D01*
X638507Y5765D01*
X638420Y5745D01*
X638333Y5728D01*
X638244Y5715D01*
X638156Y5706D01*
X638067Y5701D01*
X637978Y5700D01*
X637889Y5703D01*
X637800Y5710D01*
X637711Y5721D01*
X637623Y5736D01*
X637536Y5754D01*
X637450Y5777D01*
X637365Y5803D01*
X637281Y5834D01*
X637199Y5868D01*
X637118Y5905D01*
X637039Y5946D01*
X636962Y5991D01*
X636887Y6039D01*
X636814Y6090D01*
X636743Y6144D01*
X636675Y6202D01*
X636610Y6262D01*
X636547Y6326D01*
X636487Y6392D01*
X636430Y6461D01*
X636377Y6532D01*
X636326Y6605D01*
X636279Y6681D01*
X636236Y6758D01*
X636195Y6838D01*
X636159Y6919D01*
X636126Y7002D01*
X636097Y7086D01*
X636071Y7172D01*
X636049Y7258D01*
X636032Y7345D01*
X636018Y7433D01*
X636008Y7522D01*
X636002Y7611D01*
X636000Y7700D01*
D14*
X638750Y32500D02*
X638750Y71500D01*
X725250Y71500D02*
X725250Y32500D01*
D11*
X152900Y44650D02*
X146550Y38300D01*
X133850Y38300D01*
X127500Y44650D01*
X127500Y57350D02*
X133850Y63700D01*
X146550Y63700D01*
X152900Y57350D01*
X184650Y38300D02*
X197350Y38300D01*
X184650Y38300D02*
X178300Y44650D01*
X178300Y57350D02*
X184650Y63700D01*
X178300Y44650D02*
X171950Y38300D01*
X159250Y38300D01*
X152900Y44650D01*
X152900Y57350D02*
X159250Y63700D01*
X171950Y63700D01*
X178300Y57350D01*
X203700Y57350D02*
X203700Y44650D01*
X197350Y38300D01*
X203700Y57350D02*
X197350Y63700D01*
X184650Y63700D01*
X127500Y57350D02*
X127500Y44650D01*
D14*
X99000Y43000D02*
X99000Y59000D01*
X119000Y59000D02*
X119000Y43000D01*
X73000Y43000D02*
X73000Y59000D01*
X93000Y59000D02*
X93000Y43000D01*
D10*
X537553Y46031D02*
X544919Y46031D01*
X537553Y46031D02*
X537553Y48077D01*
X537555Y48166D01*
X537561Y48255D01*
X537571Y48344D01*
X537584Y48432D01*
X537601Y48520D01*
X537623Y48607D01*
X537648Y48692D01*
X537676Y48777D01*
X537709Y48860D01*
X537745Y48942D01*
X537784Y49022D01*
X537827Y49100D01*
X537873Y49176D01*
X537923Y49251D01*
X537976Y49323D01*
X538032Y49392D01*
X538091Y49459D01*
X538152Y49524D01*
X538217Y49585D01*
X538284Y49644D01*
X538353Y49700D01*
X538425Y49753D01*
X538500Y49803D01*
X538576Y49849D01*
X538654Y49892D01*
X538734Y49931D01*
X538816Y49967D01*
X538899Y50000D01*
X538984Y50028D01*
X539069Y50053D01*
X539156Y50075D01*
X539244Y50092D01*
X539332Y50105D01*
X539421Y50115D01*
X539510Y50121D01*
X539599Y50123D01*
X539688Y50121D01*
X539777Y50115D01*
X539866Y50105D01*
X539954Y50092D01*
X540042Y50075D01*
X540129Y50053D01*
X540214Y50028D01*
X540299Y50000D01*
X540382Y49967D01*
X540464Y49931D01*
X540544Y49892D01*
X540622Y49849D01*
X540698Y49803D01*
X540773Y49753D01*
X540845Y49700D01*
X540914Y49644D01*
X540981Y49585D01*
X541046Y49524D01*
X541107Y49459D01*
X541166Y49392D01*
X541222Y49323D01*
X541275Y49251D01*
X541325Y49176D01*
X541371Y49100D01*
X541414Y49022D01*
X541453Y48942D01*
X541489Y48860D01*
X541522Y48777D01*
X541550Y48692D01*
X541575Y48607D01*
X541597Y48520D01*
X541614Y48432D01*
X541627Y48344D01*
X541637Y48255D01*
X541643Y48166D01*
X541645Y48077D01*
X541645Y46031D01*
X541645Y48486D02*
X544919Y50123D01*
X539190Y53295D02*
X537553Y55341D01*
X544919Y55341D01*
X544919Y53295D02*
X544919Y57387D01*
X544919Y60610D02*
X544919Y62656D01*
X544917Y62745D01*
X544911Y62834D01*
X544901Y62923D01*
X544888Y63011D01*
X544871Y63099D01*
X544849Y63186D01*
X544824Y63271D01*
X544796Y63356D01*
X544763Y63439D01*
X544727Y63521D01*
X544688Y63601D01*
X544645Y63679D01*
X544599Y63755D01*
X544549Y63830D01*
X544496Y63902D01*
X544440Y63971D01*
X544381Y64038D01*
X544320Y64103D01*
X544255Y64164D01*
X544188Y64223D01*
X544119Y64279D01*
X544047Y64332D01*
X543972Y64382D01*
X543896Y64428D01*
X543818Y64471D01*
X543738Y64510D01*
X543656Y64546D01*
X543573Y64579D01*
X543488Y64607D01*
X543403Y64632D01*
X543316Y64654D01*
X543228Y64671D01*
X543140Y64684D01*
X543051Y64694D01*
X542962Y64700D01*
X542873Y64702D01*
X542784Y64700D01*
X542695Y64694D01*
X542606Y64684D01*
X542518Y64671D01*
X542430Y64654D01*
X542343Y64632D01*
X542258Y64607D01*
X542173Y64579D01*
X542090Y64546D01*
X542008Y64510D01*
X541928Y64471D01*
X541850Y64428D01*
X541774Y64382D01*
X541699Y64332D01*
X541627Y64279D01*
X541558Y64223D01*
X541491Y64164D01*
X541426Y64103D01*
X541365Y64038D01*
X541306Y63971D01*
X541250Y63902D01*
X541197Y63830D01*
X541147Y63755D01*
X541101Y63679D01*
X541058Y63601D01*
X541019Y63521D01*
X540983Y63439D01*
X540950Y63356D01*
X540922Y63271D01*
X540897Y63186D01*
X540875Y63099D01*
X540858Y63011D01*
X540845Y62923D01*
X540835Y62834D01*
X540829Y62745D01*
X540827Y62656D01*
X537553Y63066D02*
X537553Y60610D01*
X537553Y63066D02*
X537555Y63145D01*
X537561Y63224D01*
X537570Y63303D01*
X537583Y63381D01*
X537601Y63458D01*
X537621Y63534D01*
X537646Y63609D01*
X537674Y63683D01*
X537705Y63756D01*
X537741Y63827D01*
X537779Y63896D01*
X537821Y63963D01*
X537866Y64028D01*
X537914Y64091D01*
X537965Y64152D01*
X538019Y64209D01*
X538075Y64265D01*
X538134Y64317D01*
X538196Y64367D01*
X538260Y64413D01*
X538326Y64457D01*
X538394Y64497D01*
X538464Y64533D01*
X538536Y64567D01*
X538610Y64597D01*
X538684Y64623D01*
X538760Y64646D01*
X538837Y64664D01*
X538914Y64680D01*
X538993Y64691D01*
X539071Y64699D01*
X539150Y64703D01*
X539230Y64703D01*
X539309Y64699D01*
X539387Y64691D01*
X539466Y64680D01*
X539543Y64664D01*
X539620Y64646D01*
X539696Y64623D01*
X539770Y64597D01*
X539844Y64567D01*
X539916Y64533D01*
X539986Y64497D01*
X540054Y64457D01*
X540120Y64413D01*
X540184Y64367D01*
X540246Y64317D01*
X540305Y64265D01*
X540361Y64209D01*
X540415Y64152D01*
X540466Y64091D01*
X540514Y64028D01*
X540559Y63963D01*
X540601Y63896D01*
X540639Y63827D01*
X540675Y63756D01*
X540706Y63683D01*
X540734Y63609D01*
X540759Y63534D01*
X540779Y63458D01*
X540797Y63381D01*
X540810Y63303D01*
X540819Y63224D01*
X540825Y63145D01*
X540827Y63066D01*
X540827Y61429D01*
X572553Y46031D02*
X579919Y46031D01*
X572553Y46031D02*
X572553Y48077D01*
X572555Y48166D01*
X572561Y48255D01*
X572571Y48344D01*
X572584Y48432D01*
X572601Y48520D01*
X572623Y48607D01*
X572648Y48692D01*
X572676Y48777D01*
X572709Y48860D01*
X572745Y48942D01*
X572784Y49022D01*
X572827Y49100D01*
X572873Y49176D01*
X572923Y49251D01*
X572976Y49323D01*
X573032Y49392D01*
X573091Y49459D01*
X573152Y49524D01*
X573217Y49585D01*
X573284Y49644D01*
X573353Y49700D01*
X573425Y49753D01*
X573500Y49803D01*
X573576Y49849D01*
X573654Y49892D01*
X573734Y49931D01*
X573816Y49967D01*
X573899Y50000D01*
X573984Y50028D01*
X574069Y50053D01*
X574156Y50075D01*
X574244Y50092D01*
X574332Y50105D01*
X574421Y50115D01*
X574510Y50121D01*
X574599Y50123D01*
X574688Y50121D01*
X574777Y50115D01*
X574866Y50105D01*
X574954Y50092D01*
X575042Y50075D01*
X575129Y50053D01*
X575214Y50028D01*
X575299Y50000D01*
X575382Y49967D01*
X575464Y49931D01*
X575544Y49892D01*
X575622Y49849D01*
X575698Y49803D01*
X575773Y49753D01*
X575845Y49700D01*
X575914Y49644D01*
X575981Y49585D01*
X576046Y49524D01*
X576107Y49459D01*
X576166Y49392D01*
X576222Y49323D01*
X576275Y49251D01*
X576325Y49176D01*
X576371Y49100D01*
X576414Y49022D01*
X576453Y48942D01*
X576489Y48860D01*
X576522Y48777D01*
X576550Y48692D01*
X576575Y48607D01*
X576597Y48520D01*
X576614Y48432D01*
X576627Y48344D01*
X576637Y48255D01*
X576643Y48166D01*
X576645Y48077D01*
X576645Y46031D01*
X576645Y48486D02*
X579919Y50123D01*
X574190Y53295D02*
X572553Y55341D01*
X579919Y55341D01*
X579919Y53295D02*
X579919Y57387D01*
X578282Y60610D02*
X572553Y62247D01*
X578282Y60610D02*
X578282Y64702D01*
X576645Y63475D02*
X579919Y63475D01*
X42919Y45031D02*
X35553Y45031D01*
X35553Y47077D01*
X35555Y47166D01*
X35561Y47255D01*
X35571Y47344D01*
X35584Y47432D01*
X35601Y47520D01*
X35623Y47607D01*
X35648Y47692D01*
X35676Y47777D01*
X35709Y47860D01*
X35745Y47942D01*
X35784Y48022D01*
X35827Y48100D01*
X35873Y48176D01*
X35923Y48251D01*
X35976Y48323D01*
X36032Y48392D01*
X36091Y48459D01*
X36152Y48524D01*
X36217Y48585D01*
X36284Y48644D01*
X36353Y48700D01*
X36425Y48753D01*
X36500Y48803D01*
X36576Y48849D01*
X36654Y48892D01*
X36734Y48931D01*
X36816Y48967D01*
X36899Y49000D01*
X36984Y49028D01*
X37069Y49053D01*
X37156Y49075D01*
X37244Y49092D01*
X37332Y49105D01*
X37421Y49115D01*
X37510Y49121D01*
X37599Y49123D01*
X37688Y49121D01*
X37777Y49115D01*
X37866Y49105D01*
X37954Y49092D01*
X38042Y49075D01*
X38129Y49053D01*
X38214Y49028D01*
X38299Y49000D01*
X38382Y48967D01*
X38464Y48931D01*
X38544Y48892D01*
X38622Y48849D01*
X38698Y48803D01*
X38773Y48753D01*
X38845Y48700D01*
X38914Y48644D01*
X38981Y48585D01*
X39046Y48524D01*
X39107Y48459D01*
X39166Y48392D01*
X39222Y48323D01*
X39275Y48251D01*
X39325Y48176D01*
X39371Y48100D01*
X39414Y48022D01*
X39453Y47942D01*
X39489Y47860D01*
X39522Y47777D01*
X39550Y47692D01*
X39575Y47607D01*
X39597Y47520D01*
X39614Y47432D01*
X39627Y47344D01*
X39637Y47255D01*
X39643Y47166D01*
X39645Y47077D01*
X39645Y45031D01*
X39645Y47486D02*
X42919Y49123D01*
X37190Y52295D02*
X35553Y54341D01*
X42919Y54341D01*
X42919Y52295D02*
X42919Y56387D01*
X42919Y59610D02*
X42919Y62066D01*
X42917Y62144D01*
X42912Y62222D01*
X42902Y62299D01*
X42889Y62376D01*
X42873Y62452D01*
X42853Y62527D01*
X42829Y62601D01*
X42802Y62674D01*
X42771Y62746D01*
X42737Y62816D01*
X42700Y62885D01*
X42659Y62951D01*
X42615Y63016D01*
X42569Y63078D01*
X42519Y63138D01*
X42467Y63196D01*
X42412Y63251D01*
X42354Y63303D01*
X42294Y63353D01*
X42232Y63399D01*
X42167Y63443D01*
X42101Y63484D01*
X42032Y63521D01*
X41962Y63555D01*
X41890Y63586D01*
X41817Y63613D01*
X41743Y63637D01*
X41668Y63657D01*
X41592Y63673D01*
X41515Y63686D01*
X41438Y63696D01*
X41360Y63701D01*
X41282Y63703D01*
X41282Y63702D02*
X40464Y63702D01*
X40464Y63703D02*
X40384Y63701D01*
X40304Y63695D01*
X40224Y63685D01*
X40145Y63672D01*
X40066Y63654D01*
X39989Y63633D01*
X39913Y63607D01*
X39838Y63578D01*
X39764Y63546D01*
X39692Y63510D01*
X39622Y63470D01*
X39555Y63427D01*
X39489Y63381D01*
X39426Y63331D01*
X39365Y63279D01*
X39306Y63224D01*
X39251Y63165D01*
X39199Y63105D01*
X39149Y63041D01*
X39103Y62975D01*
X39060Y62908D01*
X39020Y62838D01*
X38984Y62766D01*
X38952Y62692D01*
X38923Y62618D01*
X38897Y62541D01*
X38876Y62464D01*
X38858Y62385D01*
X38845Y62306D01*
X38835Y62226D01*
X38829Y62146D01*
X38827Y62066D01*
X38827Y59610D01*
X35553Y59610D01*
X35553Y63702D01*
M02*
