G04 EAGLE Gerber RS-274X export*
G75*
%MOMM*%
%FSLAX34Y34*%
%LPD*%
%INSoldermask Top*%
%IPPOS*%
%AMOC8*
5,1,8,0,0,1.08239X$1,22.5*%
G01*
%ADD10R,1.403200X1.403200*%
%ADD11R,1.503200X1.703200*%
%ADD12R,1.703200X1.503200*%
%ADD13C,2.403200*%
%ADD14R,1.050000X1.575000*%
%ADD15R,1.203200X1.303200*%
%ADD16R,5.283200X2.743200*%
%ADD17R,0.803200X0.623200*%
%ADD18P,1.649562X8X112.500000*%
%ADD19P,2.309387X8X22.500000*%
%ADD20R,0.803200X1.803200*%
%ADD21R,2.403200X2.203200*%
%ADD22C,0.499716*%
%ADD23C,2.082800*%
%ADD24R,0.578200X0.703200*%
%ADD25R,0.503200X0.853200*%
%ADD26C,0.959600*%


D10*
X278600Y64900D03*
X278600Y38900D03*
X217600Y38900D03*
X217600Y64900D03*
D11*
X415200Y20700D03*
X396200Y20700D03*
D12*
X616400Y62400D03*
X616400Y43400D03*
D13*
X494700Y46300D02*
X494700Y61300D01*
D14*
X509700Y83075D03*
X479700Y83075D03*
X494700Y83075D03*
D15*
X153500Y85200D03*
X136500Y85200D03*
X14200Y87300D03*
X31200Y87300D03*
X922600Y87300D03*
X939600Y87300D03*
X431500Y79800D03*
X448500Y79800D03*
X392700Y79800D03*
X409700Y79800D03*
D16*
X549400Y89900D03*
X197400Y90100D03*
X547400Y13300D03*
X198400Y13500D03*
D17*
X440100Y19300D03*
X440100Y25800D03*
X440100Y32300D03*
X459100Y32300D03*
X459100Y25800D03*
X459100Y19300D03*
D18*
X934400Y42200D03*
X934400Y67600D03*
X13200Y41200D03*
X13200Y66600D03*
D19*
X400000Y54000D03*
X450000Y54000D03*
D20*
X338950Y26000D03*
X351650Y26000D03*
X364350Y26000D03*
X377050Y26000D03*
X377050Y78000D03*
X364350Y78000D03*
X351650Y78000D03*
X338950Y78000D03*
D21*
X766000Y38000D03*
X766000Y68000D03*
X849000Y38000D03*
X849000Y68000D03*
X807000Y38000D03*
X807000Y68000D03*
X891000Y38000D03*
X891000Y68000D03*
D22*
X645368Y35468D02*
X645368Y18932D01*
X642432Y18932D01*
X642432Y35468D01*
X645368Y35468D01*
X645368Y23679D02*
X642432Y23679D01*
X642432Y28426D02*
X645368Y28426D01*
X645368Y33173D02*
X642432Y33173D01*
X658068Y35468D02*
X658068Y18932D01*
X655132Y18932D01*
X655132Y35468D01*
X658068Y35468D01*
X658068Y23679D02*
X655132Y23679D01*
X655132Y28426D02*
X658068Y28426D01*
X658068Y33173D02*
X655132Y33173D01*
X670768Y35468D02*
X670768Y18932D01*
X667832Y18932D01*
X667832Y35468D01*
X670768Y35468D01*
X670768Y23679D02*
X667832Y23679D01*
X667832Y28426D02*
X670768Y28426D01*
X670768Y33173D02*
X667832Y33173D01*
X683468Y35468D02*
X683468Y18932D01*
X680532Y18932D01*
X680532Y35468D01*
X683468Y35468D01*
X683468Y23679D02*
X680532Y23679D01*
X680532Y28426D02*
X683468Y28426D01*
X683468Y33173D02*
X680532Y33173D01*
X696168Y35468D02*
X696168Y18932D01*
X693232Y18932D01*
X693232Y35468D01*
X696168Y35468D01*
X696168Y23679D02*
X693232Y23679D01*
X693232Y28426D02*
X696168Y28426D01*
X696168Y33173D02*
X693232Y33173D01*
X708868Y35468D02*
X708868Y18932D01*
X705932Y18932D01*
X705932Y35468D01*
X708868Y35468D01*
X708868Y23679D02*
X705932Y23679D01*
X705932Y28426D02*
X708868Y28426D01*
X708868Y33173D02*
X705932Y33173D01*
X721568Y35468D02*
X721568Y18932D01*
X718632Y18932D01*
X718632Y35468D01*
X721568Y35468D01*
X721568Y23679D02*
X718632Y23679D01*
X718632Y28426D02*
X721568Y28426D01*
X721568Y33173D02*
X718632Y33173D01*
X721568Y68532D02*
X721568Y85068D01*
X721568Y68532D02*
X718632Y68532D01*
X718632Y85068D01*
X721568Y85068D01*
X721568Y73279D02*
X718632Y73279D01*
X718632Y78026D02*
X721568Y78026D01*
X721568Y82773D02*
X718632Y82773D01*
X708868Y85068D02*
X708868Y68532D01*
X705932Y68532D01*
X705932Y85068D01*
X708868Y85068D01*
X708868Y73279D02*
X705932Y73279D01*
X705932Y78026D02*
X708868Y78026D01*
X708868Y82773D02*
X705932Y82773D01*
X696168Y85068D02*
X696168Y68532D01*
X693232Y68532D01*
X693232Y85068D01*
X696168Y85068D01*
X696168Y73279D02*
X693232Y73279D01*
X693232Y78026D02*
X696168Y78026D01*
X696168Y82773D02*
X693232Y82773D01*
X683468Y85068D02*
X683468Y68532D01*
X680532Y68532D01*
X680532Y85068D01*
X683468Y85068D01*
X683468Y73279D02*
X680532Y73279D01*
X680532Y78026D02*
X683468Y78026D01*
X683468Y82773D02*
X680532Y82773D01*
X670768Y85068D02*
X670768Y68532D01*
X667832Y68532D01*
X667832Y85068D01*
X670768Y85068D01*
X670768Y73279D02*
X667832Y73279D01*
X667832Y78026D02*
X670768Y78026D01*
X670768Y82773D02*
X667832Y82773D01*
X658068Y85068D02*
X658068Y68532D01*
X655132Y68532D01*
X655132Y85068D01*
X658068Y85068D01*
X658068Y73279D02*
X655132Y73279D01*
X655132Y78026D02*
X658068Y78026D01*
X658068Y82773D02*
X655132Y82773D01*
X645368Y85068D02*
X645368Y68532D01*
X642432Y68532D01*
X642432Y85068D01*
X645368Y85068D01*
X645368Y73279D02*
X642432Y73279D01*
X642432Y78026D02*
X645368Y78026D01*
X645368Y82773D02*
X642432Y82773D01*
D23*
X191000Y51000D03*
X165600Y51000D03*
X140200Y51000D03*
D24*
X103625Y42500D03*
X114375Y42500D03*
D25*
X109000Y41750D03*
D24*
X114375Y59500D03*
X103625Y59500D03*
D25*
X109000Y60250D03*
D24*
X77625Y42500D03*
X88375Y42500D03*
D25*
X83000Y41750D03*
D24*
X88375Y59500D03*
X77625Y59500D03*
D25*
X83000Y60250D03*
D12*
X558000Y42500D03*
X558000Y61500D03*
X593000Y42500D03*
X593000Y61500D03*
X56000Y41500D03*
X56000Y60500D03*
D26*
X322000Y79000D03*
X761000Y97000D03*
X97536Y65532D03*
X501396Y18288D03*
X205740Y67056D03*
X510540Y70104D03*
X662940Y41148D03*
X760000Y17000D03*
X281000Y19000D03*
X428244Y25908D03*
X441960Y68580D03*
X655320Y59436D03*
X377952Y64008D03*
X728472Y83820D03*
X449580Y22860D03*
X48768Y86868D03*
X492252Y16764D03*
X819912Y86868D03*
X467868Y32004D03*
X573024Y35052D03*
X153924Y73152D03*
X637032Y64008D03*
X536448Y51816D03*
X646176Y44196D03*
X701040Y89916D03*
X166116Y76200D03*
X128016Y41148D03*
X536448Y42672D03*
X73152Y51816D03*
X586740Y30480D03*
M02*
