M48
;GenerationSoftware,Autodesk,EAGLE,9.5.2*%
;CreationDate,2020-01-22T21:35:40Z*%
FMAT,2
ICI,OFF
METRIC,TZ,000.000
T2C0.350
T1C1.016
%
G90
M71
T1
X104000Y3500
X13000Y3500
T2
X70104Y2134
X79248Y2134
X83363Y4724
X61112Y4572
X64465Y914
X45568Y2896
X7468Y5029
X112624Y3505
X82296Y5486
X26975Y4877
X49682Y2134
X71628Y914
X100127Y3810
X86258Y5486
X74981Y6096
X61722Y7772
X70866Y2896
X57912Y2591
X19355Y2896
X89916Y6096
X97384Y3505
M30