G04 EAGLE Gerber RS-274X export*
G75*
%MOMM*%
%FSLAX34Y34*%
%LPD*%
%INTop Copper*%
%IPPOS*%
%AMOC8*
5,1,8,0,0,1.08239X$1,22.5*%
G01*
%ADD10C,1.008000*%
%ADD11R,5.080000X2.540000*%
%ADD12P,1.814519X8X112.500000*%
%ADD13C,1.879600*%
%ADD14P,1.429621X8X22.500000*%
%ADD15P,2.089446X8X292.500000*%
%ADD16C,1.016000*%
%ADD17C,1.500000*%
%ADD18C,0.254000*%
%ADD19C,0.806400*%


D10*
X337060Y52450D02*
X347140Y52450D01*
X347140Y65150D02*
X337060Y65150D01*
X337060Y77850D02*
X347140Y77850D01*
X347140Y90550D02*
X337060Y90550D01*
X337060Y103250D02*
X347140Y103250D01*
X347140Y115950D02*
X337060Y115950D01*
D11*
X71000Y14000D03*
X71000Y156000D03*
D12*
X364000Y72300D03*
X364000Y97700D03*
D13*
X18000Y123000D03*
X18000Y97600D03*
X18000Y72200D03*
X18000Y46800D03*
D14*
X345300Y138000D03*
X370700Y138000D03*
X345300Y32000D03*
X370700Y32000D03*
D15*
X289000Y130000D03*
D16*
X90000Y33000D02*
X71000Y14000D01*
X322650Y33000D02*
X342100Y52450D01*
X322650Y33000D02*
X90000Y33000D01*
X160000Y137150D02*
X242000Y55150D01*
X160000Y137150D02*
X160000Y138000D01*
X92000Y138000D01*
X74000Y156000D01*
X71000Y156000D01*
D17*
X272000Y55150D03*
D16*
X242000Y55150D01*
D17*
X187000Y60000D03*
D16*
X93000Y60000D01*
X79800Y46800D02*
X18000Y46800D01*
X79800Y46800D02*
X93000Y60000D01*
D17*
X259000Y85000D03*
D16*
X308022Y65634D02*
X320238Y77850D01*
X308022Y65634D02*
X291978Y65634D01*
X272612Y85000D02*
X259000Y85000D01*
X272612Y85000D02*
X291978Y65634D01*
X320238Y77850D02*
X342100Y77850D01*
X33000Y123000D02*
X18000Y123000D01*
D17*
X192000Y79000D03*
D16*
X38759Y117242D02*
X33000Y123000D01*
X74648Y70352D02*
X71882Y68031D01*
X74648Y70352D02*
X75684Y71587D01*
X71882Y68031D02*
X68214Y64364D01*
X50636Y64364D01*
X75684Y71587D02*
X83097Y79000D01*
X38759Y76242D02*
X38759Y117242D01*
X38759Y76242D02*
X50636Y64364D01*
X83097Y79000D02*
X192000Y79000D01*
D18*
X366000Y138000D02*
X370700Y138000D01*
X366000Y138000D02*
X352445Y124445D01*
X294555Y124445D01*
X289000Y130000D01*
X364000Y50700D02*
X345300Y32000D01*
X364000Y50700D02*
X364000Y72300D01*
X18000Y97600D02*
X6000Y109600D01*
X6000Y117758D02*
X5808Y117950D01*
X5808Y129808D01*
X17000Y141000D01*
X38000Y141000D01*
X62000Y117000D02*
X157000Y117000D01*
D19*
X168000Y106000D03*
D18*
X6000Y109600D02*
X6000Y117758D01*
X38000Y141000D02*
X62000Y117000D01*
X157000Y117000D02*
X168000Y106000D01*
X341100Y104250D02*
X342100Y103250D01*
X341100Y104250D02*
X328100Y104250D01*
X316100Y116250D01*
X202750Y116250D01*
D19*
X196000Y123000D03*
D18*
X202750Y116250D01*
X345750Y115950D02*
X364000Y97700D01*
X345750Y115950D02*
X342100Y115950D01*
M02*
