G04 EAGLE Gerber RS-274X export*
G75*
%MOMM*%
%FSLAX34Y34*%
%LPD*%
%INSilkscreen Top*%
%IPPOS*%
%AMOC8*
5,1,8,0,0,1.08239X$1,22.5*%
G01*
%ADD10C,0.152400*%
%ADD11C,0.101600*%
%ADD12C,0.203200*%
%ADD13C,0.050800*%
%ADD14R,0.375000X9.000000*%
%ADD15C,0.015238*%
%ADD16C,0.025400*%
%ADD17C,0.127000*%
%ADD18C,0.508000*%


D10*
X45000Y149000D02*
X45000Y23000D01*
X264000Y23000D01*
X265000Y22000D01*
X265000Y148000D01*
X46000Y148000D01*
X45000Y149000D01*
D11*
X248508Y45192D02*
X248508Y33508D01*
X252403Y38701D02*
X248508Y45192D01*
X252403Y38701D02*
X256297Y45192D01*
X256297Y33508D01*
X261617Y36104D02*
X261617Y38701D01*
X261618Y38701D02*
X261620Y38802D01*
X261626Y38902D01*
X261636Y39002D01*
X261649Y39102D01*
X261667Y39201D01*
X261688Y39300D01*
X261713Y39397D01*
X261742Y39494D01*
X261775Y39589D01*
X261811Y39683D01*
X261851Y39775D01*
X261894Y39866D01*
X261941Y39955D01*
X261991Y40042D01*
X262045Y40128D01*
X262102Y40211D01*
X262162Y40291D01*
X262225Y40370D01*
X262292Y40446D01*
X262361Y40519D01*
X262433Y40589D01*
X262507Y40657D01*
X262584Y40722D01*
X262664Y40783D01*
X262746Y40842D01*
X262830Y40897D01*
X262916Y40949D01*
X263004Y40998D01*
X263094Y41043D01*
X263186Y41085D01*
X263279Y41123D01*
X263374Y41157D01*
X263469Y41188D01*
X263566Y41215D01*
X263664Y41238D01*
X263763Y41258D01*
X263863Y41273D01*
X263963Y41285D01*
X264063Y41293D01*
X264164Y41297D01*
X264264Y41297D01*
X264365Y41293D01*
X264465Y41285D01*
X264565Y41273D01*
X264665Y41258D01*
X264764Y41238D01*
X264862Y41215D01*
X264959Y41188D01*
X265054Y41157D01*
X265149Y41123D01*
X265242Y41085D01*
X265334Y41043D01*
X265424Y40998D01*
X265512Y40949D01*
X265598Y40897D01*
X265682Y40842D01*
X265764Y40783D01*
X265844Y40722D01*
X265921Y40657D01*
X265995Y40589D01*
X266067Y40519D01*
X266136Y40446D01*
X266203Y40370D01*
X266266Y40291D01*
X266326Y40211D01*
X266383Y40128D01*
X266437Y40042D01*
X266487Y39955D01*
X266534Y39866D01*
X266577Y39775D01*
X266617Y39683D01*
X266653Y39589D01*
X266686Y39494D01*
X266715Y39397D01*
X266740Y39300D01*
X266761Y39201D01*
X266779Y39102D01*
X266792Y39002D01*
X266802Y38902D01*
X266808Y38802D01*
X266810Y38701D01*
X266810Y36104D01*
X266808Y36003D01*
X266802Y35903D01*
X266792Y35803D01*
X266779Y35703D01*
X266761Y35604D01*
X266740Y35505D01*
X266715Y35408D01*
X266686Y35311D01*
X266653Y35216D01*
X266617Y35122D01*
X266577Y35030D01*
X266534Y34939D01*
X266487Y34850D01*
X266437Y34763D01*
X266383Y34677D01*
X266326Y34594D01*
X266266Y34514D01*
X266203Y34435D01*
X266136Y34359D01*
X266067Y34286D01*
X265995Y34216D01*
X265921Y34148D01*
X265844Y34083D01*
X265764Y34022D01*
X265682Y33963D01*
X265598Y33908D01*
X265512Y33856D01*
X265424Y33807D01*
X265334Y33762D01*
X265242Y33720D01*
X265149Y33682D01*
X265054Y33648D01*
X264959Y33617D01*
X264862Y33590D01*
X264764Y33567D01*
X264665Y33547D01*
X264565Y33532D01*
X264465Y33520D01*
X264365Y33512D01*
X264264Y33508D01*
X264164Y33508D01*
X264063Y33512D01*
X263963Y33520D01*
X263863Y33532D01*
X263763Y33547D01*
X263664Y33567D01*
X263566Y33590D01*
X263469Y33617D01*
X263374Y33648D01*
X263279Y33682D01*
X263186Y33720D01*
X263094Y33762D01*
X263004Y33807D01*
X262916Y33856D01*
X262830Y33908D01*
X262746Y33963D01*
X262664Y34022D01*
X262584Y34083D01*
X262507Y34148D01*
X262433Y34216D01*
X262361Y34286D01*
X262292Y34359D01*
X262225Y34435D01*
X262162Y34514D01*
X262102Y34594D01*
X262045Y34677D01*
X261991Y34763D01*
X261941Y34850D01*
X261894Y34939D01*
X261851Y35030D01*
X261811Y35122D01*
X261775Y35216D01*
X261742Y35311D01*
X261713Y35408D01*
X261688Y35505D01*
X261667Y35604D01*
X261649Y35703D01*
X261636Y35803D01*
X261626Y35903D01*
X261620Y36003D01*
X261618Y36104D01*
X270556Y41297D02*
X274451Y41297D01*
X271854Y45192D02*
X271854Y35455D01*
X271856Y35368D01*
X271862Y35280D01*
X271872Y35194D01*
X271885Y35107D01*
X271903Y35022D01*
X271924Y34937D01*
X271949Y34853D01*
X271978Y34771D01*
X272011Y34690D01*
X272047Y34610D01*
X272086Y34532D01*
X272130Y34456D01*
X272176Y34382D01*
X272226Y34311D01*
X272279Y34241D01*
X272335Y34174D01*
X272394Y34110D01*
X272456Y34048D01*
X272520Y33989D01*
X272587Y33933D01*
X272657Y33880D01*
X272728Y33830D01*
X272802Y33784D01*
X272878Y33740D01*
X272956Y33701D01*
X273036Y33665D01*
X273117Y33632D01*
X273199Y33603D01*
X273283Y33578D01*
X273368Y33557D01*
X273453Y33539D01*
X273540Y33526D01*
X273626Y33516D01*
X273714Y33510D01*
X273801Y33508D01*
X274451Y33508D01*
X278762Y36104D02*
X278762Y38701D01*
X278763Y38701D02*
X278765Y38802D01*
X278771Y38902D01*
X278781Y39002D01*
X278794Y39102D01*
X278812Y39201D01*
X278833Y39300D01*
X278858Y39397D01*
X278887Y39494D01*
X278920Y39589D01*
X278956Y39683D01*
X278996Y39775D01*
X279039Y39866D01*
X279086Y39955D01*
X279136Y40042D01*
X279190Y40128D01*
X279247Y40211D01*
X279307Y40291D01*
X279370Y40370D01*
X279437Y40446D01*
X279506Y40519D01*
X279578Y40589D01*
X279652Y40657D01*
X279729Y40722D01*
X279809Y40783D01*
X279891Y40842D01*
X279975Y40897D01*
X280061Y40949D01*
X280149Y40998D01*
X280239Y41043D01*
X280331Y41085D01*
X280424Y41123D01*
X280519Y41157D01*
X280614Y41188D01*
X280711Y41215D01*
X280809Y41238D01*
X280908Y41258D01*
X281008Y41273D01*
X281108Y41285D01*
X281208Y41293D01*
X281309Y41297D01*
X281409Y41297D01*
X281510Y41293D01*
X281610Y41285D01*
X281710Y41273D01*
X281810Y41258D01*
X281909Y41238D01*
X282007Y41215D01*
X282104Y41188D01*
X282199Y41157D01*
X282294Y41123D01*
X282387Y41085D01*
X282479Y41043D01*
X282569Y40998D01*
X282657Y40949D01*
X282743Y40897D01*
X282827Y40842D01*
X282909Y40783D01*
X282989Y40722D01*
X283066Y40657D01*
X283140Y40589D01*
X283212Y40519D01*
X283281Y40446D01*
X283348Y40370D01*
X283411Y40291D01*
X283471Y40211D01*
X283528Y40128D01*
X283582Y40042D01*
X283632Y39955D01*
X283679Y39866D01*
X283722Y39775D01*
X283762Y39683D01*
X283798Y39589D01*
X283831Y39494D01*
X283860Y39397D01*
X283885Y39300D01*
X283906Y39201D01*
X283924Y39102D01*
X283937Y39002D01*
X283947Y38902D01*
X283953Y38802D01*
X283955Y38701D01*
X283955Y36104D01*
X283953Y36003D01*
X283947Y35903D01*
X283937Y35803D01*
X283924Y35703D01*
X283906Y35604D01*
X283885Y35505D01*
X283860Y35408D01*
X283831Y35311D01*
X283798Y35216D01*
X283762Y35122D01*
X283722Y35030D01*
X283679Y34939D01*
X283632Y34850D01*
X283582Y34763D01*
X283528Y34677D01*
X283471Y34594D01*
X283411Y34514D01*
X283348Y34435D01*
X283281Y34359D01*
X283212Y34286D01*
X283140Y34216D01*
X283066Y34148D01*
X282989Y34083D01*
X282909Y34022D01*
X282827Y33963D01*
X282743Y33908D01*
X282657Y33856D01*
X282569Y33807D01*
X282479Y33762D01*
X282387Y33720D01*
X282294Y33682D01*
X282199Y33648D01*
X282104Y33617D01*
X282007Y33590D01*
X281909Y33567D01*
X281810Y33547D01*
X281710Y33532D01*
X281610Y33520D01*
X281510Y33512D01*
X281409Y33508D01*
X281309Y33508D01*
X281208Y33512D01*
X281108Y33520D01*
X281008Y33532D01*
X280908Y33547D01*
X280809Y33567D01*
X280711Y33590D01*
X280614Y33617D01*
X280519Y33648D01*
X280424Y33682D01*
X280331Y33720D01*
X280239Y33762D01*
X280149Y33807D01*
X280061Y33856D01*
X279975Y33908D01*
X279891Y33963D01*
X279809Y34022D01*
X279729Y34083D01*
X279652Y34148D01*
X279578Y34216D01*
X279506Y34286D01*
X279437Y34359D01*
X279370Y34435D01*
X279307Y34514D01*
X279247Y34594D01*
X279190Y34677D01*
X279136Y34763D01*
X279086Y34850D01*
X279039Y34939D01*
X278996Y35030D01*
X278956Y35122D01*
X278920Y35216D01*
X278887Y35311D01*
X278858Y35408D01*
X278833Y35505D01*
X278812Y35604D01*
X278794Y35703D01*
X278781Y35803D01*
X278771Y35903D01*
X278765Y36003D01*
X278763Y36104D01*
X289116Y33508D02*
X289116Y41297D01*
X293010Y41297D01*
X293010Y39999D01*
X296895Y38052D02*
X304684Y38052D01*
X310191Y33508D02*
X310191Y45192D01*
X313436Y45192D01*
X313549Y45190D01*
X313662Y45184D01*
X313775Y45174D01*
X313888Y45160D01*
X314000Y45143D01*
X314111Y45121D01*
X314221Y45096D01*
X314331Y45066D01*
X314439Y45033D01*
X314546Y44996D01*
X314652Y44956D01*
X314756Y44911D01*
X314859Y44863D01*
X314960Y44812D01*
X315059Y44757D01*
X315156Y44699D01*
X315251Y44637D01*
X315344Y44572D01*
X315434Y44504D01*
X315522Y44433D01*
X315608Y44358D01*
X315691Y44281D01*
X315771Y44201D01*
X315848Y44118D01*
X315923Y44032D01*
X315994Y43944D01*
X316062Y43854D01*
X316127Y43761D01*
X316189Y43666D01*
X316247Y43569D01*
X316302Y43470D01*
X316353Y43369D01*
X316401Y43266D01*
X316446Y43162D01*
X316486Y43056D01*
X316523Y42949D01*
X316556Y42841D01*
X316586Y42731D01*
X316611Y42621D01*
X316633Y42510D01*
X316650Y42398D01*
X316664Y42285D01*
X316674Y42172D01*
X316680Y42059D01*
X316682Y41946D01*
X316680Y41833D01*
X316674Y41720D01*
X316664Y41607D01*
X316650Y41494D01*
X316633Y41382D01*
X316611Y41271D01*
X316586Y41161D01*
X316556Y41051D01*
X316523Y40943D01*
X316486Y40836D01*
X316446Y40730D01*
X316401Y40626D01*
X316353Y40523D01*
X316302Y40422D01*
X316247Y40323D01*
X316189Y40226D01*
X316127Y40131D01*
X316062Y40038D01*
X315994Y39948D01*
X315923Y39860D01*
X315848Y39774D01*
X315771Y39691D01*
X315691Y39611D01*
X315608Y39534D01*
X315522Y39459D01*
X315434Y39388D01*
X315344Y39320D01*
X315251Y39255D01*
X315156Y39193D01*
X315059Y39135D01*
X314960Y39080D01*
X314859Y39029D01*
X314756Y38981D01*
X314652Y38936D01*
X314546Y38896D01*
X314439Y38859D01*
X314331Y38826D01*
X314221Y38796D01*
X314111Y38771D01*
X314000Y38749D01*
X313888Y38732D01*
X313775Y38718D01*
X313662Y38708D01*
X313549Y38702D01*
X313436Y38700D01*
X313436Y38701D02*
X310191Y38701D01*
X314085Y38701D02*
X316682Y33508D01*
D12*
X327100Y38950D02*
X327100Y129450D01*
X327100Y38950D02*
X357100Y38950D01*
X357100Y129450D01*
X327100Y129450D01*
D13*
X339600Y129200D02*
X339600Y125450D01*
X329600Y125450D01*
X339600Y42950D02*
X339600Y39200D01*
X339600Y42950D02*
X329600Y42950D01*
X345850Y125450D02*
X345850Y129200D01*
X345850Y42950D02*
X345850Y39200D01*
X345850Y125450D02*
X353350Y125450D01*
X353350Y42950D01*
X345850Y42950D01*
X353350Y42950D02*
X355850Y40450D01*
X353350Y125450D02*
X355850Y127950D01*
D14*
X328975Y84200D03*
D15*
X354682Y97915D02*
X355479Y96798D01*
X355479Y96799D02*
X355197Y96590D01*
X354920Y96374D01*
X354649Y96152D01*
X354383Y95924D01*
X354122Y95689D01*
X353867Y95448D01*
X353619Y95200D01*
X353376Y94947D01*
X353139Y94688D01*
X352909Y94424D01*
X352685Y94153D01*
X352468Y93878D01*
X352257Y93598D01*
X352053Y93312D01*
X351856Y93022D01*
X351666Y92727D01*
X351484Y92427D01*
X351308Y92123D01*
X351140Y91815D01*
X350980Y91503D01*
X350827Y91188D01*
X350682Y90868D01*
X350544Y90546D01*
X350414Y90220D01*
X350292Y89891D01*
X350178Y89559D01*
X350073Y89224D01*
X349975Y88888D01*
X349885Y88548D01*
X349804Y88207D01*
X349731Y87864D01*
X349666Y87519D01*
X349609Y87173D01*
X349561Y86826D01*
X349521Y86477D01*
X349490Y86128D01*
X349467Y85778D01*
X349452Y85427D01*
X349446Y85076D01*
X348075Y85076D01*
X348074Y85076D01*
X348081Y85461D01*
X348096Y85844D01*
X348121Y86228D01*
X348156Y86611D01*
X348199Y86992D01*
X348252Y87373D01*
X348314Y87752D01*
X348385Y88130D01*
X348465Y88506D01*
X348554Y88880D01*
X348652Y89251D01*
X348759Y89620D01*
X348875Y89986D01*
X348999Y90350D01*
X349133Y90710D01*
X349275Y91067D01*
X349426Y91421D01*
X349585Y91770D01*
X349752Y92116D01*
X349928Y92458D01*
X350112Y92795D01*
X350304Y93128D01*
X350504Y93456D01*
X350712Y93779D01*
X350928Y94097D01*
X351151Y94410D01*
X351382Y94717D01*
X351620Y95019D01*
X351865Y95315D01*
X352118Y95604D01*
X352377Y95888D01*
X352643Y96165D01*
X352916Y96436D01*
X353195Y96700D01*
X353480Y96957D01*
X353772Y97208D01*
X354069Y97451D01*
X354373Y97687D01*
X354682Y97915D01*
X354765Y97799D01*
X354459Y97572D01*
X354158Y97339D01*
X353863Y97098D01*
X353574Y96849D01*
X353292Y96595D01*
X353015Y96333D01*
X352745Y96065D01*
X352481Y95790D01*
X352224Y95509D01*
X351974Y95222D01*
X351731Y94929D01*
X351495Y94630D01*
X351266Y94325D01*
X351045Y94015D01*
X350832Y93700D01*
X350625Y93380D01*
X350427Y93055D01*
X350237Y92725D01*
X350055Y92391D01*
X349880Y92052D01*
X349714Y91710D01*
X349557Y91363D01*
X349407Y91013D01*
X349266Y90659D01*
X349134Y90302D01*
X349011Y89942D01*
X348896Y89579D01*
X348790Y89213D01*
X348693Y88845D01*
X348604Y88475D01*
X348525Y88102D01*
X348455Y87728D01*
X348393Y87352D01*
X348341Y86975D01*
X348298Y86597D01*
X348264Y86217D01*
X348239Y85838D01*
X348224Y85457D01*
X348217Y85076D01*
X348360Y85076D01*
X348367Y85454D01*
X348382Y85831D01*
X348407Y86207D01*
X348440Y86583D01*
X348483Y86958D01*
X348535Y87331D01*
X348595Y87704D01*
X348665Y88075D01*
X348744Y88444D01*
X348831Y88811D01*
X348928Y89175D01*
X349033Y89538D01*
X349147Y89897D01*
X349269Y90254D01*
X349400Y90608D01*
X349540Y90959D01*
X349687Y91306D01*
X349844Y91649D01*
X350008Y91989D01*
X350181Y92324D01*
X350362Y92655D01*
X350550Y92982D01*
X350747Y93304D01*
X350951Y93621D01*
X351163Y93934D01*
X351382Y94241D01*
X351608Y94542D01*
X351842Y94838D01*
X352083Y95129D01*
X352331Y95413D01*
X352585Y95692D01*
X352846Y95964D01*
X353114Y96230D01*
X353388Y96489D01*
X353668Y96742D01*
X353955Y96988D01*
X354247Y97226D01*
X354545Y97458D01*
X354848Y97683D01*
X354931Y97566D01*
X354630Y97344D01*
X354335Y97114D01*
X354046Y96878D01*
X353763Y96634D01*
X353485Y96384D01*
X353213Y96127D01*
X352948Y95863D01*
X352689Y95594D01*
X352437Y95318D01*
X352192Y95036D01*
X351953Y94748D01*
X351721Y94455D01*
X351497Y94156D01*
X351280Y93852D01*
X351070Y93542D01*
X350868Y93228D01*
X350673Y92909D01*
X350486Y92585D01*
X350307Y92257D01*
X350136Y91925D01*
X349973Y91588D01*
X349818Y91248D01*
X349672Y90904D01*
X349534Y90557D01*
X349404Y90206D01*
X349282Y89853D01*
X349170Y89496D01*
X349066Y89137D01*
X348970Y88776D01*
X348883Y88412D01*
X348805Y88047D01*
X348736Y87679D01*
X348676Y87311D01*
X348625Y86940D01*
X348583Y86569D01*
X348549Y86197D01*
X348525Y85824D01*
X348510Y85450D01*
X348503Y85076D01*
X348646Y85076D01*
X348652Y85447D01*
X348668Y85817D01*
X348692Y86186D01*
X348725Y86555D01*
X348767Y86923D01*
X348818Y87290D01*
X348877Y87655D01*
X348946Y88019D01*
X349023Y88381D01*
X349109Y88741D01*
X349203Y89100D01*
X349307Y89455D01*
X349418Y89808D01*
X349538Y90158D01*
X349667Y90506D01*
X349804Y90850D01*
X349949Y91190D01*
X350103Y91528D01*
X350264Y91861D01*
X350434Y92190D01*
X350611Y92515D01*
X350796Y92836D01*
X350989Y93152D01*
X351189Y93463D01*
X351397Y93770D01*
X351612Y94071D01*
X351835Y94367D01*
X352064Y94658D01*
X352300Y94943D01*
X352544Y95222D01*
X352793Y95496D01*
X353050Y95763D01*
X353313Y96024D01*
X353582Y96278D01*
X353857Y96526D01*
X354137Y96768D01*
X354424Y97002D01*
X354716Y97229D01*
X355014Y97450D01*
X355097Y97333D01*
X354802Y97115D01*
X354513Y96890D01*
X354229Y96658D01*
X353951Y96419D01*
X353678Y96173D01*
X353412Y95921D01*
X353151Y95662D01*
X352898Y95398D01*
X352650Y95127D01*
X352409Y94850D01*
X352175Y94568D01*
X351948Y94280D01*
X351727Y93987D01*
X351514Y93688D01*
X351308Y93384D01*
X351110Y93076D01*
X350919Y92763D01*
X350736Y92445D01*
X350560Y92123D01*
X350392Y91797D01*
X350232Y91467D01*
X350080Y91133D01*
X349936Y90795D01*
X349801Y90455D01*
X349673Y90111D01*
X349554Y89764D01*
X349443Y89414D01*
X349341Y89062D01*
X349248Y88707D01*
X349163Y88350D01*
X349086Y87991D01*
X349018Y87631D01*
X348959Y87269D01*
X348909Y86905D01*
X348867Y86541D01*
X348835Y86176D01*
X348811Y85810D01*
X348795Y85443D01*
X348789Y85076D01*
X348932Y85076D01*
X348938Y85440D01*
X348953Y85803D01*
X348977Y86165D01*
X349010Y86527D01*
X349051Y86888D01*
X349101Y87248D01*
X349159Y87607D01*
X349226Y87964D01*
X349302Y88319D01*
X349386Y88672D01*
X349479Y89024D01*
X349580Y89373D01*
X349690Y89719D01*
X349808Y90063D01*
X349934Y90403D01*
X350069Y90741D01*
X350211Y91075D01*
X350362Y91406D01*
X350520Y91733D01*
X350686Y92056D01*
X350860Y92375D01*
X351042Y92690D01*
X351231Y93000D01*
X351428Y93305D01*
X351632Y93606D01*
X351843Y93902D01*
X352061Y94192D01*
X352286Y94478D01*
X352518Y94757D01*
X352756Y95031D01*
X353002Y95300D01*
X353253Y95562D01*
X353511Y95818D01*
X353775Y96068D01*
X354045Y96311D01*
X354320Y96548D01*
X354602Y96778D01*
X354888Y97001D01*
X355180Y97217D01*
X355263Y97101D01*
X354974Y96887D01*
X354690Y96665D01*
X354412Y96438D01*
X354139Y96203D01*
X353871Y95962D01*
X353610Y95715D01*
X353355Y95461D01*
X353106Y95201D01*
X352863Y94936D01*
X352627Y94664D01*
X352397Y94387D01*
X352174Y94105D01*
X351958Y93817D01*
X351749Y93524D01*
X351547Y93227D01*
X351352Y92924D01*
X351165Y92617D01*
X350985Y92305D01*
X350813Y91989D01*
X350648Y91669D01*
X350491Y91345D01*
X350342Y91018D01*
X350201Y90687D01*
X350068Y90352D01*
X349943Y90015D01*
X349826Y89675D01*
X349717Y89331D01*
X349617Y88986D01*
X349525Y88638D01*
X349442Y88288D01*
X349367Y87936D01*
X349300Y87582D01*
X349242Y87227D01*
X349193Y86871D01*
X349152Y86513D01*
X349120Y86155D01*
X349096Y85796D01*
X349081Y85436D01*
X349075Y85076D01*
X349218Y85076D01*
X349224Y85433D01*
X349239Y85789D01*
X349262Y86144D01*
X349294Y86499D01*
X349335Y86853D01*
X349384Y87206D01*
X349441Y87558D01*
X349507Y87908D01*
X349581Y88257D01*
X349664Y88603D01*
X349755Y88948D01*
X349854Y89290D01*
X349962Y89630D01*
X350078Y89967D01*
X350201Y90301D01*
X350333Y90632D01*
X350473Y90960D01*
X350620Y91285D01*
X350776Y91605D01*
X350939Y91922D01*
X351110Y92235D01*
X351288Y92544D01*
X351473Y92848D01*
X351666Y93148D01*
X351866Y93443D01*
X352073Y93733D01*
X352287Y94018D01*
X352508Y94297D01*
X352735Y94572D01*
X352969Y94840D01*
X353210Y95103D01*
X353456Y95361D01*
X353709Y95612D01*
X353968Y95857D01*
X354233Y96095D01*
X354503Y96328D01*
X354779Y96553D01*
X355060Y96772D01*
X355346Y96984D01*
X355430Y96868D01*
X355146Y96658D01*
X354868Y96441D01*
X354594Y96218D01*
X354327Y95988D01*
X354065Y95751D01*
X353809Y95509D01*
X353558Y95260D01*
X353314Y95005D01*
X353076Y94745D01*
X352844Y94479D01*
X352619Y94207D01*
X352400Y93930D01*
X352188Y93648D01*
X351983Y93361D01*
X351785Y93069D01*
X351594Y92772D01*
X351411Y92471D01*
X351234Y92165D01*
X351065Y91855D01*
X350904Y91541D01*
X350750Y91224D01*
X350604Y90903D01*
X350465Y90578D01*
X350335Y90250D01*
X350212Y89919D01*
X350098Y89585D01*
X349991Y89249D01*
X349893Y88910D01*
X349803Y88569D01*
X349721Y88226D01*
X349647Y87881D01*
X349582Y87534D01*
X349525Y87185D01*
X349477Y86836D01*
X349437Y86485D01*
X349405Y86134D01*
X349382Y85782D01*
X349367Y85429D01*
X349361Y85076D01*
X348075Y84925D02*
X349447Y84925D01*
X349446Y84924D02*
X349452Y84573D01*
X349467Y84222D01*
X349490Y83872D01*
X349521Y83522D01*
X349561Y83173D01*
X349609Y82825D01*
X349666Y82479D01*
X349731Y82134D01*
X349804Y81790D01*
X349886Y81449D01*
X349976Y81109D01*
X350074Y80772D01*
X350180Y80437D01*
X350294Y80105D01*
X350416Y79776D01*
X350546Y79450D01*
X350684Y79127D01*
X350829Y78807D01*
X350983Y78491D01*
X351143Y78179D01*
X351312Y77871D01*
X351487Y77567D01*
X351670Y77267D01*
X351860Y76972D01*
X352058Y76681D01*
X352262Y76396D01*
X352473Y76115D01*
X352691Y75840D01*
X352915Y75569D01*
X353146Y75305D01*
X353383Y75046D01*
X353626Y74792D01*
X353875Y74545D01*
X354130Y74304D01*
X354391Y74069D01*
X354658Y73840D01*
X354930Y73618D01*
X355207Y73403D01*
X354384Y72305D01*
X354080Y72541D01*
X353782Y72784D01*
X353490Y73034D01*
X353204Y73292D01*
X352924Y73556D01*
X352651Y73827D01*
X352385Y74104D01*
X352125Y74388D01*
X351872Y74677D01*
X351626Y74973D01*
X351388Y75275D01*
X351157Y75582D01*
X350933Y75895D01*
X350717Y76214D01*
X350509Y76537D01*
X350308Y76865D01*
X350116Y77198D01*
X349932Y77536D01*
X349755Y77878D01*
X349588Y78224D01*
X349428Y78574D01*
X349277Y78928D01*
X349135Y79285D01*
X349001Y79646D01*
X348876Y80009D01*
X348760Y80376D01*
X348653Y80745D01*
X348555Y81117D01*
X348465Y81491D01*
X348385Y81867D01*
X348314Y82245D01*
X348252Y82625D01*
X348199Y83006D01*
X348156Y83388D01*
X348121Y83771D01*
X348096Y84155D01*
X348081Y84539D01*
X348074Y84924D01*
X348217Y84924D01*
X348224Y84543D01*
X348239Y84162D01*
X348264Y83782D01*
X348298Y83402D01*
X348341Y83023D01*
X348394Y82646D01*
X348455Y82270D01*
X348525Y81895D01*
X348605Y81522D01*
X348693Y81152D01*
X348791Y80783D01*
X348897Y80417D01*
X349012Y80054D01*
X349136Y79693D01*
X349268Y79336D01*
X349409Y78982D01*
X349559Y78631D01*
X349717Y78285D01*
X349883Y77942D01*
X350058Y77603D01*
X350240Y77268D01*
X350431Y76938D01*
X350630Y76613D01*
X350836Y76293D01*
X351050Y75977D01*
X351272Y75667D01*
X351501Y75363D01*
X351737Y75064D01*
X351981Y74770D01*
X352231Y74483D01*
X352489Y74202D01*
X352753Y73927D01*
X353024Y73659D01*
X353301Y73397D01*
X353584Y73142D01*
X353873Y72894D01*
X354169Y72653D01*
X354470Y72419D01*
X354555Y72534D01*
X354257Y72765D01*
X353965Y73004D01*
X353678Y73250D01*
X353397Y73503D01*
X353123Y73762D01*
X352854Y74028D01*
X352593Y74300D01*
X352338Y74579D01*
X352090Y74863D01*
X351848Y75154D01*
X351614Y75450D01*
X351387Y75752D01*
X351168Y76059D01*
X350955Y76372D01*
X350751Y76689D01*
X350554Y77011D01*
X350365Y77338D01*
X350184Y77670D01*
X350011Y78006D01*
X349846Y78345D01*
X349690Y78689D01*
X349542Y79036D01*
X349402Y79387D01*
X349271Y79741D01*
X349148Y80098D01*
X349034Y80459D01*
X348929Y80821D01*
X348832Y81186D01*
X348744Y81554D01*
X348666Y81923D01*
X348596Y82294D01*
X348535Y82667D01*
X348483Y83041D01*
X348440Y83416D01*
X348407Y83792D01*
X348382Y84169D01*
X348367Y84546D01*
X348360Y84924D01*
X348503Y84924D01*
X348510Y84550D01*
X348525Y84176D01*
X348549Y83803D01*
X348583Y83430D01*
X348625Y83058D01*
X348676Y82688D01*
X348737Y82318D01*
X348806Y81951D01*
X348884Y81585D01*
X348971Y81221D01*
X349066Y80859D01*
X349171Y80500D01*
X349284Y80143D01*
X349405Y79789D01*
X349535Y79438D01*
X349674Y79091D01*
X349821Y78747D01*
X349976Y78406D01*
X350139Y78070D01*
X350310Y77737D01*
X350490Y77409D01*
X350677Y77085D01*
X350872Y76765D01*
X351075Y76451D01*
X351285Y76141D01*
X351502Y75837D01*
X351727Y75538D01*
X351959Y75244D01*
X352198Y74956D01*
X352444Y74674D01*
X352697Y74398D01*
X352956Y74129D01*
X353222Y73865D01*
X353494Y73608D01*
X353772Y73358D01*
X354056Y73114D01*
X354346Y72878D01*
X354641Y72648D01*
X354727Y72763D01*
X354434Y72990D01*
X354147Y73224D01*
X353866Y73466D01*
X353590Y73714D01*
X353321Y73968D01*
X353058Y74229D01*
X352801Y74497D01*
X352551Y74770D01*
X352307Y75049D01*
X352070Y75334D01*
X351840Y75625D01*
X351617Y75922D01*
X351402Y76223D01*
X351194Y76530D01*
X350993Y76841D01*
X350800Y77158D01*
X350614Y77479D01*
X350437Y77804D01*
X350267Y78133D01*
X350105Y78467D01*
X349952Y78804D01*
X349806Y79145D01*
X349669Y79490D01*
X349540Y79837D01*
X349420Y80188D01*
X349308Y80541D01*
X349204Y80897D01*
X349110Y81255D01*
X349024Y81616D01*
X348946Y81978D01*
X348878Y82343D01*
X348818Y82709D01*
X348767Y83076D01*
X348725Y83444D01*
X348692Y83813D01*
X348668Y84183D01*
X348652Y84553D01*
X348646Y84924D01*
X348789Y84924D01*
X348795Y84557D01*
X348811Y84190D01*
X348835Y83824D01*
X348867Y83458D01*
X348909Y83093D01*
X348959Y82729D01*
X349019Y82367D01*
X349087Y82006D01*
X349163Y81647D01*
X349248Y81290D01*
X349342Y80935D01*
X349445Y80582D01*
X349555Y80232D01*
X349675Y79885D01*
X349802Y79541D01*
X349938Y79200D01*
X350082Y78862D01*
X350235Y78528D01*
X350395Y78197D01*
X350563Y77871D01*
X350739Y77549D01*
X350923Y77231D01*
X351114Y76917D01*
X351313Y76609D01*
X351519Y76305D01*
X351733Y76006D01*
X351953Y75713D01*
X352181Y75425D01*
X352416Y75142D01*
X352657Y74866D01*
X352905Y74595D01*
X353159Y74330D01*
X353420Y74071D01*
X353687Y73819D01*
X353960Y73573D01*
X354238Y73334D01*
X354523Y73102D01*
X354813Y72877D01*
X354899Y72991D01*
X354611Y73215D01*
X354330Y73445D01*
X354054Y73681D01*
X353783Y73925D01*
X353519Y74174D01*
X353261Y74431D01*
X353009Y74693D01*
X352763Y74961D01*
X352524Y75235D01*
X352292Y75515D01*
X352066Y75800D01*
X351848Y76091D01*
X351636Y76387D01*
X351432Y76688D01*
X351235Y76994D01*
X351046Y77304D01*
X350864Y77619D01*
X350689Y77938D01*
X350523Y78261D01*
X350364Y78589D01*
X350213Y78920D01*
X350071Y79254D01*
X349936Y79592D01*
X349810Y79933D01*
X349691Y80277D01*
X349582Y80624D01*
X349480Y80973D01*
X349387Y81324D01*
X349303Y81678D01*
X349227Y82034D01*
X349160Y82391D01*
X349101Y82750D01*
X349051Y83111D01*
X349010Y83472D01*
X348977Y83834D01*
X348953Y84197D01*
X348938Y84560D01*
X348932Y84924D01*
X349075Y84924D01*
X349081Y84564D01*
X349096Y84204D01*
X349120Y83845D01*
X349152Y83486D01*
X349193Y83128D01*
X349242Y82771D01*
X349300Y82416D01*
X349367Y82062D01*
X349442Y81709D01*
X349526Y81359D01*
X349618Y81011D01*
X349718Y80665D01*
X349827Y80322D01*
X349944Y79981D01*
X350069Y79643D01*
X350203Y79309D01*
X350344Y78977D01*
X350493Y78649D01*
X350651Y78325D01*
X350816Y78005D01*
X350988Y77689D01*
X351168Y77377D01*
X351356Y77070D01*
X351551Y76767D01*
X351754Y76469D01*
X351963Y76176D01*
X352179Y75888D01*
X352403Y75605D01*
X352633Y75328D01*
X352870Y75057D01*
X353113Y74791D01*
X353362Y74531D01*
X353618Y74278D01*
X353880Y74030D01*
X354148Y73789D01*
X354421Y73555D01*
X354700Y73327D01*
X354984Y73106D01*
X355070Y73220D01*
X354788Y73439D01*
X354512Y73665D01*
X354241Y73897D01*
X353976Y74136D01*
X353717Y74381D01*
X353464Y74632D01*
X353217Y74889D01*
X352976Y75152D01*
X352742Y75421D01*
X352514Y75696D01*
X352293Y75975D01*
X352078Y76261D01*
X351871Y76551D01*
X351670Y76846D01*
X351477Y77146D01*
X351291Y77450D01*
X351113Y77759D01*
X350942Y78072D01*
X350779Y78389D01*
X350623Y78710D01*
X350475Y79035D01*
X350335Y79363D01*
X350203Y79694D01*
X350079Y80029D01*
X349963Y80366D01*
X349855Y80706D01*
X349756Y81049D01*
X349665Y81394D01*
X349582Y81741D01*
X349507Y82089D01*
X349441Y82440D01*
X349384Y82792D01*
X349335Y83145D01*
X349294Y83500D01*
X349262Y83855D01*
X349239Y84211D01*
X349224Y84567D01*
X349218Y84924D01*
X349361Y84924D01*
X349367Y84571D01*
X349382Y84218D01*
X349405Y83865D01*
X349437Y83514D01*
X349477Y83163D01*
X349525Y82813D01*
X349582Y82464D01*
X349648Y82117D01*
X349721Y81772D01*
X349803Y81428D01*
X349894Y81087D01*
X349992Y80747D01*
X350099Y80411D01*
X350214Y80077D01*
X350337Y79745D01*
X350467Y79417D01*
X350606Y79092D01*
X350752Y78771D01*
X350906Y78453D01*
X351068Y78139D01*
X351238Y77829D01*
X351414Y77523D01*
X351598Y77222D01*
X351790Y76925D01*
X351988Y76633D01*
X352193Y76345D01*
X352406Y76063D01*
X352625Y75786D01*
X352850Y75514D01*
X353082Y75248D01*
X353321Y74987D01*
X353565Y74733D01*
X353816Y74484D01*
X354073Y74241D01*
X354335Y74005D01*
X354603Y73775D01*
X354877Y73551D01*
X355156Y73335D01*
X379925Y85076D02*
X378553Y85076D01*
X378554Y85076D02*
X378548Y85430D01*
X378533Y85783D01*
X378510Y86136D01*
X378478Y86488D01*
X378437Y86840D01*
X378388Y87190D01*
X378331Y87539D01*
X378265Y87887D01*
X378190Y88233D01*
X378108Y88577D01*
X378017Y88918D01*
X377917Y89258D01*
X377810Y89595D01*
X377694Y89929D01*
X377570Y90261D01*
X377438Y90589D01*
X377298Y90914D01*
X377151Y91235D01*
X376995Y91553D01*
X376832Y91867D01*
X376661Y92177D01*
X376483Y92482D01*
X376298Y92784D01*
X376105Y93080D01*
X375905Y93372D01*
X375698Y93659D01*
X375484Y93941D01*
X375263Y94217D01*
X375036Y94488D01*
X374802Y94753D01*
X374562Y95013D01*
X374316Y95267D01*
X374063Y95515D01*
X373804Y95756D01*
X373540Y95991D01*
X373270Y96220D01*
X372995Y96442D01*
X373837Y97524D01*
X373837Y97525D01*
X374139Y97282D01*
X374435Y97031D01*
X374724Y96774D01*
X375008Y96510D01*
X375284Y96238D01*
X375554Y95961D01*
X375818Y95676D01*
X376074Y95386D01*
X376323Y95089D01*
X376565Y94786D01*
X376799Y94477D01*
X377026Y94163D01*
X377245Y93844D01*
X377456Y93519D01*
X377659Y93189D01*
X377855Y92854D01*
X378042Y92515D01*
X378220Y92171D01*
X378390Y91823D01*
X378552Y91471D01*
X378705Y91115D01*
X378850Y90755D01*
X378985Y90392D01*
X379112Y90026D01*
X379230Y89657D01*
X379339Y89285D01*
X379438Y88911D01*
X379529Y88534D01*
X379610Y88155D01*
X379682Y87774D01*
X379745Y87392D01*
X379799Y87008D01*
X379843Y86623D01*
X379878Y86237D01*
X379903Y85851D01*
X379919Y85464D01*
X379926Y85076D01*
X379783Y85076D01*
X379776Y85460D01*
X379760Y85844D01*
X379735Y86227D01*
X379701Y86609D01*
X379657Y86991D01*
X379604Y87371D01*
X379542Y87750D01*
X379470Y88127D01*
X379389Y88502D01*
X379300Y88876D01*
X379201Y89247D01*
X379093Y89615D01*
X378976Y89981D01*
X378851Y90344D01*
X378716Y90704D01*
X378573Y91060D01*
X378422Y91413D01*
X378261Y91762D01*
X378093Y92107D01*
X377916Y92447D01*
X377730Y92784D01*
X377537Y93115D01*
X377335Y93442D01*
X377126Y93764D01*
X376909Y94081D01*
X376684Y94392D01*
X376452Y94698D01*
X376212Y94998D01*
X375966Y95292D01*
X375712Y95580D01*
X375451Y95862D01*
X375183Y96137D01*
X374909Y96406D01*
X374628Y96668D01*
X374341Y96923D01*
X374048Y97171D01*
X373749Y97412D01*
X373661Y97299D01*
X373958Y97060D01*
X374248Y96815D01*
X374532Y96562D01*
X374811Y96302D01*
X375082Y96036D01*
X375347Y95763D01*
X375606Y95484D01*
X375857Y95199D01*
X376102Y94907D01*
X376339Y94610D01*
X376570Y94307D01*
X376792Y93998D01*
X377007Y93684D01*
X377215Y93366D01*
X377414Y93042D01*
X377606Y92713D01*
X377789Y92380D01*
X377965Y92042D01*
X378132Y91700D01*
X378291Y91355D01*
X378441Y91005D01*
X378583Y90652D01*
X378716Y90296D01*
X378841Y89936D01*
X378956Y89574D01*
X379063Y89209D01*
X379161Y88841D01*
X379250Y88471D01*
X379330Y88099D01*
X379401Y87725D01*
X379462Y87350D01*
X379515Y86973D01*
X379558Y86595D01*
X379593Y86216D01*
X379618Y85837D01*
X379633Y85456D01*
X379640Y85076D01*
X379497Y85076D01*
X379490Y85453D01*
X379475Y85830D01*
X379450Y86206D01*
X379416Y86581D01*
X379373Y86956D01*
X379321Y87329D01*
X379260Y87701D01*
X379190Y88071D01*
X379110Y88440D01*
X379022Y88806D01*
X378925Y89170D01*
X378819Y89532D01*
X378705Y89891D01*
X378582Y90247D01*
X378450Y90601D01*
X378309Y90950D01*
X378160Y91297D01*
X378003Y91639D01*
X377837Y91978D01*
X377663Y92312D01*
X377482Y92642D01*
X377292Y92968D01*
X377094Y93289D01*
X376888Y93605D01*
X376675Y93916D01*
X376455Y94221D01*
X376227Y94522D01*
X375992Y94816D01*
X375749Y95105D01*
X375500Y95388D01*
X375244Y95664D01*
X374981Y95935D01*
X374712Y96199D01*
X374437Y96456D01*
X374155Y96706D01*
X373867Y96950D01*
X373574Y97186D01*
X373486Y97073D01*
X373777Y96839D01*
X374062Y96598D01*
X374341Y96350D01*
X374614Y96095D01*
X374880Y95833D01*
X375141Y95566D01*
X375394Y95292D01*
X375641Y95011D01*
X375881Y94725D01*
X376114Y94434D01*
X376340Y94136D01*
X376559Y93833D01*
X376770Y93525D01*
X376973Y93212D01*
X377169Y92894D01*
X377357Y92572D01*
X377537Y92245D01*
X377710Y91913D01*
X377874Y91578D01*
X378029Y91239D01*
X378177Y90896D01*
X378316Y90549D01*
X378447Y90199D01*
X378569Y89846D01*
X378683Y89491D01*
X378787Y89132D01*
X378884Y88771D01*
X378971Y88408D01*
X379049Y88043D01*
X379119Y87676D01*
X379180Y87308D01*
X379231Y86938D01*
X379274Y86567D01*
X379307Y86195D01*
X379332Y85823D01*
X379347Y85449D01*
X379354Y85076D01*
X379211Y85076D01*
X379204Y85446D01*
X379189Y85816D01*
X379165Y86185D01*
X379132Y86553D01*
X379089Y86921D01*
X379038Y87287D01*
X378978Y87652D01*
X378909Y88015D01*
X378831Y88377D01*
X378745Y88737D01*
X378650Y89094D01*
X378546Y89449D01*
X378433Y89801D01*
X378312Y90151D01*
X378183Y90497D01*
X378045Y90841D01*
X377899Y91180D01*
X377744Y91517D01*
X377582Y91849D01*
X377411Y92177D01*
X377233Y92501D01*
X377046Y92821D01*
X376852Y93136D01*
X376651Y93446D01*
X376442Y93751D01*
X376225Y94051D01*
X376002Y94345D01*
X375771Y94634D01*
X375533Y94918D01*
X375288Y95195D01*
X375037Y95467D01*
X374779Y95732D01*
X374515Y95991D01*
X374245Y96244D01*
X373968Y96489D01*
X373686Y96728D01*
X373398Y96960D01*
X373310Y96848D01*
X373596Y96618D01*
X373875Y96381D01*
X374149Y96137D01*
X374417Y95887D01*
X374678Y95631D01*
X374934Y95368D01*
X375183Y95099D01*
X375425Y94824D01*
X375660Y94544D01*
X375889Y94257D01*
X376111Y93966D01*
X376325Y93668D01*
X376532Y93366D01*
X376732Y93059D01*
X376924Y92747D01*
X377108Y92431D01*
X377285Y92110D01*
X377454Y91785D01*
X377615Y91455D01*
X377768Y91122D01*
X377913Y90786D01*
X378049Y90446D01*
X378178Y90103D01*
X378298Y89756D01*
X378409Y89407D01*
X378512Y89056D01*
X378606Y88702D01*
X378692Y88346D01*
X378769Y87987D01*
X378837Y87627D01*
X378897Y87266D01*
X378947Y86903D01*
X378989Y86539D01*
X379022Y86174D01*
X379046Y85808D01*
X379062Y85442D01*
X379068Y85076D01*
X378925Y85076D01*
X378919Y85439D01*
X378903Y85801D01*
X378880Y86164D01*
X378847Y86525D01*
X378805Y86885D01*
X378755Y87245D01*
X378696Y87603D01*
X378629Y87959D01*
X378552Y88314D01*
X378468Y88667D01*
X378374Y89018D01*
X378272Y89366D01*
X378162Y89712D01*
X378043Y90054D01*
X377916Y90394D01*
X377781Y90731D01*
X377637Y91064D01*
X377486Y91394D01*
X377327Y91720D01*
X377159Y92042D01*
X376984Y92360D01*
X376801Y92673D01*
X376611Y92982D01*
X376413Y93287D01*
X376208Y93586D01*
X375996Y93880D01*
X375776Y94169D01*
X375550Y94453D01*
X375317Y94731D01*
X375077Y95003D01*
X374830Y95269D01*
X374577Y95530D01*
X374318Y95784D01*
X374053Y96031D01*
X373782Y96272D01*
X373505Y96507D01*
X373222Y96735D01*
X373135Y96622D01*
X373415Y96396D01*
X373689Y96164D01*
X373957Y95925D01*
X374220Y95680D01*
X374476Y95428D01*
X374727Y95171D01*
X374971Y94907D01*
X375209Y94637D01*
X375439Y94362D01*
X375664Y94081D01*
X375881Y93795D01*
X376091Y93503D01*
X376294Y93207D01*
X376490Y92906D01*
X376679Y92600D01*
X376860Y92289D01*
X377033Y91975D01*
X377199Y91656D01*
X377357Y91333D01*
X377507Y91006D01*
X377649Y90676D01*
X377783Y90343D01*
X377908Y90006D01*
X378026Y89667D01*
X378135Y89324D01*
X378236Y88979D01*
X378329Y88632D01*
X378413Y88283D01*
X378488Y87931D01*
X378555Y87578D01*
X378614Y87224D01*
X378664Y86868D01*
X378705Y86511D01*
X378737Y86153D01*
X378761Y85794D01*
X378776Y85435D01*
X378782Y85076D01*
X378639Y85076D01*
X378633Y85432D01*
X378618Y85787D01*
X378594Y86142D01*
X378562Y86497D01*
X378522Y86850D01*
X378472Y87203D01*
X378415Y87554D01*
X378348Y87903D01*
X378273Y88251D01*
X378190Y88597D01*
X378098Y88941D01*
X377999Y89283D01*
X377890Y89622D01*
X377774Y89958D01*
X377649Y90291D01*
X377517Y90621D01*
X377376Y90948D01*
X377227Y91272D01*
X377071Y91591D01*
X376907Y91907D01*
X376735Y92219D01*
X376556Y92526D01*
X376370Y92829D01*
X376176Y93127D01*
X375974Y93421D01*
X375766Y93710D01*
X375551Y93993D01*
X375329Y94271D01*
X375100Y94544D01*
X374865Y94811D01*
X374623Y95072D01*
X374376Y95327D01*
X374121Y95576D01*
X373861Y95819D01*
X373596Y96056D01*
X373324Y96286D01*
X373047Y96509D01*
X373837Y72476D02*
X372994Y73559D01*
X372995Y73558D02*
X373270Y73780D01*
X373540Y74009D01*
X373804Y74244D01*
X374063Y74485D01*
X374316Y74733D01*
X374562Y74987D01*
X374802Y75247D01*
X375036Y75512D01*
X375263Y75783D01*
X375484Y76059D01*
X375698Y76341D01*
X375905Y76628D01*
X376105Y76920D01*
X376298Y77216D01*
X376483Y77518D01*
X376661Y77823D01*
X376832Y78133D01*
X376995Y78447D01*
X377151Y78765D01*
X377298Y79086D01*
X377438Y79411D01*
X377570Y79739D01*
X377694Y80071D01*
X377810Y80405D01*
X377917Y80742D01*
X378017Y81082D01*
X378108Y81423D01*
X378190Y81767D01*
X378265Y82113D01*
X378331Y82461D01*
X378388Y82810D01*
X378437Y83160D01*
X378478Y83512D01*
X378510Y83864D01*
X378533Y84217D01*
X378548Y84570D01*
X378554Y84924D01*
X379925Y84924D01*
X379926Y84924D01*
X379919Y84536D01*
X379903Y84149D01*
X379878Y83763D01*
X379843Y83377D01*
X379799Y82992D01*
X379745Y82608D01*
X379682Y82226D01*
X379610Y81845D01*
X379529Y81466D01*
X379438Y81089D01*
X379339Y80715D01*
X379230Y80343D01*
X379112Y79974D01*
X378985Y79608D01*
X378850Y79245D01*
X378705Y78885D01*
X378552Y78529D01*
X378390Y78177D01*
X378220Y77829D01*
X378042Y77485D01*
X377855Y77146D01*
X377659Y76811D01*
X377456Y76481D01*
X377245Y76156D01*
X377026Y75837D01*
X376799Y75523D01*
X376565Y75214D01*
X376323Y74911D01*
X376074Y74614D01*
X375818Y74324D01*
X375554Y74039D01*
X375284Y73762D01*
X375008Y73490D01*
X374724Y73226D01*
X374435Y72969D01*
X374139Y72718D01*
X373837Y72475D01*
X373749Y72588D01*
X374048Y72829D01*
X374341Y73077D01*
X374628Y73332D01*
X374909Y73594D01*
X375183Y73863D01*
X375451Y74138D01*
X375712Y74420D01*
X375966Y74708D01*
X376212Y75002D01*
X376452Y75302D01*
X376684Y75608D01*
X376909Y75919D01*
X377126Y76236D01*
X377335Y76558D01*
X377537Y76885D01*
X377730Y77216D01*
X377916Y77553D01*
X378093Y77893D01*
X378261Y78238D01*
X378422Y78587D01*
X378573Y78940D01*
X378716Y79296D01*
X378851Y79656D01*
X378976Y80019D01*
X379093Y80385D01*
X379201Y80753D01*
X379300Y81124D01*
X379389Y81498D01*
X379470Y81873D01*
X379542Y82250D01*
X379604Y82629D01*
X379657Y83009D01*
X379701Y83391D01*
X379735Y83773D01*
X379760Y84156D01*
X379776Y84540D01*
X379783Y84924D01*
X379640Y84924D01*
X379633Y84544D01*
X379618Y84163D01*
X379593Y83784D01*
X379558Y83405D01*
X379515Y83027D01*
X379462Y82650D01*
X379401Y82275D01*
X379330Y81901D01*
X379250Y81529D01*
X379161Y81159D01*
X379063Y80791D01*
X378956Y80426D01*
X378841Y80064D01*
X378716Y79704D01*
X378583Y79348D01*
X378441Y78995D01*
X378291Y78645D01*
X378132Y78300D01*
X377965Y77958D01*
X377789Y77620D01*
X377606Y77287D01*
X377414Y76958D01*
X377215Y76634D01*
X377007Y76316D01*
X376792Y76002D01*
X376570Y75693D01*
X376339Y75390D01*
X376102Y75093D01*
X375857Y74801D01*
X375606Y74516D01*
X375347Y74237D01*
X375082Y73964D01*
X374811Y73698D01*
X374532Y73438D01*
X374248Y73185D01*
X373958Y72940D01*
X373661Y72701D01*
X373574Y72814D01*
X373867Y73050D01*
X374155Y73294D01*
X374437Y73544D01*
X374712Y73801D01*
X374981Y74065D01*
X375244Y74336D01*
X375500Y74612D01*
X375749Y74895D01*
X375992Y75184D01*
X376227Y75478D01*
X376455Y75779D01*
X376675Y76084D01*
X376888Y76395D01*
X377094Y76711D01*
X377292Y77032D01*
X377482Y77358D01*
X377663Y77688D01*
X377837Y78022D01*
X378003Y78361D01*
X378160Y78703D01*
X378309Y79050D01*
X378450Y79399D01*
X378582Y79753D01*
X378705Y80109D01*
X378819Y80468D01*
X378925Y80830D01*
X379022Y81194D01*
X379110Y81560D01*
X379190Y81929D01*
X379260Y82299D01*
X379321Y82671D01*
X379373Y83044D01*
X379416Y83419D01*
X379450Y83794D01*
X379475Y84170D01*
X379490Y84547D01*
X379497Y84924D01*
X379354Y84924D01*
X379347Y84551D01*
X379332Y84177D01*
X379307Y83805D01*
X379274Y83433D01*
X379231Y83062D01*
X379180Y82692D01*
X379119Y82324D01*
X379049Y81957D01*
X378971Y81592D01*
X378884Y81229D01*
X378787Y80868D01*
X378683Y80509D01*
X378569Y80154D01*
X378447Y79801D01*
X378316Y79451D01*
X378177Y79104D01*
X378029Y78761D01*
X377874Y78422D01*
X377710Y78087D01*
X377537Y77755D01*
X377357Y77428D01*
X377169Y77106D01*
X376973Y76788D01*
X376770Y76475D01*
X376559Y76167D01*
X376340Y75864D01*
X376114Y75566D01*
X375881Y75275D01*
X375641Y74989D01*
X375394Y74708D01*
X375141Y74434D01*
X374880Y74167D01*
X374614Y73905D01*
X374341Y73650D01*
X374062Y73402D01*
X373777Y73161D01*
X373486Y72927D01*
X373398Y73040D01*
X373686Y73272D01*
X373968Y73511D01*
X374245Y73756D01*
X374515Y74009D01*
X374779Y74268D01*
X375037Y74533D01*
X375288Y74805D01*
X375533Y75082D01*
X375771Y75366D01*
X376002Y75655D01*
X376225Y75949D01*
X376442Y76249D01*
X376651Y76554D01*
X376852Y76864D01*
X377046Y77179D01*
X377233Y77499D01*
X377411Y77823D01*
X377582Y78151D01*
X377744Y78483D01*
X377899Y78820D01*
X378045Y79159D01*
X378183Y79503D01*
X378312Y79849D01*
X378433Y80199D01*
X378546Y80551D01*
X378650Y80906D01*
X378745Y81263D01*
X378831Y81623D01*
X378909Y81985D01*
X378978Y82348D01*
X379038Y82713D01*
X379089Y83079D01*
X379132Y83447D01*
X379165Y83815D01*
X379189Y84184D01*
X379204Y84554D01*
X379211Y84924D01*
X379068Y84924D01*
X379062Y84558D01*
X379046Y84192D01*
X379022Y83826D01*
X378989Y83461D01*
X378947Y83097D01*
X378897Y82734D01*
X378837Y82373D01*
X378769Y82013D01*
X378692Y81654D01*
X378606Y81298D01*
X378512Y80944D01*
X378409Y80593D01*
X378298Y80244D01*
X378178Y79897D01*
X378049Y79554D01*
X377913Y79214D01*
X377768Y78878D01*
X377615Y78545D01*
X377454Y78215D01*
X377285Y77890D01*
X377108Y77569D01*
X376924Y77253D01*
X376732Y76941D01*
X376532Y76634D01*
X376325Y76332D01*
X376111Y76034D01*
X375889Y75743D01*
X375660Y75456D01*
X375425Y75176D01*
X375183Y74901D01*
X374934Y74632D01*
X374678Y74369D01*
X374417Y74113D01*
X374149Y73863D01*
X373875Y73619D01*
X373596Y73382D01*
X373310Y73152D01*
X373222Y73265D01*
X373505Y73493D01*
X373782Y73728D01*
X374053Y73969D01*
X374318Y74216D01*
X374577Y74470D01*
X374830Y74731D01*
X375077Y74997D01*
X375317Y75269D01*
X375550Y75547D01*
X375776Y75831D01*
X375996Y76120D01*
X376208Y76414D01*
X376413Y76713D01*
X376611Y77018D01*
X376801Y77327D01*
X376984Y77640D01*
X377159Y77958D01*
X377327Y78280D01*
X377486Y78606D01*
X377637Y78936D01*
X377781Y79269D01*
X377916Y79606D01*
X378043Y79946D01*
X378162Y80288D01*
X378272Y80634D01*
X378374Y80982D01*
X378468Y81333D01*
X378552Y81686D01*
X378629Y82041D01*
X378696Y82397D01*
X378755Y82755D01*
X378805Y83115D01*
X378847Y83475D01*
X378880Y83836D01*
X378903Y84199D01*
X378919Y84561D01*
X378925Y84924D01*
X378782Y84924D01*
X378776Y84565D01*
X378761Y84206D01*
X378737Y83847D01*
X378705Y83489D01*
X378664Y83132D01*
X378614Y82776D01*
X378555Y82422D01*
X378488Y82069D01*
X378413Y81717D01*
X378329Y81368D01*
X378236Y81021D01*
X378135Y80676D01*
X378026Y80333D01*
X377908Y79994D01*
X377783Y79657D01*
X377649Y79324D01*
X377507Y78994D01*
X377357Y78667D01*
X377199Y78344D01*
X377033Y78025D01*
X376860Y77711D01*
X376679Y77400D01*
X376490Y77094D01*
X376294Y76793D01*
X376091Y76497D01*
X375881Y76205D01*
X375664Y75919D01*
X375439Y75638D01*
X375209Y75363D01*
X374971Y75093D01*
X374727Y74829D01*
X374476Y74572D01*
X374220Y74320D01*
X373957Y74075D01*
X373689Y73836D01*
X373415Y73604D01*
X373135Y73378D01*
X373047Y73491D01*
X373324Y73714D01*
X373596Y73944D01*
X373861Y74181D01*
X374121Y74424D01*
X374376Y74673D01*
X374623Y74928D01*
X374865Y75189D01*
X375100Y75456D01*
X375329Y75729D01*
X375551Y76007D01*
X375766Y76290D01*
X375974Y76579D01*
X376176Y76873D01*
X376370Y77171D01*
X376556Y77474D01*
X376735Y77781D01*
X376907Y78093D01*
X377071Y78409D01*
X377227Y78728D01*
X377376Y79052D01*
X377517Y79379D01*
X377649Y79709D01*
X377774Y80042D01*
X377890Y80378D01*
X377999Y80717D01*
X378098Y81059D01*
X378190Y81403D01*
X378273Y81749D01*
X378348Y82097D01*
X378415Y82446D01*
X378472Y82797D01*
X378522Y83150D01*
X378562Y83503D01*
X378594Y83858D01*
X378618Y84213D01*
X378633Y84568D01*
X378639Y84924D01*
D16*
X350162Y101406D02*
X351626Y99650D01*
X351625Y99650D02*
X351278Y99349D01*
X350938Y99040D01*
X350605Y98723D01*
X350280Y98398D01*
X349963Y98066D01*
X349654Y97726D01*
X349353Y97378D01*
X349060Y97024D01*
X348777Y96662D01*
X348502Y96294D01*
X348235Y95919D01*
X347978Y95538D01*
X347730Y95151D01*
X347492Y94759D01*
X347263Y94360D01*
X347043Y93956D01*
X346833Y93548D01*
X346633Y93134D01*
X346443Y92715D01*
X346264Y92292D01*
X346094Y91865D01*
X345935Y91434D01*
X345786Y90999D01*
X345647Y90561D01*
X345519Y90120D01*
X345402Y89675D01*
X345295Y89228D01*
X345199Y88779D01*
X345114Y88327D01*
X345040Y87874D01*
X344976Y87418D01*
X344924Y86962D01*
X344882Y86504D01*
X344852Y86046D01*
X344832Y85586D01*
X344823Y85127D01*
X342538Y85126D01*
X342537Y85127D01*
X342547Y85642D01*
X342568Y86157D01*
X342602Y86671D01*
X342648Y87184D01*
X342707Y87696D01*
X342778Y88206D01*
X342861Y88715D01*
X342956Y89221D01*
X343064Y89725D01*
X343183Y90226D01*
X343314Y90724D01*
X343458Y91219D01*
X343613Y91710D01*
X343780Y92198D01*
X343959Y92681D01*
X344149Y93160D01*
X344350Y93634D01*
X344563Y94103D01*
X344787Y94567D01*
X345022Y95026D01*
X345269Y95478D01*
X345525Y95925D01*
X345793Y96365D01*
X346071Y96799D01*
X346359Y97226D01*
X346658Y97646D01*
X346967Y98058D01*
X347285Y98464D01*
X347613Y98861D01*
X347950Y99250D01*
X348297Y99631D01*
X348653Y100004D01*
X349017Y100368D01*
X349390Y100723D01*
X349772Y101069D01*
X350162Y101406D01*
X350316Y101222D01*
X349930Y100889D01*
X349553Y100547D01*
X349184Y100195D01*
X348824Y99835D01*
X348472Y99467D01*
X348129Y99090D01*
X347796Y98705D01*
X347471Y98312D01*
X347157Y97912D01*
X346852Y97504D01*
X346556Y97089D01*
X346271Y96667D01*
X345996Y96238D01*
X345732Y95802D01*
X345478Y95361D01*
X345235Y94913D01*
X345002Y94460D01*
X344781Y94002D01*
X344570Y93538D01*
X344371Y93069D01*
X344183Y92595D01*
X344006Y92118D01*
X343841Y91636D01*
X343688Y91150D01*
X343546Y90661D01*
X343416Y90168D01*
X343298Y89673D01*
X343192Y89175D01*
X343097Y88674D01*
X343015Y88171D01*
X342945Y87667D01*
X342887Y87161D01*
X342842Y86653D01*
X342808Y86145D01*
X342787Y85636D01*
X342777Y85127D01*
X343017Y85127D01*
X343026Y85630D01*
X343048Y86133D01*
X343081Y86636D01*
X343126Y87137D01*
X343183Y87638D01*
X343253Y88136D01*
X343334Y88633D01*
X343427Y89128D01*
X343532Y89621D01*
X343649Y90110D01*
X343777Y90597D01*
X343917Y91081D01*
X344069Y91561D01*
X344232Y92037D01*
X344407Y92510D01*
X344593Y92978D01*
X344790Y93441D01*
X344998Y93900D01*
X345217Y94353D01*
X345447Y94801D01*
X345687Y95244D01*
X345938Y95680D01*
X346200Y96110D01*
X346472Y96534D01*
X346753Y96952D01*
X347045Y97362D01*
X347347Y97765D01*
X347658Y98161D01*
X347978Y98550D01*
X348308Y98930D01*
X348647Y99303D01*
X348994Y99667D01*
X349351Y100023D01*
X349715Y100370D01*
X350088Y100708D01*
X350469Y101038D01*
X350623Y100853D01*
X350246Y100528D01*
X349878Y100193D01*
X349517Y99850D01*
X349165Y99498D01*
X348822Y99138D01*
X348487Y98770D01*
X348161Y98394D01*
X347844Y98010D01*
X347537Y97619D01*
X347239Y97220D01*
X346950Y96814D01*
X346672Y96402D01*
X346403Y95983D01*
X346145Y95558D01*
X345897Y95126D01*
X345659Y94689D01*
X345432Y94246D01*
X345215Y93798D01*
X345010Y93345D01*
X344815Y92887D01*
X344631Y92424D01*
X344459Y91957D01*
X344297Y91486D01*
X344147Y91012D01*
X344009Y90534D01*
X343882Y90053D01*
X343766Y89569D01*
X343663Y89082D01*
X343570Y88593D01*
X343490Y88101D01*
X343422Y87609D01*
X343365Y87114D01*
X343320Y86618D01*
X343287Y86122D01*
X343266Y85624D01*
X343257Y85127D01*
X343497Y85127D01*
X343506Y85619D01*
X343527Y86110D01*
X343560Y86601D01*
X343604Y87091D01*
X343660Y87579D01*
X343728Y88067D01*
X343807Y88552D01*
X343898Y89035D01*
X344001Y89516D01*
X344115Y89995D01*
X344240Y90470D01*
X344377Y90943D01*
X344525Y91412D01*
X344685Y91877D01*
X344855Y92338D01*
X345037Y92796D01*
X345229Y93248D01*
X345433Y93696D01*
X345646Y94139D01*
X345871Y94577D01*
X346106Y95009D01*
X346351Y95435D01*
X346607Y95855D01*
X346872Y96270D01*
X347147Y96677D01*
X347432Y97078D01*
X347727Y97472D01*
X348031Y97859D01*
X348344Y98238D01*
X348666Y98610D01*
X348997Y98974D01*
X349336Y99330D01*
X349684Y99677D01*
X350040Y100017D01*
X350404Y100347D01*
X350777Y100669D01*
X350930Y100484D01*
X350563Y100167D01*
X350203Y99840D01*
X349851Y99505D01*
X349507Y99161D01*
X349171Y98810D01*
X348845Y98450D01*
X348526Y98083D01*
X348217Y97708D01*
X347917Y97325D01*
X347626Y96936D01*
X347344Y96540D01*
X347072Y96137D01*
X346810Y95728D01*
X346558Y95313D01*
X346315Y94891D01*
X346083Y94464D01*
X345861Y94032D01*
X345650Y93594D01*
X345449Y93152D01*
X345259Y92704D01*
X345079Y92253D01*
X344911Y91797D01*
X344753Y91337D01*
X344607Y90874D01*
X344472Y90407D01*
X344348Y89937D01*
X344235Y89464D01*
X344133Y88989D01*
X344044Y88511D01*
X343965Y88032D01*
X343898Y87550D01*
X343843Y87067D01*
X343799Y86583D01*
X343767Y86098D01*
X343746Y85613D01*
X343737Y85127D01*
X343977Y85127D01*
X343986Y85607D01*
X344007Y86087D01*
X344038Y86566D01*
X344082Y87044D01*
X344136Y87521D01*
X344203Y87997D01*
X344280Y88471D01*
X344369Y88942D01*
X344469Y89412D01*
X344581Y89879D01*
X344703Y90343D01*
X344837Y90805D01*
X344982Y91262D01*
X345137Y91717D01*
X345304Y92167D01*
X345481Y92613D01*
X345669Y93055D01*
X345867Y93493D01*
X346076Y93925D01*
X346295Y94352D01*
X346525Y94774D01*
X346764Y95190D01*
X347013Y95601D01*
X347272Y96005D01*
X347541Y96403D01*
X347819Y96794D01*
X348107Y97179D01*
X348403Y97557D01*
X348709Y97927D01*
X349023Y98290D01*
X349346Y98645D01*
X349678Y98993D01*
X350017Y99332D01*
X350365Y99663D01*
X350721Y99986D01*
X351084Y100300D01*
X351237Y100116D01*
X350879Y99805D01*
X350528Y99487D01*
X350184Y99159D01*
X349849Y98824D01*
X349521Y98481D01*
X349202Y98130D01*
X348892Y97771D01*
X348590Y97405D01*
X348297Y97032D01*
X348013Y96652D01*
X347738Y96266D01*
X347473Y95873D01*
X347217Y95473D01*
X346970Y95068D01*
X346734Y94657D01*
X346507Y94240D01*
X346291Y93818D01*
X346085Y93391D01*
X345889Y92959D01*
X345703Y92522D01*
X345528Y92081D01*
X345363Y91637D01*
X345210Y91188D01*
X345067Y90736D01*
X344935Y90280D01*
X344813Y89821D01*
X344703Y89360D01*
X344604Y88896D01*
X344517Y88430D01*
X344440Y87962D01*
X344375Y87492D01*
X344320Y87021D01*
X344278Y86548D01*
X344246Y86075D01*
X344226Y85601D01*
X344217Y85127D01*
X344457Y85127D01*
X344466Y85595D01*
X344486Y86063D01*
X344517Y86531D01*
X344559Y86997D01*
X344613Y87463D01*
X344677Y87927D01*
X344753Y88389D01*
X344840Y88850D01*
X344938Y89308D01*
X345046Y89764D01*
X345166Y90216D01*
X345297Y90666D01*
X345438Y91113D01*
X345590Y91556D01*
X345752Y91996D01*
X345925Y92431D01*
X346108Y92862D01*
X346302Y93289D01*
X346506Y93711D01*
X346720Y94128D01*
X346943Y94539D01*
X347177Y94945D01*
X347420Y95346D01*
X347673Y95740D01*
X347935Y96129D01*
X348206Y96510D01*
X348487Y96886D01*
X348776Y97254D01*
X349074Y97616D01*
X349381Y97970D01*
X349696Y98316D01*
X350019Y98656D01*
X350351Y98987D01*
X350690Y99310D01*
X351037Y99625D01*
X351391Y99931D01*
X351545Y99747D01*
X351195Y99444D01*
X350852Y99133D01*
X350517Y98814D01*
X350190Y98487D01*
X349871Y98152D01*
X349560Y97810D01*
X349257Y97460D01*
X348963Y97103D01*
X348677Y96739D01*
X348400Y96369D01*
X348132Y95991D01*
X347873Y95608D01*
X347623Y95218D01*
X347383Y94823D01*
X347153Y94422D01*
X346932Y94015D01*
X346721Y93604D01*
X346519Y93187D01*
X346328Y92766D01*
X346147Y92340D01*
X345976Y91910D01*
X345816Y91476D01*
X345666Y91038D01*
X345526Y90597D01*
X345398Y90153D01*
X345279Y89706D01*
X345172Y89256D01*
X345075Y88803D01*
X344990Y88349D01*
X344915Y87892D01*
X344851Y87434D01*
X344798Y86974D01*
X344756Y86513D01*
X344726Y86052D01*
X344706Y85589D01*
X344697Y85127D01*
X342538Y84874D02*
X344824Y84874D01*
X344823Y84873D02*
X344832Y84408D01*
X344852Y83943D01*
X344883Y83479D01*
X344926Y83016D01*
X344980Y82554D01*
X345045Y82093D01*
X345121Y81634D01*
X345208Y81177D01*
X345306Y80722D01*
X345416Y80270D01*
X345536Y79820D01*
X345667Y79374D01*
X345809Y78931D01*
X345962Y78491D01*
X346125Y78056D01*
X346299Y77624D01*
X346483Y77197D01*
X346677Y76774D01*
X346882Y76356D01*
X347097Y75943D01*
X347322Y75536D01*
X347556Y75134D01*
X347800Y74738D01*
X348054Y74348D01*
X348317Y73964D01*
X348590Y73587D01*
X348871Y73217D01*
X349161Y72853D01*
X349460Y72497D01*
X349768Y72148D01*
X350084Y71806D01*
X350408Y71472D01*
X350741Y71147D01*
X351081Y70829D01*
X351428Y70520D01*
X351783Y70219D01*
X352145Y69927D01*
X352515Y69644D01*
X352891Y69370D01*
X353273Y69105D01*
X353662Y68849D01*
X354057Y68603D01*
X354458Y68367D01*
X354864Y68140D01*
X353789Y66123D01*
X353788Y66123D01*
X353333Y66377D01*
X352883Y66641D01*
X352441Y66917D01*
X352005Y67203D01*
X351576Y67500D01*
X351154Y67806D01*
X350740Y68124D01*
X350334Y68451D01*
X349936Y68788D01*
X349547Y69134D01*
X349165Y69490D01*
X348793Y69855D01*
X348430Y70229D01*
X348075Y70611D01*
X347730Y71002D01*
X347395Y71402D01*
X347070Y71809D01*
X346754Y72224D01*
X346449Y72647D01*
X346154Y73077D01*
X345870Y73514D01*
X345596Y73958D01*
X345333Y74408D01*
X345081Y74865D01*
X344841Y75327D01*
X344611Y75796D01*
X344393Y76269D01*
X344187Y76748D01*
X343992Y77232D01*
X343810Y77720D01*
X343639Y78213D01*
X343480Y78710D01*
X343333Y79210D01*
X343198Y79714D01*
X343076Y80221D01*
X342966Y80730D01*
X342869Y81243D01*
X342784Y81757D01*
X342711Y82274D01*
X342651Y82791D01*
X342604Y83311D01*
X342569Y83831D01*
X342547Y84352D01*
X342537Y84873D01*
X342777Y84873D01*
X342787Y84358D01*
X342809Y83843D01*
X342843Y83328D01*
X342890Y82815D01*
X342949Y82303D01*
X343021Y81792D01*
X343105Y81284D01*
X343202Y80777D01*
X343310Y80273D01*
X343431Y79772D01*
X343564Y79274D01*
X343709Y78779D01*
X343867Y78288D01*
X344036Y77801D01*
X344216Y77319D01*
X344409Y76840D01*
X344613Y76367D01*
X344828Y75898D01*
X345055Y75435D01*
X345293Y74978D01*
X345542Y74527D01*
X345802Y74081D01*
X346072Y73643D01*
X346353Y73210D01*
X346645Y72785D01*
X346947Y72367D01*
X347259Y71957D01*
X347581Y71554D01*
X347912Y71159D01*
X348253Y70773D01*
X348603Y70394D01*
X348963Y70025D01*
X349331Y69664D01*
X349708Y69312D01*
X350093Y68969D01*
X350487Y68636D01*
X350888Y68313D01*
X351297Y67999D01*
X351714Y67696D01*
X352138Y67403D01*
X352569Y67120D01*
X353007Y66847D01*
X353451Y66586D01*
X353901Y66335D01*
X354014Y66546D01*
X353569Y66794D01*
X353130Y67053D01*
X352697Y67322D01*
X352271Y67602D01*
X351852Y67892D01*
X351440Y68192D01*
X351036Y68502D01*
X350639Y68822D01*
X350250Y69151D01*
X349869Y69490D01*
X349496Y69838D01*
X349132Y70194D01*
X348777Y70560D01*
X348431Y70934D01*
X348094Y71316D01*
X347766Y71706D01*
X347448Y72105D01*
X347140Y72510D01*
X346841Y72924D01*
X346553Y73344D01*
X346275Y73771D01*
X346007Y74205D01*
X345751Y74645D01*
X345504Y75091D01*
X345269Y75543D01*
X345045Y76001D01*
X344832Y76464D01*
X344630Y76932D01*
X344440Y77405D01*
X344261Y77882D01*
X344094Y78364D01*
X343939Y78849D01*
X343796Y79338D01*
X343664Y79831D01*
X343544Y80326D01*
X343437Y80824D01*
X343342Y81325D01*
X343258Y81828D01*
X343187Y82332D01*
X343129Y82839D01*
X343082Y83346D01*
X343048Y83855D01*
X343027Y84364D01*
X343017Y84873D01*
X343257Y84873D01*
X343267Y84370D01*
X343288Y83866D01*
X343322Y83364D01*
X343368Y82862D01*
X343426Y82362D01*
X343496Y81863D01*
X343578Y81366D01*
X343672Y80871D01*
X343779Y80379D01*
X343897Y79889D01*
X344027Y79402D01*
X344169Y78919D01*
X344322Y78439D01*
X344487Y77963D01*
X344664Y77491D01*
X344852Y77024D01*
X345051Y76562D01*
X345262Y76104D01*
X345484Y75651D01*
X345716Y75205D01*
X345959Y74763D01*
X346213Y74328D01*
X346478Y73900D01*
X346752Y73477D01*
X347037Y73062D01*
X347332Y72654D01*
X347637Y72252D01*
X347951Y71859D01*
X348275Y71473D01*
X348608Y71095D01*
X348951Y70725D01*
X349302Y70364D01*
X349662Y70012D01*
X350030Y69668D01*
X350406Y69333D01*
X350791Y69008D01*
X351183Y68692D01*
X351583Y68385D01*
X351990Y68089D01*
X352404Y67802D01*
X352825Y67525D01*
X353253Y67259D01*
X353687Y67003D01*
X354127Y66758D01*
X354240Y66970D01*
X353805Y67212D01*
X353376Y67465D01*
X352954Y67728D01*
X352537Y68002D01*
X352128Y68285D01*
X351726Y68578D01*
X351331Y68881D01*
X350943Y69193D01*
X350563Y69515D01*
X350191Y69846D01*
X349827Y70186D01*
X349471Y70534D01*
X349124Y70891D01*
X348786Y71256D01*
X348457Y71630D01*
X348137Y72011D01*
X347826Y72400D01*
X347525Y72797D01*
X347234Y73200D01*
X346952Y73611D01*
X346680Y74028D01*
X346419Y74452D01*
X346168Y74882D01*
X345928Y75318D01*
X345698Y75759D01*
X345479Y76207D01*
X345271Y76659D01*
X345074Y77116D01*
X344888Y77578D01*
X344713Y78044D01*
X344550Y78514D01*
X344398Y78989D01*
X344258Y79466D01*
X344130Y79947D01*
X344013Y80431D01*
X343908Y80918D01*
X343814Y81407D01*
X343733Y81898D01*
X343664Y82391D01*
X343606Y82886D01*
X343561Y83381D01*
X343528Y83878D01*
X343507Y84376D01*
X343497Y84873D01*
X343737Y84873D01*
X343746Y84382D01*
X343767Y83890D01*
X343800Y83399D01*
X343845Y82909D01*
X343902Y82421D01*
X343971Y81933D01*
X344051Y81448D01*
X344143Y80965D01*
X344247Y80484D01*
X344362Y80006D01*
X344489Y79530D01*
X344628Y79058D01*
X344778Y78590D01*
X344939Y78125D01*
X345112Y77664D01*
X345296Y77208D01*
X345490Y76756D01*
X345696Y76309D01*
X345912Y75867D01*
X346139Y75431D01*
X346377Y75000D01*
X346625Y74575D01*
X346883Y74157D01*
X347151Y73744D01*
X347430Y73339D01*
X347718Y72940D01*
X348015Y72548D01*
X348322Y72164D01*
X348639Y71787D01*
X348964Y71418D01*
X349298Y71057D01*
X349641Y70704D01*
X349992Y70359D01*
X350352Y70024D01*
X350720Y69697D01*
X351095Y69379D01*
X351478Y69070D01*
X351868Y68771D01*
X352266Y68481D01*
X352671Y68201D01*
X353082Y67931D01*
X353499Y67671D01*
X353923Y67421D01*
X354353Y67182D01*
X354466Y67394D01*
X354041Y67630D01*
X353623Y67877D01*
X353210Y68134D01*
X352804Y68401D01*
X352404Y68678D01*
X352011Y68964D01*
X351626Y69260D01*
X351247Y69565D01*
X350876Y69879D01*
X350513Y70202D01*
X350158Y70533D01*
X349811Y70874D01*
X349472Y71222D01*
X349142Y71579D01*
X348820Y71944D01*
X348508Y72316D01*
X348204Y72696D01*
X347910Y73083D01*
X347626Y73477D01*
X347351Y73878D01*
X347086Y74285D01*
X346831Y74699D01*
X346586Y75119D01*
X346351Y75544D01*
X346127Y75975D01*
X345913Y76412D01*
X345710Y76854D01*
X345517Y77300D01*
X345336Y77751D01*
X345165Y78206D01*
X345006Y78665D01*
X344858Y79128D01*
X344721Y79594D01*
X344595Y80064D01*
X344481Y80537D01*
X344378Y81012D01*
X344287Y81489D01*
X344208Y81969D01*
X344140Y82450D01*
X344084Y82933D01*
X344040Y83417D01*
X344007Y83902D01*
X343986Y84387D01*
X343977Y84873D01*
X344217Y84873D01*
X344226Y84393D01*
X344247Y83914D01*
X344279Y83435D01*
X344323Y82956D01*
X344378Y82479D01*
X344445Y82004D01*
X344524Y81530D01*
X344614Y81059D01*
X344715Y80589D01*
X344828Y80122D01*
X344952Y79659D01*
X345087Y79198D01*
X345234Y78741D01*
X345391Y78287D01*
X345560Y77837D01*
X345739Y77392D01*
X345929Y76951D01*
X346130Y76515D01*
X346341Y76083D01*
X346563Y75657D01*
X346794Y75237D01*
X347036Y74822D01*
X347289Y74414D01*
X347550Y74011D01*
X347822Y73615D01*
X348103Y73226D01*
X348394Y72843D01*
X348693Y72468D01*
X349002Y72100D01*
X349319Y71740D01*
X349646Y71388D01*
X349980Y71044D01*
X350323Y70707D01*
X350674Y70380D01*
X351033Y70061D01*
X351399Y69750D01*
X351773Y69449D01*
X352154Y69157D01*
X352542Y68874D01*
X352937Y68601D01*
X353338Y68337D01*
X353746Y68083D01*
X354159Y67839D01*
X354579Y67605D01*
X354692Y67817D01*
X354278Y68048D01*
X353869Y68289D01*
X353466Y68540D01*
X353070Y68800D01*
X352680Y69070D01*
X352297Y69350D01*
X351921Y69638D01*
X351551Y69936D01*
X351189Y70242D01*
X350835Y70558D01*
X350488Y70881D01*
X350150Y71213D01*
X349819Y71554D01*
X349497Y71902D01*
X349183Y72257D01*
X348879Y72621D01*
X348583Y72991D01*
X348296Y73369D01*
X348018Y73753D01*
X347750Y74145D01*
X347491Y74542D01*
X347242Y74946D01*
X347003Y75355D01*
X346774Y75771D01*
X346555Y76191D01*
X346347Y76617D01*
X346148Y77048D01*
X345961Y77484D01*
X345783Y77924D01*
X345617Y78368D01*
X345462Y78816D01*
X345317Y79268D01*
X345183Y79723D01*
X345061Y80181D01*
X344949Y80642D01*
X344849Y81105D01*
X344760Y81571D01*
X344683Y82039D01*
X344617Y82509D01*
X344562Y82980D01*
X344518Y83452D01*
X344487Y83925D01*
X344466Y84399D01*
X344457Y84873D01*
X344697Y84873D01*
X344706Y84405D01*
X344726Y83937D01*
X344758Y83470D01*
X344801Y83003D01*
X344855Y82538D01*
X344920Y82074D01*
X344997Y81612D01*
X345085Y81152D01*
X345184Y80694D01*
X345294Y80239D01*
X345415Y79787D01*
X345547Y79337D01*
X345689Y78891D01*
X345843Y78449D01*
X346007Y78010D01*
X346182Y77576D01*
X346368Y77146D01*
X346563Y76720D01*
X346770Y76299D01*
X346986Y75884D01*
X347212Y75474D01*
X347448Y75069D01*
X347694Y74671D01*
X347949Y74278D01*
X348214Y73892D01*
X348488Y73512D01*
X348772Y73139D01*
X349064Y72773D01*
X349365Y72414D01*
X349675Y72063D01*
X349993Y71719D01*
X350319Y71383D01*
X350654Y71055D01*
X350996Y70736D01*
X351346Y70424D01*
X351703Y70121D01*
X352068Y69828D01*
X352440Y69542D01*
X352818Y69267D01*
X353203Y69000D01*
X353595Y68743D01*
X353992Y68495D01*
X354396Y68257D01*
X354805Y68029D01*
X385462Y85126D02*
X383176Y85126D01*
X383177Y85127D02*
X383168Y85595D01*
X383147Y86063D01*
X383116Y86531D01*
X383073Y86998D01*
X383018Y87463D01*
X382952Y87927D01*
X382875Y88389D01*
X382787Y88849D01*
X382687Y89307D01*
X382576Y89763D01*
X382454Y90215D01*
X382321Y90664D01*
X382177Y91110D01*
X382023Y91553D01*
X381857Y91991D01*
X381681Y92425D01*
X381494Y92855D01*
X381297Y93280D01*
X381090Y93700D01*
X380872Y94115D01*
X380644Y94525D01*
X380407Y94929D01*
X380159Y95327D01*
X379902Y95718D01*
X379635Y96104D01*
X379359Y96483D01*
X379074Y96854D01*
X378780Y97219D01*
X378477Y97577D01*
X378165Y97927D01*
X377845Y98269D01*
X377517Y98603D01*
X377181Y98929D01*
X376836Y99247D01*
X376484Y99557D01*
X377961Y101301D01*
X377961Y101302D01*
X378356Y100955D01*
X378742Y100599D01*
X379119Y100234D01*
X379488Y99859D01*
X379847Y99476D01*
X380196Y99083D01*
X380536Y98683D01*
X380866Y98274D01*
X381186Y97857D01*
X381495Y97433D01*
X381794Y97001D01*
X382083Y96562D01*
X382360Y96116D01*
X382627Y95663D01*
X382882Y95204D01*
X383126Y94739D01*
X383359Y94268D01*
X383580Y93791D01*
X383789Y93309D01*
X383987Y92822D01*
X384172Y92331D01*
X384346Y91835D01*
X384507Y91335D01*
X384656Y90831D01*
X384792Y90324D01*
X384916Y89813D01*
X385028Y89300D01*
X385127Y88784D01*
X385213Y88266D01*
X385287Y87746D01*
X385347Y87224D01*
X385395Y86701D01*
X385431Y86177D01*
X385453Y85652D01*
X385463Y85127D01*
X385223Y85127D01*
X385213Y85646D01*
X385191Y86165D01*
X385156Y86683D01*
X385109Y87200D01*
X385048Y87716D01*
X384976Y88230D01*
X384890Y88743D01*
X384793Y89253D01*
X384682Y89760D01*
X384560Y90265D01*
X384425Y90767D01*
X384277Y91265D01*
X384118Y91759D01*
X383947Y92249D01*
X383763Y92735D01*
X383568Y93216D01*
X383361Y93693D01*
X383143Y94164D01*
X382913Y94630D01*
X382671Y95090D01*
X382419Y95543D01*
X382155Y95991D01*
X381881Y96432D01*
X381596Y96866D01*
X381300Y97293D01*
X380994Y97713D01*
X380678Y98125D01*
X380352Y98529D01*
X380016Y98925D01*
X379670Y99313D01*
X379315Y99692D01*
X378951Y100062D01*
X378578Y100424D01*
X378196Y100776D01*
X377806Y101119D01*
X377651Y100935D01*
X378037Y100597D01*
X378414Y100249D01*
X378783Y99891D01*
X379143Y99525D01*
X379494Y99150D01*
X379835Y98767D01*
X380167Y98375D01*
X380490Y97976D01*
X380802Y97569D01*
X381105Y97154D01*
X381397Y96732D01*
X381679Y96302D01*
X381950Y95866D01*
X382211Y95424D01*
X382460Y94975D01*
X382699Y94521D01*
X382926Y94060D01*
X383142Y93595D01*
X383347Y93124D01*
X383540Y92648D01*
X383721Y92167D01*
X383890Y91683D01*
X384048Y91194D01*
X384193Y90702D01*
X384327Y90206D01*
X384448Y89707D01*
X384557Y89205D01*
X384654Y88701D01*
X384738Y88195D01*
X384810Y87686D01*
X384870Y87176D01*
X384917Y86665D01*
X384951Y86153D01*
X384973Y85640D01*
X384983Y85127D01*
X384743Y85127D01*
X384733Y85634D01*
X384712Y86141D01*
X384677Y86647D01*
X384631Y87153D01*
X384572Y87657D01*
X384501Y88159D01*
X384418Y88660D01*
X384322Y89158D01*
X384214Y89654D01*
X384094Y90147D01*
X383962Y90637D01*
X383818Y91124D01*
X383663Y91607D01*
X383495Y92086D01*
X383316Y92561D01*
X383125Y93031D01*
X382923Y93496D01*
X382710Y93957D01*
X382485Y94412D01*
X382249Y94861D01*
X382002Y95305D01*
X381745Y95742D01*
X381477Y96173D01*
X381198Y96597D01*
X380910Y97014D01*
X380611Y97424D01*
X380302Y97827D01*
X379983Y98222D01*
X379655Y98609D01*
X379317Y98988D01*
X378970Y99358D01*
X378615Y99720D01*
X378250Y100073D01*
X377877Y100417D01*
X377496Y100752D01*
X377341Y100569D01*
X377718Y100238D01*
X378086Y99898D01*
X378446Y99549D01*
X378798Y99191D01*
X379141Y98825D01*
X379474Y98451D01*
X379799Y98068D01*
X380114Y97678D01*
X380419Y97280D01*
X380714Y96875D01*
X381000Y96462D01*
X381275Y96043D01*
X381540Y95617D01*
X381794Y95185D01*
X382038Y94747D01*
X382271Y94303D01*
X382493Y93853D01*
X382704Y93398D01*
X382904Y92938D01*
X383092Y92473D01*
X383270Y92004D01*
X383435Y91531D01*
X383589Y91053D01*
X383731Y90572D01*
X383862Y90088D01*
X383980Y89601D01*
X384087Y89111D01*
X384181Y88618D01*
X384264Y88124D01*
X384334Y87627D01*
X384392Y87129D01*
X384438Y86629D01*
X384472Y86129D01*
X384493Y85628D01*
X384503Y85127D01*
X384263Y85127D01*
X384253Y85622D01*
X384232Y86117D01*
X384199Y86612D01*
X384153Y87105D01*
X384096Y87597D01*
X384026Y88088D01*
X383945Y88577D01*
X383851Y89063D01*
X383746Y89548D01*
X383629Y90029D01*
X383500Y90508D01*
X383360Y90983D01*
X383207Y91455D01*
X383044Y91922D01*
X382869Y92386D01*
X382683Y92845D01*
X382485Y93300D01*
X382277Y93749D01*
X382057Y94194D01*
X381827Y94632D01*
X381586Y95066D01*
X381335Y95493D01*
X381073Y95913D01*
X380801Y96328D01*
X380519Y96735D01*
X380227Y97136D01*
X379925Y97529D01*
X379614Y97914D01*
X379294Y98292D01*
X378964Y98662D01*
X378626Y99024D01*
X378278Y99378D01*
X377922Y99723D01*
X377558Y100059D01*
X377186Y100386D01*
X377031Y100203D01*
X377399Y99879D01*
X377758Y99547D01*
X378110Y99207D01*
X378453Y98857D01*
X378788Y98500D01*
X379113Y98134D01*
X379430Y97761D01*
X379737Y97380D01*
X380035Y96991D01*
X380324Y96596D01*
X380602Y96193D01*
X380871Y95784D01*
X381130Y95368D01*
X381378Y94946D01*
X381616Y94518D01*
X381843Y94085D01*
X382060Y93646D01*
X382266Y93201D01*
X382461Y92752D01*
X382645Y92299D01*
X382818Y91841D01*
X382980Y91379D01*
X383130Y90913D01*
X383269Y90443D01*
X383396Y89970D01*
X383512Y89495D01*
X383616Y89016D01*
X383708Y88535D01*
X383789Y88052D01*
X383858Y87568D01*
X383915Y87081D01*
X383959Y86594D01*
X383992Y86105D01*
X384014Y85616D01*
X384023Y85127D01*
X383783Y85127D01*
X383774Y85610D01*
X383753Y86093D01*
X383720Y86576D01*
X383676Y87058D01*
X383620Y87538D01*
X383552Y88017D01*
X383472Y88494D01*
X383381Y88969D01*
X383278Y89441D01*
X383164Y89911D01*
X383038Y90378D01*
X382901Y90842D01*
X382752Y91302D01*
X382593Y91759D01*
X382422Y92211D01*
X382240Y92660D01*
X382047Y93103D01*
X381844Y93542D01*
X381630Y93976D01*
X381405Y94404D01*
X381170Y94827D01*
X380925Y95243D01*
X380669Y95654D01*
X380404Y96058D01*
X380128Y96456D01*
X379844Y96847D01*
X379549Y97231D01*
X379246Y97607D01*
X378933Y97976D01*
X378611Y98337D01*
X378281Y98690D01*
X377942Y99035D01*
X377595Y99372D01*
X377239Y99700D01*
X376876Y100019D01*
X376721Y99836D01*
X377080Y99521D01*
X377431Y99197D01*
X377774Y98864D01*
X378108Y98523D01*
X378435Y98175D01*
X378752Y97818D01*
X379061Y97453D01*
X379361Y97082D01*
X379652Y96703D01*
X379933Y96317D01*
X380205Y95924D01*
X380467Y95524D01*
X380719Y95119D01*
X380962Y94707D01*
X381194Y94290D01*
X381416Y93867D01*
X381627Y93438D01*
X381828Y93005D01*
X382019Y92567D01*
X382198Y92124D01*
X382367Y91677D01*
X382525Y91226D01*
X382671Y90772D01*
X382807Y90314D01*
X382931Y89852D01*
X383044Y89388D01*
X383146Y88921D01*
X383236Y88452D01*
X383314Y87981D01*
X383381Y87508D01*
X383437Y87034D01*
X383481Y86558D01*
X383513Y86081D01*
X383534Y85604D01*
X383543Y85127D01*
X383303Y85127D01*
X383294Y85598D01*
X383273Y86070D01*
X383241Y86540D01*
X383198Y87010D01*
X383143Y87479D01*
X383077Y87946D01*
X382999Y88411D01*
X382910Y88874D01*
X382810Y89335D01*
X382698Y89793D01*
X382576Y90249D01*
X382442Y90701D01*
X382297Y91150D01*
X382141Y91596D01*
X381975Y92037D01*
X381797Y92474D01*
X381609Y92907D01*
X381411Y93335D01*
X381202Y93758D01*
X380983Y94175D01*
X380754Y94588D01*
X380514Y94994D01*
X380265Y95395D01*
X380006Y95789D01*
X379738Y96177D01*
X379460Y96558D01*
X379173Y96933D01*
X378877Y97300D01*
X378572Y97660D01*
X378258Y98012D01*
X377936Y98357D01*
X377605Y98693D01*
X377267Y99021D01*
X376920Y99341D01*
X376566Y99653D01*
X374759Y66428D02*
X373624Y68413D01*
X373625Y68412D02*
X374023Y68650D01*
X374415Y68896D01*
X374800Y69153D01*
X375180Y69418D01*
X375553Y69692D01*
X375919Y69976D01*
X376278Y70268D01*
X376630Y70569D01*
X376975Y70878D01*
X377312Y71195D01*
X377642Y71521D01*
X377963Y71854D01*
X378277Y72195D01*
X378582Y72544D01*
X378878Y72899D01*
X379166Y73262D01*
X379445Y73632D01*
X379715Y74008D01*
X379976Y74391D01*
X380227Y74780D01*
X380469Y75174D01*
X380702Y75575D01*
X380924Y75981D01*
X381137Y76392D01*
X381340Y76809D01*
X381533Y77230D01*
X381715Y77655D01*
X381887Y78085D01*
X382049Y78519D01*
X382200Y78957D01*
X382341Y79398D01*
X382471Y79843D01*
X382590Y80290D01*
X382698Y80740D01*
X382796Y81193D01*
X382882Y81648D01*
X382957Y82105D01*
X383022Y82564D01*
X383075Y83024D01*
X383117Y83485D01*
X383148Y83947D01*
X383168Y84410D01*
X383177Y84873D01*
X385462Y84873D01*
X385463Y84873D01*
X385453Y84354D01*
X385431Y83835D01*
X385397Y83317D01*
X385350Y82800D01*
X385291Y82285D01*
X385219Y81771D01*
X385135Y81259D01*
X385038Y80749D01*
X384929Y80241D01*
X384808Y79737D01*
X384675Y79235D01*
X384529Y78737D01*
X384372Y78242D01*
X384202Y77752D01*
X384021Y77265D01*
X383828Y76783D01*
X383624Y76306D01*
X383408Y75835D01*
X383181Y75368D01*
X382942Y74907D01*
X382693Y74452D01*
X382432Y74003D01*
X382161Y73561D01*
X381879Y73125D01*
X381587Y72696D01*
X381284Y72274D01*
X380971Y71860D01*
X380649Y71454D01*
X380316Y71055D01*
X379974Y70664D01*
X379623Y70282D01*
X379263Y69909D01*
X378893Y69544D01*
X378515Y69189D01*
X378129Y68842D01*
X377734Y68505D01*
X377331Y68178D01*
X376921Y67861D01*
X376502Y67553D01*
X376077Y67256D01*
X375644Y66969D01*
X375205Y66693D01*
X374759Y66428D01*
X374640Y66636D01*
X375081Y66898D01*
X375515Y67172D01*
X375943Y67455D01*
X376364Y67749D01*
X376777Y68053D01*
X377183Y68367D01*
X377581Y68691D01*
X377972Y69024D01*
X378354Y69366D01*
X378727Y69718D01*
X379093Y70078D01*
X379449Y70447D01*
X379796Y70825D01*
X380134Y71211D01*
X380463Y71605D01*
X380782Y72007D01*
X381091Y72417D01*
X381390Y72834D01*
X381679Y73258D01*
X381958Y73689D01*
X382226Y74126D01*
X382484Y74570D01*
X382730Y75020D01*
X382966Y75475D01*
X383191Y75937D01*
X383404Y76403D01*
X383607Y76875D01*
X383797Y77351D01*
X383976Y77832D01*
X384144Y78317D01*
X384299Y78806D01*
X384443Y79299D01*
X384575Y79795D01*
X384695Y80294D01*
X384803Y80795D01*
X384898Y81300D01*
X384981Y81806D01*
X385052Y82314D01*
X385111Y82824D01*
X385158Y83335D01*
X385192Y83847D01*
X385213Y84360D01*
X385223Y84873D01*
X384983Y84873D01*
X384973Y84365D01*
X384952Y83859D01*
X384918Y83352D01*
X384872Y82847D01*
X384814Y82343D01*
X384744Y81841D01*
X384662Y81340D01*
X384567Y80842D01*
X384461Y80346D01*
X384342Y79853D01*
X384212Y79363D01*
X384070Y78876D01*
X383916Y78392D01*
X383750Y77913D01*
X383573Y77437D01*
X383385Y76967D01*
X383185Y76500D01*
X382974Y76039D01*
X382752Y75583D01*
X382519Y75132D01*
X382275Y74688D01*
X382020Y74249D01*
X381755Y73816D01*
X381479Y73391D01*
X381194Y72971D01*
X380898Y72559D01*
X380592Y72154D01*
X380277Y71757D01*
X379952Y71368D01*
X379618Y70986D01*
X379275Y70612D01*
X378922Y70247D01*
X378561Y69891D01*
X378192Y69543D01*
X377814Y69205D01*
X377428Y68876D01*
X377035Y68556D01*
X376633Y68245D01*
X376225Y67945D01*
X375809Y67654D01*
X375386Y67374D01*
X374957Y67104D01*
X374521Y66844D01*
X374402Y67053D01*
X374833Y67309D01*
X375257Y67576D01*
X375675Y67853D01*
X376086Y68141D01*
X376490Y68438D01*
X376886Y68744D01*
X377276Y69061D01*
X377657Y69386D01*
X378030Y69721D01*
X378395Y70064D01*
X378752Y70417D01*
X379100Y70777D01*
X379440Y71147D01*
X379770Y71524D01*
X380091Y71909D01*
X380403Y72302D01*
X380705Y72702D01*
X380997Y73109D01*
X381280Y73523D01*
X381552Y73944D01*
X381814Y74372D01*
X382066Y74806D01*
X382307Y75245D01*
X382537Y75691D01*
X382757Y76141D01*
X382965Y76597D01*
X383163Y77058D01*
X383349Y77524D01*
X383524Y77993D01*
X383688Y78467D01*
X383840Y78945D01*
X383980Y79426D01*
X384109Y79911D01*
X384226Y80399D01*
X384332Y80889D01*
X384425Y81381D01*
X384507Y81876D01*
X384576Y82373D01*
X384634Y82871D01*
X384679Y83370D01*
X384712Y83870D01*
X384733Y84371D01*
X384743Y84873D01*
X384503Y84873D01*
X384494Y84377D01*
X384473Y83882D01*
X384440Y83388D01*
X384395Y82894D01*
X384338Y82402D01*
X384269Y81911D01*
X384189Y81422D01*
X384096Y80935D01*
X383992Y80451D01*
X383876Y79969D01*
X383749Y79490D01*
X383610Y79015D01*
X383460Y78542D01*
X383298Y78074D01*
X383125Y77610D01*
X382941Y77150D01*
X382746Y76694D01*
X382540Y76244D01*
X382323Y75798D01*
X382095Y75358D01*
X381857Y74924D01*
X381608Y74495D01*
X381349Y74072D01*
X381080Y73656D01*
X380801Y73247D01*
X380512Y72844D01*
X380213Y72449D01*
X379905Y72061D01*
X379588Y71680D01*
X379261Y71307D01*
X378926Y70943D01*
X378582Y70586D01*
X378229Y70238D01*
X377869Y69898D01*
X377500Y69567D01*
X377123Y69246D01*
X376738Y68933D01*
X376346Y68630D01*
X375947Y68336D01*
X375541Y68053D01*
X375128Y67779D01*
X374709Y67515D01*
X374283Y67261D01*
X374164Y67469D01*
X374584Y67720D01*
X374999Y67981D01*
X375407Y68252D01*
X375808Y68532D01*
X376203Y68822D01*
X376590Y69122D01*
X376970Y69431D01*
X377342Y69749D01*
X377707Y70075D01*
X378063Y70411D01*
X378412Y70755D01*
X378752Y71108D01*
X379083Y71468D01*
X379406Y71836D01*
X379719Y72213D01*
X380024Y72596D01*
X380319Y72987D01*
X380604Y73385D01*
X380880Y73789D01*
X381146Y74200D01*
X381402Y74618D01*
X381648Y75041D01*
X381883Y75471D01*
X382108Y75906D01*
X382322Y76346D01*
X382526Y76791D01*
X382719Y77241D01*
X382901Y77696D01*
X383072Y78155D01*
X383232Y78617D01*
X383380Y79084D01*
X383518Y79554D01*
X383644Y80027D01*
X383758Y80503D01*
X383861Y80982D01*
X383952Y81463D01*
X384032Y81946D01*
X384100Y82431D01*
X384156Y82918D01*
X384200Y83405D01*
X384233Y83894D01*
X384254Y84383D01*
X384263Y84873D01*
X384023Y84873D01*
X384014Y84389D01*
X383993Y83906D01*
X383961Y83423D01*
X383917Y82941D01*
X383861Y82460D01*
X383794Y81981D01*
X383716Y81504D01*
X383625Y81029D01*
X383524Y80556D01*
X383411Y80085D01*
X383286Y79618D01*
X383151Y79153D01*
X383004Y78692D01*
X382846Y78235D01*
X382677Y77782D01*
X382497Y77333D01*
X382307Y76888D01*
X382105Y76448D01*
X381893Y76013D01*
X381671Y75584D01*
X381439Y75159D01*
X381196Y74741D01*
X380943Y74328D01*
X380680Y73922D01*
X380408Y73522D01*
X380126Y73129D01*
X379834Y72743D01*
X379533Y72364D01*
X379224Y71993D01*
X378905Y71629D01*
X378578Y71273D01*
X378242Y70924D01*
X377897Y70584D01*
X377545Y70253D01*
X377185Y69930D01*
X376817Y69616D01*
X376442Y69311D01*
X376059Y69015D01*
X375669Y68728D01*
X375273Y68451D01*
X374870Y68183D01*
X374460Y67926D01*
X374045Y67678D01*
X373926Y67886D01*
X374336Y68131D01*
X374741Y68386D01*
X375139Y68650D01*
X375530Y68924D01*
X375915Y69207D01*
X376293Y69499D01*
X376664Y69801D01*
X377028Y70111D01*
X377383Y70430D01*
X377731Y70758D01*
X378071Y71094D01*
X378403Y71438D01*
X378727Y71789D01*
X379041Y72149D01*
X379347Y72516D01*
X379645Y72891D01*
X379932Y73272D01*
X380211Y73660D01*
X380480Y74055D01*
X380740Y74456D01*
X380990Y74864D01*
X381229Y75277D01*
X381459Y75696D01*
X381679Y76121D01*
X381888Y76550D01*
X382087Y76985D01*
X382275Y77424D01*
X382453Y77868D01*
X382620Y78316D01*
X382776Y78767D01*
X382921Y79223D01*
X383055Y79682D01*
X383178Y80143D01*
X383290Y80608D01*
X383390Y81075D01*
X383479Y81545D01*
X383557Y82016D01*
X383623Y82490D01*
X383678Y82964D01*
X383722Y83440D01*
X383753Y83917D01*
X383774Y84395D01*
X383783Y84873D01*
X383543Y84873D01*
X383534Y84401D01*
X383514Y83929D01*
X383482Y83458D01*
X383439Y82988D01*
X383385Y82519D01*
X383319Y82051D01*
X383243Y81586D01*
X383155Y81122D01*
X383055Y80660D01*
X382945Y80202D01*
X382824Y79745D01*
X382691Y79292D01*
X382548Y78842D01*
X382394Y78396D01*
X382229Y77954D01*
X382054Y77516D01*
X381868Y77082D01*
X381671Y76653D01*
X381464Y76228D01*
X381247Y75809D01*
X381020Y75395D01*
X380784Y74987D01*
X380537Y74584D01*
X380280Y74188D01*
X380015Y73798D01*
X379739Y73414D01*
X379455Y73038D01*
X379162Y72668D01*
X378859Y72305D01*
X378548Y71950D01*
X378229Y71603D01*
X377901Y71263D01*
X377565Y70931D01*
X377222Y70608D01*
X376870Y70292D01*
X376511Y69986D01*
X376145Y69688D01*
X375772Y69399D01*
X375392Y69119D01*
X375005Y68849D01*
X374611Y68588D01*
X374212Y68336D01*
X373807Y68095D01*
X373687Y68303D01*
X374088Y68542D01*
X374482Y68790D01*
X374871Y69048D01*
X375253Y69315D01*
X375628Y69591D01*
X375997Y69877D01*
X376359Y70171D01*
X376713Y70474D01*
X377060Y70785D01*
X377399Y71104D01*
X377731Y71432D01*
X378055Y71768D01*
X378370Y72111D01*
X378677Y72462D01*
X378976Y72820D01*
X379265Y73185D01*
X379546Y73557D01*
X379818Y73936D01*
X380081Y74321D01*
X380334Y74712D01*
X380577Y75110D01*
X380811Y75513D01*
X381036Y75922D01*
X381250Y76336D01*
X381454Y76755D01*
X381648Y77179D01*
X381832Y77607D01*
X382005Y78040D01*
X382168Y78477D01*
X382320Y78917D01*
X382461Y79362D01*
X382592Y79809D01*
X382712Y80260D01*
X382821Y80713D01*
X382919Y81169D01*
X383006Y81627D01*
X383082Y82087D01*
X383147Y82548D01*
X383200Y83011D01*
X383243Y83476D01*
X383274Y83941D01*
X383294Y84406D01*
X383303Y84873D01*
D17*
X346728Y66458D02*
X346728Y59092D01*
X342918Y62648D02*
X350792Y62648D01*
X36359Y129436D02*
X32605Y129436D01*
X36359Y129436D02*
X36424Y129434D01*
X36488Y129428D01*
X36552Y129418D01*
X36616Y129405D01*
X36678Y129387D01*
X36739Y129366D01*
X36799Y129342D01*
X36857Y129313D01*
X36914Y129281D01*
X36968Y129246D01*
X37020Y129208D01*
X37070Y129166D01*
X37117Y129122D01*
X37161Y129075D01*
X37203Y129025D01*
X37241Y128973D01*
X37276Y128919D01*
X37308Y128862D01*
X37337Y128804D01*
X37361Y128744D01*
X37382Y128683D01*
X37400Y128621D01*
X37413Y128557D01*
X37423Y128493D01*
X37429Y128429D01*
X37431Y128364D01*
X37431Y127827D01*
X32605Y133858D02*
X32607Y133926D01*
X32613Y133993D01*
X32622Y134060D01*
X32635Y134127D01*
X32652Y134192D01*
X32673Y134257D01*
X32697Y134320D01*
X32725Y134382D01*
X32756Y134442D01*
X32790Y134500D01*
X32828Y134556D01*
X32868Y134611D01*
X32912Y134662D01*
X32959Y134711D01*
X33008Y134758D01*
X33059Y134802D01*
X33114Y134842D01*
X33170Y134880D01*
X33228Y134914D01*
X33288Y134945D01*
X33350Y134973D01*
X33413Y134997D01*
X33478Y135018D01*
X33543Y135035D01*
X33610Y135048D01*
X33677Y135057D01*
X33744Y135063D01*
X33812Y135065D01*
X32605Y133858D02*
X32607Y133780D01*
X32613Y133702D01*
X32623Y133625D01*
X32636Y133548D01*
X32654Y133472D01*
X32675Y133397D01*
X32700Y133323D01*
X32729Y133251D01*
X32761Y133180D01*
X32797Y133111D01*
X32836Y133043D01*
X32879Y132978D01*
X32925Y132915D01*
X32974Y132854D01*
X33026Y132796D01*
X33081Y132741D01*
X33138Y132688D01*
X33198Y132639D01*
X33261Y132592D01*
X33326Y132549D01*
X33392Y132509D01*
X33461Y132472D01*
X33532Y132439D01*
X33604Y132409D01*
X33678Y132383D01*
X34750Y134663D02*
X34701Y134712D01*
X34649Y134759D01*
X34594Y134802D01*
X34537Y134843D01*
X34478Y134881D01*
X34417Y134915D01*
X34354Y134946D01*
X34290Y134974D01*
X34224Y134998D01*
X34158Y135018D01*
X34090Y135035D01*
X34021Y135048D01*
X33952Y135057D01*
X33882Y135063D01*
X33812Y135065D01*
X34750Y134663D02*
X37431Y132384D01*
X37431Y135065D01*
D18*
X356730Y138000D02*
X359270Y138000D01*
X359270Y32000D02*
X356730Y32000D01*
D10*
X301700Y123650D02*
X301700Y136350D01*
X301700Y123650D02*
X295350Y117300D01*
X282650Y117300D01*
X276300Y123650D01*
X282650Y142700D02*
X295350Y142700D01*
X301700Y136350D01*
X282650Y142700D02*
X276300Y136350D01*
X276300Y123650D01*
D17*
X239077Y137997D02*
X235902Y137997D01*
X239077Y137997D02*
X239188Y137995D01*
X239298Y137989D01*
X239409Y137980D01*
X239519Y137966D01*
X239628Y137949D01*
X239737Y137928D01*
X239845Y137903D01*
X239952Y137874D01*
X240058Y137842D01*
X240163Y137806D01*
X240266Y137766D01*
X240368Y137723D01*
X240469Y137676D01*
X240568Y137625D01*
X240665Y137572D01*
X240759Y137515D01*
X240852Y137454D01*
X240943Y137391D01*
X241032Y137324D01*
X241118Y137254D01*
X241201Y137181D01*
X241283Y137106D01*
X241361Y137028D01*
X241436Y136946D01*
X241509Y136863D01*
X241579Y136777D01*
X241646Y136688D01*
X241709Y136597D01*
X241770Y136504D01*
X241827Y136409D01*
X241880Y136313D01*
X241931Y136214D01*
X241978Y136113D01*
X242021Y136011D01*
X242061Y135908D01*
X242097Y135803D01*
X242129Y135697D01*
X242158Y135590D01*
X242183Y135482D01*
X242204Y135373D01*
X242221Y135264D01*
X242235Y135154D01*
X242244Y135043D01*
X242250Y134933D01*
X242252Y134822D01*
X242250Y134711D01*
X242244Y134601D01*
X242235Y134490D01*
X242221Y134380D01*
X242204Y134271D01*
X242183Y134162D01*
X242158Y134054D01*
X242129Y133947D01*
X242097Y133841D01*
X242061Y133736D01*
X242021Y133633D01*
X241978Y133531D01*
X241931Y133430D01*
X241880Y133331D01*
X241827Y133234D01*
X241770Y133140D01*
X241709Y133047D01*
X241646Y132956D01*
X241579Y132867D01*
X241509Y132781D01*
X241436Y132698D01*
X241361Y132616D01*
X241283Y132538D01*
X241201Y132463D01*
X241118Y132390D01*
X241032Y132320D01*
X240943Y132253D01*
X240852Y132190D01*
X240759Y132129D01*
X240664Y132072D01*
X240568Y132019D01*
X240469Y131968D01*
X240368Y131921D01*
X240266Y131878D01*
X240163Y131838D01*
X240058Y131802D01*
X239952Y131770D01*
X239845Y131741D01*
X239737Y131716D01*
X239628Y131695D01*
X239519Y131678D01*
X239409Y131664D01*
X239298Y131655D01*
X239188Y131649D01*
X239077Y131647D01*
X235902Y131647D01*
X235902Y143077D01*
X239077Y143077D01*
X239177Y143075D01*
X239276Y143069D01*
X239376Y143059D01*
X239474Y143046D01*
X239573Y143028D01*
X239670Y143007D01*
X239766Y142982D01*
X239862Y142953D01*
X239956Y142920D01*
X240049Y142884D01*
X240140Y142844D01*
X240230Y142800D01*
X240318Y142753D01*
X240404Y142703D01*
X240488Y142649D01*
X240570Y142592D01*
X240649Y142532D01*
X240727Y142468D01*
X240801Y142402D01*
X240873Y142333D01*
X240942Y142261D01*
X241008Y142187D01*
X241072Y142109D01*
X241132Y142030D01*
X241189Y141948D01*
X241243Y141864D01*
X241293Y141778D01*
X241340Y141690D01*
X241384Y141600D01*
X241424Y141509D01*
X241460Y141416D01*
X241493Y141322D01*
X241522Y141226D01*
X241547Y141130D01*
X241568Y141033D01*
X241586Y140934D01*
X241599Y140836D01*
X241609Y140736D01*
X241615Y140637D01*
X241617Y140537D01*
X241615Y140437D01*
X241609Y140338D01*
X241599Y140238D01*
X241586Y140140D01*
X241568Y140041D01*
X241547Y139944D01*
X241522Y139848D01*
X241493Y139752D01*
X241460Y139658D01*
X241424Y139565D01*
X241384Y139474D01*
X241340Y139384D01*
X241293Y139296D01*
X241243Y139210D01*
X241189Y139126D01*
X241132Y139044D01*
X241072Y138965D01*
X241008Y138887D01*
X240942Y138813D01*
X240873Y138741D01*
X240801Y138672D01*
X240727Y138606D01*
X240649Y138542D01*
X240570Y138482D01*
X240488Y138425D01*
X240404Y138371D01*
X240318Y138321D01*
X240230Y138274D01*
X240140Y138230D01*
X240049Y138190D01*
X239956Y138154D01*
X239862Y138121D01*
X239766Y138092D01*
X239670Y138067D01*
X239573Y138046D01*
X239474Y138028D01*
X239376Y138015D01*
X239276Y138005D01*
X239177Y137999D01*
X239077Y137997D01*
X247166Y143077D02*
X247166Y131647D01*
X252246Y131647D01*
X256031Y131647D02*
X259841Y143077D01*
X263651Y131647D01*
X262699Y134505D02*
X256984Y134505D01*
X268477Y134822D02*
X268477Y143077D01*
X268477Y134822D02*
X268479Y134711D01*
X268485Y134601D01*
X268494Y134490D01*
X268508Y134380D01*
X268525Y134271D01*
X268546Y134162D01*
X268571Y134054D01*
X268600Y133947D01*
X268632Y133841D01*
X268668Y133736D01*
X268708Y133633D01*
X268751Y133531D01*
X268798Y133430D01*
X268849Y133331D01*
X268902Y133235D01*
X268959Y133140D01*
X269020Y133047D01*
X269083Y132956D01*
X269150Y132867D01*
X269220Y132781D01*
X269293Y132698D01*
X269368Y132616D01*
X269446Y132538D01*
X269528Y132463D01*
X269611Y132390D01*
X269697Y132320D01*
X269786Y132253D01*
X269877Y132190D01*
X269970Y132129D01*
X270065Y132072D01*
X270161Y132019D01*
X270260Y131968D01*
X270361Y131921D01*
X270463Y131878D01*
X270566Y131838D01*
X270671Y131802D01*
X270777Y131770D01*
X270884Y131741D01*
X270992Y131716D01*
X271101Y131695D01*
X271210Y131678D01*
X271320Y131664D01*
X271431Y131655D01*
X271541Y131649D01*
X271652Y131647D01*
X271763Y131649D01*
X271873Y131655D01*
X271984Y131664D01*
X272094Y131678D01*
X272203Y131695D01*
X272312Y131716D01*
X272420Y131741D01*
X272527Y131770D01*
X272633Y131802D01*
X272738Y131838D01*
X272841Y131878D01*
X272943Y131921D01*
X273044Y131968D01*
X273143Y132019D01*
X273239Y132072D01*
X273334Y132129D01*
X273427Y132190D01*
X273518Y132253D01*
X273607Y132320D01*
X273693Y132390D01*
X273776Y132463D01*
X273858Y132538D01*
X273936Y132616D01*
X274011Y132698D01*
X274084Y132781D01*
X274154Y132867D01*
X274221Y132956D01*
X274284Y133047D01*
X274345Y133140D01*
X274402Y133234D01*
X274455Y133331D01*
X274506Y133430D01*
X274553Y133531D01*
X274596Y133633D01*
X274636Y133736D01*
X274672Y133841D01*
X274704Y133947D01*
X274733Y134054D01*
X274758Y134162D01*
X274779Y134271D01*
X274796Y134380D01*
X274810Y134490D01*
X274819Y134601D01*
X274825Y134711D01*
X274827Y134822D01*
X274827Y143077D01*
M02*
