M48
;GenerationSoftware,Autodesk,EAGLE,9.5.2*%
;CreationDate,2020-01-22T21:04:08Z*%
FMAT,2
ICI,OFF
METRIC,TZ,000.000
T6C0.300
T5C0.500
T4C0.800
T3C1.016
T2C1.800
T1C3.300
%
G90
M71
T1
X24800Y7250
T2
X15000Y1400
X47200Y12500
T3
X7112Y14224
X12192Y14224
X9652Y14224
T4
X60500Y9794
X60500Y7254
X60500Y4714
X1736Y4770
X1736Y7310
X1736Y9850
T5
X44069Y762
X33909Y762
X33401Y13716
X38037Y8064
X40196Y8064
X43815Y13716
T6
X58217Y6858
X41910Y2591
X24994Y9754
X11125Y3810
X8382Y11582
X15545Y12192
X32766Y10058
X27584Y11125
X7468Y11735
X44298Y12090
X49682Y11278
X30785Y4572
X27432Y4572
X22555Y8687
X35509Y12040
X30328Y8534
X13716Y3658
X24384Y12497
X16459Y9296
X9601Y8534
X53340Y7315
X40081Y6096
X23470Y5334
X22250Y5486
X14326Y6706
X41453Y10058
X8382Y8534
X15240Y6858
X17069Y6858
X18898Y13259
X10973Y7772
X6553Y12040
X34900Y4877
X27127Y5486
X32918Y3200
X32766Y7315
X32004Y4877
X27432Y3505
X29261Y6096
X24841Y3048
X27584Y7315
X14935Y11430
X6706Y7772
X34290Y8839
X55626Y9449
X26670Y9144
X26060Y9906
X7315Y6553
X53492Y3962
X53340Y9754
X41300Y11125
X19406Y1397
M30