M48
;GenerationSoftware,Autodesk,EAGLE,9.5.2*%
;CreationDate,2020-01-22T21:26:51Z*%
FMAT,2
ICI,OFF
METRIC,TZ,000.000
T4C0.350
T3C0.500
T2C0.813
T1C2.000
%
G90
M71
T1
X23500Y7500
X31000Y0
X40000Y2000
X42000Y2000
X40000Y13000
X42000Y13000
T2
X57000Y4960
X57000Y7500
X57000Y10040
X4000Y4960
X4000Y7500
X4000Y10040
X32500Y13000
T3
X27500Y11175
X27500Y9905
X27500Y8635
X27500Y7365
X27500Y6095
X27500Y4825
T4
X47000Y8500
X41000Y6500
X14000Y6000
X13000Y10500
X31000Y8500
M30