G04 EAGLE Gerber RS-274X export*
G75*
%MOMM*%
%FSLAX34Y34*%
%LPD*%
%INBottom Copper*%
%IPPOS*%
%AMOC8*
5,1,8,0,0,1.08239X$1,22.5*%
G01*
%ADD10P,1.649562X8X22.500000*%
%ADD11R,2.200000X1.500000*%
%ADD12R,1.500000X2.200000*%
%ADD13C,0.152400*%
%ADD14C,0.654800*%


D10*
X1040000Y35000D03*
X130000Y35000D03*
D11*
X36600Y50500D03*
X36600Y19500D03*
D12*
X561700Y35000D03*
X592700Y35000D03*
X736700Y35000D03*
X767700Y35000D03*
D11*
X98400Y19500D03*
X98400Y50500D03*
D12*
X251200Y35000D03*
X282200Y35000D03*
D11*
X1126600Y50500D03*
X1126600Y19500D03*
X1073400Y19500D03*
X1073400Y50500D03*
D12*
X884400Y35000D03*
X915400Y35000D03*
X377400Y35000D03*
X408400Y35000D03*
D13*
X1005840Y33528D02*
X1039368Y33528D01*
X1005840Y33528D02*
X984504Y12192D01*
X722376Y12192D01*
X713232Y21336D01*
X701040Y21336D01*
X1039368Y33528D02*
X1040000Y35000D01*
D14*
X701040Y21336D03*
D13*
X792480Y21336D02*
X807720Y21336D01*
X833628Y47244D01*
X792480Y32004D02*
X792480Y21336D01*
X792480Y32004D02*
X775716Y48768D01*
X614172Y48768D01*
X611124Y45720D01*
D14*
X792480Y21336D03*
X833628Y47244D03*
X611124Y45720D03*
D13*
X644652Y9144D02*
X518160Y9144D01*
X498348Y28956D01*
X455676Y28956D01*
D14*
X644652Y9144D03*
X455676Y28956D03*
D13*
X74676Y50292D02*
X38100Y50292D01*
X36600Y50500D01*
X359664Y35052D02*
X376428Y35052D01*
X359664Y35052D02*
X333756Y60960D01*
X85344Y60960D01*
X74676Y50292D01*
X376428Y35052D02*
X377400Y35000D01*
X1126236Y35052D02*
X1126236Y50292D01*
X1126600Y50500D01*
X1126236Y51816D02*
X1094232Y51816D01*
X1078992Y67056D01*
X835152Y67056D01*
X822960Y54864D01*
X1126236Y51816D02*
X1126600Y50500D01*
D14*
X74676Y50292D03*
X1126236Y35052D03*
X822960Y54864D03*
D13*
X341376Y48768D02*
X269748Y48768D01*
X341376Y48768D02*
X368808Y21336D01*
X496824Y21336D01*
X710184Y3048D02*
X716280Y9144D01*
X710184Y3048D02*
X515112Y3048D01*
X496824Y21336D01*
D14*
X269748Y48768D03*
X496824Y21336D03*
X716280Y9144D03*
D13*
X984504Y21336D02*
X1001268Y38100D01*
X984504Y21336D02*
X876300Y21336D01*
X862584Y35052D01*
X862584Y54864D01*
X749808Y60960D02*
X633984Y60960D01*
X617220Y77724D01*
D14*
X1001268Y38100D03*
X862584Y54864D03*
X749808Y60960D03*
X617220Y77724D03*
D13*
X592836Y35052D02*
X736092Y35052D01*
X592836Y35052D02*
X592700Y35000D01*
X736092Y35052D02*
X736700Y35000D01*
X885444Y35052D02*
X893064Y35052D01*
X912876Y54864D01*
X1069848Y54864D01*
X1072896Y51816D01*
X885444Y35052D02*
X884400Y35000D01*
X1072896Y51816D02*
X1073400Y50500D01*
X249936Y35052D02*
X144780Y35052D01*
X129540Y50292D01*
X99060Y50292D01*
X249936Y35052D02*
X251200Y35000D01*
X99060Y50292D02*
X98400Y50500D01*
X97536Y19812D02*
X38100Y19812D01*
X36600Y19500D01*
X97536Y19812D02*
X98400Y19500D01*
X1074420Y19812D02*
X1126236Y19812D01*
X1074420Y19812D02*
X1073400Y19500D01*
X1126236Y19812D02*
X1126600Y19500D01*
X560832Y35052D02*
X408432Y35052D01*
X408400Y35000D01*
X560832Y35052D02*
X561700Y35000D01*
X609600Y28956D02*
X708660Y28956D01*
X609600Y28956D02*
X601980Y21336D01*
X583692Y21336D01*
X579120Y25908D01*
D14*
X708660Y28956D03*
X579120Y25908D03*
D13*
X234696Y28956D02*
X193548Y28956D01*
X234696Y28956D02*
X242316Y21336D01*
X269748Y21336D01*
X281940Y33528D01*
X282200Y35000D01*
D14*
X193548Y28956D03*
D13*
X768096Y33528D02*
X771144Y33528D01*
X789432Y15240D01*
X810768Y15240D01*
X856488Y60960D01*
X899160Y60960D01*
X768096Y33528D02*
X767700Y35000D01*
D14*
X899160Y60960D03*
D13*
X915924Y35052D02*
X973836Y35052D01*
X915924Y35052D02*
X915400Y35000D01*
D14*
X973836Y35052D03*
M02*
