G04 EAGLE Gerber RS-274X export*
G75*
%MOMM*%
%FSLAX34Y34*%
%LPD*%
%INSolderpaste Top*%
%IPPOS*%
%AMOC8*
5,1,8,0,0,1.08239X$1,22.5*%
G01*
%ADD10R,1.200000X1.200000*%
%ADD11R,1.500000X1.300000*%
%ADD12R,1.800000X1.600000*%
%ADD13R,1.270000X1.470000*%
%ADD14R,1.400000X0.800000*%
%ADD15R,2.200000X1.800000*%
%ADD16R,0.600000X2.200000*%
%ADD17R,1.000000X1.400000*%
%ADD18R,1.803000X1.600000*%
%ADD19R,0.600000X0.600000*%


D10*
X309000Y22000D03*
X309000Y48000D03*
X370000Y48000D03*
X370000Y22000D03*
D11*
X440900Y25500D03*
X440900Y44500D03*
D12*
X847759Y21000D03*
X847759Y49000D03*
X807705Y21000D03*
X807705Y49000D03*
X510900Y21000D03*
X510900Y49000D03*
X1124200Y21000D03*
X1124200Y49000D03*
X60800Y49000D03*
X60800Y21000D03*
D13*
X697100Y35000D03*
X654100Y35000D03*
D14*
X211000Y35000D03*
X211000Y20000D03*
X211000Y50000D03*
D15*
X241800Y35000D03*
D16*
X554600Y9000D03*
X554600Y61000D03*
X541900Y9000D03*
X567300Y9000D03*
X580000Y9000D03*
X541900Y61000D03*
X567300Y61000D03*
X580000Y61000D03*
X605400Y9000D03*
X605400Y61000D03*
X592700Y9000D03*
X618100Y9000D03*
X592700Y61000D03*
X618100Y61000D03*
D17*
X902999Y24000D03*
X893499Y46000D03*
X912499Y46000D03*
D18*
X287100Y49220D03*
X287100Y20780D03*
X730900Y49220D03*
X730900Y20780D03*
X768170Y49220D03*
X768170Y20780D03*
X476365Y49220D03*
X476365Y20780D03*
X405900Y49220D03*
X405900Y20780D03*
D19*
X184500Y47000D03*
X175000Y47000D03*
X165500Y47000D03*
X165500Y23000D03*
X175000Y23000D03*
X184500Y23000D03*
X1004500Y47000D03*
X995000Y47000D03*
X985500Y47000D03*
X985500Y23000D03*
X995000Y23000D03*
X1004500Y23000D03*
X958171Y47000D03*
X948671Y47000D03*
X939171Y47000D03*
X939171Y23000D03*
X948671Y23000D03*
X958171Y23000D03*
D12*
X1085000Y21000D03*
X1085000Y49000D03*
X95000Y49000D03*
X95000Y21000D03*
M02*
