M48
;GenerationSoftware,Autodesk,EAGLE,9.5.2*%
;CreationDate,2020-01-22T21:14:34Z*%
FMAT,2
ICI,OFF
METRIC,TZ,000.000
T6C0.350
T5C0.500
T4C0.550
T3C0.813
T2C1.800
T1C3.300
%
G90
M71
T1
X24800Y7250
T2
X15000Y1400
X47200Y12500
T3
X3500Y4710
X3500Y7250
X3500Y9790
X58700Y9790
X58700Y7250
X58700Y4710
X27250Y2900
T4
X54550Y1600
X7400Y1570
X54350Y12930
X7400Y12900
T5
X29950Y10355
X29950Y9085
X29950Y7815
X29950Y6545
X29950Y5275
X29950Y4005
T6
X18500Y7500
X47000Y5500
X48500Y5000
X42127Y12627
M30