G04 EAGLE Gerber RS-274X export*
G75*
%MOMM*%
%FSLAX34Y34*%
%LPD*%
%INTop Copper*%
%IPPOS*%
%AMOC8*
5,1,8,0,0,1.08239X$1,22.5*%
G01*
%ADD10C,1.320800*%
%ADD11C,1.008000*%
%ADD12P,1.732040X8X202.500000*%
%ADD13R,2.540000X5.080000*%
%ADD14R,5.080000X2.540000*%
%ADD15C,0.609600*%
%ADD16C,0.756400*%
%ADD17C,0.152400*%


D10*
X576604Y49600D02*
X563396Y49600D01*
X563396Y75000D02*
X576604Y75000D01*
X576604Y100400D02*
X563396Y100400D01*
X46604Y49600D02*
X33396Y49600D01*
X33396Y75000D02*
X46604Y75000D01*
X46604Y100400D02*
X33396Y100400D01*
D11*
X269960Y111750D02*
X280040Y111750D01*
X280040Y99050D02*
X269960Y99050D01*
X269960Y86350D02*
X280040Y86350D01*
X280040Y73650D02*
X269960Y73650D01*
X269960Y60950D02*
X280040Y60950D01*
X280040Y48250D02*
X269960Y48250D01*
D12*
X325000Y130000D03*
D13*
X220000Y75000D03*
D14*
X310000Y15000D03*
X410000Y45000D03*
X410000Y105000D03*
D15*
X310000Y55000D02*
X310000Y15000D01*
X310000Y55000D02*
X291350Y73650D01*
X275000Y73650D01*
X275000Y86350D02*
X253650Y86350D01*
X250000Y90000D01*
X225000Y90000D01*
X220000Y85000D01*
X220000Y75000D01*
D16*
X470000Y85000D03*
D17*
X450000Y65000D01*
X410000Y65000D01*
D16*
X410000Y65000D03*
X140000Y60000D03*
D17*
X130000Y70000D01*
D16*
X130000Y105000D03*
D17*
X130000Y70000D01*
D15*
X370000Y85000D02*
X410000Y45000D01*
D16*
X310000Y85000D03*
D15*
X370000Y85000D01*
X404050Y99050D02*
X410000Y105000D01*
X404050Y99050D02*
X275000Y99050D01*
M02*
