G04 EAGLE Gerber RS-274X export*
G75*
%MOMM*%
%FSLAX34Y34*%
%LPD*%
%INSilkscreen Top*%
%IPPOS*%
%AMOC8*
5,1,8,0,0,1.08239X$1,22.5*%
G01*
%ADD10C,0.254000*%
%ADD11C,0.152400*%
%ADD12C,0.203200*%
%ADD13C,0.050800*%
%ADD14R,0.375000X9.000000*%
%ADD15C,0.101600*%
%ADD16C,0.127000*%


D10*
X555522Y100400D02*
X561110Y100400D01*
D11*
X578636Y98876D02*
X579218Y98658D01*
X579794Y98425D01*
X580364Y98178D01*
X580928Y97918D01*
X581486Y97643D01*
X582037Y97356D01*
X582580Y97054D01*
X583116Y96740D01*
X583644Y96412D01*
X584164Y96072D01*
X584676Y95719D01*
X585178Y95354D01*
X585672Y94976D01*
X586156Y94587D01*
X586630Y94185D01*
X587095Y93773D01*
X587549Y93349D01*
X587993Y92914D01*
X588426Y92468D01*
X588848Y92012D01*
X589259Y91546D01*
X589658Y91069D01*
X590045Y90583D01*
X590421Y90088D01*
X590784Y89584D01*
X591134Y89071D01*
X591472Y88550D01*
X591798Y88020D01*
X592110Y87483D01*
X592408Y86938D01*
X592694Y86386D01*
X592966Y85827D01*
X593224Y85262D01*
X593468Y84690D01*
X593698Y84113D01*
X593914Y83531D01*
X594116Y82943D01*
X594303Y82350D01*
X594475Y81753D01*
X594633Y81152D01*
X594777Y80548D01*
X594905Y79940D01*
X595018Y79329D01*
X595117Y78715D01*
X595200Y78099D01*
X595268Y77482D01*
X595322Y76863D01*
X595360Y76242D01*
X595382Y75621D01*
X595390Y75000D01*
X595382Y74379D01*
X595360Y73758D01*
X595322Y73137D01*
X595268Y72518D01*
X595200Y71901D01*
X595117Y71285D01*
X595018Y70671D01*
X594905Y70060D01*
X594777Y69452D01*
X594633Y68848D01*
X594475Y68247D01*
X594303Y67650D01*
X594116Y67057D01*
X593914Y66469D01*
X593698Y65887D01*
X593468Y65310D01*
X593224Y64738D01*
X592966Y64173D01*
X592694Y63614D01*
X592408Y63062D01*
X592110Y62517D01*
X591798Y61980D01*
X591472Y61450D01*
X591134Y60929D01*
X590784Y60416D01*
X590421Y59912D01*
X590045Y59417D01*
X589658Y58931D01*
X589259Y58454D01*
X588848Y57988D01*
X588426Y57532D01*
X587993Y57086D01*
X587549Y56651D01*
X587095Y56227D01*
X586630Y55815D01*
X586156Y55413D01*
X585672Y55024D01*
X585178Y54646D01*
X584676Y54281D01*
X584164Y53928D01*
X583644Y53588D01*
X583116Y53260D01*
X582580Y52946D01*
X582037Y52644D01*
X581486Y52357D01*
X580928Y52082D01*
X580364Y51822D01*
X579794Y51575D01*
X579218Y51342D01*
X578636Y51124D01*
D10*
X561366Y47066D02*
X560685Y47286D01*
X560010Y47522D01*
X559341Y47774D01*
X558678Y48043D01*
X558022Y48328D01*
X557374Y48629D01*
X556732Y48945D01*
X556099Y49278D01*
X555474Y49625D01*
X554858Y49988D01*
X554250Y50366D01*
X553653Y50758D01*
X553065Y51165D01*
X552487Y51587D01*
X551919Y52022D01*
X551363Y52471D01*
X550817Y52934D01*
X550283Y53409D01*
X549761Y53898D01*
X549251Y54399D01*
X548753Y54913D01*
X548268Y55439D01*
X547796Y55976D01*
X547338Y56525D01*
X546893Y57084D01*
X546461Y57655D01*
X546044Y58236D01*
X545641Y58827D01*
X545253Y59427D01*
X544880Y60037D01*
X544521Y60656D01*
X544178Y61283D01*
X543850Y61919D01*
X543538Y62563D01*
X543242Y63213D01*
X542961Y63871D01*
X542697Y64536D01*
X542450Y65207D01*
X542218Y65884D01*
X542004Y66566D01*
X541806Y67253D01*
X541625Y67945D01*
X541461Y68641D01*
X541314Y69341D01*
X541184Y70044D01*
X541071Y70750D01*
X540976Y71459D01*
X540898Y72170D01*
X540838Y72883D01*
X540795Y73597D01*
X540769Y74311D01*
X540761Y75027D01*
X540770Y75742D01*
X540797Y76456D01*
X540842Y77170D01*
X540904Y77883D01*
X540983Y78593D01*
X541079Y79302D01*
X541193Y80008D01*
X541324Y80711D01*
X541473Y81411D01*
X541638Y82106D01*
X541820Y82798D01*
X542020Y83485D01*
X542236Y84167D01*
X542468Y84843D01*
X542717Y85513D01*
X542982Y86177D01*
X543264Y86835D01*
X543561Y87485D01*
X543875Y88128D01*
X544204Y88763D01*
X544548Y89390D01*
X544908Y90008D01*
X545282Y90617D01*
X545672Y91217D01*
X546076Y91807D01*
X546494Y92387D01*
X546926Y92957D01*
X547373Y93516D01*
X547832Y94064D01*
X548305Y94600D01*
X548791Y95125D01*
X549290Y95638D01*
X549801Y96138D01*
X550324Y96626D01*
X550859Y97100D01*
X551405Y97562D01*
X551963Y98010D01*
X552531Y98444D01*
X553109Y98864D01*
X553698Y99270D01*
X554297Y99662D01*
X554905Y100038D01*
X555522Y100400D01*
X584482Y100406D02*
X585099Y100045D01*
X585707Y99668D01*
X586306Y99276D01*
X586894Y98870D01*
X587473Y98450D01*
X588041Y98015D01*
X588599Y97567D01*
X589145Y97106D01*
X589680Y96631D01*
X590203Y96143D01*
X590714Y95642D01*
X591213Y95130D01*
X591699Y94605D01*
X592172Y94068D01*
X592632Y93520D01*
X593078Y92961D01*
X593510Y92391D01*
X593928Y91811D01*
X594332Y91221D01*
X594722Y90621D01*
X595096Y90011D01*
X595456Y89393D01*
X595800Y88766D01*
X596129Y88131D01*
X596443Y87488D01*
X596740Y86837D01*
X597022Y86180D01*
X597287Y85516D01*
X597536Y84845D01*
X597769Y84169D01*
X597985Y83487D01*
X598184Y82800D01*
X598366Y82108D01*
X598531Y81412D01*
X598680Y80712D01*
X598811Y80009D01*
X598925Y79303D01*
X599021Y78594D01*
X599101Y77883D01*
X599162Y77171D01*
X599207Y76457D01*
X599234Y75742D01*
X599243Y75027D01*
X599235Y74312D01*
X599209Y73597D01*
X599166Y72883D01*
X599106Y72170D01*
X599028Y71459D01*
X598933Y70750D01*
X598820Y70044D01*
X598690Y69340D01*
X598543Y68640D01*
X598379Y67944D01*
X598198Y67252D01*
X598000Y66565D01*
X597785Y65882D01*
X597554Y65206D01*
X597306Y64535D01*
X597042Y63870D01*
X596762Y63212D01*
X596466Y62561D01*
X596153Y61917D01*
X595826Y61281D01*
X595482Y60654D01*
X595124Y60035D01*
X594750Y59425D01*
X594362Y58824D01*
X593959Y58233D01*
X593542Y57652D01*
X593111Y57081D01*
X592666Y56522D01*
X592207Y55973D01*
X591735Y55435D01*
X591250Y54909D01*
X590752Y54396D01*
X590242Y53894D01*
X589720Y53406D01*
X589186Y52930D01*
X588640Y52467D01*
X588084Y52018D01*
X587516Y51582D01*
X586938Y51161D01*
X586350Y50754D01*
X585752Y50361D01*
X585145Y49983D01*
X584528Y49620D01*
X583903Y49272D01*
X583270Y48940D01*
X582629Y48623D01*
X581980Y48322D01*
X581324Y48037D01*
X580661Y47768D01*
X579992Y47516D01*
X579317Y47279D01*
X578636Y47060D01*
D11*
X561364Y51124D02*
X560782Y51342D01*
X560206Y51575D01*
X559636Y51822D01*
X559072Y52082D01*
X558514Y52357D01*
X557963Y52644D01*
X557420Y52946D01*
X556884Y53260D01*
X556356Y53588D01*
X555836Y53928D01*
X555324Y54281D01*
X554822Y54646D01*
X554328Y55024D01*
X553844Y55413D01*
X553370Y55815D01*
X552905Y56227D01*
X552451Y56651D01*
X552007Y57086D01*
X551574Y57532D01*
X551152Y57988D01*
X550741Y58454D01*
X550342Y58931D01*
X549955Y59417D01*
X549579Y59912D01*
X549216Y60416D01*
X548866Y60929D01*
X548528Y61450D01*
X548202Y61980D01*
X547890Y62517D01*
X547592Y63062D01*
X547306Y63614D01*
X547034Y64173D01*
X546776Y64738D01*
X546532Y65310D01*
X546302Y65887D01*
X546086Y66469D01*
X545884Y67057D01*
X545697Y67650D01*
X545525Y68247D01*
X545367Y68848D01*
X545223Y69452D01*
X545095Y70060D01*
X544982Y70671D01*
X544883Y71285D01*
X544800Y71901D01*
X544732Y72518D01*
X544678Y73137D01*
X544640Y73758D01*
X544618Y74379D01*
X544610Y75000D01*
X544618Y75621D01*
X544640Y76242D01*
X544678Y76863D01*
X544732Y77482D01*
X544800Y78099D01*
X544883Y78715D01*
X544982Y79329D01*
X545095Y79940D01*
X545223Y80548D01*
X545367Y81152D01*
X545525Y81753D01*
X545697Y82350D01*
X545884Y82943D01*
X546086Y83531D01*
X546302Y84113D01*
X546532Y84690D01*
X546776Y85262D01*
X547034Y85827D01*
X547306Y86386D01*
X547592Y86938D01*
X547890Y87483D01*
X548202Y88020D01*
X548528Y88550D01*
X548866Y89071D01*
X549216Y89584D01*
X549579Y90088D01*
X549955Y90583D01*
X550342Y91069D01*
X550741Y91546D01*
X551152Y92012D01*
X551574Y92468D01*
X552007Y92914D01*
X552451Y93349D01*
X552905Y93773D01*
X553370Y94185D01*
X553844Y94587D01*
X554328Y94976D01*
X554822Y95354D01*
X555324Y95719D01*
X555836Y96072D01*
X556356Y96412D01*
X556884Y96740D01*
X557420Y97054D01*
X557963Y97356D01*
X558514Y97643D01*
X559072Y97918D01*
X559636Y98178D01*
X560206Y98425D01*
X560782Y98658D01*
X561364Y98876D01*
D10*
X578890Y100400D02*
X584478Y100400D01*
X31110Y100400D02*
X25522Y100400D01*
D11*
X48636Y98876D02*
X49218Y98658D01*
X49794Y98425D01*
X50364Y98178D01*
X50928Y97918D01*
X51486Y97643D01*
X52037Y97356D01*
X52580Y97054D01*
X53116Y96740D01*
X53644Y96412D01*
X54164Y96072D01*
X54676Y95719D01*
X55178Y95354D01*
X55672Y94976D01*
X56156Y94587D01*
X56630Y94185D01*
X57095Y93773D01*
X57549Y93349D01*
X57993Y92914D01*
X58426Y92468D01*
X58848Y92012D01*
X59259Y91546D01*
X59658Y91069D01*
X60045Y90583D01*
X60421Y90088D01*
X60784Y89584D01*
X61134Y89071D01*
X61472Y88550D01*
X61798Y88020D01*
X62110Y87483D01*
X62408Y86938D01*
X62694Y86386D01*
X62966Y85827D01*
X63224Y85262D01*
X63468Y84690D01*
X63698Y84113D01*
X63914Y83531D01*
X64116Y82943D01*
X64303Y82350D01*
X64475Y81753D01*
X64633Y81152D01*
X64777Y80548D01*
X64905Y79940D01*
X65018Y79329D01*
X65117Y78715D01*
X65200Y78099D01*
X65268Y77482D01*
X65322Y76863D01*
X65360Y76242D01*
X65382Y75621D01*
X65390Y75000D01*
X65382Y74379D01*
X65360Y73758D01*
X65322Y73137D01*
X65268Y72518D01*
X65200Y71901D01*
X65117Y71285D01*
X65018Y70671D01*
X64905Y70060D01*
X64777Y69452D01*
X64633Y68848D01*
X64475Y68247D01*
X64303Y67650D01*
X64116Y67057D01*
X63914Y66469D01*
X63698Y65887D01*
X63468Y65310D01*
X63224Y64738D01*
X62966Y64173D01*
X62694Y63614D01*
X62408Y63062D01*
X62110Y62517D01*
X61798Y61980D01*
X61472Y61450D01*
X61134Y60929D01*
X60784Y60416D01*
X60421Y59912D01*
X60045Y59417D01*
X59658Y58931D01*
X59259Y58454D01*
X58848Y57988D01*
X58426Y57532D01*
X57993Y57086D01*
X57549Y56651D01*
X57095Y56227D01*
X56630Y55815D01*
X56156Y55413D01*
X55672Y55024D01*
X55178Y54646D01*
X54676Y54281D01*
X54164Y53928D01*
X53644Y53588D01*
X53116Y53260D01*
X52580Y52946D01*
X52037Y52644D01*
X51486Y52357D01*
X50928Y52082D01*
X50364Y51822D01*
X49794Y51575D01*
X49218Y51342D01*
X48636Y51124D01*
D10*
X31366Y47066D02*
X30685Y47286D01*
X30010Y47522D01*
X29341Y47774D01*
X28678Y48043D01*
X28022Y48328D01*
X27374Y48629D01*
X26732Y48945D01*
X26099Y49278D01*
X25474Y49625D01*
X24858Y49988D01*
X24250Y50366D01*
X23653Y50758D01*
X23065Y51165D01*
X22487Y51587D01*
X21919Y52022D01*
X21363Y52471D01*
X20817Y52934D01*
X20283Y53409D01*
X19761Y53898D01*
X19251Y54399D01*
X18753Y54913D01*
X18268Y55439D01*
X17796Y55976D01*
X17338Y56525D01*
X16893Y57084D01*
X16461Y57655D01*
X16044Y58236D01*
X15641Y58827D01*
X15253Y59427D01*
X14880Y60037D01*
X14521Y60656D01*
X14178Y61283D01*
X13850Y61919D01*
X13538Y62563D01*
X13242Y63213D01*
X12961Y63871D01*
X12697Y64536D01*
X12450Y65207D01*
X12218Y65884D01*
X12004Y66566D01*
X11806Y67253D01*
X11625Y67945D01*
X11461Y68641D01*
X11314Y69341D01*
X11184Y70044D01*
X11071Y70750D01*
X10976Y71459D01*
X10898Y72170D01*
X10838Y72883D01*
X10795Y73597D01*
X10769Y74311D01*
X10761Y75027D01*
X10770Y75742D01*
X10797Y76456D01*
X10842Y77170D01*
X10904Y77883D01*
X10983Y78593D01*
X11079Y79302D01*
X11193Y80008D01*
X11324Y80711D01*
X11473Y81411D01*
X11638Y82106D01*
X11820Y82798D01*
X12020Y83485D01*
X12236Y84167D01*
X12468Y84843D01*
X12717Y85513D01*
X12982Y86177D01*
X13264Y86835D01*
X13561Y87485D01*
X13875Y88128D01*
X14204Y88763D01*
X14548Y89390D01*
X14908Y90008D01*
X15282Y90617D01*
X15672Y91217D01*
X16076Y91807D01*
X16494Y92387D01*
X16926Y92957D01*
X17373Y93516D01*
X17832Y94064D01*
X18305Y94600D01*
X18791Y95125D01*
X19290Y95638D01*
X19801Y96138D01*
X20324Y96626D01*
X20859Y97100D01*
X21405Y97562D01*
X21963Y98010D01*
X22531Y98444D01*
X23109Y98864D01*
X23698Y99270D01*
X24297Y99662D01*
X24905Y100038D01*
X25522Y100400D01*
X54482Y100406D02*
X55099Y100045D01*
X55707Y99668D01*
X56306Y99276D01*
X56894Y98870D01*
X57473Y98450D01*
X58041Y98015D01*
X58599Y97567D01*
X59145Y97106D01*
X59680Y96631D01*
X60203Y96143D01*
X60714Y95642D01*
X61213Y95130D01*
X61699Y94605D01*
X62172Y94068D01*
X62632Y93520D01*
X63078Y92961D01*
X63510Y92391D01*
X63928Y91811D01*
X64332Y91221D01*
X64722Y90621D01*
X65096Y90011D01*
X65456Y89393D01*
X65800Y88766D01*
X66129Y88131D01*
X66443Y87488D01*
X66740Y86837D01*
X67022Y86180D01*
X67287Y85516D01*
X67536Y84845D01*
X67769Y84169D01*
X67985Y83487D01*
X68184Y82800D01*
X68366Y82108D01*
X68531Y81412D01*
X68680Y80712D01*
X68811Y80009D01*
X68925Y79303D01*
X69021Y78594D01*
X69101Y77883D01*
X69162Y77171D01*
X69207Y76457D01*
X69234Y75742D01*
X69243Y75027D01*
X69235Y74312D01*
X69209Y73597D01*
X69166Y72883D01*
X69106Y72170D01*
X69028Y71459D01*
X68933Y70750D01*
X68820Y70044D01*
X68690Y69340D01*
X68543Y68640D01*
X68379Y67944D01*
X68198Y67252D01*
X68000Y66565D01*
X67785Y65882D01*
X67554Y65206D01*
X67306Y64535D01*
X67042Y63870D01*
X66762Y63212D01*
X66466Y62561D01*
X66153Y61917D01*
X65826Y61281D01*
X65482Y60654D01*
X65124Y60035D01*
X64750Y59425D01*
X64362Y58824D01*
X63959Y58233D01*
X63542Y57652D01*
X63111Y57081D01*
X62666Y56522D01*
X62207Y55973D01*
X61735Y55435D01*
X61250Y54909D01*
X60752Y54396D01*
X60242Y53894D01*
X59720Y53406D01*
X59186Y52930D01*
X58640Y52467D01*
X58084Y52018D01*
X57516Y51582D01*
X56938Y51161D01*
X56350Y50754D01*
X55752Y50361D01*
X55145Y49983D01*
X54528Y49620D01*
X53903Y49272D01*
X53270Y48940D01*
X52629Y48623D01*
X51980Y48322D01*
X51324Y48037D01*
X50661Y47768D01*
X49992Y47516D01*
X49317Y47279D01*
X48636Y47060D01*
D11*
X31364Y51124D02*
X30782Y51342D01*
X30206Y51575D01*
X29636Y51822D01*
X29072Y52082D01*
X28514Y52357D01*
X27963Y52644D01*
X27420Y52946D01*
X26884Y53260D01*
X26356Y53588D01*
X25836Y53928D01*
X25324Y54281D01*
X24822Y54646D01*
X24328Y55024D01*
X23844Y55413D01*
X23370Y55815D01*
X22905Y56227D01*
X22451Y56651D01*
X22007Y57086D01*
X21574Y57532D01*
X21152Y57988D01*
X20741Y58454D01*
X20342Y58931D01*
X19955Y59417D01*
X19579Y59912D01*
X19216Y60416D01*
X18866Y60929D01*
X18528Y61450D01*
X18202Y61980D01*
X17890Y62517D01*
X17592Y63062D01*
X17306Y63614D01*
X17034Y64173D01*
X16776Y64738D01*
X16532Y65310D01*
X16302Y65887D01*
X16086Y66469D01*
X15884Y67057D01*
X15697Y67650D01*
X15525Y68247D01*
X15367Y68848D01*
X15223Y69452D01*
X15095Y70060D01*
X14982Y70671D01*
X14883Y71285D01*
X14800Y71901D01*
X14732Y72518D01*
X14678Y73137D01*
X14640Y73758D01*
X14618Y74379D01*
X14610Y75000D01*
X14618Y75621D01*
X14640Y76242D01*
X14678Y76863D01*
X14732Y77482D01*
X14800Y78099D01*
X14883Y78715D01*
X14982Y79329D01*
X15095Y79940D01*
X15223Y80548D01*
X15367Y81152D01*
X15525Y81753D01*
X15697Y82350D01*
X15884Y82943D01*
X16086Y83531D01*
X16302Y84113D01*
X16532Y84690D01*
X16776Y85262D01*
X17034Y85827D01*
X17306Y86386D01*
X17592Y86938D01*
X17890Y87483D01*
X18202Y88020D01*
X18528Y88550D01*
X18866Y89071D01*
X19216Y89584D01*
X19579Y90088D01*
X19955Y90583D01*
X20342Y91069D01*
X20741Y91546D01*
X21152Y92012D01*
X21574Y92468D01*
X22007Y92914D01*
X22451Y93349D01*
X22905Y93773D01*
X23370Y94185D01*
X23844Y94587D01*
X24328Y94976D01*
X24822Y95354D01*
X25324Y95719D01*
X25836Y96072D01*
X26356Y96412D01*
X26884Y96740D01*
X27420Y97054D01*
X27963Y97356D01*
X28514Y97643D01*
X29072Y97918D01*
X29636Y98178D01*
X30206Y98425D01*
X30782Y98658D01*
X31364Y98876D01*
D10*
X48890Y100400D02*
X54478Y100400D01*
D12*
X290000Y125250D02*
X290000Y34750D01*
X290000Y125250D02*
X260000Y125250D01*
X260000Y34750D01*
X290000Y34750D01*
D13*
X277500Y35000D02*
X277500Y38750D01*
X287500Y38750D01*
X277500Y121250D02*
X277500Y125000D01*
X277500Y121250D02*
X287500Y121250D01*
X271250Y38750D02*
X271250Y35000D01*
X271250Y121250D02*
X271250Y125000D01*
X271250Y38750D02*
X263750Y38750D01*
X263750Y121250D01*
X271250Y121250D01*
X263750Y121250D02*
X261250Y123750D01*
X263750Y38750D02*
X261250Y36250D01*
D14*
X288125Y80000D03*
D15*
X250501Y40653D02*
X250501Y36758D01*
X250501Y40653D02*
X250503Y40752D01*
X250509Y40852D01*
X250518Y40951D01*
X250531Y41049D01*
X250548Y41147D01*
X250569Y41245D01*
X250594Y41341D01*
X250622Y41436D01*
X250654Y41530D01*
X250689Y41623D01*
X250728Y41715D01*
X250771Y41805D01*
X250816Y41893D01*
X250866Y41980D01*
X250918Y42064D01*
X250974Y42147D01*
X251032Y42227D01*
X251094Y42305D01*
X251159Y42380D01*
X251227Y42453D01*
X251297Y42523D01*
X251370Y42591D01*
X251445Y42656D01*
X251523Y42718D01*
X251603Y42776D01*
X251686Y42832D01*
X251770Y42884D01*
X251857Y42934D01*
X251945Y42979D01*
X252035Y43022D01*
X252127Y43061D01*
X252220Y43096D01*
X252314Y43128D01*
X252409Y43156D01*
X252505Y43181D01*
X252603Y43202D01*
X252701Y43219D01*
X252799Y43232D01*
X252898Y43241D01*
X252998Y43247D01*
X253097Y43249D01*
X253746Y43249D01*
X253746Y43250D02*
X253859Y43248D01*
X253972Y43242D01*
X254085Y43232D01*
X254198Y43218D01*
X254310Y43201D01*
X254421Y43179D01*
X254531Y43154D01*
X254641Y43124D01*
X254749Y43091D01*
X254856Y43054D01*
X254962Y43014D01*
X255066Y42969D01*
X255169Y42921D01*
X255270Y42870D01*
X255369Y42815D01*
X255466Y42757D01*
X255561Y42695D01*
X255654Y42630D01*
X255744Y42562D01*
X255832Y42491D01*
X255918Y42416D01*
X256001Y42339D01*
X256081Y42259D01*
X256158Y42176D01*
X256233Y42090D01*
X256304Y42002D01*
X256372Y41912D01*
X256437Y41819D01*
X256499Y41724D01*
X256557Y41627D01*
X256612Y41528D01*
X256663Y41427D01*
X256711Y41324D01*
X256756Y41220D01*
X256796Y41114D01*
X256833Y41007D01*
X256866Y40899D01*
X256896Y40789D01*
X256921Y40679D01*
X256943Y40568D01*
X256960Y40456D01*
X256974Y40343D01*
X256984Y40230D01*
X256990Y40117D01*
X256992Y40004D01*
X256990Y39891D01*
X256984Y39778D01*
X256974Y39665D01*
X256960Y39552D01*
X256943Y39440D01*
X256921Y39329D01*
X256896Y39219D01*
X256866Y39109D01*
X256833Y39001D01*
X256796Y38894D01*
X256756Y38788D01*
X256711Y38684D01*
X256663Y38581D01*
X256612Y38480D01*
X256557Y38381D01*
X256499Y38284D01*
X256437Y38189D01*
X256372Y38096D01*
X256304Y38006D01*
X256233Y37918D01*
X256158Y37832D01*
X256081Y37749D01*
X256001Y37669D01*
X255918Y37592D01*
X255832Y37517D01*
X255744Y37446D01*
X255654Y37378D01*
X255561Y37313D01*
X255466Y37251D01*
X255369Y37193D01*
X255270Y37138D01*
X255169Y37087D01*
X255066Y37039D01*
X254962Y36994D01*
X254856Y36954D01*
X254749Y36917D01*
X254641Y36884D01*
X254531Y36854D01*
X254421Y36829D01*
X254310Y36807D01*
X254198Y36790D01*
X254085Y36776D01*
X253972Y36766D01*
X253859Y36760D01*
X253746Y36758D01*
X250501Y36758D01*
X250358Y36760D01*
X250215Y36766D01*
X250072Y36776D01*
X249930Y36790D01*
X249788Y36807D01*
X249646Y36829D01*
X249505Y36854D01*
X249365Y36884D01*
X249226Y36917D01*
X249088Y36954D01*
X248951Y36995D01*
X248815Y37039D01*
X248680Y37088D01*
X248547Y37140D01*
X248415Y37195D01*
X248285Y37255D01*
X248156Y37318D01*
X248029Y37384D01*
X247905Y37454D01*
X247782Y37527D01*
X247661Y37604D01*
X247542Y37683D01*
X247426Y37767D01*
X247311Y37853D01*
X247200Y37942D01*
X247091Y38035D01*
X246984Y38130D01*
X246880Y38229D01*
X246779Y38330D01*
X246680Y38434D01*
X246585Y38540D01*
X246492Y38650D01*
X246403Y38761D01*
X246317Y38875D01*
X246234Y38992D01*
X246154Y39111D01*
X246077Y39232D01*
X246004Y39354D01*
X245934Y39479D01*
X245868Y39606D01*
X245805Y39735D01*
X245745Y39865D01*
X245690Y39997D01*
X245638Y40130D01*
X245589Y40265D01*
X245545Y40401D01*
X245504Y40538D01*
X245467Y40676D01*
X245434Y40815D01*
X245404Y40955D01*
X245379Y41096D01*
X245357Y41238D01*
X245340Y41380D01*
X245326Y41522D01*
X245316Y41665D01*
X245310Y41808D01*
X245308Y41951D01*
X256992Y48188D02*
X256992Y52083D01*
X256990Y52182D01*
X256984Y52282D01*
X256975Y52381D01*
X256962Y52479D01*
X256945Y52577D01*
X256924Y52675D01*
X256899Y52771D01*
X256871Y52866D01*
X256839Y52960D01*
X256804Y53053D01*
X256765Y53145D01*
X256722Y53235D01*
X256677Y53323D01*
X256627Y53410D01*
X256575Y53494D01*
X256519Y53577D01*
X256461Y53657D01*
X256399Y53735D01*
X256334Y53810D01*
X256266Y53883D01*
X256196Y53953D01*
X256123Y54021D01*
X256048Y54086D01*
X255970Y54148D01*
X255890Y54206D01*
X255807Y54262D01*
X255723Y54314D01*
X255636Y54364D01*
X255548Y54409D01*
X255458Y54452D01*
X255366Y54491D01*
X255273Y54526D01*
X255179Y54558D01*
X255084Y54586D01*
X254988Y54611D01*
X254890Y54632D01*
X254792Y54649D01*
X254694Y54662D01*
X254595Y54671D01*
X254495Y54677D01*
X254396Y54679D01*
X253097Y54679D01*
X252998Y54677D01*
X252898Y54671D01*
X252799Y54662D01*
X252701Y54649D01*
X252603Y54632D01*
X252505Y54611D01*
X252409Y54586D01*
X252314Y54558D01*
X252220Y54526D01*
X252127Y54491D01*
X252035Y54452D01*
X251945Y54409D01*
X251857Y54364D01*
X251770Y54314D01*
X251686Y54262D01*
X251603Y54206D01*
X251523Y54148D01*
X251445Y54086D01*
X251370Y54021D01*
X251297Y53953D01*
X251227Y53883D01*
X251159Y53810D01*
X251094Y53735D01*
X251032Y53657D01*
X250974Y53577D01*
X250918Y53494D01*
X250866Y53410D01*
X250816Y53323D01*
X250771Y53235D01*
X250728Y53145D01*
X250689Y53053D01*
X250654Y52960D01*
X250622Y52866D01*
X250594Y52771D01*
X250569Y52675D01*
X250548Y52577D01*
X250531Y52479D01*
X250518Y52381D01*
X250509Y52282D01*
X250503Y52182D01*
X250501Y52083D01*
X250501Y48188D01*
X245308Y48188D01*
X245308Y54679D01*
X247904Y59618D02*
X245308Y62863D01*
X256992Y62863D01*
X256992Y59618D02*
X256992Y66109D01*
D11*
X330080Y122380D02*
X332620Y122380D01*
X332620Y124920D01*
X317380Y124920D02*
X317380Y122380D01*
X319920Y122380D01*
X317380Y135080D02*
X317380Y137620D01*
X319920Y137620D01*
X330080Y137620D02*
X332620Y137620D01*
X332620Y135080D01*
D16*
X311235Y114125D02*
X308060Y114125D01*
X311235Y114125D02*
X311346Y114123D01*
X311456Y114117D01*
X311567Y114108D01*
X311677Y114094D01*
X311786Y114077D01*
X311895Y114056D01*
X312003Y114031D01*
X312110Y114002D01*
X312216Y113970D01*
X312321Y113934D01*
X312424Y113894D01*
X312526Y113851D01*
X312627Y113804D01*
X312726Y113753D01*
X312823Y113700D01*
X312917Y113643D01*
X313010Y113582D01*
X313101Y113519D01*
X313190Y113452D01*
X313276Y113382D01*
X313359Y113309D01*
X313441Y113234D01*
X313519Y113156D01*
X313594Y113074D01*
X313667Y112991D01*
X313737Y112905D01*
X313804Y112816D01*
X313867Y112725D01*
X313928Y112632D01*
X313985Y112537D01*
X314038Y112441D01*
X314089Y112342D01*
X314136Y112241D01*
X314179Y112139D01*
X314219Y112036D01*
X314255Y111931D01*
X314287Y111825D01*
X314316Y111718D01*
X314341Y111610D01*
X314362Y111501D01*
X314379Y111392D01*
X314393Y111282D01*
X314402Y111171D01*
X314408Y111061D01*
X314410Y110950D01*
X314408Y110839D01*
X314402Y110729D01*
X314393Y110618D01*
X314379Y110508D01*
X314362Y110399D01*
X314341Y110290D01*
X314316Y110182D01*
X314287Y110075D01*
X314255Y109969D01*
X314219Y109864D01*
X314179Y109761D01*
X314136Y109659D01*
X314089Y109558D01*
X314038Y109459D01*
X313985Y109362D01*
X313928Y109268D01*
X313867Y109175D01*
X313804Y109084D01*
X313737Y108995D01*
X313667Y108909D01*
X313594Y108826D01*
X313519Y108744D01*
X313441Y108666D01*
X313359Y108591D01*
X313276Y108518D01*
X313190Y108448D01*
X313101Y108381D01*
X313010Y108318D01*
X312917Y108257D01*
X312823Y108200D01*
X312726Y108147D01*
X312627Y108096D01*
X312526Y108049D01*
X312424Y108006D01*
X312321Y107966D01*
X312216Y107930D01*
X312110Y107898D01*
X312003Y107869D01*
X311895Y107844D01*
X311786Y107823D01*
X311677Y107806D01*
X311567Y107792D01*
X311456Y107783D01*
X311346Y107777D01*
X311235Y107775D01*
X308060Y107775D01*
X308060Y119205D01*
X311235Y119205D01*
X311335Y119203D01*
X311434Y119197D01*
X311534Y119187D01*
X311632Y119174D01*
X311731Y119156D01*
X311828Y119135D01*
X311924Y119110D01*
X312020Y119081D01*
X312114Y119048D01*
X312207Y119012D01*
X312298Y118972D01*
X312388Y118928D01*
X312476Y118881D01*
X312562Y118831D01*
X312646Y118777D01*
X312728Y118720D01*
X312807Y118660D01*
X312885Y118596D01*
X312959Y118530D01*
X313031Y118461D01*
X313100Y118389D01*
X313166Y118315D01*
X313230Y118237D01*
X313290Y118158D01*
X313347Y118076D01*
X313401Y117992D01*
X313451Y117906D01*
X313498Y117818D01*
X313542Y117728D01*
X313582Y117637D01*
X313618Y117544D01*
X313651Y117450D01*
X313680Y117354D01*
X313705Y117258D01*
X313726Y117161D01*
X313744Y117062D01*
X313757Y116964D01*
X313767Y116864D01*
X313773Y116765D01*
X313775Y116665D01*
X313773Y116565D01*
X313767Y116466D01*
X313757Y116366D01*
X313744Y116268D01*
X313726Y116169D01*
X313705Y116072D01*
X313680Y115976D01*
X313651Y115880D01*
X313618Y115786D01*
X313582Y115693D01*
X313542Y115602D01*
X313498Y115512D01*
X313451Y115424D01*
X313401Y115338D01*
X313347Y115254D01*
X313290Y115172D01*
X313230Y115093D01*
X313166Y115015D01*
X313100Y114941D01*
X313031Y114869D01*
X312959Y114800D01*
X312885Y114734D01*
X312807Y114670D01*
X312728Y114610D01*
X312646Y114553D01*
X312562Y114499D01*
X312476Y114449D01*
X312388Y114402D01*
X312298Y114358D01*
X312207Y114318D01*
X312114Y114282D01*
X312020Y114249D01*
X311924Y114220D01*
X311828Y114195D01*
X311731Y114174D01*
X311632Y114156D01*
X311534Y114143D01*
X311434Y114133D01*
X311335Y114127D01*
X311235Y114125D01*
X319324Y119205D02*
X319324Y107775D01*
X324404Y107775D01*
X328189Y107775D02*
X331999Y119205D01*
X335809Y107775D01*
X334857Y110633D02*
X329142Y110633D01*
X340635Y110950D02*
X340635Y119205D01*
X340635Y110950D02*
X340637Y110839D01*
X340643Y110729D01*
X340652Y110618D01*
X340666Y110508D01*
X340683Y110399D01*
X340704Y110290D01*
X340729Y110182D01*
X340758Y110075D01*
X340790Y109969D01*
X340826Y109864D01*
X340866Y109761D01*
X340909Y109659D01*
X340956Y109558D01*
X341007Y109459D01*
X341060Y109363D01*
X341117Y109268D01*
X341178Y109175D01*
X341241Y109084D01*
X341308Y108995D01*
X341378Y108909D01*
X341451Y108826D01*
X341526Y108744D01*
X341604Y108666D01*
X341686Y108591D01*
X341769Y108518D01*
X341855Y108448D01*
X341944Y108381D01*
X342035Y108318D01*
X342128Y108257D01*
X342223Y108200D01*
X342319Y108147D01*
X342418Y108096D01*
X342519Y108049D01*
X342621Y108006D01*
X342724Y107966D01*
X342829Y107930D01*
X342935Y107898D01*
X343042Y107869D01*
X343150Y107844D01*
X343259Y107823D01*
X343368Y107806D01*
X343478Y107792D01*
X343589Y107783D01*
X343699Y107777D01*
X343810Y107775D01*
X343921Y107777D01*
X344031Y107783D01*
X344142Y107792D01*
X344252Y107806D01*
X344361Y107823D01*
X344470Y107844D01*
X344578Y107869D01*
X344685Y107898D01*
X344791Y107930D01*
X344896Y107966D01*
X344999Y108006D01*
X345101Y108049D01*
X345202Y108096D01*
X345301Y108147D01*
X345397Y108200D01*
X345492Y108257D01*
X345585Y108318D01*
X345676Y108381D01*
X345765Y108448D01*
X345851Y108518D01*
X345934Y108591D01*
X346016Y108666D01*
X346094Y108744D01*
X346169Y108826D01*
X346242Y108909D01*
X346312Y108995D01*
X346379Y109084D01*
X346442Y109175D01*
X346503Y109268D01*
X346560Y109362D01*
X346613Y109459D01*
X346664Y109558D01*
X346711Y109659D01*
X346754Y109761D01*
X346794Y109864D01*
X346830Y109969D01*
X346862Y110075D01*
X346891Y110182D01*
X346916Y110290D01*
X346937Y110399D01*
X346954Y110508D01*
X346968Y110618D01*
X346977Y110729D01*
X346983Y110839D01*
X346985Y110950D01*
X346985Y119205D01*
D15*
X204492Y53754D02*
X192808Y53754D01*
X192808Y56999D02*
X192808Y50508D01*
X192808Y61631D02*
X204492Y61631D01*
X192808Y61631D02*
X192808Y64876D01*
X192810Y64989D01*
X192816Y65102D01*
X192826Y65215D01*
X192840Y65328D01*
X192857Y65440D01*
X192879Y65551D01*
X192904Y65661D01*
X192934Y65771D01*
X192967Y65879D01*
X193004Y65986D01*
X193044Y66092D01*
X193089Y66196D01*
X193137Y66299D01*
X193188Y66400D01*
X193243Y66499D01*
X193301Y66596D01*
X193363Y66691D01*
X193428Y66784D01*
X193496Y66874D01*
X193567Y66962D01*
X193642Y67048D01*
X193719Y67131D01*
X193799Y67211D01*
X193882Y67288D01*
X193968Y67363D01*
X194056Y67434D01*
X194146Y67502D01*
X194239Y67567D01*
X194334Y67629D01*
X194431Y67687D01*
X194530Y67742D01*
X194631Y67793D01*
X194734Y67841D01*
X194838Y67886D01*
X194944Y67926D01*
X195051Y67963D01*
X195159Y67996D01*
X195269Y68026D01*
X195379Y68051D01*
X195490Y68073D01*
X195602Y68090D01*
X195715Y68104D01*
X195828Y68114D01*
X195941Y68120D01*
X196054Y68122D01*
X196167Y68120D01*
X196280Y68114D01*
X196393Y68104D01*
X196506Y68090D01*
X196618Y68073D01*
X196729Y68051D01*
X196839Y68026D01*
X196949Y67996D01*
X197057Y67963D01*
X197164Y67926D01*
X197270Y67886D01*
X197374Y67841D01*
X197477Y67793D01*
X197578Y67742D01*
X197677Y67687D01*
X197774Y67629D01*
X197869Y67567D01*
X197962Y67502D01*
X198052Y67434D01*
X198140Y67363D01*
X198226Y67288D01*
X198309Y67211D01*
X198389Y67131D01*
X198466Y67048D01*
X198541Y66962D01*
X198612Y66874D01*
X198680Y66784D01*
X198745Y66691D01*
X198807Y66596D01*
X198865Y66499D01*
X198920Y66400D01*
X198971Y66299D01*
X199019Y66196D01*
X199064Y66092D01*
X199104Y65986D01*
X199141Y65879D01*
X199174Y65771D01*
X199204Y65661D01*
X199229Y65551D01*
X199251Y65440D01*
X199268Y65328D01*
X199282Y65215D01*
X199292Y65102D01*
X199298Y64989D01*
X199300Y64876D01*
X199299Y64876D02*
X199299Y61631D01*
X199299Y65525D02*
X204492Y68122D01*
X199948Y73100D02*
X199948Y80889D01*
X204492Y86396D02*
X192808Y86396D01*
X192808Y89641D01*
X192810Y89754D01*
X192816Y89867D01*
X192826Y89980D01*
X192840Y90093D01*
X192857Y90205D01*
X192879Y90316D01*
X192904Y90426D01*
X192934Y90536D01*
X192967Y90644D01*
X193004Y90751D01*
X193044Y90857D01*
X193089Y90961D01*
X193137Y91064D01*
X193188Y91165D01*
X193243Y91264D01*
X193301Y91361D01*
X193363Y91456D01*
X193428Y91549D01*
X193496Y91639D01*
X193567Y91727D01*
X193642Y91813D01*
X193719Y91896D01*
X193799Y91976D01*
X193882Y92053D01*
X193968Y92128D01*
X194056Y92199D01*
X194146Y92267D01*
X194239Y92332D01*
X194334Y92394D01*
X194431Y92452D01*
X194530Y92507D01*
X194631Y92558D01*
X194734Y92606D01*
X194838Y92651D01*
X194944Y92691D01*
X195051Y92728D01*
X195159Y92761D01*
X195269Y92791D01*
X195379Y92816D01*
X195490Y92838D01*
X195602Y92855D01*
X195715Y92869D01*
X195828Y92879D01*
X195941Y92885D01*
X196054Y92887D01*
X196167Y92885D01*
X196280Y92879D01*
X196393Y92869D01*
X196506Y92855D01*
X196618Y92838D01*
X196729Y92816D01*
X196839Y92791D01*
X196949Y92761D01*
X197057Y92728D01*
X197164Y92691D01*
X197270Y92651D01*
X197374Y92606D01*
X197477Y92558D01*
X197578Y92507D01*
X197677Y92452D01*
X197774Y92394D01*
X197869Y92332D01*
X197962Y92267D01*
X198052Y92199D01*
X198140Y92128D01*
X198226Y92053D01*
X198309Y91976D01*
X198389Y91896D01*
X198466Y91813D01*
X198541Y91727D01*
X198612Y91639D01*
X198680Y91549D01*
X198745Y91456D01*
X198807Y91361D01*
X198865Y91264D01*
X198920Y91165D01*
X198971Y91064D01*
X199019Y90961D01*
X199064Y90857D01*
X199104Y90751D01*
X199141Y90644D01*
X199174Y90536D01*
X199204Y90426D01*
X199229Y90316D01*
X199251Y90205D01*
X199268Y90093D01*
X199282Y89980D01*
X199292Y89867D01*
X199298Y89754D01*
X199300Y89641D01*
X199299Y89641D02*
X199299Y86396D01*
X199299Y90290D02*
X204492Y92887D01*
X303754Y42192D02*
X303754Y30508D01*
X300508Y42192D02*
X306999Y42192D01*
X311631Y42192D02*
X311631Y30508D01*
X311631Y42192D02*
X314876Y42192D01*
X314989Y42190D01*
X315102Y42184D01*
X315215Y42174D01*
X315328Y42160D01*
X315440Y42143D01*
X315551Y42121D01*
X315661Y42096D01*
X315771Y42066D01*
X315879Y42033D01*
X315986Y41996D01*
X316092Y41956D01*
X316196Y41911D01*
X316299Y41863D01*
X316400Y41812D01*
X316499Y41757D01*
X316596Y41699D01*
X316691Y41637D01*
X316784Y41572D01*
X316874Y41504D01*
X316962Y41433D01*
X317048Y41358D01*
X317131Y41281D01*
X317211Y41201D01*
X317288Y41118D01*
X317363Y41032D01*
X317434Y40944D01*
X317502Y40854D01*
X317567Y40761D01*
X317629Y40666D01*
X317687Y40569D01*
X317742Y40470D01*
X317793Y40369D01*
X317841Y40266D01*
X317886Y40162D01*
X317926Y40056D01*
X317963Y39949D01*
X317996Y39841D01*
X318026Y39731D01*
X318051Y39621D01*
X318073Y39510D01*
X318090Y39398D01*
X318104Y39285D01*
X318114Y39172D01*
X318120Y39059D01*
X318122Y38946D01*
X318120Y38833D01*
X318114Y38720D01*
X318104Y38607D01*
X318090Y38494D01*
X318073Y38382D01*
X318051Y38271D01*
X318026Y38161D01*
X317996Y38051D01*
X317963Y37943D01*
X317926Y37836D01*
X317886Y37730D01*
X317841Y37626D01*
X317793Y37523D01*
X317742Y37422D01*
X317687Y37323D01*
X317629Y37226D01*
X317567Y37131D01*
X317502Y37038D01*
X317434Y36948D01*
X317363Y36860D01*
X317288Y36774D01*
X317211Y36691D01*
X317131Y36611D01*
X317048Y36534D01*
X316962Y36459D01*
X316874Y36388D01*
X316784Y36320D01*
X316691Y36255D01*
X316596Y36193D01*
X316499Y36135D01*
X316400Y36080D01*
X316299Y36029D01*
X316196Y35981D01*
X316092Y35936D01*
X315986Y35896D01*
X315879Y35859D01*
X315771Y35826D01*
X315661Y35796D01*
X315551Y35771D01*
X315440Y35749D01*
X315328Y35732D01*
X315215Y35718D01*
X315102Y35708D01*
X314989Y35702D01*
X314876Y35700D01*
X314876Y35701D02*
X311631Y35701D01*
X315525Y35701D02*
X318122Y30508D01*
X323100Y35052D02*
X330889Y35052D01*
X336345Y30508D02*
X336345Y42192D01*
X336345Y30508D02*
X341537Y30508D01*
X385508Y60508D02*
X385508Y72192D01*
X389403Y65701D01*
X393297Y72192D01*
X393297Y60508D01*
X398843Y65052D02*
X406632Y65052D01*
X412139Y60508D02*
X412139Y72192D01*
X415384Y72192D01*
X415497Y72190D01*
X415610Y72184D01*
X415723Y72174D01*
X415836Y72160D01*
X415948Y72143D01*
X416059Y72121D01*
X416169Y72096D01*
X416279Y72066D01*
X416387Y72033D01*
X416494Y71996D01*
X416600Y71956D01*
X416704Y71911D01*
X416807Y71863D01*
X416908Y71812D01*
X417007Y71757D01*
X417104Y71699D01*
X417199Y71637D01*
X417292Y71572D01*
X417382Y71504D01*
X417470Y71433D01*
X417556Y71358D01*
X417639Y71281D01*
X417719Y71201D01*
X417796Y71118D01*
X417871Y71032D01*
X417942Y70944D01*
X418010Y70854D01*
X418075Y70761D01*
X418137Y70666D01*
X418195Y70569D01*
X418250Y70470D01*
X418301Y70369D01*
X418349Y70266D01*
X418394Y70162D01*
X418434Y70056D01*
X418471Y69949D01*
X418504Y69841D01*
X418534Y69731D01*
X418559Y69621D01*
X418581Y69510D01*
X418598Y69398D01*
X418612Y69285D01*
X418622Y69172D01*
X418628Y69059D01*
X418630Y68946D01*
X418628Y68833D01*
X418622Y68720D01*
X418612Y68607D01*
X418598Y68494D01*
X418581Y68382D01*
X418559Y68271D01*
X418534Y68161D01*
X418504Y68051D01*
X418471Y67943D01*
X418434Y67836D01*
X418394Y67730D01*
X418349Y67626D01*
X418301Y67523D01*
X418250Y67422D01*
X418195Y67323D01*
X418137Y67226D01*
X418075Y67131D01*
X418010Y67038D01*
X417942Y66948D01*
X417871Y66860D01*
X417796Y66774D01*
X417719Y66691D01*
X417639Y66611D01*
X417556Y66534D01*
X417470Y66459D01*
X417382Y66388D01*
X417292Y66320D01*
X417199Y66255D01*
X417104Y66193D01*
X417007Y66135D01*
X416908Y66080D01*
X416807Y66029D01*
X416704Y65981D01*
X416600Y65936D01*
X416494Y65896D01*
X416387Y65859D01*
X416279Y65826D01*
X416169Y65796D01*
X416059Y65771D01*
X415948Y65749D01*
X415836Y65732D01*
X415723Y65718D01*
X415610Y65708D01*
X415497Y65702D01*
X415384Y65700D01*
X415384Y65701D02*
X412139Y65701D01*
X416033Y65701D02*
X418630Y60508D01*
X423495Y69596D02*
X426741Y72192D01*
X426741Y60508D01*
X429986Y60508D02*
X423495Y60508D01*
X391919Y77808D02*
X391919Y89492D01*
X395813Y83001D01*
X399708Y89492D01*
X399708Y77808D01*
X405254Y82352D02*
X413043Y82352D01*
X418499Y77808D02*
X418499Y89492D01*
X418499Y77808D02*
X423691Y77808D01*
X428001Y86896D02*
X431246Y89492D01*
X431246Y77808D01*
X428001Y77808D02*
X434492Y77808D01*
M02*
