G04 EAGLE Gerber RS-274X export*
G75*
%MOMM*%
%FSLAX34Y34*%
%LPD*%
%IN*%
%IPPOS*%
%AMOC8*
5,1,8,0,0,1.08239X$1,22.5*%
G01*
%ADD10C,0.254000*%


D10*
X0Y22000D02*
X45000Y22000D01*
X45000Y0D01*
X97000Y0D01*
X97000Y22000D01*
X380000Y22000D01*
X380000Y148000D01*
X97000Y148000D01*
X97000Y170000D01*
X45000Y170000D01*
X45000Y148000D01*
X0Y148000D01*
X0Y22000D01*
X72000Y84529D02*
X72000Y85471D01*
X71926Y86412D01*
X71779Y87343D01*
X71558Y88260D01*
X71267Y89157D01*
X70906Y90028D01*
X70478Y90868D01*
X69985Y91672D01*
X69431Y92435D01*
X68819Y93152D01*
X68152Y93819D01*
X67435Y94431D01*
X66672Y94985D01*
X65868Y95478D01*
X65028Y95906D01*
X64157Y96267D01*
X63260Y96558D01*
X62343Y96779D01*
X61412Y96926D01*
X60471Y97000D01*
X59529Y97000D01*
X58588Y96926D01*
X57657Y96779D01*
X56740Y96558D01*
X55843Y96267D01*
X54972Y95906D01*
X54132Y95478D01*
X53328Y94985D01*
X52565Y94431D01*
X51848Y93819D01*
X51181Y93152D01*
X50569Y92435D01*
X50015Y91672D01*
X49522Y90868D01*
X49094Y90028D01*
X48733Y89157D01*
X48442Y88260D01*
X48222Y87343D01*
X48074Y86412D01*
X48000Y85471D01*
X48000Y84529D01*
X48074Y83588D01*
X48222Y82657D01*
X48442Y81740D01*
X48733Y80843D01*
X49094Y79972D01*
X49522Y79132D01*
X50015Y78328D01*
X50569Y77565D01*
X51181Y76848D01*
X51848Y76181D01*
X52565Y75569D01*
X53328Y75015D01*
X54132Y74522D01*
X54972Y74094D01*
X55843Y73733D01*
X56740Y73442D01*
X57657Y73222D01*
X58588Y73074D01*
X59529Y73000D01*
X60471Y73000D01*
X61412Y73074D01*
X62343Y73222D01*
X63260Y73442D01*
X64157Y73733D01*
X65028Y74094D01*
X65868Y74522D01*
X66672Y75015D01*
X67435Y75569D01*
X68152Y76181D01*
X68819Y76848D01*
X69431Y77565D01*
X69985Y78328D01*
X70478Y79132D01*
X70906Y79972D01*
X71267Y80843D01*
X71558Y81740D01*
X71779Y82657D01*
X71926Y83588D01*
X72000Y84529D01*
X312000Y84529D02*
X312000Y85471D01*
X311926Y86412D01*
X311779Y87343D01*
X311558Y88260D01*
X311267Y89157D01*
X310906Y90028D01*
X310478Y90868D01*
X309985Y91672D01*
X309431Y92435D01*
X308819Y93152D01*
X308152Y93819D01*
X307435Y94431D01*
X306672Y94985D01*
X305868Y95478D01*
X305028Y95906D01*
X304157Y96267D01*
X303260Y96558D01*
X302343Y96779D01*
X301412Y96926D01*
X300471Y97000D01*
X299529Y97000D01*
X298588Y96926D01*
X297657Y96779D01*
X296740Y96558D01*
X295843Y96267D01*
X294972Y95906D01*
X294132Y95478D01*
X293328Y94985D01*
X292565Y94431D01*
X291848Y93819D01*
X291181Y93152D01*
X290569Y92435D01*
X290015Y91672D01*
X289522Y90868D01*
X289094Y90028D01*
X288733Y89157D01*
X288442Y88260D01*
X288222Y87343D01*
X288074Y86412D01*
X288000Y85471D01*
X288000Y84529D01*
X288074Y83588D01*
X288222Y82657D01*
X288442Y81740D01*
X288733Y80843D01*
X289094Y79972D01*
X289522Y79132D01*
X290015Y78328D01*
X290569Y77565D01*
X291181Y76848D01*
X291848Y76181D01*
X292565Y75569D01*
X293328Y75015D01*
X294132Y74522D01*
X294972Y74094D01*
X295843Y73733D01*
X296740Y73442D01*
X297657Y73222D01*
X298588Y73074D01*
X299529Y73000D01*
X300471Y73000D01*
X301412Y73074D01*
X302343Y73222D01*
X303260Y73442D01*
X304157Y73733D01*
X305028Y74094D01*
X305868Y74522D01*
X306672Y75015D01*
X307435Y75569D01*
X308152Y76181D01*
X308819Y76848D01*
X309431Y77565D01*
X309985Y78328D01*
X310478Y79132D01*
X310906Y79972D01*
X311267Y80843D01*
X311558Y81740D01*
X311779Y82657D01*
X311926Y83588D01*
X312000Y84529D01*
M02*
