G04 EAGLE Gerber RS-274X export*
G75*
%MOMM*%
%FSLAX34Y34*%
%LPD*%
%INSilkscreen Bottom*%
%IPPOS*%
%AMOC8*
5,1,8,0,0,1.08239X$1,22.5*%
G01*
%ADD10C,0.076200*%


D10*
X317619Y25381D02*
X317619Y32747D01*
X317619Y30292D02*
X315573Y30292D01*
X315504Y30290D01*
X315436Y30284D01*
X315367Y30275D01*
X315300Y30261D01*
X315233Y30244D01*
X315167Y30223D01*
X315103Y30199D01*
X315040Y30170D01*
X314979Y30139D01*
X314920Y30104D01*
X314862Y30066D01*
X314807Y30024D01*
X314755Y29980D01*
X314705Y29932D01*
X314657Y29882D01*
X314613Y29830D01*
X314572Y29775D01*
X314533Y29717D01*
X314498Y29658D01*
X314467Y29597D01*
X314438Y29534D01*
X314414Y29470D01*
X314393Y29404D01*
X314376Y29337D01*
X314362Y29270D01*
X314353Y29202D01*
X314347Y29133D01*
X314345Y29064D01*
X314345Y25381D01*
X311666Y30292D02*
X309210Y30292D01*
X310847Y32747D02*
X310847Y26609D01*
X310848Y26609D02*
X310846Y26540D01*
X310840Y26472D01*
X310831Y26403D01*
X310817Y26336D01*
X310800Y26269D01*
X310779Y26203D01*
X310755Y26139D01*
X310726Y26076D01*
X310695Y26015D01*
X310660Y25956D01*
X310622Y25898D01*
X310580Y25843D01*
X310536Y25791D01*
X310488Y25741D01*
X310438Y25693D01*
X310386Y25649D01*
X310331Y25608D01*
X310273Y25569D01*
X310214Y25534D01*
X310153Y25503D01*
X310090Y25474D01*
X310026Y25450D01*
X309960Y25429D01*
X309893Y25412D01*
X309826Y25398D01*
X309758Y25389D01*
X309689Y25383D01*
X309620Y25381D01*
X309210Y25381D01*
X307033Y30292D02*
X304577Y30292D01*
X306214Y32747D02*
X306214Y26609D01*
X306215Y26609D02*
X306213Y26540D01*
X306207Y26472D01*
X306198Y26403D01*
X306184Y26336D01*
X306167Y26269D01*
X306146Y26203D01*
X306122Y26139D01*
X306093Y26076D01*
X306062Y26015D01*
X306027Y25956D01*
X305989Y25898D01*
X305947Y25843D01*
X305903Y25791D01*
X305855Y25741D01*
X305805Y25693D01*
X305753Y25649D01*
X305698Y25608D01*
X305640Y25569D01*
X305581Y25534D01*
X305520Y25503D01*
X305457Y25474D01*
X305393Y25450D01*
X305327Y25429D01*
X305260Y25412D01*
X305193Y25398D01*
X305125Y25389D01*
X305056Y25383D01*
X304987Y25381D01*
X304577Y25381D01*
X301485Y22926D02*
X301485Y30292D01*
X299439Y30292D01*
X299370Y30290D01*
X299302Y30284D01*
X299233Y30275D01*
X299166Y30261D01*
X299099Y30244D01*
X299033Y30223D01*
X298969Y30199D01*
X298906Y30170D01*
X298845Y30139D01*
X298786Y30104D01*
X298728Y30066D01*
X298673Y30024D01*
X298621Y29980D01*
X298571Y29932D01*
X298523Y29882D01*
X298479Y29830D01*
X298438Y29775D01*
X298399Y29717D01*
X298364Y29658D01*
X298333Y29597D01*
X298304Y29534D01*
X298280Y29470D01*
X298259Y29404D01*
X298242Y29337D01*
X298228Y29270D01*
X298219Y29202D01*
X298213Y29133D01*
X298211Y29064D01*
X298211Y26609D01*
X298213Y26540D01*
X298219Y26472D01*
X298228Y26403D01*
X298242Y26336D01*
X298259Y26269D01*
X298280Y26203D01*
X298304Y26139D01*
X298333Y26076D01*
X298364Y26015D01*
X298399Y25956D01*
X298437Y25898D01*
X298479Y25843D01*
X298523Y25791D01*
X298571Y25741D01*
X298621Y25693D01*
X298673Y25649D01*
X298728Y25607D01*
X298786Y25569D01*
X298845Y25534D01*
X298906Y25503D01*
X298969Y25474D01*
X299033Y25450D01*
X299099Y25429D01*
X299166Y25412D01*
X299233Y25398D01*
X299302Y25389D01*
X299370Y25383D01*
X299439Y25381D01*
X301485Y25381D01*
X294572Y28246D02*
X292526Y27427D01*
X294572Y28246D02*
X294631Y28271D01*
X294688Y28300D01*
X294743Y28333D01*
X294796Y28369D01*
X294847Y28407D01*
X294895Y28449D01*
X294941Y28494D01*
X294984Y28541D01*
X295024Y28591D01*
X295061Y28643D01*
X295095Y28698D01*
X295126Y28754D01*
X295153Y28812D01*
X295176Y28872D01*
X295196Y28932D01*
X295212Y28994D01*
X295225Y29057D01*
X295233Y29121D01*
X295238Y29184D01*
X295239Y29248D01*
X295236Y29312D01*
X295229Y29376D01*
X295218Y29439D01*
X295204Y29501D01*
X295186Y29563D01*
X295164Y29623D01*
X295139Y29682D01*
X295110Y29739D01*
X295077Y29794D01*
X295042Y29847D01*
X295003Y29898D01*
X294961Y29947D01*
X294917Y29993D01*
X294869Y30036D01*
X294820Y30076D01*
X294767Y30113D01*
X294713Y30147D01*
X294657Y30178D01*
X294599Y30205D01*
X294540Y30229D01*
X294479Y30248D01*
X294417Y30265D01*
X294354Y30277D01*
X294291Y30286D01*
X294227Y30291D01*
X294163Y30292D01*
X294027Y30288D01*
X293892Y30280D01*
X293756Y30268D01*
X293622Y30252D01*
X293487Y30232D01*
X293354Y30209D01*
X293221Y30181D01*
X293089Y30150D01*
X292958Y30115D01*
X292828Y30076D01*
X292699Y30033D01*
X292572Y29986D01*
X292446Y29936D01*
X292321Y29882D01*
X292526Y27427D02*
X292467Y27402D01*
X292410Y27373D01*
X292355Y27340D01*
X292302Y27304D01*
X292251Y27266D01*
X292203Y27224D01*
X292157Y27179D01*
X292114Y27132D01*
X292074Y27082D01*
X292037Y27030D01*
X292003Y26975D01*
X291972Y26919D01*
X291945Y26861D01*
X291922Y26801D01*
X291902Y26741D01*
X291886Y26679D01*
X291873Y26616D01*
X291865Y26552D01*
X291860Y26489D01*
X291859Y26425D01*
X291862Y26361D01*
X291869Y26297D01*
X291880Y26234D01*
X291894Y26172D01*
X291912Y26110D01*
X291934Y26050D01*
X291959Y25991D01*
X291988Y25934D01*
X292021Y25879D01*
X292056Y25826D01*
X292095Y25775D01*
X292137Y25726D01*
X292181Y25680D01*
X292229Y25637D01*
X292278Y25597D01*
X292331Y25560D01*
X292385Y25526D01*
X292441Y25495D01*
X292499Y25468D01*
X292558Y25444D01*
X292619Y25425D01*
X292681Y25408D01*
X292744Y25396D01*
X292807Y25387D01*
X292871Y25382D01*
X292935Y25381D01*
X293099Y25385D01*
X293263Y25393D01*
X293427Y25405D01*
X293590Y25421D01*
X293753Y25441D01*
X293916Y25464D01*
X294077Y25492D01*
X294239Y25523D01*
X294399Y25558D01*
X294558Y25597D01*
X294717Y25640D01*
X294874Y25686D01*
X295031Y25736D01*
X295186Y25790D01*
X288877Y25995D02*
X288877Y26404D01*
X288468Y26404D01*
X288468Y25995D01*
X288877Y25995D01*
X288877Y29269D02*
X288877Y29678D01*
X288468Y29678D01*
X288468Y29269D01*
X288877Y29269D01*
X285676Y24563D02*
X282402Y33565D01*
X276550Y33565D02*
X279824Y24563D01*
X272541Y25381D02*
X270495Y25381D01*
X272541Y25381D02*
X272610Y25383D01*
X272678Y25389D01*
X272747Y25398D01*
X272814Y25412D01*
X272881Y25429D01*
X272947Y25450D01*
X273011Y25474D01*
X273074Y25503D01*
X273135Y25534D01*
X273194Y25569D01*
X273252Y25607D01*
X273307Y25649D01*
X273359Y25693D01*
X273409Y25741D01*
X273457Y25791D01*
X273501Y25843D01*
X273543Y25898D01*
X273581Y25956D01*
X273616Y26015D01*
X273647Y26076D01*
X273676Y26139D01*
X273700Y26203D01*
X273721Y26269D01*
X273738Y26336D01*
X273752Y26403D01*
X273761Y26472D01*
X273767Y26540D01*
X273769Y26609D01*
X273769Y29064D01*
X273767Y29133D01*
X273761Y29201D01*
X273752Y29270D01*
X273738Y29337D01*
X273721Y29404D01*
X273700Y29470D01*
X273676Y29534D01*
X273647Y29597D01*
X273616Y29658D01*
X273581Y29717D01*
X273543Y29775D01*
X273501Y29830D01*
X273457Y29882D01*
X273409Y29932D01*
X273359Y29980D01*
X273307Y30024D01*
X273252Y30066D01*
X273194Y30104D01*
X273135Y30139D01*
X273074Y30170D01*
X273011Y30199D01*
X272947Y30223D01*
X272881Y30244D01*
X272814Y30261D01*
X272747Y30275D01*
X272678Y30284D01*
X272610Y30290D01*
X272541Y30292D01*
X270495Y30292D01*
X270495Y24153D01*
X270497Y24084D01*
X270503Y24016D01*
X270512Y23947D01*
X270526Y23880D01*
X270543Y23813D01*
X270564Y23747D01*
X270588Y23683D01*
X270617Y23620D01*
X270648Y23559D01*
X270683Y23500D01*
X270721Y23442D01*
X270763Y23387D01*
X270807Y23335D01*
X270855Y23285D01*
X270905Y23237D01*
X270957Y23193D01*
X271012Y23151D01*
X271070Y23113D01*
X271129Y23078D01*
X271190Y23047D01*
X271253Y23018D01*
X271317Y22994D01*
X271383Y22973D01*
X271450Y22956D01*
X271517Y22942D01*
X271586Y22933D01*
X271654Y22927D01*
X271723Y22925D01*
X271723Y22926D02*
X273360Y22926D01*
X267214Y25381D02*
X267214Y30292D01*
X267419Y32338D02*
X267419Y32747D01*
X267010Y32747D01*
X267010Y32338D01*
X267419Y32338D01*
X264849Y30292D02*
X262393Y30292D01*
X264030Y32747D02*
X264030Y26609D01*
X264031Y26609D02*
X264029Y26540D01*
X264023Y26472D01*
X264014Y26403D01*
X264000Y26336D01*
X263983Y26269D01*
X263962Y26203D01*
X263938Y26139D01*
X263909Y26076D01*
X263878Y26015D01*
X263843Y25956D01*
X263805Y25898D01*
X263763Y25843D01*
X263719Y25791D01*
X263671Y25741D01*
X263621Y25693D01*
X263569Y25649D01*
X263514Y25608D01*
X263456Y25569D01*
X263397Y25534D01*
X263336Y25503D01*
X263273Y25474D01*
X263209Y25450D01*
X263143Y25429D01*
X263076Y25412D01*
X263009Y25398D01*
X262941Y25389D01*
X262872Y25383D01*
X262803Y25381D01*
X262393Y25381D01*
X259342Y25381D02*
X259342Y32747D01*
X259342Y30292D02*
X257296Y30292D01*
X257227Y30290D01*
X257159Y30284D01*
X257090Y30275D01*
X257023Y30261D01*
X256956Y30244D01*
X256890Y30223D01*
X256826Y30199D01*
X256763Y30170D01*
X256702Y30139D01*
X256643Y30104D01*
X256585Y30066D01*
X256530Y30024D01*
X256478Y29980D01*
X256428Y29932D01*
X256380Y29882D01*
X256336Y29830D01*
X256295Y29775D01*
X256256Y29717D01*
X256221Y29658D01*
X256190Y29597D01*
X256161Y29534D01*
X256137Y29470D01*
X256116Y29404D01*
X256099Y29337D01*
X256085Y29270D01*
X256076Y29202D01*
X256070Y29133D01*
X256068Y29064D01*
X256068Y25381D01*
X252514Y26609D02*
X252514Y30292D01*
X252514Y26609D02*
X252512Y26540D01*
X252506Y26472D01*
X252497Y26403D01*
X252483Y26336D01*
X252466Y26269D01*
X252445Y26203D01*
X252421Y26139D01*
X252392Y26076D01*
X252361Y26015D01*
X252326Y25956D01*
X252288Y25898D01*
X252246Y25843D01*
X252202Y25791D01*
X252154Y25741D01*
X252104Y25693D01*
X252052Y25649D01*
X251997Y25608D01*
X251939Y25569D01*
X251880Y25534D01*
X251819Y25503D01*
X251756Y25474D01*
X251692Y25450D01*
X251626Y25429D01*
X251559Y25412D01*
X251492Y25398D01*
X251424Y25389D01*
X251355Y25383D01*
X251286Y25381D01*
X251287Y25381D02*
X249240Y25381D01*
X249240Y30292D01*
X245646Y32747D02*
X245646Y25381D01*
X243600Y25381D01*
X243531Y25383D01*
X243463Y25389D01*
X243394Y25398D01*
X243327Y25412D01*
X243260Y25429D01*
X243194Y25450D01*
X243130Y25474D01*
X243067Y25503D01*
X243006Y25534D01*
X242947Y25569D01*
X242889Y25607D01*
X242834Y25649D01*
X242782Y25693D01*
X242732Y25741D01*
X242684Y25791D01*
X242640Y25843D01*
X242598Y25898D01*
X242560Y25956D01*
X242525Y26015D01*
X242494Y26076D01*
X242465Y26139D01*
X242441Y26203D01*
X242420Y26269D01*
X242403Y26336D01*
X242389Y26403D01*
X242380Y26472D01*
X242374Y26540D01*
X242372Y26609D01*
X242372Y29064D01*
X242374Y29133D01*
X242380Y29201D01*
X242389Y29270D01*
X242403Y29337D01*
X242420Y29404D01*
X242441Y29470D01*
X242465Y29534D01*
X242494Y29597D01*
X242525Y29658D01*
X242560Y29717D01*
X242598Y29775D01*
X242640Y29830D01*
X242684Y29882D01*
X242732Y29932D01*
X242782Y29980D01*
X242834Y30024D01*
X242889Y30066D01*
X242947Y30104D01*
X243006Y30139D01*
X243067Y30170D01*
X243130Y30199D01*
X243194Y30223D01*
X243260Y30244D01*
X243327Y30261D01*
X243394Y30275D01*
X243463Y30284D01*
X243531Y30290D01*
X243600Y30292D01*
X245646Y30292D01*
X239621Y25790D02*
X239621Y25381D01*
X239621Y25790D02*
X239212Y25790D01*
X239212Y25381D01*
X239621Y25381D01*
X235184Y25381D02*
X233547Y25381D01*
X235184Y25381D02*
X235253Y25383D01*
X235321Y25389D01*
X235390Y25398D01*
X235457Y25412D01*
X235524Y25429D01*
X235590Y25450D01*
X235654Y25474D01*
X235717Y25503D01*
X235778Y25534D01*
X235837Y25569D01*
X235895Y25607D01*
X235950Y25649D01*
X236002Y25693D01*
X236052Y25741D01*
X236100Y25791D01*
X236144Y25843D01*
X236186Y25898D01*
X236224Y25956D01*
X236259Y26015D01*
X236290Y26076D01*
X236319Y26139D01*
X236343Y26203D01*
X236364Y26269D01*
X236381Y26336D01*
X236395Y26403D01*
X236404Y26472D01*
X236410Y26540D01*
X236412Y26609D01*
X236412Y29064D01*
X236410Y29133D01*
X236404Y29201D01*
X236395Y29270D01*
X236381Y29337D01*
X236364Y29404D01*
X236343Y29470D01*
X236319Y29534D01*
X236290Y29597D01*
X236259Y29658D01*
X236224Y29717D01*
X236186Y29775D01*
X236144Y29830D01*
X236100Y29882D01*
X236052Y29932D01*
X236002Y29980D01*
X235950Y30024D01*
X235895Y30066D01*
X235837Y30104D01*
X235778Y30139D01*
X235717Y30170D01*
X235654Y30199D01*
X235590Y30223D01*
X235524Y30244D01*
X235457Y30261D01*
X235390Y30275D01*
X235321Y30284D01*
X235253Y30290D01*
X235184Y30292D01*
X233547Y30292D01*
X230813Y28655D02*
X230813Y27018D01*
X230813Y28655D02*
X230811Y28734D01*
X230805Y28813D01*
X230796Y28892D01*
X230783Y28970D01*
X230765Y29047D01*
X230745Y29123D01*
X230720Y29198D01*
X230692Y29272D01*
X230661Y29345D01*
X230625Y29416D01*
X230587Y29485D01*
X230545Y29552D01*
X230500Y29617D01*
X230452Y29680D01*
X230401Y29741D01*
X230347Y29798D01*
X230291Y29854D01*
X230232Y29906D01*
X230170Y29956D01*
X230106Y30002D01*
X230040Y30046D01*
X229972Y30086D01*
X229902Y30122D01*
X229830Y30156D01*
X229756Y30186D01*
X229682Y30212D01*
X229606Y30235D01*
X229529Y30253D01*
X229452Y30269D01*
X229373Y30280D01*
X229295Y30288D01*
X229216Y30292D01*
X229136Y30292D01*
X229057Y30288D01*
X228979Y30280D01*
X228900Y30269D01*
X228823Y30253D01*
X228746Y30235D01*
X228670Y30212D01*
X228596Y30186D01*
X228522Y30156D01*
X228450Y30122D01*
X228380Y30086D01*
X228312Y30046D01*
X228246Y30002D01*
X228182Y29956D01*
X228120Y29906D01*
X228061Y29854D01*
X228005Y29798D01*
X227951Y29741D01*
X227900Y29680D01*
X227852Y29617D01*
X227807Y29552D01*
X227765Y29485D01*
X227727Y29416D01*
X227691Y29345D01*
X227660Y29272D01*
X227632Y29198D01*
X227607Y29123D01*
X227587Y29047D01*
X227569Y28970D01*
X227556Y28892D01*
X227547Y28813D01*
X227541Y28734D01*
X227539Y28655D01*
X227539Y27018D01*
X227541Y26939D01*
X227547Y26860D01*
X227556Y26781D01*
X227569Y26703D01*
X227587Y26626D01*
X227607Y26550D01*
X227632Y26475D01*
X227660Y26401D01*
X227691Y26328D01*
X227727Y26257D01*
X227765Y26188D01*
X227807Y26121D01*
X227852Y26056D01*
X227900Y25993D01*
X227951Y25932D01*
X228005Y25875D01*
X228061Y25819D01*
X228120Y25767D01*
X228182Y25717D01*
X228246Y25671D01*
X228312Y25627D01*
X228380Y25587D01*
X228450Y25551D01*
X228522Y25517D01*
X228596Y25487D01*
X228670Y25461D01*
X228746Y25438D01*
X228823Y25420D01*
X228900Y25404D01*
X228979Y25393D01*
X229057Y25385D01*
X229136Y25381D01*
X229216Y25381D01*
X229295Y25385D01*
X229373Y25393D01*
X229452Y25404D01*
X229529Y25420D01*
X229606Y25438D01*
X229682Y25461D01*
X229756Y25487D01*
X229830Y25517D01*
X229902Y25551D01*
X229972Y25587D01*
X230040Y25627D01*
X230106Y25671D01*
X230170Y25717D01*
X230232Y25767D01*
X230291Y25819D01*
X230347Y25875D01*
X230401Y25932D01*
X230452Y25993D01*
X230500Y26056D01*
X230545Y26121D01*
X230587Y26188D01*
X230625Y26257D01*
X230661Y26328D01*
X230692Y26401D01*
X230720Y26475D01*
X230745Y26550D01*
X230765Y26626D01*
X230783Y26703D01*
X230796Y26781D01*
X230805Y26860D01*
X230811Y26939D01*
X230813Y27018D01*
X224072Y25381D02*
X224072Y30292D01*
X220389Y30292D01*
X220320Y30290D01*
X220252Y30284D01*
X220183Y30275D01*
X220116Y30261D01*
X220049Y30244D01*
X219983Y30223D01*
X219919Y30199D01*
X219856Y30170D01*
X219795Y30139D01*
X219736Y30104D01*
X219678Y30066D01*
X219623Y30024D01*
X219571Y29980D01*
X219521Y29932D01*
X219473Y29882D01*
X219429Y29830D01*
X219388Y29775D01*
X219349Y29717D01*
X219314Y29658D01*
X219283Y29597D01*
X219254Y29534D01*
X219230Y29470D01*
X219209Y29404D01*
X219192Y29337D01*
X219178Y29270D01*
X219169Y29202D01*
X219163Y29133D01*
X219161Y29064D01*
X219161Y25381D01*
X221617Y25381D02*
X221617Y30292D01*
X215938Y24563D02*
X212665Y33565D01*
X209229Y28246D02*
X207182Y27427D01*
X209229Y28246D02*
X209288Y28271D01*
X209345Y28300D01*
X209400Y28333D01*
X209453Y28369D01*
X209504Y28407D01*
X209552Y28449D01*
X209598Y28494D01*
X209641Y28541D01*
X209681Y28591D01*
X209718Y28643D01*
X209752Y28698D01*
X209783Y28754D01*
X209810Y28812D01*
X209833Y28872D01*
X209853Y28932D01*
X209869Y28994D01*
X209882Y29057D01*
X209890Y29121D01*
X209895Y29184D01*
X209896Y29248D01*
X209893Y29312D01*
X209886Y29376D01*
X209875Y29439D01*
X209861Y29501D01*
X209843Y29563D01*
X209821Y29623D01*
X209796Y29682D01*
X209767Y29739D01*
X209734Y29794D01*
X209699Y29847D01*
X209660Y29898D01*
X209618Y29947D01*
X209574Y29993D01*
X209526Y30036D01*
X209477Y30076D01*
X209424Y30113D01*
X209370Y30147D01*
X209314Y30178D01*
X209256Y30205D01*
X209197Y30229D01*
X209136Y30248D01*
X209074Y30265D01*
X209011Y30277D01*
X208948Y30286D01*
X208884Y30291D01*
X208820Y30292D01*
X208684Y30288D01*
X208549Y30280D01*
X208413Y30268D01*
X208279Y30252D01*
X208144Y30232D01*
X208011Y30209D01*
X207878Y30181D01*
X207746Y30150D01*
X207615Y30115D01*
X207485Y30076D01*
X207356Y30033D01*
X207229Y29986D01*
X207103Y29936D01*
X206978Y29882D01*
X207183Y27427D02*
X207124Y27402D01*
X207067Y27373D01*
X207012Y27340D01*
X206959Y27304D01*
X206908Y27266D01*
X206860Y27224D01*
X206814Y27179D01*
X206771Y27132D01*
X206731Y27082D01*
X206694Y27030D01*
X206660Y26975D01*
X206629Y26919D01*
X206602Y26861D01*
X206579Y26801D01*
X206559Y26741D01*
X206543Y26679D01*
X206530Y26616D01*
X206522Y26552D01*
X206517Y26489D01*
X206516Y26425D01*
X206519Y26361D01*
X206526Y26297D01*
X206537Y26234D01*
X206551Y26172D01*
X206569Y26110D01*
X206591Y26050D01*
X206616Y25991D01*
X206645Y25934D01*
X206678Y25879D01*
X206713Y25826D01*
X206752Y25775D01*
X206794Y25726D01*
X206838Y25680D01*
X206886Y25637D01*
X206935Y25597D01*
X206988Y25560D01*
X207042Y25526D01*
X207098Y25495D01*
X207156Y25468D01*
X207215Y25444D01*
X207276Y25425D01*
X207338Y25408D01*
X207401Y25396D01*
X207464Y25387D01*
X207528Y25382D01*
X207592Y25381D01*
X207756Y25385D01*
X207920Y25393D01*
X208084Y25405D01*
X208247Y25421D01*
X208410Y25441D01*
X208573Y25464D01*
X208734Y25492D01*
X208896Y25523D01*
X209056Y25558D01*
X209215Y25597D01*
X209374Y25640D01*
X209531Y25686D01*
X209688Y25736D01*
X209843Y25790D01*
X204133Y30292D02*
X201678Y30292D01*
X203314Y32747D02*
X203314Y26609D01*
X203315Y26609D02*
X203313Y26540D01*
X203307Y26472D01*
X203298Y26403D01*
X203284Y26336D01*
X203267Y26269D01*
X203246Y26203D01*
X203222Y26139D01*
X203193Y26076D01*
X203162Y26015D01*
X203127Y25956D01*
X203089Y25898D01*
X203047Y25843D01*
X203003Y25791D01*
X202955Y25741D01*
X202905Y25693D01*
X202853Y25649D01*
X202798Y25608D01*
X202740Y25569D01*
X202681Y25534D01*
X202620Y25503D01*
X202557Y25474D01*
X202493Y25450D01*
X202427Y25429D01*
X202360Y25412D01*
X202293Y25398D01*
X202225Y25389D01*
X202156Y25383D01*
X202087Y25381D01*
X201678Y25381D01*
X198585Y25381D02*
X198585Y32747D01*
X198585Y25381D02*
X196539Y25381D01*
X196470Y25383D01*
X196402Y25389D01*
X196333Y25398D01*
X196266Y25412D01*
X196199Y25429D01*
X196133Y25450D01*
X196069Y25474D01*
X196006Y25503D01*
X195945Y25534D01*
X195886Y25569D01*
X195828Y25607D01*
X195773Y25649D01*
X195721Y25693D01*
X195671Y25741D01*
X195623Y25791D01*
X195579Y25843D01*
X195537Y25898D01*
X195499Y25956D01*
X195464Y26015D01*
X195433Y26076D01*
X195404Y26139D01*
X195380Y26203D01*
X195359Y26269D01*
X195342Y26336D01*
X195328Y26403D01*
X195319Y26472D01*
X195313Y26540D01*
X195311Y26609D01*
X195311Y29064D01*
X195313Y29133D01*
X195319Y29201D01*
X195328Y29270D01*
X195342Y29337D01*
X195359Y29404D01*
X195380Y29470D01*
X195404Y29534D01*
X195433Y29597D01*
X195464Y29658D01*
X195499Y29717D01*
X195537Y29775D01*
X195579Y29830D01*
X195623Y29882D01*
X195671Y29932D01*
X195721Y29980D01*
X195773Y30024D01*
X195828Y30066D01*
X195886Y30104D01*
X195945Y30139D01*
X196006Y30170D01*
X196069Y30199D01*
X196133Y30223D01*
X196199Y30244D01*
X196266Y30261D01*
X196333Y30275D01*
X196402Y30284D01*
X196470Y30290D01*
X196539Y30292D01*
X198585Y30292D01*
X192208Y27018D02*
X190571Y32747D01*
X192208Y27018D02*
X188115Y27018D01*
X189343Y28655D02*
X189343Y25381D01*
X183255Y28655D02*
X180800Y28655D01*
X183255Y28655D02*
X183333Y28657D01*
X183411Y28662D01*
X183488Y28672D01*
X183565Y28685D01*
X183641Y28701D01*
X183716Y28721D01*
X183790Y28745D01*
X183863Y28772D01*
X183935Y28803D01*
X184005Y28837D01*
X184074Y28874D01*
X184140Y28915D01*
X184205Y28959D01*
X184267Y29005D01*
X184327Y29055D01*
X184385Y29107D01*
X184440Y29162D01*
X184492Y29220D01*
X184542Y29280D01*
X184588Y29342D01*
X184632Y29407D01*
X184673Y29474D01*
X184710Y29542D01*
X184744Y29612D01*
X184775Y29684D01*
X184802Y29757D01*
X184826Y29831D01*
X184846Y29906D01*
X184862Y29982D01*
X184875Y30059D01*
X184885Y30136D01*
X184890Y30214D01*
X184892Y30292D01*
X184892Y30701D01*
X184890Y30790D01*
X184884Y30879D01*
X184874Y30968D01*
X184861Y31056D01*
X184844Y31144D01*
X184822Y31231D01*
X184797Y31316D01*
X184769Y31401D01*
X184736Y31484D01*
X184700Y31566D01*
X184661Y31646D01*
X184618Y31724D01*
X184572Y31800D01*
X184522Y31875D01*
X184469Y31947D01*
X184413Y32016D01*
X184354Y32083D01*
X184293Y32148D01*
X184228Y32209D01*
X184161Y32268D01*
X184092Y32324D01*
X184020Y32377D01*
X183945Y32427D01*
X183869Y32473D01*
X183791Y32516D01*
X183711Y32555D01*
X183629Y32591D01*
X183546Y32624D01*
X183461Y32652D01*
X183376Y32677D01*
X183289Y32699D01*
X183201Y32716D01*
X183113Y32729D01*
X183024Y32739D01*
X182935Y32745D01*
X182846Y32747D01*
X182757Y32745D01*
X182668Y32739D01*
X182579Y32729D01*
X182491Y32716D01*
X182403Y32699D01*
X182316Y32677D01*
X182231Y32652D01*
X182146Y32624D01*
X182063Y32591D01*
X181981Y32555D01*
X181901Y32516D01*
X181823Y32473D01*
X181747Y32427D01*
X181672Y32377D01*
X181600Y32324D01*
X181531Y32268D01*
X181464Y32209D01*
X181399Y32148D01*
X181338Y32083D01*
X181279Y32016D01*
X181223Y31947D01*
X181170Y31875D01*
X181120Y31800D01*
X181074Y31724D01*
X181031Y31646D01*
X180992Y31566D01*
X180956Y31484D01*
X180923Y31401D01*
X180895Y31316D01*
X180870Y31231D01*
X180848Y31144D01*
X180831Y31056D01*
X180818Y30968D01*
X180808Y30879D01*
X180802Y30790D01*
X180800Y30701D01*
X180800Y28655D01*
X180802Y28543D01*
X180808Y28432D01*
X180817Y28320D01*
X180830Y28209D01*
X180848Y28099D01*
X180868Y27989D01*
X180893Y27880D01*
X180921Y27772D01*
X180953Y27665D01*
X180989Y27559D01*
X181028Y27454D01*
X181071Y27351D01*
X181117Y27249D01*
X181167Y27149D01*
X181220Y27050D01*
X181277Y26954D01*
X181336Y26859D01*
X181399Y26767D01*
X181465Y26677D01*
X181534Y26589D01*
X181606Y26503D01*
X181681Y26420D01*
X181759Y26340D01*
X181839Y26262D01*
X181922Y26187D01*
X182008Y26115D01*
X182096Y26046D01*
X182186Y25980D01*
X182278Y25917D01*
X182373Y25858D01*
X182469Y25801D01*
X182568Y25748D01*
X182668Y25698D01*
X182770Y25652D01*
X182873Y25609D01*
X182978Y25570D01*
X183084Y25534D01*
X183191Y25502D01*
X183299Y25474D01*
X183408Y25449D01*
X183518Y25429D01*
X183628Y25411D01*
X183739Y25398D01*
X183851Y25389D01*
X183962Y25383D01*
X184074Y25381D01*
X177577Y29064D02*
X177575Y29217D01*
X177569Y29370D01*
X177560Y29522D01*
X177546Y29675D01*
X177529Y29827D01*
X177508Y29978D01*
X177483Y30129D01*
X177454Y30279D01*
X177422Y30429D01*
X177385Y30577D01*
X177345Y30725D01*
X177302Y30872D01*
X177254Y31017D01*
X177203Y31161D01*
X177149Y31304D01*
X177090Y31446D01*
X177029Y31585D01*
X176963Y31724D01*
X176937Y31794D01*
X176907Y31863D01*
X176875Y31931D01*
X176838Y31997D01*
X176799Y32061D01*
X176756Y32123D01*
X176711Y32182D01*
X176662Y32240D01*
X176611Y32294D01*
X176557Y32347D01*
X176500Y32396D01*
X176441Y32443D01*
X176380Y32486D01*
X176317Y32527D01*
X176252Y32564D01*
X176185Y32599D01*
X176116Y32629D01*
X176046Y32657D01*
X175975Y32680D01*
X175903Y32701D01*
X175830Y32717D01*
X175756Y32730D01*
X175681Y32740D01*
X175606Y32745D01*
X175531Y32747D01*
X175456Y32745D01*
X175381Y32740D01*
X175306Y32730D01*
X175232Y32717D01*
X175159Y32701D01*
X175087Y32680D01*
X175016Y32657D01*
X174946Y32629D01*
X174877Y32599D01*
X174810Y32564D01*
X174745Y32527D01*
X174682Y32486D01*
X174621Y32443D01*
X174562Y32396D01*
X174505Y32347D01*
X174451Y32294D01*
X174400Y32240D01*
X174352Y32182D01*
X174306Y32123D01*
X174263Y32061D01*
X174224Y31997D01*
X174188Y31931D01*
X174155Y31864D01*
X174125Y31794D01*
X174099Y31724D01*
X174034Y31586D01*
X173972Y31446D01*
X173914Y31304D01*
X173859Y31161D01*
X173808Y31017D01*
X173760Y30872D01*
X173717Y30725D01*
X173677Y30578D01*
X173640Y30429D01*
X173608Y30279D01*
X173579Y30129D01*
X173554Y29978D01*
X173533Y29827D01*
X173516Y29675D01*
X173502Y29522D01*
X173493Y29370D01*
X173487Y29217D01*
X173485Y29064D01*
X177578Y29064D02*
X177576Y28911D01*
X177570Y28758D01*
X177561Y28605D01*
X177547Y28453D01*
X177530Y28301D01*
X177509Y28150D01*
X177484Y27999D01*
X177455Y27848D01*
X177423Y27699D01*
X177386Y27550D01*
X177346Y27403D01*
X177303Y27256D01*
X177255Y27111D01*
X177204Y26966D01*
X177149Y26824D01*
X177091Y26682D01*
X177029Y26542D01*
X176964Y26404D01*
X176963Y26404D02*
X176937Y26334D01*
X176907Y26264D01*
X176875Y26197D01*
X176838Y26131D01*
X176799Y26067D01*
X176756Y26005D01*
X176710Y25946D01*
X176662Y25888D01*
X176611Y25834D01*
X176557Y25781D01*
X176500Y25732D01*
X176441Y25685D01*
X176380Y25642D01*
X176317Y25601D01*
X176252Y25564D01*
X176185Y25529D01*
X176116Y25499D01*
X176046Y25471D01*
X175975Y25448D01*
X175903Y25427D01*
X175830Y25411D01*
X175756Y25398D01*
X175681Y25388D01*
X175606Y25383D01*
X175531Y25381D01*
X174099Y26404D02*
X174034Y26542D01*
X173972Y26682D01*
X173914Y26824D01*
X173859Y26967D01*
X173808Y27111D01*
X173760Y27256D01*
X173717Y27403D01*
X173677Y27551D01*
X173640Y27699D01*
X173608Y27849D01*
X173579Y27999D01*
X173554Y28150D01*
X173533Y28301D01*
X173516Y28453D01*
X173502Y28606D01*
X173493Y28758D01*
X173487Y28911D01*
X173485Y29064D01*
X174099Y26404D02*
X174125Y26333D01*
X174155Y26264D01*
X174188Y26197D01*
X174224Y26131D01*
X174263Y26067D01*
X174306Y26005D01*
X174352Y25946D01*
X174400Y25888D01*
X174451Y25834D01*
X174505Y25781D01*
X174562Y25732D01*
X174621Y25685D01*
X174682Y25642D01*
X174745Y25601D01*
X174810Y25564D01*
X174877Y25529D01*
X174946Y25499D01*
X175016Y25471D01*
X175087Y25448D01*
X175159Y25427D01*
X175232Y25411D01*
X175306Y25398D01*
X175381Y25388D01*
X175456Y25383D01*
X175531Y25381D01*
X177168Y27018D02*
X173894Y31110D01*
X170262Y31929D02*
X170262Y32747D01*
X166170Y32747D01*
X168216Y25381D01*
X162947Y27427D02*
X162945Y27516D01*
X162939Y27605D01*
X162929Y27694D01*
X162916Y27782D01*
X162899Y27870D01*
X162877Y27957D01*
X162852Y28042D01*
X162824Y28127D01*
X162791Y28210D01*
X162755Y28292D01*
X162716Y28372D01*
X162673Y28450D01*
X162627Y28526D01*
X162577Y28601D01*
X162524Y28673D01*
X162468Y28742D01*
X162409Y28809D01*
X162348Y28874D01*
X162283Y28935D01*
X162216Y28994D01*
X162147Y29050D01*
X162075Y29103D01*
X162000Y29153D01*
X161924Y29199D01*
X161846Y29242D01*
X161766Y29281D01*
X161684Y29317D01*
X161601Y29350D01*
X161516Y29378D01*
X161431Y29403D01*
X161344Y29425D01*
X161256Y29442D01*
X161168Y29455D01*
X161079Y29465D01*
X160990Y29471D01*
X160901Y29473D01*
X160812Y29471D01*
X160723Y29465D01*
X160634Y29455D01*
X160546Y29442D01*
X160458Y29425D01*
X160371Y29403D01*
X160286Y29378D01*
X160201Y29350D01*
X160118Y29317D01*
X160036Y29281D01*
X159956Y29242D01*
X159878Y29199D01*
X159802Y29153D01*
X159727Y29103D01*
X159655Y29050D01*
X159586Y28994D01*
X159519Y28935D01*
X159454Y28874D01*
X159393Y28809D01*
X159334Y28742D01*
X159278Y28673D01*
X159225Y28601D01*
X159175Y28526D01*
X159129Y28450D01*
X159086Y28372D01*
X159047Y28292D01*
X159011Y28210D01*
X158978Y28127D01*
X158950Y28042D01*
X158925Y27957D01*
X158903Y27870D01*
X158886Y27782D01*
X158873Y27694D01*
X158863Y27605D01*
X158857Y27516D01*
X158855Y27427D01*
X158857Y27338D01*
X158863Y27249D01*
X158873Y27160D01*
X158886Y27072D01*
X158903Y26984D01*
X158925Y26897D01*
X158950Y26812D01*
X158978Y26727D01*
X159011Y26644D01*
X159047Y26562D01*
X159086Y26482D01*
X159129Y26404D01*
X159175Y26328D01*
X159225Y26253D01*
X159278Y26181D01*
X159334Y26112D01*
X159393Y26045D01*
X159454Y25980D01*
X159519Y25919D01*
X159586Y25860D01*
X159655Y25804D01*
X159727Y25751D01*
X159802Y25701D01*
X159878Y25655D01*
X159956Y25612D01*
X160036Y25573D01*
X160118Y25537D01*
X160201Y25504D01*
X160286Y25476D01*
X160371Y25451D01*
X160458Y25429D01*
X160546Y25412D01*
X160634Y25399D01*
X160723Y25389D01*
X160812Y25383D01*
X160901Y25381D01*
X160990Y25383D01*
X161079Y25389D01*
X161168Y25399D01*
X161256Y25412D01*
X161344Y25429D01*
X161431Y25451D01*
X161516Y25476D01*
X161601Y25504D01*
X161684Y25537D01*
X161766Y25573D01*
X161846Y25612D01*
X161924Y25655D01*
X162000Y25701D01*
X162075Y25751D01*
X162147Y25804D01*
X162216Y25860D01*
X162283Y25919D01*
X162348Y25980D01*
X162409Y26045D01*
X162468Y26112D01*
X162524Y26181D01*
X162577Y26253D01*
X162627Y26328D01*
X162673Y26404D01*
X162716Y26482D01*
X162755Y26562D01*
X162791Y26644D01*
X162824Y26727D01*
X162852Y26812D01*
X162877Y26897D01*
X162899Y26984D01*
X162916Y27072D01*
X162929Y27160D01*
X162939Y27249D01*
X162945Y27338D01*
X162947Y27427D01*
X162538Y31110D02*
X162536Y31189D01*
X162530Y31268D01*
X162521Y31347D01*
X162508Y31425D01*
X162490Y31502D01*
X162470Y31578D01*
X162445Y31653D01*
X162417Y31727D01*
X162386Y31800D01*
X162350Y31871D01*
X162312Y31940D01*
X162270Y32007D01*
X162225Y32072D01*
X162177Y32135D01*
X162126Y32196D01*
X162072Y32253D01*
X162016Y32309D01*
X161957Y32361D01*
X161895Y32411D01*
X161831Y32457D01*
X161765Y32501D01*
X161697Y32541D01*
X161627Y32577D01*
X161555Y32611D01*
X161481Y32641D01*
X161407Y32667D01*
X161331Y32690D01*
X161254Y32708D01*
X161177Y32724D01*
X161098Y32735D01*
X161020Y32743D01*
X160941Y32747D01*
X160861Y32747D01*
X160782Y32743D01*
X160704Y32735D01*
X160625Y32724D01*
X160548Y32708D01*
X160471Y32690D01*
X160395Y32667D01*
X160321Y32641D01*
X160247Y32611D01*
X160175Y32577D01*
X160105Y32541D01*
X160037Y32501D01*
X159971Y32457D01*
X159907Y32411D01*
X159845Y32361D01*
X159786Y32309D01*
X159730Y32253D01*
X159676Y32196D01*
X159625Y32135D01*
X159577Y32072D01*
X159532Y32007D01*
X159490Y31940D01*
X159452Y31871D01*
X159416Y31800D01*
X159385Y31727D01*
X159357Y31653D01*
X159332Y31578D01*
X159312Y31502D01*
X159294Y31425D01*
X159281Y31347D01*
X159272Y31268D01*
X159266Y31189D01*
X159264Y31110D01*
X159266Y31031D01*
X159272Y30952D01*
X159281Y30873D01*
X159294Y30795D01*
X159312Y30718D01*
X159332Y30642D01*
X159357Y30567D01*
X159385Y30493D01*
X159416Y30420D01*
X159452Y30349D01*
X159490Y30280D01*
X159532Y30213D01*
X159577Y30148D01*
X159625Y30085D01*
X159676Y30024D01*
X159730Y29967D01*
X159786Y29911D01*
X159845Y29859D01*
X159907Y29809D01*
X159971Y29763D01*
X160037Y29719D01*
X160105Y29679D01*
X160175Y29643D01*
X160247Y29609D01*
X160321Y29579D01*
X160395Y29553D01*
X160471Y29530D01*
X160548Y29512D01*
X160625Y29496D01*
X160704Y29485D01*
X160782Y29477D01*
X160861Y29473D01*
X160941Y29473D01*
X161020Y29477D01*
X161098Y29485D01*
X161177Y29496D01*
X161254Y29512D01*
X161331Y29530D01*
X161407Y29553D01*
X161481Y29579D01*
X161555Y29609D01*
X161627Y29643D01*
X161697Y29679D01*
X161765Y29719D01*
X161831Y29763D01*
X161895Y29809D01*
X161957Y29859D01*
X162016Y29911D01*
X162072Y29967D01*
X162126Y30024D01*
X162177Y30085D01*
X162225Y30148D01*
X162270Y30213D01*
X162312Y30280D01*
X162350Y30349D01*
X162386Y30420D01*
X162417Y30493D01*
X162445Y30567D01*
X162470Y30642D01*
X162490Y30718D01*
X162508Y30795D01*
X162521Y30873D01*
X162530Y30952D01*
X162536Y31031D01*
X162538Y31110D01*
X155954Y24563D02*
X152680Y33565D01*
X149614Y30292D02*
X149614Y25381D01*
X149614Y30292D02*
X147568Y30292D01*
X147499Y30290D01*
X147431Y30284D01*
X147362Y30275D01*
X147295Y30261D01*
X147228Y30244D01*
X147162Y30223D01*
X147098Y30199D01*
X147035Y30170D01*
X146974Y30139D01*
X146915Y30104D01*
X146857Y30066D01*
X146802Y30024D01*
X146750Y29980D01*
X146700Y29932D01*
X146652Y29882D01*
X146608Y29830D01*
X146567Y29775D01*
X146528Y29717D01*
X146493Y29658D01*
X146462Y29597D01*
X146433Y29534D01*
X146409Y29470D01*
X146388Y29404D01*
X146371Y29337D01*
X146357Y29270D01*
X146348Y29202D01*
X146342Y29133D01*
X146340Y29064D01*
X146340Y25381D01*
X142416Y28246D02*
X140370Y27427D01*
X142416Y28246D02*
X142475Y28271D01*
X142532Y28300D01*
X142587Y28333D01*
X142640Y28369D01*
X142691Y28407D01*
X142739Y28449D01*
X142785Y28494D01*
X142828Y28541D01*
X142868Y28591D01*
X142905Y28643D01*
X142939Y28698D01*
X142970Y28754D01*
X142997Y28812D01*
X143020Y28872D01*
X143040Y28932D01*
X143056Y28994D01*
X143069Y29057D01*
X143077Y29121D01*
X143082Y29184D01*
X143083Y29248D01*
X143080Y29312D01*
X143073Y29376D01*
X143062Y29439D01*
X143048Y29501D01*
X143030Y29563D01*
X143008Y29623D01*
X142983Y29682D01*
X142954Y29739D01*
X142921Y29794D01*
X142886Y29847D01*
X142847Y29898D01*
X142805Y29947D01*
X142761Y29993D01*
X142713Y30036D01*
X142664Y30076D01*
X142611Y30113D01*
X142557Y30147D01*
X142501Y30178D01*
X142443Y30205D01*
X142384Y30229D01*
X142323Y30248D01*
X142261Y30265D01*
X142198Y30277D01*
X142135Y30286D01*
X142071Y30291D01*
X142007Y30292D01*
X142008Y30292D02*
X141872Y30288D01*
X141737Y30280D01*
X141601Y30268D01*
X141467Y30252D01*
X141332Y30232D01*
X141199Y30209D01*
X141066Y30181D01*
X140934Y30150D01*
X140803Y30115D01*
X140673Y30076D01*
X140544Y30033D01*
X140417Y29986D01*
X140291Y29936D01*
X140166Y29882D01*
X140370Y27427D02*
X140311Y27402D01*
X140254Y27373D01*
X140199Y27340D01*
X140146Y27304D01*
X140095Y27266D01*
X140047Y27224D01*
X140001Y27179D01*
X139958Y27132D01*
X139918Y27082D01*
X139881Y27030D01*
X139847Y26975D01*
X139816Y26919D01*
X139789Y26861D01*
X139766Y26801D01*
X139746Y26741D01*
X139730Y26679D01*
X139717Y26616D01*
X139709Y26552D01*
X139704Y26489D01*
X139703Y26425D01*
X139706Y26361D01*
X139713Y26297D01*
X139724Y26234D01*
X139738Y26172D01*
X139756Y26110D01*
X139778Y26050D01*
X139803Y25991D01*
X139832Y25934D01*
X139865Y25879D01*
X139900Y25826D01*
X139939Y25775D01*
X139981Y25726D01*
X140025Y25680D01*
X140073Y25637D01*
X140122Y25597D01*
X140175Y25560D01*
X140229Y25526D01*
X140285Y25495D01*
X140343Y25468D01*
X140402Y25444D01*
X140463Y25425D01*
X140525Y25408D01*
X140588Y25396D01*
X140651Y25387D01*
X140715Y25382D01*
X140779Y25381D01*
X140943Y25385D01*
X141107Y25393D01*
X141271Y25405D01*
X141434Y25421D01*
X141597Y25441D01*
X141760Y25464D01*
X141921Y25492D01*
X142083Y25523D01*
X142243Y25558D01*
X142402Y25597D01*
X142561Y25640D01*
X142718Y25686D01*
X142875Y25736D01*
X143030Y25790D01*
X135454Y25381D02*
X133817Y25381D01*
X135454Y25381D02*
X135523Y25383D01*
X135591Y25389D01*
X135660Y25398D01*
X135727Y25412D01*
X135794Y25429D01*
X135860Y25450D01*
X135924Y25474D01*
X135987Y25503D01*
X136048Y25534D01*
X136107Y25569D01*
X136165Y25607D01*
X136220Y25649D01*
X136272Y25693D01*
X136322Y25741D01*
X136370Y25791D01*
X136414Y25843D01*
X136456Y25898D01*
X136494Y25956D01*
X136529Y26015D01*
X136560Y26076D01*
X136589Y26139D01*
X136613Y26203D01*
X136634Y26269D01*
X136651Y26336D01*
X136665Y26403D01*
X136674Y26472D01*
X136680Y26540D01*
X136682Y26609D01*
X136681Y26609D02*
X136681Y29064D01*
X136682Y29064D02*
X136680Y29133D01*
X136674Y29201D01*
X136665Y29270D01*
X136651Y29337D01*
X136634Y29404D01*
X136613Y29470D01*
X136589Y29534D01*
X136560Y29597D01*
X136529Y29658D01*
X136494Y29717D01*
X136456Y29775D01*
X136414Y29830D01*
X136370Y29882D01*
X136322Y29932D01*
X136272Y29980D01*
X136220Y30024D01*
X136165Y30066D01*
X136107Y30104D01*
X136048Y30139D01*
X135987Y30170D01*
X135924Y30199D01*
X135860Y30223D01*
X135794Y30244D01*
X135727Y30261D01*
X135660Y30275D01*
X135591Y30284D01*
X135523Y30290D01*
X135454Y30292D01*
X133817Y30292D01*
X129691Y28246D02*
X127849Y28246D01*
X129691Y28245D02*
X129766Y28243D01*
X129841Y28237D01*
X129915Y28227D01*
X129989Y28214D01*
X130062Y28196D01*
X130134Y28175D01*
X130204Y28150D01*
X130273Y28121D01*
X130341Y28089D01*
X130407Y28053D01*
X130471Y28014D01*
X130533Y27972D01*
X130592Y27926D01*
X130649Y27877D01*
X130704Y27826D01*
X130755Y27771D01*
X130804Y27714D01*
X130850Y27655D01*
X130892Y27593D01*
X130931Y27529D01*
X130967Y27463D01*
X130999Y27395D01*
X131028Y27326D01*
X131053Y27256D01*
X131074Y27184D01*
X131092Y27111D01*
X131105Y27037D01*
X131115Y26963D01*
X131121Y26888D01*
X131123Y26813D01*
X131121Y26738D01*
X131115Y26663D01*
X131105Y26589D01*
X131092Y26515D01*
X131074Y26442D01*
X131053Y26370D01*
X131028Y26300D01*
X130999Y26231D01*
X130967Y26163D01*
X130931Y26097D01*
X130892Y26033D01*
X130850Y25971D01*
X130804Y25912D01*
X130755Y25855D01*
X130704Y25800D01*
X130649Y25749D01*
X130592Y25700D01*
X130533Y25654D01*
X130471Y25612D01*
X130407Y25573D01*
X130341Y25537D01*
X130273Y25505D01*
X130204Y25476D01*
X130134Y25451D01*
X130062Y25430D01*
X129989Y25412D01*
X129915Y25399D01*
X129841Y25389D01*
X129766Y25383D01*
X129691Y25381D01*
X127849Y25381D01*
X127849Y29064D01*
X127851Y29133D01*
X127857Y29201D01*
X127866Y29270D01*
X127880Y29337D01*
X127897Y29404D01*
X127918Y29470D01*
X127942Y29534D01*
X127971Y29597D01*
X128002Y29658D01*
X128037Y29717D01*
X128075Y29775D01*
X128117Y29830D01*
X128161Y29882D01*
X128209Y29932D01*
X128259Y29980D01*
X128311Y30024D01*
X128366Y30066D01*
X128424Y30104D01*
X128483Y30139D01*
X128544Y30170D01*
X128607Y30199D01*
X128671Y30223D01*
X128737Y30244D01*
X128804Y30261D01*
X128871Y30275D01*
X128940Y30284D01*
X129008Y30290D01*
X129077Y30292D01*
X130714Y30292D01*
X124416Y32747D02*
X124416Y26609D01*
X124414Y26540D01*
X124408Y26472D01*
X124399Y26403D01*
X124385Y26336D01*
X124368Y26269D01*
X124347Y26203D01*
X124323Y26139D01*
X124294Y26076D01*
X124263Y26015D01*
X124228Y25956D01*
X124190Y25898D01*
X124148Y25843D01*
X124104Y25791D01*
X124056Y25741D01*
X124006Y25693D01*
X123954Y25649D01*
X123899Y25608D01*
X123841Y25569D01*
X123782Y25534D01*
X123721Y25503D01*
X123658Y25474D01*
X123594Y25450D01*
X123528Y25429D01*
X123461Y25412D01*
X123394Y25398D01*
X123326Y25389D01*
X123257Y25383D01*
X123188Y25381D01*
X119369Y25381D02*
X117323Y25381D01*
X119369Y25381D02*
X119438Y25383D01*
X119506Y25389D01*
X119575Y25398D01*
X119642Y25412D01*
X119709Y25429D01*
X119775Y25450D01*
X119839Y25474D01*
X119902Y25503D01*
X119963Y25534D01*
X120022Y25569D01*
X120080Y25607D01*
X120135Y25649D01*
X120187Y25693D01*
X120237Y25741D01*
X120285Y25791D01*
X120329Y25843D01*
X120371Y25898D01*
X120409Y25956D01*
X120444Y26015D01*
X120475Y26076D01*
X120504Y26139D01*
X120528Y26203D01*
X120549Y26269D01*
X120566Y26336D01*
X120580Y26403D01*
X120589Y26472D01*
X120595Y26540D01*
X120597Y26609D01*
X120597Y28655D01*
X120595Y28734D01*
X120589Y28813D01*
X120580Y28892D01*
X120567Y28970D01*
X120549Y29047D01*
X120529Y29123D01*
X120504Y29198D01*
X120476Y29272D01*
X120445Y29345D01*
X120409Y29416D01*
X120371Y29485D01*
X120329Y29552D01*
X120284Y29617D01*
X120236Y29680D01*
X120185Y29741D01*
X120131Y29798D01*
X120075Y29854D01*
X120016Y29906D01*
X119954Y29956D01*
X119890Y30002D01*
X119824Y30046D01*
X119756Y30086D01*
X119686Y30122D01*
X119614Y30156D01*
X119540Y30186D01*
X119466Y30212D01*
X119390Y30235D01*
X119313Y30253D01*
X119236Y30269D01*
X119157Y30280D01*
X119079Y30288D01*
X119000Y30292D01*
X118920Y30292D01*
X118841Y30288D01*
X118763Y30280D01*
X118684Y30269D01*
X118607Y30253D01*
X118530Y30235D01*
X118454Y30212D01*
X118380Y30186D01*
X118306Y30156D01*
X118234Y30122D01*
X118164Y30086D01*
X118096Y30046D01*
X118030Y30002D01*
X117966Y29956D01*
X117904Y29906D01*
X117845Y29854D01*
X117789Y29798D01*
X117735Y29741D01*
X117684Y29680D01*
X117636Y29617D01*
X117591Y29552D01*
X117549Y29485D01*
X117511Y29416D01*
X117475Y29345D01*
X117444Y29272D01*
X117416Y29198D01*
X117391Y29123D01*
X117371Y29047D01*
X117353Y28970D01*
X117340Y28892D01*
X117331Y28813D01*
X117325Y28734D01*
X117323Y28655D01*
X117323Y27836D01*
X120597Y27836D01*
X114100Y28246D02*
X109190Y28246D01*
X104575Y28246D02*
X102734Y28246D01*
X104575Y28245D02*
X104650Y28243D01*
X104725Y28237D01*
X104799Y28227D01*
X104873Y28214D01*
X104946Y28196D01*
X105018Y28175D01*
X105088Y28150D01*
X105157Y28121D01*
X105225Y28089D01*
X105291Y28053D01*
X105355Y28014D01*
X105417Y27972D01*
X105476Y27926D01*
X105533Y27877D01*
X105588Y27826D01*
X105639Y27771D01*
X105688Y27714D01*
X105734Y27655D01*
X105776Y27593D01*
X105815Y27529D01*
X105851Y27463D01*
X105883Y27395D01*
X105912Y27326D01*
X105937Y27256D01*
X105958Y27184D01*
X105976Y27111D01*
X105989Y27037D01*
X105999Y26963D01*
X106005Y26888D01*
X106007Y26813D01*
X106005Y26738D01*
X105999Y26663D01*
X105989Y26589D01*
X105976Y26515D01*
X105958Y26442D01*
X105937Y26370D01*
X105912Y26300D01*
X105883Y26231D01*
X105851Y26163D01*
X105815Y26097D01*
X105776Y26033D01*
X105734Y25971D01*
X105688Y25912D01*
X105639Y25855D01*
X105588Y25800D01*
X105533Y25749D01*
X105476Y25700D01*
X105417Y25654D01*
X105355Y25612D01*
X105291Y25573D01*
X105225Y25537D01*
X105157Y25505D01*
X105088Y25476D01*
X105018Y25451D01*
X104946Y25430D01*
X104873Y25412D01*
X104799Y25399D01*
X104725Y25389D01*
X104650Y25383D01*
X104575Y25381D01*
X102734Y25381D01*
X102734Y29064D01*
X102736Y29133D01*
X102742Y29201D01*
X102751Y29270D01*
X102765Y29337D01*
X102782Y29404D01*
X102803Y29470D01*
X102827Y29534D01*
X102856Y29597D01*
X102887Y29658D01*
X102922Y29717D01*
X102960Y29775D01*
X103002Y29830D01*
X103046Y29882D01*
X103094Y29932D01*
X103144Y29980D01*
X103196Y30024D01*
X103251Y30066D01*
X103309Y30104D01*
X103368Y30139D01*
X103429Y30170D01*
X103492Y30199D01*
X103556Y30223D01*
X103622Y30244D01*
X103689Y30261D01*
X103756Y30275D01*
X103825Y30284D01*
X103893Y30290D01*
X103962Y30292D01*
X105599Y30292D01*
X96150Y32747D02*
X96150Y25381D01*
X98196Y25381D01*
X98265Y25383D01*
X98333Y25389D01*
X98402Y25398D01*
X98469Y25412D01*
X98536Y25429D01*
X98602Y25450D01*
X98666Y25474D01*
X98729Y25503D01*
X98790Y25534D01*
X98849Y25569D01*
X98907Y25607D01*
X98962Y25649D01*
X99014Y25693D01*
X99064Y25741D01*
X99112Y25791D01*
X99156Y25843D01*
X99198Y25898D01*
X99236Y25956D01*
X99271Y26015D01*
X99302Y26076D01*
X99331Y26139D01*
X99355Y26203D01*
X99376Y26269D01*
X99393Y26336D01*
X99407Y26403D01*
X99416Y26472D01*
X99422Y26540D01*
X99424Y26609D01*
X99424Y29064D01*
X99422Y29133D01*
X99416Y29201D01*
X99407Y29270D01*
X99393Y29337D01*
X99376Y29404D01*
X99355Y29470D01*
X99331Y29534D01*
X99302Y29597D01*
X99271Y29658D01*
X99236Y29717D01*
X99198Y29775D01*
X99156Y29830D01*
X99112Y29882D01*
X99064Y29932D01*
X99014Y29980D01*
X98962Y30024D01*
X98907Y30066D01*
X98849Y30104D01*
X98790Y30139D01*
X98729Y30170D01*
X98666Y30199D01*
X98602Y30223D01*
X98536Y30244D01*
X98469Y30261D01*
X98402Y30275D01*
X98333Y30284D01*
X98265Y30290D01*
X98196Y30292D01*
X96150Y30292D01*
X91408Y28246D02*
X89567Y28246D01*
X91408Y28245D02*
X91483Y28243D01*
X91558Y28237D01*
X91632Y28227D01*
X91706Y28214D01*
X91779Y28196D01*
X91851Y28175D01*
X91921Y28150D01*
X91990Y28121D01*
X92058Y28089D01*
X92124Y28053D01*
X92188Y28014D01*
X92250Y27972D01*
X92309Y27926D01*
X92366Y27877D01*
X92421Y27826D01*
X92472Y27771D01*
X92521Y27714D01*
X92567Y27655D01*
X92609Y27593D01*
X92648Y27529D01*
X92684Y27463D01*
X92716Y27395D01*
X92745Y27326D01*
X92770Y27256D01*
X92791Y27184D01*
X92809Y27111D01*
X92822Y27037D01*
X92832Y26963D01*
X92838Y26888D01*
X92840Y26813D01*
X92838Y26738D01*
X92832Y26663D01*
X92822Y26589D01*
X92809Y26515D01*
X92791Y26442D01*
X92770Y26370D01*
X92745Y26300D01*
X92716Y26231D01*
X92684Y26163D01*
X92648Y26097D01*
X92609Y26033D01*
X92567Y25971D01*
X92521Y25912D01*
X92472Y25855D01*
X92421Y25800D01*
X92366Y25749D01*
X92309Y25700D01*
X92250Y25654D01*
X92188Y25612D01*
X92124Y25573D01*
X92058Y25537D01*
X91990Y25505D01*
X91921Y25476D01*
X91851Y25451D01*
X91779Y25430D01*
X91706Y25412D01*
X91632Y25399D01*
X91558Y25389D01*
X91483Y25383D01*
X91408Y25381D01*
X89567Y25381D01*
X89567Y29064D01*
X89566Y29064D02*
X89568Y29133D01*
X89574Y29201D01*
X89583Y29270D01*
X89597Y29337D01*
X89614Y29404D01*
X89635Y29470D01*
X89659Y29534D01*
X89688Y29597D01*
X89719Y29658D01*
X89754Y29717D01*
X89792Y29775D01*
X89834Y29830D01*
X89878Y29882D01*
X89926Y29932D01*
X89976Y29980D01*
X90028Y30024D01*
X90083Y30066D01*
X90141Y30104D01*
X90200Y30139D01*
X90261Y30170D01*
X90324Y30199D01*
X90388Y30223D01*
X90454Y30244D01*
X90521Y30261D01*
X90588Y30275D01*
X90657Y30284D01*
X90725Y30290D01*
X90794Y30292D01*
X92431Y30292D01*
X85931Y30292D02*
X85931Y22926D01*
X85931Y30292D02*
X83885Y30292D01*
X83816Y30290D01*
X83748Y30284D01*
X83679Y30275D01*
X83612Y30261D01*
X83545Y30244D01*
X83479Y30223D01*
X83415Y30199D01*
X83352Y30170D01*
X83291Y30139D01*
X83232Y30104D01*
X83174Y30066D01*
X83119Y30024D01*
X83067Y29980D01*
X83017Y29932D01*
X82969Y29882D01*
X82925Y29830D01*
X82884Y29775D01*
X82845Y29717D01*
X82810Y29658D01*
X82779Y29597D01*
X82750Y29534D01*
X82726Y29470D01*
X82705Y29404D01*
X82688Y29337D01*
X82674Y29270D01*
X82665Y29202D01*
X82659Y29133D01*
X82657Y29064D01*
X82657Y26609D01*
X82659Y26540D01*
X82665Y26472D01*
X82674Y26403D01*
X82688Y26336D01*
X82705Y26269D01*
X82726Y26203D01*
X82750Y26139D01*
X82779Y26076D01*
X82810Y26015D01*
X82845Y25956D01*
X82883Y25898D01*
X82925Y25843D01*
X82969Y25791D01*
X83017Y25741D01*
X83067Y25693D01*
X83119Y25649D01*
X83174Y25607D01*
X83232Y25569D01*
X83291Y25534D01*
X83352Y25503D01*
X83415Y25474D01*
X83479Y25450D01*
X83545Y25429D01*
X83612Y25412D01*
X83679Y25398D01*
X83748Y25389D01*
X83816Y25383D01*
X83885Y25381D01*
X85931Y25381D01*
X80263Y30292D02*
X77807Y30292D01*
X79444Y32747D02*
X79444Y26609D01*
X79442Y26540D01*
X79436Y26472D01*
X79427Y26403D01*
X79413Y26336D01*
X79396Y26269D01*
X79375Y26203D01*
X79351Y26139D01*
X79322Y26076D01*
X79291Y26015D01*
X79256Y25956D01*
X79218Y25898D01*
X79176Y25843D01*
X79132Y25791D01*
X79084Y25741D01*
X79034Y25693D01*
X78982Y25649D01*
X78927Y25608D01*
X78869Y25569D01*
X78810Y25534D01*
X78749Y25503D01*
X78686Y25474D01*
X78622Y25450D01*
X78556Y25429D01*
X78489Y25412D01*
X78422Y25398D01*
X78354Y25389D01*
X78285Y25383D01*
X78216Y25381D01*
X77807Y25381D01*
X73772Y25381D02*
X71726Y25381D01*
X73772Y25381D02*
X73841Y25383D01*
X73909Y25389D01*
X73978Y25398D01*
X74045Y25412D01*
X74112Y25429D01*
X74178Y25450D01*
X74242Y25474D01*
X74305Y25503D01*
X74366Y25534D01*
X74425Y25569D01*
X74483Y25607D01*
X74538Y25649D01*
X74590Y25693D01*
X74640Y25741D01*
X74688Y25791D01*
X74732Y25843D01*
X74774Y25898D01*
X74812Y25956D01*
X74847Y26015D01*
X74878Y26076D01*
X74907Y26139D01*
X74931Y26203D01*
X74952Y26269D01*
X74969Y26336D01*
X74983Y26403D01*
X74992Y26472D01*
X74998Y26540D01*
X75000Y26609D01*
X74999Y26609D02*
X74999Y28655D01*
X74997Y28734D01*
X74991Y28813D01*
X74982Y28892D01*
X74969Y28970D01*
X74951Y29047D01*
X74931Y29123D01*
X74906Y29198D01*
X74878Y29272D01*
X74847Y29345D01*
X74811Y29416D01*
X74773Y29485D01*
X74731Y29552D01*
X74686Y29617D01*
X74638Y29680D01*
X74587Y29741D01*
X74533Y29798D01*
X74477Y29854D01*
X74418Y29906D01*
X74356Y29956D01*
X74292Y30002D01*
X74226Y30046D01*
X74158Y30086D01*
X74088Y30122D01*
X74016Y30156D01*
X73942Y30186D01*
X73868Y30212D01*
X73792Y30235D01*
X73715Y30253D01*
X73638Y30269D01*
X73559Y30280D01*
X73481Y30288D01*
X73402Y30292D01*
X73322Y30292D01*
X73243Y30288D01*
X73165Y30280D01*
X73086Y30269D01*
X73009Y30253D01*
X72932Y30235D01*
X72856Y30212D01*
X72782Y30186D01*
X72708Y30156D01*
X72636Y30122D01*
X72566Y30086D01*
X72498Y30046D01*
X72432Y30002D01*
X72368Y29956D01*
X72306Y29906D01*
X72247Y29854D01*
X72191Y29798D01*
X72137Y29741D01*
X72086Y29680D01*
X72038Y29617D01*
X71993Y29552D01*
X71951Y29485D01*
X71913Y29416D01*
X71877Y29345D01*
X71846Y29272D01*
X71818Y29198D01*
X71793Y29123D01*
X71773Y29047D01*
X71755Y28970D01*
X71742Y28892D01*
X71733Y28813D01*
X71727Y28734D01*
X71725Y28655D01*
X71726Y28655D02*
X71726Y27836D01*
X74999Y27836D01*
X68369Y25381D02*
X68369Y30292D01*
X65914Y30292D01*
X65914Y29473D01*
X63382Y28246D02*
X58471Y28246D01*
X52016Y25381D02*
X52016Y32747D01*
X52016Y25381D02*
X54062Y25381D01*
X54131Y25383D01*
X54199Y25389D01*
X54268Y25398D01*
X54335Y25412D01*
X54402Y25429D01*
X54468Y25450D01*
X54532Y25474D01*
X54595Y25503D01*
X54656Y25534D01*
X54715Y25569D01*
X54773Y25607D01*
X54828Y25649D01*
X54880Y25693D01*
X54930Y25741D01*
X54978Y25791D01*
X55022Y25843D01*
X55064Y25898D01*
X55102Y25956D01*
X55137Y26015D01*
X55168Y26076D01*
X55197Y26139D01*
X55221Y26203D01*
X55242Y26269D01*
X55259Y26336D01*
X55273Y26403D01*
X55282Y26472D01*
X55288Y26540D01*
X55290Y26609D01*
X55289Y26609D02*
X55289Y29064D01*
X55290Y29064D02*
X55288Y29133D01*
X55282Y29201D01*
X55273Y29270D01*
X55259Y29337D01*
X55242Y29404D01*
X55221Y29470D01*
X55197Y29534D01*
X55168Y29597D01*
X55137Y29658D01*
X55102Y29717D01*
X55064Y29775D01*
X55022Y29830D01*
X54978Y29882D01*
X54930Y29932D01*
X54880Y29980D01*
X54828Y30024D01*
X54773Y30066D01*
X54715Y30104D01*
X54656Y30139D01*
X54595Y30170D01*
X54532Y30199D01*
X54468Y30223D01*
X54402Y30244D01*
X54335Y30261D01*
X54268Y30275D01*
X54199Y30284D01*
X54131Y30290D01*
X54062Y30292D01*
X52016Y30292D01*
X47437Y25381D02*
X45391Y25381D01*
X47437Y25381D02*
X47506Y25383D01*
X47574Y25389D01*
X47643Y25398D01*
X47710Y25412D01*
X47777Y25429D01*
X47843Y25450D01*
X47907Y25474D01*
X47970Y25503D01*
X48031Y25534D01*
X48090Y25569D01*
X48148Y25607D01*
X48203Y25649D01*
X48255Y25693D01*
X48305Y25741D01*
X48353Y25791D01*
X48397Y25843D01*
X48439Y25898D01*
X48477Y25956D01*
X48512Y26015D01*
X48543Y26076D01*
X48572Y26139D01*
X48596Y26203D01*
X48617Y26269D01*
X48634Y26336D01*
X48648Y26403D01*
X48657Y26472D01*
X48663Y26540D01*
X48665Y26609D01*
X48665Y28655D01*
X48663Y28734D01*
X48657Y28813D01*
X48648Y28892D01*
X48635Y28970D01*
X48617Y29047D01*
X48597Y29123D01*
X48572Y29198D01*
X48544Y29272D01*
X48513Y29345D01*
X48477Y29416D01*
X48439Y29485D01*
X48397Y29552D01*
X48352Y29617D01*
X48304Y29680D01*
X48253Y29741D01*
X48199Y29798D01*
X48143Y29854D01*
X48084Y29906D01*
X48022Y29956D01*
X47958Y30002D01*
X47892Y30046D01*
X47824Y30086D01*
X47754Y30122D01*
X47682Y30156D01*
X47608Y30186D01*
X47534Y30212D01*
X47458Y30235D01*
X47381Y30253D01*
X47304Y30269D01*
X47225Y30280D01*
X47147Y30288D01*
X47068Y30292D01*
X46988Y30292D01*
X46909Y30288D01*
X46831Y30280D01*
X46752Y30269D01*
X46675Y30253D01*
X46598Y30235D01*
X46522Y30212D01*
X46448Y30186D01*
X46374Y30156D01*
X46302Y30122D01*
X46232Y30086D01*
X46164Y30046D01*
X46098Y30002D01*
X46034Y29956D01*
X45972Y29906D01*
X45913Y29854D01*
X45857Y29798D01*
X45803Y29741D01*
X45752Y29680D01*
X45704Y29617D01*
X45659Y29552D01*
X45617Y29485D01*
X45579Y29416D01*
X45543Y29345D01*
X45512Y29272D01*
X45484Y29198D01*
X45459Y29123D01*
X45439Y29047D01*
X45421Y28970D01*
X45408Y28892D01*
X45399Y28813D01*
X45393Y28734D01*
X45391Y28655D01*
X45391Y27836D01*
X48665Y27836D01*
X41088Y25381D02*
X39451Y25381D01*
X41088Y25381D02*
X41157Y25383D01*
X41225Y25389D01*
X41294Y25398D01*
X41361Y25412D01*
X41428Y25429D01*
X41494Y25450D01*
X41558Y25474D01*
X41621Y25503D01*
X41682Y25534D01*
X41741Y25569D01*
X41799Y25607D01*
X41854Y25649D01*
X41906Y25693D01*
X41956Y25741D01*
X42004Y25791D01*
X42048Y25843D01*
X42090Y25898D01*
X42128Y25956D01*
X42163Y26015D01*
X42194Y26076D01*
X42223Y26139D01*
X42247Y26203D01*
X42268Y26269D01*
X42285Y26336D01*
X42299Y26403D01*
X42308Y26472D01*
X42314Y26540D01*
X42316Y26609D01*
X42316Y29064D01*
X42314Y29133D01*
X42308Y29201D01*
X42299Y29270D01*
X42285Y29337D01*
X42268Y29404D01*
X42247Y29470D01*
X42223Y29534D01*
X42194Y29597D01*
X42163Y29658D01*
X42128Y29717D01*
X42090Y29775D01*
X42048Y29830D01*
X42004Y29882D01*
X41956Y29932D01*
X41906Y29980D01*
X41854Y30024D01*
X41799Y30066D01*
X41741Y30104D01*
X41682Y30139D01*
X41621Y30170D01*
X41558Y30199D01*
X41494Y30223D01*
X41428Y30244D01*
X41361Y30261D01*
X41294Y30275D01*
X41225Y30284D01*
X41157Y30290D01*
X41088Y30292D01*
X39451Y30292D01*
X36717Y28655D02*
X36717Y27018D01*
X36717Y28655D02*
X36715Y28734D01*
X36709Y28813D01*
X36700Y28892D01*
X36687Y28970D01*
X36669Y29047D01*
X36649Y29123D01*
X36624Y29198D01*
X36596Y29272D01*
X36565Y29345D01*
X36529Y29416D01*
X36491Y29485D01*
X36449Y29552D01*
X36404Y29617D01*
X36356Y29680D01*
X36305Y29741D01*
X36251Y29798D01*
X36195Y29854D01*
X36136Y29906D01*
X36074Y29956D01*
X36010Y30002D01*
X35944Y30046D01*
X35876Y30086D01*
X35806Y30122D01*
X35734Y30156D01*
X35660Y30186D01*
X35586Y30212D01*
X35510Y30235D01*
X35433Y30253D01*
X35356Y30269D01*
X35277Y30280D01*
X35199Y30288D01*
X35120Y30292D01*
X35040Y30292D01*
X34961Y30288D01*
X34883Y30280D01*
X34804Y30269D01*
X34727Y30253D01*
X34650Y30235D01*
X34574Y30212D01*
X34500Y30186D01*
X34426Y30156D01*
X34354Y30122D01*
X34284Y30086D01*
X34216Y30046D01*
X34150Y30002D01*
X34086Y29956D01*
X34024Y29906D01*
X33965Y29854D01*
X33909Y29798D01*
X33855Y29741D01*
X33804Y29680D01*
X33756Y29617D01*
X33711Y29552D01*
X33669Y29485D01*
X33631Y29416D01*
X33595Y29345D01*
X33564Y29272D01*
X33536Y29198D01*
X33511Y29123D01*
X33491Y29047D01*
X33473Y28970D01*
X33460Y28892D01*
X33451Y28813D01*
X33445Y28734D01*
X33443Y28655D01*
X33443Y27018D01*
X33445Y26939D01*
X33451Y26860D01*
X33460Y26781D01*
X33473Y26703D01*
X33491Y26626D01*
X33511Y26550D01*
X33536Y26475D01*
X33564Y26401D01*
X33595Y26328D01*
X33631Y26257D01*
X33669Y26188D01*
X33711Y26121D01*
X33756Y26056D01*
X33804Y25993D01*
X33855Y25932D01*
X33909Y25875D01*
X33965Y25819D01*
X34024Y25767D01*
X34086Y25717D01*
X34150Y25671D01*
X34216Y25627D01*
X34284Y25587D01*
X34354Y25551D01*
X34426Y25517D01*
X34500Y25487D01*
X34574Y25461D01*
X34650Y25438D01*
X34727Y25420D01*
X34804Y25404D01*
X34883Y25393D01*
X34961Y25385D01*
X35040Y25381D01*
X35120Y25381D01*
X35199Y25385D01*
X35277Y25393D01*
X35356Y25404D01*
X35433Y25420D01*
X35510Y25438D01*
X35586Y25461D01*
X35660Y25487D01*
X35734Y25517D01*
X35806Y25551D01*
X35876Y25587D01*
X35944Y25627D01*
X36010Y25671D01*
X36074Y25717D01*
X36136Y25767D01*
X36195Y25819D01*
X36251Y25875D01*
X36305Y25932D01*
X36356Y25993D01*
X36404Y26056D01*
X36449Y26121D01*
X36491Y26188D01*
X36529Y26257D01*
X36565Y26328D01*
X36596Y26401D01*
X36624Y26475D01*
X36649Y26550D01*
X36669Y26626D01*
X36687Y26703D01*
X36700Y26781D01*
X36709Y26860D01*
X36715Y26939D01*
X36717Y27018D01*
X27144Y25381D02*
X27144Y32747D01*
X27144Y25381D02*
X29190Y25381D01*
X29259Y25383D01*
X29327Y25389D01*
X29396Y25398D01*
X29463Y25412D01*
X29530Y25429D01*
X29596Y25450D01*
X29660Y25474D01*
X29723Y25503D01*
X29784Y25534D01*
X29843Y25569D01*
X29901Y25607D01*
X29956Y25649D01*
X30008Y25693D01*
X30058Y25741D01*
X30106Y25791D01*
X30150Y25843D01*
X30192Y25898D01*
X30230Y25956D01*
X30265Y26015D01*
X30296Y26076D01*
X30325Y26139D01*
X30349Y26203D01*
X30370Y26269D01*
X30387Y26336D01*
X30401Y26403D01*
X30410Y26472D01*
X30416Y26540D01*
X30418Y26609D01*
X30418Y29064D01*
X30416Y29133D01*
X30410Y29201D01*
X30401Y29270D01*
X30387Y29337D01*
X30370Y29404D01*
X30349Y29470D01*
X30325Y29534D01*
X30296Y29597D01*
X30265Y29658D01*
X30230Y29717D01*
X30192Y29775D01*
X30150Y29830D01*
X30106Y29882D01*
X30058Y29932D01*
X30008Y29980D01*
X29956Y30024D01*
X29901Y30066D01*
X29843Y30104D01*
X29784Y30139D01*
X29723Y30170D01*
X29660Y30199D01*
X29596Y30223D01*
X29530Y30244D01*
X29463Y30261D01*
X29396Y30275D01*
X29327Y30284D01*
X29259Y30290D01*
X29190Y30292D01*
X27144Y30292D01*
X22565Y25381D02*
X20519Y25381D01*
X22565Y25381D02*
X22634Y25383D01*
X22702Y25389D01*
X22771Y25398D01*
X22838Y25412D01*
X22905Y25429D01*
X22971Y25450D01*
X23035Y25474D01*
X23098Y25503D01*
X23159Y25534D01*
X23218Y25569D01*
X23276Y25607D01*
X23331Y25649D01*
X23383Y25693D01*
X23433Y25741D01*
X23481Y25791D01*
X23525Y25843D01*
X23567Y25898D01*
X23605Y25956D01*
X23640Y26015D01*
X23671Y26076D01*
X23700Y26139D01*
X23724Y26203D01*
X23745Y26269D01*
X23762Y26336D01*
X23776Y26403D01*
X23785Y26472D01*
X23791Y26540D01*
X23793Y26609D01*
X23793Y28655D01*
X23791Y28734D01*
X23785Y28813D01*
X23776Y28892D01*
X23763Y28970D01*
X23745Y29047D01*
X23725Y29123D01*
X23700Y29198D01*
X23672Y29272D01*
X23641Y29345D01*
X23605Y29416D01*
X23567Y29485D01*
X23525Y29552D01*
X23480Y29617D01*
X23432Y29680D01*
X23381Y29741D01*
X23327Y29798D01*
X23271Y29854D01*
X23212Y29906D01*
X23150Y29956D01*
X23086Y30002D01*
X23020Y30046D01*
X22952Y30086D01*
X22882Y30122D01*
X22810Y30156D01*
X22736Y30186D01*
X22662Y30212D01*
X22586Y30235D01*
X22509Y30253D01*
X22432Y30269D01*
X22353Y30280D01*
X22275Y30288D01*
X22196Y30292D01*
X22116Y30292D01*
X22037Y30288D01*
X21959Y30280D01*
X21880Y30269D01*
X21803Y30253D01*
X21726Y30235D01*
X21650Y30212D01*
X21576Y30186D01*
X21502Y30156D01*
X21430Y30122D01*
X21360Y30086D01*
X21292Y30046D01*
X21226Y30002D01*
X21162Y29956D01*
X21100Y29906D01*
X21041Y29854D01*
X20985Y29798D01*
X20931Y29741D01*
X20880Y29680D01*
X20832Y29617D01*
X20787Y29552D01*
X20745Y29485D01*
X20707Y29416D01*
X20671Y29345D01*
X20640Y29272D01*
X20612Y29198D01*
X20587Y29123D01*
X20567Y29047D01*
X20549Y28970D01*
X20536Y28892D01*
X20527Y28813D01*
X20521Y28734D01*
X20519Y28655D01*
X20519Y27836D01*
X23793Y27836D01*
X17163Y25381D02*
X17163Y30292D01*
X14708Y30292D01*
X14708Y29473D01*
M02*
