G04 EAGLE Gerber RS-274X export*
G75*
%MOMM*%
%FSLAX34Y34*%
%LPD*%
%INSilkscreen Top*%
%IPPOS*%
%AMOC8*
5,1,8,0,0,1.08239X$1,22.5*%
G01*
%ADD10C,0.152400*%
%ADD11C,0.101600*%
%ADD12C,0.203200*%
%ADD13C,0.050800*%
%ADD14R,0.375000X9.000000*%
%ADD15C,0.015238*%
%ADD16C,0.025400*%
%ADD17C,0.127000*%
%ADD18C,0.508000*%


D10*
X45000Y149000D02*
X45000Y23000D01*
X264000Y23000D01*
X265000Y22000D01*
X265000Y148000D01*
X46000Y148000D01*
X45000Y149000D01*
D11*
X248508Y45192D02*
X248508Y33508D01*
X252403Y38701D02*
X248508Y45192D01*
X252403Y38701D02*
X256297Y45192D01*
X256297Y33508D01*
X261617Y36104D02*
X261617Y38701D01*
X261618Y38701D02*
X261620Y38802D01*
X261626Y38902D01*
X261636Y39002D01*
X261649Y39102D01*
X261667Y39201D01*
X261688Y39300D01*
X261713Y39397D01*
X261742Y39494D01*
X261775Y39589D01*
X261811Y39683D01*
X261851Y39775D01*
X261894Y39866D01*
X261941Y39955D01*
X261991Y40042D01*
X262045Y40128D01*
X262102Y40211D01*
X262162Y40291D01*
X262225Y40370D01*
X262292Y40446D01*
X262361Y40519D01*
X262433Y40589D01*
X262507Y40657D01*
X262584Y40722D01*
X262664Y40783D01*
X262746Y40842D01*
X262830Y40897D01*
X262916Y40949D01*
X263004Y40998D01*
X263094Y41043D01*
X263186Y41085D01*
X263279Y41123D01*
X263374Y41157D01*
X263469Y41188D01*
X263566Y41215D01*
X263664Y41238D01*
X263763Y41258D01*
X263863Y41273D01*
X263963Y41285D01*
X264063Y41293D01*
X264164Y41297D01*
X264264Y41297D01*
X264365Y41293D01*
X264465Y41285D01*
X264565Y41273D01*
X264665Y41258D01*
X264764Y41238D01*
X264862Y41215D01*
X264959Y41188D01*
X265054Y41157D01*
X265149Y41123D01*
X265242Y41085D01*
X265334Y41043D01*
X265424Y40998D01*
X265512Y40949D01*
X265598Y40897D01*
X265682Y40842D01*
X265764Y40783D01*
X265844Y40722D01*
X265921Y40657D01*
X265995Y40589D01*
X266067Y40519D01*
X266136Y40446D01*
X266203Y40370D01*
X266266Y40291D01*
X266326Y40211D01*
X266383Y40128D01*
X266437Y40042D01*
X266487Y39955D01*
X266534Y39866D01*
X266577Y39775D01*
X266617Y39683D01*
X266653Y39589D01*
X266686Y39494D01*
X266715Y39397D01*
X266740Y39300D01*
X266761Y39201D01*
X266779Y39102D01*
X266792Y39002D01*
X266802Y38902D01*
X266808Y38802D01*
X266810Y38701D01*
X266810Y36104D01*
X266808Y36003D01*
X266802Y35903D01*
X266792Y35803D01*
X266779Y35703D01*
X266761Y35604D01*
X266740Y35505D01*
X266715Y35408D01*
X266686Y35311D01*
X266653Y35216D01*
X266617Y35122D01*
X266577Y35030D01*
X266534Y34939D01*
X266487Y34850D01*
X266437Y34763D01*
X266383Y34677D01*
X266326Y34594D01*
X266266Y34514D01*
X266203Y34435D01*
X266136Y34359D01*
X266067Y34286D01*
X265995Y34216D01*
X265921Y34148D01*
X265844Y34083D01*
X265764Y34022D01*
X265682Y33963D01*
X265598Y33908D01*
X265512Y33856D01*
X265424Y33807D01*
X265334Y33762D01*
X265242Y33720D01*
X265149Y33682D01*
X265054Y33648D01*
X264959Y33617D01*
X264862Y33590D01*
X264764Y33567D01*
X264665Y33547D01*
X264565Y33532D01*
X264465Y33520D01*
X264365Y33512D01*
X264264Y33508D01*
X264164Y33508D01*
X264063Y33512D01*
X263963Y33520D01*
X263863Y33532D01*
X263763Y33547D01*
X263664Y33567D01*
X263566Y33590D01*
X263469Y33617D01*
X263374Y33648D01*
X263279Y33682D01*
X263186Y33720D01*
X263094Y33762D01*
X263004Y33807D01*
X262916Y33856D01*
X262830Y33908D01*
X262746Y33963D01*
X262664Y34022D01*
X262584Y34083D01*
X262507Y34148D01*
X262433Y34216D01*
X262361Y34286D01*
X262292Y34359D01*
X262225Y34435D01*
X262162Y34514D01*
X262102Y34594D01*
X262045Y34677D01*
X261991Y34763D01*
X261941Y34850D01*
X261894Y34939D01*
X261851Y35030D01*
X261811Y35122D01*
X261775Y35216D01*
X261742Y35311D01*
X261713Y35408D01*
X261688Y35505D01*
X261667Y35604D01*
X261649Y35703D01*
X261636Y35803D01*
X261626Y35903D01*
X261620Y36003D01*
X261618Y36104D01*
X270556Y41297D02*
X274451Y41297D01*
X271854Y45192D02*
X271854Y35455D01*
X271856Y35368D01*
X271862Y35280D01*
X271872Y35194D01*
X271885Y35107D01*
X271903Y35022D01*
X271924Y34937D01*
X271949Y34853D01*
X271978Y34771D01*
X272011Y34690D01*
X272047Y34610D01*
X272086Y34532D01*
X272130Y34456D01*
X272176Y34382D01*
X272226Y34311D01*
X272279Y34241D01*
X272335Y34174D01*
X272394Y34110D01*
X272456Y34048D01*
X272520Y33989D01*
X272587Y33933D01*
X272657Y33880D01*
X272728Y33830D01*
X272802Y33784D01*
X272878Y33740D01*
X272956Y33701D01*
X273036Y33665D01*
X273117Y33632D01*
X273199Y33603D01*
X273283Y33578D01*
X273368Y33557D01*
X273453Y33539D01*
X273540Y33526D01*
X273626Y33516D01*
X273714Y33510D01*
X273801Y33508D01*
X274451Y33508D01*
X278762Y36104D02*
X278762Y38701D01*
X278763Y38701D02*
X278765Y38802D01*
X278771Y38902D01*
X278781Y39002D01*
X278794Y39102D01*
X278812Y39201D01*
X278833Y39300D01*
X278858Y39397D01*
X278887Y39494D01*
X278920Y39589D01*
X278956Y39683D01*
X278996Y39775D01*
X279039Y39866D01*
X279086Y39955D01*
X279136Y40042D01*
X279190Y40128D01*
X279247Y40211D01*
X279307Y40291D01*
X279370Y40370D01*
X279437Y40446D01*
X279506Y40519D01*
X279578Y40589D01*
X279652Y40657D01*
X279729Y40722D01*
X279809Y40783D01*
X279891Y40842D01*
X279975Y40897D01*
X280061Y40949D01*
X280149Y40998D01*
X280239Y41043D01*
X280331Y41085D01*
X280424Y41123D01*
X280519Y41157D01*
X280614Y41188D01*
X280711Y41215D01*
X280809Y41238D01*
X280908Y41258D01*
X281008Y41273D01*
X281108Y41285D01*
X281208Y41293D01*
X281309Y41297D01*
X281409Y41297D01*
X281510Y41293D01*
X281610Y41285D01*
X281710Y41273D01*
X281810Y41258D01*
X281909Y41238D01*
X282007Y41215D01*
X282104Y41188D01*
X282199Y41157D01*
X282294Y41123D01*
X282387Y41085D01*
X282479Y41043D01*
X282569Y40998D01*
X282657Y40949D01*
X282743Y40897D01*
X282827Y40842D01*
X282909Y40783D01*
X282989Y40722D01*
X283066Y40657D01*
X283140Y40589D01*
X283212Y40519D01*
X283281Y40446D01*
X283348Y40370D01*
X283411Y40291D01*
X283471Y40211D01*
X283528Y40128D01*
X283582Y40042D01*
X283632Y39955D01*
X283679Y39866D01*
X283722Y39775D01*
X283762Y39683D01*
X283798Y39589D01*
X283831Y39494D01*
X283860Y39397D01*
X283885Y39300D01*
X283906Y39201D01*
X283924Y39102D01*
X283937Y39002D01*
X283947Y38902D01*
X283953Y38802D01*
X283955Y38701D01*
X283955Y36104D01*
X283953Y36003D01*
X283947Y35903D01*
X283937Y35803D01*
X283924Y35703D01*
X283906Y35604D01*
X283885Y35505D01*
X283860Y35408D01*
X283831Y35311D01*
X283798Y35216D01*
X283762Y35122D01*
X283722Y35030D01*
X283679Y34939D01*
X283632Y34850D01*
X283582Y34763D01*
X283528Y34677D01*
X283471Y34594D01*
X283411Y34514D01*
X283348Y34435D01*
X283281Y34359D01*
X283212Y34286D01*
X283140Y34216D01*
X283066Y34148D01*
X282989Y34083D01*
X282909Y34022D01*
X282827Y33963D01*
X282743Y33908D01*
X282657Y33856D01*
X282569Y33807D01*
X282479Y33762D01*
X282387Y33720D01*
X282294Y33682D01*
X282199Y33648D01*
X282104Y33617D01*
X282007Y33590D01*
X281909Y33567D01*
X281810Y33547D01*
X281710Y33532D01*
X281610Y33520D01*
X281510Y33512D01*
X281409Y33508D01*
X281309Y33508D01*
X281208Y33512D01*
X281108Y33520D01*
X281008Y33532D01*
X280908Y33547D01*
X280809Y33567D01*
X280711Y33590D01*
X280614Y33617D01*
X280519Y33648D01*
X280424Y33682D01*
X280331Y33720D01*
X280239Y33762D01*
X280149Y33807D01*
X280061Y33856D01*
X279975Y33908D01*
X279891Y33963D01*
X279809Y34022D01*
X279729Y34083D01*
X279652Y34148D01*
X279578Y34216D01*
X279506Y34286D01*
X279437Y34359D01*
X279370Y34435D01*
X279307Y34514D01*
X279247Y34594D01*
X279190Y34677D01*
X279136Y34763D01*
X279086Y34850D01*
X279039Y34939D01*
X278996Y35030D01*
X278956Y35122D01*
X278920Y35216D01*
X278887Y35311D01*
X278858Y35408D01*
X278833Y35505D01*
X278812Y35604D01*
X278794Y35703D01*
X278781Y35803D01*
X278771Y35903D01*
X278765Y36003D01*
X278763Y36104D01*
X289116Y33508D02*
X289116Y41297D01*
X293010Y41297D01*
X293010Y39999D01*
X296895Y38052D02*
X304684Y38052D01*
X310191Y33508D02*
X310191Y45192D01*
X313436Y45192D01*
X313549Y45190D01*
X313662Y45184D01*
X313775Y45174D01*
X313888Y45160D01*
X314000Y45143D01*
X314111Y45121D01*
X314221Y45096D01*
X314331Y45066D01*
X314439Y45033D01*
X314546Y44996D01*
X314652Y44956D01*
X314756Y44911D01*
X314859Y44863D01*
X314960Y44812D01*
X315059Y44757D01*
X315156Y44699D01*
X315251Y44637D01*
X315344Y44572D01*
X315434Y44504D01*
X315522Y44433D01*
X315608Y44358D01*
X315691Y44281D01*
X315771Y44201D01*
X315848Y44118D01*
X315923Y44032D01*
X315994Y43944D01*
X316062Y43854D01*
X316127Y43761D01*
X316189Y43666D01*
X316247Y43569D01*
X316302Y43470D01*
X316353Y43369D01*
X316401Y43266D01*
X316446Y43162D01*
X316486Y43056D01*
X316523Y42949D01*
X316556Y42841D01*
X316586Y42731D01*
X316611Y42621D01*
X316633Y42510D01*
X316650Y42398D01*
X316664Y42285D01*
X316674Y42172D01*
X316680Y42059D01*
X316682Y41946D01*
X316680Y41833D01*
X316674Y41720D01*
X316664Y41607D01*
X316650Y41494D01*
X316633Y41382D01*
X316611Y41271D01*
X316586Y41161D01*
X316556Y41051D01*
X316523Y40943D01*
X316486Y40836D01*
X316446Y40730D01*
X316401Y40626D01*
X316353Y40523D01*
X316302Y40422D01*
X316247Y40323D01*
X316189Y40226D01*
X316127Y40131D01*
X316062Y40038D01*
X315994Y39948D01*
X315923Y39860D01*
X315848Y39774D01*
X315771Y39691D01*
X315691Y39611D01*
X315608Y39534D01*
X315522Y39459D01*
X315434Y39388D01*
X315344Y39320D01*
X315251Y39255D01*
X315156Y39193D01*
X315059Y39135D01*
X314960Y39080D01*
X314859Y39029D01*
X314756Y38981D01*
X314652Y38936D01*
X314546Y38896D01*
X314439Y38859D01*
X314331Y38826D01*
X314221Y38796D01*
X314111Y38771D01*
X314000Y38749D01*
X313888Y38732D01*
X313775Y38718D01*
X313662Y38708D01*
X313549Y38702D01*
X313436Y38700D01*
X313436Y38701D02*
X310191Y38701D01*
X314085Y38701D02*
X316682Y33508D01*
D12*
X313100Y38950D02*
X313100Y129450D01*
X313100Y38950D02*
X343100Y38950D01*
X343100Y129450D01*
X313100Y129450D01*
D13*
X325600Y129200D02*
X325600Y125450D01*
X315600Y125450D01*
X325600Y42950D02*
X325600Y39200D01*
X325600Y42950D02*
X315600Y42950D01*
X331850Y125450D02*
X331850Y129200D01*
X331850Y42950D02*
X331850Y39200D01*
X331850Y125450D02*
X339350Y125450D01*
X339350Y42950D01*
X331850Y42950D01*
X339350Y42950D02*
X341850Y40450D01*
X339350Y125450D02*
X341850Y127950D01*
D14*
X314975Y84200D03*
D15*
X350682Y97915D02*
X351479Y96798D01*
X351479Y96799D02*
X351197Y96590D01*
X350920Y96374D01*
X350649Y96152D01*
X350383Y95924D01*
X350122Y95689D01*
X349867Y95448D01*
X349619Y95200D01*
X349376Y94947D01*
X349139Y94688D01*
X348909Y94424D01*
X348685Y94153D01*
X348468Y93878D01*
X348257Y93598D01*
X348053Y93312D01*
X347856Y93022D01*
X347666Y92727D01*
X347484Y92427D01*
X347308Y92123D01*
X347140Y91815D01*
X346980Y91503D01*
X346827Y91188D01*
X346682Y90868D01*
X346544Y90546D01*
X346414Y90220D01*
X346292Y89891D01*
X346178Y89559D01*
X346073Y89224D01*
X345975Y88888D01*
X345885Y88548D01*
X345804Y88207D01*
X345731Y87864D01*
X345666Y87519D01*
X345609Y87173D01*
X345561Y86826D01*
X345521Y86477D01*
X345490Y86128D01*
X345467Y85778D01*
X345452Y85427D01*
X345446Y85076D01*
X344075Y85076D01*
X344074Y85076D01*
X344081Y85461D01*
X344096Y85844D01*
X344121Y86228D01*
X344156Y86611D01*
X344199Y86992D01*
X344252Y87373D01*
X344314Y87752D01*
X344385Y88130D01*
X344465Y88506D01*
X344554Y88880D01*
X344652Y89251D01*
X344759Y89620D01*
X344875Y89986D01*
X344999Y90350D01*
X345133Y90710D01*
X345275Y91067D01*
X345426Y91421D01*
X345585Y91770D01*
X345752Y92116D01*
X345928Y92458D01*
X346112Y92795D01*
X346304Y93128D01*
X346504Y93456D01*
X346712Y93779D01*
X346928Y94097D01*
X347151Y94410D01*
X347382Y94717D01*
X347620Y95019D01*
X347865Y95315D01*
X348118Y95604D01*
X348377Y95888D01*
X348643Y96165D01*
X348916Y96436D01*
X349195Y96700D01*
X349480Y96957D01*
X349772Y97208D01*
X350069Y97451D01*
X350373Y97687D01*
X350682Y97915D01*
X350765Y97799D01*
X350459Y97572D01*
X350158Y97339D01*
X349863Y97098D01*
X349574Y96849D01*
X349292Y96595D01*
X349015Y96333D01*
X348745Y96065D01*
X348481Y95790D01*
X348224Y95509D01*
X347974Y95222D01*
X347731Y94929D01*
X347495Y94630D01*
X347266Y94325D01*
X347045Y94015D01*
X346832Y93700D01*
X346625Y93380D01*
X346427Y93055D01*
X346237Y92725D01*
X346055Y92391D01*
X345880Y92052D01*
X345714Y91710D01*
X345557Y91363D01*
X345407Y91013D01*
X345266Y90659D01*
X345134Y90302D01*
X345011Y89942D01*
X344896Y89579D01*
X344790Y89213D01*
X344693Y88845D01*
X344604Y88475D01*
X344525Y88102D01*
X344455Y87728D01*
X344393Y87352D01*
X344341Y86975D01*
X344298Y86597D01*
X344264Y86217D01*
X344239Y85838D01*
X344224Y85457D01*
X344217Y85076D01*
X344360Y85076D01*
X344367Y85454D01*
X344382Y85831D01*
X344407Y86207D01*
X344440Y86583D01*
X344483Y86958D01*
X344535Y87331D01*
X344595Y87704D01*
X344665Y88075D01*
X344744Y88444D01*
X344831Y88811D01*
X344928Y89175D01*
X345033Y89538D01*
X345147Y89897D01*
X345269Y90254D01*
X345400Y90608D01*
X345540Y90959D01*
X345687Y91306D01*
X345844Y91649D01*
X346008Y91989D01*
X346181Y92324D01*
X346362Y92655D01*
X346550Y92982D01*
X346747Y93304D01*
X346951Y93621D01*
X347163Y93934D01*
X347382Y94241D01*
X347608Y94542D01*
X347842Y94838D01*
X348083Y95129D01*
X348331Y95413D01*
X348585Y95692D01*
X348846Y95964D01*
X349114Y96230D01*
X349388Y96489D01*
X349668Y96742D01*
X349955Y96988D01*
X350247Y97226D01*
X350545Y97458D01*
X350848Y97683D01*
X350931Y97566D01*
X350630Y97344D01*
X350335Y97114D01*
X350046Y96878D01*
X349763Y96634D01*
X349485Y96384D01*
X349213Y96127D01*
X348948Y95863D01*
X348689Y95594D01*
X348437Y95318D01*
X348192Y95036D01*
X347953Y94748D01*
X347721Y94455D01*
X347497Y94156D01*
X347280Y93852D01*
X347070Y93542D01*
X346868Y93228D01*
X346673Y92909D01*
X346486Y92585D01*
X346307Y92257D01*
X346136Y91925D01*
X345973Y91588D01*
X345818Y91248D01*
X345672Y90904D01*
X345534Y90557D01*
X345404Y90206D01*
X345282Y89853D01*
X345170Y89496D01*
X345066Y89137D01*
X344970Y88776D01*
X344883Y88412D01*
X344805Y88047D01*
X344736Y87679D01*
X344676Y87311D01*
X344625Y86940D01*
X344583Y86569D01*
X344549Y86197D01*
X344525Y85824D01*
X344510Y85450D01*
X344503Y85076D01*
X344646Y85076D01*
X344652Y85447D01*
X344668Y85817D01*
X344692Y86186D01*
X344725Y86555D01*
X344767Y86923D01*
X344818Y87290D01*
X344877Y87655D01*
X344946Y88019D01*
X345023Y88381D01*
X345109Y88741D01*
X345203Y89100D01*
X345307Y89455D01*
X345418Y89808D01*
X345538Y90158D01*
X345667Y90506D01*
X345804Y90850D01*
X345949Y91190D01*
X346103Y91528D01*
X346264Y91861D01*
X346434Y92190D01*
X346611Y92515D01*
X346796Y92836D01*
X346989Y93152D01*
X347189Y93463D01*
X347397Y93770D01*
X347612Y94071D01*
X347835Y94367D01*
X348064Y94658D01*
X348300Y94943D01*
X348544Y95222D01*
X348793Y95496D01*
X349050Y95763D01*
X349313Y96024D01*
X349582Y96278D01*
X349857Y96526D01*
X350137Y96768D01*
X350424Y97002D01*
X350716Y97229D01*
X351014Y97450D01*
X351097Y97333D01*
X350802Y97115D01*
X350513Y96890D01*
X350229Y96658D01*
X349951Y96419D01*
X349678Y96173D01*
X349412Y95921D01*
X349151Y95662D01*
X348898Y95398D01*
X348650Y95127D01*
X348409Y94850D01*
X348175Y94568D01*
X347948Y94280D01*
X347727Y93987D01*
X347514Y93688D01*
X347308Y93384D01*
X347110Y93076D01*
X346919Y92763D01*
X346736Y92445D01*
X346560Y92123D01*
X346392Y91797D01*
X346232Y91467D01*
X346080Y91133D01*
X345936Y90795D01*
X345801Y90455D01*
X345673Y90111D01*
X345554Y89764D01*
X345443Y89414D01*
X345341Y89062D01*
X345248Y88707D01*
X345163Y88350D01*
X345086Y87991D01*
X345018Y87631D01*
X344959Y87269D01*
X344909Y86905D01*
X344867Y86541D01*
X344835Y86176D01*
X344811Y85810D01*
X344795Y85443D01*
X344789Y85076D01*
X344932Y85076D01*
X344938Y85440D01*
X344953Y85803D01*
X344977Y86165D01*
X345010Y86527D01*
X345051Y86888D01*
X345101Y87248D01*
X345159Y87607D01*
X345226Y87964D01*
X345302Y88319D01*
X345386Y88672D01*
X345479Y89024D01*
X345580Y89373D01*
X345690Y89719D01*
X345808Y90063D01*
X345934Y90403D01*
X346069Y90741D01*
X346211Y91075D01*
X346362Y91406D01*
X346520Y91733D01*
X346686Y92056D01*
X346860Y92375D01*
X347042Y92690D01*
X347231Y93000D01*
X347428Y93305D01*
X347632Y93606D01*
X347843Y93902D01*
X348061Y94192D01*
X348286Y94478D01*
X348518Y94757D01*
X348756Y95031D01*
X349002Y95300D01*
X349253Y95562D01*
X349511Y95818D01*
X349775Y96068D01*
X350045Y96311D01*
X350320Y96548D01*
X350602Y96778D01*
X350888Y97001D01*
X351180Y97217D01*
X351263Y97101D01*
X350974Y96887D01*
X350690Y96665D01*
X350412Y96438D01*
X350139Y96203D01*
X349871Y95962D01*
X349610Y95715D01*
X349355Y95461D01*
X349106Y95201D01*
X348863Y94936D01*
X348627Y94664D01*
X348397Y94387D01*
X348174Y94105D01*
X347958Y93817D01*
X347749Y93524D01*
X347547Y93227D01*
X347352Y92924D01*
X347165Y92617D01*
X346985Y92305D01*
X346813Y91989D01*
X346648Y91669D01*
X346491Y91345D01*
X346342Y91018D01*
X346201Y90687D01*
X346068Y90352D01*
X345943Y90015D01*
X345826Y89675D01*
X345717Y89331D01*
X345617Y88986D01*
X345525Y88638D01*
X345442Y88288D01*
X345367Y87936D01*
X345300Y87582D01*
X345242Y87227D01*
X345193Y86871D01*
X345152Y86513D01*
X345120Y86155D01*
X345096Y85796D01*
X345081Y85436D01*
X345075Y85076D01*
X345218Y85076D01*
X345224Y85433D01*
X345239Y85789D01*
X345262Y86144D01*
X345294Y86499D01*
X345335Y86853D01*
X345384Y87206D01*
X345441Y87558D01*
X345507Y87908D01*
X345581Y88257D01*
X345664Y88603D01*
X345755Y88948D01*
X345854Y89290D01*
X345962Y89630D01*
X346078Y89967D01*
X346201Y90301D01*
X346333Y90632D01*
X346473Y90960D01*
X346620Y91285D01*
X346776Y91605D01*
X346939Y91922D01*
X347110Y92235D01*
X347288Y92544D01*
X347473Y92848D01*
X347666Y93148D01*
X347866Y93443D01*
X348073Y93733D01*
X348287Y94018D01*
X348508Y94297D01*
X348735Y94572D01*
X348969Y94840D01*
X349210Y95103D01*
X349456Y95361D01*
X349709Y95612D01*
X349968Y95857D01*
X350233Y96095D01*
X350503Y96328D01*
X350779Y96553D01*
X351060Y96772D01*
X351346Y96984D01*
X351430Y96868D01*
X351146Y96658D01*
X350868Y96441D01*
X350594Y96218D01*
X350327Y95988D01*
X350065Y95751D01*
X349809Y95509D01*
X349558Y95260D01*
X349314Y95005D01*
X349076Y94745D01*
X348844Y94479D01*
X348619Y94207D01*
X348400Y93930D01*
X348188Y93648D01*
X347983Y93361D01*
X347785Y93069D01*
X347594Y92772D01*
X347411Y92471D01*
X347234Y92165D01*
X347065Y91855D01*
X346904Y91541D01*
X346750Y91224D01*
X346604Y90903D01*
X346465Y90578D01*
X346335Y90250D01*
X346212Y89919D01*
X346098Y89585D01*
X345991Y89249D01*
X345893Y88910D01*
X345803Y88569D01*
X345721Y88226D01*
X345647Y87881D01*
X345582Y87534D01*
X345525Y87185D01*
X345477Y86836D01*
X345437Y86485D01*
X345405Y86134D01*
X345382Y85782D01*
X345367Y85429D01*
X345361Y85076D01*
X344075Y84925D02*
X345447Y84925D01*
X345446Y84924D02*
X345452Y84573D01*
X345467Y84222D01*
X345490Y83872D01*
X345521Y83522D01*
X345561Y83173D01*
X345609Y82825D01*
X345666Y82479D01*
X345731Y82134D01*
X345804Y81790D01*
X345886Y81449D01*
X345976Y81109D01*
X346074Y80772D01*
X346180Y80437D01*
X346294Y80105D01*
X346416Y79776D01*
X346546Y79450D01*
X346684Y79127D01*
X346829Y78807D01*
X346983Y78491D01*
X347143Y78179D01*
X347312Y77871D01*
X347487Y77567D01*
X347670Y77267D01*
X347860Y76972D01*
X348058Y76681D01*
X348262Y76396D01*
X348473Y76115D01*
X348691Y75840D01*
X348915Y75569D01*
X349146Y75305D01*
X349383Y75046D01*
X349626Y74792D01*
X349875Y74545D01*
X350130Y74304D01*
X350391Y74069D01*
X350658Y73840D01*
X350930Y73618D01*
X351207Y73403D01*
X350384Y72305D01*
X350080Y72541D01*
X349782Y72784D01*
X349490Y73034D01*
X349204Y73292D01*
X348924Y73556D01*
X348651Y73827D01*
X348385Y74104D01*
X348125Y74388D01*
X347872Y74677D01*
X347626Y74973D01*
X347388Y75275D01*
X347157Y75582D01*
X346933Y75895D01*
X346717Y76214D01*
X346509Y76537D01*
X346308Y76865D01*
X346116Y77198D01*
X345932Y77536D01*
X345755Y77878D01*
X345588Y78224D01*
X345428Y78574D01*
X345277Y78928D01*
X345135Y79285D01*
X345001Y79646D01*
X344876Y80009D01*
X344760Y80376D01*
X344653Y80745D01*
X344555Y81117D01*
X344465Y81491D01*
X344385Y81867D01*
X344314Y82245D01*
X344252Y82625D01*
X344199Y83006D01*
X344156Y83388D01*
X344121Y83771D01*
X344096Y84155D01*
X344081Y84539D01*
X344074Y84924D01*
X344217Y84924D01*
X344224Y84543D01*
X344239Y84162D01*
X344264Y83782D01*
X344298Y83402D01*
X344341Y83023D01*
X344394Y82646D01*
X344455Y82270D01*
X344525Y81895D01*
X344605Y81522D01*
X344693Y81152D01*
X344791Y80783D01*
X344897Y80417D01*
X345012Y80054D01*
X345136Y79693D01*
X345268Y79336D01*
X345409Y78982D01*
X345559Y78631D01*
X345717Y78285D01*
X345883Y77942D01*
X346058Y77603D01*
X346240Y77268D01*
X346431Y76938D01*
X346630Y76613D01*
X346836Y76293D01*
X347050Y75977D01*
X347272Y75667D01*
X347501Y75363D01*
X347737Y75064D01*
X347981Y74770D01*
X348231Y74483D01*
X348489Y74202D01*
X348753Y73927D01*
X349024Y73659D01*
X349301Y73397D01*
X349584Y73142D01*
X349873Y72894D01*
X350169Y72653D01*
X350470Y72419D01*
X350555Y72534D01*
X350257Y72765D01*
X349965Y73004D01*
X349678Y73250D01*
X349397Y73503D01*
X349123Y73762D01*
X348854Y74028D01*
X348593Y74300D01*
X348338Y74579D01*
X348090Y74863D01*
X347848Y75154D01*
X347614Y75450D01*
X347387Y75752D01*
X347168Y76059D01*
X346955Y76372D01*
X346751Y76689D01*
X346554Y77011D01*
X346365Y77338D01*
X346184Y77670D01*
X346011Y78006D01*
X345846Y78345D01*
X345690Y78689D01*
X345542Y79036D01*
X345402Y79387D01*
X345271Y79741D01*
X345148Y80098D01*
X345034Y80459D01*
X344929Y80821D01*
X344832Y81186D01*
X344744Y81554D01*
X344666Y81923D01*
X344596Y82294D01*
X344535Y82667D01*
X344483Y83041D01*
X344440Y83416D01*
X344407Y83792D01*
X344382Y84169D01*
X344367Y84546D01*
X344360Y84924D01*
X344503Y84924D01*
X344510Y84550D01*
X344525Y84176D01*
X344549Y83803D01*
X344583Y83430D01*
X344625Y83058D01*
X344676Y82688D01*
X344737Y82318D01*
X344806Y81951D01*
X344884Y81585D01*
X344971Y81221D01*
X345066Y80859D01*
X345171Y80500D01*
X345284Y80143D01*
X345405Y79789D01*
X345535Y79438D01*
X345674Y79091D01*
X345821Y78747D01*
X345976Y78406D01*
X346139Y78070D01*
X346310Y77737D01*
X346490Y77409D01*
X346677Y77085D01*
X346872Y76765D01*
X347075Y76451D01*
X347285Y76141D01*
X347502Y75837D01*
X347727Y75538D01*
X347959Y75244D01*
X348198Y74956D01*
X348444Y74674D01*
X348697Y74398D01*
X348956Y74129D01*
X349222Y73865D01*
X349494Y73608D01*
X349772Y73358D01*
X350056Y73114D01*
X350346Y72878D01*
X350641Y72648D01*
X350727Y72763D01*
X350434Y72990D01*
X350147Y73224D01*
X349866Y73466D01*
X349590Y73714D01*
X349321Y73968D01*
X349058Y74229D01*
X348801Y74497D01*
X348551Y74770D01*
X348307Y75049D01*
X348070Y75334D01*
X347840Y75625D01*
X347617Y75922D01*
X347402Y76223D01*
X347194Y76530D01*
X346993Y76841D01*
X346800Y77158D01*
X346614Y77479D01*
X346437Y77804D01*
X346267Y78133D01*
X346105Y78467D01*
X345952Y78804D01*
X345806Y79145D01*
X345669Y79490D01*
X345540Y79837D01*
X345420Y80188D01*
X345308Y80541D01*
X345204Y80897D01*
X345110Y81255D01*
X345024Y81616D01*
X344946Y81978D01*
X344878Y82343D01*
X344818Y82709D01*
X344767Y83076D01*
X344725Y83444D01*
X344692Y83813D01*
X344668Y84183D01*
X344652Y84553D01*
X344646Y84924D01*
X344789Y84924D01*
X344795Y84557D01*
X344811Y84190D01*
X344835Y83824D01*
X344867Y83458D01*
X344909Y83093D01*
X344959Y82729D01*
X345019Y82367D01*
X345087Y82006D01*
X345163Y81647D01*
X345248Y81290D01*
X345342Y80935D01*
X345445Y80582D01*
X345555Y80232D01*
X345675Y79885D01*
X345802Y79541D01*
X345938Y79200D01*
X346082Y78862D01*
X346235Y78528D01*
X346395Y78197D01*
X346563Y77871D01*
X346739Y77549D01*
X346923Y77231D01*
X347114Y76917D01*
X347313Y76609D01*
X347519Y76305D01*
X347733Y76006D01*
X347953Y75713D01*
X348181Y75425D01*
X348416Y75142D01*
X348657Y74866D01*
X348905Y74595D01*
X349159Y74330D01*
X349420Y74071D01*
X349687Y73819D01*
X349960Y73573D01*
X350238Y73334D01*
X350523Y73102D01*
X350813Y72877D01*
X350899Y72991D01*
X350611Y73215D01*
X350330Y73445D01*
X350054Y73681D01*
X349783Y73925D01*
X349519Y74174D01*
X349261Y74431D01*
X349009Y74693D01*
X348763Y74961D01*
X348524Y75235D01*
X348292Y75515D01*
X348066Y75800D01*
X347848Y76091D01*
X347636Y76387D01*
X347432Y76688D01*
X347235Y76994D01*
X347046Y77304D01*
X346864Y77619D01*
X346689Y77938D01*
X346523Y78261D01*
X346364Y78589D01*
X346213Y78920D01*
X346071Y79254D01*
X345936Y79592D01*
X345810Y79933D01*
X345691Y80277D01*
X345582Y80624D01*
X345480Y80973D01*
X345387Y81324D01*
X345303Y81678D01*
X345227Y82034D01*
X345160Y82391D01*
X345101Y82750D01*
X345051Y83111D01*
X345010Y83472D01*
X344977Y83834D01*
X344953Y84197D01*
X344938Y84560D01*
X344932Y84924D01*
X345075Y84924D01*
X345081Y84564D01*
X345096Y84204D01*
X345120Y83845D01*
X345152Y83486D01*
X345193Y83128D01*
X345242Y82771D01*
X345300Y82416D01*
X345367Y82062D01*
X345442Y81709D01*
X345526Y81359D01*
X345618Y81011D01*
X345718Y80665D01*
X345827Y80322D01*
X345944Y79981D01*
X346069Y79643D01*
X346203Y79309D01*
X346344Y78977D01*
X346493Y78649D01*
X346651Y78325D01*
X346816Y78005D01*
X346988Y77689D01*
X347168Y77377D01*
X347356Y77070D01*
X347551Y76767D01*
X347754Y76469D01*
X347963Y76176D01*
X348179Y75888D01*
X348403Y75605D01*
X348633Y75328D01*
X348870Y75057D01*
X349113Y74791D01*
X349362Y74531D01*
X349618Y74278D01*
X349880Y74030D01*
X350148Y73789D01*
X350421Y73555D01*
X350700Y73327D01*
X350984Y73106D01*
X351070Y73220D01*
X350788Y73439D01*
X350512Y73665D01*
X350241Y73897D01*
X349976Y74136D01*
X349717Y74381D01*
X349464Y74632D01*
X349217Y74889D01*
X348976Y75152D01*
X348742Y75421D01*
X348514Y75696D01*
X348293Y75975D01*
X348078Y76261D01*
X347871Y76551D01*
X347670Y76846D01*
X347477Y77146D01*
X347291Y77450D01*
X347113Y77759D01*
X346942Y78072D01*
X346779Y78389D01*
X346623Y78710D01*
X346475Y79035D01*
X346335Y79363D01*
X346203Y79694D01*
X346079Y80029D01*
X345963Y80366D01*
X345855Y80706D01*
X345756Y81049D01*
X345665Y81394D01*
X345582Y81741D01*
X345507Y82089D01*
X345441Y82440D01*
X345384Y82792D01*
X345335Y83145D01*
X345294Y83500D01*
X345262Y83855D01*
X345239Y84211D01*
X345224Y84567D01*
X345218Y84924D01*
X345361Y84924D01*
X345367Y84571D01*
X345382Y84218D01*
X345405Y83865D01*
X345437Y83514D01*
X345477Y83163D01*
X345525Y82813D01*
X345582Y82464D01*
X345648Y82117D01*
X345721Y81772D01*
X345803Y81428D01*
X345894Y81087D01*
X345992Y80747D01*
X346099Y80411D01*
X346214Y80077D01*
X346337Y79745D01*
X346467Y79417D01*
X346606Y79092D01*
X346752Y78771D01*
X346906Y78453D01*
X347068Y78139D01*
X347238Y77829D01*
X347414Y77523D01*
X347598Y77222D01*
X347790Y76925D01*
X347988Y76633D01*
X348193Y76345D01*
X348406Y76063D01*
X348625Y75786D01*
X348850Y75514D01*
X349082Y75248D01*
X349321Y74987D01*
X349565Y74733D01*
X349816Y74484D01*
X350073Y74241D01*
X350335Y74005D01*
X350603Y73775D01*
X350877Y73551D01*
X351156Y73335D01*
X375925Y85076D02*
X374553Y85076D01*
X374554Y85076D02*
X374548Y85430D01*
X374533Y85783D01*
X374510Y86136D01*
X374478Y86488D01*
X374437Y86840D01*
X374388Y87190D01*
X374331Y87539D01*
X374265Y87887D01*
X374190Y88233D01*
X374108Y88577D01*
X374017Y88918D01*
X373917Y89258D01*
X373810Y89595D01*
X373694Y89929D01*
X373570Y90261D01*
X373438Y90589D01*
X373298Y90914D01*
X373151Y91235D01*
X372995Y91553D01*
X372832Y91867D01*
X372661Y92177D01*
X372483Y92482D01*
X372298Y92784D01*
X372105Y93080D01*
X371905Y93372D01*
X371698Y93659D01*
X371484Y93941D01*
X371263Y94217D01*
X371036Y94488D01*
X370802Y94753D01*
X370562Y95013D01*
X370316Y95267D01*
X370063Y95515D01*
X369804Y95756D01*
X369540Y95991D01*
X369270Y96220D01*
X368995Y96442D01*
X369837Y97524D01*
X369837Y97525D01*
X370139Y97282D01*
X370435Y97031D01*
X370724Y96774D01*
X371008Y96510D01*
X371284Y96238D01*
X371554Y95961D01*
X371818Y95676D01*
X372074Y95386D01*
X372323Y95089D01*
X372565Y94786D01*
X372799Y94477D01*
X373026Y94163D01*
X373245Y93844D01*
X373456Y93519D01*
X373659Y93189D01*
X373855Y92854D01*
X374042Y92515D01*
X374220Y92171D01*
X374390Y91823D01*
X374552Y91471D01*
X374705Y91115D01*
X374850Y90755D01*
X374985Y90392D01*
X375112Y90026D01*
X375230Y89657D01*
X375339Y89285D01*
X375438Y88911D01*
X375529Y88534D01*
X375610Y88155D01*
X375682Y87774D01*
X375745Y87392D01*
X375799Y87008D01*
X375843Y86623D01*
X375878Y86237D01*
X375903Y85851D01*
X375919Y85464D01*
X375926Y85076D01*
X375783Y85076D01*
X375776Y85460D01*
X375760Y85844D01*
X375735Y86227D01*
X375701Y86609D01*
X375657Y86991D01*
X375604Y87371D01*
X375542Y87750D01*
X375470Y88127D01*
X375389Y88502D01*
X375300Y88876D01*
X375201Y89247D01*
X375093Y89615D01*
X374976Y89981D01*
X374851Y90344D01*
X374716Y90704D01*
X374573Y91060D01*
X374422Y91413D01*
X374261Y91762D01*
X374093Y92107D01*
X373916Y92447D01*
X373730Y92784D01*
X373537Y93115D01*
X373335Y93442D01*
X373126Y93764D01*
X372909Y94081D01*
X372684Y94392D01*
X372452Y94698D01*
X372212Y94998D01*
X371966Y95292D01*
X371712Y95580D01*
X371451Y95862D01*
X371183Y96137D01*
X370909Y96406D01*
X370628Y96668D01*
X370341Y96923D01*
X370048Y97171D01*
X369749Y97412D01*
X369661Y97299D01*
X369958Y97060D01*
X370248Y96815D01*
X370532Y96562D01*
X370811Y96302D01*
X371082Y96036D01*
X371347Y95763D01*
X371606Y95484D01*
X371857Y95199D01*
X372102Y94907D01*
X372339Y94610D01*
X372570Y94307D01*
X372792Y93998D01*
X373007Y93684D01*
X373215Y93366D01*
X373414Y93042D01*
X373606Y92713D01*
X373789Y92380D01*
X373965Y92042D01*
X374132Y91700D01*
X374291Y91355D01*
X374441Y91005D01*
X374583Y90652D01*
X374716Y90296D01*
X374841Y89936D01*
X374956Y89574D01*
X375063Y89209D01*
X375161Y88841D01*
X375250Y88471D01*
X375330Y88099D01*
X375401Y87725D01*
X375462Y87350D01*
X375515Y86973D01*
X375558Y86595D01*
X375593Y86216D01*
X375618Y85837D01*
X375633Y85456D01*
X375640Y85076D01*
X375497Y85076D01*
X375490Y85453D01*
X375475Y85830D01*
X375450Y86206D01*
X375416Y86581D01*
X375373Y86956D01*
X375321Y87329D01*
X375260Y87701D01*
X375190Y88071D01*
X375110Y88440D01*
X375022Y88806D01*
X374925Y89170D01*
X374819Y89532D01*
X374705Y89891D01*
X374582Y90247D01*
X374450Y90601D01*
X374309Y90950D01*
X374160Y91297D01*
X374003Y91639D01*
X373837Y91978D01*
X373663Y92312D01*
X373482Y92642D01*
X373292Y92968D01*
X373094Y93289D01*
X372888Y93605D01*
X372675Y93916D01*
X372455Y94221D01*
X372227Y94522D01*
X371992Y94816D01*
X371749Y95105D01*
X371500Y95388D01*
X371244Y95664D01*
X370981Y95935D01*
X370712Y96199D01*
X370437Y96456D01*
X370155Y96706D01*
X369867Y96950D01*
X369574Y97186D01*
X369486Y97073D01*
X369777Y96839D01*
X370062Y96598D01*
X370341Y96350D01*
X370614Y96095D01*
X370880Y95833D01*
X371141Y95566D01*
X371394Y95292D01*
X371641Y95011D01*
X371881Y94725D01*
X372114Y94434D01*
X372340Y94136D01*
X372559Y93833D01*
X372770Y93525D01*
X372973Y93212D01*
X373169Y92894D01*
X373357Y92572D01*
X373537Y92245D01*
X373710Y91913D01*
X373874Y91578D01*
X374029Y91239D01*
X374177Y90896D01*
X374316Y90549D01*
X374447Y90199D01*
X374569Y89846D01*
X374683Y89491D01*
X374787Y89132D01*
X374884Y88771D01*
X374971Y88408D01*
X375049Y88043D01*
X375119Y87676D01*
X375180Y87308D01*
X375231Y86938D01*
X375274Y86567D01*
X375307Y86195D01*
X375332Y85823D01*
X375347Y85449D01*
X375354Y85076D01*
X375211Y85076D01*
X375204Y85446D01*
X375189Y85816D01*
X375165Y86185D01*
X375132Y86553D01*
X375089Y86921D01*
X375038Y87287D01*
X374978Y87652D01*
X374909Y88015D01*
X374831Y88377D01*
X374745Y88737D01*
X374650Y89094D01*
X374546Y89449D01*
X374433Y89801D01*
X374312Y90151D01*
X374183Y90497D01*
X374045Y90841D01*
X373899Y91180D01*
X373744Y91517D01*
X373582Y91849D01*
X373411Y92177D01*
X373233Y92501D01*
X373046Y92821D01*
X372852Y93136D01*
X372651Y93446D01*
X372442Y93751D01*
X372225Y94051D01*
X372002Y94345D01*
X371771Y94634D01*
X371533Y94918D01*
X371288Y95195D01*
X371037Y95467D01*
X370779Y95732D01*
X370515Y95991D01*
X370245Y96244D01*
X369968Y96489D01*
X369686Y96728D01*
X369398Y96960D01*
X369310Y96848D01*
X369596Y96618D01*
X369875Y96381D01*
X370149Y96137D01*
X370417Y95887D01*
X370678Y95631D01*
X370934Y95368D01*
X371183Y95099D01*
X371425Y94824D01*
X371660Y94544D01*
X371889Y94257D01*
X372111Y93966D01*
X372325Y93668D01*
X372532Y93366D01*
X372732Y93059D01*
X372924Y92747D01*
X373108Y92431D01*
X373285Y92110D01*
X373454Y91785D01*
X373615Y91455D01*
X373768Y91122D01*
X373913Y90786D01*
X374049Y90446D01*
X374178Y90103D01*
X374298Y89756D01*
X374409Y89407D01*
X374512Y89056D01*
X374606Y88702D01*
X374692Y88346D01*
X374769Y87987D01*
X374837Y87627D01*
X374897Y87266D01*
X374947Y86903D01*
X374989Y86539D01*
X375022Y86174D01*
X375046Y85808D01*
X375062Y85442D01*
X375068Y85076D01*
X374925Y85076D01*
X374919Y85439D01*
X374903Y85801D01*
X374880Y86164D01*
X374847Y86525D01*
X374805Y86885D01*
X374755Y87245D01*
X374696Y87603D01*
X374629Y87959D01*
X374552Y88314D01*
X374468Y88667D01*
X374374Y89018D01*
X374272Y89366D01*
X374162Y89712D01*
X374043Y90054D01*
X373916Y90394D01*
X373781Y90731D01*
X373637Y91064D01*
X373486Y91394D01*
X373327Y91720D01*
X373159Y92042D01*
X372984Y92360D01*
X372801Y92673D01*
X372611Y92982D01*
X372413Y93287D01*
X372208Y93586D01*
X371996Y93880D01*
X371776Y94169D01*
X371550Y94453D01*
X371317Y94731D01*
X371077Y95003D01*
X370830Y95269D01*
X370577Y95530D01*
X370318Y95784D01*
X370053Y96031D01*
X369782Y96272D01*
X369505Y96507D01*
X369222Y96735D01*
X369135Y96622D01*
X369415Y96396D01*
X369689Y96164D01*
X369957Y95925D01*
X370220Y95680D01*
X370476Y95428D01*
X370727Y95171D01*
X370971Y94907D01*
X371209Y94637D01*
X371439Y94362D01*
X371664Y94081D01*
X371881Y93795D01*
X372091Y93503D01*
X372294Y93207D01*
X372490Y92906D01*
X372679Y92600D01*
X372860Y92289D01*
X373033Y91975D01*
X373199Y91656D01*
X373357Y91333D01*
X373507Y91006D01*
X373649Y90676D01*
X373783Y90343D01*
X373908Y90006D01*
X374026Y89667D01*
X374135Y89324D01*
X374236Y88979D01*
X374329Y88632D01*
X374413Y88283D01*
X374488Y87931D01*
X374555Y87578D01*
X374614Y87224D01*
X374664Y86868D01*
X374705Y86511D01*
X374737Y86153D01*
X374761Y85794D01*
X374776Y85435D01*
X374782Y85076D01*
X374639Y85076D01*
X374633Y85432D01*
X374618Y85787D01*
X374594Y86142D01*
X374562Y86497D01*
X374522Y86850D01*
X374472Y87203D01*
X374415Y87554D01*
X374348Y87903D01*
X374273Y88251D01*
X374190Y88597D01*
X374098Y88941D01*
X373999Y89283D01*
X373890Y89622D01*
X373774Y89958D01*
X373649Y90291D01*
X373517Y90621D01*
X373376Y90948D01*
X373227Y91272D01*
X373071Y91591D01*
X372907Y91907D01*
X372735Y92219D01*
X372556Y92526D01*
X372370Y92829D01*
X372176Y93127D01*
X371974Y93421D01*
X371766Y93710D01*
X371551Y93993D01*
X371329Y94271D01*
X371100Y94544D01*
X370865Y94811D01*
X370623Y95072D01*
X370376Y95327D01*
X370121Y95576D01*
X369861Y95819D01*
X369596Y96056D01*
X369324Y96286D01*
X369047Y96509D01*
X369837Y72476D02*
X368994Y73559D01*
X368995Y73558D02*
X369270Y73780D01*
X369540Y74009D01*
X369804Y74244D01*
X370063Y74485D01*
X370316Y74733D01*
X370562Y74987D01*
X370802Y75247D01*
X371036Y75512D01*
X371263Y75783D01*
X371484Y76059D01*
X371698Y76341D01*
X371905Y76628D01*
X372105Y76920D01*
X372298Y77216D01*
X372483Y77518D01*
X372661Y77823D01*
X372832Y78133D01*
X372995Y78447D01*
X373151Y78765D01*
X373298Y79086D01*
X373438Y79411D01*
X373570Y79739D01*
X373694Y80071D01*
X373810Y80405D01*
X373917Y80742D01*
X374017Y81082D01*
X374108Y81423D01*
X374190Y81767D01*
X374265Y82113D01*
X374331Y82461D01*
X374388Y82810D01*
X374437Y83160D01*
X374478Y83512D01*
X374510Y83864D01*
X374533Y84217D01*
X374548Y84570D01*
X374554Y84924D01*
X375925Y84924D01*
X375926Y84924D01*
X375919Y84536D01*
X375903Y84149D01*
X375878Y83763D01*
X375843Y83377D01*
X375799Y82992D01*
X375745Y82608D01*
X375682Y82226D01*
X375610Y81845D01*
X375529Y81466D01*
X375438Y81089D01*
X375339Y80715D01*
X375230Y80343D01*
X375112Y79974D01*
X374985Y79608D01*
X374850Y79245D01*
X374705Y78885D01*
X374552Y78529D01*
X374390Y78177D01*
X374220Y77829D01*
X374042Y77485D01*
X373855Y77146D01*
X373659Y76811D01*
X373456Y76481D01*
X373245Y76156D01*
X373026Y75837D01*
X372799Y75523D01*
X372565Y75214D01*
X372323Y74911D01*
X372074Y74614D01*
X371818Y74324D01*
X371554Y74039D01*
X371284Y73762D01*
X371008Y73490D01*
X370724Y73226D01*
X370435Y72969D01*
X370139Y72718D01*
X369837Y72475D01*
X369749Y72588D01*
X370048Y72829D01*
X370341Y73077D01*
X370628Y73332D01*
X370909Y73594D01*
X371183Y73863D01*
X371451Y74138D01*
X371712Y74420D01*
X371966Y74708D01*
X372212Y75002D01*
X372452Y75302D01*
X372684Y75608D01*
X372909Y75919D01*
X373126Y76236D01*
X373335Y76558D01*
X373537Y76885D01*
X373730Y77216D01*
X373916Y77553D01*
X374093Y77893D01*
X374261Y78238D01*
X374422Y78587D01*
X374573Y78940D01*
X374716Y79296D01*
X374851Y79656D01*
X374976Y80019D01*
X375093Y80385D01*
X375201Y80753D01*
X375300Y81124D01*
X375389Y81498D01*
X375470Y81873D01*
X375542Y82250D01*
X375604Y82629D01*
X375657Y83009D01*
X375701Y83391D01*
X375735Y83773D01*
X375760Y84156D01*
X375776Y84540D01*
X375783Y84924D01*
X375640Y84924D01*
X375633Y84544D01*
X375618Y84163D01*
X375593Y83784D01*
X375558Y83405D01*
X375515Y83027D01*
X375462Y82650D01*
X375401Y82275D01*
X375330Y81901D01*
X375250Y81529D01*
X375161Y81159D01*
X375063Y80791D01*
X374956Y80426D01*
X374841Y80064D01*
X374716Y79704D01*
X374583Y79348D01*
X374441Y78995D01*
X374291Y78645D01*
X374132Y78300D01*
X373965Y77958D01*
X373789Y77620D01*
X373606Y77287D01*
X373414Y76958D01*
X373215Y76634D01*
X373007Y76316D01*
X372792Y76002D01*
X372570Y75693D01*
X372339Y75390D01*
X372102Y75093D01*
X371857Y74801D01*
X371606Y74516D01*
X371347Y74237D01*
X371082Y73964D01*
X370811Y73698D01*
X370532Y73438D01*
X370248Y73185D01*
X369958Y72940D01*
X369661Y72701D01*
X369574Y72814D01*
X369867Y73050D01*
X370155Y73294D01*
X370437Y73544D01*
X370712Y73801D01*
X370981Y74065D01*
X371244Y74336D01*
X371500Y74612D01*
X371749Y74895D01*
X371992Y75184D01*
X372227Y75478D01*
X372455Y75779D01*
X372675Y76084D01*
X372888Y76395D01*
X373094Y76711D01*
X373292Y77032D01*
X373482Y77358D01*
X373663Y77688D01*
X373837Y78022D01*
X374003Y78361D01*
X374160Y78703D01*
X374309Y79050D01*
X374450Y79399D01*
X374582Y79753D01*
X374705Y80109D01*
X374819Y80468D01*
X374925Y80830D01*
X375022Y81194D01*
X375110Y81560D01*
X375190Y81929D01*
X375260Y82299D01*
X375321Y82671D01*
X375373Y83044D01*
X375416Y83419D01*
X375450Y83794D01*
X375475Y84170D01*
X375490Y84547D01*
X375497Y84924D01*
X375354Y84924D01*
X375347Y84551D01*
X375332Y84177D01*
X375307Y83805D01*
X375274Y83433D01*
X375231Y83062D01*
X375180Y82692D01*
X375119Y82324D01*
X375049Y81957D01*
X374971Y81592D01*
X374884Y81229D01*
X374787Y80868D01*
X374683Y80509D01*
X374569Y80154D01*
X374447Y79801D01*
X374316Y79451D01*
X374177Y79104D01*
X374029Y78761D01*
X373874Y78422D01*
X373710Y78087D01*
X373537Y77755D01*
X373357Y77428D01*
X373169Y77106D01*
X372973Y76788D01*
X372770Y76475D01*
X372559Y76167D01*
X372340Y75864D01*
X372114Y75566D01*
X371881Y75275D01*
X371641Y74989D01*
X371394Y74708D01*
X371141Y74434D01*
X370880Y74167D01*
X370614Y73905D01*
X370341Y73650D01*
X370062Y73402D01*
X369777Y73161D01*
X369486Y72927D01*
X369398Y73040D01*
X369686Y73272D01*
X369968Y73511D01*
X370245Y73756D01*
X370515Y74009D01*
X370779Y74268D01*
X371037Y74533D01*
X371288Y74805D01*
X371533Y75082D01*
X371771Y75366D01*
X372002Y75655D01*
X372225Y75949D01*
X372442Y76249D01*
X372651Y76554D01*
X372852Y76864D01*
X373046Y77179D01*
X373233Y77499D01*
X373411Y77823D01*
X373582Y78151D01*
X373744Y78483D01*
X373899Y78820D01*
X374045Y79159D01*
X374183Y79503D01*
X374312Y79849D01*
X374433Y80199D01*
X374546Y80551D01*
X374650Y80906D01*
X374745Y81263D01*
X374831Y81623D01*
X374909Y81985D01*
X374978Y82348D01*
X375038Y82713D01*
X375089Y83079D01*
X375132Y83447D01*
X375165Y83815D01*
X375189Y84184D01*
X375204Y84554D01*
X375211Y84924D01*
X375068Y84924D01*
X375062Y84558D01*
X375046Y84192D01*
X375022Y83826D01*
X374989Y83461D01*
X374947Y83097D01*
X374897Y82734D01*
X374837Y82373D01*
X374769Y82013D01*
X374692Y81654D01*
X374606Y81298D01*
X374512Y80944D01*
X374409Y80593D01*
X374298Y80244D01*
X374178Y79897D01*
X374049Y79554D01*
X373913Y79214D01*
X373768Y78878D01*
X373615Y78545D01*
X373454Y78215D01*
X373285Y77890D01*
X373108Y77569D01*
X372924Y77253D01*
X372732Y76941D01*
X372532Y76634D01*
X372325Y76332D01*
X372111Y76034D01*
X371889Y75743D01*
X371660Y75456D01*
X371425Y75176D01*
X371183Y74901D01*
X370934Y74632D01*
X370678Y74369D01*
X370417Y74113D01*
X370149Y73863D01*
X369875Y73619D01*
X369596Y73382D01*
X369310Y73152D01*
X369222Y73265D01*
X369505Y73493D01*
X369782Y73728D01*
X370053Y73969D01*
X370318Y74216D01*
X370577Y74470D01*
X370830Y74731D01*
X371077Y74997D01*
X371317Y75269D01*
X371550Y75547D01*
X371776Y75831D01*
X371996Y76120D01*
X372208Y76414D01*
X372413Y76713D01*
X372611Y77018D01*
X372801Y77327D01*
X372984Y77640D01*
X373159Y77958D01*
X373327Y78280D01*
X373486Y78606D01*
X373637Y78936D01*
X373781Y79269D01*
X373916Y79606D01*
X374043Y79946D01*
X374162Y80288D01*
X374272Y80634D01*
X374374Y80982D01*
X374468Y81333D01*
X374552Y81686D01*
X374629Y82041D01*
X374696Y82397D01*
X374755Y82755D01*
X374805Y83115D01*
X374847Y83475D01*
X374880Y83836D01*
X374903Y84199D01*
X374919Y84561D01*
X374925Y84924D01*
X374782Y84924D01*
X374776Y84565D01*
X374761Y84206D01*
X374737Y83847D01*
X374705Y83489D01*
X374664Y83132D01*
X374614Y82776D01*
X374555Y82422D01*
X374488Y82069D01*
X374413Y81717D01*
X374329Y81368D01*
X374236Y81021D01*
X374135Y80676D01*
X374026Y80333D01*
X373908Y79994D01*
X373783Y79657D01*
X373649Y79324D01*
X373507Y78994D01*
X373357Y78667D01*
X373199Y78344D01*
X373033Y78025D01*
X372860Y77711D01*
X372679Y77400D01*
X372490Y77094D01*
X372294Y76793D01*
X372091Y76497D01*
X371881Y76205D01*
X371664Y75919D01*
X371439Y75638D01*
X371209Y75363D01*
X370971Y75093D01*
X370727Y74829D01*
X370476Y74572D01*
X370220Y74320D01*
X369957Y74075D01*
X369689Y73836D01*
X369415Y73604D01*
X369135Y73378D01*
X369047Y73491D01*
X369324Y73714D01*
X369596Y73944D01*
X369861Y74181D01*
X370121Y74424D01*
X370376Y74673D01*
X370623Y74928D01*
X370865Y75189D01*
X371100Y75456D01*
X371329Y75729D01*
X371551Y76007D01*
X371766Y76290D01*
X371974Y76579D01*
X372176Y76873D01*
X372370Y77171D01*
X372556Y77474D01*
X372735Y77781D01*
X372907Y78093D01*
X373071Y78409D01*
X373227Y78728D01*
X373376Y79052D01*
X373517Y79379D01*
X373649Y79709D01*
X373774Y80042D01*
X373890Y80378D01*
X373999Y80717D01*
X374098Y81059D01*
X374190Y81403D01*
X374273Y81749D01*
X374348Y82097D01*
X374415Y82446D01*
X374472Y82797D01*
X374522Y83150D01*
X374562Y83503D01*
X374594Y83858D01*
X374618Y84213D01*
X374633Y84568D01*
X374639Y84924D01*
D16*
X346162Y101406D02*
X347626Y99650D01*
X347625Y99650D02*
X347278Y99349D01*
X346938Y99040D01*
X346605Y98723D01*
X346280Y98398D01*
X345963Y98066D01*
X345654Y97726D01*
X345353Y97378D01*
X345060Y97024D01*
X344777Y96662D01*
X344502Y96294D01*
X344235Y95919D01*
X343978Y95538D01*
X343730Y95151D01*
X343492Y94759D01*
X343263Y94360D01*
X343043Y93956D01*
X342833Y93548D01*
X342633Y93134D01*
X342443Y92715D01*
X342264Y92292D01*
X342094Y91865D01*
X341935Y91434D01*
X341786Y90999D01*
X341647Y90561D01*
X341519Y90120D01*
X341402Y89675D01*
X341295Y89228D01*
X341199Y88779D01*
X341114Y88327D01*
X341040Y87874D01*
X340976Y87418D01*
X340924Y86962D01*
X340882Y86504D01*
X340852Y86046D01*
X340832Y85586D01*
X340823Y85127D01*
X338538Y85126D01*
X338537Y85127D01*
X338547Y85642D01*
X338568Y86157D01*
X338602Y86671D01*
X338648Y87184D01*
X338707Y87696D01*
X338778Y88206D01*
X338861Y88715D01*
X338956Y89221D01*
X339064Y89725D01*
X339183Y90226D01*
X339314Y90724D01*
X339458Y91219D01*
X339613Y91710D01*
X339780Y92198D01*
X339959Y92681D01*
X340149Y93160D01*
X340350Y93634D01*
X340563Y94103D01*
X340787Y94567D01*
X341022Y95026D01*
X341269Y95478D01*
X341525Y95925D01*
X341793Y96365D01*
X342071Y96799D01*
X342359Y97226D01*
X342658Y97646D01*
X342967Y98058D01*
X343285Y98464D01*
X343613Y98861D01*
X343950Y99250D01*
X344297Y99631D01*
X344653Y100004D01*
X345017Y100368D01*
X345390Y100723D01*
X345772Y101069D01*
X346162Y101406D01*
X346316Y101222D01*
X345930Y100889D01*
X345553Y100547D01*
X345184Y100195D01*
X344824Y99835D01*
X344472Y99467D01*
X344129Y99090D01*
X343796Y98705D01*
X343471Y98312D01*
X343157Y97912D01*
X342852Y97504D01*
X342556Y97089D01*
X342271Y96667D01*
X341996Y96238D01*
X341732Y95802D01*
X341478Y95361D01*
X341235Y94913D01*
X341002Y94460D01*
X340781Y94002D01*
X340570Y93538D01*
X340371Y93069D01*
X340183Y92595D01*
X340006Y92118D01*
X339841Y91636D01*
X339688Y91150D01*
X339546Y90661D01*
X339416Y90168D01*
X339298Y89673D01*
X339192Y89175D01*
X339097Y88674D01*
X339015Y88171D01*
X338945Y87667D01*
X338887Y87161D01*
X338842Y86653D01*
X338808Y86145D01*
X338787Y85636D01*
X338777Y85127D01*
X339017Y85127D01*
X339026Y85630D01*
X339048Y86133D01*
X339081Y86636D01*
X339126Y87137D01*
X339183Y87638D01*
X339253Y88136D01*
X339334Y88633D01*
X339427Y89128D01*
X339532Y89621D01*
X339649Y90110D01*
X339777Y90597D01*
X339917Y91081D01*
X340069Y91561D01*
X340232Y92037D01*
X340407Y92510D01*
X340593Y92978D01*
X340790Y93441D01*
X340998Y93900D01*
X341217Y94353D01*
X341447Y94801D01*
X341687Y95244D01*
X341938Y95680D01*
X342200Y96110D01*
X342472Y96534D01*
X342753Y96952D01*
X343045Y97362D01*
X343347Y97765D01*
X343658Y98161D01*
X343978Y98550D01*
X344308Y98930D01*
X344647Y99303D01*
X344994Y99667D01*
X345351Y100023D01*
X345715Y100370D01*
X346088Y100708D01*
X346469Y101038D01*
X346623Y100853D01*
X346246Y100528D01*
X345878Y100193D01*
X345517Y99850D01*
X345165Y99498D01*
X344822Y99138D01*
X344487Y98770D01*
X344161Y98394D01*
X343844Y98010D01*
X343537Y97619D01*
X343239Y97220D01*
X342950Y96814D01*
X342672Y96402D01*
X342403Y95983D01*
X342145Y95558D01*
X341897Y95126D01*
X341659Y94689D01*
X341432Y94246D01*
X341215Y93798D01*
X341010Y93345D01*
X340815Y92887D01*
X340631Y92424D01*
X340459Y91957D01*
X340297Y91486D01*
X340147Y91012D01*
X340009Y90534D01*
X339882Y90053D01*
X339766Y89569D01*
X339663Y89082D01*
X339570Y88593D01*
X339490Y88101D01*
X339422Y87609D01*
X339365Y87114D01*
X339320Y86618D01*
X339287Y86122D01*
X339266Y85624D01*
X339257Y85127D01*
X339497Y85127D01*
X339506Y85619D01*
X339527Y86110D01*
X339560Y86601D01*
X339604Y87091D01*
X339660Y87579D01*
X339728Y88067D01*
X339807Y88552D01*
X339898Y89035D01*
X340001Y89516D01*
X340115Y89995D01*
X340240Y90470D01*
X340377Y90943D01*
X340525Y91412D01*
X340685Y91877D01*
X340855Y92338D01*
X341037Y92796D01*
X341229Y93248D01*
X341433Y93696D01*
X341646Y94139D01*
X341871Y94577D01*
X342106Y95009D01*
X342351Y95435D01*
X342607Y95855D01*
X342872Y96270D01*
X343147Y96677D01*
X343432Y97078D01*
X343727Y97472D01*
X344031Y97859D01*
X344344Y98238D01*
X344666Y98610D01*
X344997Y98974D01*
X345336Y99330D01*
X345684Y99677D01*
X346040Y100017D01*
X346404Y100347D01*
X346777Y100669D01*
X346930Y100484D01*
X346563Y100167D01*
X346203Y99840D01*
X345851Y99505D01*
X345507Y99161D01*
X345171Y98810D01*
X344845Y98450D01*
X344526Y98083D01*
X344217Y97708D01*
X343917Y97325D01*
X343626Y96936D01*
X343344Y96540D01*
X343072Y96137D01*
X342810Y95728D01*
X342558Y95313D01*
X342315Y94891D01*
X342083Y94464D01*
X341861Y94032D01*
X341650Y93594D01*
X341449Y93152D01*
X341259Y92704D01*
X341079Y92253D01*
X340911Y91797D01*
X340753Y91337D01*
X340607Y90874D01*
X340472Y90407D01*
X340348Y89937D01*
X340235Y89464D01*
X340133Y88989D01*
X340044Y88511D01*
X339965Y88032D01*
X339898Y87550D01*
X339843Y87067D01*
X339799Y86583D01*
X339767Y86098D01*
X339746Y85613D01*
X339737Y85127D01*
X339977Y85127D01*
X339986Y85607D01*
X340007Y86087D01*
X340038Y86566D01*
X340082Y87044D01*
X340136Y87521D01*
X340203Y87997D01*
X340280Y88471D01*
X340369Y88942D01*
X340469Y89412D01*
X340581Y89879D01*
X340703Y90343D01*
X340837Y90805D01*
X340982Y91262D01*
X341137Y91717D01*
X341304Y92167D01*
X341481Y92613D01*
X341669Y93055D01*
X341867Y93493D01*
X342076Y93925D01*
X342295Y94352D01*
X342525Y94774D01*
X342764Y95190D01*
X343013Y95601D01*
X343272Y96005D01*
X343541Y96403D01*
X343819Y96794D01*
X344107Y97179D01*
X344403Y97557D01*
X344709Y97927D01*
X345023Y98290D01*
X345346Y98645D01*
X345678Y98993D01*
X346017Y99332D01*
X346365Y99663D01*
X346721Y99986D01*
X347084Y100300D01*
X347237Y100116D01*
X346879Y99805D01*
X346528Y99487D01*
X346184Y99159D01*
X345849Y98824D01*
X345521Y98481D01*
X345202Y98130D01*
X344892Y97771D01*
X344590Y97405D01*
X344297Y97032D01*
X344013Y96652D01*
X343738Y96266D01*
X343473Y95873D01*
X343217Y95473D01*
X342970Y95068D01*
X342734Y94657D01*
X342507Y94240D01*
X342291Y93818D01*
X342085Y93391D01*
X341889Y92959D01*
X341703Y92522D01*
X341528Y92081D01*
X341363Y91637D01*
X341210Y91188D01*
X341067Y90736D01*
X340935Y90280D01*
X340813Y89821D01*
X340703Y89360D01*
X340604Y88896D01*
X340517Y88430D01*
X340440Y87962D01*
X340375Y87492D01*
X340320Y87021D01*
X340278Y86548D01*
X340246Y86075D01*
X340226Y85601D01*
X340217Y85127D01*
X340457Y85127D01*
X340466Y85595D01*
X340486Y86063D01*
X340517Y86531D01*
X340559Y86997D01*
X340613Y87463D01*
X340677Y87927D01*
X340753Y88389D01*
X340840Y88850D01*
X340938Y89308D01*
X341046Y89764D01*
X341166Y90216D01*
X341297Y90666D01*
X341438Y91113D01*
X341590Y91556D01*
X341752Y91996D01*
X341925Y92431D01*
X342108Y92862D01*
X342302Y93289D01*
X342506Y93711D01*
X342720Y94128D01*
X342943Y94539D01*
X343177Y94945D01*
X343420Y95346D01*
X343673Y95740D01*
X343935Y96129D01*
X344206Y96510D01*
X344487Y96886D01*
X344776Y97254D01*
X345074Y97616D01*
X345381Y97970D01*
X345696Y98316D01*
X346019Y98656D01*
X346351Y98987D01*
X346690Y99310D01*
X347037Y99625D01*
X347391Y99931D01*
X347545Y99747D01*
X347195Y99444D01*
X346852Y99133D01*
X346517Y98814D01*
X346190Y98487D01*
X345871Y98152D01*
X345560Y97810D01*
X345257Y97460D01*
X344963Y97103D01*
X344677Y96739D01*
X344400Y96369D01*
X344132Y95991D01*
X343873Y95608D01*
X343623Y95218D01*
X343383Y94823D01*
X343153Y94422D01*
X342932Y94015D01*
X342721Y93604D01*
X342519Y93187D01*
X342328Y92766D01*
X342147Y92340D01*
X341976Y91910D01*
X341816Y91476D01*
X341666Y91038D01*
X341526Y90597D01*
X341398Y90153D01*
X341279Y89706D01*
X341172Y89256D01*
X341075Y88803D01*
X340990Y88349D01*
X340915Y87892D01*
X340851Y87434D01*
X340798Y86974D01*
X340756Y86513D01*
X340726Y86052D01*
X340706Y85589D01*
X340697Y85127D01*
X338538Y84874D02*
X340824Y84874D01*
X340823Y84873D02*
X340832Y84408D01*
X340852Y83943D01*
X340883Y83479D01*
X340926Y83016D01*
X340980Y82554D01*
X341045Y82093D01*
X341121Y81634D01*
X341208Y81177D01*
X341306Y80722D01*
X341416Y80270D01*
X341536Y79820D01*
X341667Y79374D01*
X341809Y78931D01*
X341962Y78491D01*
X342125Y78056D01*
X342299Y77624D01*
X342483Y77197D01*
X342677Y76774D01*
X342882Y76356D01*
X343097Y75943D01*
X343322Y75536D01*
X343556Y75134D01*
X343800Y74738D01*
X344054Y74348D01*
X344317Y73964D01*
X344590Y73587D01*
X344871Y73217D01*
X345161Y72853D01*
X345460Y72497D01*
X345768Y72148D01*
X346084Y71806D01*
X346408Y71472D01*
X346741Y71147D01*
X347081Y70829D01*
X347428Y70520D01*
X347783Y70219D01*
X348145Y69927D01*
X348515Y69644D01*
X348891Y69370D01*
X349273Y69105D01*
X349662Y68849D01*
X350057Y68603D01*
X350458Y68367D01*
X350864Y68140D01*
X349789Y66123D01*
X349788Y66123D01*
X349333Y66377D01*
X348883Y66641D01*
X348441Y66917D01*
X348005Y67203D01*
X347576Y67500D01*
X347154Y67806D01*
X346740Y68124D01*
X346334Y68451D01*
X345936Y68788D01*
X345547Y69134D01*
X345165Y69490D01*
X344793Y69855D01*
X344430Y70229D01*
X344075Y70611D01*
X343730Y71002D01*
X343395Y71402D01*
X343070Y71809D01*
X342754Y72224D01*
X342449Y72647D01*
X342154Y73077D01*
X341870Y73514D01*
X341596Y73958D01*
X341333Y74408D01*
X341081Y74865D01*
X340841Y75327D01*
X340611Y75796D01*
X340393Y76269D01*
X340187Y76748D01*
X339992Y77232D01*
X339810Y77720D01*
X339639Y78213D01*
X339480Y78710D01*
X339333Y79210D01*
X339198Y79714D01*
X339076Y80221D01*
X338966Y80730D01*
X338869Y81243D01*
X338784Y81757D01*
X338711Y82274D01*
X338651Y82791D01*
X338604Y83311D01*
X338569Y83831D01*
X338547Y84352D01*
X338537Y84873D01*
X338777Y84873D01*
X338787Y84358D01*
X338809Y83843D01*
X338843Y83328D01*
X338890Y82815D01*
X338949Y82303D01*
X339021Y81792D01*
X339105Y81284D01*
X339202Y80777D01*
X339310Y80273D01*
X339431Y79772D01*
X339564Y79274D01*
X339709Y78779D01*
X339867Y78288D01*
X340036Y77801D01*
X340216Y77319D01*
X340409Y76840D01*
X340613Y76367D01*
X340828Y75898D01*
X341055Y75435D01*
X341293Y74978D01*
X341542Y74527D01*
X341802Y74081D01*
X342072Y73643D01*
X342353Y73210D01*
X342645Y72785D01*
X342947Y72367D01*
X343259Y71957D01*
X343581Y71554D01*
X343912Y71159D01*
X344253Y70773D01*
X344603Y70394D01*
X344963Y70025D01*
X345331Y69664D01*
X345708Y69312D01*
X346093Y68969D01*
X346487Y68636D01*
X346888Y68313D01*
X347297Y67999D01*
X347714Y67696D01*
X348138Y67403D01*
X348569Y67120D01*
X349007Y66847D01*
X349451Y66586D01*
X349901Y66335D01*
X350014Y66546D01*
X349569Y66794D01*
X349130Y67053D01*
X348697Y67322D01*
X348271Y67602D01*
X347852Y67892D01*
X347440Y68192D01*
X347036Y68502D01*
X346639Y68822D01*
X346250Y69151D01*
X345869Y69490D01*
X345496Y69838D01*
X345132Y70194D01*
X344777Y70560D01*
X344431Y70934D01*
X344094Y71316D01*
X343766Y71706D01*
X343448Y72105D01*
X343140Y72510D01*
X342841Y72924D01*
X342553Y73344D01*
X342275Y73771D01*
X342007Y74205D01*
X341751Y74645D01*
X341504Y75091D01*
X341269Y75543D01*
X341045Y76001D01*
X340832Y76464D01*
X340630Y76932D01*
X340440Y77405D01*
X340261Y77882D01*
X340094Y78364D01*
X339939Y78849D01*
X339796Y79338D01*
X339664Y79831D01*
X339544Y80326D01*
X339437Y80824D01*
X339342Y81325D01*
X339258Y81828D01*
X339187Y82332D01*
X339129Y82839D01*
X339082Y83346D01*
X339048Y83855D01*
X339027Y84364D01*
X339017Y84873D01*
X339257Y84873D01*
X339267Y84370D01*
X339288Y83866D01*
X339322Y83364D01*
X339368Y82862D01*
X339426Y82362D01*
X339496Y81863D01*
X339578Y81366D01*
X339672Y80871D01*
X339779Y80379D01*
X339897Y79889D01*
X340027Y79402D01*
X340169Y78919D01*
X340322Y78439D01*
X340487Y77963D01*
X340664Y77491D01*
X340852Y77024D01*
X341051Y76562D01*
X341262Y76104D01*
X341484Y75651D01*
X341716Y75205D01*
X341959Y74763D01*
X342213Y74328D01*
X342478Y73900D01*
X342752Y73477D01*
X343037Y73062D01*
X343332Y72654D01*
X343637Y72252D01*
X343951Y71859D01*
X344275Y71473D01*
X344608Y71095D01*
X344951Y70725D01*
X345302Y70364D01*
X345662Y70012D01*
X346030Y69668D01*
X346406Y69333D01*
X346791Y69008D01*
X347183Y68692D01*
X347583Y68385D01*
X347990Y68089D01*
X348404Y67802D01*
X348825Y67525D01*
X349253Y67259D01*
X349687Y67003D01*
X350127Y66758D01*
X350240Y66970D01*
X349805Y67212D01*
X349376Y67465D01*
X348954Y67728D01*
X348537Y68002D01*
X348128Y68285D01*
X347726Y68578D01*
X347331Y68881D01*
X346943Y69193D01*
X346563Y69515D01*
X346191Y69846D01*
X345827Y70186D01*
X345471Y70534D01*
X345124Y70891D01*
X344786Y71256D01*
X344457Y71630D01*
X344137Y72011D01*
X343826Y72400D01*
X343525Y72797D01*
X343234Y73200D01*
X342952Y73611D01*
X342680Y74028D01*
X342419Y74452D01*
X342168Y74882D01*
X341928Y75318D01*
X341698Y75759D01*
X341479Y76207D01*
X341271Y76659D01*
X341074Y77116D01*
X340888Y77578D01*
X340713Y78044D01*
X340550Y78514D01*
X340398Y78989D01*
X340258Y79466D01*
X340130Y79947D01*
X340013Y80431D01*
X339908Y80918D01*
X339814Y81407D01*
X339733Y81898D01*
X339664Y82391D01*
X339606Y82886D01*
X339561Y83381D01*
X339528Y83878D01*
X339507Y84376D01*
X339497Y84873D01*
X339737Y84873D01*
X339746Y84382D01*
X339767Y83890D01*
X339800Y83399D01*
X339845Y82909D01*
X339902Y82421D01*
X339971Y81933D01*
X340051Y81448D01*
X340143Y80965D01*
X340247Y80484D01*
X340362Y80006D01*
X340489Y79530D01*
X340628Y79058D01*
X340778Y78590D01*
X340939Y78125D01*
X341112Y77664D01*
X341296Y77208D01*
X341490Y76756D01*
X341696Y76309D01*
X341912Y75867D01*
X342139Y75431D01*
X342377Y75000D01*
X342625Y74575D01*
X342883Y74157D01*
X343151Y73744D01*
X343430Y73339D01*
X343718Y72940D01*
X344015Y72548D01*
X344322Y72164D01*
X344639Y71787D01*
X344964Y71418D01*
X345298Y71057D01*
X345641Y70704D01*
X345992Y70359D01*
X346352Y70024D01*
X346720Y69697D01*
X347095Y69379D01*
X347478Y69070D01*
X347868Y68771D01*
X348266Y68481D01*
X348671Y68201D01*
X349082Y67931D01*
X349499Y67671D01*
X349923Y67421D01*
X350353Y67182D01*
X350466Y67394D01*
X350041Y67630D01*
X349623Y67877D01*
X349210Y68134D01*
X348804Y68401D01*
X348404Y68678D01*
X348011Y68964D01*
X347626Y69260D01*
X347247Y69565D01*
X346876Y69879D01*
X346513Y70202D01*
X346158Y70533D01*
X345811Y70874D01*
X345472Y71222D01*
X345142Y71579D01*
X344820Y71944D01*
X344508Y72316D01*
X344204Y72696D01*
X343910Y73083D01*
X343626Y73477D01*
X343351Y73878D01*
X343086Y74285D01*
X342831Y74699D01*
X342586Y75119D01*
X342351Y75544D01*
X342127Y75975D01*
X341913Y76412D01*
X341710Y76854D01*
X341517Y77300D01*
X341336Y77751D01*
X341165Y78206D01*
X341006Y78665D01*
X340858Y79128D01*
X340721Y79594D01*
X340595Y80064D01*
X340481Y80537D01*
X340378Y81012D01*
X340287Y81489D01*
X340208Y81969D01*
X340140Y82450D01*
X340084Y82933D01*
X340040Y83417D01*
X340007Y83902D01*
X339986Y84387D01*
X339977Y84873D01*
X340217Y84873D01*
X340226Y84393D01*
X340247Y83914D01*
X340279Y83435D01*
X340323Y82956D01*
X340378Y82479D01*
X340445Y82004D01*
X340524Y81530D01*
X340614Y81059D01*
X340715Y80589D01*
X340828Y80122D01*
X340952Y79659D01*
X341087Y79198D01*
X341234Y78741D01*
X341391Y78287D01*
X341560Y77837D01*
X341739Y77392D01*
X341929Y76951D01*
X342130Y76515D01*
X342341Y76083D01*
X342563Y75657D01*
X342794Y75237D01*
X343036Y74822D01*
X343289Y74414D01*
X343550Y74011D01*
X343822Y73615D01*
X344103Y73226D01*
X344394Y72843D01*
X344693Y72468D01*
X345002Y72100D01*
X345319Y71740D01*
X345646Y71388D01*
X345980Y71044D01*
X346323Y70707D01*
X346674Y70380D01*
X347033Y70061D01*
X347399Y69750D01*
X347773Y69449D01*
X348154Y69157D01*
X348542Y68874D01*
X348937Y68601D01*
X349338Y68337D01*
X349746Y68083D01*
X350159Y67839D01*
X350579Y67605D01*
X350692Y67817D01*
X350278Y68048D01*
X349869Y68289D01*
X349466Y68540D01*
X349070Y68800D01*
X348680Y69070D01*
X348297Y69350D01*
X347921Y69638D01*
X347551Y69936D01*
X347189Y70242D01*
X346835Y70558D01*
X346488Y70881D01*
X346150Y71213D01*
X345819Y71554D01*
X345497Y71902D01*
X345183Y72257D01*
X344879Y72621D01*
X344583Y72991D01*
X344296Y73369D01*
X344018Y73753D01*
X343750Y74145D01*
X343491Y74542D01*
X343242Y74946D01*
X343003Y75355D01*
X342774Y75771D01*
X342555Y76191D01*
X342347Y76617D01*
X342148Y77048D01*
X341961Y77484D01*
X341783Y77924D01*
X341617Y78368D01*
X341462Y78816D01*
X341317Y79268D01*
X341183Y79723D01*
X341061Y80181D01*
X340949Y80642D01*
X340849Y81105D01*
X340760Y81571D01*
X340683Y82039D01*
X340617Y82509D01*
X340562Y82980D01*
X340518Y83452D01*
X340487Y83925D01*
X340466Y84399D01*
X340457Y84873D01*
X340697Y84873D01*
X340706Y84405D01*
X340726Y83937D01*
X340758Y83470D01*
X340801Y83003D01*
X340855Y82538D01*
X340920Y82074D01*
X340997Y81612D01*
X341085Y81152D01*
X341184Y80694D01*
X341294Y80239D01*
X341415Y79787D01*
X341547Y79337D01*
X341689Y78891D01*
X341843Y78449D01*
X342007Y78010D01*
X342182Y77576D01*
X342368Y77146D01*
X342563Y76720D01*
X342770Y76299D01*
X342986Y75884D01*
X343212Y75474D01*
X343448Y75069D01*
X343694Y74671D01*
X343949Y74278D01*
X344214Y73892D01*
X344488Y73512D01*
X344772Y73139D01*
X345064Y72773D01*
X345365Y72414D01*
X345675Y72063D01*
X345993Y71719D01*
X346319Y71383D01*
X346654Y71055D01*
X346996Y70736D01*
X347346Y70424D01*
X347703Y70121D01*
X348068Y69828D01*
X348440Y69542D01*
X348818Y69267D01*
X349203Y69000D01*
X349595Y68743D01*
X349992Y68495D01*
X350396Y68257D01*
X350805Y68029D01*
X381462Y85126D02*
X379176Y85126D01*
X379177Y85127D02*
X379168Y85595D01*
X379147Y86063D01*
X379116Y86531D01*
X379073Y86998D01*
X379018Y87463D01*
X378952Y87927D01*
X378875Y88389D01*
X378787Y88849D01*
X378687Y89307D01*
X378576Y89763D01*
X378454Y90215D01*
X378321Y90664D01*
X378177Y91110D01*
X378023Y91553D01*
X377857Y91991D01*
X377681Y92425D01*
X377494Y92855D01*
X377297Y93280D01*
X377090Y93700D01*
X376872Y94115D01*
X376644Y94525D01*
X376407Y94929D01*
X376159Y95327D01*
X375902Y95718D01*
X375635Y96104D01*
X375359Y96483D01*
X375074Y96854D01*
X374780Y97219D01*
X374477Y97577D01*
X374165Y97927D01*
X373845Y98269D01*
X373517Y98603D01*
X373181Y98929D01*
X372836Y99247D01*
X372484Y99557D01*
X373961Y101301D01*
X373961Y101302D01*
X374356Y100955D01*
X374742Y100599D01*
X375119Y100234D01*
X375488Y99859D01*
X375847Y99476D01*
X376196Y99083D01*
X376536Y98683D01*
X376866Y98274D01*
X377186Y97857D01*
X377495Y97433D01*
X377794Y97001D01*
X378083Y96562D01*
X378360Y96116D01*
X378627Y95663D01*
X378882Y95204D01*
X379126Y94739D01*
X379359Y94268D01*
X379580Y93791D01*
X379789Y93309D01*
X379987Y92822D01*
X380172Y92331D01*
X380346Y91835D01*
X380507Y91335D01*
X380656Y90831D01*
X380792Y90324D01*
X380916Y89813D01*
X381028Y89300D01*
X381127Y88784D01*
X381213Y88266D01*
X381287Y87746D01*
X381347Y87224D01*
X381395Y86701D01*
X381431Y86177D01*
X381453Y85652D01*
X381463Y85127D01*
X381223Y85127D01*
X381213Y85646D01*
X381191Y86165D01*
X381156Y86683D01*
X381109Y87200D01*
X381048Y87716D01*
X380976Y88230D01*
X380890Y88743D01*
X380793Y89253D01*
X380682Y89760D01*
X380560Y90265D01*
X380425Y90767D01*
X380277Y91265D01*
X380118Y91759D01*
X379947Y92249D01*
X379763Y92735D01*
X379568Y93216D01*
X379361Y93693D01*
X379143Y94164D01*
X378913Y94630D01*
X378671Y95090D01*
X378419Y95543D01*
X378155Y95991D01*
X377881Y96432D01*
X377596Y96866D01*
X377300Y97293D01*
X376994Y97713D01*
X376678Y98125D01*
X376352Y98529D01*
X376016Y98925D01*
X375670Y99313D01*
X375315Y99692D01*
X374951Y100062D01*
X374578Y100424D01*
X374196Y100776D01*
X373806Y101119D01*
X373651Y100935D01*
X374037Y100597D01*
X374414Y100249D01*
X374783Y99891D01*
X375143Y99525D01*
X375494Y99150D01*
X375835Y98767D01*
X376167Y98375D01*
X376490Y97976D01*
X376802Y97569D01*
X377105Y97154D01*
X377397Y96732D01*
X377679Y96302D01*
X377950Y95866D01*
X378211Y95424D01*
X378460Y94975D01*
X378699Y94521D01*
X378926Y94060D01*
X379142Y93595D01*
X379347Y93124D01*
X379540Y92648D01*
X379721Y92167D01*
X379890Y91683D01*
X380048Y91194D01*
X380193Y90702D01*
X380327Y90206D01*
X380448Y89707D01*
X380557Y89205D01*
X380654Y88701D01*
X380738Y88195D01*
X380810Y87686D01*
X380870Y87176D01*
X380917Y86665D01*
X380951Y86153D01*
X380973Y85640D01*
X380983Y85127D01*
X380743Y85127D01*
X380733Y85634D01*
X380712Y86141D01*
X380677Y86647D01*
X380631Y87153D01*
X380572Y87657D01*
X380501Y88159D01*
X380418Y88660D01*
X380322Y89158D01*
X380214Y89654D01*
X380094Y90147D01*
X379962Y90637D01*
X379818Y91124D01*
X379663Y91607D01*
X379495Y92086D01*
X379316Y92561D01*
X379125Y93031D01*
X378923Y93496D01*
X378710Y93957D01*
X378485Y94412D01*
X378249Y94861D01*
X378002Y95305D01*
X377745Y95742D01*
X377477Y96173D01*
X377198Y96597D01*
X376910Y97014D01*
X376611Y97424D01*
X376302Y97827D01*
X375983Y98222D01*
X375655Y98609D01*
X375317Y98988D01*
X374970Y99358D01*
X374615Y99720D01*
X374250Y100073D01*
X373877Y100417D01*
X373496Y100752D01*
X373341Y100569D01*
X373718Y100238D01*
X374086Y99898D01*
X374446Y99549D01*
X374798Y99191D01*
X375141Y98825D01*
X375474Y98451D01*
X375799Y98068D01*
X376114Y97678D01*
X376419Y97280D01*
X376714Y96875D01*
X377000Y96462D01*
X377275Y96043D01*
X377540Y95617D01*
X377794Y95185D01*
X378038Y94747D01*
X378271Y94303D01*
X378493Y93853D01*
X378704Y93398D01*
X378904Y92938D01*
X379092Y92473D01*
X379270Y92004D01*
X379435Y91531D01*
X379589Y91053D01*
X379731Y90572D01*
X379862Y90088D01*
X379980Y89601D01*
X380087Y89111D01*
X380181Y88618D01*
X380264Y88124D01*
X380334Y87627D01*
X380392Y87129D01*
X380438Y86629D01*
X380472Y86129D01*
X380493Y85628D01*
X380503Y85127D01*
X380263Y85127D01*
X380253Y85622D01*
X380232Y86117D01*
X380199Y86612D01*
X380153Y87105D01*
X380096Y87597D01*
X380026Y88088D01*
X379945Y88577D01*
X379851Y89063D01*
X379746Y89548D01*
X379629Y90029D01*
X379500Y90508D01*
X379360Y90983D01*
X379207Y91455D01*
X379044Y91922D01*
X378869Y92386D01*
X378683Y92845D01*
X378485Y93300D01*
X378277Y93749D01*
X378057Y94194D01*
X377827Y94632D01*
X377586Y95066D01*
X377335Y95493D01*
X377073Y95913D01*
X376801Y96328D01*
X376519Y96735D01*
X376227Y97136D01*
X375925Y97529D01*
X375614Y97914D01*
X375294Y98292D01*
X374964Y98662D01*
X374626Y99024D01*
X374278Y99378D01*
X373922Y99723D01*
X373558Y100059D01*
X373186Y100386D01*
X373031Y100203D01*
X373399Y99879D01*
X373758Y99547D01*
X374110Y99207D01*
X374453Y98857D01*
X374788Y98500D01*
X375113Y98134D01*
X375430Y97761D01*
X375737Y97380D01*
X376035Y96991D01*
X376324Y96596D01*
X376602Y96193D01*
X376871Y95784D01*
X377130Y95368D01*
X377378Y94946D01*
X377616Y94518D01*
X377843Y94085D01*
X378060Y93646D01*
X378266Y93201D01*
X378461Y92752D01*
X378645Y92299D01*
X378818Y91841D01*
X378980Y91379D01*
X379130Y90913D01*
X379269Y90443D01*
X379396Y89970D01*
X379512Y89495D01*
X379616Y89016D01*
X379708Y88535D01*
X379789Y88052D01*
X379858Y87568D01*
X379915Y87081D01*
X379959Y86594D01*
X379992Y86105D01*
X380014Y85616D01*
X380023Y85127D01*
X379783Y85127D01*
X379774Y85610D01*
X379753Y86093D01*
X379720Y86576D01*
X379676Y87058D01*
X379620Y87538D01*
X379552Y88017D01*
X379472Y88494D01*
X379381Y88969D01*
X379278Y89441D01*
X379164Y89911D01*
X379038Y90378D01*
X378901Y90842D01*
X378752Y91302D01*
X378593Y91759D01*
X378422Y92211D01*
X378240Y92660D01*
X378047Y93103D01*
X377844Y93542D01*
X377630Y93976D01*
X377405Y94404D01*
X377170Y94827D01*
X376925Y95243D01*
X376669Y95654D01*
X376404Y96058D01*
X376128Y96456D01*
X375844Y96847D01*
X375549Y97231D01*
X375246Y97607D01*
X374933Y97976D01*
X374611Y98337D01*
X374281Y98690D01*
X373942Y99035D01*
X373595Y99372D01*
X373239Y99700D01*
X372876Y100019D01*
X372721Y99836D01*
X373080Y99521D01*
X373431Y99197D01*
X373774Y98864D01*
X374108Y98523D01*
X374435Y98175D01*
X374752Y97818D01*
X375061Y97453D01*
X375361Y97082D01*
X375652Y96703D01*
X375933Y96317D01*
X376205Y95924D01*
X376467Y95524D01*
X376719Y95119D01*
X376962Y94707D01*
X377194Y94290D01*
X377416Y93867D01*
X377627Y93438D01*
X377828Y93005D01*
X378019Y92567D01*
X378198Y92124D01*
X378367Y91677D01*
X378525Y91226D01*
X378671Y90772D01*
X378807Y90314D01*
X378931Y89852D01*
X379044Y89388D01*
X379146Y88921D01*
X379236Y88452D01*
X379314Y87981D01*
X379381Y87508D01*
X379437Y87034D01*
X379481Y86558D01*
X379513Y86081D01*
X379534Y85604D01*
X379543Y85127D01*
X379303Y85127D01*
X379294Y85598D01*
X379273Y86070D01*
X379241Y86540D01*
X379198Y87010D01*
X379143Y87479D01*
X379077Y87946D01*
X378999Y88411D01*
X378910Y88874D01*
X378810Y89335D01*
X378698Y89793D01*
X378576Y90249D01*
X378442Y90701D01*
X378297Y91150D01*
X378141Y91596D01*
X377975Y92037D01*
X377797Y92474D01*
X377609Y92907D01*
X377411Y93335D01*
X377202Y93758D01*
X376983Y94175D01*
X376754Y94588D01*
X376514Y94994D01*
X376265Y95395D01*
X376006Y95789D01*
X375738Y96177D01*
X375460Y96558D01*
X375173Y96933D01*
X374877Y97300D01*
X374572Y97660D01*
X374258Y98012D01*
X373936Y98357D01*
X373605Y98693D01*
X373267Y99021D01*
X372920Y99341D01*
X372566Y99653D01*
X370759Y66428D02*
X369624Y68413D01*
X369625Y68412D02*
X370023Y68650D01*
X370415Y68896D01*
X370800Y69153D01*
X371180Y69418D01*
X371553Y69692D01*
X371919Y69976D01*
X372278Y70268D01*
X372630Y70569D01*
X372975Y70878D01*
X373312Y71195D01*
X373642Y71521D01*
X373963Y71854D01*
X374277Y72195D01*
X374582Y72544D01*
X374878Y72899D01*
X375166Y73262D01*
X375445Y73632D01*
X375715Y74008D01*
X375976Y74391D01*
X376227Y74780D01*
X376469Y75174D01*
X376702Y75575D01*
X376924Y75981D01*
X377137Y76392D01*
X377340Y76809D01*
X377533Y77230D01*
X377715Y77655D01*
X377887Y78085D01*
X378049Y78519D01*
X378200Y78957D01*
X378341Y79398D01*
X378471Y79843D01*
X378590Y80290D01*
X378698Y80740D01*
X378796Y81193D01*
X378882Y81648D01*
X378957Y82105D01*
X379022Y82564D01*
X379075Y83024D01*
X379117Y83485D01*
X379148Y83947D01*
X379168Y84410D01*
X379177Y84873D01*
X381462Y84873D01*
X381463Y84873D01*
X381453Y84354D01*
X381431Y83835D01*
X381397Y83317D01*
X381350Y82800D01*
X381291Y82285D01*
X381219Y81771D01*
X381135Y81259D01*
X381038Y80749D01*
X380929Y80241D01*
X380808Y79737D01*
X380675Y79235D01*
X380529Y78737D01*
X380372Y78242D01*
X380202Y77752D01*
X380021Y77265D01*
X379828Y76783D01*
X379624Y76306D01*
X379408Y75835D01*
X379181Y75368D01*
X378942Y74907D01*
X378693Y74452D01*
X378432Y74003D01*
X378161Y73561D01*
X377879Y73125D01*
X377587Y72696D01*
X377284Y72274D01*
X376971Y71860D01*
X376649Y71454D01*
X376316Y71055D01*
X375974Y70664D01*
X375623Y70282D01*
X375263Y69909D01*
X374893Y69544D01*
X374515Y69189D01*
X374129Y68842D01*
X373734Y68505D01*
X373331Y68178D01*
X372921Y67861D01*
X372502Y67553D01*
X372077Y67256D01*
X371644Y66969D01*
X371205Y66693D01*
X370759Y66428D01*
X370640Y66636D01*
X371081Y66898D01*
X371515Y67172D01*
X371943Y67455D01*
X372364Y67749D01*
X372777Y68053D01*
X373183Y68367D01*
X373581Y68691D01*
X373972Y69024D01*
X374354Y69366D01*
X374727Y69718D01*
X375093Y70078D01*
X375449Y70447D01*
X375796Y70825D01*
X376134Y71211D01*
X376463Y71605D01*
X376782Y72007D01*
X377091Y72417D01*
X377390Y72834D01*
X377679Y73258D01*
X377958Y73689D01*
X378226Y74126D01*
X378484Y74570D01*
X378730Y75020D01*
X378966Y75475D01*
X379191Y75937D01*
X379404Y76403D01*
X379607Y76875D01*
X379797Y77351D01*
X379976Y77832D01*
X380144Y78317D01*
X380299Y78806D01*
X380443Y79299D01*
X380575Y79795D01*
X380695Y80294D01*
X380803Y80795D01*
X380898Y81300D01*
X380981Y81806D01*
X381052Y82314D01*
X381111Y82824D01*
X381158Y83335D01*
X381192Y83847D01*
X381213Y84360D01*
X381223Y84873D01*
X380983Y84873D01*
X380973Y84365D01*
X380952Y83859D01*
X380918Y83352D01*
X380872Y82847D01*
X380814Y82343D01*
X380744Y81841D01*
X380662Y81340D01*
X380567Y80842D01*
X380461Y80346D01*
X380342Y79853D01*
X380212Y79363D01*
X380070Y78876D01*
X379916Y78392D01*
X379750Y77913D01*
X379573Y77437D01*
X379385Y76967D01*
X379185Y76500D01*
X378974Y76039D01*
X378752Y75583D01*
X378519Y75132D01*
X378275Y74688D01*
X378020Y74249D01*
X377755Y73816D01*
X377479Y73391D01*
X377194Y72971D01*
X376898Y72559D01*
X376592Y72154D01*
X376277Y71757D01*
X375952Y71368D01*
X375618Y70986D01*
X375275Y70612D01*
X374922Y70247D01*
X374561Y69891D01*
X374192Y69543D01*
X373814Y69205D01*
X373428Y68876D01*
X373035Y68556D01*
X372633Y68245D01*
X372225Y67945D01*
X371809Y67654D01*
X371386Y67374D01*
X370957Y67104D01*
X370521Y66844D01*
X370402Y67053D01*
X370833Y67309D01*
X371257Y67576D01*
X371675Y67853D01*
X372086Y68141D01*
X372490Y68438D01*
X372886Y68744D01*
X373276Y69061D01*
X373657Y69386D01*
X374030Y69721D01*
X374395Y70064D01*
X374752Y70417D01*
X375100Y70777D01*
X375440Y71147D01*
X375770Y71524D01*
X376091Y71909D01*
X376403Y72302D01*
X376705Y72702D01*
X376997Y73109D01*
X377280Y73523D01*
X377552Y73944D01*
X377814Y74372D01*
X378066Y74806D01*
X378307Y75245D01*
X378537Y75691D01*
X378757Y76141D01*
X378965Y76597D01*
X379163Y77058D01*
X379349Y77524D01*
X379524Y77993D01*
X379688Y78467D01*
X379840Y78945D01*
X379980Y79426D01*
X380109Y79911D01*
X380226Y80399D01*
X380332Y80889D01*
X380425Y81381D01*
X380507Y81876D01*
X380576Y82373D01*
X380634Y82871D01*
X380679Y83370D01*
X380712Y83870D01*
X380733Y84371D01*
X380743Y84873D01*
X380503Y84873D01*
X380494Y84377D01*
X380473Y83882D01*
X380440Y83388D01*
X380395Y82894D01*
X380338Y82402D01*
X380269Y81911D01*
X380189Y81422D01*
X380096Y80935D01*
X379992Y80451D01*
X379876Y79969D01*
X379749Y79490D01*
X379610Y79015D01*
X379460Y78542D01*
X379298Y78074D01*
X379125Y77610D01*
X378941Y77150D01*
X378746Y76694D01*
X378540Y76244D01*
X378323Y75798D01*
X378095Y75358D01*
X377857Y74924D01*
X377608Y74495D01*
X377349Y74072D01*
X377080Y73656D01*
X376801Y73247D01*
X376512Y72844D01*
X376213Y72449D01*
X375905Y72061D01*
X375588Y71680D01*
X375261Y71307D01*
X374926Y70943D01*
X374582Y70586D01*
X374229Y70238D01*
X373869Y69898D01*
X373500Y69567D01*
X373123Y69246D01*
X372738Y68933D01*
X372346Y68630D01*
X371947Y68336D01*
X371541Y68053D01*
X371128Y67779D01*
X370709Y67515D01*
X370283Y67261D01*
X370164Y67469D01*
X370584Y67720D01*
X370999Y67981D01*
X371407Y68252D01*
X371808Y68532D01*
X372203Y68822D01*
X372590Y69122D01*
X372970Y69431D01*
X373342Y69749D01*
X373707Y70075D01*
X374063Y70411D01*
X374412Y70755D01*
X374752Y71108D01*
X375083Y71468D01*
X375406Y71836D01*
X375719Y72213D01*
X376024Y72596D01*
X376319Y72987D01*
X376604Y73385D01*
X376880Y73789D01*
X377146Y74200D01*
X377402Y74618D01*
X377648Y75041D01*
X377883Y75471D01*
X378108Y75906D01*
X378322Y76346D01*
X378526Y76791D01*
X378719Y77241D01*
X378901Y77696D01*
X379072Y78155D01*
X379232Y78617D01*
X379380Y79084D01*
X379518Y79554D01*
X379644Y80027D01*
X379758Y80503D01*
X379861Y80982D01*
X379952Y81463D01*
X380032Y81946D01*
X380100Y82431D01*
X380156Y82918D01*
X380200Y83405D01*
X380233Y83894D01*
X380254Y84383D01*
X380263Y84873D01*
X380023Y84873D01*
X380014Y84389D01*
X379993Y83906D01*
X379961Y83423D01*
X379917Y82941D01*
X379861Y82460D01*
X379794Y81981D01*
X379716Y81504D01*
X379625Y81029D01*
X379524Y80556D01*
X379411Y80085D01*
X379286Y79618D01*
X379151Y79153D01*
X379004Y78692D01*
X378846Y78235D01*
X378677Y77782D01*
X378497Y77333D01*
X378307Y76888D01*
X378105Y76448D01*
X377893Y76013D01*
X377671Y75584D01*
X377439Y75159D01*
X377196Y74741D01*
X376943Y74328D01*
X376680Y73922D01*
X376408Y73522D01*
X376126Y73129D01*
X375834Y72743D01*
X375533Y72364D01*
X375224Y71993D01*
X374905Y71629D01*
X374578Y71273D01*
X374242Y70924D01*
X373897Y70584D01*
X373545Y70253D01*
X373185Y69930D01*
X372817Y69616D01*
X372442Y69311D01*
X372059Y69015D01*
X371669Y68728D01*
X371273Y68451D01*
X370870Y68183D01*
X370460Y67926D01*
X370045Y67678D01*
X369926Y67886D01*
X370336Y68131D01*
X370741Y68386D01*
X371139Y68650D01*
X371530Y68924D01*
X371915Y69207D01*
X372293Y69499D01*
X372664Y69801D01*
X373028Y70111D01*
X373383Y70430D01*
X373731Y70758D01*
X374071Y71094D01*
X374403Y71438D01*
X374727Y71789D01*
X375041Y72149D01*
X375347Y72516D01*
X375645Y72891D01*
X375932Y73272D01*
X376211Y73660D01*
X376480Y74055D01*
X376740Y74456D01*
X376990Y74864D01*
X377229Y75277D01*
X377459Y75696D01*
X377679Y76121D01*
X377888Y76550D01*
X378087Y76985D01*
X378275Y77424D01*
X378453Y77868D01*
X378620Y78316D01*
X378776Y78767D01*
X378921Y79223D01*
X379055Y79682D01*
X379178Y80143D01*
X379290Y80608D01*
X379390Y81075D01*
X379479Y81545D01*
X379557Y82016D01*
X379623Y82490D01*
X379678Y82964D01*
X379722Y83440D01*
X379753Y83917D01*
X379774Y84395D01*
X379783Y84873D01*
X379543Y84873D01*
X379534Y84401D01*
X379514Y83929D01*
X379482Y83458D01*
X379439Y82988D01*
X379385Y82519D01*
X379319Y82051D01*
X379243Y81586D01*
X379155Y81122D01*
X379055Y80660D01*
X378945Y80202D01*
X378824Y79745D01*
X378691Y79292D01*
X378548Y78842D01*
X378394Y78396D01*
X378229Y77954D01*
X378054Y77516D01*
X377868Y77082D01*
X377671Y76653D01*
X377464Y76228D01*
X377247Y75809D01*
X377020Y75395D01*
X376784Y74987D01*
X376537Y74584D01*
X376280Y74188D01*
X376015Y73798D01*
X375739Y73414D01*
X375455Y73038D01*
X375162Y72668D01*
X374859Y72305D01*
X374548Y71950D01*
X374229Y71603D01*
X373901Y71263D01*
X373565Y70931D01*
X373222Y70608D01*
X372870Y70292D01*
X372511Y69986D01*
X372145Y69688D01*
X371772Y69399D01*
X371392Y69119D01*
X371005Y68849D01*
X370611Y68588D01*
X370212Y68336D01*
X369807Y68095D01*
X369687Y68303D01*
X370088Y68542D01*
X370482Y68790D01*
X370871Y69048D01*
X371253Y69315D01*
X371628Y69591D01*
X371997Y69877D01*
X372359Y70171D01*
X372713Y70474D01*
X373060Y70785D01*
X373399Y71104D01*
X373731Y71432D01*
X374055Y71768D01*
X374370Y72111D01*
X374677Y72462D01*
X374976Y72820D01*
X375265Y73185D01*
X375546Y73557D01*
X375818Y73936D01*
X376081Y74321D01*
X376334Y74712D01*
X376577Y75110D01*
X376811Y75513D01*
X377036Y75922D01*
X377250Y76336D01*
X377454Y76755D01*
X377648Y77179D01*
X377832Y77607D01*
X378005Y78040D01*
X378168Y78477D01*
X378320Y78917D01*
X378461Y79362D01*
X378592Y79809D01*
X378712Y80260D01*
X378821Y80713D01*
X378919Y81169D01*
X379006Y81627D01*
X379082Y82087D01*
X379147Y82548D01*
X379200Y83011D01*
X379243Y83476D01*
X379274Y83941D01*
X379294Y84406D01*
X379303Y84873D01*
D17*
X342728Y66458D02*
X342728Y59092D01*
X338918Y62648D02*
X346792Y62648D01*
X36359Y129436D02*
X32605Y129436D01*
X36359Y129436D02*
X36424Y129434D01*
X36488Y129428D01*
X36552Y129418D01*
X36616Y129405D01*
X36678Y129387D01*
X36739Y129366D01*
X36799Y129342D01*
X36857Y129313D01*
X36914Y129281D01*
X36968Y129246D01*
X37020Y129208D01*
X37070Y129166D01*
X37117Y129122D01*
X37161Y129075D01*
X37203Y129025D01*
X37241Y128973D01*
X37276Y128919D01*
X37308Y128862D01*
X37337Y128804D01*
X37361Y128744D01*
X37382Y128683D01*
X37400Y128621D01*
X37413Y128557D01*
X37423Y128493D01*
X37429Y128429D01*
X37431Y128364D01*
X37431Y127827D01*
X32605Y133858D02*
X32607Y133926D01*
X32613Y133993D01*
X32622Y134060D01*
X32635Y134127D01*
X32652Y134192D01*
X32673Y134257D01*
X32697Y134320D01*
X32725Y134382D01*
X32756Y134442D01*
X32790Y134500D01*
X32828Y134556D01*
X32868Y134611D01*
X32912Y134662D01*
X32959Y134711D01*
X33008Y134758D01*
X33059Y134802D01*
X33114Y134842D01*
X33170Y134880D01*
X33228Y134914D01*
X33288Y134945D01*
X33350Y134973D01*
X33413Y134997D01*
X33478Y135018D01*
X33543Y135035D01*
X33610Y135048D01*
X33677Y135057D01*
X33744Y135063D01*
X33812Y135065D01*
X32605Y133858D02*
X32607Y133780D01*
X32613Y133702D01*
X32623Y133625D01*
X32636Y133548D01*
X32654Y133472D01*
X32675Y133397D01*
X32700Y133323D01*
X32729Y133251D01*
X32761Y133180D01*
X32797Y133111D01*
X32836Y133043D01*
X32879Y132978D01*
X32925Y132915D01*
X32974Y132854D01*
X33026Y132796D01*
X33081Y132741D01*
X33138Y132688D01*
X33198Y132639D01*
X33261Y132592D01*
X33326Y132549D01*
X33392Y132509D01*
X33461Y132472D01*
X33532Y132439D01*
X33604Y132409D01*
X33678Y132383D01*
X34750Y134663D02*
X34701Y134712D01*
X34649Y134759D01*
X34594Y134802D01*
X34537Y134843D01*
X34478Y134881D01*
X34417Y134915D01*
X34354Y134946D01*
X34290Y134974D01*
X34224Y134998D01*
X34158Y135018D01*
X34090Y135035D01*
X34021Y135048D01*
X33952Y135057D01*
X33882Y135063D01*
X33812Y135065D01*
X34750Y134663D02*
X37431Y132384D01*
X37431Y135065D01*
D18*
X355730Y135000D02*
X358270Y135000D01*
X357270Y34000D02*
X354730Y34000D01*
D10*
X301700Y123650D02*
X301700Y136350D01*
X301700Y123650D02*
X295350Y117300D01*
X282650Y117300D01*
X276300Y123650D01*
X282650Y142700D02*
X295350Y142700D01*
X301700Y136350D01*
X282650Y142700D02*
X276300Y136350D01*
X276300Y123650D01*
D17*
X239077Y137997D02*
X235902Y137997D01*
X239077Y137997D02*
X239188Y137995D01*
X239298Y137989D01*
X239409Y137980D01*
X239519Y137966D01*
X239628Y137949D01*
X239737Y137928D01*
X239845Y137903D01*
X239952Y137874D01*
X240058Y137842D01*
X240163Y137806D01*
X240266Y137766D01*
X240368Y137723D01*
X240469Y137676D01*
X240568Y137625D01*
X240665Y137572D01*
X240759Y137515D01*
X240852Y137454D01*
X240943Y137391D01*
X241032Y137324D01*
X241118Y137254D01*
X241201Y137181D01*
X241283Y137106D01*
X241361Y137028D01*
X241436Y136946D01*
X241509Y136863D01*
X241579Y136777D01*
X241646Y136688D01*
X241709Y136597D01*
X241770Y136504D01*
X241827Y136409D01*
X241880Y136313D01*
X241931Y136214D01*
X241978Y136113D01*
X242021Y136011D01*
X242061Y135908D01*
X242097Y135803D01*
X242129Y135697D01*
X242158Y135590D01*
X242183Y135482D01*
X242204Y135373D01*
X242221Y135264D01*
X242235Y135154D01*
X242244Y135043D01*
X242250Y134933D01*
X242252Y134822D01*
X242250Y134711D01*
X242244Y134601D01*
X242235Y134490D01*
X242221Y134380D01*
X242204Y134271D01*
X242183Y134162D01*
X242158Y134054D01*
X242129Y133947D01*
X242097Y133841D01*
X242061Y133736D01*
X242021Y133633D01*
X241978Y133531D01*
X241931Y133430D01*
X241880Y133331D01*
X241827Y133234D01*
X241770Y133140D01*
X241709Y133047D01*
X241646Y132956D01*
X241579Y132867D01*
X241509Y132781D01*
X241436Y132698D01*
X241361Y132616D01*
X241283Y132538D01*
X241201Y132463D01*
X241118Y132390D01*
X241032Y132320D01*
X240943Y132253D01*
X240852Y132190D01*
X240759Y132129D01*
X240664Y132072D01*
X240568Y132019D01*
X240469Y131968D01*
X240368Y131921D01*
X240266Y131878D01*
X240163Y131838D01*
X240058Y131802D01*
X239952Y131770D01*
X239845Y131741D01*
X239737Y131716D01*
X239628Y131695D01*
X239519Y131678D01*
X239409Y131664D01*
X239298Y131655D01*
X239188Y131649D01*
X239077Y131647D01*
X235902Y131647D01*
X235902Y143077D01*
X239077Y143077D01*
X239177Y143075D01*
X239276Y143069D01*
X239376Y143059D01*
X239474Y143046D01*
X239573Y143028D01*
X239670Y143007D01*
X239766Y142982D01*
X239862Y142953D01*
X239956Y142920D01*
X240049Y142884D01*
X240140Y142844D01*
X240230Y142800D01*
X240318Y142753D01*
X240404Y142703D01*
X240488Y142649D01*
X240570Y142592D01*
X240649Y142532D01*
X240727Y142468D01*
X240801Y142402D01*
X240873Y142333D01*
X240942Y142261D01*
X241008Y142187D01*
X241072Y142109D01*
X241132Y142030D01*
X241189Y141948D01*
X241243Y141864D01*
X241293Y141778D01*
X241340Y141690D01*
X241384Y141600D01*
X241424Y141509D01*
X241460Y141416D01*
X241493Y141322D01*
X241522Y141226D01*
X241547Y141130D01*
X241568Y141033D01*
X241586Y140934D01*
X241599Y140836D01*
X241609Y140736D01*
X241615Y140637D01*
X241617Y140537D01*
X241615Y140437D01*
X241609Y140338D01*
X241599Y140238D01*
X241586Y140140D01*
X241568Y140041D01*
X241547Y139944D01*
X241522Y139848D01*
X241493Y139752D01*
X241460Y139658D01*
X241424Y139565D01*
X241384Y139474D01*
X241340Y139384D01*
X241293Y139296D01*
X241243Y139210D01*
X241189Y139126D01*
X241132Y139044D01*
X241072Y138965D01*
X241008Y138887D01*
X240942Y138813D01*
X240873Y138741D01*
X240801Y138672D01*
X240727Y138606D01*
X240649Y138542D01*
X240570Y138482D01*
X240488Y138425D01*
X240404Y138371D01*
X240318Y138321D01*
X240230Y138274D01*
X240140Y138230D01*
X240049Y138190D01*
X239956Y138154D01*
X239862Y138121D01*
X239766Y138092D01*
X239670Y138067D01*
X239573Y138046D01*
X239474Y138028D01*
X239376Y138015D01*
X239276Y138005D01*
X239177Y137999D01*
X239077Y137997D01*
X247166Y143077D02*
X247166Y131647D01*
X252246Y131647D01*
X256031Y131647D02*
X259841Y143077D01*
X263651Y131647D01*
X262699Y134505D02*
X256984Y134505D01*
X268477Y134822D02*
X268477Y143077D01*
X268477Y134822D02*
X268479Y134711D01*
X268485Y134601D01*
X268494Y134490D01*
X268508Y134380D01*
X268525Y134271D01*
X268546Y134162D01*
X268571Y134054D01*
X268600Y133947D01*
X268632Y133841D01*
X268668Y133736D01*
X268708Y133633D01*
X268751Y133531D01*
X268798Y133430D01*
X268849Y133331D01*
X268902Y133235D01*
X268959Y133140D01*
X269020Y133047D01*
X269083Y132956D01*
X269150Y132867D01*
X269220Y132781D01*
X269293Y132698D01*
X269368Y132616D01*
X269446Y132538D01*
X269528Y132463D01*
X269611Y132390D01*
X269697Y132320D01*
X269786Y132253D01*
X269877Y132190D01*
X269970Y132129D01*
X270065Y132072D01*
X270161Y132019D01*
X270260Y131968D01*
X270361Y131921D01*
X270463Y131878D01*
X270566Y131838D01*
X270671Y131802D01*
X270777Y131770D01*
X270884Y131741D01*
X270992Y131716D01*
X271101Y131695D01*
X271210Y131678D01*
X271320Y131664D01*
X271431Y131655D01*
X271541Y131649D01*
X271652Y131647D01*
X271763Y131649D01*
X271873Y131655D01*
X271984Y131664D01*
X272094Y131678D01*
X272203Y131695D01*
X272312Y131716D01*
X272420Y131741D01*
X272527Y131770D01*
X272633Y131802D01*
X272738Y131838D01*
X272841Y131878D01*
X272943Y131921D01*
X273044Y131968D01*
X273143Y132019D01*
X273239Y132072D01*
X273334Y132129D01*
X273427Y132190D01*
X273518Y132253D01*
X273607Y132320D01*
X273693Y132390D01*
X273776Y132463D01*
X273858Y132538D01*
X273936Y132616D01*
X274011Y132698D01*
X274084Y132781D01*
X274154Y132867D01*
X274221Y132956D01*
X274284Y133047D01*
X274345Y133140D01*
X274402Y133234D01*
X274455Y133331D01*
X274506Y133430D01*
X274553Y133531D01*
X274596Y133633D01*
X274636Y133736D01*
X274672Y133841D01*
X274704Y133947D01*
X274733Y134054D01*
X274758Y134162D01*
X274779Y134271D01*
X274796Y134380D01*
X274810Y134490D01*
X274819Y134601D01*
X274825Y134711D01*
X274827Y134822D01*
X274827Y143077D01*
M02*
