G04 EAGLE Gerber RS-274X export*
G75*
%MOMM*%
%FSLAX34Y34*%
%LPD*%
%INBottom Copper*%
%IPPOS*%
%AMOC8*
5,1,8,0,0,1.08239X$1,22.5*%
G01*
%ADD10C,1.400000*%
%ADD11C,1.879600*%
%ADD12C,0.906400*%
%ADD13C,0.508000*%
%ADD14C,0.152400*%
%ADD15C,0.706400*%


D10*
X605000Y97940D03*
X605000Y72540D03*
X605000Y47140D03*
X17360Y47700D03*
X17360Y73100D03*
X17360Y98500D03*
D11*
X121920Y142240D03*
X96520Y142240D03*
X71120Y142240D03*
D12*
X440690Y7620D03*
D13*
X437896Y4826D01*
X341884Y4826D02*
X339090Y7620D01*
D12*
X339090Y7620D03*
D13*
X341884Y4826D02*
X437896Y4826D01*
D14*
X327660Y73152D02*
X275844Y73152D01*
X149352Y114300D02*
X103632Y114300D01*
X67056Y77724D01*
D15*
X327660Y73152D03*
X275844Y73152D03*
X149352Y114300D03*
X67056Y77724D03*
D12*
X438150Y137160D03*
D13*
X435136Y140174D01*
D12*
X334010Y137160D03*
D13*
X337024Y140174D02*
X435136Y140174D01*
X337024Y140174D02*
X334010Y137160D01*
D14*
X252984Y124968D02*
X243840Y124968D01*
X252984Y124968D02*
X257556Y120396D01*
X341376Y120396D01*
X370332Y91440D01*
X539496Y91440D02*
X553212Y91440D01*
X539496Y91440D02*
X370332Y91440D01*
X553212Y91440D02*
X556260Y94488D01*
X330708Y91440D02*
X266700Y91440D01*
X330708Y91440D02*
X355092Y67056D01*
X536448Y67056D01*
X539496Y70104D01*
X539496Y91440D01*
D15*
X243840Y124968D03*
X556260Y94488D03*
X266700Y91440D03*
D14*
X260604Y99060D02*
X257556Y99060D01*
X252984Y103632D01*
X199644Y103632D01*
X173736Y77724D01*
X134112Y77724D01*
X121920Y65532D01*
X105156Y65532D02*
X73152Y65532D01*
X105156Y65532D02*
X121920Y65532D01*
X315468Y39624D02*
X534924Y39624D01*
X315468Y39624D02*
X297180Y21336D01*
X160020Y21336D01*
X150876Y30480D01*
X109728Y30480D01*
X105156Y35052D01*
X105156Y65532D01*
D15*
X260604Y99060D03*
X73152Y65532D03*
X534924Y39624D03*
D14*
X533400Y97536D02*
X426720Y97536D01*
X413004Y111252D01*
D15*
X533400Y97536D03*
X413004Y111252D03*
D14*
X573024Y68580D02*
X582168Y68580D01*
X573024Y68580D02*
X530352Y25908D01*
X419100Y25908D01*
D15*
X582168Y68580D03*
X419100Y25908D03*
D14*
X249936Y97536D02*
X198120Y97536D01*
X175260Y74676D01*
X141732Y74676D01*
X111252Y44196D01*
X111252Y38100D01*
D15*
X249936Y97536D03*
X111252Y38100D03*
D12*
X401955Y80645D03*
D13*
X381635Y80645D01*
X381000Y80010D01*
X380365Y80645D01*
D12*
X380365Y80645D03*
D14*
X96012Y115824D02*
X83820Y115824D01*
X96012Y115824D02*
X121920Y141732D01*
X141732Y121920D02*
X155448Y121920D01*
X141732Y121920D02*
X121920Y141732D01*
X121920Y142240D01*
X286512Y100584D02*
X327660Y100584D01*
X286512Y100584D02*
X275844Y111252D01*
D15*
X83820Y115824D03*
X155448Y121920D03*
X327660Y100584D03*
X275844Y111252D03*
D14*
X74676Y117348D02*
X74676Y120396D01*
X96520Y142240D01*
X442976Y120904D02*
X459740Y120904D01*
X467868Y112776D01*
X496824Y112776D01*
X307848Y45720D02*
X274320Y45720D01*
X225552Y60960D02*
X225552Y86868D01*
X225552Y60960D02*
X228600Y57912D01*
X228600Y41148D01*
X245364Y24384D01*
X252984Y24384D01*
X274320Y45720D01*
X442468Y120396D02*
X442976Y120904D01*
X442468Y120396D02*
X355092Y120396D01*
X303276Y85344D02*
X262128Y85344D01*
X256032Y91440D01*
X230124Y91440D01*
X225552Y86868D01*
X224028Y36576D02*
X137160Y36576D01*
X224028Y36576D02*
X228600Y41148D01*
D15*
X74676Y117348D03*
X442976Y120904D03*
X496824Y112776D03*
X307848Y45720D03*
X274320Y45720D03*
X225552Y86868D03*
X355092Y120396D03*
X303276Y85344D03*
X137160Y36576D03*
D14*
X123444Y71628D02*
X18288Y71628D01*
X123444Y71628D02*
X138684Y86868D01*
X178308Y86868D01*
X198120Y106680D01*
X271272Y106680D01*
X283464Y94488D01*
X336804Y94488D01*
X342900Y88392D01*
X18288Y71628D02*
X17360Y73100D01*
D15*
X342900Y88392D03*
D14*
X164592Y92964D02*
X103632Y92964D01*
X96012Y85344D01*
X367284Y73152D02*
X533400Y73152D01*
X367284Y73152D02*
X323088Y117348D01*
X188976Y117348D01*
X164592Y92964D01*
D15*
X164592Y92964D03*
X96012Y85344D03*
X533400Y73152D03*
D14*
X400812Y60960D02*
X301752Y60960D01*
X295656Y67056D01*
X269748Y67056D01*
X256032Y53340D01*
X234696Y53340D01*
X222504Y54864D02*
X155448Y54864D01*
X143256Y67056D01*
D15*
X400812Y60960D03*
X234696Y53340D03*
X222504Y54864D03*
X143256Y67056D03*
D14*
X365760Y100584D02*
X414528Y100584D01*
X365760Y100584D02*
X339852Y126492D01*
X256032Y126492D01*
X243840Y138684D01*
X182880Y138684D01*
X143256Y99060D01*
X96012Y99060D01*
X83820Y86868D01*
X83820Y85344D01*
X152400Y68580D02*
X170688Y68580D01*
D15*
X414528Y100584D03*
X83820Y85344D03*
X152400Y68580D03*
X170688Y68580D03*
D14*
X181356Y132588D02*
X188976Y132588D01*
X181356Y132588D02*
X144780Y96012D01*
X97536Y96012D01*
X89916Y88392D01*
X89916Y82296D01*
X94488Y77724D01*
X109728Y77724D01*
D15*
X188976Y132588D03*
X109728Y77724D03*
D14*
X65532Y120396D02*
X65532Y137160D01*
X70104Y141732D01*
X71120Y142240D01*
D15*
X65532Y120396D03*
D14*
X329184Y48768D02*
X348996Y48768D01*
X329184Y48768D02*
X323088Y54864D01*
X271272Y54864D01*
D15*
X348996Y48768D03*
X271272Y54864D03*
D14*
X312420Y32004D02*
X329184Y32004D01*
X312420Y32004D02*
X294386Y13970D01*
X194056Y13970D01*
D15*
X329184Y32004D03*
X194056Y13970D03*
D14*
X306324Y35052D02*
X320040Y48768D01*
X306324Y35052D02*
X274320Y35052D01*
D15*
X320040Y48768D03*
X274320Y35052D03*
D14*
X268224Y60960D02*
X292608Y60960D01*
X268224Y60960D02*
X248412Y41148D01*
X248412Y30480D01*
D15*
X292608Y60960D03*
X248412Y30480D03*
M02*
