G04 EAGLE Gerber RS-274X export*
G75*
%MOMM*%
%FSLAX34Y34*%
%LPD*%
%INSilkscreen Top*%
%IPPOS*%
%AMOC8*
5,1,8,0,0,1.08239X$1,22.5*%
G01*
%ADD10C,0.076200*%
%ADD11C,0.254000*%
%ADD12C,0.152400*%
%ADD13C,0.127000*%
%ADD14C,0.203200*%
%ADD15C,0.101600*%
%ADD16R,0.300000X4.100000*%
%ADD17C,0.150000*%


D10*
X602461Y31251D02*
X602461Y38617D01*
X604507Y38617D01*
X604596Y38615D01*
X604685Y38609D01*
X604774Y38599D01*
X604862Y38586D01*
X604950Y38569D01*
X605037Y38547D01*
X605122Y38522D01*
X605207Y38494D01*
X605290Y38461D01*
X605372Y38425D01*
X605452Y38386D01*
X605530Y38343D01*
X605606Y38297D01*
X605681Y38247D01*
X605753Y38194D01*
X605822Y38138D01*
X605889Y38079D01*
X605954Y38018D01*
X606015Y37953D01*
X606074Y37886D01*
X606130Y37817D01*
X606183Y37745D01*
X606233Y37670D01*
X606279Y37594D01*
X606322Y37516D01*
X606361Y37436D01*
X606397Y37354D01*
X606430Y37271D01*
X606458Y37186D01*
X606483Y37101D01*
X606505Y37014D01*
X606522Y36926D01*
X606535Y36838D01*
X606545Y36749D01*
X606551Y36660D01*
X606553Y36571D01*
X606551Y36482D01*
X606545Y36393D01*
X606535Y36304D01*
X606522Y36216D01*
X606505Y36128D01*
X606483Y36041D01*
X606458Y35956D01*
X606430Y35871D01*
X606397Y35788D01*
X606361Y35706D01*
X606322Y35626D01*
X606279Y35548D01*
X606233Y35472D01*
X606183Y35397D01*
X606130Y35325D01*
X606074Y35256D01*
X606015Y35189D01*
X605954Y35124D01*
X605889Y35063D01*
X605822Y35004D01*
X605753Y34948D01*
X605681Y34895D01*
X605606Y34845D01*
X605530Y34799D01*
X605452Y34756D01*
X605372Y34717D01*
X605290Y34681D01*
X605207Y34648D01*
X605122Y34620D01*
X605037Y34595D01*
X604950Y34573D01*
X604862Y34556D01*
X604774Y34543D01*
X604685Y34533D01*
X604596Y34527D01*
X604507Y34525D01*
X602461Y34525D01*
X604916Y34525D02*
X606553Y31251D01*
X609725Y36980D02*
X611771Y38617D01*
X611771Y31251D01*
X609725Y31251D02*
X613817Y31251D01*
X599491Y107031D02*
X599491Y114397D01*
X601537Y114397D01*
X601626Y114395D01*
X601715Y114389D01*
X601804Y114379D01*
X601892Y114366D01*
X601980Y114349D01*
X602067Y114327D01*
X602152Y114302D01*
X602237Y114274D01*
X602320Y114241D01*
X602402Y114205D01*
X602482Y114166D01*
X602560Y114123D01*
X602636Y114077D01*
X602711Y114027D01*
X602783Y113974D01*
X602852Y113918D01*
X602919Y113859D01*
X602984Y113798D01*
X603045Y113733D01*
X603104Y113666D01*
X603160Y113597D01*
X603213Y113525D01*
X603263Y113450D01*
X603309Y113374D01*
X603352Y113296D01*
X603391Y113216D01*
X603427Y113134D01*
X603460Y113051D01*
X603488Y112966D01*
X603513Y112881D01*
X603535Y112794D01*
X603552Y112706D01*
X603565Y112618D01*
X603575Y112529D01*
X603581Y112440D01*
X603583Y112351D01*
X603581Y112262D01*
X603575Y112173D01*
X603565Y112084D01*
X603552Y111996D01*
X603535Y111908D01*
X603513Y111821D01*
X603488Y111736D01*
X603460Y111651D01*
X603427Y111568D01*
X603391Y111486D01*
X603352Y111406D01*
X603309Y111328D01*
X603263Y111252D01*
X603213Y111177D01*
X603160Y111105D01*
X603104Y111036D01*
X603045Y110969D01*
X602984Y110904D01*
X602919Y110843D01*
X602852Y110784D01*
X602783Y110728D01*
X602711Y110675D01*
X602636Y110625D01*
X602560Y110579D01*
X602482Y110536D01*
X602402Y110497D01*
X602320Y110461D01*
X602237Y110428D01*
X602152Y110400D01*
X602067Y110375D01*
X601980Y110353D01*
X601892Y110336D01*
X601804Y110323D01*
X601715Y110313D01*
X601626Y110307D01*
X601537Y110305D01*
X599491Y110305D01*
X601946Y110305D02*
X603583Y107031D01*
X610848Y112556D02*
X610846Y112641D01*
X610840Y112726D01*
X610830Y112810D01*
X610817Y112894D01*
X610799Y112978D01*
X610778Y113060D01*
X610753Y113141D01*
X610724Y113221D01*
X610691Y113300D01*
X610655Y113377D01*
X610615Y113452D01*
X610572Y113526D01*
X610526Y113597D01*
X610476Y113666D01*
X610423Y113733D01*
X610367Y113797D01*
X610308Y113858D01*
X610247Y113917D01*
X610183Y113973D01*
X610116Y114026D01*
X610047Y114076D01*
X609976Y114122D01*
X609902Y114165D01*
X609827Y114205D01*
X609750Y114241D01*
X609671Y114274D01*
X609591Y114303D01*
X609510Y114328D01*
X609428Y114349D01*
X609344Y114367D01*
X609260Y114380D01*
X609176Y114390D01*
X609091Y114396D01*
X609006Y114398D01*
X609006Y114397D02*
X608910Y114395D01*
X608814Y114389D01*
X608719Y114379D01*
X608624Y114366D01*
X608529Y114348D01*
X608436Y114327D01*
X608343Y114302D01*
X608252Y114273D01*
X608161Y114241D01*
X608072Y114205D01*
X607985Y114165D01*
X607899Y114122D01*
X607815Y114076D01*
X607733Y114026D01*
X607653Y113972D01*
X607576Y113916D01*
X607501Y113856D01*
X607428Y113794D01*
X607358Y113728D01*
X607290Y113660D01*
X607225Y113589D01*
X607164Y113516D01*
X607105Y113440D01*
X607049Y113361D01*
X606997Y113281D01*
X606948Y113198D01*
X606902Y113114D01*
X606860Y113028D01*
X606822Y112940D01*
X606787Y112851D01*
X606755Y112760D01*
X610233Y111124D02*
X610293Y111183D01*
X610350Y111245D01*
X610405Y111309D01*
X610456Y111376D01*
X610505Y111445D01*
X610551Y111515D01*
X610594Y111588D01*
X610634Y111662D01*
X610670Y111738D01*
X610703Y111816D01*
X610733Y111895D01*
X610760Y111975D01*
X610783Y112056D01*
X610802Y112138D01*
X610818Y112220D01*
X610831Y112304D01*
X610840Y112388D01*
X610845Y112472D01*
X610847Y112556D01*
X610233Y111123D02*
X606755Y107031D01*
X610847Y107031D01*
X11331Y107261D02*
X11331Y114627D01*
X13377Y114627D01*
X13466Y114625D01*
X13555Y114619D01*
X13644Y114609D01*
X13732Y114596D01*
X13820Y114579D01*
X13907Y114557D01*
X13992Y114532D01*
X14077Y114504D01*
X14160Y114471D01*
X14242Y114435D01*
X14322Y114396D01*
X14400Y114353D01*
X14476Y114307D01*
X14551Y114257D01*
X14623Y114204D01*
X14692Y114148D01*
X14759Y114089D01*
X14824Y114028D01*
X14885Y113963D01*
X14944Y113896D01*
X15000Y113827D01*
X15053Y113755D01*
X15103Y113680D01*
X15149Y113604D01*
X15192Y113526D01*
X15231Y113446D01*
X15267Y113364D01*
X15300Y113281D01*
X15328Y113196D01*
X15353Y113111D01*
X15375Y113024D01*
X15392Y112936D01*
X15405Y112848D01*
X15415Y112759D01*
X15421Y112670D01*
X15423Y112581D01*
X15421Y112492D01*
X15415Y112403D01*
X15405Y112314D01*
X15392Y112226D01*
X15375Y112138D01*
X15353Y112051D01*
X15328Y111966D01*
X15300Y111881D01*
X15267Y111798D01*
X15231Y111716D01*
X15192Y111636D01*
X15149Y111558D01*
X15103Y111482D01*
X15053Y111407D01*
X15000Y111335D01*
X14944Y111266D01*
X14885Y111199D01*
X14824Y111134D01*
X14759Y111073D01*
X14692Y111014D01*
X14623Y110958D01*
X14551Y110905D01*
X14476Y110855D01*
X14400Y110809D01*
X14322Y110766D01*
X14242Y110727D01*
X14160Y110691D01*
X14077Y110658D01*
X13992Y110630D01*
X13907Y110605D01*
X13820Y110583D01*
X13732Y110566D01*
X13644Y110553D01*
X13555Y110543D01*
X13466Y110537D01*
X13377Y110535D01*
X11331Y110535D01*
X13786Y110535D02*
X15423Y107261D01*
X18595Y107261D02*
X20641Y107261D01*
X20730Y107263D01*
X20819Y107269D01*
X20908Y107279D01*
X20996Y107292D01*
X21084Y107309D01*
X21171Y107331D01*
X21256Y107356D01*
X21341Y107384D01*
X21424Y107417D01*
X21506Y107453D01*
X21586Y107492D01*
X21664Y107535D01*
X21740Y107581D01*
X21815Y107631D01*
X21887Y107684D01*
X21956Y107740D01*
X22023Y107799D01*
X22088Y107860D01*
X22149Y107925D01*
X22208Y107992D01*
X22264Y108061D01*
X22317Y108133D01*
X22367Y108208D01*
X22413Y108284D01*
X22456Y108362D01*
X22495Y108442D01*
X22531Y108524D01*
X22564Y108607D01*
X22592Y108692D01*
X22617Y108777D01*
X22639Y108864D01*
X22656Y108952D01*
X22669Y109040D01*
X22679Y109129D01*
X22685Y109218D01*
X22687Y109307D01*
X22685Y109396D01*
X22679Y109485D01*
X22669Y109574D01*
X22656Y109662D01*
X22639Y109750D01*
X22617Y109837D01*
X22592Y109922D01*
X22564Y110007D01*
X22531Y110090D01*
X22495Y110172D01*
X22456Y110252D01*
X22413Y110330D01*
X22367Y110406D01*
X22317Y110481D01*
X22264Y110553D01*
X22208Y110622D01*
X22149Y110689D01*
X22088Y110754D01*
X22023Y110815D01*
X21956Y110874D01*
X21887Y110930D01*
X21815Y110983D01*
X21740Y111033D01*
X21664Y111079D01*
X21586Y111122D01*
X21506Y111161D01*
X21424Y111197D01*
X21341Y111230D01*
X21256Y111258D01*
X21171Y111283D01*
X21084Y111305D01*
X20996Y111322D01*
X20908Y111335D01*
X20819Y111345D01*
X20730Y111351D01*
X20641Y111353D01*
X21050Y114627D02*
X18595Y114627D01*
X21050Y114627D02*
X21129Y114625D01*
X21208Y114619D01*
X21287Y114610D01*
X21365Y114597D01*
X21442Y114579D01*
X21518Y114559D01*
X21593Y114534D01*
X21667Y114506D01*
X21740Y114475D01*
X21811Y114439D01*
X21880Y114401D01*
X21947Y114359D01*
X22012Y114314D01*
X22075Y114266D01*
X22136Y114215D01*
X22193Y114161D01*
X22249Y114105D01*
X22301Y114046D01*
X22351Y113984D01*
X22397Y113920D01*
X22441Y113854D01*
X22481Y113786D01*
X22517Y113716D01*
X22551Y113644D01*
X22581Y113570D01*
X22607Y113496D01*
X22630Y113420D01*
X22648Y113343D01*
X22664Y113266D01*
X22675Y113187D01*
X22683Y113109D01*
X22687Y113030D01*
X22687Y112950D01*
X22683Y112871D01*
X22675Y112793D01*
X22664Y112714D01*
X22648Y112637D01*
X22630Y112560D01*
X22607Y112484D01*
X22581Y112410D01*
X22551Y112336D01*
X22517Y112264D01*
X22481Y112194D01*
X22441Y112126D01*
X22397Y112060D01*
X22351Y111996D01*
X22301Y111934D01*
X22249Y111875D01*
X22193Y111819D01*
X22136Y111765D01*
X22075Y111714D01*
X22012Y111666D01*
X21947Y111621D01*
X21880Y111579D01*
X21811Y111541D01*
X21740Y111505D01*
X21667Y111474D01*
X21593Y111446D01*
X21518Y111421D01*
X21442Y111401D01*
X21365Y111383D01*
X21287Y111370D01*
X21208Y111361D01*
X21129Y111355D01*
X21050Y111353D01*
X19413Y111353D01*
X12145Y38517D02*
X12145Y31151D01*
X12145Y38517D02*
X14191Y38517D01*
X14280Y38515D01*
X14369Y38509D01*
X14458Y38499D01*
X14546Y38486D01*
X14634Y38469D01*
X14721Y38447D01*
X14806Y38422D01*
X14891Y38394D01*
X14974Y38361D01*
X15056Y38325D01*
X15136Y38286D01*
X15214Y38243D01*
X15290Y38197D01*
X15365Y38147D01*
X15437Y38094D01*
X15506Y38038D01*
X15573Y37979D01*
X15638Y37918D01*
X15699Y37853D01*
X15758Y37786D01*
X15814Y37717D01*
X15867Y37645D01*
X15917Y37570D01*
X15963Y37494D01*
X16006Y37416D01*
X16045Y37336D01*
X16081Y37254D01*
X16114Y37171D01*
X16142Y37086D01*
X16167Y37001D01*
X16189Y36914D01*
X16206Y36826D01*
X16219Y36738D01*
X16229Y36649D01*
X16235Y36560D01*
X16237Y36471D01*
X16235Y36382D01*
X16229Y36293D01*
X16219Y36204D01*
X16206Y36116D01*
X16189Y36028D01*
X16167Y35941D01*
X16142Y35856D01*
X16114Y35771D01*
X16081Y35688D01*
X16045Y35606D01*
X16006Y35526D01*
X15963Y35448D01*
X15917Y35372D01*
X15867Y35297D01*
X15814Y35225D01*
X15758Y35156D01*
X15699Y35089D01*
X15638Y35024D01*
X15573Y34963D01*
X15506Y34904D01*
X15437Y34848D01*
X15365Y34795D01*
X15290Y34745D01*
X15214Y34699D01*
X15136Y34656D01*
X15056Y34617D01*
X14974Y34581D01*
X14891Y34548D01*
X14806Y34520D01*
X14721Y34495D01*
X14634Y34473D01*
X14546Y34456D01*
X14458Y34443D01*
X14369Y34433D01*
X14280Y34427D01*
X14191Y34425D01*
X12145Y34425D01*
X14600Y34425D02*
X16237Y31151D01*
X19409Y32788D02*
X21046Y38517D01*
X19409Y32788D02*
X23501Y32788D01*
X22274Y34425D02*
X22274Y31151D01*
D11*
X620748Y59840D02*
X620748Y85240D01*
D12*
X593292Y82296D02*
X593062Y82012D01*
X592838Y81724D01*
X592622Y81430D01*
X592412Y81131D01*
X592210Y80827D01*
X592015Y80518D01*
X591828Y80205D01*
X591648Y79887D01*
X591476Y79565D01*
X591311Y79239D01*
X591155Y78909D01*
X591006Y78576D01*
X590866Y78239D01*
X590733Y77899D01*
X590609Y77556D01*
X590493Y77209D01*
X590385Y76861D01*
X590286Y76509D01*
X590195Y76156D01*
X590113Y75800D01*
X590039Y75442D01*
X589974Y75083D01*
X589917Y74723D01*
X589869Y74361D01*
X589830Y73998D01*
X589799Y73634D01*
X589777Y73270D01*
X589764Y72905D01*
X589760Y72540D01*
X589764Y72171D01*
X589778Y71802D01*
X589800Y71434D01*
X589831Y71066D01*
X589871Y70699D01*
X589920Y70333D01*
X589978Y69969D01*
X590045Y69606D01*
X590120Y69244D01*
X590205Y68885D01*
X590297Y68528D01*
X590399Y68173D01*
X590509Y67821D01*
X590627Y67471D01*
X590754Y67124D01*
X590890Y66781D01*
X591033Y66441D01*
X591185Y66104D01*
X591345Y65772D01*
X591513Y65443D01*
X591689Y65118D01*
X591873Y64798D01*
X592064Y64483D01*
X592263Y64172D01*
X592469Y63866D01*
X592683Y63565D01*
X592904Y63269D01*
X593132Y62979D01*
X593367Y62694D01*
X593609Y62415D01*
X605000Y87780D02*
X605372Y87775D01*
X605743Y87762D01*
X606114Y87739D01*
X606484Y87708D01*
X606853Y87667D01*
X607221Y87617D01*
X607588Y87559D01*
X607953Y87491D01*
X608317Y87415D01*
X608678Y87330D01*
X609037Y87235D01*
X609394Y87133D01*
X609749Y87021D01*
X610100Y86901D01*
X610449Y86773D01*
X610794Y86636D01*
X611136Y86490D01*
X611474Y86337D01*
X611808Y86175D01*
X612138Y86005D01*
X612464Y85827D01*
X612786Y85641D01*
X613103Y85447D01*
X613415Y85246D01*
X613722Y85037D01*
X614024Y84821D01*
X614321Y84597D01*
X614612Y84367D01*
X614897Y84129D01*
X615177Y83884D01*
X615450Y83633D01*
X615717Y83375D01*
X615978Y83111D01*
X616233Y82840D01*
X616480Y82563D01*
X616721Y82280D01*
X616955Y81992D01*
X617182Y81698D01*
X617401Y81398D01*
X605000Y87780D02*
X604628Y87775D01*
X604257Y87762D01*
X603885Y87739D01*
X603515Y87707D01*
X603145Y87667D01*
X602777Y87617D01*
X602409Y87558D01*
X602044Y87491D01*
X601680Y87414D01*
X601318Y87328D01*
X600958Y87234D01*
X600601Y87131D01*
X600246Y87020D01*
X599894Y86899D01*
X599545Y86770D01*
X599200Y86633D01*
X598858Y86487D01*
X598519Y86333D01*
X598184Y86171D01*
X597854Y86001D01*
X597528Y85822D01*
X597206Y85636D01*
X596888Y85442D01*
X596576Y85240D01*
X596269Y85031D01*
X595967Y84814D01*
X595670Y84590D01*
X595378Y84359D01*
X595093Y84121D01*
X594813Y83875D01*
X594540Y83623D01*
X594272Y83365D01*
X594012Y83100D01*
X593757Y82829D01*
X593509Y82551D01*
X593269Y82268D01*
X593035Y81979D01*
X592808Y81684D01*
X605000Y57300D02*
X605364Y57304D01*
X605729Y57317D01*
X606093Y57339D01*
X606457Y57370D01*
X606820Y57409D01*
X607181Y57457D01*
X607542Y57513D01*
X607901Y57579D01*
X608258Y57652D01*
X608614Y57735D01*
X608967Y57825D01*
X609318Y57925D01*
X609667Y58032D01*
X610013Y58148D01*
X610356Y58272D01*
X610696Y58404D01*
X611033Y58545D01*
X611366Y58693D01*
X611696Y58850D01*
X612021Y59014D01*
X612343Y59186D01*
X612661Y59366D01*
X612974Y59553D01*
X613283Y59747D01*
X613586Y59949D01*
X613885Y60158D01*
X614179Y60375D01*
X614468Y60598D01*
X614751Y60828D01*
X615029Y61065D01*
X615300Y61308D01*
X615566Y61558D01*
X615826Y61814D01*
X616080Y62077D01*
X616327Y62345D01*
X616568Y62619D01*
X616802Y62899D01*
X617030Y63184D01*
X605000Y57300D02*
X604636Y57304D01*
X604271Y57317D01*
X603907Y57339D01*
X603543Y57370D01*
X603180Y57409D01*
X602819Y57457D01*
X602458Y57513D01*
X602099Y57579D01*
X601742Y57652D01*
X601386Y57735D01*
X601033Y57825D01*
X600682Y57925D01*
X600333Y58032D01*
X599987Y58148D01*
X599644Y58272D01*
X599304Y58404D01*
X598967Y58545D01*
X598634Y58693D01*
X598304Y58850D01*
X597979Y59014D01*
X597657Y59186D01*
X597339Y59366D01*
X597026Y59553D01*
X596717Y59747D01*
X596414Y59949D01*
X596115Y60158D01*
X595821Y60375D01*
X595532Y60598D01*
X595249Y60828D01*
X594971Y61065D01*
X594700Y61308D01*
X594434Y61558D01*
X594174Y61814D01*
X593920Y62077D01*
X593673Y62345D01*
X593432Y62619D01*
X593198Y62899D01*
X592970Y63184D01*
D11*
X584680Y72540D02*
X584686Y73018D01*
X584702Y73496D01*
X584731Y73973D01*
X584770Y74449D01*
X584820Y74924D01*
X584882Y75398D01*
X584955Y75871D01*
X585039Y76341D01*
X585134Y76810D01*
X585240Y77276D01*
X585356Y77739D01*
X585484Y78200D01*
X585623Y78657D01*
X585772Y79111D01*
X585932Y79562D01*
X586102Y80008D01*
X586283Y80451D01*
X586474Y80889D01*
X586676Y81322D01*
X586887Y81751D01*
X587109Y82174D01*
X584680Y72540D02*
X584686Y72053D01*
X584703Y71566D01*
X584733Y71079D01*
X584773Y70594D01*
X584826Y70109D01*
X584890Y69626D01*
X584966Y69144D01*
X585053Y68665D01*
X585151Y68188D01*
X585261Y67713D01*
X585383Y67241D01*
X585516Y66772D01*
X585660Y66306D01*
X585815Y65844D01*
X585981Y65386D01*
X586158Y64932D01*
X586346Y64482D01*
X586544Y64037D01*
X586753Y63597D01*
X586973Y63162D01*
X587203Y62732D01*
X587444Y62308D01*
X587694Y61890D01*
X1612Y60400D02*
X1612Y85800D01*
D12*
X32600Y73100D02*
X32596Y72735D01*
X32583Y72370D01*
X32561Y72006D01*
X32530Y71642D01*
X32491Y71279D01*
X32443Y70917D01*
X32386Y70557D01*
X32321Y70198D01*
X32247Y69840D01*
X32165Y69484D01*
X32074Y69131D01*
X31975Y68779D01*
X31867Y68431D01*
X31751Y68084D01*
X31627Y67741D01*
X31494Y67401D01*
X31354Y67064D01*
X31205Y66731D01*
X31049Y66401D01*
X30884Y66075D01*
X30712Y65753D01*
X30532Y65435D01*
X30345Y65122D01*
X30150Y64813D01*
X29948Y64509D01*
X29738Y64210D01*
X29522Y63916D01*
X29298Y63628D01*
X29068Y63344D01*
X32600Y73100D02*
X32596Y73469D01*
X32582Y73838D01*
X32560Y74206D01*
X32529Y74574D01*
X32489Y74941D01*
X32440Y75307D01*
X32382Y75671D01*
X32315Y76034D01*
X32240Y76396D01*
X32155Y76755D01*
X32063Y77112D01*
X31961Y77467D01*
X31851Y77819D01*
X31733Y78169D01*
X31606Y78516D01*
X31470Y78859D01*
X31327Y79199D01*
X31175Y79536D01*
X31015Y79868D01*
X30847Y80197D01*
X30671Y80522D01*
X30487Y80842D01*
X30296Y81157D01*
X30097Y81468D01*
X29891Y81774D01*
X29677Y82075D01*
X29456Y82371D01*
X29228Y82661D01*
X28993Y82946D01*
X28751Y83225D01*
X17360Y57860D02*
X16988Y57865D01*
X16617Y57878D01*
X16246Y57901D01*
X15876Y57932D01*
X15507Y57973D01*
X15139Y58023D01*
X14772Y58081D01*
X14407Y58149D01*
X14043Y58225D01*
X13682Y58310D01*
X13323Y58405D01*
X12966Y58507D01*
X12611Y58619D01*
X12260Y58739D01*
X11911Y58867D01*
X11566Y59004D01*
X11224Y59150D01*
X10886Y59303D01*
X10552Y59465D01*
X10222Y59635D01*
X9896Y59813D01*
X9574Y59999D01*
X9257Y60193D01*
X8945Y60394D01*
X8638Y60603D01*
X8336Y60819D01*
X8039Y61043D01*
X7748Y61273D01*
X7463Y61511D01*
X7183Y61756D01*
X6910Y62007D01*
X6643Y62265D01*
X6382Y62529D01*
X6127Y62800D01*
X5880Y63077D01*
X5639Y63360D01*
X5405Y63648D01*
X5178Y63942D01*
X4959Y64242D01*
X17360Y57860D02*
X17732Y57865D01*
X18103Y57878D01*
X18475Y57901D01*
X18845Y57933D01*
X19215Y57973D01*
X19583Y58023D01*
X19951Y58082D01*
X20316Y58149D01*
X20680Y58226D01*
X21042Y58312D01*
X21402Y58406D01*
X21759Y58509D01*
X22114Y58620D01*
X22466Y58741D01*
X22815Y58870D01*
X23160Y59007D01*
X23502Y59153D01*
X23841Y59307D01*
X24176Y59469D01*
X24506Y59639D01*
X24832Y59818D01*
X25154Y60004D01*
X25472Y60198D01*
X25784Y60400D01*
X26091Y60609D01*
X26393Y60826D01*
X26690Y61050D01*
X26982Y61281D01*
X27267Y61519D01*
X27547Y61765D01*
X27820Y62017D01*
X28088Y62275D01*
X28348Y62540D01*
X28603Y62811D01*
X28851Y63089D01*
X29091Y63372D01*
X29325Y63661D01*
X29552Y63956D01*
X17360Y88340D02*
X16996Y88336D01*
X16631Y88323D01*
X16267Y88301D01*
X15903Y88270D01*
X15540Y88231D01*
X15179Y88183D01*
X14818Y88127D01*
X14459Y88061D01*
X14102Y87988D01*
X13746Y87905D01*
X13393Y87815D01*
X13042Y87715D01*
X12693Y87608D01*
X12347Y87492D01*
X12004Y87368D01*
X11664Y87236D01*
X11327Y87095D01*
X10994Y86947D01*
X10664Y86790D01*
X10339Y86626D01*
X10017Y86454D01*
X9699Y86274D01*
X9386Y86087D01*
X9077Y85893D01*
X8774Y85691D01*
X8475Y85482D01*
X8181Y85265D01*
X7892Y85042D01*
X7609Y84812D01*
X7331Y84575D01*
X7060Y84332D01*
X6794Y84082D01*
X6534Y83826D01*
X6280Y83563D01*
X6033Y83295D01*
X5792Y83021D01*
X5558Y82741D01*
X5330Y82456D01*
X17360Y88340D02*
X17724Y88336D01*
X18089Y88323D01*
X18453Y88301D01*
X18817Y88270D01*
X19180Y88231D01*
X19541Y88183D01*
X19902Y88127D01*
X20261Y88061D01*
X20618Y87988D01*
X20974Y87905D01*
X21327Y87815D01*
X21678Y87715D01*
X22027Y87608D01*
X22373Y87492D01*
X22716Y87368D01*
X23056Y87236D01*
X23393Y87095D01*
X23726Y86947D01*
X24056Y86790D01*
X24381Y86626D01*
X24703Y86454D01*
X25021Y86274D01*
X25334Y86087D01*
X25643Y85893D01*
X25946Y85691D01*
X26245Y85482D01*
X26539Y85265D01*
X26828Y85042D01*
X27111Y84812D01*
X27389Y84575D01*
X27660Y84332D01*
X27926Y84082D01*
X28186Y83826D01*
X28440Y83563D01*
X28687Y83295D01*
X28928Y83021D01*
X29162Y82741D01*
X29390Y82456D01*
D11*
X37680Y73100D02*
X37674Y72622D01*
X37658Y72144D01*
X37629Y71667D01*
X37590Y71191D01*
X37540Y70716D01*
X37478Y70242D01*
X37405Y69769D01*
X37321Y69299D01*
X37226Y68830D01*
X37120Y68364D01*
X37004Y67901D01*
X36876Y67440D01*
X36737Y66983D01*
X36588Y66529D01*
X36428Y66078D01*
X36258Y65632D01*
X36077Y65189D01*
X35886Y64751D01*
X35684Y64318D01*
X35473Y63889D01*
X35251Y63466D01*
X37680Y73100D02*
X37674Y73587D01*
X37657Y74074D01*
X37627Y74561D01*
X37587Y75046D01*
X37534Y75531D01*
X37470Y76014D01*
X37394Y76496D01*
X37307Y76975D01*
X37209Y77452D01*
X37099Y77927D01*
X36977Y78399D01*
X36844Y78868D01*
X36700Y79334D01*
X36545Y79796D01*
X36379Y80254D01*
X36202Y80708D01*
X36014Y81158D01*
X35816Y81603D01*
X35607Y82043D01*
X35387Y82478D01*
X35157Y82908D01*
X34916Y83332D01*
X34666Y83750D01*
D13*
X246810Y110840D02*
X246810Y122840D01*
X268810Y122840D02*
X268810Y110840D01*
X241574Y125840D02*
X241576Y125934D01*
X241582Y126028D01*
X241592Y126122D01*
X241606Y126215D01*
X241624Y126308D01*
X241645Y126400D01*
X241671Y126490D01*
X241700Y126580D01*
X241733Y126668D01*
X241770Y126755D01*
X241810Y126840D01*
X241854Y126924D01*
X241902Y127005D01*
X241952Y127085D01*
X242007Y127162D01*
X242064Y127237D01*
X242124Y127309D01*
X242188Y127379D01*
X242254Y127446D01*
X242323Y127510D01*
X242395Y127571D01*
X242469Y127629D01*
X242546Y127684D01*
X242625Y127736D01*
X242706Y127784D01*
X242789Y127829D01*
X242873Y127870D01*
X242960Y127908D01*
X243048Y127942D01*
X243137Y127972D01*
X243227Y127999D01*
X243319Y128021D01*
X243411Y128040D01*
X243505Y128055D01*
X243598Y128066D01*
X243692Y128073D01*
X243786Y128076D01*
X243881Y128075D01*
X243975Y128070D01*
X244069Y128061D01*
X244162Y128048D01*
X244255Y128031D01*
X244347Y128011D01*
X244438Y127986D01*
X244528Y127958D01*
X244616Y127926D01*
X244704Y127890D01*
X244789Y127850D01*
X244873Y127807D01*
X244955Y127761D01*
X245035Y127711D01*
X245113Y127657D01*
X245188Y127601D01*
X245261Y127541D01*
X245332Y127478D01*
X245399Y127413D01*
X245464Y127344D01*
X245526Y127273D01*
X245585Y127200D01*
X245641Y127124D01*
X245693Y127045D01*
X245742Y126965D01*
X245788Y126882D01*
X245830Y126798D01*
X245869Y126712D01*
X245904Y126624D01*
X245935Y126535D01*
X245963Y126445D01*
X245986Y126354D01*
X246006Y126262D01*
X246022Y126169D01*
X246034Y126075D01*
X246042Y125981D01*
X246046Y125887D01*
X246046Y125793D01*
X246042Y125699D01*
X246034Y125605D01*
X246022Y125511D01*
X246006Y125418D01*
X245986Y125326D01*
X245963Y125235D01*
X245935Y125145D01*
X245904Y125056D01*
X245869Y124968D01*
X245830Y124882D01*
X245788Y124798D01*
X245742Y124715D01*
X245693Y124635D01*
X245641Y124556D01*
X245585Y124480D01*
X245526Y124407D01*
X245464Y124336D01*
X245399Y124267D01*
X245332Y124202D01*
X245261Y124139D01*
X245188Y124079D01*
X245113Y124023D01*
X245035Y123969D01*
X244955Y123919D01*
X244873Y123873D01*
X244789Y123830D01*
X244704Y123790D01*
X244616Y123754D01*
X244528Y123722D01*
X244438Y123694D01*
X244347Y123669D01*
X244255Y123649D01*
X244162Y123632D01*
X244069Y123619D01*
X243975Y123610D01*
X243881Y123605D01*
X243786Y123604D01*
X243692Y123607D01*
X243598Y123614D01*
X243505Y123625D01*
X243411Y123640D01*
X243319Y123659D01*
X243227Y123681D01*
X243137Y123708D01*
X243048Y123738D01*
X242960Y123772D01*
X242873Y123810D01*
X242789Y123851D01*
X242706Y123896D01*
X242625Y123944D01*
X242546Y123996D01*
X242469Y124051D01*
X242395Y124109D01*
X242323Y124170D01*
X242254Y124234D01*
X242188Y124301D01*
X242124Y124371D01*
X242064Y124443D01*
X242007Y124518D01*
X241952Y124595D01*
X241902Y124675D01*
X241854Y124756D01*
X241810Y124840D01*
X241770Y124925D01*
X241733Y125012D01*
X241700Y125100D01*
X241671Y125190D01*
X241645Y125280D01*
X241624Y125372D01*
X241606Y125465D01*
X241592Y125558D01*
X241582Y125652D01*
X241576Y125746D01*
X241574Y125840D01*
D10*
X238673Y107381D02*
X232001Y107381D01*
X238673Y107381D02*
X238772Y107383D01*
X238872Y107389D01*
X238971Y107398D01*
X239069Y107412D01*
X239167Y107429D01*
X239265Y107450D01*
X239361Y107475D01*
X239456Y107504D01*
X239551Y107536D01*
X239643Y107572D01*
X239735Y107611D01*
X239825Y107654D01*
X239913Y107700D01*
X239999Y107750D01*
X240083Y107803D01*
X240165Y107859D01*
X240245Y107919D01*
X240322Y107981D01*
X240397Y108047D01*
X240470Y108115D01*
X240539Y108186D01*
X240606Y108260D01*
X240670Y108336D01*
X240731Y108415D01*
X240789Y108496D01*
X240844Y108579D01*
X240895Y108664D01*
X240943Y108751D01*
X240988Y108840D01*
X241029Y108931D01*
X241067Y109023D01*
X241101Y109116D01*
X241131Y109211D01*
X241158Y109307D01*
X241181Y109404D01*
X241200Y109501D01*
X241215Y109600D01*
X241227Y109699D01*
X241235Y109798D01*
X241239Y109897D01*
X241239Y109997D01*
X241235Y110096D01*
X241227Y110195D01*
X241215Y110294D01*
X241200Y110393D01*
X241181Y110490D01*
X241158Y110587D01*
X241131Y110683D01*
X241101Y110778D01*
X241067Y110871D01*
X241029Y110963D01*
X240988Y111054D01*
X240943Y111143D01*
X240895Y111230D01*
X240844Y111315D01*
X240789Y111398D01*
X240731Y111479D01*
X240670Y111558D01*
X240606Y111634D01*
X240539Y111708D01*
X240470Y111779D01*
X240397Y111847D01*
X240322Y111913D01*
X240245Y111975D01*
X240165Y112035D01*
X240083Y112091D01*
X239999Y112144D01*
X239913Y112194D01*
X239825Y112240D01*
X239735Y112283D01*
X239643Y112322D01*
X239551Y112358D01*
X239456Y112390D01*
X239361Y112419D01*
X239265Y112444D01*
X239167Y112465D01*
X239069Y112482D01*
X238971Y112496D01*
X238872Y112505D01*
X238772Y112511D01*
X238673Y112513D01*
X232001Y112513D01*
X232001Y118647D02*
X241239Y118647D01*
X236620Y118647D02*
X235850Y117364D01*
X235851Y117364D02*
X235809Y117299D01*
X235764Y117236D01*
X235717Y117175D01*
X235666Y117117D01*
X235612Y117061D01*
X235556Y117008D01*
X235497Y116958D01*
X235435Y116912D01*
X235372Y116868D01*
X235306Y116827D01*
X235238Y116790D01*
X235168Y116757D01*
X235097Y116726D01*
X235025Y116700D01*
X234951Y116677D01*
X234876Y116658D01*
X234800Y116643D01*
X234724Y116632D01*
X234647Y116624D01*
X234570Y116620D01*
X234492Y116621D01*
X234415Y116625D01*
X234338Y116633D01*
X234262Y116645D01*
X234186Y116660D01*
X234111Y116680D01*
X234038Y116703D01*
X233965Y116730D01*
X233894Y116761D01*
X233825Y116795D01*
X233757Y116833D01*
X233692Y116873D01*
X233628Y116918D01*
X233567Y116965D01*
X233509Y117015D01*
X233452Y117069D01*
X233399Y117125D01*
X233349Y117183D01*
X233301Y117244D01*
X233257Y117308D01*
X233216Y117373D01*
X233179Y117441D01*
X233144Y117510D01*
X233114Y117581D01*
X233087Y117653D01*
X233063Y117727D01*
X233044Y117802D01*
X233028Y117877D01*
X233027Y117877D02*
X233007Y117998D01*
X232991Y118119D01*
X232978Y118240D01*
X232968Y118362D01*
X232963Y118484D01*
X232961Y118606D01*
X232963Y118728D01*
X232968Y118850D01*
X232977Y118972D01*
X232990Y119094D01*
X233007Y119215D01*
X233027Y119335D01*
X233050Y119455D01*
X233077Y119574D01*
X233108Y119693D01*
X233143Y119810D01*
X233181Y119926D01*
X233222Y120041D01*
X233267Y120155D01*
X233315Y120267D01*
X233366Y120378D01*
X233421Y120487D01*
X233479Y120594D01*
X233540Y120700D01*
X236620Y118647D02*
X237390Y119930D01*
X237389Y119930D02*
X237431Y119995D01*
X237476Y120058D01*
X237523Y120119D01*
X237574Y120177D01*
X237628Y120233D01*
X237684Y120286D01*
X237743Y120336D01*
X237805Y120382D01*
X237868Y120426D01*
X237934Y120467D01*
X238002Y120504D01*
X238072Y120537D01*
X238143Y120568D01*
X238215Y120594D01*
X238289Y120617D01*
X238364Y120636D01*
X238440Y120651D01*
X238516Y120662D01*
X238593Y120670D01*
X238671Y120674D01*
X238748Y120673D01*
X238825Y120669D01*
X238902Y120661D01*
X238978Y120649D01*
X239054Y120634D01*
X239129Y120614D01*
X239202Y120591D01*
X239275Y120564D01*
X239346Y120533D01*
X239415Y120499D01*
X239483Y120461D01*
X239548Y120421D01*
X239612Y120376D01*
X239673Y120329D01*
X239731Y120279D01*
X239788Y120225D01*
X239841Y120169D01*
X239891Y120111D01*
X239939Y120050D01*
X239983Y119986D01*
X240024Y119921D01*
X240061Y119853D01*
X240096Y119784D01*
X240126Y119713D01*
X240153Y119641D01*
X240177Y119567D01*
X240196Y119492D01*
X240212Y119417D01*
X240213Y119417D02*
X240233Y119296D01*
X240249Y119175D01*
X240262Y119054D01*
X240272Y118932D01*
X240277Y118810D01*
X240279Y118688D01*
X240277Y118566D01*
X240272Y118444D01*
X240263Y118322D01*
X240250Y118200D01*
X240233Y118079D01*
X240213Y117959D01*
X240190Y117839D01*
X240163Y117720D01*
X240132Y117602D01*
X240097Y117484D01*
X240060Y117368D01*
X240018Y117253D01*
X239973Y117140D01*
X239925Y117027D01*
X239874Y116916D01*
X239819Y116807D01*
X239761Y116700D01*
X239700Y116594D01*
X234054Y124481D02*
X232001Y127047D01*
X241239Y127047D01*
X241239Y124481D02*
X241239Y129613D01*
D13*
X434590Y79250D02*
X459230Y79250D01*
X459230Y123950D02*
X434590Y123950D01*
D14*
X337500Y112400D02*
X337500Y65400D01*
X297500Y65400D01*
X297500Y112400D01*
X337500Y112400D01*
D15*
X327200Y107950D02*
X327200Y101600D01*
X330200Y76200D02*
X323850Y76200D01*
X326950Y79350D02*
X326950Y73000D01*
X304750Y104900D02*
X304816Y104958D01*
X304879Y105019D01*
X304939Y105082D01*
X304997Y105148D01*
X305051Y105217D01*
X305103Y105288D01*
X305151Y105361D01*
X305196Y105436D01*
X305237Y105513D01*
X305275Y105592D01*
X305309Y105673D01*
X305340Y105755D01*
X305367Y105838D01*
X305390Y105923D01*
X305409Y106008D01*
X305425Y106095D01*
X305437Y106181D01*
X305445Y106269D01*
X305449Y106356D01*
X305449Y106444D01*
X305445Y106531D01*
X305437Y106619D01*
X305425Y106705D01*
X305409Y106792D01*
X305390Y106877D01*
X305367Y106962D01*
X305340Y107045D01*
X305309Y107127D01*
X305275Y107208D01*
X305237Y107287D01*
X305196Y107364D01*
X305151Y107439D01*
X305103Y107512D01*
X305051Y107583D01*
X304997Y107652D01*
X304939Y107718D01*
X304879Y107781D01*
X304816Y107842D01*
X304750Y107900D01*
X304750Y104900D02*
X304684Y104842D01*
X304621Y104781D01*
X304561Y104718D01*
X304503Y104652D01*
X304449Y104583D01*
X304397Y104512D01*
X304349Y104439D01*
X304304Y104364D01*
X304263Y104287D01*
X304225Y104208D01*
X304191Y104127D01*
X304160Y104045D01*
X304133Y103962D01*
X304110Y103877D01*
X304091Y103792D01*
X304075Y103705D01*
X304063Y103619D01*
X304055Y103531D01*
X304051Y103444D01*
X304051Y103356D01*
X304055Y103269D01*
X304063Y103181D01*
X304075Y103095D01*
X304091Y103008D01*
X304110Y102923D01*
X304133Y102838D01*
X304160Y102755D01*
X304191Y102673D01*
X304225Y102592D01*
X304263Y102513D01*
X304304Y102436D01*
X304349Y102361D01*
X304397Y102288D01*
X304449Y102217D01*
X304503Y102148D01*
X304561Y102082D01*
X304621Y102019D01*
X304684Y101958D01*
X304750Y101900D01*
X304750Y76150D02*
X304816Y76092D01*
X304879Y76031D01*
X304939Y75968D01*
X304997Y75902D01*
X305051Y75833D01*
X305103Y75762D01*
X305151Y75689D01*
X305196Y75614D01*
X305237Y75537D01*
X305275Y75458D01*
X305309Y75377D01*
X305340Y75295D01*
X305367Y75212D01*
X305390Y75127D01*
X305409Y75042D01*
X305425Y74955D01*
X305437Y74869D01*
X305445Y74781D01*
X305449Y74694D01*
X305449Y74606D01*
X305445Y74519D01*
X305437Y74431D01*
X305425Y74345D01*
X305409Y74258D01*
X305390Y74173D01*
X305367Y74088D01*
X305340Y74005D01*
X305309Y73923D01*
X305275Y73842D01*
X305237Y73763D01*
X305196Y73686D01*
X305151Y73611D01*
X305103Y73538D01*
X305051Y73467D01*
X304997Y73398D01*
X304939Y73332D01*
X304879Y73269D01*
X304816Y73208D01*
X304750Y73150D01*
X304684Y73092D01*
X304621Y73031D01*
X304561Y72968D01*
X304503Y72902D01*
X304449Y72833D01*
X304397Y72762D01*
X304349Y72689D01*
X304304Y72614D01*
X304263Y72537D01*
X304225Y72458D01*
X304191Y72377D01*
X304160Y72295D01*
X304133Y72212D01*
X304110Y72127D01*
X304091Y72042D01*
X304075Y71955D01*
X304063Y71869D01*
X304055Y71781D01*
X304051Y71694D01*
X304051Y71606D01*
X304055Y71519D01*
X304063Y71431D01*
X304075Y71345D01*
X304091Y71258D01*
X304110Y71173D01*
X304133Y71088D01*
X304160Y71005D01*
X304191Y70923D01*
X304225Y70842D01*
X304263Y70763D01*
X304304Y70686D01*
X304349Y70611D01*
X304397Y70538D01*
X304449Y70467D01*
X304503Y70398D01*
X304561Y70332D01*
X304621Y70269D01*
X304684Y70208D01*
X304750Y70150D01*
D16*
X334000Y88900D03*
D10*
X575691Y67003D02*
X583057Y67003D01*
X575691Y67003D02*
X575691Y69049D01*
X575693Y69138D01*
X575699Y69227D01*
X575709Y69316D01*
X575722Y69404D01*
X575739Y69492D01*
X575761Y69579D01*
X575786Y69664D01*
X575814Y69749D01*
X575847Y69832D01*
X575883Y69914D01*
X575922Y69994D01*
X575965Y70072D01*
X576011Y70148D01*
X576061Y70223D01*
X576114Y70295D01*
X576170Y70364D01*
X576229Y70431D01*
X576290Y70496D01*
X576355Y70557D01*
X576422Y70616D01*
X576491Y70672D01*
X576563Y70725D01*
X576638Y70775D01*
X576714Y70821D01*
X576792Y70864D01*
X576872Y70903D01*
X576954Y70939D01*
X577037Y70972D01*
X577122Y71000D01*
X577207Y71025D01*
X577294Y71047D01*
X577382Y71064D01*
X577470Y71077D01*
X577559Y71087D01*
X577648Y71093D01*
X577737Y71095D01*
X577826Y71093D01*
X577915Y71087D01*
X578004Y71077D01*
X578092Y71064D01*
X578180Y71047D01*
X578267Y71025D01*
X578352Y71000D01*
X578437Y70972D01*
X578520Y70939D01*
X578602Y70903D01*
X578682Y70864D01*
X578760Y70821D01*
X578836Y70775D01*
X578911Y70725D01*
X578983Y70672D01*
X579052Y70616D01*
X579119Y70557D01*
X579184Y70496D01*
X579245Y70431D01*
X579304Y70364D01*
X579360Y70295D01*
X579413Y70223D01*
X579463Y70148D01*
X579509Y70072D01*
X579552Y69994D01*
X579591Y69914D01*
X579627Y69832D01*
X579660Y69749D01*
X579688Y69664D01*
X579713Y69579D01*
X579735Y69492D01*
X579752Y69404D01*
X579765Y69316D01*
X579775Y69227D01*
X579781Y69138D01*
X579783Y69049D01*
X579783Y67003D01*
X579783Y69458D02*
X583057Y71095D01*
X583057Y74267D02*
X583057Y76722D01*
X583055Y76800D01*
X583050Y76878D01*
X583040Y76955D01*
X583027Y77032D01*
X583011Y77108D01*
X582991Y77183D01*
X582967Y77257D01*
X582940Y77330D01*
X582909Y77402D01*
X582875Y77472D01*
X582838Y77541D01*
X582797Y77607D01*
X582753Y77672D01*
X582707Y77734D01*
X582657Y77794D01*
X582605Y77852D01*
X582550Y77907D01*
X582492Y77959D01*
X582432Y78009D01*
X582370Y78055D01*
X582305Y78099D01*
X582239Y78140D01*
X582170Y78177D01*
X582100Y78211D01*
X582028Y78242D01*
X581955Y78269D01*
X581881Y78293D01*
X581806Y78313D01*
X581730Y78329D01*
X581653Y78342D01*
X581576Y78352D01*
X581498Y78357D01*
X581420Y78359D01*
X580602Y78359D01*
X580522Y78357D01*
X580442Y78351D01*
X580362Y78341D01*
X580283Y78328D01*
X580204Y78310D01*
X580127Y78289D01*
X580051Y78263D01*
X579976Y78234D01*
X579902Y78202D01*
X579830Y78166D01*
X579760Y78126D01*
X579693Y78083D01*
X579627Y78037D01*
X579564Y77987D01*
X579503Y77935D01*
X579444Y77880D01*
X579389Y77821D01*
X579337Y77761D01*
X579287Y77697D01*
X579241Y77631D01*
X579198Y77564D01*
X579158Y77494D01*
X579122Y77422D01*
X579090Y77348D01*
X579061Y77274D01*
X579035Y77197D01*
X579014Y77120D01*
X578996Y77041D01*
X578983Y76962D01*
X578973Y76882D01*
X578967Y76802D01*
X578965Y76722D01*
X578965Y74267D01*
X575691Y74267D01*
X575691Y78359D01*
X541909Y66421D02*
X534543Y66421D01*
X534543Y68467D01*
X534545Y68556D01*
X534551Y68645D01*
X534561Y68734D01*
X534574Y68822D01*
X534591Y68910D01*
X534613Y68997D01*
X534638Y69082D01*
X534666Y69167D01*
X534699Y69250D01*
X534735Y69332D01*
X534774Y69412D01*
X534817Y69490D01*
X534863Y69566D01*
X534913Y69641D01*
X534966Y69713D01*
X535022Y69782D01*
X535081Y69849D01*
X535142Y69914D01*
X535207Y69975D01*
X535274Y70034D01*
X535343Y70090D01*
X535415Y70143D01*
X535490Y70193D01*
X535566Y70239D01*
X535644Y70282D01*
X535724Y70321D01*
X535806Y70357D01*
X535889Y70390D01*
X535974Y70418D01*
X536059Y70443D01*
X536146Y70465D01*
X536234Y70482D01*
X536322Y70495D01*
X536411Y70505D01*
X536500Y70511D01*
X536589Y70513D01*
X536678Y70511D01*
X536767Y70505D01*
X536856Y70495D01*
X536944Y70482D01*
X537032Y70465D01*
X537119Y70443D01*
X537204Y70418D01*
X537289Y70390D01*
X537372Y70357D01*
X537454Y70321D01*
X537534Y70282D01*
X537612Y70239D01*
X537688Y70193D01*
X537763Y70143D01*
X537835Y70090D01*
X537904Y70034D01*
X537971Y69975D01*
X538036Y69914D01*
X538097Y69849D01*
X538156Y69782D01*
X538212Y69713D01*
X538265Y69641D01*
X538315Y69566D01*
X538361Y69490D01*
X538404Y69412D01*
X538443Y69332D01*
X538479Y69250D01*
X538512Y69167D01*
X538540Y69082D01*
X538565Y68997D01*
X538587Y68910D01*
X538604Y68822D01*
X538617Y68734D01*
X538627Y68645D01*
X538633Y68556D01*
X538635Y68467D01*
X538635Y66421D01*
X538635Y68876D02*
X541909Y70513D01*
X537817Y73685D02*
X537817Y76140D01*
X537819Y76218D01*
X537824Y76296D01*
X537834Y76373D01*
X537847Y76450D01*
X537863Y76526D01*
X537883Y76601D01*
X537907Y76675D01*
X537934Y76748D01*
X537965Y76820D01*
X537999Y76890D01*
X538036Y76959D01*
X538077Y77025D01*
X538121Y77090D01*
X538167Y77152D01*
X538217Y77212D01*
X538269Y77270D01*
X538324Y77325D01*
X538382Y77377D01*
X538442Y77427D01*
X538504Y77473D01*
X538569Y77517D01*
X538636Y77558D01*
X538704Y77595D01*
X538774Y77629D01*
X538846Y77660D01*
X538919Y77687D01*
X538993Y77711D01*
X539068Y77731D01*
X539144Y77747D01*
X539221Y77760D01*
X539298Y77770D01*
X539376Y77775D01*
X539454Y77777D01*
X539863Y77777D01*
X539952Y77775D01*
X540041Y77769D01*
X540130Y77759D01*
X540218Y77746D01*
X540306Y77729D01*
X540393Y77707D01*
X540478Y77682D01*
X540563Y77654D01*
X540646Y77621D01*
X540728Y77585D01*
X540808Y77546D01*
X540886Y77503D01*
X540962Y77457D01*
X541037Y77407D01*
X541109Y77354D01*
X541178Y77298D01*
X541245Y77239D01*
X541310Y77178D01*
X541371Y77113D01*
X541430Y77046D01*
X541486Y76977D01*
X541539Y76905D01*
X541589Y76830D01*
X541635Y76754D01*
X541678Y76676D01*
X541717Y76596D01*
X541753Y76514D01*
X541786Y76431D01*
X541814Y76346D01*
X541839Y76261D01*
X541861Y76174D01*
X541878Y76086D01*
X541891Y75998D01*
X541901Y75909D01*
X541907Y75820D01*
X541909Y75731D01*
X541907Y75642D01*
X541901Y75553D01*
X541891Y75464D01*
X541878Y75376D01*
X541861Y75288D01*
X541839Y75201D01*
X541814Y75116D01*
X541786Y75031D01*
X541753Y74948D01*
X541717Y74866D01*
X541678Y74786D01*
X541635Y74708D01*
X541589Y74632D01*
X541539Y74557D01*
X541486Y74485D01*
X541430Y74416D01*
X541371Y74349D01*
X541310Y74284D01*
X541245Y74223D01*
X541178Y74164D01*
X541109Y74108D01*
X541037Y74055D01*
X540962Y74005D01*
X540886Y73959D01*
X540808Y73916D01*
X540728Y73877D01*
X540646Y73841D01*
X540563Y73808D01*
X540478Y73780D01*
X540393Y73755D01*
X540306Y73733D01*
X540218Y73716D01*
X540130Y73703D01*
X540041Y73693D01*
X539952Y73687D01*
X539863Y73685D01*
X537817Y73685D01*
X537703Y73687D01*
X537589Y73693D01*
X537475Y73703D01*
X537361Y73717D01*
X537248Y73735D01*
X537136Y73757D01*
X537025Y73782D01*
X536915Y73812D01*
X536805Y73845D01*
X536697Y73882D01*
X536591Y73923D01*
X536485Y73968D01*
X536382Y74016D01*
X536280Y74068D01*
X536180Y74124D01*
X536082Y74182D01*
X535986Y74245D01*
X535893Y74310D01*
X535801Y74379D01*
X535713Y74451D01*
X535626Y74526D01*
X535543Y74604D01*
X535462Y74685D01*
X535384Y74768D01*
X535309Y74854D01*
X535237Y74943D01*
X535168Y75035D01*
X535103Y75128D01*
X535041Y75224D01*
X534982Y75322D01*
X534926Y75422D01*
X534874Y75524D01*
X534826Y75627D01*
X534781Y75732D01*
X534740Y75839D01*
X534703Y75947D01*
X534670Y76057D01*
X534640Y76167D01*
X534615Y76278D01*
X534593Y76390D01*
X534575Y76503D01*
X534561Y76617D01*
X534551Y76731D01*
X534545Y76845D01*
X534543Y76959D01*
X201549Y82028D02*
X201549Y83665D01*
X201549Y82028D02*
X201547Y81950D01*
X201542Y81872D01*
X201532Y81795D01*
X201519Y81718D01*
X201503Y81642D01*
X201483Y81567D01*
X201459Y81493D01*
X201432Y81420D01*
X201401Y81348D01*
X201367Y81278D01*
X201330Y81210D01*
X201289Y81143D01*
X201245Y81078D01*
X201199Y81016D01*
X201149Y80956D01*
X201097Y80898D01*
X201042Y80843D01*
X200984Y80791D01*
X200924Y80741D01*
X200862Y80695D01*
X200797Y80651D01*
X200731Y80610D01*
X200662Y80573D01*
X200592Y80539D01*
X200520Y80508D01*
X200447Y80481D01*
X200373Y80457D01*
X200298Y80437D01*
X200222Y80421D01*
X200145Y80408D01*
X200068Y80398D01*
X199990Y80393D01*
X199912Y80391D01*
X195820Y80391D01*
X195740Y80393D01*
X195660Y80399D01*
X195580Y80409D01*
X195501Y80422D01*
X195422Y80440D01*
X195345Y80461D01*
X195269Y80487D01*
X195194Y80516D01*
X195120Y80548D01*
X195048Y80584D01*
X194978Y80624D01*
X194911Y80667D01*
X194845Y80713D01*
X194782Y80763D01*
X194721Y80815D01*
X194662Y80870D01*
X194607Y80929D01*
X194555Y80989D01*
X194505Y81053D01*
X194459Y81118D01*
X194416Y81186D01*
X194376Y81256D01*
X194340Y81328D01*
X194308Y81402D01*
X194279Y81476D01*
X194254Y81553D01*
X194232Y81630D01*
X194214Y81709D01*
X194201Y81788D01*
X194191Y81867D01*
X194185Y81948D01*
X194183Y82028D01*
X194183Y83665D01*
X195820Y86510D02*
X194183Y88556D01*
X201549Y88556D01*
X201549Y86510D02*
X201549Y90602D01*
X177927Y74928D02*
X170561Y74928D01*
X170561Y76974D01*
X170563Y77063D01*
X170569Y77152D01*
X170579Y77241D01*
X170592Y77329D01*
X170609Y77417D01*
X170631Y77504D01*
X170656Y77589D01*
X170684Y77674D01*
X170717Y77757D01*
X170753Y77839D01*
X170792Y77919D01*
X170835Y77997D01*
X170881Y78073D01*
X170931Y78148D01*
X170984Y78220D01*
X171040Y78289D01*
X171099Y78356D01*
X171160Y78421D01*
X171225Y78482D01*
X171292Y78541D01*
X171361Y78597D01*
X171433Y78650D01*
X171508Y78700D01*
X171584Y78746D01*
X171662Y78789D01*
X171742Y78828D01*
X171824Y78864D01*
X171907Y78897D01*
X171992Y78925D01*
X172077Y78950D01*
X172164Y78972D01*
X172252Y78989D01*
X172340Y79002D01*
X172429Y79012D01*
X172518Y79018D01*
X172607Y79020D01*
X172696Y79018D01*
X172785Y79012D01*
X172874Y79002D01*
X172962Y78989D01*
X173050Y78972D01*
X173137Y78950D01*
X173222Y78925D01*
X173307Y78897D01*
X173390Y78864D01*
X173472Y78828D01*
X173552Y78789D01*
X173630Y78746D01*
X173706Y78700D01*
X173781Y78650D01*
X173853Y78597D01*
X173922Y78541D01*
X173989Y78482D01*
X174054Y78421D01*
X174115Y78356D01*
X174174Y78289D01*
X174230Y78220D01*
X174283Y78148D01*
X174333Y78073D01*
X174379Y77997D01*
X174422Y77919D01*
X174461Y77839D01*
X174497Y77757D01*
X174530Y77674D01*
X174558Y77589D01*
X174583Y77504D01*
X174605Y77417D01*
X174622Y77329D01*
X174635Y77241D01*
X174645Y77152D01*
X174651Y77063D01*
X174653Y76974D01*
X174653Y74928D01*
X174653Y77383D02*
X177927Y79020D01*
X172198Y82192D02*
X170561Y84238D01*
X177927Y84238D01*
X177927Y82192D02*
X177927Y86284D01*
X172198Y89507D02*
X170561Y91553D01*
X177927Y91553D01*
X177927Y89507D02*
X177927Y93599D01*
X228219Y82395D02*
X228219Y80758D01*
X228217Y80680D01*
X228212Y80602D01*
X228202Y80525D01*
X228189Y80448D01*
X228173Y80372D01*
X228153Y80297D01*
X228129Y80223D01*
X228102Y80150D01*
X228071Y80078D01*
X228037Y80008D01*
X228000Y79940D01*
X227959Y79873D01*
X227915Y79808D01*
X227869Y79746D01*
X227819Y79686D01*
X227767Y79628D01*
X227712Y79573D01*
X227654Y79521D01*
X227594Y79471D01*
X227532Y79425D01*
X227467Y79381D01*
X227401Y79340D01*
X227332Y79303D01*
X227262Y79269D01*
X227190Y79238D01*
X227117Y79211D01*
X227043Y79187D01*
X226968Y79167D01*
X226892Y79151D01*
X226815Y79138D01*
X226738Y79128D01*
X226660Y79123D01*
X226582Y79121D01*
X222490Y79121D01*
X222410Y79123D01*
X222330Y79129D01*
X222250Y79139D01*
X222171Y79152D01*
X222092Y79170D01*
X222015Y79191D01*
X221939Y79217D01*
X221864Y79246D01*
X221790Y79278D01*
X221718Y79314D01*
X221648Y79354D01*
X221581Y79397D01*
X221515Y79443D01*
X221452Y79493D01*
X221391Y79545D01*
X221332Y79600D01*
X221277Y79659D01*
X221225Y79719D01*
X221175Y79783D01*
X221129Y79848D01*
X221086Y79916D01*
X221046Y79986D01*
X221010Y80058D01*
X220978Y80132D01*
X220949Y80206D01*
X220924Y80283D01*
X220902Y80360D01*
X220884Y80439D01*
X220871Y80518D01*
X220861Y80597D01*
X220855Y80678D01*
X220853Y80758D01*
X220853Y82395D01*
X228219Y85240D02*
X228219Y87286D01*
X228217Y87375D01*
X228211Y87464D01*
X228201Y87553D01*
X228188Y87641D01*
X228171Y87729D01*
X228149Y87816D01*
X228124Y87901D01*
X228096Y87986D01*
X228063Y88069D01*
X228027Y88151D01*
X227988Y88231D01*
X227945Y88309D01*
X227899Y88385D01*
X227849Y88460D01*
X227796Y88532D01*
X227740Y88601D01*
X227681Y88668D01*
X227620Y88733D01*
X227555Y88794D01*
X227488Y88853D01*
X227419Y88909D01*
X227347Y88962D01*
X227272Y89012D01*
X227196Y89058D01*
X227118Y89101D01*
X227038Y89140D01*
X226956Y89176D01*
X226873Y89209D01*
X226788Y89237D01*
X226703Y89262D01*
X226616Y89284D01*
X226528Y89301D01*
X226440Y89314D01*
X226351Y89324D01*
X226262Y89330D01*
X226173Y89332D01*
X226084Y89330D01*
X225995Y89324D01*
X225906Y89314D01*
X225818Y89301D01*
X225730Y89284D01*
X225643Y89262D01*
X225558Y89237D01*
X225473Y89209D01*
X225390Y89176D01*
X225308Y89140D01*
X225228Y89101D01*
X225150Y89058D01*
X225074Y89012D01*
X224999Y88962D01*
X224927Y88909D01*
X224858Y88853D01*
X224791Y88794D01*
X224726Y88733D01*
X224665Y88668D01*
X224606Y88601D01*
X224550Y88532D01*
X224497Y88460D01*
X224447Y88385D01*
X224401Y88309D01*
X224358Y88231D01*
X224319Y88151D01*
X224283Y88069D01*
X224250Y87986D01*
X224222Y87901D01*
X224197Y87816D01*
X224175Y87729D01*
X224158Y87641D01*
X224145Y87553D01*
X224135Y87464D01*
X224129Y87375D01*
X224127Y87286D01*
X220853Y87695D02*
X220853Y85240D01*
X220853Y87695D02*
X220855Y87774D01*
X220861Y87853D01*
X220870Y87932D01*
X220883Y88010D01*
X220901Y88087D01*
X220921Y88163D01*
X220946Y88238D01*
X220974Y88312D01*
X221005Y88385D01*
X221041Y88456D01*
X221079Y88525D01*
X221121Y88592D01*
X221166Y88657D01*
X221214Y88720D01*
X221265Y88781D01*
X221319Y88838D01*
X221375Y88894D01*
X221434Y88946D01*
X221496Y88996D01*
X221560Y89042D01*
X221626Y89086D01*
X221694Y89126D01*
X221764Y89162D01*
X221836Y89196D01*
X221910Y89226D01*
X221984Y89252D01*
X222060Y89275D01*
X222137Y89293D01*
X222214Y89309D01*
X222293Y89320D01*
X222371Y89328D01*
X222450Y89332D01*
X222530Y89332D01*
X222609Y89328D01*
X222687Y89320D01*
X222766Y89309D01*
X222843Y89293D01*
X222920Y89275D01*
X222996Y89252D01*
X223070Y89226D01*
X223144Y89196D01*
X223216Y89162D01*
X223286Y89126D01*
X223354Y89086D01*
X223420Y89042D01*
X223484Y88996D01*
X223546Y88946D01*
X223605Y88894D01*
X223661Y88838D01*
X223715Y88781D01*
X223766Y88720D01*
X223814Y88657D01*
X223859Y88592D01*
X223901Y88525D01*
X223939Y88456D01*
X223975Y88385D01*
X224006Y88312D01*
X224034Y88238D01*
X224059Y88163D01*
X224079Y88087D01*
X224097Y88010D01*
X224110Y87932D01*
X224119Y87853D01*
X224125Y87774D01*
X224127Y87695D01*
X224127Y86059D01*
D14*
X410030Y94510D02*
X410030Y52560D01*
X362130Y52560D02*
X362130Y94510D01*
X362680Y80010D02*
X362838Y80008D01*
X362997Y80002D01*
X363155Y79992D01*
X363312Y79978D01*
X363470Y79961D01*
X363626Y79939D01*
X363783Y79914D01*
X363938Y79884D01*
X364093Y79851D01*
X364247Y79814D01*
X364400Y79773D01*
X364552Y79728D01*
X364702Y79679D01*
X364852Y79627D01*
X365000Y79571D01*
X365147Y79511D01*
X365292Y79448D01*
X365435Y79381D01*
X365577Y79311D01*
X365717Y79237D01*
X365855Y79159D01*
X365991Y79078D01*
X366125Y78994D01*
X366257Y78907D01*
X366387Y78816D01*
X366514Y78722D01*
X366639Y78625D01*
X366762Y78524D01*
X366882Y78421D01*
X366999Y78315D01*
X367114Y78206D01*
X367226Y78094D01*
X367335Y77979D01*
X367441Y77862D01*
X367544Y77742D01*
X367645Y77619D01*
X367742Y77494D01*
X367836Y77367D01*
X367927Y77237D01*
X368014Y77105D01*
X368098Y76971D01*
X368179Y76835D01*
X368257Y76697D01*
X368331Y76557D01*
X368401Y76415D01*
X368468Y76272D01*
X368531Y76127D01*
X368591Y75980D01*
X368647Y75832D01*
X368699Y75682D01*
X368748Y75532D01*
X368793Y75380D01*
X368834Y75227D01*
X368871Y75073D01*
X368904Y74918D01*
X368934Y74763D01*
X368959Y74606D01*
X368981Y74450D01*
X368998Y74292D01*
X369012Y74135D01*
X369022Y73977D01*
X369028Y73818D01*
X369030Y73660D01*
X369028Y73502D01*
X369022Y73343D01*
X369012Y73185D01*
X368998Y73028D01*
X368981Y72870D01*
X368959Y72714D01*
X368934Y72557D01*
X368904Y72402D01*
X368871Y72247D01*
X368834Y72093D01*
X368793Y71940D01*
X368748Y71788D01*
X368699Y71638D01*
X368647Y71488D01*
X368591Y71340D01*
X368531Y71193D01*
X368468Y71048D01*
X368401Y70905D01*
X368331Y70763D01*
X368257Y70623D01*
X368179Y70485D01*
X368098Y70349D01*
X368014Y70215D01*
X367927Y70083D01*
X367836Y69953D01*
X367742Y69826D01*
X367645Y69701D01*
X367544Y69578D01*
X367441Y69458D01*
X367335Y69341D01*
X367226Y69226D01*
X367114Y69114D01*
X366999Y69005D01*
X366882Y68899D01*
X366762Y68796D01*
X366639Y68695D01*
X366514Y68598D01*
X366387Y68504D01*
X366257Y68413D01*
X366125Y68326D01*
X365991Y68242D01*
X365855Y68161D01*
X365717Y68083D01*
X365577Y68009D01*
X365435Y67939D01*
X365292Y67872D01*
X365147Y67809D01*
X365000Y67749D01*
X364852Y67693D01*
X364702Y67641D01*
X364552Y67592D01*
X364400Y67547D01*
X364247Y67506D01*
X364093Y67469D01*
X363938Y67436D01*
X363783Y67406D01*
X363626Y67381D01*
X363470Y67359D01*
X363312Y67342D01*
X363155Y67328D01*
X362997Y67318D01*
X362838Y67312D01*
X362680Y67310D01*
D10*
X421259Y40485D02*
X421259Y38848D01*
X421257Y38770D01*
X421252Y38692D01*
X421242Y38615D01*
X421229Y38538D01*
X421213Y38462D01*
X421193Y38387D01*
X421169Y38313D01*
X421142Y38240D01*
X421111Y38168D01*
X421077Y38098D01*
X421040Y38030D01*
X420999Y37963D01*
X420955Y37898D01*
X420909Y37836D01*
X420859Y37776D01*
X420807Y37718D01*
X420752Y37663D01*
X420694Y37611D01*
X420634Y37561D01*
X420572Y37515D01*
X420507Y37471D01*
X420441Y37430D01*
X420372Y37393D01*
X420302Y37359D01*
X420230Y37328D01*
X420157Y37301D01*
X420083Y37277D01*
X420008Y37257D01*
X419932Y37241D01*
X419855Y37228D01*
X419778Y37218D01*
X419700Y37213D01*
X419622Y37211D01*
X415530Y37211D01*
X415450Y37213D01*
X415370Y37219D01*
X415290Y37229D01*
X415211Y37242D01*
X415132Y37260D01*
X415055Y37281D01*
X414979Y37307D01*
X414904Y37336D01*
X414830Y37368D01*
X414758Y37404D01*
X414688Y37444D01*
X414621Y37487D01*
X414555Y37533D01*
X414492Y37583D01*
X414431Y37635D01*
X414372Y37690D01*
X414317Y37749D01*
X414265Y37809D01*
X414215Y37873D01*
X414169Y37938D01*
X414126Y38006D01*
X414086Y38076D01*
X414050Y38148D01*
X414018Y38222D01*
X413989Y38296D01*
X413964Y38373D01*
X413942Y38450D01*
X413924Y38529D01*
X413911Y38608D01*
X413901Y38687D01*
X413895Y38768D01*
X413893Y38848D01*
X413893Y40485D01*
X417167Y43330D02*
X417167Y45785D01*
X417169Y45863D01*
X417174Y45941D01*
X417184Y46018D01*
X417197Y46095D01*
X417213Y46171D01*
X417233Y46246D01*
X417257Y46320D01*
X417284Y46393D01*
X417315Y46465D01*
X417349Y46535D01*
X417386Y46604D01*
X417427Y46670D01*
X417471Y46735D01*
X417517Y46797D01*
X417567Y46857D01*
X417619Y46915D01*
X417674Y46970D01*
X417732Y47022D01*
X417792Y47072D01*
X417854Y47118D01*
X417919Y47162D01*
X417986Y47203D01*
X418054Y47240D01*
X418124Y47274D01*
X418196Y47305D01*
X418269Y47332D01*
X418343Y47356D01*
X418418Y47376D01*
X418494Y47392D01*
X418571Y47405D01*
X418648Y47415D01*
X418726Y47420D01*
X418804Y47422D01*
X419213Y47422D01*
X419302Y47420D01*
X419391Y47414D01*
X419480Y47404D01*
X419568Y47391D01*
X419656Y47374D01*
X419743Y47352D01*
X419828Y47327D01*
X419913Y47299D01*
X419996Y47266D01*
X420078Y47230D01*
X420158Y47191D01*
X420236Y47148D01*
X420312Y47102D01*
X420387Y47052D01*
X420459Y46999D01*
X420528Y46943D01*
X420595Y46884D01*
X420660Y46823D01*
X420721Y46758D01*
X420780Y46691D01*
X420836Y46622D01*
X420889Y46550D01*
X420939Y46475D01*
X420985Y46399D01*
X421028Y46321D01*
X421067Y46241D01*
X421103Y46159D01*
X421136Y46076D01*
X421164Y45991D01*
X421189Y45906D01*
X421211Y45819D01*
X421228Y45731D01*
X421241Y45643D01*
X421251Y45554D01*
X421257Y45465D01*
X421259Y45376D01*
X421257Y45287D01*
X421251Y45198D01*
X421241Y45109D01*
X421228Y45021D01*
X421211Y44933D01*
X421189Y44846D01*
X421164Y44761D01*
X421136Y44676D01*
X421103Y44593D01*
X421067Y44511D01*
X421028Y44431D01*
X420985Y44353D01*
X420939Y44277D01*
X420889Y44202D01*
X420836Y44130D01*
X420780Y44061D01*
X420721Y43994D01*
X420660Y43929D01*
X420595Y43868D01*
X420528Y43809D01*
X420459Y43753D01*
X420387Y43700D01*
X420312Y43650D01*
X420236Y43604D01*
X420158Y43561D01*
X420078Y43522D01*
X419996Y43486D01*
X419913Y43453D01*
X419828Y43425D01*
X419743Y43400D01*
X419656Y43378D01*
X419568Y43361D01*
X419480Y43348D01*
X419391Y43338D01*
X419302Y43332D01*
X419213Y43330D01*
X417167Y43330D01*
X417053Y43332D01*
X416939Y43338D01*
X416825Y43348D01*
X416711Y43362D01*
X416598Y43380D01*
X416486Y43402D01*
X416375Y43427D01*
X416265Y43457D01*
X416155Y43490D01*
X416047Y43527D01*
X415941Y43568D01*
X415835Y43613D01*
X415732Y43661D01*
X415630Y43713D01*
X415530Y43769D01*
X415432Y43827D01*
X415336Y43890D01*
X415243Y43955D01*
X415151Y44024D01*
X415063Y44096D01*
X414976Y44171D01*
X414893Y44249D01*
X414812Y44330D01*
X414734Y44413D01*
X414659Y44499D01*
X414587Y44588D01*
X414518Y44680D01*
X414453Y44773D01*
X414391Y44869D01*
X414332Y44967D01*
X414276Y45067D01*
X414224Y45169D01*
X414176Y45272D01*
X414131Y45377D01*
X414090Y45484D01*
X414053Y45592D01*
X414020Y45702D01*
X413990Y45812D01*
X413965Y45923D01*
X413943Y46035D01*
X413925Y46148D01*
X413911Y46262D01*
X413901Y46376D01*
X413895Y46490D01*
X413893Y46604D01*
X461899Y40485D02*
X461899Y38848D01*
X461897Y38770D01*
X461892Y38692D01*
X461882Y38615D01*
X461869Y38538D01*
X461853Y38462D01*
X461833Y38387D01*
X461809Y38313D01*
X461782Y38240D01*
X461751Y38168D01*
X461717Y38098D01*
X461680Y38030D01*
X461639Y37963D01*
X461595Y37898D01*
X461549Y37836D01*
X461499Y37776D01*
X461447Y37718D01*
X461392Y37663D01*
X461334Y37611D01*
X461274Y37561D01*
X461212Y37515D01*
X461147Y37471D01*
X461081Y37430D01*
X461012Y37393D01*
X460942Y37359D01*
X460870Y37328D01*
X460797Y37301D01*
X460723Y37277D01*
X460648Y37257D01*
X460572Y37241D01*
X460495Y37228D01*
X460418Y37218D01*
X460340Y37213D01*
X460262Y37211D01*
X456170Y37211D01*
X456090Y37213D01*
X456010Y37219D01*
X455930Y37229D01*
X455851Y37242D01*
X455772Y37260D01*
X455695Y37281D01*
X455619Y37307D01*
X455544Y37336D01*
X455470Y37368D01*
X455398Y37404D01*
X455328Y37444D01*
X455261Y37487D01*
X455195Y37533D01*
X455132Y37583D01*
X455071Y37635D01*
X455012Y37690D01*
X454957Y37749D01*
X454905Y37809D01*
X454855Y37873D01*
X454809Y37938D01*
X454766Y38006D01*
X454726Y38076D01*
X454690Y38148D01*
X454658Y38222D01*
X454629Y38296D01*
X454604Y38373D01*
X454582Y38450D01*
X454564Y38529D01*
X454551Y38608D01*
X454541Y38687D01*
X454535Y38768D01*
X454533Y38848D01*
X454533Y40485D01*
X454533Y43330D02*
X455351Y43330D01*
X454533Y43330D02*
X454533Y47422D01*
X461899Y45376D01*
X502539Y40485D02*
X502539Y38848D01*
X502537Y38770D01*
X502532Y38692D01*
X502522Y38615D01*
X502509Y38538D01*
X502493Y38462D01*
X502473Y38387D01*
X502449Y38313D01*
X502422Y38240D01*
X502391Y38168D01*
X502357Y38098D01*
X502320Y38030D01*
X502279Y37963D01*
X502235Y37898D01*
X502189Y37836D01*
X502139Y37776D01*
X502087Y37718D01*
X502032Y37663D01*
X501974Y37611D01*
X501914Y37561D01*
X501852Y37515D01*
X501787Y37471D01*
X501721Y37430D01*
X501652Y37393D01*
X501582Y37359D01*
X501510Y37328D01*
X501437Y37301D01*
X501363Y37277D01*
X501288Y37257D01*
X501212Y37241D01*
X501135Y37228D01*
X501058Y37218D01*
X500980Y37213D01*
X500902Y37211D01*
X496810Y37211D01*
X496730Y37213D01*
X496650Y37219D01*
X496570Y37229D01*
X496491Y37242D01*
X496412Y37260D01*
X496335Y37281D01*
X496259Y37307D01*
X496184Y37336D01*
X496110Y37368D01*
X496038Y37404D01*
X495968Y37444D01*
X495901Y37487D01*
X495835Y37533D01*
X495772Y37583D01*
X495711Y37635D01*
X495652Y37690D01*
X495597Y37749D01*
X495545Y37809D01*
X495495Y37873D01*
X495449Y37938D01*
X495406Y38006D01*
X495366Y38076D01*
X495330Y38148D01*
X495298Y38222D01*
X495269Y38296D01*
X495244Y38373D01*
X495222Y38450D01*
X495204Y38529D01*
X495191Y38608D01*
X495181Y38687D01*
X495175Y38768D01*
X495173Y38848D01*
X495173Y40485D01*
X500493Y43330D02*
X500404Y43332D01*
X500315Y43338D01*
X500226Y43348D01*
X500138Y43361D01*
X500050Y43378D01*
X499963Y43400D01*
X499878Y43425D01*
X499793Y43453D01*
X499710Y43486D01*
X499628Y43522D01*
X499548Y43561D01*
X499470Y43604D01*
X499394Y43650D01*
X499319Y43700D01*
X499247Y43753D01*
X499178Y43809D01*
X499111Y43868D01*
X499046Y43929D01*
X498985Y43994D01*
X498926Y44061D01*
X498870Y44130D01*
X498817Y44202D01*
X498767Y44277D01*
X498721Y44353D01*
X498678Y44431D01*
X498639Y44511D01*
X498603Y44593D01*
X498570Y44676D01*
X498542Y44761D01*
X498517Y44846D01*
X498495Y44933D01*
X498478Y45021D01*
X498465Y45109D01*
X498455Y45198D01*
X498449Y45287D01*
X498447Y45376D01*
X498449Y45465D01*
X498455Y45554D01*
X498465Y45643D01*
X498478Y45731D01*
X498495Y45819D01*
X498517Y45906D01*
X498542Y45991D01*
X498570Y46076D01*
X498603Y46159D01*
X498639Y46241D01*
X498678Y46321D01*
X498721Y46399D01*
X498767Y46475D01*
X498817Y46550D01*
X498870Y46622D01*
X498926Y46691D01*
X498985Y46758D01*
X499046Y46823D01*
X499111Y46884D01*
X499178Y46943D01*
X499247Y46999D01*
X499319Y47052D01*
X499394Y47102D01*
X499470Y47148D01*
X499548Y47191D01*
X499628Y47230D01*
X499710Y47266D01*
X499793Y47299D01*
X499878Y47327D01*
X499963Y47352D01*
X500050Y47374D01*
X500138Y47391D01*
X500226Y47404D01*
X500315Y47414D01*
X500404Y47420D01*
X500493Y47422D01*
X500582Y47420D01*
X500671Y47414D01*
X500760Y47404D01*
X500848Y47391D01*
X500936Y47374D01*
X501023Y47352D01*
X501108Y47327D01*
X501193Y47299D01*
X501276Y47266D01*
X501358Y47230D01*
X501438Y47191D01*
X501516Y47148D01*
X501592Y47102D01*
X501667Y47052D01*
X501739Y46999D01*
X501808Y46943D01*
X501875Y46884D01*
X501940Y46823D01*
X502001Y46758D01*
X502060Y46691D01*
X502116Y46622D01*
X502169Y46550D01*
X502219Y46475D01*
X502265Y46399D01*
X502308Y46321D01*
X502347Y46241D01*
X502383Y46159D01*
X502416Y46076D01*
X502444Y45991D01*
X502469Y45906D01*
X502491Y45819D01*
X502508Y45731D01*
X502521Y45643D01*
X502531Y45554D01*
X502537Y45465D01*
X502539Y45376D01*
X502537Y45287D01*
X502531Y45198D01*
X502521Y45109D01*
X502508Y45021D01*
X502491Y44933D01*
X502469Y44846D01*
X502444Y44761D01*
X502416Y44676D01*
X502383Y44593D01*
X502347Y44511D01*
X502308Y44431D01*
X502265Y44353D01*
X502219Y44277D01*
X502169Y44202D01*
X502116Y44130D01*
X502060Y44061D01*
X502001Y43994D01*
X501940Y43929D01*
X501875Y43868D01*
X501808Y43809D01*
X501739Y43753D01*
X501667Y43700D01*
X501592Y43650D01*
X501516Y43604D01*
X501438Y43561D01*
X501358Y43522D01*
X501276Y43486D01*
X501193Y43453D01*
X501108Y43425D01*
X501023Y43400D01*
X500936Y43378D01*
X500848Y43361D01*
X500760Y43348D01*
X500671Y43338D01*
X500582Y43332D01*
X500493Y43330D01*
X496810Y43739D02*
X496731Y43741D01*
X496652Y43747D01*
X496573Y43756D01*
X496495Y43769D01*
X496418Y43787D01*
X496342Y43807D01*
X496267Y43832D01*
X496193Y43860D01*
X496120Y43891D01*
X496049Y43927D01*
X495980Y43965D01*
X495913Y44007D01*
X495848Y44052D01*
X495785Y44100D01*
X495724Y44151D01*
X495667Y44205D01*
X495611Y44261D01*
X495559Y44320D01*
X495509Y44382D01*
X495463Y44446D01*
X495419Y44512D01*
X495379Y44580D01*
X495343Y44650D01*
X495309Y44722D01*
X495279Y44796D01*
X495253Y44870D01*
X495230Y44946D01*
X495212Y45023D01*
X495196Y45100D01*
X495185Y45179D01*
X495177Y45257D01*
X495173Y45336D01*
X495173Y45416D01*
X495177Y45495D01*
X495185Y45573D01*
X495196Y45652D01*
X495212Y45729D01*
X495230Y45806D01*
X495253Y45882D01*
X495279Y45956D01*
X495309Y46030D01*
X495343Y46102D01*
X495379Y46172D01*
X495419Y46240D01*
X495463Y46306D01*
X495509Y46370D01*
X495559Y46432D01*
X495611Y46491D01*
X495667Y46547D01*
X495724Y46601D01*
X495785Y46652D01*
X495848Y46700D01*
X495913Y46745D01*
X495980Y46787D01*
X496049Y46825D01*
X496120Y46861D01*
X496193Y46892D01*
X496267Y46920D01*
X496342Y46945D01*
X496418Y46965D01*
X496495Y46983D01*
X496573Y46996D01*
X496652Y47005D01*
X496731Y47011D01*
X496810Y47013D01*
X496889Y47011D01*
X496968Y47005D01*
X497047Y46996D01*
X497125Y46983D01*
X497202Y46965D01*
X497278Y46945D01*
X497353Y46920D01*
X497427Y46892D01*
X497500Y46861D01*
X497571Y46825D01*
X497640Y46787D01*
X497707Y46745D01*
X497772Y46700D01*
X497835Y46652D01*
X497896Y46601D01*
X497953Y46547D01*
X498009Y46491D01*
X498061Y46432D01*
X498111Y46370D01*
X498157Y46306D01*
X498201Y46240D01*
X498241Y46172D01*
X498277Y46102D01*
X498311Y46030D01*
X498341Y45956D01*
X498367Y45882D01*
X498390Y45806D01*
X498408Y45729D01*
X498424Y45652D01*
X498435Y45573D01*
X498443Y45495D01*
X498447Y45416D01*
X498447Y45336D01*
X498443Y45257D01*
X498435Y45179D01*
X498424Y45100D01*
X498408Y45023D01*
X498390Y44946D01*
X498367Y44870D01*
X498341Y44796D01*
X498311Y44722D01*
X498277Y44650D01*
X498241Y44580D01*
X498201Y44512D01*
X498157Y44446D01*
X498111Y44382D01*
X498061Y44320D01*
X498009Y44261D01*
X497953Y44205D01*
X497896Y44151D01*
X497835Y44100D01*
X497772Y44052D01*
X497707Y44007D01*
X497640Y43965D01*
X497571Y43927D01*
X497500Y43891D01*
X497427Y43860D01*
X497353Y43832D01*
X497278Y43807D01*
X497202Y43787D01*
X497125Y43769D01*
X497047Y43756D01*
X496968Y43747D01*
X496889Y43741D01*
X496810Y43739D01*
X504938Y129921D02*
X506575Y129921D01*
X504938Y129921D02*
X504860Y129923D01*
X504782Y129928D01*
X504705Y129938D01*
X504628Y129951D01*
X504552Y129967D01*
X504477Y129987D01*
X504403Y130011D01*
X504330Y130038D01*
X504258Y130069D01*
X504188Y130103D01*
X504120Y130140D01*
X504053Y130181D01*
X503988Y130225D01*
X503926Y130271D01*
X503866Y130321D01*
X503808Y130373D01*
X503753Y130428D01*
X503701Y130486D01*
X503651Y130546D01*
X503605Y130608D01*
X503561Y130673D01*
X503520Y130740D01*
X503483Y130808D01*
X503449Y130878D01*
X503418Y130950D01*
X503391Y131023D01*
X503367Y131097D01*
X503347Y131172D01*
X503331Y131248D01*
X503318Y131325D01*
X503308Y131402D01*
X503303Y131480D01*
X503301Y131558D01*
X503301Y135650D01*
X503303Y135730D01*
X503309Y135810D01*
X503319Y135890D01*
X503332Y135969D01*
X503350Y136048D01*
X503371Y136125D01*
X503397Y136201D01*
X503426Y136276D01*
X503458Y136350D01*
X503494Y136422D01*
X503534Y136492D01*
X503577Y136559D01*
X503623Y136625D01*
X503673Y136688D01*
X503725Y136749D01*
X503780Y136808D01*
X503839Y136863D01*
X503899Y136915D01*
X503963Y136965D01*
X504029Y137011D01*
X504096Y137054D01*
X504166Y137094D01*
X504238Y137130D01*
X504312Y137162D01*
X504386Y137191D01*
X504463Y137217D01*
X504540Y137238D01*
X504619Y137256D01*
X504698Y137269D01*
X504778Y137279D01*
X504858Y137285D01*
X504938Y137287D01*
X506575Y137287D01*
X511057Y137287D02*
X509420Y131558D01*
X513512Y131558D01*
X512285Y133195D02*
X512285Y129921D01*
D17*
X72110Y31900D02*
X72112Y31989D01*
X72118Y32078D01*
X72128Y32167D01*
X72142Y32255D01*
X72159Y32342D01*
X72181Y32428D01*
X72207Y32514D01*
X72236Y32598D01*
X72269Y32681D01*
X72305Y32762D01*
X72346Y32842D01*
X72389Y32919D01*
X72436Y32995D01*
X72487Y33068D01*
X72540Y33139D01*
X72597Y33208D01*
X72657Y33274D01*
X72720Y33338D01*
X72785Y33398D01*
X72853Y33456D01*
X72924Y33510D01*
X72997Y33561D01*
X73072Y33609D01*
X73149Y33654D01*
X73228Y33695D01*
X73309Y33732D01*
X73391Y33766D01*
X73475Y33797D01*
X73560Y33823D01*
X73646Y33846D01*
X73733Y33864D01*
X73821Y33879D01*
X73910Y33890D01*
X73999Y33897D01*
X74088Y33900D01*
X74177Y33899D01*
X74266Y33894D01*
X74354Y33885D01*
X74443Y33872D01*
X74530Y33855D01*
X74617Y33835D01*
X74703Y33810D01*
X74787Y33782D01*
X74870Y33750D01*
X74952Y33714D01*
X75032Y33675D01*
X75110Y33632D01*
X75186Y33586D01*
X75260Y33536D01*
X75332Y33483D01*
X75401Y33427D01*
X75468Y33368D01*
X75532Y33306D01*
X75593Y33242D01*
X75652Y33174D01*
X75707Y33104D01*
X75759Y33032D01*
X75808Y32957D01*
X75853Y32881D01*
X75895Y32802D01*
X75933Y32722D01*
X75968Y32640D01*
X75999Y32556D01*
X76027Y32471D01*
X76050Y32385D01*
X76070Y32298D01*
X76086Y32211D01*
X76098Y32122D01*
X76106Y32034D01*
X76110Y31945D01*
X76110Y31855D01*
X76106Y31766D01*
X76098Y31678D01*
X76086Y31589D01*
X76070Y31502D01*
X76050Y31415D01*
X76027Y31329D01*
X75999Y31244D01*
X75968Y31160D01*
X75933Y31078D01*
X75895Y30998D01*
X75853Y30919D01*
X75808Y30843D01*
X75759Y30768D01*
X75707Y30696D01*
X75652Y30626D01*
X75593Y30558D01*
X75532Y30494D01*
X75468Y30432D01*
X75401Y30373D01*
X75332Y30317D01*
X75260Y30264D01*
X75186Y30214D01*
X75110Y30168D01*
X75032Y30125D01*
X74952Y30086D01*
X74870Y30050D01*
X74787Y30018D01*
X74703Y29990D01*
X74617Y29965D01*
X74530Y29945D01*
X74443Y29928D01*
X74354Y29915D01*
X74266Y29906D01*
X74177Y29901D01*
X74088Y29900D01*
X73999Y29903D01*
X73910Y29910D01*
X73821Y29921D01*
X73733Y29936D01*
X73646Y29954D01*
X73560Y29977D01*
X73475Y30003D01*
X73391Y30034D01*
X73309Y30068D01*
X73228Y30105D01*
X73149Y30146D01*
X73072Y30191D01*
X72997Y30239D01*
X72924Y30290D01*
X72853Y30344D01*
X72785Y30402D01*
X72720Y30462D01*
X72657Y30526D01*
X72597Y30592D01*
X72540Y30661D01*
X72487Y30732D01*
X72436Y30805D01*
X72389Y30881D01*
X72346Y30958D01*
X72305Y31038D01*
X72269Y31119D01*
X72236Y31202D01*
X72207Y31286D01*
X72181Y31372D01*
X72159Y31458D01*
X72142Y31545D01*
X72128Y31633D01*
X72118Y31722D01*
X72112Y31811D01*
X72110Y31900D01*
D13*
X74860Y56700D02*
X74860Y95700D01*
X161360Y95700D02*
X161360Y56700D01*
D14*
X83820Y135890D02*
X77470Y129540D01*
X64770Y129540D01*
X58420Y135890D01*
X58420Y148590D02*
X64770Y154940D01*
X77470Y154940D01*
X83820Y148590D01*
X115570Y129540D02*
X128270Y129540D01*
X115570Y129540D02*
X109220Y135890D01*
X109220Y148590D02*
X115570Y154940D01*
X109220Y135890D02*
X102870Y129540D01*
X90170Y129540D01*
X83820Y135890D01*
X83820Y148590D02*
X90170Y154940D01*
X102870Y154940D01*
X109220Y148590D01*
X134620Y148590D02*
X134620Y135890D01*
X128270Y129540D01*
X134620Y148590D02*
X128270Y154940D01*
X115570Y154940D01*
X58420Y148590D02*
X58420Y135890D01*
D13*
X128356Y127635D02*
X128356Y123881D01*
X128354Y123816D01*
X128348Y123752D01*
X128338Y123688D01*
X128325Y123624D01*
X128307Y123562D01*
X128286Y123501D01*
X128262Y123441D01*
X128233Y123383D01*
X128201Y123326D01*
X128166Y123272D01*
X128128Y123220D01*
X128086Y123170D01*
X128042Y123123D01*
X127995Y123079D01*
X127945Y123037D01*
X127893Y122999D01*
X127839Y122964D01*
X127782Y122932D01*
X127724Y122903D01*
X127664Y122879D01*
X127603Y122858D01*
X127541Y122840D01*
X127477Y122827D01*
X127413Y122817D01*
X127349Y122811D01*
X127284Y122809D01*
X126747Y122809D01*
X131304Y126563D02*
X132644Y127635D01*
X132644Y122809D01*
X131304Y122809D02*
X133985Y122809D01*
X311310Y56260D02*
X311310Y40260D01*
X331310Y40260D02*
X331310Y56260D01*
X335440Y56260D02*
X335440Y40260D01*
X355440Y40260D02*
X355440Y56260D01*
D10*
X251079Y24511D02*
X243713Y24511D01*
X243713Y26557D01*
X243715Y26646D01*
X243721Y26735D01*
X243731Y26824D01*
X243744Y26912D01*
X243761Y27000D01*
X243783Y27087D01*
X243808Y27172D01*
X243836Y27257D01*
X243869Y27340D01*
X243905Y27422D01*
X243944Y27502D01*
X243987Y27580D01*
X244033Y27656D01*
X244083Y27731D01*
X244136Y27803D01*
X244192Y27872D01*
X244251Y27939D01*
X244312Y28004D01*
X244377Y28065D01*
X244444Y28124D01*
X244513Y28180D01*
X244585Y28233D01*
X244660Y28283D01*
X244736Y28329D01*
X244814Y28372D01*
X244894Y28411D01*
X244976Y28447D01*
X245059Y28480D01*
X245144Y28508D01*
X245229Y28533D01*
X245316Y28555D01*
X245404Y28572D01*
X245492Y28585D01*
X245581Y28595D01*
X245670Y28601D01*
X245759Y28603D01*
X245848Y28601D01*
X245937Y28595D01*
X246026Y28585D01*
X246114Y28572D01*
X246202Y28555D01*
X246289Y28533D01*
X246374Y28508D01*
X246459Y28480D01*
X246542Y28447D01*
X246624Y28411D01*
X246704Y28372D01*
X246782Y28329D01*
X246858Y28283D01*
X246933Y28233D01*
X247005Y28180D01*
X247074Y28124D01*
X247141Y28065D01*
X247206Y28004D01*
X247267Y27939D01*
X247326Y27872D01*
X247382Y27803D01*
X247435Y27731D01*
X247485Y27656D01*
X247531Y27580D01*
X247574Y27502D01*
X247613Y27422D01*
X247649Y27340D01*
X247682Y27257D01*
X247710Y27172D01*
X247735Y27087D01*
X247757Y27000D01*
X247774Y26912D01*
X247787Y26824D01*
X247797Y26735D01*
X247803Y26646D01*
X247805Y26557D01*
X247805Y24511D01*
X247805Y26966D02*
X251079Y28603D01*
X244531Y31775D02*
X243713Y31775D01*
X243713Y35867D01*
X251079Y33821D01*
X200279Y24511D02*
X192913Y24511D01*
X192913Y26557D01*
X192915Y26646D01*
X192921Y26735D01*
X192931Y26824D01*
X192944Y26912D01*
X192961Y27000D01*
X192983Y27087D01*
X193008Y27172D01*
X193036Y27257D01*
X193069Y27340D01*
X193105Y27422D01*
X193144Y27502D01*
X193187Y27580D01*
X193233Y27656D01*
X193283Y27731D01*
X193336Y27803D01*
X193392Y27872D01*
X193451Y27939D01*
X193512Y28004D01*
X193577Y28065D01*
X193644Y28124D01*
X193713Y28180D01*
X193785Y28233D01*
X193860Y28283D01*
X193936Y28329D01*
X194014Y28372D01*
X194094Y28411D01*
X194176Y28447D01*
X194259Y28480D01*
X194344Y28508D01*
X194429Y28533D01*
X194516Y28555D01*
X194604Y28572D01*
X194692Y28585D01*
X194781Y28595D01*
X194870Y28601D01*
X194959Y28603D01*
X195048Y28601D01*
X195137Y28595D01*
X195226Y28585D01*
X195314Y28572D01*
X195402Y28555D01*
X195489Y28533D01*
X195574Y28508D01*
X195659Y28480D01*
X195742Y28447D01*
X195824Y28411D01*
X195904Y28372D01*
X195982Y28329D01*
X196058Y28283D01*
X196133Y28233D01*
X196205Y28180D01*
X196274Y28124D01*
X196341Y28065D01*
X196406Y28004D01*
X196467Y27939D01*
X196526Y27872D01*
X196582Y27803D01*
X196635Y27731D01*
X196685Y27656D01*
X196731Y27580D01*
X196774Y27502D01*
X196813Y27422D01*
X196849Y27340D01*
X196882Y27257D01*
X196910Y27172D01*
X196935Y27087D01*
X196957Y27000D01*
X196974Y26912D01*
X196987Y26824D01*
X196997Y26735D01*
X197003Y26646D01*
X197005Y26557D01*
X197005Y24511D01*
X197005Y26966D02*
X200279Y28603D01*
X198233Y31775D02*
X198144Y31777D01*
X198055Y31783D01*
X197966Y31793D01*
X197878Y31806D01*
X197790Y31823D01*
X197703Y31845D01*
X197618Y31870D01*
X197533Y31898D01*
X197450Y31931D01*
X197368Y31967D01*
X197288Y32006D01*
X197210Y32049D01*
X197134Y32095D01*
X197059Y32145D01*
X196987Y32198D01*
X196918Y32254D01*
X196851Y32313D01*
X196786Y32374D01*
X196725Y32439D01*
X196666Y32506D01*
X196610Y32575D01*
X196557Y32647D01*
X196507Y32722D01*
X196461Y32798D01*
X196418Y32876D01*
X196379Y32956D01*
X196343Y33038D01*
X196310Y33121D01*
X196282Y33206D01*
X196257Y33291D01*
X196235Y33378D01*
X196218Y33466D01*
X196205Y33554D01*
X196195Y33643D01*
X196189Y33732D01*
X196187Y33821D01*
X196189Y33910D01*
X196195Y33999D01*
X196205Y34088D01*
X196218Y34176D01*
X196235Y34264D01*
X196257Y34351D01*
X196282Y34436D01*
X196310Y34521D01*
X196343Y34604D01*
X196379Y34686D01*
X196418Y34766D01*
X196461Y34844D01*
X196507Y34920D01*
X196557Y34995D01*
X196610Y35067D01*
X196666Y35136D01*
X196725Y35203D01*
X196786Y35268D01*
X196851Y35329D01*
X196918Y35388D01*
X196987Y35444D01*
X197059Y35497D01*
X197134Y35547D01*
X197210Y35593D01*
X197288Y35636D01*
X197368Y35675D01*
X197450Y35711D01*
X197533Y35744D01*
X197618Y35772D01*
X197703Y35797D01*
X197790Y35819D01*
X197878Y35836D01*
X197966Y35849D01*
X198055Y35859D01*
X198144Y35865D01*
X198233Y35867D01*
X198322Y35865D01*
X198411Y35859D01*
X198500Y35849D01*
X198588Y35836D01*
X198676Y35819D01*
X198763Y35797D01*
X198848Y35772D01*
X198933Y35744D01*
X199016Y35711D01*
X199098Y35675D01*
X199178Y35636D01*
X199256Y35593D01*
X199332Y35547D01*
X199407Y35497D01*
X199479Y35444D01*
X199548Y35388D01*
X199615Y35329D01*
X199680Y35268D01*
X199741Y35203D01*
X199800Y35136D01*
X199856Y35067D01*
X199909Y34995D01*
X199959Y34920D01*
X200005Y34844D01*
X200048Y34766D01*
X200087Y34686D01*
X200123Y34604D01*
X200156Y34521D01*
X200184Y34436D01*
X200209Y34351D01*
X200231Y34264D01*
X200248Y34176D01*
X200261Y34088D01*
X200271Y33999D01*
X200277Y33910D01*
X200279Y33821D01*
X200277Y33732D01*
X200271Y33643D01*
X200261Y33554D01*
X200248Y33466D01*
X200231Y33378D01*
X200209Y33291D01*
X200184Y33206D01*
X200156Y33121D01*
X200123Y33038D01*
X200087Y32956D01*
X200048Y32876D01*
X200005Y32798D01*
X199959Y32722D01*
X199909Y32647D01*
X199856Y32575D01*
X199800Y32506D01*
X199741Y32439D01*
X199680Y32374D01*
X199615Y32313D01*
X199548Y32254D01*
X199479Y32198D01*
X199407Y32145D01*
X199332Y32095D01*
X199256Y32049D01*
X199178Y32006D01*
X199098Y31967D01*
X199016Y31931D01*
X198933Y31898D01*
X198848Y31870D01*
X198763Y31845D01*
X198676Y31823D01*
X198588Y31806D01*
X198500Y31793D01*
X198411Y31783D01*
X198322Y31777D01*
X198233Y31775D01*
X194550Y32184D02*
X194471Y32186D01*
X194392Y32192D01*
X194313Y32201D01*
X194235Y32214D01*
X194158Y32232D01*
X194082Y32252D01*
X194007Y32277D01*
X193933Y32305D01*
X193860Y32336D01*
X193789Y32372D01*
X193720Y32410D01*
X193653Y32452D01*
X193588Y32497D01*
X193525Y32545D01*
X193464Y32596D01*
X193407Y32650D01*
X193351Y32706D01*
X193299Y32765D01*
X193249Y32827D01*
X193203Y32891D01*
X193159Y32957D01*
X193119Y33025D01*
X193083Y33095D01*
X193049Y33167D01*
X193019Y33241D01*
X192993Y33315D01*
X192970Y33391D01*
X192952Y33468D01*
X192936Y33545D01*
X192925Y33624D01*
X192917Y33702D01*
X192913Y33781D01*
X192913Y33861D01*
X192917Y33940D01*
X192925Y34018D01*
X192936Y34097D01*
X192952Y34174D01*
X192970Y34251D01*
X192993Y34327D01*
X193019Y34401D01*
X193049Y34475D01*
X193083Y34547D01*
X193119Y34617D01*
X193159Y34685D01*
X193203Y34751D01*
X193249Y34815D01*
X193299Y34877D01*
X193351Y34936D01*
X193407Y34992D01*
X193464Y35046D01*
X193525Y35097D01*
X193588Y35145D01*
X193653Y35190D01*
X193720Y35232D01*
X193789Y35270D01*
X193860Y35306D01*
X193933Y35337D01*
X194007Y35365D01*
X194082Y35390D01*
X194158Y35410D01*
X194235Y35428D01*
X194313Y35441D01*
X194392Y35450D01*
X194471Y35456D01*
X194550Y35458D01*
X194629Y35456D01*
X194708Y35450D01*
X194787Y35441D01*
X194865Y35428D01*
X194942Y35410D01*
X195018Y35390D01*
X195093Y35365D01*
X195167Y35337D01*
X195240Y35306D01*
X195311Y35270D01*
X195380Y35232D01*
X195447Y35190D01*
X195512Y35145D01*
X195575Y35097D01*
X195636Y35046D01*
X195693Y34992D01*
X195749Y34936D01*
X195801Y34877D01*
X195851Y34815D01*
X195897Y34751D01*
X195941Y34685D01*
X195981Y34617D01*
X196017Y34547D01*
X196051Y34475D01*
X196081Y34401D01*
X196107Y34327D01*
X196130Y34251D01*
X196148Y34174D01*
X196164Y34097D01*
X196175Y34018D01*
X196183Y33940D01*
X196187Y33861D01*
X196187Y33781D01*
X196183Y33702D01*
X196175Y33624D01*
X196164Y33545D01*
X196148Y33468D01*
X196130Y33391D01*
X196107Y33315D01*
X196081Y33241D01*
X196051Y33167D01*
X196017Y33095D01*
X195981Y33025D01*
X195941Y32957D01*
X195897Y32891D01*
X195851Y32827D01*
X195801Y32765D01*
X195749Y32706D01*
X195693Y32650D01*
X195636Y32596D01*
X195575Y32545D01*
X195512Y32497D01*
X195447Y32452D01*
X195380Y32410D01*
X195311Y32372D01*
X195240Y32336D01*
X195167Y32305D01*
X195093Y32277D01*
X195018Y32252D01*
X194942Y32232D01*
X194865Y32214D01*
X194787Y32201D01*
X194708Y32192D01*
X194629Y32186D01*
X194550Y32184D01*
X218313Y24511D02*
X225679Y24511D01*
X218313Y24511D02*
X218313Y26557D01*
X218315Y26646D01*
X218321Y26735D01*
X218331Y26824D01*
X218344Y26912D01*
X218361Y27000D01*
X218383Y27087D01*
X218408Y27172D01*
X218436Y27257D01*
X218469Y27340D01*
X218505Y27422D01*
X218544Y27502D01*
X218587Y27580D01*
X218633Y27656D01*
X218683Y27731D01*
X218736Y27803D01*
X218792Y27872D01*
X218851Y27939D01*
X218912Y28004D01*
X218977Y28065D01*
X219044Y28124D01*
X219113Y28180D01*
X219185Y28233D01*
X219260Y28283D01*
X219336Y28329D01*
X219414Y28372D01*
X219494Y28411D01*
X219576Y28447D01*
X219659Y28480D01*
X219744Y28508D01*
X219829Y28533D01*
X219916Y28555D01*
X220004Y28572D01*
X220092Y28585D01*
X220181Y28595D01*
X220270Y28601D01*
X220359Y28603D01*
X220448Y28601D01*
X220537Y28595D01*
X220626Y28585D01*
X220714Y28572D01*
X220802Y28555D01*
X220889Y28533D01*
X220974Y28508D01*
X221059Y28480D01*
X221142Y28447D01*
X221224Y28411D01*
X221304Y28372D01*
X221382Y28329D01*
X221458Y28283D01*
X221533Y28233D01*
X221605Y28180D01*
X221674Y28124D01*
X221741Y28065D01*
X221806Y28004D01*
X221867Y27939D01*
X221926Y27872D01*
X221982Y27803D01*
X222035Y27731D01*
X222085Y27656D01*
X222131Y27580D01*
X222174Y27502D01*
X222213Y27422D01*
X222249Y27340D01*
X222282Y27257D01*
X222310Y27172D01*
X222335Y27087D01*
X222357Y27000D01*
X222374Y26912D01*
X222387Y26824D01*
X222397Y26735D01*
X222403Y26646D01*
X222405Y26557D01*
X222405Y24511D01*
X222405Y26966D02*
X225679Y28603D01*
X222405Y33412D02*
X222405Y35867D01*
X222405Y33412D02*
X222403Y33334D01*
X222398Y33256D01*
X222388Y33179D01*
X222375Y33102D01*
X222359Y33026D01*
X222339Y32951D01*
X222315Y32877D01*
X222288Y32804D01*
X222257Y32732D01*
X222223Y32662D01*
X222186Y32594D01*
X222145Y32527D01*
X222101Y32462D01*
X222055Y32400D01*
X222005Y32340D01*
X221953Y32282D01*
X221898Y32227D01*
X221840Y32175D01*
X221780Y32125D01*
X221718Y32079D01*
X221653Y32035D01*
X221587Y31994D01*
X221518Y31957D01*
X221448Y31923D01*
X221376Y31892D01*
X221303Y31865D01*
X221229Y31841D01*
X221154Y31821D01*
X221078Y31805D01*
X221001Y31792D01*
X220924Y31782D01*
X220846Y31777D01*
X220768Y31775D01*
X220359Y31775D01*
X220270Y31777D01*
X220181Y31783D01*
X220092Y31793D01*
X220004Y31806D01*
X219916Y31823D01*
X219829Y31845D01*
X219744Y31870D01*
X219659Y31898D01*
X219576Y31931D01*
X219494Y31967D01*
X219414Y32006D01*
X219336Y32049D01*
X219260Y32095D01*
X219185Y32145D01*
X219113Y32198D01*
X219044Y32254D01*
X218977Y32313D01*
X218912Y32374D01*
X218851Y32439D01*
X218792Y32506D01*
X218736Y32575D01*
X218683Y32647D01*
X218633Y32722D01*
X218587Y32798D01*
X218544Y32876D01*
X218505Y32956D01*
X218469Y33038D01*
X218436Y33121D01*
X218408Y33206D01*
X218383Y33291D01*
X218361Y33378D01*
X218344Y33466D01*
X218331Y33554D01*
X218321Y33643D01*
X218315Y33732D01*
X218313Y33821D01*
X218315Y33910D01*
X218321Y33999D01*
X218331Y34088D01*
X218344Y34176D01*
X218361Y34264D01*
X218383Y34351D01*
X218408Y34436D01*
X218436Y34521D01*
X218469Y34604D01*
X218505Y34686D01*
X218544Y34766D01*
X218587Y34844D01*
X218633Y34920D01*
X218683Y34995D01*
X218736Y35067D01*
X218792Y35136D01*
X218851Y35203D01*
X218912Y35268D01*
X218977Y35329D01*
X219044Y35388D01*
X219113Y35444D01*
X219185Y35497D01*
X219260Y35547D01*
X219336Y35593D01*
X219414Y35636D01*
X219494Y35675D01*
X219576Y35711D01*
X219659Y35744D01*
X219744Y35772D01*
X219829Y35797D01*
X219916Y35819D01*
X220004Y35836D01*
X220092Y35849D01*
X220181Y35859D01*
X220270Y35865D01*
X220359Y35867D01*
X222405Y35867D01*
X222517Y35865D01*
X222628Y35859D01*
X222740Y35850D01*
X222851Y35837D01*
X222961Y35819D01*
X223071Y35799D01*
X223180Y35774D01*
X223288Y35746D01*
X223395Y35714D01*
X223501Y35678D01*
X223606Y35639D01*
X223709Y35596D01*
X223811Y35550D01*
X223911Y35500D01*
X224010Y35447D01*
X224106Y35390D01*
X224201Y35331D01*
X224293Y35268D01*
X224383Y35202D01*
X224471Y35133D01*
X224557Y35061D01*
X224640Y34986D01*
X224720Y34908D01*
X224798Y34828D01*
X224873Y34745D01*
X224945Y34659D01*
X225014Y34571D01*
X225080Y34481D01*
X225143Y34389D01*
X225202Y34294D01*
X225259Y34198D01*
X225312Y34099D01*
X225362Y33999D01*
X225408Y33897D01*
X225451Y33794D01*
X225490Y33689D01*
X225526Y33583D01*
X225558Y33476D01*
X225586Y33368D01*
X225611Y33259D01*
X225631Y33149D01*
X225649Y33039D01*
X225662Y32928D01*
X225671Y32816D01*
X225677Y32705D01*
X225679Y32593D01*
M02*
