G04 EAGLE Gerber RS-274X export*
G75*
%MOMM*%
%FSLAX34Y34*%
%LPD*%
%INSolderpaste Top*%
%IPPOS*%
%AMOC8*
5,1,8,0,0,1.08239X$1,22.5*%
G01*
%ADD10R,1.300000X1.500000*%
%ADD11R,5.080000X2.540000*%
%ADD12R,0.420000X0.600000*%
%ADD13R,1.400000X0.800000*%
%ADD14R,2.200000X1.800000*%
%ADD15R,1.200000X1.200000*%
%ADD16R,1.500000X1.300000*%
%ADD17R,0.600000X1.600000*%
%ADD18R,2.200000X2.000000*%
%ADD19R,2.000000X2.200000*%
%ADD20C,0.295000*%
%ADD21R,0.375000X0.500000*%
%ADD22R,0.300000X0.650000*%


D10*
X569720Y41030D03*
X588720Y41030D03*
X569290Y104110D03*
X588290Y104110D03*
X37010Y104340D03*
X56010Y104340D03*
X36554Y40930D03*
X55554Y40930D03*
D11*
X28000Y130000D03*
X28000Y15500D03*
X593500Y129500D03*
X594000Y15500D03*
X386500Y130000D03*
X388540Y15000D03*
X300000Y130000D03*
X300000Y15000D03*
D12*
X251310Y126340D03*
X257810Y126340D03*
X264310Y126340D03*
X264310Y107340D03*
X257810Y107340D03*
X251310Y107340D03*
D13*
X427240Y101600D03*
X427240Y86600D03*
X427240Y116600D03*
D14*
X458040Y101600D03*
D15*
X348000Y101900D03*
X348000Y75900D03*
X287000Y75900D03*
X287000Y101900D03*
D16*
X568960Y81890D03*
X568960Y62890D03*
X548640Y62890D03*
X548640Y81890D03*
X200660Y103530D03*
X200660Y122530D03*
X176530Y122530D03*
X176530Y103530D03*
X224790Y103530D03*
X224790Y122530D03*
D17*
X367030Y47660D03*
X379730Y47660D03*
X392430Y47660D03*
X405130Y47660D03*
X405130Y99660D03*
X392430Y99660D03*
X379730Y99660D03*
X367030Y99660D03*
D18*
X436880Y29450D03*
X436880Y59450D03*
X477520Y29450D03*
X477520Y59450D03*
X518160Y29450D03*
X518160Y59450D03*
D19*
X513320Y114300D03*
X543320Y114300D03*
D20*
X81485Y59675D02*
X81485Y43125D01*
X78535Y43125D01*
X78535Y59675D01*
X81485Y59675D01*
X81485Y45927D02*
X78535Y45927D01*
X78535Y48729D02*
X81485Y48729D01*
X81485Y51531D02*
X78535Y51531D01*
X78535Y54333D02*
X81485Y54333D01*
X81485Y57135D02*
X78535Y57135D01*
X94185Y59675D02*
X94185Y43125D01*
X91235Y43125D01*
X91235Y59675D01*
X94185Y59675D01*
X94185Y45927D02*
X91235Y45927D01*
X91235Y48729D02*
X94185Y48729D01*
X94185Y51531D02*
X91235Y51531D01*
X91235Y54333D02*
X94185Y54333D01*
X94185Y57135D02*
X91235Y57135D01*
X106885Y59675D02*
X106885Y43125D01*
X103935Y43125D01*
X103935Y59675D01*
X106885Y59675D01*
X106885Y45927D02*
X103935Y45927D01*
X103935Y48729D02*
X106885Y48729D01*
X106885Y51531D02*
X103935Y51531D01*
X103935Y54333D02*
X106885Y54333D01*
X106885Y57135D02*
X103935Y57135D01*
X119585Y59675D02*
X119585Y43125D01*
X116635Y43125D01*
X116635Y59675D01*
X119585Y59675D01*
X119585Y45927D02*
X116635Y45927D01*
X116635Y48729D02*
X119585Y48729D01*
X119585Y51531D02*
X116635Y51531D01*
X116635Y54333D02*
X119585Y54333D01*
X119585Y57135D02*
X116635Y57135D01*
X132285Y59675D02*
X132285Y43125D01*
X129335Y43125D01*
X129335Y59675D01*
X132285Y59675D01*
X132285Y45927D02*
X129335Y45927D01*
X129335Y48729D02*
X132285Y48729D01*
X132285Y51531D02*
X129335Y51531D01*
X129335Y54333D02*
X132285Y54333D01*
X132285Y57135D02*
X129335Y57135D01*
X144985Y59675D02*
X144985Y43125D01*
X142035Y43125D01*
X142035Y59675D01*
X144985Y59675D01*
X144985Y45927D02*
X142035Y45927D01*
X142035Y48729D02*
X144985Y48729D01*
X144985Y51531D02*
X142035Y51531D01*
X142035Y54333D02*
X144985Y54333D01*
X144985Y57135D02*
X142035Y57135D01*
X157685Y59675D02*
X157685Y43125D01*
X154735Y43125D01*
X154735Y59675D01*
X157685Y59675D01*
X157685Y45927D02*
X154735Y45927D01*
X154735Y48729D02*
X157685Y48729D01*
X157685Y51531D02*
X154735Y51531D01*
X154735Y54333D02*
X157685Y54333D01*
X157685Y57135D02*
X154735Y57135D01*
X157685Y92725D02*
X157685Y109275D01*
X157685Y92725D02*
X154735Y92725D01*
X154735Y109275D01*
X157685Y109275D01*
X157685Y95527D02*
X154735Y95527D01*
X154735Y98329D02*
X157685Y98329D01*
X157685Y101131D02*
X154735Y101131D01*
X154735Y103933D02*
X157685Y103933D01*
X157685Y106735D02*
X154735Y106735D01*
X144985Y109275D02*
X144985Y92725D01*
X142035Y92725D01*
X142035Y109275D01*
X144985Y109275D01*
X144985Y95527D02*
X142035Y95527D01*
X142035Y98329D02*
X144985Y98329D01*
X144985Y101131D02*
X142035Y101131D01*
X142035Y103933D02*
X144985Y103933D01*
X144985Y106735D02*
X142035Y106735D01*
X132285Y109275D02*
X132285Y92725D01*
X129335Y92725D01*
X129335Y109275D01*
X132285Y109275D01*
X132285Y95527D02*
X129335Y95527D01*
X129335Y98329D02*
X132285Y98329D01*
X132285Y101131D02*
X129335Y101131D01*
X129335Y103933D02*
X132285Y103933D01*
X132285Y106735D02*
X129335Y106735D01*
X119585Y109275D02*
X119585Y92725D01*
X116635Y92725D01*
X116635Y109275D01*
X119585Y109275D01*
X119585Y95527D02*
X116635Y95527D01*
X116635Y98329D02*
X119585Y98329D01*
X119585Y101131D02*
X116635Y101131D01*
X116635Y103933D02*
X119585Y103933D01*
X119585Y106735D02*
X116635Y106735D01*
X106885Y109275D02*
X106885Y92725D01*
X103935Y92725D01*
X103935Y109275D01*
X106885Y109275D01*
X106885Y95527D02*
X103935Y95527D01*
X103935Y98329D02*
X106885Y98329D01*
X106885Y101131D02*
X103935Y101131D01*
X103935Y103933D02*
X106885Y103933D01*
X106885Y106735D02*
X103935Y106735D01*
X94185Y109275D02*
X94185Y92725D01*
X91235Y92725D01*
X91235Y109275D01*
X94185Y109275D01*
X94185Y95527D02*
X91235Y95527D01*
X91235Y98329D02*
X94185Y98329D01*
X94185Y101131D02*
X91235Y101131D01*
X91235Y103933D02*
X94185Y103933D01*
X94185Y106735D02*
X91235Y106735D01*
X81485Y109275D02*
X81485Y92725D01*
X78535Y92725D01*
X78535Y109275D01*
X81485Y109275D01*
X81485Y95527D02*
X78535Y95527D01*
X78535Y98329D02*
X81485Y98329D01*
X81485Y101131D02*
X78535Y101131D01*
X78535Y103933D02*
X81485Y103933D01*
X81485Y106735D02*
X78535Y106735D01*
D21*
X315935Y39760D03*
X326685Y39760D03*
D22*
X321310Y39010D03*
D21*
X326685Y56760D03*
X315935Y56760D03*
D22*
X321310Y57510D03*
D21*
X340065Y39760D03*
X350815Y39760D03*
D22*
X345440Y39010D03*
D21*
X350815Y56760D03*
X340065Y56760D03*
D22*
X345440Y57510D03*
D16*
X260350Y20980D03*
X260350Y39980D03*
X209550Y20980D03*
X209550Y39980D03*
X234950Y20980D03*
X234950Y39980D03*
M02*
