G04 EAGLE Gerber RS-274X export*
G75*
%MOMM*%
%FSLAX34Y34*%
%LPD*%
%INSoldermask Bottom*%
%IPPOS*%
%AMOC8*
5,1,8,0,0,1.08239X$1,22.5*%
G01*
%ADD10C,2.003200*%
%ADD11C,3.503200*%
%ADD12C,1.603200*%
%ADD13C,2.082800*%
%ADD14C,1.109600*%
%ADD15C,0.909600*%


D10*
X150000Y14000D03*
X472000Y125000D03*
D11*
X248000Y72500D03*
D12*
X605000Y97940D03*
X605000Y72540D03*
X605000Y47140D03*
X17360Y47700D03*
X17360Y73100D03*
X17360Y98500D03*
D13*
X121920Y142240D03*
X96520Y142240D03*
X71120Y142240D03*
D14*
X440690Y7620D03*
X339090Y7620D03*
D15*
X327660Y73152D03*
X275844Y73152D03*
X149352Y114300D03*
X67056Y77724D03*
D14*
X438150Y137160D03*
X334010Y137160D03*
D15*
X243840Y124968D03*
X556260Y94488D03*
X266700Y91440D03*
X260604Y99060D03*
X73152Y65532D03*
X534924Y39624D03*
X533400Y97536D03*
X413004Y111252D03*
X582168Y68580D03*
X419100Y25908D03*
X249936Y97536D03*
X111252Y38100D03*
D14*
X401955Y80645D03*
X380365Y80645D03*
D15*
X83820Y115824D03*
X155448Y121920D03*
X327660Y100584D03*
X275844Y111252D03*
X74676Y117348D03*
X442976Y120904D03*
X496824Y112776D03*
X307848Y45720D03*
X274320Y45720D03*
X225552Y86868D03*
X355092Y120396D03*
X303276Y85344D03*
X137160Y36576D03*
X342900Y88392D03*
X164592Y92964D03*
X96012Y85344D03*
X533400Y73152D03*
X400812Y60960D03*
X234696Y53340D03*
X222504Y54864D03*
X143256Y67056D03*
X414528Y100584D03*
X83820Y85344D03*
X152400Y68580D03*
X170688Y68580D03*
X188976Y132588D03*
X109728Y77724D03*
X65532Y120396D03*
X348996Y48768D03*
X271272Y54864D03*
X329184Y32004D03*
X194056Y13970D03*
X320040Y48768D03*
X274320Y35052D03*
X292608Y60960D03*
X248412Y30480D03*
M02*
