G04 EAGLE Gerber RS-274X export*
G75*
%MOMM*%
%FSLAX34Y34*%
%LPD*%
%INTop Copper*%
%IPPOS*%
%AMOC8*
5,1,8,0,0,1.08239X$1,22.5*%
G01*
%ADD10C,1.008000*%
%ADD11P,1.732040X8X22.500000*%
%ADD12C,1.320800*%
%ADD13R,5.080000X2.540000*%
%ADD14C,0.152400*%
%ADD15C,0.756400*%
%ADD16C,0.812800*%


D10*
X349250Y134660D02*
X349250Y144740D01*
X336550Y144740D02*
X336550Y134660D01*
X323850Y134660D02*
X323850Y144740D01*
X311150Y144740D02*
X311150Y134660D01*
X298450Y134660D02*
X298450Y144740D01*
X285750Y144740D02*
X285750Y134660D01*
D11*
X375600Y142500D03*
D12*
X42304Y66000D02*
X29096Y66000D01*
X29096Y91400D02*
X42304Y91400D01*
X42304Y116800D02*
X29096Y116800D01*
X591496Y114000D02*
X604704Y114000D01*
X604704Y88600D02*
X591496Y88600D01*
X591496Y63200D02*
X604704Y63200D01*
D13*
X239500Y128300D03*
X238600Y50800D03*
X150600Y142600D03*
X485600Y121800D03*
D14*
X428244Y89916D02*
X597408Y89916D01*
X428244Y89916D02*
X376428Y141732D01*
X597408Y89916D02*
X598100Y88600D01*
X376428Y141732D02*
X375600Y142500D01*
X143256Y89916D02*
X36576Y89916D01*
X35700Y91400D01*
X300000Y75000D02*
X305000Y70000D01*
D15*
X305000Y70000D03*
X325000Y50000D03*
D14*
X376428Y101428D01*
X376428Y141732D01*
X158172Y75000D02*
X143256Y89916D01*
X158172Y75000D02*
X300000Y75000D01*
D16*
X311150Y121150D02*
X311150Y139700D01*
X311150Y121150D02*
X300000Y110000D01*
X295000Y110000D01*
D15*
X295000Y110000D03*
X155000Y120000D03*
D16*
X150600Y124400D02*
X150600Y138312D01*
X150600Y124400D02*
X155000Y120000D01*
X150600Y138312D02*
X150000Y138312D01*
D14*
X149352Y141732D02*
X150600Y142600D01*
X149352Y141732D02*
X150600Y138312D01*
D16*
X323850Y139700D02*
X323850Y153850D01*
X330000Y160000D01*
X430000Y160000D01*
X471688Y118312D01*
X485600Y118312D01*
D14*
X486156Y120396D02*
X485600Y121800D01*
X486156Y120396D02*
X485600Y118312D01*
D16*
X349250Y139700D02*
X349250Y94250D01*
X305800Y50800D02*
X238600Y50800D01*
X305800Y50800D02*
X349250Y94250D01*
X245000Y122800D02*
X239500Y128300D01*
X245000Y122800D02*
X245000Y110000D01*
X260000Y95000D01*
X330000Y95000D01*
X336550Y101550D01*
X336550Y139700D01*
M02*
