G04 EAGLE Gerber RS-274X export*
G75*
%MOMM*%
%FSLAX34Y34*%
%LPD*%
%INBottom Copper*%
%IPPOS*%
%AMOC8*
5,1,8,0,0,1.08239X$1,22.5*%
G01*
%ADD10C,1.008000*%
%ADD11P,1.732040X8X22.500000*%
%ADD12C,1.320800*%
%ADD13R,1.600000X1.803000*%
%ADD14C,0.756400*%
%ADD15C,0.152400*%
%ADD16C,0.812800*%


D10*
X349250Y134660D02*
X349250Y144740D01*
X336550Y144740D02*
X336550Y134660D01*
X323850Y134660D02*
X323850Y144740D01*
X311150Y144740D02*
X311150Y134660D01*
X298450Y134660D02*
X298450Y144740D01*
X285750Y144740D02*
X285750Y134660D01*
D11*
X375600Y142500D03*
D12*
X42304Y66000D02*
X29096Y66000D01*
X29096Y91400D02*
X42304Y91400D01*
X42304Y116800D02*
X29096Y116800D01*
X591496Y114000D02*
X604704Y114000D01*
X604704Y88600D02*
X591496Y88600D01*
X591496Y63200D02*
X604704Y63200D01*
D13*
X597520Y41000D03*
X569080Y41000D03*
X596720Y136000D03*
X568280Y136000D03*
X61820Y137500D03*
X33380Y137500D03*
X66020Y42500D03*
X37580Y42500D03*
D14*
X305000Y70000D03*
D15*
X325000Y50000D01*
D14*
X325000Y50000D03*
X295000Y110000D03*
D16*
X165000Y110000D02*
X155000Y120000D01*
D14*
X155000Y120000D03*
D16*
X165000Y110000D02*
X295000Y110000D01*
D15*
X65532Y112776D02*
X65532Y42672D01*
X65532Y112776D02*
X50292Y128016D01*
X50292Y146304D01*
X53340Y149352D01*
X138684Y149352D01*
X147828Y140208D01*
X195072Y140208D01*
X211836Y156972D01*
X284988Y156972D01*
X297180Y144780D01*
X297180Y140208D01*
X66020Y42500D02*
X65532Y42672D01*
X297180Y140208D02*
X298450Y139700D01*
X502920Y137160D02*
X566928Y137160D01*
X502920Y137160D02*
X486156Y153924D01*
X306324Y153924D01*
X297180Y144780D01*
X566928Y137160D02*
X568280Y136000D01*
X298450Y139700D02*
X297180Y144780D01*
X597408Y62484D02*
X597408Y41148D01*
X597520Y41000D01*
X597408Y62484D02*
X598100Y63200D01*
X597408Y114300D02*
X597408Y135636D01*
X596720Y136000D01*
X597408Y114300D02*
X598100Y114000D01*
X205740Y137160D02*
X62484Y137160D01*
X205740Y137160D02*
X211836Y131064D01*
X277368Y131064D01*
X283464Y137160D02*
X284988Y138684D01*
X283464Y137160D02*
X277368Y131064D01*
X62484Y137160D02*
X61820Y137500D01*
X284988Y138684D02*
X285750Y139700D01*
X379476Y41148D02*
X568452Y41148D01*
X379476Y41148D02*
X283464Y137160D01*
X568452Y41148D02*
X569080Y41000D01*
X285750Y139700D02*
X283464Y137160D01*
X33528Y137160D02*
X33528Y118872D01*
X35052Y117348D01*
X33528Y137160D02*
X33380Y137500D01*
X35052Y117348D02*
X35700Y116800D01*
X36576Y65532D02*
X36576Y42672D01*
X37580Y42500D01*
X36576Y65532D02*
X35700Y66000D01*
M02*
