G04 EAGLE Gerber RS-274X export*
G75*
%MOMM*%
%FSLAX34Y34*%
%LPD*%
%INSilkscreen Top*%
%IPPOS*%
%AMOC8*
5,1,8,0,0,1.08239X$1,22.5*%
G01*
%ADD10C,0.050800*%
%ADD11C,0.203200*%
%ADD12R,9.000000X0.375000*%
%ADD13C,0.152400*%
%ADD14C,0.127000*%
%ADD15C,0.254000*%
%ADD16C,0.101600*%


D10*
X325254Y15254D02*
X325254Y20842D01*
X325254Y18979D02*
X326806Y18979D01*
X326864Y18977D01*
X326923Y18972D01*
X326980Y18963D01*
X327038Y18950D01*
X327094Y18933D01*
X327149Y18914D01*
X327202Y18890D01*
X327255Y18864D01*
X327305Y18834D01*
X327353Y18801D01*
X327399Y18765D01*
X327443Y18727D01*
X327485Y18685D01*
X327523Y18641D01*
X327559Y18595D01*
X327592Y18547D01*
X327622Y18497D01*
X327648Y18444D01*
X327672Y18391D01*
X327691Y18336D01*
X327708Y18280D01*
X327721Y18222D01*
X327730Y18165D01*
X327735Y18106D01*
X327737Y18048D01*
X327738Y18048D02*
X327738Y15254D01*
X329725Y18979D02*
X331588Y18979D01*
X330346Y20842D02*
X330346Y16185D01*
X330347Y16185D02*
X330349Y16127D01*
X330354Y16068D01*
X330363Y16011D01*
X330376Y15953D01*
X330393Y15897D01*
X330412Y15842D01*
X330436Y15789D01*
X330462Y15736D01*
X330492Y15686D01*
X330525Y15638D01*
X330561Y15592D01*
X330599Y15548D01*
X330641Y15506D01*
X330685Y15468D01*
X330731Y15432D01*
X330779Y15399D01*
X330830Y15369D01*
X330882Y15343D01*
X330935Y15319D01*
X330990Y15300D01*
X331046Y15283D01*
X331104Y15270D01*
X331161Y15261D01*
X331220Y15256D01*
X331278Y15254D01*
X331588Y15254D01*
X333200Y18979D02*
X335063Y18979D01*
X333821Y20842D02*
X333821Y16185D01*
X333823Y16127D01*
X333828Y16068D01*
X333837Y16011D01*
X333850Y15953D01*
X333867Y15897D01*
X333886Y15842D01*
X333910Y15789D01*
X333936Y15736D01*
X333966Y15686D01*
X333999Y15638D01*
X334035Y15592D01*
X334073Y15548D01*
X334115Y15506D01*
X334159Y15468D01*
X334205Y15432D01*
X334253Y15399D01*
X334304Y15369D01*
X334356Y15343D01*
X334409Y15319D01*
X334464Y15300D01*
X334520Y15283D01*
X334578Y15270D01*
X334635Y15261D01*
X334694Y15256D01*
X334752Y15254D01*
X335063Y15254D01*
X337353Y13391D02*
X337353Y18979D01*
X338905Y18979D01*
X338963Y18977D01*
X339022Y18972D01*
X339079Y18963D01*
X339137Y18950D01*
X339193Y18933D01*
X339248Y18914D01*
X339301Y18890D01*
X339354Y18864D01*
X339404Y18834D01*
X339452Y18801D01*
X339498Y18765D01*
X339542Y18727D01*
X339584Y18685D01*
X339622Y18641D01*
X339658Y18595D01*
X339691Y18547D01*
X339721Y18497D01*
X339747Y18444D01*
X339771Y18391D01*
X339790Y18336D01*
X339807Y18280D01*
X339820Y18222D01*
X339829Y18165D01*
X339834Y18106D01*
X339836Y18048D01*
X339836Y16185D01*
X339834Y16127D01*
X339829Y16068D01*
X339820Y16011D01*
X339807Y15953D01*
X339790Y15897D01*
X339771Y15842D01*
X339747Y15789D01*
X339721Y15736D01*
X339691Y15686D01*
X339658Y15638D01*
X339622Y15592D01*
X339584Y15548D01*
X339542Y15506D01*
X339498Y15468D01*
X339452Y15432D01*
X339404Y15399D01*
X339354Y15369D01*
X339301Y15343D01*
X339248Y15319D01*
X339193Y15300D01*
X339137Y15283D01*
X339079Y15270D01*
X339022Y15261D01*
X338963Y15256D01*
X338905Y15254D01*
X337353Y15254D01*
X342544Y17427D02*
X344097Y16806D01*
X342544Y17427D02*
X342493Y17449D01*
X342444Y17475D01*
X342396Y17504D01*
X342351Y17537D01*
X342308Y17573D01*
X342267Y17611D01*
X342230Y17653D01*
X342195Y17696D01*
X342163Y17742D01*
X342135Y17791D01*
X342110Y17841D01*
X342089Y17892D01*
X342071Y17945D01*
X342057Y17999D01*
X342047Y18054D01*
X342041Y18110D01*
X342038Y18165D01*
X342039Y18221D01*
X342045Y18277D01*
X342054Y18332D01*
X342066Y18386D01*
X342083Y18440D01*
X342103Y18492D01*
X342127Y18542D01*
X342154Y18591D01*
X342185Y18638D01*
X342219Y18682D01*
X342255Y18724D01*
X342295Y18764D01*
X342337Y18800D01*
X342382Y18834D01*
X342429Y18864D01*
X342477Y18891D01*
X342528Y18915D01*
X342580Y18935D01*
X342634Y18951D01*
X342688Y18964D01*
X342743Y18973D01*
X342799Y18978D01*
X342855Y18979D01*
X342855Y18980D02*
X342966Y18976D01*
X343077Y18970D01*
X343187Y18959D01*
X343297Y18945D01*
X343407Y18928D01*
X343516Y18908D01*
X343624Y18884D01*
X343731Y18856D01*
X343838Y18825D01*
X343943Y18791D01*
X344048Y18754D01*
X344151Y18713D01*
X344253Y18669D01*
X344097Y16806D02*
X344148Y16784D01*
X344197Y16758D01*
X344245Y16729D01*
X344290Y16696D01*
X344333Y16660D01*
X344374Y16622D01*
X344411Y16580D01*
X344446Y16537D01*
X344478Y16491D01*
X344506Y16442D01*
X344531Y16392D01*
X344552Y16341D01*
X344570Y16288D01*
X344584Y16234D01*
X344594Y16179D01*
X344600Y16123D01*
X344603Y16068D01*
X344602Y16012D01*
X344596Y15956D01*
X344587Y15901D01*
X344575Y15847D01*
X344558Y15793D01*
X344538Y15741D01*
X344514Y15691D01*
X344487Y15642D01*
X344456Y15595D01*
X344422Y15551D01*
X344386Y15509D01*
X344346Y15469D01*
X344304Y15433D01*
X344259Y15399D01*
X344212Y15369D01*
X344164Y15342D01*
X344113Y15318D01*
X344061Y15298D01*
X344007Y15282D01*
X343953Y15269D01*
X343898Y15260D01*
X343842Y15255D01*
X343786Y15254D01*
X343652Y15257D01*
X343518Y15264D01*
X343384Y15275D01*
X343251Y15288D01*
X343118Y15306D01*
X342985Y15326D01*
X342853Y15350D01*
X342722Y15378D01*
X342591Y15408D01*
X342462Y15442D01*
X342333Y15480D01*
X342205Y15520D01*
X342078Y15564D01*
X346823Y15720D02*
X346823Y16030D01*
X347133Y16030D01*
X347133Y15720D01*
X346823Y15720D01*
X346823Y18203D02*
X346823Y18514D01*
X347133Y18514D01*
X347133Y18203D01*
X346823Y18203D01*
X349211Y14633D02*
X351695Y21463D01*
X356084Y21463D02*
X353600Y14633D01*
X359075Y15254D02*
X360627Y15254D01*
X359075Y15254D02*
X359017Y15256D01*
X358958Y15261D01*
X358901Y15270D01*
X358843Y15283D01*
X358787Y15300D01*
X358732Y15319D01*
X358679Y15343D01*
X358626Y15369D01*
X358576Y15399D01*
X358528Y15432D01*
X358482Y15468D01*
X358438Y15506D01*
X358396Y15548D01*
X358358Y15592D01*
X358322Y15638D01*
X358289Y15686D01*
X358259Y15736D01*
X358233Y15789D01*
X358209Y15842D01*
X358190Y15897D01*
X358173Y15953D01*
X358160Y16011D01*
X358151Y16068D01*
X358146Y16127D01*
X358144Y16185D01*
X358143Y16185D02*
X358143Y18048D01*
X358144Y18048D02*
X358146Y18106D01*
X358151Y18165D01*
X358160Y18222D01*
X358173Y18280D01*
X358190Y18336D01*
X358209Y18391D01*
X358233Y18444D01*
X358259Y18497D01*
X358289Y18547D01*
X358322Y18595D01*
X358358Y18641D01*
X358396Y18685D01*
X358438Y18727D01*
X358482Y18765D01*
X358528Y18801D01*
X358576Y18834D01*
X358626Y18864D01*
X358679Y18890D01*
X358732Y18914D01*
X358787Y18933D01*
X358843Y18950D01*
X358901Y18963D01*
X358958Y18972D01*
X359017Y18977D01*
X359075Y18979D01*
X360627Y18979D01*
X360627Y14323D01*
X360626Y14323D02*
X360624Y14262D01*
X360618Y14201D01*
X360608Y14141D01*
X360594Y14082D01*
X360577Y14024D01*
X360555Y13967D01*
X360530Y13911D01*
X360501Y13858D01*
X360469Y13806D01*
X360434Y13756D01*
X360395Y13709D01*
X360353Y13665D01*
X360309Y13623D01*
X360262Y13584D01*
X360212Y13549D01*
X360161Y13517D01*
X360107Y13488D01*
X360051Y13463D01*
X359994Y13441D01*
X359936Y13424D01*
X359877Y13410D01*
X359817Y13400D01*
X359756Y13394D01*
X359695Y13392D01*
X359696Y13391D02*
X358454Y13391D01*
X363072Y15254D02*
X363072Y18979D01*
X362916Y20532D02*
X362916Y20842D01*
X363227Y20842D01*
X363227Y20532D01*
X362916Y20532D01*
X364838Y18979D02*
X366701Y18979D01*
X365459Y20842D02*
X365459Y16185D01*
X365461Y16127D01*
X365466Y16068D01*
X365475Y16011D01*
X365488Y15953D01*
X365505Y15897D01*
X365524Y15842D01*
X365548Y15789D01*
X365574Y15736D01*
X365604Y15686D01*
X365637Y15638D01*
X365673Y15592D01*
X365711Y15548D01*
X365753Y15506D01*
X365797Y15468D01*
X365843Y15432D01*
X365891Y15399D01*
X365942Y15369D01*
X365994Y15343D01*
X366047Y15319D01*
X366102Y15300D01*
X366158Y15283D01*
X366216Y15270D01*
X366273Y15261D01*
X366332Y15256D01*
X366390Y15254D01*
X366701Y15254D01*
X368962Y15254D02*
X368962Y20842D01*
X368962Y18979D02*
X370514Y18979D01*
X370572Y18977D01*
X370631Y18972D01*
X370688Y18963D01*
X370746Y18950D01*
X370802Y18933D01*
X370857Y18914D01*
X370910Y18890D01*
X370963Y18864D01*
X371013Y18834D01*
X371061Y18801D01*
X371107Y18765D01*
X371151Y18727D01*
X371193Y18685D01*
X371231Y18641D01*
X371267Y18595D01*
X371300Y18547D01*
X371330Y18497D01*
X371356Y18444D01*
X371380Y18391D01*
X371399Y18336D01*
X371416Y18280D01*
X371429Y18222D01*
X371438Y18165D01*
X371443Y18106D01*
X371445Y18048D01*
X371446Y18048D02*
X371446Y15254D01*
X374083Y16185D02*
X374083Y18979D01*
X374083Y16185D02*
X374085Y16127D01*
X374090Y16068D01*
X374099Y16011D01*
X374112Y15953D01*
X374129Y15897D01*
X374148Y15842D01*
X374172Y15789D01*
X374198Y15736D01*
X374228Y15686D01*
X374261Y15638D01*
X374297Y15592D01*
X374335Y15548D01*
X374377Y15506D01*
X374421Y15468D01*
X374467Y15432D01*
X374515Y15399D01*
X374565Y15369D01*
X374618Y15343D01*
X374671Y15319D01*
X374726Y15300D01*
X374782Y15283D01*
X374840Y15270D01*
X374897Y15261D01*
X374956Y15256D01*
X375014Y15254D01*
X376566Y15254D01*
X376566Y18979D01*
X379232Y20842D02*
X379232Y15254D01*
X380784Y15254D01*
X380842Y15256D01*
X380901Y15261D01*
X380958Y15270D01*
X381016Y15283D01*
X381072Y15300D01*
X381127Y15319D01*
X381180Y15343D01*
X381233Y15369D01*
X381283Y15399D01*
X381331Y15432D01*
X381377Y15468D01*
X381421Y15506D01*
X381463Y15548D01*
X381501Y15592D01*
X381537Y15638D01*
X381570Y15686D01*
X381600Y15736D01*
X381626Y15789D01*
X381650Y15842D01*
X381669Y15897D01*
X381686Y15953D01*
X381699Y16011D01*
X381708Y16068D01*
X381713Y16127D01*
X381715Y16185D01*
X381716Y16185D02*
X381716Y18048D01*
X381715Y18048D02*
X381713Y18106D01*
X381708Y18165D01*
X381699Y18222D01*
X381686Y18280D01*
X381669Y18336D01*
X381650Y18391D01*
X381626Y18444D01*
X381600Y18497D01*
X381570Y18547D01*
X381537Y18595D01*
X381501Y18641D01*
X381463Y18685D01*
X381421Y18727D01*
X381377Y18765D01*
X381331Y18801D01*
X381283Y18834D01*
X381233Y18864D01*
X381180Y18890D01*
X381127Y18914D01*
X381072Y18933D01*
X381016Y18950D01*
X380958Y18963D01*
X380901Y18972D01*
X380842Y18977D01*
X380784Y18979D01*
X379232Y18979D01*
X383764Y15564D02*
X383764Y15254D01*
X383764Y15564D02*
X384075Y15564D01*
X384075Y15254D01*
X383764Y15254D01*
X387090Y15254D02*
X388332Y15254D01*
X387090Y15254D02*
X387032Y15256D01*
X386973Y15261D01*
X386916Y15270D01*
X386858Y15283D01*
X386802Y15300D01*
X386747Y15319D01*
X386694Y15343D01*
X386641Y15369D01*
X386591Y15399D01*
X386543Y15432D01*
X386497Y15468D01*
X386453Y15506D01*
X386411Y15548D01*
X386373Y15592D01*
X386337Y15638D01*
X386304Y15686D01*
X386274Y15736D01*
X386248Y15789D01*
X386224Y15842D01*
X386205Y15897D01*
X386188Y15953D01*
X386175Y16011D01*
X386166Y16068D01*
X386161Y16127D01*
X386159Y16185D01*
X386159Y18048D01*
X386161Y18106D01*
X386166Y18165D01*
X386175Y18222D01*
X386188Y18280D01*
X386205Y18336D01*
X386224Y18391D01*
X386248Y18444D01*
X386274Y18497D01*
X386304Y18547D01*
X386337Y18595D01*
X386373Y18641D01*
X386411Y18685D01*
X386453Y18727D01*
X386497Y18765D01*
X386543Y18801D01*
X386591Y18834D01*
X386641Y18864D01*
X386694Y18890D01*
X386747Y18914D01*
X386802Y18933D01*
X386858Y18950D01*
X386916Y18963D01*
X386973Y18972D01*
X387032Y18977D01*
X387090Y18979D01*
X388332Y18979D01*
X390359Y17738D02*
X390359Y16496D01*
X390358Y17738D02*
X390360Y17808D01*
X390366Y17877D01*
X390376Y17946D01*
X390389Y18014D01*
X390407Y18082D01*
X390428Y18148D01*
X390453Y18213D01*
X390481Y18277D01*
X390513Y18339D01*
X390548Y18399D01*
X390587Y18457D01*
X390629Y18512D01*
X390674Y18566D01*
X390722Y18616D01*
X390772Y18664D01*
X390826Y18709D01*
X390881Y18751D01*
X390939Y18790D01*
X390999Y18825D01*
X391061Y18857D01*
X391125Y18885D01*
X391190Y18910D01*
X391256Y18931D01*
X391324Y18949D01*
X391392Y18962D01*
X391461Y18972D01*
X391530Y18978D01*
X391600Y18980D01*
X391670Y18978D01*
X391739Y18972D01*
X391808Y18962D01*
X391876Y18949D01*
X391944Y18931D01*
X392010Y18910D01*
X392075Y18885D01*
X392139Y18857D01*
X392201Y18825D01*
X392261Y18790D01*
X392319Y18751D01*
X392374Y18709D01*
X392428Y18664D01*
X392478Y18616D01*
X392526Y18566D01*
X392571Y18512D01*
X392613Y18457D01*
X392652Y18399D01*
X392687Y18339D01*
X392719Y18277D01*
X392747Y18213D01*
X392772Y18148D01*
X392793Y18082D01*
X392811Y18014D01*
X392824Y17946D01*
X392834Y17877D01*
X392840Y17808D01*
X392842Y17738D01*
X392842Y16496D01*
X392840Y16426D01*
X392834Y16357D01*
X392824Y16288D01*
X392811Y16220D01*
X392793Y16152D01*
X392772Y16086D01*
X392747Y16021D01*
X392719Y15957D01*
X392687Y15895D01*
X392652Y15835D01*
X392613Y15777D01*
X392571Y15722D01*
X392526Y15668D01*
X392478Y15618D01*
X392428Y15570D01*
X392374Y15525D01*
X392319Y15483D01*
X392261Y15444D01*
X392201Y15409D01*
X392139Y15377D01*
X392075Y15349D01*
X392010Y15324D01*
X391944Y15303D01*
X391876Y15285D01*
X391808Y15272D01*
X391739Y15262D01*
X391670Y15256D01*
X391600Y15254D01*
X391530Y15256D01*
X391461Y15262D01*
X391392Y15272D01*
X391324Y15285D01*
X391256Y15303D01*
X391190Y15324D01*
X391125Y15349D01*
X391061Y15377D01*
X390999Y15409D01*
X390939Y15444D01*
X390881Y15483D01*
X390826Y15525D01*
X390772Y15570D01*
X390722Y15618D01*
X390674Y15668D01*
X390629Y15722D01*
X390587Y15777D01*
X390548Y15835D01*
X390513Y15895D01*
X390481Y15957D01*
X390453Y16021D01*
X390428Y16086D01*
X390407Y16152D01*
X390389Y16220D01*
X390376Y16288D01*
X390366Y16357D01*
X390360Y16426D01*
X390358Y16496D01*
X395407Y15254D02*
X395407Y18979D01*
X398201Y18979D01*
X398259Y18977D01*
X398318Y18972D01*
X398375Y18963D01*
X398433Y18950D01*
X398489Y18933D01*
X398544Y18914D01*
X398597Y18890D01*
X398650Y18864D01*
X398700Y18834D01*
X398748Y18801D01*
X398794Y18765D01*
X398838Y18727D01*
X398880Y18685D01*
X398918Y18641D01*
X398954Y18595D01*
X398987Y18547D01*
X399017Y18497D01*
X399043Y18444D01*
X399067Y18391D01*
X399086Y18336D01*
X399103Y18280D01*
X399116Y18222D01*
X399125Y18165D01*
X399130Y18106D01*
X399132Y18048D01*
X399132Y15254D01*
X397270Y15254D02*
X397270Y18979D01*
X401514Y14633D02*
X403998Y21463D01*
X406552Y17427D02*
X408104Y16806D01*
X406552Y17427D02*
X406501Y17449D01*
X406452Y17475D01*
X406404Y17504D01*
X406359Y17537D01*
X406316Y17573D01*
X406275Y17611D01*
X406238Y17653D01*
X406203Y17696D01*
X406171Y17742D01*
X406143Y17791D01*
X406118Y17841D01*
X406097Y17892D01*
X406079Y17945D01*
X406065Y17999D01*
X406055Y18054D01*
X406049Y18110D01*
X406046Y18165D01*
X406047Y18221D01*
X406053Y18277D01*
X406062Y18332D01*
X406074Y18386D01*
X406091Y18440D01*
X406111Y18492D01*
X406135Y18542D01*
X406162Y18591D01*
X406193Y18638D01*
X406227Y18682D01*
X406263Y18724D01*
X406303Y18764D01*
X406345Y18800D01*
X406390Y18834D01*
X406437Y18864D01*
X406485Y18891D01*
X406536Y18915D01*
X406588Y18935D01*
X406642Y18951D01*
X406696Y18964D01*
X406751Y18973D01*
X406807Y18978D01*
X406863Y18979D01*
X406862Y18980D02*
X406973Y18976D01*
X407084Y18970D01*
X407194Y18959D01*
X407304Y18945D01*
X407414Y18928D01*
X407523Y18908D01*
X407631Y18884D01*
X407738Y18856D01*
X407845Y18825D01*
X407950Y18791D01*
X408055Y18754D01*
X408158Y18713D01*
X408260Y18669D01*
X408104Y16806D02*
X408155Y16784D01*
X408204Y16758D01*
X408252Y16729D01*
X408297Y16696D01*
X408340Y16660D01*
X408381Y16622D01*
X408418Y16580D01*
X408453Y16537D01*
X408485Y16491D01*
X408513Y16442D01*
X408538Y16392D01*
X408559Y16341D01*
X408577Y16288D01*
X408591Y16234D01*
X408601Y16179D01*
X408607Y16123D01*
X408610Y16068D01*
X408609Y16012D01*
X408603Y15956D01*
X408594Y15901D01*
X408582Y15847D01*
X408565Y15793D01*
X408545Y15741D01*
X408521Y15691D01*
X408494Y15642D01*
X408463Y15595D01*
X408429Y15551D01*
X408393Y15509D01*
X408353Y15469D01*
X408311Y15433D01*
X408266Y15399D01*
X408219Y15369D01*
X408171Y15342D01*
X408120Y15318D01*
X408068Y15298D01*
X408014Y15282D01*
X407960Y15269D01*
X407905Y15260D01*
X407849Y15255D01*
X407793Y15254D01*
X407794Y15254D02*
X407660Y15257D01*
X407526Y15264D01*
X407392Y15275D01*
X407259Y15288D01*
X407126Y15306D01*
X406993Y15326D01*
X406861Y15350D01*
X406730Y15378D01*
X406599Y15408D01*
X406470Y15442D01*
X406341Y15480D01*
X406213Y15520D01*
X406086Y15564D01*
X410375Y18979D02*
X412238Y18979D01*
X410996Y20842D02*
X410996Y16185D01*
X410998Y16127D01*
X411003Y16068D01*
X411012Y16011D01*
X411025Y15953D01*
X411042Y15897D01*
X411061Y15842D01*
X411085Y15789D01*
X411111Y15736D01*
X411141Y15686D01*
X411174Y15638D01*
X411210Y15592D01*
X411248Y15548D01*
X411290Y15506D01*
X411334Y15468D01*
X411380Y15432D01*
X411428Y15399D01*
X411479Y15369D01*
X411531Y15343D01*
X411584Y15319D01*
X411639Y15300D01*
X411695Y15283D01*
X411753Y15270D01*
X411810Y15261D01*
X411869Y15256D01*
X411927Y15254D01*
X412238Y15254D01*
X414528Y15254D02*
X414528Y20842D01*
X414528Y15254D02*
X416080Y15254D01*
X416138Y15256D01*
X416197Y15261D01*
X416254Y15270D01*
X416312Y15283D01*
X416368Y15300D01*
X416423Y15319D01*
X416476Y15343D01*
X416529Y15369D01*
X416579Y15399D01*
X416627Y15432D01*
X416673Y15468D01*
X416717Y15506D01*
X416759Y15548D01*
X416797Y15592D01*
X416833Y15638D01*
X416866Y15686D01*
X416896Y15736D01*
X416922Y15789D01*
X416946Y15842D01*
X416965Y15897D01*
X416982Y15953D01*
X416995Y16011D01*
X417004Y16068D01*
X417009Y16127D01*
X417011Y16185D01*
X417011Y18048D01*
X417009Y18106D01*
X417004Y18165D01*
X416995Y18222D01*
X416982Y18280D01*
X416965Y18336D01*
X416946Y18391D01*
X416922Y18444D01*
X416896Y18497D01*
X416866Y18547D01*
X416833Y18595D01*
X416797Y18641D01*
X416759Y18685D01*
X416717Y18727D01*
X416673Y18765D01*
X416627Y18801D01*
X416579Y18834D01*
X416529Y18864D01*
X416476Y18890D01*
X416423Y18914D01*
X416368Y18933D01*
X416312Y18950D01*
X416254Y18963D01*
X416197Y18972D01*
X416138Y18977D01*
X416080Y18979D01*
X414528Y18979D01*
X419309Y16496D02*
X420551Y20842D01*
X419309Y16496D02*
X422413Y16496D01*
X421482Y17738D02*
X421482Y15254D01*
X426037Y17738D02*
X427900Y17738D01*
X426037Y17737D02*
X425967Y17739D01*
X425898Y17745D01*
X425829Y17755D01*
X425761Y17768D01*
X425693Y17786D01*
X425627Y17807D01*
X425562Y17832D01*
X425498Y17860D01*
X425436Y17892D01*
X425376Y17927D01*
X425318Y17966D01*
X425263Y18008D01*
X425209Y18053D01*
X425159Y18101D01*
X425111Y18151D01*
X425066Y18205D01*
X425024Y18260D01*
X424985Y18318D01*
X424950Y18378D01*
X424918Y18440D01*
X424890Y18504D01*
X424865Y18569D01*
X424844Y18635D01*
X424826Y18703D01*
X424813Y18771D01*
X424803Y18840D01*
X424797Y18909D01*
X424795Y18979D01*
X424795Y19290D01*
X424796Y19290D02*
X424798Y19367D01*
X424804Y19445D01*
X424813Y19521D01*
X424827Y19598D01*
X424844Y19673D01*
X424865Y19747D01*
X424890Y19821D01*
X424918Y19893D01*
X424950Y19963D01*
X424985Y20032D01*
X425024Y20099D01*
X425066Y20164D01*
X425111Y20227D01*
X425159Y20288D01*
X425210Y20346D01*
X425264Y20401D01*
X425321Y20454D01*
X425380Y20503D01*
X425442Y20550D01*
X425506Y20594D01*
X425572Y20634D01*
X425640Y20671D01*
X425710Y20705D01*
X425781Y20735D01*
X425854Y20761D01*
X425928Y20784D01*
X426003Y20803D01*
X426078Y20818D01*
X426155Y20830D01*
X426232Y20838D01*
X426309Y20842D01*
X426387Y20842D01*
X426464Y20838D01*
X426541Y20830D01*
X426618Y20818D01*
X426693Y20803D01*
X426768Y20784D01*
X426842Y20761D01*
X426915Y20735D01*
X426986Y20705D01*
X427056Y20671D01*
X427124Y20634D01*
X427190Y20594D01*
X427254Y20550D01*
X427316Y20503D01*
X427375Y20454D01*
X427432Y20401D01*
X427486Y20346D01*
X427537Y20288D01*
X427585Y20227D01*
X427630Y20164D01*
X427672Y20099D01*
X427711Y20032D01*
X427746Y19963D01*
X427778Y19893D01*
X427806Y19821D01*
X427831Y19747D01*
X427852Y19673D01*
X427869Y19598D01*
X427883Y19521D01*
X427892Y19445D01*
X427898Y19367D01*
X427900Y19290D01*
X427900Y17738D01*
X427898Y17640D01*
X427892Y17543D01*
X427883Y17446D01*
X427869Y17349D01*
X427852Y17253D01*
X427831Y17158D01*
X427807Y17064D01*
X427778Y16970D01*
X427746Y16878D01*
X427711Y16787D01*
X427672Y16698D01*
X427629Y16610D01*
X427583Y16524D01*
X427534Y16440D01*
X427481Y16358D01*
X427426Y16278D01*
X427367Y16200D01*
X427305Y16125D01*
X427240Y16052D01*
X427172Y15982D01*
X427102Y15914D01*
X427029Y15849D01*
X426954Y15787D01*
X426876Y15728D01*
X426796Y15673D01*
X426714Y15620D01*
X426630Y15571D01*
X426544Y15525D01*
X426456Y15482D01*
X426367Y15443D01*
X426276Y15408D01*
X426184Y15376D01*
X426090Y15347D01*
X425996Y15323D01*
X425901Y15302D01*
X425805Y15285D01*
X425708Y15271D01*
X425611Y15262D01*
X425513Y15256D01*
X425416Y15254D01*
X430282Y18048D02*
X430284Y18179D01*
X430289Y18309D01*
X430299Y18439D01*
X430312Y18569D01*
X430328Y18699D01*
X430348Y18828D01*
X430372Y18956D01*
X430400Y19083D01*
X430431Y19210D01*
X430466Y19336D01*
X430504Y19461D01*
X430546Y19585D01*
X430591Y19707D01*
X430640Y19828D01*
X430692Y19948D01*
X430748Y20066D01*
X430747Y20066D02*
X430770Y20126D01*
X430796Y20186D01*
X430825Y20243D01*
X430858Y20299D01*
X430894Y20353D01*
X430932Y20405D01*
X430974Y20455D01*
X431018Y20502D01*
X431065Y20547D01*
X431115Y20589D01*
X431166Y20628D01*
X431220Y20664D01*
X431276Y20697D01*
X431333Y20727D01*
X431392Y20754D01*
X431453Y20777D01*
X431514Y20797D01*
X431577Y20813D01*
X431641Y20826D01*
X431705Y20835D01*
X431769Y20840D01*
X431834Y20842D01*
X431899Y20840D01*
X431963Y20835D01*
X432027Y20826D01*
X432091Y20813D01*
X432154Y20797D01*
X432215Y20777D01*
X432276Y20754D01*
X432335Y20727D01*
X432392Y20697D01*
X432448Y20664D01*
X432502Y20628D01*
X432553Y20589D01*
X432603Y20547D01*
X432650Y20502D01*
X432694Y20455D01*
X432736Y20405D01*
X432774Y20353D01*
X432810Y20299D01*
X432843Y20243D01*
X432872Y20186D01*
X432898Y20126D01*
X432921Y20066D01*
X432920Y20066D02*
X432976Y19948D01*
X433028Y19828D01*
X433077Y19707D01*
X433122Y19585D01*
X433164Y19461D01*
X433202Y19336D01*
X433237Y19210D01*
X433268Y19084D01*
X433296Y18956D01*
X433320Y18828D01*
X433340Y18699D01*
X433356Y18569D01*
X433369Y18439D01*
X433379Y18309D01*
X433384Y18179D01*
X433386Y18048D01*
X430282Y18048D02*
X430284Y17917D01*
X430289Y17787D01*
X430299Y17657D01*
X430312Y17527D01*
X430328Y17397D01*
X430348Y17268D01*
X430372Y17140D01*
X430400Y17013D01*
X430431Y16886D01*
X430466Y16760D01*
X430504Y16635D01*
X430546Y16511D01*
X430591Y16389D01*
X430640Y16268D01*
X430692Y16148D01*
X430748Y16030D01*
X430747Y16030D02*
X430770Y15970D01*
X430796Y15910D01*
X430825Y15853D01*
X430858Y15797D01*
X430894Y15743D01*
X430932Y15691D01*
X430974Y15641D01*
X431018Y15594D01*
X431065Y15549D01*
X431115Y15507D01*
X431166Y15468D01*
X431220Y15432D01*
X431276Y15399D01*
X431333Y15369D01*
X431392Y15342D01*
X431453Y15319D01*
X431514Y15299D01*
X431577Y15283D01*
X431641Y15270D01*
X431705Y15261D01*
X431769Y15256D01*
X431834Y15254D01*
X432920Y16030D02*
X432976Y16148D01*
X433028Y16268D01*
X433077Y16389D01*
X433122Y16511D01*
X433164Y16635D01*
X433202Y16760D01*
X433237Y16886D01*
X433268Y17012D01*
X433296Y17140D01*
X433320Y17268D01*
X433340Y17397D01*
X433356Y17527D01*
X433369Y17657D01*
X433379Y17787D01*
X433384Y17917D01*
X433386Y18048D01*
X432921Y16030D02*
X432898Y15970D01*
X432872Y15910D01*
X432843Y15853D01*
X432810Y15797D01*
X432774Y15743D01*
X432736Y15691D01*
X432694Y15641D01*
X432650Y15594D01*
X432603Y15549D01*
X432553Y15507D01*
X432502Y15468D01*
X432448Y15432D01*
X432392Y15399D01*
X432335Y15369D01*
X432276Y15342D01*
X432215Y15319D01*
X432154Y15299D01*
X432091Y15283D01*
X432027Y15270D01*
X431963Y15261D01*
X431899Y15256D01*
X431834Y15254D01*
X430592Y16496D02*
X433076Y19600D01*
X435768Y20221D02*
X435768Y20842D01*
X438872Y20842D01*
X437320Y15254D01*
X441255Y16806D02*
X441257Y16883D01*
X441263Y16961D01*
X441272Y17037D01*
X441286Y17114D01*
X441303Y17189D01*
X441324Y17263D01*
X441349Y17337D01*
X441377Y17409D01*
X441409Y17479D01*
X441444Y17548D01*
X441483Y17615D01*
X441525Y17680D01*
X441570Y17743D01*
X441618Y17804D01*
X441669Y17862D01*
X441723Y17917D01*
X441780Y17970D01*
X441839Y18019D01*
X441901Y18066D01*
X441965Y18110D01*
X442031Y18150D01*
X442099Y18187D01*
X442169Y18221D01*
X442240Y18251D01*
X442313Y18277D01*
X442387Y18300D01*
X442462Y18319D01*
X442537Y18334D01*
X442614Y18346D01*
X442691Y18354D01*
X442768Y18358D01*
X442846Y18358D01*
X442923Y18354D01*
X443000Y18346D01*
X443077Y18334D01*
X443152Y18319D01*
X443227Y18300D01*
X443301Y18277D01*
X443374Y18251D01*
X443445Y18221D01*
X443515Y18187D01*
X443583Y18150D01*
X443649Y18110D01*
X443713Y18066D01*
X443775Y18019D01*
X443834Y17970D01*
X443891Y17917D01*
X443945Y17862D01*
X443996Y17804D01*
X444044Y17743D01*
X444089Y17680D01*
X444131Y17615D01*
X444170Y17548D01*
X444205Y17479D01*
X444237Y17409D01*
X444265Y17337D01*
X444290Y17263D01*
X444311Y17189D01*
X444328Y17114D01*
X444342Y17037D01*
X444351Y16961D01*
X444357Y16883D01*
X444359Y16806D01*
X444357Y16729D01*
X444351Y16651D01*
X444342Y16575D01*
X444328Y16498D01*
X444311Y16423D01*
X444290Y16349D01*
X444265Y16275D01*
X444237Y16203D01*
X444205Y16133D01*
X444170Y16064D01*
X444131Y15997D01*
X444089Y15932D01*
X444044Y15869D01*
X443996Y15808D01*
X443945Y15750D01*
X443891Y15695D01*
X443834Y15642D01*
X443775Y15593D01*
X443713Y15546D01*
X443649Y15502D01*
X443583Y15462D01*
X443515Y15425D01*
X443445Y15391D01*
X443374Y15361D01*
X443301Y15335D01*
X443227Y15312D01*
X443152Y15293D01*
X443077Y15278D01*
X443000Y15266D01*
X442923Y15258D01*
X442846Y15254D01*
X442768Y15254D01*
X442691Y15258D01*
X442614Y15266D01*
X442537Y15278D01*
X442462Y15293D01*
X442387Y15312D01*
X442313Y15335D01*
X442240Y15361D01*
X442169Y15391D01*
X442099Y15425D01*
X442031Y15462D01*
X441965Y15502D01*
X441901Y15546D01*
X441839Y15593D01*
X441780Y15642D01*
X441723Y15695D01*
X441669Y15750D01*
X441618Y15808D01*
X441570Y15869D01*
X441525Y15932D01*
X441483Y15997D01*
X441444Y16064D01*
X441409Y16133D01*
X441377Y16203D01*
X441349Y16275D01*
X441324Y16349D01*
X441303Y16423D01*
X441286Y16498D01*
X441272Y16575D01*
X441263Y16651D01*
X441257Y16729D01*
X441255Y16806D01*
X441565Y19600D02*
X441567Y19670D01*
X441573Y19739D01*
X441583Y19808D01*
X441596Y19876D01*
X441614Y19944D01*
X441635Y20010D01*
X441660Y20075D01*
X441688Y20139D01*
X441720Y20201D01*
X441755Y20261D01*
X441794Y20319D01*
X441836Y20374D01*
X441881Y20428D01*
X441929Y20478D01*
X441979Y20526D01*
X442033Y20571D01*
X442088Y20613D01*
X442146Y20652D01*
X442206Y20687D01*
X442268Y20719D01*
X442332Y20747D01*
X442397Y20772D01*
X442463Y20793D01*
X442531Y20811D01*
X442599Y20824D01*
X442668Y20834D01*
X442737Y20840D01*
X442807Y20842D01*
X442877Y20840D01*
X442946Y20834D01*
X443015Y20824D01*
X443083Y20811D01*
X443151Y20793D01*
X443217Y20772D01*
X443282Y20747D01*
X443346Y20719D01*
X443408Y20687D01*
X443468Y20652D01*
X443526Y20613D01*
X443581Y20571D01*
X443635Y20526D01*
X443685Y20478D01*
X443733Y20428D01*
X443778Y20374D01*
X443820Y20319D01*
X443859Y20261D01*
X443894Y20201D01*
X443926Y20139D01*
X443954Y20075D01*
X443979Y20010D01*
X444000Y19944D01*
X444018Y19876D01*
X444031Y19808D01*
X444041Y19739D01*
X444047Y19670D01*
X444049Y19600D01*
X444047Y19530D01*
X444041Y19461D01*
X444031Y19392D01*
X444018Y19324D01*
X444000Y19256D01*
X443979Y19190D01*
X443954Y19125D01*
X443926Y19061D01*
X443894Y18999D01*
X443859Y18939D01*
X443820Y18881D01*
X443778Y18826D01*
X443733Y18772D01*
X443685Y18722D01*
X443635Y18674D01*
X443581Y18629D01*
X443526Y18587D01*
X443468Y18548D01*
X443408Y18513D01*
X443346Y18481D01*
X443282Y18453D01*
X443217Y18428D01*
X443151Y18407D01*
X443083Y18389D01*
X443015Y18376D01*
X442946Y18366D01*
X442877Y18360D01*
X442807Y18358D01*
X442737Y18360D01*
X442668Y18366D01*
X442599Y18376D01*
X442531Y18389D01*
X442463Y18407D01*
X442397Y18428D01*
X442332Y18453D01*
X442268Y18481D01*
X442206Y18513D01*
X442146Y18548D01*
X442088Y18587D01*
X442033Y18629D01*
X441979Y18674D01*
X441929Y18722D01*
X441881Y18772D01*
X441836Y18826D01*
X441794Y18881D01*
X441755Y18939D01*
X441720Y18999D01*
X441688Y19061D01*
X441660Y19125D01*
X441635Y19190D01*
X441614Y19256D01*
X441596Y19324D01*
X441583Y19392D01*
X441573Y19461D01*
X441567Y19530D01*
X441565Y19600D01*
X446503Y14633D02*
X448986Y21463D01*
X451257Y18979D02*
X451257Y15254D01*
X451257Y18979D02*
X452810Y18979D01*
X452868Y18977D01*
X452927Y18972D01*
X452984Y18963D01*
X453042Y18950D01*
X453098Y18933D01*
X453153Y18914D01*
X453206Y18890D01*
X453259Y18864D01*
X453309Y18834D01*
X453357Y18801D01*
X453403Y18765D01*
X453447Y18727D01*
X453489Y18685D01*
X453527Y18641D01*
X453563Y18595D01*
X453596Y18547D01*
X453626Y18497D01*
X453652Y18444D01*
X453676Y18391D01*
X453695Y18336D01*
X453712Y18280D01*
X453725Y18222D01*
X453734Y18165D01*
X453739Y18106D01*
X453741Y18048D01*
X453741Y15254D01*
X456661Y17427D02*
X458213Y16806D01*
X456661Y17427D02*
X456610Y17449D01*
X456561Y17475D01*
X456513Y17504D01*
X456468Y17537D01*
X456425Y17573D01*
X456384Y17611D01*
X456347Y17653D01*
X456312Y17696D01*
X456280Y17742D01*
X456252Y17791D01*
X456227Y17841D01*
X456206Y17892D01*
X456188Y17945D01*
X456174Y17999D01*
X456164Y18054D01*
X456158Y18110D01*
X456155Y18165D01*
X456156Y18221D01*
X456162Y18277D01*
X456171Y18332D01*
X456183Y18386D01*
X456200Y18440D01*
X456220Y18492D01*
X456244Y18542D01*
X456271Y18591D01*
X456302Y18638D01*
X456336Y18682D01*
X456372Y18724D01*
X456412Y18764D01*
X456454Y18800D01*
X456499Y18834D01*
X456546Y18864D01*
X456594Y18891D01*
X456645Y18915D01*
X456697Y18935D01*
X456751Y18951D01*
X456805Y18964D01*
X456860Y18973D01*
X456916Y18978D01*
X456972Y18979D01*
X456971Y18980D02*
X457082Y18976D01*
X457193Y18970D01*
X457303Y18959D01*
X457413Y18945D01*
X457523Y18928D01*
X457632Y18908D01*
X457740Y18884D01*
X457847Y18856D01*
X457954Y18825D01*
X458059Y18791D01*
X458164Y18754D01*
X458267Y18713D01*
X458369Y18669D01*
X458213Y16806D02*
X458264Y16784D01*
X458313Y16758D01*
X458361Y16729D01*
X458406Y16696D01*
X458449Y16660D01*
X458490Y16622D01*
X458527Y16580D01*
X458562Y16537D01*
X458594Y16491D01*
X458622Y16442D01*
X458647Y16392D01*
X458668Y16341D01*
X458686Y16288D01*
X458700Y16234D01*
X458710Y16179D01*
X458716Y16123D01*
X458719Y16068D01*
X458718Y16012D01*
X458712Y15956D01*
X458703Y15901D01*
X458691Y15847D01*
X458674Y15793D01*
X458654Y15741D01*
X458630Y15691D01*
X458603Y15642D01*
X458572Y15595D01*
X458538Y15551D01*
X458502Y15509D01*
X458462Y15469D01*
X458420Y15433D01*
X458375Y15399D01*
X458328Y15369D01*
X458280Y15342D01*
X458229Y15318D01*
X458177Y15298D01*
X458123Y15282D01*
X458069Y15269D01*
X458014Y15260D01*
X457958Y15255D01*
X457902Y15254D01*
X457903Y15254D02*
X457769Y15257D01*
X457635Y15264D01*
X457501Y15275D01*
X457368Y15288D01*
X457235Y15306D01*
X457102Y15326D01*
X456970Y15350D01*
X456839Y15378D01*
X456708Y15408D01*
X456579Y15442D01*
X456450Y15480D01*
X456322Y15520D01*
X456195Y15564D01*
X461888Y15254D02*
X463130Y15254D01*
X461888Y15254D02*
X461830Y15256D01*
X461771Y15261D01*
X461714Y15270D01*
X461656Y15283D01*
X461600Y15300D01*
X461545Y15319D01*
X461492Y15343D01*
X461439Y15369D01*
X461389Y15399D01*
X461341Y15432D01*
X461295Y15468D01*
X461251Y15506D01*
X461209Y15548D01*
X461171Y15592D01*
X461135Y15638D01*
X461102Y15686D01*
X461072Y15736D01*
X461046Y15789D01*
X461022Y15842D01*
X461003Y15897D01*
X460986Y15953D01*
X460973Y16011D01*
X460964Y16068D01*
X460959Y16127D01*
X460957Y16185D01*
X460957Y18048D01*
X460959Y18106D01*
X460964Y18165D01*
X460973Y18222D01*
X460986Y18280D01*
X461003Y18336D01*
X461022Y18391D01*
X461046Y18444D01*
X461072Y18497D01*
X461102Y18547D01*
X461135Y18595D01*
X461171Y18641D01*
X461209Y18685D01*
X461251Y18727D01*
X461295Y18765D01*
X461341Y18801D01*
X461389Y18834D01*
X461439Y18864D01*
X461492Y18890D01*
X461545Y18914D01*
X461600Y18933D01*
X461656Y18950D01*
X461714Y18963D01*
X461771Y18972D01*
X461830Y18977D01*
X461888Y18979D01*
X463130Y18979D01*
X466214Y17427D02*
X467611Y17427D01*
X466214Y17428D02*
X466150Y17426D01*
X466085Y17420D01*
X466022Y17411D01*
X465959Y17398D01*
X465897Y17381D01*
X465836Y17360D01*
X465776Y17336D01*
X465718Y17308D01*
X465661Y17277D01*
X465607Y17243D01*
X465554Y17205D01*
X465504Y17164D01*
X465457Y17121D01*
X465412Y17075D01*
X465370Y17026D01*
X465331Y16975D01*
X465295Y16921D01*
X465262Y16866D01*
X465233Y16808D01*
X465207Y16750D01*
X465184Y16689D01*
X465165Y16628D01*
X465150Y16565D01*
X465139Y16501D01*
X465131Y16438D01*
X465127Y16373D01*
X465127Y16309D01*
X465131Y16244D01*
X465139Y16181D01*
X465150Y16117D01*
X465165Y16054D01*
X465184Y15993D01*
X465207Y15932D01*
X465233Y15874D01*
X465262Y15816D01*
X465295Y15761D01*
X465331Y15707D01*
X465370Y15656D01*
X465412Y15607D01*
X465457Y15561D01*
X465504Y15518D01*
X465554Y15477D01*
X465607Y15439D01*
X465661Y15405D01*
X465718Y15374D01*
X465776Y15346D01*
X465836Y15322D01*
X465897Y15301D01*
X465959Y15284D01*
X466022Y15271D01*
X466085Y15262D01*
X466150Y15256D01*
X466214Y15254D01*
X467611Y15254D01*
X467611Y18048D01*
X467609Y18106D01*
X467604Y18165D01*
X467595Y18222D01*
X467582Y18280D01*
X467565Y18336D01*
X467546Y18391D01*
X467522Y18444D01*
X467496Y18497D01*
X467466Y18547D01*
X467433Y18595D01*
X467397Y18641D01*
X467359Y18685D01*
X467317Y18727D01*
X467273Y18765D01*
X467227Y18801D01*
X467179Y18834D01*
X467129Y18864D01*
X467076Y18890D01*
X467023Y18914D01*
X466968Y18933D01*
X466912Y18950D01*
X466854Y18963D01*
X466797Y18972D01*
X466738Y18977D01*
X466680Y18979D01*
X465438Y18979D01*
X470163Y20842D02*
X470163Y16185D01*
X470164Y16185D02*
X470166Y16127D01*
X470171Y16068D01*
X470180Y16011D01*
X470193Y15953D01*
X470210Y15897D01*
X470229Y15842D01*
X470253Y15789D01*
X470279Y15736D01*
X470309Y15686D01*
X470342Y15638D01*
X470378Y15592D01*
X470416Y15548D01*
X470458Y15506D01*
X470502Y15468D01*
X470548Y15432D01*
X470596Y15399D01*
X470646Y15369D01*
X470699Y15343D01*
X470752Y15319D01*
X470807Y15300D01*
X470863Y15283D01*
X470921Y15270D01*
X470978Y15261D01*
X471037Y15256D01*
X471095Y15254D01*
X473951Y15254D02*
X475504Y15254D01*
X473951Y15254D02*
X473893Y15256D01*
X473834Y15261D01*
X473777Y15270D01*
X473719Y15283D01*
X473663Y15300D01*
X473608Y15319D01*
X473555Y15343D01*
X473502Y15369D01*
X473452Y15399D01*
X473404Y15432D01*
X473358Y15468D01*
X473314Y15506D01*
X473272Y15548D01*
X473234Y15592D01*
X473198Y15638D01*
X473165Y15686D01*
X473135Y15736D01*
X473109Y15789D01*
X473085Y15842D01*
X473066Y15897D01*
X473049Y15953D01*
X473036Y16011D01*
X473027Y16068D01*
X473022Y16127D01*
X473020Y16185D01*
X473020Y17738D01*
X473022Y17808D01*
X473028Y17877D01*
X473038Y17946D01*
X473051Y18014D01*
X473069Y18082D01*
X473090Y18148D01*
X473115Y18213D01*
X473143Y18277D01*
X473175Y18339D01*
X473210Y18399D01*
X473249Y18457D01*
X473291Y18512D01*
X473336Y18566D01*
X473384Y18616D01*
X473434Y18664D01*
X473488Y18709D01*
X473543Y18751D01*
X473601Y18790D01*
X473661Y18825D01*
X473723Y18857D01*
X473787Y18885D01*
X473852Y18910D01*
X473918Y18931D01*
X473986Y18949D01*
X474054Y18962D01*
X474123Y18972D01*
X474192Y18978D01*
X474262Y18980D01*
X474332Y18978D01*
X474401Y18972D01*
X474470Y18962D01*
X474538Y18949D01*
X474606Y18931D01*
X474672Y18910D01*
X474737Y18885D01*
X474801Y18857D01*
X474863Y18825D01*
X474923Y18790D01*
X474981Y18751D01*
X475036Y18709D01*
X475090Y18664D01*
X475140Y18616D01*
X475188Y18566D01*
X475233Y18512D01*
X475275Y18457D01*
X475314Y18399D01*
X475349Y18339D01*
X475381Y18277D01*
X475409Y18213D01*
X475434Y18148D01*
X475455Y18082D01*
X475473Y18014D01*
X475486Y17946D01*
X475496Y17877D01*
X475502Y17808D01*
X475504Y17738D01*
X475504Y17117D01*
X473020Y17117D01*
X477885Y17427D02*
X481611Y17427D01*
X485050Y17427D02*
X486447Y17427D01*
X485050Y17428D02*
X484986Y17426D01*
X484921Y17420D01*
X484858Y17411D01*
X484795Y17398D01*
X484733Y17381D01*
X484672Y17360D01*
X484612Y17336D01*
X484554Y17308D01*
X484497Y17277D01*
X484443Y17243D01*
X484390Y17205D01*
X484340Y17164D01*
X484293Y17121D01*
X484248Y17075D01*
X484206Y17026D01*
X484167Y16975D01*
X484131Y16921D01*
X484098Y16866D01*
X484069Y16808D01*
X484043Y16750D01*
X484020Y16689D01*
X484001Y16628D01*
X483986Y16565D01*
X483975Y16501D01*
X483967Y16438D01*
X483963Y16373D01*
X483963Y16309D01*
X483967Y16244D01*
X483975Y16181D01*
X483986Y16117D01*
X484001Y16054D01*
X484020Y15993D01*
X484043Y15932D01*
X484069Y15874D01*
X484098Y15816D01*
X484131Y15761D01*
X484167Y15707D01*
X484206Y15656D01*
X484248Y15607D01*
X484293Y15561D01*
X484340Y15518D01*
X484390Y15477D01*
X484443Y15439D01*
X484497Y15405D01*
X484554Y15374D01*
X484612Y15346D01*
X484672Y15322D01*
X484733Y15301D01*
X484795Y15284D01*
X484858Y15271D01*
X484921Y15262D01*
X484986Y15256D01*
X485050Y15254D01*
X486447Y15254D01*
X486447Y18048D01*
X486445Y18106D01*
X486440Y18165D01*
X486431Y18222D01*
X486418Y18280D01*
X486401Y18336D01*
X486382Y18391D01*
X486358Y18444D01*
X486332Y18497D01*
X486302Y18547D01*
X486269Y18595D01*
X486233Y18641D01*
X486195Y18685D01*
X486153Y18727D01*
X486109Y18765D01*
X486063Y18801D01*
X486015Y18834D01*
X485965Y18864D01*
X485912Y18890D01*
X485859Y18914D01*
X485804Y18933D01*
X485748Y18950D01*
X485690Y18963D01*
X485633Y18972D01*
X485574Y18977D01*
X485516Y18979D01*
X484274Y18979D01*
X491385Y20842D02*
X491385Y15254D01*
X489833Y15254D01*
X489775Y15256D01*
X489716Y15261D01*
X489659Y15270D01*
X489601Y15283D01*
X489545Y15300D01*
X489490Y15319D01*
X489437Y15343D01*
X489384Y15369D01*
X489334Y15399D01*
X489286Y15432D01*
X489240Y15468D01*
X489196Y15506D01*
X489154Y15548D01*
X489116Y15592D01*
X489080Y15638D01*
X489047Y15686D01*
X489017Y15736D01*
X488991Y15789D01*
X488967Y15842D01*
X488948Y15897D01*
X488931Y15953D01*
X488918Y16011D01*
X488909Y16068D01*
X488904Y16127D01*
X488902Y16185D01*
X488902Y18048D01*
X488904Y18106D01*
X488909Y18165D01*
X488918Y18222D01*
X488931Y18280D01*
X488948Y18336D01*
X488967Y18391D01*
X488991Y18444D01*
X489017Y18497D01*
X489047Y18547D01*
X489080Y18595D01*
X489116Y18641D01*
X489154Y18685D01*
X489196Y18727D01*
X489240Y18765D01*
X489286Y18801D01*
X489334Y18834D01*
X489384Y18864D01*
X489437Y18890D01*
X489490Y18914D01*
X489545Y18933D01*
X489601Y18950D01*
X489659Y18963D01*
X489716Y18972D01*
X489775Y18977D01*
X489833Y18979D01*
X491385Y18979D01*
X494926Y17427D02*
X496323Y17427D01*
X494926Y17428D02*
X494862Y17426D01*
X494797Y17420D01*
X494734Y17411D01*
X494671Y17398D01*
X494609Y17381D01*
X494548Y17360D01*
X494488Y17336D01*
X494430Y17308D01*
X494373Y17277D01*
X494319Y17243D01*
X494266Y17205D01*
X494216Y17164D01*
X494169Y17121D01*
X494124Y17075D01*
X494082Y17026D01*
X494043Y16975D01*
X494007Y16921D01*
X493974Y16866D01*
X493945Y16808D01*
X493919Y16750D01*
X493896Y16689D01*
X493877Y16628D01*
X493862Y16565D01*
X493851Y16501D01*
X493843Y16438D01*
X493839Y16373D01*
X493839Y16309D01*
X493843Y16244D01*
X493851Y16181D01*
X493862Y16117D01*
X493877Y16054D01*
X493896Y15993D01*
X493919Y15932D01*
X493945Y15874D01*
X493974Y15816D01*
X494007Y15761D01*
X494043Y15707D01*
X494082Y15656D01*
X494124Y15607D01*
X494169Y15561D01*
X494216Y15518D01*
X494266Y15477D01*
X494319Y15439D01*
X494373Y15405D01*
X494430Y15374D01*
X494488Y15346D01*
X494548Y15322D01*
X494609Y15301D01*
X494671Y15284D01*
X494734Y15271D01*
X494797Y15262D01*
X494862Y15256D01*
X494926Y15254D01*
X496323Y15254D01*
X496323Y18048D01*
X496321Y18106D01*
X496316Y18165D01*
X496307Y18222D01*
X496294Y18280D01*
X496277Y18336D01*
X496258Y18391D01*
X496234Y18444D01*
X496208Y18497D01*
X496178Y18547D01*
X496145Y18595D01*
X496109Y18641D01*
X496071Y18685D01*
X496029Y18727D01*
X495985Y18765D01*
X495939Y18801D01*
X495891Y18834D01*
X495841Y18864D01*
X495788Y18890D01*
X495735Y18914D01*
X495680Y18933D01*
X495624Y18950D01*
X495566Y18963D01*
X495509Y18972D01*
X495450Y18977D01*
X495392Y18979D01*
X494150Y18979D01*
X499018Y18979D02*
X499018Y13391D01*
X499018Y18979D02*
X500570Y18979D01*
X500628Y18977D01*
X500687Y18972D01*
X500744Y18963D01*
X500802Y18950D01*
X500858Y18933D01*
X500913Y18914D01*
X500966Y18890D01*
X501019Y18864D01*
X501069Y18834D01*
X501117Y18801D01*
X501163Y18765D01*
X501207Y18727D01*
X501249Y18685D01*
X501287Y18641D01*
X501323Y18595D01*
X501356Y18547D01*
X501386Y18497D01*
X501412Y18444D01*
X501436Y18391D01*
X501455Y18336D01*
X501472Y18280D01*
X501485Y18222D01*
X501494Y18165D01*
X501499Y18106D01*
X501501Y18048D01*
X501501Y16185D01*
X501499Y16127D01*
X501494Y16068D01*
X501485Y16011D01*
X501472Y15953D01*
X501455Y15897D01*
X501436Y15842D01*
X501412Y15789D01*
X501386Y15736D01*
X501356Y15686D01*
X501323Y15638D01*
X501287Y15592D01*
X501249Y15548D01*
X501207Y15506D01*
X501163Y15468D01*
X501117Y15432D01*
X501069Y15399D01*
X501019Y15369D01*
X500966Y15343D01*
X500913Y15319D01*
X500858Y15300D01*
X500802Y15283D01*
X500744Y15270D01*
X500687Y15261D01*
X500628Y15256D01*
X500570Y15254D01*
X499018Y15254D01*
X503277Y18979D02*
X505140Y18979D01*
X503898Y20842D02*
X503898Y16185D01*
X503900Y16127D01*
X503905Y16068D01*
X503914Y16011D01*
X503927Y15953D01*
X503944Y15897D01*
X503963Y15842D01*
X503987Y15789D01*
X504013Y15736D01*
X504043Y15686D01*
X504076Y15638D01*
X504112Y15592D01*
X504150Y15548D01*
X504192Y15506D01*
X504236Y15468D01*
X504282Y15432D01*
X504330Y15399D01*
X504381Y15369D01*
X504433Y15343D01*
X504486Y15319D01*
X504541Y15300D01*
X504597Y15283D01*
X504655Y15270D01*
X504712Y15261D01*
X504771Y15256D01*
X504829Y15254D01*
X505140Y15254D01*
X508150Y15254D02*
X509702Y15254D01*
X508150Y15254D02*
X508092Y15256D01*
X508033Y15261D01*
X507976Y15270D01*
X507918Y15283D01*
X507862Y15300D01*
X507807Y15319D01*
X507754Y15343D01*
X507701Y15369D01*
X507651Y15399D01*
X507603Y15432D01*
X507557Y15468D01*
X507513Y15506D01*
X507471Y15548D01*
X507433Y15592D01*
X507397Y15638D01*
X507364Y15686D01*
X507334Y15736D01*
X507308Y15789D01*
X507284Y15842D01*
X507265Y15897D01*
X507248Y15953D01*
X507235Y16011D01*
X507226Y16068D01*
X507221Y16127D01*
X507219Y16185D01*
X507218Y16185D02*
X507218Y17738D01*
X507220Y17808D01*
X507226Y17877D01*
X507236Y17946D01*
X507249Y18014D01*
X507267Y18082D01*
X507288Y18148D01*
X507313Y18213D01*
X507341Y18277D01*
X507373Y18339D01*
X507408Y18399D01*
X507447Y18457D01*
X507489Y18512D01*
X507534Y18566D01*
X507582Y18616D01*
X507632Y18664D01*
X507686Y18709D01*
X507741Y18751D01*
X507799Y18790D01*
X507859Y18825D01*
X507921Y18857D01*
X507985Y18885D01*
X508050Y18910D01*
X508116Y18931D01*
X508184Y18949D01*
X508252Y18962D01*
X508321Y18972D01*
X508390Y18978D01*
X508460Y18980D01*
X508530Y18978D01*
X508599Y18972D01*
X508668Y18962D01*
X508736Y18949D01*
X508804Y18931D01*
X508870Y18910D01*
X508935Y18885D01*
X508999Y18857D01*
X509061Y18825D01*
X509121Y18790D01*
X509179Y18751D01*
X509234Y18709D01*
X509288Y18664D01*
X509338Y18616D01*
X509386Y18566D01*
X509431Y18512D01*
X509473Y18457D01*
X509512Y18399D01*
X509547Y18339D01*
X509579Y18277D01*
X509607Y18213D01*
X509632Y18148D01*
X509653Y18082D01*
X509671Y18014D01*
X509684Y17946D01*
X509694Y17877D01*
X509700Y17808D01*
X509702Y17738D01*
X509702Y17117D01*
X507218Y17117D01*
X512189Y15254D02*
X512189Y18979D01*
X514051Y18979D01*
X514051Y18358D01*
X515924Y17427D02*
X519650Y17427D01*
X524486Y15254D02*
X524486Y20842D01*
X524486Y15254D02*
X522934Y15254D01*
X522876Y15256D01*
X522817Y15261D01*
X522760Y15270D01*
X522702Y15283D01*
X522646Y15300D01*
X522591Y15319D01*
X522538Y15343D01*
X522485Y15369D01*
X522435Y15399D01*
X522387Y15432D01*
X522341Y15468D01*
X522297Y15506D01*
X522255Y15548D01*
X522217Y15592D01*
X522181Y15638D01*
X522148Y15686D01*
X522118Y15736D01*
X522092Y15789D01*
X522068Y15842D01*
X522049Y15897D01*
X522032Y15953D01*
X522019Y16011D01*
X522010Y16068D01*
X522005Y16127D01*
X522003Y16185D01*
X522003Y18048D01*
X522005Y18106D01*
X522010Y18165D01*
X522019Y18222D01*
X522032Y18280D01*
X522049Y18336D01*
X522068Y18391D01*
X522092Y18444D01*
X522118Y18497D01*
X522148Y18547D01*
X522181Y18595D01*
X522217Y18641D01*
X522255Y18685D01*
X522297Y18727D01*
X522341Y18765D01*
X522387Y18801D01*
X522435Y18834D01*
X522485Y18864D01*
X522538Y18890D01*
X522591Y18914D01*
X522646Y18933D01*
X522702Y18950D01*
X522760Y18963D01*
X522817Y18972D01*
X522876Y18977D01*
X522934Y18979D01*
X524486Y18979D01*
X527900Y15254D02*
X529453Y15254D01*
X527900Y15254D02*
X527842Y15256D01*
X527783Y15261D01*
X527726Y15270D01*
X527668Y15283D01*
X527612Y15300D01*
X527557Y15319D01*
X527504Y15343D01*
X527451Y15369D01*
X527401Y15399D01*
X527353Y15432D01*
X527307Y15468D01*
X527263Y15506D01*
X527221Y15548D01*
X527183Y15592D01*
X527147Y15638D01*
X527114Y15686D01*
X527084Y15736D01*
X527058Y15789D01*
X527034Y15842D01*
X527015Y15897D01*
X526998Y15953D01*
X526985Y16011D01*
X526976Y16068D01*
X526971Y16127D01*
X526969Y16185D01*
X526969Y17738D01*
X526971Y17808D01*
X526977Y17877D01*
X526987Y17946D01*
X527000Y18014D01*
X527018Y18082D01*
X527039Y18148D01*
X527064Y18213D01*
X527092Y18277D01*
X527124Y18339D01*
X527159Y18399D01*
X527198Y18457D01*
X527240Y18512D01*
X527285Y18566D01*
X527333Y18616D01*
X527383Y18664D01*
X527437Y18709D01*
X527492Y18751D01*
X527550Y18790D01*
X527610Y18825D01*
X527672Y18857D01*
X527736Y18885D01*
X527801Y18910D01*
X527867Y18931D01*
X527935Y18949D01*
X528003Y18962D01*
X528072Y18972D01*
X528141Y18978D01*
X528211Y18980D01*
X528281Y18978D01*
X528350Y18972D01*
X528419Y18962D01*
X528487Y18949D01*
X528555Y18931D01*
X528621Y18910D01*
X528686Y18885D01*
X528750Y18857D01*
X528812Y18825D01*
X528872Y18790D01*
X528930Y18751D01*
X528985Y18709D01*
X529039Y18664D01*
X529089Y18616D01*
X529137Y18566D01*
X529182Y18512D01*
X529224Y18457D01*
X529263Y18399D01*
X529298Y18339D01*
X529330Y18277D01*
X529358Y18213D01*
X529383Y18148D01*
X529404Y18082D01*
X529422Y18014D01*
X529435Y17946D01*
X529445Y17877D01*
X529451Y17808D01*
X529453Y17738D01*
X529453Y17117D01*
X526969Y17117D01*
X532662Y15254D02*
X533904Y15254D01*
X532662Y15254D02*
X532604Y15256D01*
X532545Y15261D01*
X532488Y15270D01*
X532430Y15283D01*
X532374Y15300D01*
X532319Y15319D01*
X532266Y15343D01*
X532213Y15369D01*
X532163Y15399D01*
X532115Y15432D01*
X532069Y15468D01*
X532025Y15506D01*
X531983Y15548D01*
X531945Y15592D01*
X531909Y15638D01*
X531876Y15686D01*
X531846Y15736D01*
X531820Y15789D01*
X531796Y15842D01*
X531777Y15897D01*
X531760Y15953D01*
X531747Y16011D01*
X531738Y16068D01*
X531733Y16127D01*
X531731Y16185D01*
X531731Y18048D01*
X531733Y18106D01*
X531738Y18165D01*
X531747Y18222D01*
X531760Y18280D01*
X531777Y18336D01*
X531796Y18391D01*
X531820Y18444D01*
X531846Y18497D01*
X531876Y18547D01*
X531909Y18595D01*
X531945Y18641D01*
X531983Y18685D01*
X532025Y18727D01*
X532069Y18765D01*
X532115Y18801D01*
X532163Y18834D01*
X532213Y18864D01*
X532266Y18890D01*
X532319Y18914D01*
X532374Y18933D01*
X532430Y18950D01*
X532488Y18963D01*
X532545Y18972D01*
X532604Y18977D01*
X532662Y18979D01*
X533904Y18979D01*
X535930Y17738D02*
X535930Y16496D01*
X535930Y17738D02*
X535932Y17808D01*
X535938Y17877D01*
X535948Y17946D01*
X535961Y18014D01*
X535979Y18082D01*
X536000Y18148D01*
X536025Y18213D01*
X536053Y18277D01*
X536085Y18339D01*
X536120Y18399D01*
X536159Y18457D01*
X536201Y18512D01*
X536246Y18566D01*
X536294Y18616D01*
X536344Y18664D01*
X536398Y18709D01*
X536453Y18751D01*
X536511Y18790D01*
X536571Y18825D01*
X536633Y18857D01*
X536697Y18885D01*
X536762Y18910D01*
X536828Y18931D01*
X536896Y18949D01*
X536964Y18962D01*
X537033Y18972D01*
X537102Y18978D01*
X537172Y18980D01*
X537242Y18978D01*
X537311Y18972D01*
X537380Y18962D01*
X537448Y18949D01*
X537516Y18931D01*
X537582Y18910D01*
X537647Y18885D01*
X537711Y18857D01*
X537773Y18825D01*
X537833Y18790D01*
X537891Y18751D01*
X537946Y18709D01*
X538000Y18664D01*
X538050Y18616D01*
X538098Y18566D01*
X538143Y18512D01*
X538185Y18457D01*
X538224Y18399D01*
X538259Y18339D01*
X538291Y18277D01*
X538319Y18213D01*
X538344Y18148D01*
X538365Y18082D01*
X538383Y18014D01*
X538396Y17946D01*
X538406Y17877D01*
X538412Y17808D01*
X538414Y17738D01*
X538414Y16496D01*
X538412Y16426D01*
X538406Y16357D01*
X538396Y16288D01*
X538383Y16220D01*
X538365Y16152D01*
X538344Y16086D01*
X538319Y16021D01*
X538291Y15957D01*
X538259Y15895D01*
X538224Y15835D01*
X538185Y15777D01*
X538143Y15722D01*
X538098Y15668D01*
X538050Y15618D01*
X538000Y15570D01*
X537946Y15525D01*
X537891Y15483D01*
X537833Y15444D01*
X537773Y15409D01*
X537711Y15377D01*
X537647Y15349D01*
X537582Y15324D01*
X537516Y15303D01*
X537448Y15285D01*
X537380Y15272D01*
X537311Y15262D01*
X537242Y15256D01*
X537172Y15254D01*
X537102Y15256D01*
X537033Y15262D01*
X536964Y15272D01*
X536896Y15285D01*
X536828Y15303D01*
X536762Y15324D01*
X536697Y15349D01*
X536633Y15377D01*
X536571Y15409D01*
X536511Y15444D01*
X536453Y15483D01*
X536398Y15525D01*
X536344Y15570D01*
X536294Y15618D01*
X536246Y15668D01*
X536201Y15722D01*
X536159Y15777D01*
X536120Y15835D01*
X536085Y15895D01*
X536053Y15957D01*
X536025Y16021D01*
X536000Y16086D01*
X535979Y16152D01*
X535961Y16220D01*
X535948Y16288D01*
X535938Y16357D01*
X535932Y16426D01*
X535930Y16496D01*
X543140Y15254D02*
X543140Y20842D01*
X543140Y15254D02*
X541587Y15254D01*
X541529Y15256D01*
X541470Y15261D01*
X541413Y15270D01*
X541355Y15283D01*
X541299Y15300D01*
X541244Y15319D01*
X541191Y15343D01*
X541138Y15369D01*
X541088Y15399D01*
X541040Y15432D01*
X540994Y15468D01*
X540950Y15506D01*
X540908Y15548D01*
X540870Y15592D01*
X540834Y15638D01*
X540801Y15686D01*
X540771Y15736D01*
X540745Y15789D01*
X540721Y15842D01*
X540702Y15897D01*
X540685Y15953D01*
X540672Y16011D01*
X540663Y16068D01*
X540658Y16127D01*
X540656Y16185D01*
X540656Y18048D01*
X540658Y18106D01*
X540663Y18165D01*
X540672Y18222D01*
X540685Y18280D01*
X540702Y18336D01*
X540721Y18391D01*
X540745Y18444D01*
X540771Y18497D01*
X540801Y18547D01*
X540834Y18595D01*
X540870Y18641D01*
X540908Y18685D01*
X540950Y18727D01*
X540994Y18765D01*
X541040Y18801D01*
X541088Y18834D01*
X541138Y18864D01*
X541191Y18890D01*
X541244Y18914D01*
X541299Y18933D01*
X541355Y18950D01*
X541413Y18963D01*
X541470Y18972D01*
X541529Y18977D01*
X541587Y18979D01*
X543140Y18979D01*
X546554Y15254D02*
X548106Y15254D01*
X546554Y15254D02*
X546496Y15256D01*
X546437Y15261D01*
X546380Y15270D01*
X546322Y15283D01*
X546266Y15300D01*
X546211Y15319D01*
X546158Y15343D01*
X546105Y15369D01*
X546055Y15399D01*
X546007Y15432D01*
X545961Y15468D01*
X545917Y15506D01*
X545875Y15548D01*
X545837Y15592D01*
X545801Y15638D01*
X545768Y15686D01*
X545738Y15736D01*
X545712Y15789D01*
X545688Y15842D01*
X545669Y15897D01*
X545652Y15953D01*
X545639Y16011D01*
X545630Y16068D01*
X545625Y16127D01*
X545623Y16185D01*
X545623Y17738D01*
X545625Y17808D01*
X545631Y17877D01*
X545641Y17946D01*
X545654Y18014D01*
X545672Y18082D01*
X545693Y18148D01*
X545718Y18213D01*
X545746Y18277D01*
X545778Y18339D01*
X545813Y18399D01*
X545852Y18457D01*
X545894Y18512D01*
X545939Y18566D01*
X545987Y18616D01*
X546037Y18664D01*
X546091Y18709D01*
X546146Y18751D01*
X546204Y18790D01*
X546264Y18825D01*
X546326Y18857D01*
X546390Y18885D01*
X546455Y18910D01*
X546521Y18931D01*
X546589Y18949D01*
X546657Y18962D01*
X546726Y18972D01*
X546795Y18978D01*
X546865Y18980D01*
X546935Y18978D01*
X547004Y18972D01*
X547073Y18962D01*
X547141Y18949D01*
X547209Y18931D01*
X547275Y18910D01*
X547340Y18885D01*
X547404Y18857D01*
X547466Y18825D01*
X547526Y18790D01*
X547584Y18751D01*
X547639Y18709D01*
X547693Y18664D01*
X547743Y18616D01*
X547791Y18566D01*
X547836Y18512D01*
X547878Y18457D01*
X547917Y18399D01*
X547952Y18339D01*
X547984Y18277D01*
X548012Y18213D01*
X548037Y18148D01*
X548058Y18082D01*
X548076Y18014D01*
X548089Y17946D01*
X548099Y17877D01*
X548105Y17808D01*
X548107Y17738D01*
X548106Y17738D02*
X548106Y17117D01*
X545623Y17117D01*
X550593Y15254D02*
X550593Y18979D01*
X552456Y18979D01*
X552456Y18358D01*
D11*
X362750Y124700D02*
X272250Y124700D01*
X362750Y124700D02*
X362750Y154700D01*
X272250Y154700D01*
X272250Y124700D01*
D10*
X272500Y137200D02*
X276250Y137200D01*
X276250Y127200D01*
X358750Y137200D02*
X362500Y137200D01*
X358750Y137200D02*
X358750Y127200D01*
X276250Y143450D02*
X272500Y143450D01*
X358750Y143450D02*
X362500Y143450D01*
X276250Y143450D02*
X276250Y150950D01*
X358750Y150950D01*
X358750Y143450D01*
X358750Y150950D02*
X361250Y153450D01*
X276250Y150950D02*
X273750Y153450D01*
D12*
X317500Y126575D03*
D13*
X367980Y150120D02*
X370520Y150120D01*
X367980Y150120D02*
X367980Y147580D01*
X383220Y147580D02*
X383220Y150120D01*
X380680Y150120D01*
X383220Y137420D02*
X383220Y134880D01*
X380680Y134880D01*
X370520Y134880D02*
X367980Y134880D01*
X367980Y137420D01*
D14*
X368615Y159645D02*
X371790Y159645D01*
X371901Y159643D01*
X372011Y159637D01*
X372122Y159628D01*
X372232Y159614D01*
X372341Y159597D01*
X372450Y159576D01*
X372558Y159551D01*
X372665Y159522D01*
X372771Y159490D01*
X372876Y159454D01*
X372979Y159414D01*
X373081Y159371D01*
X373182Y159324D01*
X373281Y159273D01*
X373378Y159220D01*
X373472Y159163D01*
X373565Y159102D01*
X373656Y159039D01*
X373745Y158972D01*
X373831Y158902D01*
X373914Y158829D01*
X373996Y158754D01*
X374074Y158676D01*
X374149Y158594D01*
X374222Y158511D01*
X374292Y158425D01*
X374359Y158336D01*
X374422Y158245D01*
X374483Y158152D01*
X374540Y158057D01*
X374593Y157961D01*
X374644Y157862D01*
X374691Y157761D01*
X374734Y157659D01*
X374774Y157556D01*
X374810Y157451D01*
X374842Y157345D01*
X374871Y157238D01*
X374896Y157130D01*
X374917Y157021D01*
X374934Y156912D01*
X374948Y156802D01*
X374957Y156691D01*
X374963Y156581D01*
X374965Y156470D01*
X374963Y156359D01*
X374957Y156249D01*
X374948Y156138D01*
X374934Y156028D01*
X374917Y155919D01*
X374896Y155810D01*
X374871Y155702D01*
X374842Y155595D01*
X374810Y155489D01*
X374774Y155384D01*
X374734Y155281D01*
X374691Y155179D01*
X374644Y155078D01*
X374593Y154979D01*
X374540Y154882D01*
X374483Y154788D01*
X374422Y154695D01*
X374359Y154604D01*
X374292Y154515D01*
X374222Y154429D01*
X374149Y154346D01*
X374074Y154264D01*
X373996Y154186D01*
X373914Y154111D01*
X373831Y154038D01*
X373745Y153968D01*
X373656Y153901D01*
X373565Y153838D01*
X373472Y153777D01*
X373378Y153720D01*
X373281Y153667D01*
X373182Y153616D01*
X373081Y153569D01*
X372979Y153526D01*
X372876Y153486D01*
X372771Y153450D01*
X372665Y153418D01*
X372558Y153389D01*
X372450Y153364D01*
X372341Y153343D01*
X372232Y153326D01*
X372122Y153312D01*
X372011Y153303D01*
X371901Y153297D01*
X371790Y153295D01*
X368615Y153295D01*
X368615Y164725D01*
X371790Y164725D01*
X371890Y164723D01*
X371989Y164717D01*
X372089Y164707D01*
X372187Y164694D01*
X372286Y164676D01*
X372383Y164655D01*
X372479Y164630D01*
X372575Y164601D01*
X372669Y164568D01*
X372762Y164532D01*
X372853Y164492D01*
X372943Y164448D01*
X373031Y164401D01*
X373117Y164351D01*
X373201Y164297D01*
X373283Y164240D01*
X373362Y164180D01*
X373440Y164116D01*
X373514Y164050D01*
X373586Y163981D01*
X373655Y163909D01*
X373721Y163835D01*
X373785Y163757D01*
X373845Y163678D01*
X373902Y163596D01*
X373956Y163512D01*
X374006Y163426D01*
X374053Y163338D01*
X374097Y163248D01*
X374137Y163157D01*
X374173Y163064D01*
X374206Y162970D01*
X374235Y162874D01*
X374260Y162778D01*
X374281Y162681D01*
X374299Y162582D01*
X374312Y162484D01*
X374322Y162384D01*
X374328Y162285D01*
X374330Y162185D01*
X374328Y162085D01*
X374322Y161986D01*
X374312Y161886D01*
X374299Y161788D01*
X374281Y161689D01*
X374260Y161592D01*
X374235Y161496D01*
X374206Y161400D01*
X374173Y161306D01*
X374137Y161213D01*
X374097Y161122D01*
X374053Y161032D01*
X374006Y160944D01*
X373956Y160858D01*
X373902Y160774D01*
X373845Y160692D01*
X373785Y160613D01*
X373721Y160535D01*
X373655Y160461D01*
X373586Y160389D01*
X373514Y160320D01*
X373440Y160254D01*
X373362Y160190D01*
X373283Y160130D01*
X373201Y160073D01*
X373117Y160019D01*
X373031Y159969D01*
X372943Y159922D01*
X372853Y159878D01*
X372762Y159838D01*
X372669Y159802D01*
X372575Y159769D01*
X372479Y159740D01*
X372383Y159715D01*
X372286Y159694D01*
X372187Y159676D01*
X372089Y159663D01*
X371989Y159653D01*
X371890Y159647D01*
X371790Y159645D01*
X379880Y164725D02*
X379880Y153295D01*
X384960Y153295D01*
X388744Y153295D02*
X392554Y164725D01*
X396364Y153295D01*
X395412Y156153D02*
X389697Y156153D01*
X401190Y156470D02*
X401190Y164725D01*
X401190Y156470D02*
X401192Y156359D01*
X401198Y156249D01*
X401207Y156138D01*
X401221Y156028D01*
X401238Y155919D01*
X401259Y155810D01*
X401284Y155702D01*
X401313Y155595D01*
X401345Y155489D01*
X401381Y155384D01*
X401421Y155281D01*
X401464Y155179D01*
X401511Y155078D01*
X401562Y154979D01*
X401615Y154883D01*
X401672Y154788D01*
X401733Y154695D01*
X401796Y154604D01*
X401863Y154515D01*
X401933Y154429D01*
X402006Y154346D01*
X402081Y154264D01*
X402159Y154186D01*
X402241Y154111D01*
X402324Y154038D01*
X402410Y153968D01*
X402499Y153901D01*
X402590Y153838D01*
X402683Y153777D01*
X402778Y153720D01*
X402874Y153667D01*
X402973Y153616D01*
X403074Y153569D01*
X403176Y153526D01*
X403279Y153486D01*
X403384Y153450D01*
X403490Y153418D01*
X403597Y153389D01*
X403705Y153364D01*
X403814Y153343D01*
X403923Y153326D01*
X404033Y153312D01*
X404144Y153303D01*
X404254Y153297D01*
X404365Y153295D01*
X404476Y153297D01*
X404586Y153303D01*
X404697Y153312D01*
X404807Y153326D01*
X404916Y153343D01*
X405025Y153364D01*
X405133Y153389D01*
X405240Y153418D01*
X405346Y153450D01*
X405451Y153486D01*
X405554Y153526D01*
X405656Y153569D01*
X405757Y153616D01*
X405856Y153667D01*
X405952Y153720D01*
X406047Y153777D01*
X406140Y153838D01*
X406231Y153901D01*
X406320Y153968D01*
X406406Y154038D01*
X406489Y154111D01*
X406571Y154186D01*
X406649Y154264D01*
X406724Y154346D01*
X406797Y154429D01*
X406867Y154515D01*
X406934Y154604D01*
X406997Y154695D01*
X407058Y154788D01*
X407115Y154882D01*
X407168Y154979D01*
X407219Y155078D01*
X407266Y155179D01*
X407309Y155281D01*
X407349Y155384D01*
X407385Y155489D01*
X407417Y155595D01*
X407446Y155702D01*
X407471Y155810D01*
X407492Y155919D01*
X407509Y156028D01*
X407523Y156138D01*
X407532Y156249D01*
X407538Y156359D01*
X407540Y156470D01*
X407540Y164725D01*
D15*
X26810Y116800D02*
X21222Y116800D01*
D13*
X44336Y115276D02*
X44918Y115058D01*
X45494Y114825D01*
X46064Y114578D01*
X46628Y114318D01*
X47186Y114043D01*
X47737Y113756D01*
X48280Y113454D01*
X48816Y113140D01*
X49344Y112812D01*
X49864Y112472D01*
X50376Y112119D01*
X50878Y111754D01*
X51372Y111376D01*
X51856Y110987D01*
X52330Y110585D01*
X52795Y110173D01*
X53249Y109749D01*
X53693Y109314D01*
X54126Y108868D01*
X54548Y108412D01*
X54959Y107946D01*
X55358Y107469D01*
X55745Y106983D01*
X56121Y106488D01*
X56484Y105984D01*
X56834Y105471D01*
X57172Y104950D01*
X57498Y104420D01*
X57810Y103883D01*
X58108Y103338D01*
X58394Y102786D01*
X58666Y102227D01*
X58924Y101662D01*
X59168Y101090D01*
X59398Y100513D01*
X59614Y99931D01*
X59816Y99343D01*
X60003Y98750D01*
X60175Y98153D01*
X60333Y97552D01*
X60477Y96948D01*
X60605Y96340D01*
X60718Y95729D01*
X60817Y95115D01*
X60900Y94499D01*
X60968Y93882D01*
X61022Y93263D01*
X61060Y92642D01*
X61082Y92021D01*
X61090Y91400D01*
X61082Y90779D01*
X61060Y90158D01*
X61022Y89537D01*
X60968Y88918D01*
X60900Y88301D01*
X60817Y87685D01*
X60718Y87071D01*
X60605Y86460D01*
X60477Y85852D01*
X60333Y85248D01*
X60175Y84647D01*
X60003Y84050D01*
X59816Y83457D01*
X59614Y82869D01*
X59398Y82287D01*
X59168Y81710D01*
X58924Y81138D01*
X58666Y80573D01*
X58394Y80014D01*
X58108Y79462D01*
X57810Y78917D01*
X57498Y78380D01*
X57172Y77850D01*
X56834Y77329D01*
X56484Y76816D01*
X56121Y76312D01*
X55745Y75817D01*
X55358Y75331D01*
X54959Y74854D01*
X54548Y74388D01*
X54126Y73932D01*
X53693Y73486D01*
X53249Y73051D01*
X52795Y72627D01*
X52330Y72215D01*
X51856Y71813D01*
X51372Y71424D01*
X50878Y71046D01*
X50376Y70681D01*
X49864Y70328D01*
X49344Y69988D01*
X48816Y69660D01*
X48280Y69346D01*
X47737Y69044D01*
X47186Y68757D01*
X46628Y68482D01*
X46064Y68222D01*
X45494Y67975D01*
X44918Y67742D01*
X44336Y67524D01*
D15*
X27066Y63466D02*
X26385Y63686D01*
X25710Y63922D01*
X25041Y64174D01*
X24378Y64443D01*
X23722Y64728D01*
X23074Y65029D01*
X22432Y65345D01*
X21799Y65678D01*
X21174Y66025D01*
X20558Y66388D01*
X19950Y66766D01*
X19353Y67158D01*
X18765Y67565D01*
X18187Y67987D01*
X17619Y68422D01*
X17063Y68871D01*
X16517Y69334D01*
X15983Y69809D01*
X15461Y70298D01*
X14951Y70799D01*
X14453Y71313D01*
X13968Y71839D01*
X13496Y72376D01*
X13038Y72925D01*
X12593Y73484D01*
X12161Y74055D01*
X11744Y74636D01*
X11341Y75227D01*
X10953Y75827D01*
X10580Y76437D01*
X10221Y77056D01*
X9878Y77683D01*
X9550Y78319D01*
X9238Y78963D01*
X8942Y79613D01*
X8661Y80271D01*
X8397Y80936D01*
X8150Y81607D01*
X7918Y82284D01*
X7704Y82966D01*
X7506Y83653D01*
X7325Y84345D01*
X7161Y85041D01*
X7014Y85741D01*
X6884Y86444D01*
X6771Y87150D01*
X6676Y87859D01*
X6598Y88570D01*
X6538Y89283D01*
X6495Y89997D01*
X6469Y90711D01*
X6461Y91427D01*
X6470Y92142D01*
X6497Y92856D01*
X6542Y93570D01*
X6604Y94283D01*
X6683Y94993D01*
X6779Y95702D01*
X6893Y96408D01*
X7024Y97111D01*
X7173Y97811D01*
X7338Y98506D01*
X7520Y99198D01*
X7720Y99885D01*
X7936Y100567D01*
X8168Y101243D01*
X8417Y101913D01*
X8682Y102577D01*
X8964Y103235D01*
X9261Y103885D01*
X9575Y104528D01*
X9904Y105163D01*
X10248Y105790D01*
X10608Y106408D01*
X10982Y107017D01*
X11372Y107617D01*
X11776Y108207D01*
X12194Y108787D01*
X12626Y109357D01*
X13073Y109916D01*
X13532Y110464D01*
X14005Y111000D01*
X14491Y111525D01*
X14990Y112038D01*
X15501Y112538D01*
X16024Y113026D01*
X16559Y113500D01*
X17105Y113962D01*
X17663Y114410D01*
X18231Y114844D01*
X18809Y115264D01*
X19398Y115670D01*
X19997Y116062D01*
X20605Y116438D01*
X21222Y116800D01*
X50182Y116806D02*
X50799Y116445D01*
X51407Y116068D01*
X52006Y115676D01*
X52594Y115270D01*
X53173Y114850D01*
X53741Y114415D01*
X54299Y113967D01*
X54845Y113506D01*
X55380Y113031D01*
X55903Y112543D01*
X56414Y112042D01*
X56913Y111530D01*
X57399Y111005D01*
X57872Y110468D01*
X58332Y109920D01*
X58778Y109361D01*
X59210Y108791D01*
X59628Y108211D01*
X60032Y107621D01*
X60422Y107021D01*
X60796Y106411D01*
X61156Y105793D01*
X61500Y105166D01*
X61829Y104531D01*
X62143Y103888D01*
X62440Y103237D01*
X62722Y102580D01*
X62987Y101916D01*
X63236Y101245D01*
X63469Y100569D01*
X63685Y99887D01*
X63884Y99200D01*
X64066Y98508D01*
X64231Y97812D01*
X64380Y97112D01*
X64511Y96409D01*
X64625Y95703D01*
X64721Y94994D01*
X64801Y94283D01*
X64862Y93571D01*
X64907Y92857D01*
X64934Y92142D01*
X64943Y91427D01*
X64935Y90712D01*
X64909Y89997D01*
X64866Y89283D01*
X64806Y88570D01*
X64728Y87859D01*
X64633Y87150D01*
X64520Y86444D01*
X64390Y85740D01*
X64243Y85040D01*
X64079Y84344D01*
X63898Y83652D01*
X63700Y82965D01*
X63485Y82282D01*
X63254Y81606D01*
X63006Y80935D01*
X62742Y80270D01*
X62462Y79612D01*
X62166Y78961D01*
X61853Y78317D01*
X61526Y77681D01*
X61182Y77054D01*
X60824Y76435D01*
X60450Y75825D01*
X60062Y75224D01*
X59659Y74633D01*
X59242Y74052D01*
X58811Y73481D01*
X58366Y72922D01*
X57907Y72373D01*
X57435Y71835D01*
X56950Y71309D01*
X56452Y70796D01*
X55942Y70294D01*
X55420Y69806D01*
X54886Y69330D01*
X54340Y68867D01*
X53784Y68418D01*
X53216Y67982D01*
X52638Y67561D01*
X52050Y67154D01*
X51452Y66761D01*
X50845Y66383D01*
X50228Y66020D01*
X49603Y65672D01*
X48970Y65340D01*
X48329Y65023D01*
X47680Y64722D01*
X47024Y64437D01*
X46361Y64168D01*
X45692Y63916D01*
X45017Y63679D01*
X44336Y63460D01*
D13*
X27064Y67524D02*
X26482Y67742D01*
X25906Y67975D01*
X25336Y68222D01*
X24772Y68482D01*
X24214Y68757D01*
X23663Y69044D01*
X23120Y69346D01*
X22584Y69660D01*
X22056Y69988D01*
X21536Y70328D01*
X21024Y70681D01*
X20522Y71046D01*
X20028Y71424D01*
X19544Y71813D01*
X19070Y72215D01*
X18605Y72627D01*
X18151Y73051D01*
X17707Y73486D01*
X17274Y73932D01*
X16852Y74388D01*
X16441Y74854D01*
X16042Y75331D01*
X15655Y75817D01*
X15279Y76312D01*
X14916Y76816D01*
X14566Y77329D01*
X14228Y77850D01*
X13902Y78380D01*
X13590Y78917D01*
X13292Y79462D01*
X13006Y80014D01*
X12734Y80573D01*
X12476Y81138D01*
X12232Y81710D01*
X12002Y82287D01*
X11786Y82869D01*
X11584Y83457D01*
X11397Y84050D01*
X11225Y84647D01*
X11067Y85248D01*
X10923Y85852D01*
X10795Y86460D01*
X10682Y87071D01*
X10583Y87685D01*
X10500Y88301D01*
X10432Y88918D01*
X10378Y89537D01*
X10340Y90158D01*
X10318Y90779D01*
X10310Y91400D01*
X10318Y92021D01*
X10340Y92642D01*
X10378Y93263D01*
X10432Y93882D01*
X10500Y94499D01*
X10583Y95115D01*
X10682Y95729D01*
X10795Y96340D01*
X10923Y96948D01*
X11067Y97552D01*
X11225Y98153D01*
X11397Y98750D01*
X11584Y99343D01*
X11786Y99931D01*
X12002Y100513D01*
X12232Y101090D01*
X12476Y101662D01*
X12734Y102227D01*
X13006Y102786D01*
X13292Y103338D01*
X13590Y103883D01*
X13902Y104420D01*
X14228Y104950D01*
X14566Y105471D01*
X14916Y105984D01*
X15279Y106488D01*
X15655Y106983D01*
X16042Y107469D01*
X16441Y107946D01*
X16852Y108412D01*
X17274Y108868D01*
X17707Y109314D01*
X18151Y109749D01*
X18605Y110173D01*
X19070Y110585D01*
X19544Y110987D01*
X20028Y111376D01*
X20522Y111754D01*
X21024Y112119D01*
X21536Y112472D01*
X22056Y112812D01*
X22584Y113140D01*
X23120Y113454D01*
X23663Y113756D01*
X24214Y114043D01*
X24772Y114318D01*
X25336Y114578D01*
X25906Y114825D01*
X26482Y115058D01*
X27064Y115276D01*
D15*
X44590Y116800D02*
X50178Y116800D01*
X606990Y63200D02*
X612578Y63200D01*
D13*
X589464Y64724D02*
X588882Y64942D01*
X588306Y65175D01*
X587736Y65422D01*
X587172Y65682D01*
X586614Y65957D01*
X586063Y66244D01*
X585520Y66546D01*
X584984Y66860D01*
X584456Y67188D01*
X583936Y67528D01*
X583424Y67881D01*
X582922Y68246D01*
X582428Y68624D01*
X581944Y69013D01*
X581470Y69415D01*
X581005Y69827D01*
X580551Y70251D01*
X580107Y70686D01*
X579674Y71132D01*
X579252Y71588D01*
X578841Y72054D01*
X578442Y72531D01*
X578055Y73017D01*
X577679Y73512D01*
X577316Y74016D01*
X576966Y74529D01*
X576628Y75050D01*
X576302Y75580D01*
X575990Y76117D01*
X575692Y76662D01*
X575406Y77214D01*
X575134Y77773D01*
X574876Y78338D01*
X574632Y78910D01*
X574402Y79487D01*
X574186Y80069D01*
X573984Y80657D01*
X573797Y81250D01*
X573625Y81847D01*
X573467Y82448D01*
X573323Y83052D01*
X573195Y83660D01*
X573082Y84271D01*
X572983Y84885D01*
X572900Y85501D01*
X572832Y86118D01*
X572778Y86737D01*
X572740Y87358D01*
X572718Y87979D01*
X572710Y88600D01*
X572718Y89221D01*
X572740Y89842D01*
X572778Y90463D01*
X572832Y91082D01*
X572900Y91699D01*
X572983Y92315D01*
X573082Y92929D01*
X573195Y93540D01*
X573323Y94148D01*
X573467Y94752D01*
X573625Y95353D01*
X573797Y95950D01*
X573984Y96543D01*
X574186Y97131D01*
X574402Y97713D01*
X574632Y98290D01*
X574876Y98862D01*
X575134Y99427D01*
X575406Y99986D01*
X575692Y100538D01*
X575990Y101083D01*
X576302Y101620D01*
X576628Y102150D01*
X576966Y102671D01*
X577316Y103184D01*
X577679Y103688D01*
X578055Y104183D01*
X578442Y104669D01*
X578841Y105146D01*
X579252Y105612D01*
X579674Y106068D01*
X580107Y106514D01*
X580551Y106949D01*
X581005Y107373D01*
X581470Y107785D01*
X581944Y108187D01*
X582428Y108576D01*
X582922Y108954D01*
X583424Y109319D01*
X583936Y109672D01*
X584456Y110012D01*
X584984Y110340D01*
X585520Y110654D01*
X586063Y110956D01*
X586614Y111243D01*
X587172Y111518D01*
X587736Y111778D01*
X588306Y112025D01*
X588882Y112258D01*
X589464Y112476D01*
D15*
X606734Y116534D02*
X607415Y116314D01*
X608090Y116078D01*
X608759Y115826D01*
X609422Y115557D01*
X610078Y115272D01*
X610726Y114971D01*
X611368Y114655D01*
X612001Y114322D01*
X612626Y113975D01*
X613242Y113612D01*
X613850Y113234D01*
X614447Y112842D01*
X615035Y112435D01*
X615613Y112013D01*
X616181Y111578D01*
X616737Y111129D01*
X617283Y110666D01*
X617817Y110191D01*
X618339Y109702D01*
X618849Y109201D01*
X619347Y108687D01*
X619832Y108161D01*
X620304Y107624D01*
X620762Y107075D01*
X621207Y106516D01*
X621639Y105945D01*
X622056Y105364D01*
X622459Y104773D01*
X622847Y104173D01*
X623220Y103563D01*
X623579Y102944D01*
X623922Y102317D01*
X624250Y101681D01*
X624562Y101037D01*
X624858Y100387D01*
X625139Y99729D01*
X625403Y99064D01*
X625650Y98393D01*
X625882Y97716D01*
X626096Y97034D01*
X626294Y96347D01*
X626475Y95655D01*
X626639Y94959D01*
X626786Y94259D01*
X626916Y93556D01*
X627029Y92850D01*
X627124Y92141D01*
X627202Y91430D01*
X627262Y90717D01*
X627305Y90003D01*
X627331Y89289D01*
X627339Y88573D01*
X627330Y87858D01*
X627303Y87144D01*
X627258Y86430D01*
X627196Y85717D01*
X627117Y85007D01*
X627021Y84298D01*
X626907Y83592D01*
X626776Y82889D01*
X626627Y82189D01*
X626462Y81494D01*
X626280Y80802D01*
X626080Y80115D01*
X625864Y79433D01*
X625632Y78757D01*
X625383Y78087D01*
X625118Y77423D01*
X624836Y76765D01*
X624539Y76115D01*
X624225Y75472D01*
X623896Y74837D01*
X623552Y74210D01*
X623192Y73592D01*
X622818Y72983D01*
X622428Y72383D01*
X622024Y71793D01*
X621606Y71213D01*
X621174Y70643D01*
X620727Y70084D01*
X620268Y69536D01*
X619795Y69000D01*
X619309Y68475D01*
X618810Y67962D01*
X618299Y67462D01*
X617776Y66974D01*
X617241Y66500D01*
X616695Y66038D01*
X616137Y65590D01*
X615569Y65156D01*
X614991Y64736D01*
X614402Y64330D01*
X613803Y63938D01*
X613195Y63562D01*
X612578Y63200D01*
X583618Y63194D02*
X583001Y63555D01*
X582393Y63932D01*
X581794Y64324D01*
X581206Y64730D01*
X580627Y65150D01*
X580059Y65585D01*
X579501Y66033D01*
X578955Y66494D01*
X578420Y66969D01*
X577897Y67457D01*
X577386Y67958D01*
X576887Y68470D01*
X576401Y68995D01*
X575928Y69532D01*
X575468Y70080D01*
X575022Y70639D01*
X574590Y71209D01*
X574172Y71789D01*
X573768Y72379D01*
X573378Y72979D01*
X573004Y73589D01*
X572644Y74207D01*
X572300Y74834D01*
X571971Y75469D01*
X571657Y76112D01*
X571360Y76763D01*
X571078Y77420D01*
X570813Y78084D01*
X570564Y78755D01*
X570331Y79431D01*
X570115Y80113D01*
X569916Y80800D01*
X569734Y81492D01*
X569569Y82188D01*
X569420Y82888D01*
X569289Y83591D01*
X569175Y84297D01*
X569079Y85006D01*
X568999Y85717D01*
X568938Y86429D01*
X568893Y87143D01*
X568866Y87858D01*
X568857Y88573D01*
X568865Y89288D01*
X568891Y90003D01*
X568934Y90717D01*
X568994Y91430D01*
X569072Y92141D01*
X569167Y92850D01*
X569280Y93556D01*
X569410Y94260D01*
X569557Y94960D01*
X569721Y95656D01*
X569902Y96348D01*
X570100Y97035D01*
X570315Y97718D01*
X570546Y98394D01*
X570794Y99065D01*
X571058Y99730D01*
X571338Y100388D01*
X571634Y101039D01*
X571947Y101683D01*
X572274Y102319D01*
X572618Y102946D01*
X572976Y103565D01*
X573350Y104175D01*
X573738Y104776D01*
X574141Y105367D01*
X574558Y105948D01*
X574989Y106519D01*
X575434Y107078D01*
X575893Y107627D01*
X576365Y108165D01*
X576850Y108691D01*
X577348Y109204D01*
X577858Y109706D01*
X578380Y110194D01*
X578914Y110670D01*
X579460Y111133D01*
X580016Y111582D01*
X580584Y112018D01*
X581162Y112439D01*
X581750Y112846D01*
X582348Y113239D01*
X582955Y113617D01*
X583572Y113980D01*
X584197Y114328D01*
X584830Y114660D01*
X585471Y114977D01*
X586120Y115278D01*
X586776Y115563D01*
X587439Y115832D01*
X588108Y116084D01*
X588783Y116321D01*
X589464Y116540D01*
D13*
X606736Y112476D02*
X607318Y112258D01*
X607894Y112025D01*
X608464Y111778D01*
X609028Y111518D01*
X609586Y111243D01*
X610137Y110956D01*
X610680Y110654D01*
X611216Y110340D01*
X611744Y110012D01*
X612264Y109672D01*
X612776Y109319D01*
X613278Y108954D01*
X613772Y108576D01*
X614256Y108187D01*
X614730Y107785D01*
X615195Y107373D01*
X615649Y106949D01*
X616093Y106514D01*
X616526Y106068D01*
X616948Y105612D01*
X617359Y105146D01*
X617758Y104669D01*
X618145Y104183D01*
X618521Y103688D01*
X618884Y103184D01*
X619234Y102671D01*
X619572Y102150D01*
X619898Y101620D01*
X620210Y101083D01*
X620508Y100538D01*
X620794Y99986D01*
X621066Y99427D01*
X621324Y98862D01*
X621568Y98290D01*
X621798Y97713D01*
X622014Y97131D01*
X622216Y96543D01*
X622403Y95950D01*
X622575Y95353D01*
X622733Y94752D01*
X622877Y94148D01*
X623005Y93540D01*
X623118Y92929D01*
X623217Y92315D01*
X623300Y91699D01*
X623368Y91082D01*
X623422Y90463D01*
X623460Y89842D01*
X623482Y89221D01*
X623490Y88600D01*
X623482Y87979D01*
X623460Y87358D01*
X623422Y86737D01*
X623368Y86118D01*
X623300Y85501D01*
X623217Y84885D01*
X623118Y84271D01*
X623005Y83660D01*
X622877Y83052D01*
X622733Y82448D01*
X622575Y81847D01*
X622403Y81250D01*
X622216Y80657D01*
X622014Y80069D01*
X621798Y79487D01*
X621568Y78910D01*
X621324Y78338D01*
X621066Y77773D01*
X620794Y77214D01*
X620508Y76662D01*
X620210Y76117D01*
X619898Y75580D01*
X619572Y75050D01*
X619234Y74529D01*
X618884Y74016D01*
X618521Y73512D01*
X618145Y73017D01*
X617758Y72531D01*
X617359Y72054D01*
X616948Y71588D01*
X616526Y71132D01*
X616093Y70686D01*
X615649Y70251D01*
X615195Y69827D01*
X614730Y69415D01*
X614256Y69013D01*
X613772Y68624D01*
X613278Y68246D01*
X612776Y67881D01*
X612264Y67528D01*
X611744Y67188D01*
X611216Y66860D01*
X610680Y66546D01*
X610137Y66244D01*
X609586Y65957D01*
X609028Y65682D01*
X608464Y65422D01*
X607894Y65175D01*
X607318Y64942D01*
X606736Y64724D01*
D15*
X589210Y63200D02*
X583622Y63200D01*
D16*
X171419Y116108D02*
X171419Y127792D01*
X175313Y121301D01*
X179208Y127792D01*
X179208Y116108D01*
X184754Y120652D02*
X192543Y120652D01*
X197999Y116108D02*
X197999Y127792D01*
X197999Y116108D02*
X203191Y116108D01*
X207501Y125196D02*
X210746Y127792D01*
X210746Y116108D01*
X207501Y116108D02*
X213992Y116108D01*
X168614Y60292D02*
X168614Y48608D01*
X172509Y53801D02*
X168614Y60292D01*
X172509Y53801D02*
X176403Y60292D01*
X176403Y48608D01*
X181949Y53152D02*
X189738Y53152D01*
X195245Y48608D02*
X195245Y60292D01*
X198490Y60292D01*
X198603Y60290D01*
X198716Y60284D01*
X198829Y60274D01*
X198942Y60260D01*
X199054Y60243D01*
X199165Y60221D01*
X199275Y60196D01*
X199385Y60166D01*
X199493Y60133D01*
X199600Y60096D01*
X199706Y60056D01*
X199810Y60011D01*
X199913Y59963D01*
X200014Y59912D01*
X200113Y59857D01*
X200210Y59799D01*
X200305Y59737D01*
X200398Y59672D01*
X200488Y59604D01*
X200576Y59533D01*
X200662Y59458D01*
X200745Y59381D01*
X200825Y59301D01*
X200902Y59218D01*
X200977Y59132D01*
X201048Y59044D01*
X201116Y58954D01*
X201181Y58861D01*
X201243Y58766D01*
X201301Y58669D01*
X201356Y58570D01*
X201407Y58469D01*
X201455Y58366D01*
X201500Y58262D01*
X201540Y58156D01*
X201577Y58049D01*
X201610Y57941D01*
X201640Y57831D01*
X201665Y57721D01*
X201687Y57610D01*
X201704Y57498D01*
X201718Y57385D01*
X201728Y57272D01*
X201734Y57159D01*
X201736Y57046D01*
X201734Y56933D01*
X201728Y56820D01*
X201718Y56707D01*
X201704Y56594D01*
X201687Y56482D01*
X201665Y56371D01*
X201640Y56261D01*
X201610Y56151D01*
X201577Y56043D01*
X201540Y55936D01*
X201500Y55830D01*
X201455Y55726D01*
X201407Y55623D01*
X201356Y55522D01*
X201301Y55423D01*
X201243Y55326D01*
X201181Y55231D01*
X201116Y55138D01*
X201048Y55048D01*
X200977Y54960D01*
X200902Y54874D01*
X200825Y54791D01*
X200745Y54711D01*
X200662Y54634D01*
X200576Y54559D01*
X200488Y54488D01*
X200398Y54420D01*
X200305Y54355D01*
X200210Y54293D01*
X200113Y54235D01*
X200014Y54180D01*
X199913Y54129D01*
X199810Y54081D01*
X199706Y54036D01*
X199600Y53996D01*
X199493Y53959D01*
X199385Y53926D01*
X199275Y53896D01*
X199165Y53871D01*
X199054Y53849D01*
X198942Y53832D01*
X198829Y53818D01*
X198716Y53808D01*
X198603Y53802D01*
X198490Y53800D01*
X198490Y53801D02*
X195245Y53801D01*
X199139Y53801D02*
X201736Y48608D01*
X206601Y57696D02*
X209846Y60292D01*
X209846Y48608D01*
X206601Y48608D02*
X213092Y48608D01*
X87308Y130408D02*
X87308Y142092D01*
X84063Y142092D02*
X90554Y142092D01*
X95185Y142092D02*
X95185Y130408D01*
X95185Y142092D02*
X98431Y142092D01*
X98544Y142090D01*
X98657Y142084D01*
X98770Y142074D01*
X98883Y142060D01*
X98995Y142043D01*
X99106Y142021D01*
X99216Y141996D01*
X99326Y141966D01*
X99434Y141933D01*
X99541Y141896D01*
X99647Y141856D01*
X99751Y141811D01*
X99854Y141763D01*
X99955Y141712D01*
X100054Y141657D01*
X100151Y141599D01*
X100246Y141537D01*
X100339Y141472D01*
X100429Y141404D01*
X100517Y141333D01*
X100603Y141258D01*
X100686Y141181D01*
X100766Y141101D01*
X100843Y141018D01*
X100918Y140932D01*
X100989Y140844D01*
X101057Y140754D01*
X101122Y140661D01*
X101184Y140566D01*
X101242Y140469D01*
X101297Y140370D01*
X101348Y140269D01*
X101396Y140166D01*
X101441Y140062D01*
X101481Y139956D01*
X101518Y139849D01*
X101551Y139741D01*
X101581Y139631D01*
X101606Y139521D01*
X101628Y139410D01*
X101645Y139298D01*
X101659Y139185D01*
X101669Y139072D01*
X101675Y138959D01*
X101677Y138846D01*
X101675Y138733D01*
X101669Y138620D01*
X101659Y138507D01*
X101645Y138394D01*
X101628Y138282D01*
X101606Y138171D01*
X101581Y138061D01*
X101551Y137951D01*
X101518Y137843D01*
X101481Y137736D01*
X101441Y137630D01*
X101396Y137526D01*
X101348Y137423D01*
X101297Y137322D01*
X101242Y137223D01*
X101184Y137126D01*
X101122Y137031D01*
X101057Y136938D01*
X100989Y136848D01*
X100918Y136760D01*
X100843Y136674D01*
X100766Y136591D01*
X100686Y136511D01*
X100603Y136434D01*
X100517Y136359D01*
X100429Y136288D01*
X100339Y136220D01*
X100246Y136155D01*
X100151Y136093D01*
X100054Y136035D01*
X99955Y135980D01*
X99854Y135929D01*
X99751Y135881D01*
X99647Y135836D01*
X99541Y135796D01*
X99434Y135759D01*
X99326Y135726D01*
X99216Y135696D01*
X99106Y135671D01*
X98995Y135649D01*
X98883Y135632D01*
X98770Y135618D01*
X98657Y135608D01*
X98544Y135602D01*
X98431Y135600D01*
X98431Y135601D02*
X95185Y135601D01*
X99080Y135601D02*
X101676Y130408D01*
X106654Y134952D02*
X114444Y134952D01*
X119899Y130408D02*
X119899Y142092D01*
X119899Y130408D02*
X125092Y130408D01*
X420959Y121292D02*
X420959Y109608D01*
X417713Y121292D02*
X424204Y121292D01*
X428836Y121292D02*
X428836Y109608D01*
X428836Y121292D02*
X432081Y121292D01*
X432194Y121290D01*
X432307Y121284D01*
X432420Y121274D01*
X432533Y121260D01*
X432645Y121243D01*
X432756Y121221D01*
X432866Y121196D01*
X432976Y121166D01*
X433084Y121133D01*
X433191Y121096D01*
X433297Y121056D01*
X433401Y121011D01*
X433504Y120963D01*
X433605Y120912D01*
X433704Y120857D01*
X433801Y120799D01*
X433896Y120737D01*
X433989Y120672D01*
X434079Y120604D01*
X434167Y120533D01*
X434253Y120458D01*
X434336Y120381D01*
X434416Y120301D01*
X434493Y120218D01*
X434568Y120132D01*
X434639Y120044D01*
X434707Y119954D01*
X434772Y119861D01*
X434834Y119766D01*
X434892Y119669D01*
X434947Y119570D01*
X434998Y119469D01*
X435046Y119366D01*
X435091Y119262D01*
X435131Y119156D01*
X435168Y119049D01*
X435201Y118941D01*
X435231Y118831D01*
X435256Y118721D01*
X435278Y118610D01*
X435295Y118498D01*
X435309Y118385D01*
X435319Y118272D01*
X435325Y118159D01*
X435327Y118046D01*
X435325Y117933D01*
X435319Y117820D01*
X435309Y117707D01*
X435295Y117594D01*
X435278Y117482D01*
X435256Y117371D01*
X435231Y117261D01*
X435201Y117151D01*
X435168Y117043D01*
X435131Y116936D01*
X435091Y116830D01*
X435046Y116726D01*
X434998Y116623D01*
X434947Y116522D01*
X434892Y116423D01*
X434834Y116326D01*
X434772Y116231D01*
X434707Y116138D01*
X434639Y116048D01*
X434568Y115960D01*
X434493Y115874D01*
X434416Y115791D01*
X434336Y115711D01*
X434253Y115634D01*
X434167Y115559D01*
X434079Y115488D01*
X433989Y115420D01*
X433896Y115355D01*
X433801Y115293D01*
X433704Y115235D01*
X433605Y115180D01*
X433504Y115129D01*
X433401Y115081D01*
X433297Y115036D01*
X433191Y114996D01*
X433084Y114959D01*
X432976Y114926D01*
X432866Y114896D01*
X432756Y114871D01*
X432645Y114849D01*
X432533Y114832D01*
X432420Y114818D01*
X432307Y114808D01*
X432194Y114802D01*
X432081Y114800D01*
X432081Y114801D02*
X428836Y114801D01*
X432731Y114801D02*
X435327Y109608D01*
X440305Y114152D02*
X448095Y114152D01*
X453601Y109608D02*
X453601Y121292D01*
X456846Y121292D01*
X456959Y121290D01*
X457072Y121284D01*
X457185Y121274D01*
X457298Y121260D01*
X457410Y121243D01*
X457521Y121221D01*
X457631Y121196D01*
X457741Y121166D01*
X457849Y121133D01*
X457956Y121096D01*
X458062Y121056D01*
X458166Y121011D01*
X458269Y120963D01*
X458370Y120912D01*
X458469Y120857D01*
X458566Y120799D01*
X458661Y120737D01*
X458754Y120672D01*
X458844Y120604D01*
X458932Y120533D01*
X459018Y120458D01*
X459101Y120381D01*
X459181Y120301D01*
X459258Y120218D01*
X459333Y120132D01*
X459404Y120044D01*
X459472Y119954D01*
X459537Y119861D01*
X459599Y119766D01*
X459657Y119669D01*
X459712Y119570D01*
X459763Y119469D01*
X459811Y119366D01*
X459856Y119262D01*
X459896Y119156D01*
X459933Y119049D01*
X459966Y118941D01*
X459996Y118831D01*
X460021Y118721D01*
X460043Y118610D01*
X460060Y118498D01*
X460074Y118385D01*
X460084Y118272D01*
X460090Y118159D01*
X460092Y118046D01*
X460090Y117933D01*
X460084Y117820D01*
X460074Y117707D01*
X460060Y117594D01*
X460043Y117482D01*
X460021Y117371D01*
X459996Y117261D01*
X459966Y117151D01*
X459933Y117043D01*
X459896Y116936D01*
X459856Y116830D01*
X459811Y116726D01*
X459763Y116623D01*
X459712Y116522D01*
X459657Y116423D01*
X459599Y116326D01*
X459537Y116231D01*
X459472Y116138D01*
X459404Y116048D01*
X459333Y115960D01*
X459258Y115874D01*
X459181Y115791D01*
X459101Y115711D01*
X459018Y115634D01*
X458932Y115559D01*
X458844Y115488D01*
X458754Y115420D01*
X458661Y115355D01*
X458566Y115293D01*
X458469Y115235D01*
X458370Y115180D01*
X458269Y115129D01*
X458166Y115081D01*
X458062Y115036D01*
X457956Y114996D01*
X457849Y114959D01*
X457741Y114926D01*
X457631Y114896D01*
X457521Y114871D01*
X457410Y114849D01*
X457298Y114832D01*
X457185Y114818D01*
X457072Y114808D01*
X456959Y114802D01*
X456846Y114800D01*
X456846Y114801D02*
X453601Y114801D01*
X457496Y114801D02*
X460092Y109608D01*
M02*
