G04 EAGLE Gerber RS-274X export*
G75*
%MOMM*%
%FSLAX34Y34*%
%LPD*%
%INSoldermask Bottom*%
%IPPOS*%
%AMOC8*
5,1,8,0,0,1.08239X$1,22.5*%
G01*
%ADD10C,2.203200*%
%ADD11C,1.211200*%
%ADD12P,1.951982X8X22.500000*%
%ADD13C,1.524000*%
%ADD14R,1.803200X2.006200*%
%ADD15C,0.959600*%


D10*
X147500Y43900D03*
X152500Y153900D03*
X487500Y133900D03*
X217500Y33900D03*
X237500Y33900D03*
X257500Y33900D03*
X217500Y143900D03*
X237500Y143900D03*
X257500Y143900D03*
D11*
X349250Y144740D02*
X349250Y134660D01*
X336550Y134660D02*
X336550Y144740D01*
X323850Y144740D02*
X323850Y134660D01*
X311150Y134660D02*
X311150Y144740D01*
X298450Y144740D02*
X298450Y134660D01*
X285750Y134660D02*
X285750Y144740D01*
D12*
X375600Y142500D03*
D13*
X42304Y66000D02*
X29096Y66000D01*
X29096Y91400D02*
X42304Y91400D01*
X42304Y116800D02*
X29096Y116800D01*
X591496Y114000D02*
X604704Y114000D01*
X604704Y88600D02*
X591496Y88600D01*
X591496Y63200D02*
X604704Y63200D01*
D14*
X597520Y41000D03*
X569080Y41000D03*
X596720Y136000D03*
X568280Y136000D03*
X61820Y137500D03*
X33380Y137500D03*
X66020Y42500D03*
X37580Y42500D03*
D15*
X305000Y70000D03*
X325000Y50000D03*
X295000Y110000D03*
X155000Y120000D03*
M02*
