M48
;GenerationSoftware,Autodesk,EAGLE,9.5.2*%
;CreationDate,2020-01-22T21:44:38Z*%
FMAT,2
ICI,OFF
METRIC,TZ,000.000
T2C0.350
T1C1.016
%
G90
M71
T1
X132024Y5250
X19780Y5250
T2
X53645Y7010
X82296Y3962
X17374Y5182
X39776Y4267
X53645Y2591
X107137Y6858
X93726Y6858
X45568Y4877
X51816Y4877
X86106Y5944
X53645Y7925
X11887Y3962
X97384Y2134
X143104Y5182
X72695Y6248
X58826Y3962
X47092Y4267
X100736Y7925
X55474Y7010
X54559Y6096
X48920Y6096
M30