M48
;GenerationSoftware,Autodesk,EAGLE,9.5.2*%
;CreationDate,2020-01-22T21:31:13Z*%
FMAT,2
ICI,OFF
METRIC,TZ,000.000
T4C0.350
T3C0.500
T2C0.813
T1C2.000
%
G90
M71
T1
X14750Y4390
X15250Y15390
X48750Y13390
X21750Y3390
X23750Y3390
X25750Y3390
X21750Y14390
X23750Y14390
X25750Y14390
T2
X37560Y14250
X3570Y6600
X3570Y9140
X3570Y11680
X59810Y11400
X59810Y8860
X59810Y6320
T3
X34925Y13970
X33655Y13970
X32385Y13970
X31115Y13970
X29845Y13970
X28575Y13970
T4
X30500Y7000
X32500Y5000
X29500Y11000
X15500Y12000
M30