G04 EAGLE Gerber RS-274X export*
G75*
%MOMM*%
%FSLAX34Y34*%
%LPD*%
%INTop Copper*%
%IPPOS*%
%AMOC8*
5,1,8,0,0,1.08239X$1,22.5*%
G01*
%ADD10R,1.200000X1.200000*%
%ADD11R,1.500000X1.300000*%
%ADD12R,1.800000X1.600000*%
%ADD13R,1.470000X1.270000*%
%ADD14R,1.500000X1.000000*%
%ADD15R,2.000000X1.000000*%
%ADD16C,2.200000*%
%ADD17R,0.600000X2.200000*%
%ADD18P,1.649562X8X22.500000*%
%ADD19R,2.200000X1.500000*%
%ADD20R,1.000000X1.400000*%
%ADD21R,1.803000X1.600000*%
%ADD22R,0.600000X0.600000*%
%ADD23C,0.152400*%
%ADD24C,0.756400*%


D10*
X746660Y39500D03*
X746660Y65500D03*
X807660Y65500D03*
X807660Y39500D03*
D11*
X381240Y43000D03*
X381240Y62000D03*
D12*
X1421240Y38500D03*
X1421240Y66500D03*
X1291240Y38500D03*
X1291240Y66500D03*
X101240Y38500D03*
X101240Y66500D03*
X133280Y38500D03*
X133280Y66500D03*
X1138280Y38500D03*
X1138280Y66500D03*
X1178280Y38500D03*
X1178280Y66500D03*
D13*
X243440Y28542D03*
X243440Y71542D03*
D14*
X876330Y67490D03*
X876330Y37510D03*
D15*
X878870Y52500D03*
D16*
X898040Y52500D02*
X913040Y52500D01*
D17*
X515400Y78500D03*
X515400Y26500D03*
X528100Y78500D03*
X502700Y78500D03*
X490000Y78500D03*
X528100Y26500D03*
X502700Y26500D03*
X490000Y26500D03*
X464600Y78500D03*
X464600Y26500D03*
X477300Y78500D03*
X451900Y78500D03*
X477300Y26500D03*
X451900Y26500D03*
D18*
X1320240Y52500D03*
X197800Y52500D03*
D19*
X414216Y37000D03*
X414216Y68000D03*
X1221609Y37000D03*
X1221609Y68000D03*
X1353674Y68000D03*
X1353674Y37000D03*
X1485739Y37000D03*
X1485739Y68000D03*
X297151Y68000D03*
X297151Y37000D03*
X165085Y37000D03*
X165085Y68000D03*
X33020Y68000D03*
X33020Y37000D03*
X571282Y37000D03*
X571282Y68000D03*
X683347Y68000D03*
X683347Y37000D03*
X840412Y37000D03*
X840412Y68000D03*
X957478Y68000D03*
X957478Y37000D03*
X1089543Y68000D03*
X1089543Y37000D03*
D20*
X648120Y63500D03*
X657620Y41500D03*
X638620Y41500D03*
D21*
X712560Y38280D03*
X712560Y66720D03*
X1261240Y66720D03*
X1261240Y38280D03*
X611240Y66720D03*
X611240Y38280D03*
X341240Y66720D03*
X341240Y38280D03*
X1056240Y66720D03*
X1056240Y38280D03*
D22*
X56360Y40500D03*
X65860Y40500D03*
X75360Y40500D03*
X75360Y64500D03*
X65860Y64500D03*
X56360Y64500D03*
X982520Y40500D03*
X992020Y40500D03*
X1001520Y40500D03*
X1001520Y64500D03*
X992020Y64500D03*
X982520Y64500D03*
X1442500Y40500D03*
X1452000Y40500D03*
X1461500Y40500D03*
X1461500Y64500D03*
X1452000Y64500D03*
X1442500Y64500D03*
D23*
X806196Y65532D02*
X766572Y65532D01*
X751332Y80772D01*
X547116Y80772D01*
X536448Y70104D01*
X806196Y65532D02*
X807660Y65500D01*
D24*
X536448Y70104D03*
D23*
X266700Y28956D02*
X243840Y28956D01*
X266700Y28956D02*
X284988Y47244D01*
X332232Y47244D01*
X339852Y39624D01*
X243840Y28956D02*
X243440Y28542D01*
X339852Y39624D02*
X341240Y38280D01*
X807720Y39624D02*
X822960Y39624D01*
X807720Y39624D02*
X807660Y39500D01*
X242316Y28956D02*
X230124Y28956D01*
X217932Y41148D01*
X184404Y41148D01*
X173736Y51816D01*
X242316Y28956D02*
X243440Y28542D01*
D24*
X822960Y39624D03*
X173736Y51816D03*
D23*
X1138428Y67056D02*
X1178052Y67056D01*
X1138428Y67056D02*
X1138280Y66500D01*
X1178052Y67056D02*
X1178280Y66500D01*
X1459992Y67056D02*
X1459992Y65532D01*
X1459992Y67056D02*
X1456944Y70104D01*
X1424940Y70104D01*
X1421892Y67056D01*
X1459992Y65532D02*
X1461500Y64500D01*
X1421892Y67056D02*
X1421240Y66500D01*
X1322832Y39624D02*
X1292352Y39624D01*
X1322832Y39624D02*
X1341120Y57912D01*
X1367028Y57912D02*
X1412748Y57912D01*
X1367028Y57912D02*
X1341120Y57912D01*
X1412748Y57912D02*
X1420368Y65532D01*
X1292352Y39624D02*
X1291240Y38500D01*
X1420368Y65532D02*
X1421240Y66500D01*
X1197864Y67056D02*
X1179576Y67056D01*
X1197864Y67056D02*
X1211580Y80772D01*
X1363980Y80772D01*
X1367028Y77724D01*
X1367028Y57912D01*
X1179576Y67056D02*
X1178280Y66500D01*
X100584Y65532D02*
X76200Y65532D01*
X75360Y64500D01*
X100584Y65532D02*
X101240Y66500D01*
X356616Y44196D02*
X381000Y44196D01*
X356616Y44196D02*
X348996Y51816D01*
X213360Y51816D01*
X202692Y62484D01*
X181356Y62484D01*
X176784Y57912D01*
X141732Y57912D01*
X134112Y65532D01*
X381000Y44196D02*
X381240Y43000D01*
X134112Y65532D02*
X133280Y66500D01*
X132588Y67056D02*
X102108Y67056D01*
X101240Y66500D01*
X132588Y67056D02*
X133280Y66500D01*
X1002792Y64008D02*
X1031748Y64008D01*
X1056132Y39624D01*
X1002792Y64008D02*
X1001520Y64500D01*
X1056132Y39624D02*
X1056240Y38280D01*
X905256Y53340D02*
X879348Y53340D01*
X878870Y52500D01*
X905256Y53340D02*
X905540Y52500D01*
X996696Y70104D02*
X1001268Y65532D01*
X996696Y70104D02*
X978408Y70104D01*
X970788Y62484D01*
X970788Y59436D01*
X958596Y47244D01*
X931164Y47244D01*
X912876Y28956D01*
X868680Y28956D01*
X865632Y32004D01*
X865632Y42672D01*
X874776Y51816D01*
X877824Y51816D01*
X1001268Y65532D02*
X1001520Y64500D01*
X878870Y52500D02*
X877824Y51816D01*
X745236Y38100D02*
X733044Y38100D01*
X722376Y27432D01*
X702564Y27432D01*
X697992Y32004D01*
X697992Y44196D01*
X694944Y47244D01*
X662940Y47244D01*
X658368Y42672D01*
X745236Y38100D02*
X746660Y39500D01*
X658368Y42672D02*
X657620Y41500D01*
X641604Y25908D02*
X536448Y25908D01*
X528828Y25908D01*
X641604Y25908D02*
X656844Y41148D01*
X528828Y25908D02*
X528100Y26500D01*
X656844Y41148D02*
X657620Y41500D01*
X856488Y42672D02*
X865632Y42672D01*
X856488Y42672D02*
X850392Y48768D01*
X755904Y48768D01*
X746760Y39624D01*
X746660Y39500D01*
X397764Y42672D02*
X382524Y42672D01*
X381240Y43000D01*
X1280160Y39624D02*
X1290828Y39624D01*
X1280160Y39624D02*
X1271016Y48768D01*
X1251204Y48768D01*
X1235964Y33528D01*
X1235964Y28956D01*
X1231392Y24384D01*
X1071372Y24384D01*
X1057656Y38100D01*
X1290828Y39624D02*
X1291240Y38500D01*
X1057656Y38100D02*
X1056240Y38280D01*
D24*
X397764Y42672D03*
X536448Y25908D03*
D23*
X649224Y62484D02*
X659892Y62484D01*
X667512Y54864D01*
X701040Y54864D01*
X711708Y65532D01*
X649224Y62484D02*
X648120Y63500D01*
X711708Y65532D02*
X712560Y66720D01*
X638556Y41148D02*
X614172Y41148D01*
X612648Y39624D01*
X638556Y41148D02*
X638620Y41500D01*
X612648Y39624D02*
X611240Y38280D01*
X611124Y65532D02*
X591312Y65532D01*
X580644Y54864D01*
X521208Y54864D01*
X502920Y73152D01*
X502920Y77724D01*
X611240Y66720D02*
X611124Y65532D01*
X502920Y77724D02*
X502700Y78500D01*
X737616Y64008D02*
X745236Y64008D01*
X737616Y64008D02*
X713232Y39624D01*
X745236Y64008D02*
X746660Y65500D01*
X713232Y39624D02*
X712560Y38280D01*
X272796Y70104D02*
X243840Y70104D01*
X272796Y70104D02*
X288036Y54864D01*
X370332Y54864D01*
X373380Y51816D01*
X399288Y51816D01*
X408432Y42672D02*
X413004Y38100D01*
X408432Y42672D02*
X399288Y51816D01*
X243840Y70104D02*
X243440Y71542D01*
X413004Y38100D02*
X414216Y37000D01*
X141732Y38100D02*
X134112Y38100D01*
X141732Y38100D02*
X163068Y16764D01*
X382524Y16764D01*
X408432Y42672D01*
X134112Y38100D02*
X133280Y38500D01*
X408432Y42672D02*
X414216Y37000D01*
X1138428Y38100D02*
X1178052Y38100D01*
X1138428Y38100D02*
X1138280Y38500D01*
X1178052Y38100D02*
X1178280Y38500D01*
X1281684Y65532D02*
X1290828Y65532D01*
X1281684Y65532D02*
X1267968Y51816D01*
X1191768Y51816D01*
X1179576Y39624D01*
X1290828Y65532D02*
X1291240Y66500D01*
X1179576Y39624D02*
X1178280Y38500D01*
X1107948Y67056D02*
X1089660Y67056D01*
X1107948Y67056D02*
X1136904Y38100D01*
X1089660Y67056D02*
X1089543Y68000D01*
X1136904Y38100D02*
X1138280Y38500D01*
X917448Y38100D02*
X877824Y38100D01*
X917448Y38100D02*
X926592Y47244D01*
X926592Y57912D01*
X908304Y76200D01*
X868680Y76200D01*
X854964Y62484D01*
X854964Y59436D01*
X851916Y56388D01*
X771144Y56388D01*
X749808Y77724D01*
X702564Y77724D01*
X697992Y73152D01*
X697992Y59436D01*
X696468Y57912D01*
X669036Y57912D01*
X653796Y73152D01*
X638556Y73152D01*
X617220Y51816D01*
X585216Y51816D01*
X571500Y38100D01*
X876330Y37510D02*
X877824Y38100D01*
X571500Y38100D02*
X571282Y37000D01*
X1071372Y68580D02*
X1088136Y68580D01*
X937260Y68580D02*
X926592Y57912D01*
X1088136Y68580D02*
X1089543Y68000D01*
X445008Y38100D02*
X414528Y38100D01*
X445008Y38100D02*
X455676Y48768D01*
X518160Y48768D02*
X559308Y48768D01*
X569976Y38100D01*
X414528Y38100D02*
X414216Y37000D01*
X569976Y38100D02*
X571282Y37000D01*
D24*
X1071372Y68580D03*
X937260Y68580D03*
X455676Y48768D03*
X518160Y48768D03*
D23*
X1373124Y39624D02*
X1420368Y39624D01*
X1373124Y39624D02*
X1365504Y47244D01*
X1335024Y47244D01*
X1315212Y27432D01*
X1272540Y27432D01*
X1261872Y38100D01*
X1420368Y39624D02*
X1421240Y38500D01*
X1261872Y38100D02*
X1261240Y38280D01*
X876300Y67056D02*
X868680Y67056D01*
X861060Y59436D01*
X536448Y79248D02*
X528828Y79248D01*
X876300Y67056D02*
X876330Y67490D01*
X528828Y79248D02*
X528100Y78500D01*
X118872Y39624D02*
X102108Y39624D01*
X101240Y38500D01*
X1249680Y38100D02*
X1260348Y38100D01*
X1249680Y38100D02*
X1232916Y21336D01*
X973836Y21336D01*
X1260348Y38100D02*
X1261240Y38280D01*
D24*
X861060Y59436D03*
X536448Y79248D03*
X118872Y39624D03*
X973836Y21336D03*
D23*
X1431036Y51816D02*
X1441704Y41148D01*
X726948Y59436D02*
X726948Y62484D01*
X726948Y59436D02*
X719328Y51816D01*
X621792Y51816D01*
X618744Y48768D01*
X597408Y48768D01*
X588264Y39624D01*
X470916Y42672D02*
X463296Y42672D01*
X452628Y32004D01*
X452628Y27432D01*
X1441704Y41148D02*
X1442500Y40500D01*
X452628Y27432D02*
X451900Y26500D01*
D24*
X1431036Y51816D03*
X726948Y62484D03*
X588264Y39624D03*
X470916Y42672D03*
D23*
X970788Y28956D02*
X981456Y39624D01*
X970788Y28956D02*
X970788Y27432D01*
X955548Y12192D01*
X473964Y12192D01*
X464820Y21336D01*
X464820Y25908D01*
X981456Y39624D02*
X982520Y40500D01*
X464820Y25908D02*
X464600Y26500D01*
X54864Y36576D02*
X54864Y39624D01*
X54864Y36576D02*
X44196Y25908D01*
X21336Y25908D01*
X18288Y28956D01*
X18288Y76200D01*
X35052Y92964D01*
X467868Y92964D01*
X477012Y83820D01*
X477012Y79248D01*
X56360Y40500D02*
X54864Y39624D01*
X477012Y79248D02*
X477300Y78500D01*
X381000Y62484D02*
X344424Y62484D01*
X341376Y65532D01*
X381000Y62484D02*
X381240Y62000D01*
X341376Y65532D02*
X341240Y66720D01*
X1008888Y67056D02*
X1056132Y67056D01*
X1008888Y67056D02*
X982980Y92964D01*
X499872Y92964D01*
X495300Y88392D01*
X495300Y54864D02*
X495300Y32004D01*
X495300Y54864D02*
X495300Y88392D01*
X495300Y32004D02*
X490728Y27432D01*
X1056132Y67056D02*
X1056240Y66720D01*
X490728Y27432D02*
X490000Y26500D01*
X399288Y60960D02*
X382524Y60960D01*
X399288Y60960D02*
X405384Y54864D01*
X495300Y54864D01*
X382524Y60960D02*
X381240Y62000D01*
X50292Y68580D02*
X33528Y68580D01*
X50292Y68580D02*
X59436Y77724D01*
X155448Y77724D01*
X164592Y68580D01*
X33528Y68580D02*
X33020Y68000D01*
X164592Y68580D02*
X165085Y68000D01*
X841248Y68580D02*
X856488Y68580D01*
X867156Y79248D01*
X946404Y79248D01*
X957072Y68580D01*
X841248Y68580D02*
X840412Y68000D01*
X957072Y68580D02*
X957478Y68000D01*
X1354836Y36576D02*
X1402080Y36576D01*
X1411224Y27432D01*
X1475232Y27432D01*
X1484376Y36576D01*
X1354836Y36576D02*
X1353674Y37000D01*
X1484376Y36576D02*
X1485739Y37000D01*
X1242060Y68580D02*
X1222248Y68580D01*
X1242060Y68580D02*
X1251204Y77724D01*
X1344168Y77724D01*
X1353312Y68580D01*
X1222248Y68580D02*
X1221609Y68000D01*
X1353312Y68580D02*
X1353674Y68000D01*
X688848Y36576D02*
X684276Y36576D01*
X688848Y36576D02*
X701040Y24384D01*
X827532Y24384D01*
X839724Y36576D01*
X684276Y36576D02*
X683347Y37000D01*
X839724Y36576D02*
X840412Y37000D01*
X217932Y36576D02*
X166116Y36576D01*
X217932Y36576D02*
X234696Y19812D01*
X278892Y19812D01*
X295656Y36576D01*
X166116Y36576D02*
X165085Y37000D01*
X295656Y36576D02*
X297151Y37000D01*
X297180Y68580D02*
X321564Y68580D01*
X330708Y77724D01*
X403860Y77724D01*
X413004Y68580D01*
X297180Y68580D02*
X297151Y68000D01*
X413004Y68580D02*
X414216Y68000D01*
X571500Y68580D02*
X592836Y68580D01*
X601980Y77724D01*
X673608Y77724D01*
X682752Y68580D01*
X571500Y68580D02*
X571282Y68000D01*
X682752Y68580D02*
X683347Y68000D01*
X1089660Y36576D02*
X1118616Y36576D01*
X1127760Y27432D01*
X1211580Y27432D01*
X1220724Y36576D01*
X1089660Y36576D02*
X1089543Y37000D01*
X1220724Y36576D02*
X1221609Y37000D01*
X1242060Y65532D02*
X1260348Y65532D01*
X1242060Y65532D02*
X1232916Y56388D01*
X1188720Y56388D01*
X1187196Y54864D01*
X1124712Y54864D01*
X1100328Y79248D01*
X1007364Y79248D01*
X554736Y70104D02*
X545592Y60960D01*
X489204Y60960D02*
X489204Y77724D01*
X1260348Y65532D02*
X1261240Y66720D01*
X490000Y78500D02*
X489204Y77724D01*
D24*
X1007364Y79248D03*
X554736Y70104D03*
X545592Y60960D03*
X489204Y60960D03*
D23*
X74676Y41148D02*
X67056Y41148D01*
X74676Y41148D02*
X75360Y40500D01*
X67056Y41148D02*
X67056Y47244D01*
X67056Y64008D01*
X65860Y64500D01*
X67056Y41148D02*
X65860Y40500D01*
X67056Y47244D02*
X42672Y47244D01*
X33528Y38100D01*
X33020Y37000D01*
X1452372Y41148D02*
X1459992Y41148D01*
X1461500Y40500D01*
X1452372Y41148D02*
X1452372Y57912D01*
X1452372Y64008D01*
X1452000Y64500D01*
X1452372Y41148D02*
X1452000Y40500D01*
X1452372Y57912D02*
X1475232Y57912D01*
X1484376Y67056D01*
X1485739Y68000D01*
X1001268Y41148D02*
X992124Y41148D01*
X1001268Y41148D02*
X1001520Y40500D01*
X992124Y41148D02*
X992124Y47244D01*
X992124Y64008D01*
X992020Y64500D01*
X992124Y41148D02*
X992020Y40500D01*
X992124Y47244D02*
X967740Y47244D01*
X958596Y38100D01*
X957478Y37000D01*
M02*
