G04 EAGLE Gerber RS-274X export*
G75*
%MOMM*%
%FSLAX34Y34*%
%LPD*%
%INSilkscreen Top*%
%IPPOS*%
%AMOC8*
5,1,8,0,0,1.08239X$1,22.5*%
G01*
%ADD10C,0.076200*%
%ADD11C,0.203200*%
%ADD12C,0.101600*%
%ADD13R,0.300000X4.100000*%
%ADD14C,0.127000*%
%ADD15C,0.152400*%

G36*
X853920Y60243D02*
X853920Y60243D01*
X853923Y60243D01*
X854019Y60264D01*
X854114Y60284D01*
X854116Y60286D01*
X854118Y60286D01*
X854198Y60343D01*
X854278Y60399D01*
X854280Y60401D01*
X854282Y60402D01*
X854333Y60485D01*
X854386Y60568D01*
X854386Y60570D01*
X854388Y60573D01*
X854420Y60750D01*
X854420Y68000D01*
X854419Y68005D01*
X854420Y68010D01*
X854399Y68103D01*
X854380Y68197D01*
X854377Y68201D01*
X854376Y68206D01*
X854321Y68284D01*
X854267Y68362D01*
X854263Y68365D01*
X854260Y68369D01*
X854179Y68420D01*
X854099Y68472D01*
X854094Y68472D01*
X854090Y68475D01*
X853912Y68507D01*
X852162Y68507D01*
X852157Y68506D01*
X852152Y68507D01*
X852059Y68486D01*
X851966Y68468D01*
X851962Y68465D01*
X851956Y68464D01*
X851879Y68408D01*
X851800Y68355D01*
X851797Y68351D01*
X851793Y68348D01*
X851742Y68266D01*
X851691Y68187D01*
X851690Y68182D01*
X851687Y68177D01*
X851655Y68000D01*
X851655Y62500D01*
X851657Y62492D01*
X851655Y62485D01*
X851676Y62395D01*
X851695Y62304D01*
X851699Y62297D01*
X851701Y62289D01*
X851804Y62141D01*
X853554Y60391D01*
X853556Y60390D01*
X853557Y60388D01*
X853638Y60335D01*
X853721Y60280D01*
X853723Y60280D01*
X853726Y60278D01*
X853822Y60261D01*
X853918Y60243D01*
X853920Y60243D01*
G37*
G36*
X427724Y60243D02*
X427724Y60243D01*
X427727Y60243D01*
X427823Y60264D01*
X427917Y60284D01*
X427920Y60286D01*
X427922Y60286D01*
X428002Y60343D01*
X428082Y60399D01*
X428084Y60401D01*
X428086Y60402D01*
X428137Y60485D01*
X428190Y60568D01*
X428190Y60570D01*
X428191Y60573D01*
X428223Y60750D01*
X428223Y68000D01*
X428222Y68005D01*
X428223Y68010D01*
X428203Y68103D01*
X428184Y68197D01*
X428181Y68201D01*
X428180Y68206D01*
X428125Y68284D01*
X428071Y68362D01*
X428067Y68365D01*
X428064Y68369D01*
X427982Y68420D01*
X427903Y68472D01*
X427898Y68472D01*
X427894Y68475D01*
X427716Y68507D01*
X425966Y68507D01*
X425961Y68506D01*
X425956Y68507D01*
X425863Y68486D01*
X425770Y68468D01*
X425765Y68465D01*
X425760Y68464D01*
X425682Y68408D01*
X425604Y68355D01*
X425601Y68351D01*
X425597Y68348D01*
X425546Y68266D01*
X425495Y68187D01*
X425494Y68182D01*
X425491Y68177D01*
X425459Y68000D01*
X425459Y62500D01*
X425461Y62492D01*
X425459Y62485D01*
X425480Y62395D01*
X425499Y62304D01*
X425503Y62297D01*
X425505Y62289D01*
X425608Y62141D01*
X427358Y60391D01*
X427360Y60390D01*
X427361Y60388D01*
X427442Y60335D01*
X427525Y60280D01*
X427527Y60280D01*
X427529Y60278D01*
X427625Y60261D01*
X427721Y60243D01*
X427724Y60243D01*
G37*
G36*
X1499247Y60243D02*
X1499247Y60243D01*
X1499250Y60243D01*
X1499346Y60264D01*
X1499441Y60284D01*
X1499443Y60286D01*
X1499445Y60286D01*
X1499525Y60343D01*
X1499605Y60399D01*
X1499607Y60401D01*
X1499609Y60402D01*
X1499660Y60485D01*
X1499713Y60568D01*
X1499713Y60570D01*
X1499715Y60573D01*
X1499747Y60750D01*
X1499747Y68000D01*
X1499746Y68005D01*
X1499747Y68010D01*
X1499726Y68103D01*
X1499707Y68197D01*
X1499704Y68201D01*
X1499703Y68206D01*
X1499648Y68284D01*
X1499594Y68362D01*
X1499590Y68365D01*
X1499587Y68369D01*
X1499506Y68420D01*
X1499426Y68472D01*
X1499421Y68472D01*
X1499417Y68475D01*
X1499239Y68507D01*
X1497489Y68507D01*
X1497484Y68506D01*
X1497479Y68507D01*
X1497386Y68486D01*
X1497293Y68468D01*
X1497289Y68465D01*
X1497284Y68464D01*
X1497206Y68408D01*
X1497127Y68355D01*
X1497124Y68351D01*
X1497120Y68348D01*
X1497069Y68266D01*
X1497018Y68187D01*
X1497017Y68182D01*
X1497014Y68177D01*
X1496982Y68000D01*
X1496982Y62500D01*
X1496984Y62492D01*
X1496982Y62485D01*
X1497003Y62395D01*
X1497022Y62304D01*
X1497026Y62297D01*
X1497028Y62289D01*
X1497131Y62141D01*
X1498881Y60391D01*
X1498883Y60390D01*
X1498884Y60388D01*
X1498965Y60335D01*
X1499048Y60280D01*
X1499050Y60280D01*
X1499053Y60278D01*
X1499149Y60261D01*
X1499245Y60243D01*
X1499247Y60243D01*
G37*
G36*
X1235116Y60243D02*
X1235116Y60243D01*
X1235119Y60243D01*
X1235215Y60264D01*
X1235310Y60284D01*
X1235312Y60286D01*
X1235315Y60286D01*
X1235394Y60343D01*
X1235475Y60399D01*
X1235476Y60401D01*
X1235478Y60402D01*
X1235530Y60485D01*
X1235582Y60568D01*
X1235583Y60570D01*
X1235584Y60573D01*
X1235616Y60750D01*
X1235616Y68000D01*
X1235615Y68005D01*
X1235616Y68010D01*
X1235595Y68103D01*
X1235576Y68197D01*
X1235573Y68201D01*
X1235572Y68206D01*
X1235517Y68284D01*
X1235464Y68362D01*
X1235459Y68365D01*
X1235456Y68369D01*
X1235375Y68420D01*
X1235296Y68472D01*
X1235290Y68472D01*
X1235286Y68475D01*
X1235109Y68507D01*
X1233359Y68507D01*
X1233354Y68506D01*
X1233348Y68507D01*
X1233255Y68486D01*
X1233162Y68468D01*
X1233158Y68465D01*
X1233153Y68464D01*
X1233075Y68408D01*
X1232996Y68355D01*
X1232994Y68351D01*
X1232989Y68348D01*
X1232939Y68266D01*
X1232887Y68187D01*
X1232886Y68182D01*
X1232883Y68177D01*
X1232851Y68000D01*
X1232851Y62500D01*
X1232853Y62492D01*
X1232852Y62485D01*
X1232873Y62395D01*
X1232891Y62304D01*
X1232895Y62297D01*
X1232897Y62289D01*
X1233000Y62141D01*
X1234750Y60391D01*
X1234752Y60390D01*
X1234754Y60388D01*
X1234834Y60335D01*
X1234917Y60280D01*
X1234920Y60280D01*
X1234922Y60278D01*
X1235018Y60261D01*
X1235114Y60243D01*
X1235116Y60243D01*
G37*
G36*
X584789Y60243D02*
X584789Y60243D01*
X584792Y60243D01*
X584888Y60264D01*
X584983Y60284D01*
X584985Y60286D01*
X584988Y60286D01*
X585067Y60343D01*
X585148Y60399D01*
X585149Y60401D01*
X585151Y60402D01*
X585203Y60485D01*
X585255Y60568D01*
X585256Y60570D01*
X585257Y60573D01*
X585289Y60750D01*
X585289Y68000D01*
X585288Y68005D01*
X585289Y68010D01*
X585268Y68103D01*
X585249Y68197D01*
X585246Y68201D01*
X585245Y68206D01*
X585190Y68284D01*
X585137Y68362D01*
X585132Y68365D01*
X585129Y68369D01*
X585048Y68420D01*
X584969Y68472D01*
X584963Y68472D01*
X584959Y68475D01*
X584782Y68507D01*
X583032Y68507D01*
X583027Y68506D01*
X583021Y68507D01*
X582928Y68486D01*
X582835Y68468D01*
X582831Y68465D01*
X582826Y68464D01*
X582748Y68408D01*
X582669Y68355D01*
X582666Y68351D01*
X582662Y68348D01*
X582612Y68266D01*
X582560Y68187D01*
X582559Y68182D01*
X582556Y68177D01*
X582524Y68000D01*
X582524Y62500D01*
X582526Y62492D01*
X582525Y62485D01*
X582546Y62395D01*
X582564Y62304D01*
X582568Y62297D01*
X582570Y62289D01*
X582673Y62141D01*
X584423Y60391D01*
X584425Y60390D01*
X584427Y60388D01*
X584507Y60335D01*
X584590Y60280D01*
X584593Y60280D01*
X584595Y60278D01*
X584691Y60261D01*
X584787Y60243D01*
X584789Y60243D01*
G37*
G36*
X178593Y60243D02*
X178593Y60243D01*
X178596Y60243D01*
X178692Y60264D01*
X178787Y60284D01*
X178789Y60286D01*
X178791Y60286D01*
X178871Y60343D01*
X178951Y60399D01*
X178953Y60401D01*
X178955Y60402D01*
X179006Y60485D01*
X179059Y60568D01*
X179059Y60570D01*
X179061Y60573D01*
X179093Y60750D01*
X179093Y68000D01*
X179092Y68005D01*
X179093Y68010D01*
X179072Y68103D01*
X179053Y68197D01*
X179050Y68201D01*
X179049Y68206D01*
X178994Y68284D01*
X178940Y68362D01*
X178936Y68365D01*
X178933Y68369D01*
X178852Y68420D01*
X178772Y68472D01*
X178767Y68472D01*
X178763Y68475D01*
X178585Y68507D01*
X176835Y68507D01*
X176830Y68506D01*
X176825Y68507D01*
X176732Y68486D01*
X176639Y68468D01*
X176635Y68465D01*
X176629Y68464D01*
X176552Y68408D01*
X176473Y68355D01*
X176470Y68351D01*
X176466Y68348D01*
X176415Y68266D01*
X176364Y68187D01*
X176363Y68182D01*
X176360Y68177D01*
X176328Y68000D01*
X176328Y62500D01*
X176330Y62492D01*
X176328Y62485D01*
X176349Y62395D01*
X176368Y62304D01*
X176372Y62297D01*
X176374Y62289D01*
X176477Y62141D01*
X178227Y60391D01*
X178229Y60390D01*
X178230Y60388D01*
X178311Y60335D01*
X178394Y60280D01*
X178396Y60280D01*
X178398Y60278D01*
X178495Y60261D01*
X178591Y60243D01*
X178593Y60243D01*
G37*
G36*
X1077798Y36494D02*
X1077798Y36494D01*
X1077804Y36493D01*
X1077897Y36514D01*
X1077990Y36532D01*
X1077994Y36535D01*
X1077999Y36536D01*
X1078077Y36592D01*
X1078156Y36645D01*
X1078158Y36649D01*
X1078163Y36652D01*
X1078213Y36734D01*
X1078265Y36813D01*
X1078266Y36818D01*
X1078269Y36823D01*
X1078301Y37000D01*
X1078301Y42500D01*
X1078299Y42508D01*
X1078300Y42515D01*
X1078279Y42605D01*
X1078261Y42697D01*
X1078256Y42703D01*
X1078255Y42711D01*
X1078152Y42859D01*
X1076402Y44609D01*
X1076400Y44610D01*
X1076398Y44612D01*
X1076318Y44665D01*
X1076235Y44720D01*
X1076232Y44720D01*
X1076230Y44722D01*
X1076134Y44739D01*
X1076038Y44757D01*
X1076036Y44757D01*
X1076033Y44757D01*
X1075937Y44736D01*
X1075842Y44716D01*
X1075840Y44714D01*
X1075837Y44714D01*
X1075758Y44657D01*
X1075677Y44601D01*
X1075676Y44599D01*
X1075674Y44598D01*
X1075622Y44515D01*
X1075570Y44432D01*
X1075569Y44430D01*
X1075568Y44427D01*
X1075536Y44250D01*
X1075536Y37000D01*
X1075537Y36995D01*
X1075536Y36990D01*
X1075557Y36897D01*
X1075576Y36804D01*
X1075579Y36799D01*
X1075580Y36794D01*
X1075635Y36716D01*
X1075688Y36638D01*
X1075693Y36635D01*
X1075696Y36631D01*
X1075777Y36580D01*
X1075856Y36528D01*
X1075861Y36528D01*
X1075866Y36525D01*
X1076043Y36493D01*
X1077793Y36493D01*
X1077798Y36494D01*
G37*
G36*
X21275Y36494D02*
X21275Y36494D01*
X21280Y36493D01*
X21373Y36514D01*
X21467Y36532D01*
X21471Y36535D01*
X21476Y36536D01*
X21554Y36592D01*
X21632Y36645D01*
X21635Y36649D01*
X21639Y36652D01*
X21690Y36734D01*
X21742Y36813D01*
X21742Y36818D01*
X21745Y36823D01*
X21777Y37000D01*
X21777Y42500D01*
X21776Y42508D01*
X21777Y42515D01*
X21756Y42605D01*
X21738Y42697D01*
X21733Y42703D01*
X21731Y42711D01*
X21629Y42859D01*
X19879Y44609D01*
X19876Y44610D01*
X19875Y44612D01*
X19794Y44665D01*
X19712Y44720D01*
X19709Y44720D01*
X19707Y44722D01*
X19611Y44739D01*
X19515Y44757D01*
X19512Y44757D01*
X19510Y44757D01*
X19413Y44736D01*
X19319Y44716D01*
X19317Y44714D01*
X19314Y44714D01*
X19234Y44657D01*
X19154Y44601D01*
X19153Y44599D01*
X19151Y44598D01*
X19099Y44515D01*
X19047Y44432D01*
X19046Y44430D01*
X19045Y44427D01*
X19013Y44250D01*
X19013Y37000D01*
X19014Y36995D01*
X19013Y36990D01*
X19034Y36897D01*
X19052Y36804D01*
X19055Y36799D01*
X19056Y36794D01*
X19112Y36716D01*
X19165Y36638D01*
X19169Y36635D01*
X19172Y36631D01*
X19254Y36580D01*
X19333Y36528D01*
X19338Y36528D01*
X19343Y36525D01*
X19520Y36493D01*
X21270Y36493D01*
X21275Y36494D01*
G37*
G36*
X285406Y36494D02*
X285406Y36494D01*
X285411Y36493D01*
X285504Y36514D01*
X285597Y36532D01*
X285602Y36535D01*
X285607Y36536D01*
X285685Y36592D01*
X285763Y36645D01*
X285766Y36649D01*
X285770Y36652D01*
X285821Y36734D01*
X285872Y36813D01*
X285873Y36818D01*
X285876Y36823D01*
X285908Y37000D01*
X285908Y42500D01*
X285907Y42508D01*
X285908Y42515D01*
X285887Y42605D01*
X285868Y42697D01*
X285864Y42703D01*
X285862Y42711D01*
X285760Y42859D01*
X284010Y44609D01*
X284007Y44610D01*
X284006Y44612D01*
X283925Y44665D01*
X283843Y44720D01*
X283840Y44720D01*
X283838Y44722D01*
X283742Y44739D01*
X283646Y44757D01*
X283643Y44757D01*
X283641Y44757D01*
X283544Y44736D01*
X283450Y44716D01*
X283447Y44714D01*
X283445Y44714D01*
X283365Y44657D01*
X283285Y44601D01*
X283284Y44599D01*
X283281Y44598D01*
X283230Y44515D01*
X283177Y44432D01*
X283177Y44430D01*
X283176Y44427D01*
X283144Y44250D01*
X283144Y37000D01*
X283145Y36995D01*
X283144Y36990D01*
X283164Y36897D01*
X283183Y36804D01*
X283186Y36799D01*
X283187Y36794D01*
X283242Y36716D01*
X283296Y36638D01*
X283300Y36635D01*
X283303Y36631D01*
X283385Y36580D01*
X283464Y36528D01*
X283469Y36528D01*
X283474Y36525D01*
X283651Y36493D01*
X285401Y36493D01*
X285406Y36494D01*
G37*
G36*
X1341929Y36494D02*
X1341929Y36494D01*
X1341934Y36493D01*
X1342027Y36514D01*
X1342121Y36532D01*
X1342125Y36535D01*
X1342130Y36536D01*
X1342208Y36592D01*
X1342286Y36645D01*
X1342289Y36649D01*
X1342294Y36652D01*
X1342344Y36734D01*
X1342396Y36813D01*
X1342397Y36818D01*
X1342399Y36823D01*
X1342431Y37000D01*
X1342431Y42500D01*
X1342430Y42508D01*
X1342431Y42515D01*
X1342410Y42605D01*
X1342392Y42697D01*
X1342387Y42703D01*
X1342386Y42711D01*
X1342283Y42859D01*
X1340533Y44609D01*
X1340531Y44610D01*
X1340529Y44612D01*
X1340448Y44665D01*
X1340366Y44720D01*
X1340363Y44720D01*
X1340361Y44722D01*
X1340265Y44739D01*
X1340169Y44757D01*
X1340166Y44757D01*
X1340164Y44757D01*
X1340067Y44736D01*
X1339973Y44716D01*
X1339971Y44714D01*
X1339968Y44714D01*
X1339888Y44657D01*
X1339808Y44601D01*
X1339807Y44599D01*
X1339805Y44598D01*
X1339753Y44515D01*
X1339701Y44432D01*
X1339700Y44430D01*
X1339699Y44427D01*
X1339667Y44250D01*
X1339667Y37000D01*
X1339668Y36995D01*
X1339667Y36990D01*
X1339688Y36897D01*
X1339706Y36804D01*
X1339709Y36799D01*
X1339711Y36794D01*
X1339766Y36716D01*
X1339819Y36638D01*
X1339823Y36635D01*
X1339827Y36631D01*
X1339908Y36580D01*
X1339987Y36528D01*
X1339992Y36528D01*
X1339997Y36525D01*
X1340174Y36493D01*
X1341924Y36493D01*
X1341929Y36494D01*
G37*
G36*
X945733Y36494D02*
X945733Y36494D01*
X945738Y36493D01*
X945831Y36514D01*
X945924Y36532D01*
X945929Y36535D01*
X945934Y36536D01*
X946012Y36592D01*
X946090Y36645D01*
X946093Y36649D01*
X946097Y36652D01*
X946148Y36734D01*
X946199Y36813D01*
X946200Y36818D01*
X946203Y36823D01*
X946235Y37000D01*
X946235Y42500D01*
X946234Y42508D01*
X946235Y42515D01*
X946214Y42605D01*
X946196Y42697D01*
X946191Y42703D01*
X946189Y42711D01*
X946087Y42859D01*
X944337Y44609D01*
X944334Y44610D01*
X944333Y44612D01*
X944252Y44665D01*
X944170Y44720D01*
X944167Y44720D01*
X944165Y44722D01*
X944069Y44739D01*
X943973Y44757D01*
X943970Y44757D01*
X943968Y44757D01*
X943871Y44736D01*
X943777Y44716D01*
X943774Y44714D01*
X943772Y44714D01*
X943692Y44657D01*
X943612Y44601D01*
X943611Y44599D01*
X943608Y44598D01*
X943557Y44515D01*
X943504Y44432D01*
X943504Y44430D01*
X943503Y44427D01*
X943471Y44250D01*
X943471Y37000D01*
X943472Y36995D01*
X943471Y36990D01*
X943491Y36897D01*
X943510Y36804D01*
X943513Y36799D01*
X943514Y36794D01*
X943570Y36716D01*
X943623Y36638D01*
X943627Y36635D01*
X943630Y36631D01*
X943712Y36580D01*
X943791Y36528D01*
X943796Y36528D01*
X943801Y36525D01*
X943978Y36493D01*
X945728Y36493D01*
X945733Y36494D01*
G37*
G36*
X671602Y36494D02*
X671602Y36494D01*
X671607Y36493D01*
X671700Y36514D01*
X671794Y36532D01*
X671798Y36535D01*
X671803Y36536D01*
X671881Y36592D01*
X671959Y36645D01*
X671962Y36649D01*
X671967Y36652D01*
X672017Y36734D01*
X672069Y36813D01*
X672070Y36818D01*
X672072Y36823D01*
X672104Y37000D01*
X672104Y42500D01*
X672103Y42508D01*
X672104Y42515D01*
X672083Y42605D01*
X672065Y42697D01*
X672060Y42703D01*
X672058Y42711D01*
X671956Y42859D01*
X670206Y44609D01*
X670204Y44610D01*
X670202Y44612D01*
X670121Y44665D01*
X670039Y44720D01*
X670036Y44720D01*
X670034Y44722D01*
X669938Y44739D01*
X669842Y44757D01*
X669839Y44757D01*
X669837Y44757D01*
X669740Y44736D01*
X669646Y44716D01*
X669644Y44714D01*
X669641Y44714D01*
X669561Y44657D01*
X669481Y44601D01*
X669480Y44599D01*
X669478Y44598D01*
X669426Y44515D01*
X669374Y44432D01*
X669373Y44430D01*
X669372Y44427D01*
X669340Y44250D01*
X669340Y37000D01*
X669341Y36995D01*
X669340Y36990D01*
X669361Y36897D01*
X669379Y36804D01*
X669382Y36799D01*
X669383Y36794D01*
X669439Y36716D01*
X669492Y36638D01*
X669496Y36635D01*
X669499Y36631D01*
X669581Y36580D01*
X669660Y36528D01*
X669665Y36528D01*
X669670Y36525D01*
X669847Y36493D01*
X671597Y36493D01*
X671602Y36494D01*
G37*
D10*
X980381Y5381D02*
X980381Y12747D01*
X980381Y10292D02*
X982427Y10292D01*
X982496Y10290D01*
X982564Y10284D01*
X982633Y10275D01*
X982700Y10261D01*
X982767Y10244D01*
X982833Y10223D01*
X982897Y10199D01*
X982960Y10170D01*
X983021Y10139D01*
X983080Y10104D01*
X983138Y10066D01*
X983193Y10024D01*
X983245Y9980D01*
X983295Y9932D01*
X983343Y9882D01*
X983387Y9830D01*
X983429Y9775D01*
X983467Y9717D01*
X983502Y9658D01*
X983533Y9597D01*
X983562Y9534D01*
X983586Y9470D01*
X983607Y9404D01*
X983624Y9337D01*
X983638Y9270D01*
X983647Y9201D01*
X983653Y9133D01*
X983655Y9064D01*
X983655Y5381D01*
X986334Y10292D02*
X988790Y10292D01*
X987153Y12747D02*
X987153Y6609D01*
X987152Y6609D02*
X987154Y6540D01*
X987160Y6472D01*
X987169Y6403D01*
X987183Y6336D01*
X987200Y6269D01*
X987221Y6203D01*
X987245Y6139D01*
X987274Y6076D01*
X987305Y6015D01*
X987340Y5956D01*
X987378Y5898D01*
X987420Y5843D01*
X987464Y5791D01*
X987512Y5741D01*
X987562Y5693D01*
X987614Y5649D01*
X987669Y5607D01*
X987727Y5569D01*
X987786Y5534D01*
X987847Y5503D01*
X987910Y5474D01*
X987974Y5450D01*
X988040Y5429D01*
X988107Y5412D01*
X988174Y5398D01*
X988243Y5389D01*
X988311Y5383D01*
X988380Y5381D01*
X988790Y5381D01*
X990967Y10292D02*
X993423Y10292D01*
X991786Y12747D02*
X991786Y6609D01*
X991785Y6609D02*
X991787Y6540D01*
X991793Y6472D01*
X991802Y6403D01*
X991816Y6336D01*
X991833Y6269D01*
X991854Y6203D01*
X991878Y6139D01*
X991907Y6076D01*
X991938Y6015D01*
X991973Y5956D01*
X992011Y5898D01*
X992053Y5843D01*
X992097Y5791D01*
X992145Y5741D01*
X992195Y5693D01*
X992247Y5649D01*
X992302Y5607D01*
X992360Y5569D01*
X992419Y5534D01*
X992480Y5503D01*
X992543Y5474D01*
X992607Y5450D01*
X992673Y5429D01*
X992740Y5412D01*
X992807Y5398D01*
X992876Y5389D01*
X992944Y5383D01*
X993013Y5381D01*
X993423Y5381D01*
X996515Y2926D02*
X996515Y10292D01*
X998561Y10292D01*
X998630Y10290D01*
X998698Y10284D01*
X998767Y10275D01*
X998834Y10261D01*
X998901Y10244D01*
X998967Y10223D01*
X999031Y10199D01*
X999094Y10170D01*
X999155Y10139D01*
X999214Y10104D01*
X999272Y10066D01*
X999327Y10024D01*
X999379Y9980D01*
X999429Y9932D01*
X999477Y9882D01*
X999521Y9830D01*
X999563Y9775D01*
X999601Y9717D01*
X999636Y9658D01*
X999667Y9597D01*
X999696Y9534D01*
X999720Y9470D01*
X999741Y9404D01*
X999758Y9337D01*
X999772Y9270D01*
X999781Y9201D01*
X999787Y9133D01*
X999789Y9064D01*
X999789Y6609D01*
X999787Y6540D01*
X999781Y6472D01*
X999772Y6403D01*
X999758Y6336D01*
X999741Y6269D01*
X999720Y6203D01*
X999696Y6139D01*
X999667Y6076D01*
X999636Y6015D01*
X999601Y5956D01*
X999563Y5898D01*
X999521Y5843D01*
X999477Y5791D01*
X999429Y5741D01*
X999379Y5693D01*
X999327Y5649D01*
X999272Y5608D01*
X999214Y5569D01*
X999155Y5534D01*
X999094Y5503D01*
X999031Y5474D01*
X998967Y5450D01*
X998901Y5429D01*
X998834Y5412D01*
X998767Y5398D01*
X998699Y5389D01*
X998630Y5383D01*
X998561Y5381D01*
X996515Y5381D01*
X1003428Y8246D02*
X1005474Y7427D01*
X1003428Y8246D02*
X1003369Y8271D01*
X1003312Y8300D01*
X1003257Y8333D01*
X1003204Y8369D01*
X1003153Y8407D01*
X1003105Y8449D01*
X1003059Y8494D01*
X1003016Y8541D01*
X1002976Y8591D01*
X1002939Y8643D01*
X1002905Y8698D01*
X1002874Y8754D01*
X1002847Y8812D01*
X1002824Y8872D01*
X1002804Y8932D01*
X1002788Y8994D01*
X1002775Y9057D01*
X1002767Y9121D01*
X1002762Y9184D01*
X1002761Y9248D01*
X1002764Y9312D01*
X1002771Y9376D01*
X1002782Y9439D01*
X1002796Y9501D01*
X1002814Y9563D01*
X1002836Y9623D01*
X1002861Y9682D01*
X1002890Y9739D01*
X1002923Y9794D01*
X1002958Y9847D01*
X1002997Y9898D01*
X1003039Y9947D01*
X1003083Y9993D01*
X1003131Y10036D01*
X1003180Y10076D01*
X1003233Y10113D01*
X1003287Y10147D01*
X1003343Y10178D01*
X1003401Y10205D01*
X1003460Y10229D01*
X1003521Y10248D01*
X1003583Y10265D01*
X1003646Y10277D01*
X1003709Y10286D01*
X1003773Y10291D01*
X1003837Y10292D01*
X1003973Y10288D01*
X1004108Y10280D01*
X1004244Y10268D01*
X1004378Y10252D01*
X1004513Y10232D01*
X1004646Y10209D01*
X1004779Y10181D01*
X1004911Y10150D01*
X1005042Y10115D01*
X1005172Y10076D01*
X1005301Y10033D01*
X1005428Y9986D01*
X1005554Y9936D01*
X1005679Y9882D01*
X1005474Y7427D02*
X1005533Y7402D01*
X1005590Y7373D01*
X1005645Y7340D01*
X1005698Y7304D01*
X1005749Y7266D01*
X1005797Y7224D01*
X1005843Y7179D01*
X1005886Y7132D01*
X1005926Y7082D01*
X1005963Y7030D01*
X1005997Y6975D01*
X1006028Y6919D01*
X1006055Y6861D01*
X1006078Y6801D01*
X1006098Y6741D01*
X1006114Y6679D01*
X1006127Y6616D01*
X1006135Y6552D01*
X1006140Y6489D01*
X1006141Y6425D01*
X1006138Y6361D01*
X1006131Y6297D01*
X1006120Y6234D01*
X1006106Y6172D01*
X1006088Y6110D01*
X1006066Y6050D01*
X1006041Y5991D01*
X1006012Y5934D01*
X1005979Y5879D01*
X1005944Y5826D01*
X1005905Y5775D01*
X1005863Y5726D01*
X1005819Y5680D01*
X1005771Y5637D01*
X1005722Y5597D01*
X1005669Y5560D01*
X1005615Y5526D01*
X1005559Y5495D01*
X1005501Y5468D01*
X1005442Y5444D01*
X1005381Y5425D01*
X1005319Y5408D01*
X1005256Y5396D01*
X1005193Y5387D01*
X1005129Y5382D01*
X1005065Y5381D01*
X1004901Y5385D01*
X1004737Y5393D01*
X1004573Y5405D01*
X1004410Y5421D01*
X1004247Y5441D01*
X1004084Y5464D01*
X1003923Y5492D01*
X1003761Y5523D01*
X1003601Y5558D01*
X1003442Y5597D01*
X1003283Y5640D01*
X1003126Y5686D01*
X1002969Y5736D01*
X1002814Y5790D01*
X1009123Y5995D02*
X1009123Y6404D01*
X1009532Y6404D01*
X1009532Y5995D01*
X1009123Y5995D01*
X1009123Y9269D02*
X1009123Y9678D01*
X1009532Y9678D01*
X1009532Y9269D01*
X1009123Y9269D01*
X1012324Y4563D02*
X1015598Y13565D01*
X1021450Y13565D02*
X1018176Y4563D01*
X1025459Y5381D02*
X1027505Y5381D01*
X1025459Y5381D02*
X1025390Y5383D01*
X1025322Y5389D01*
X1025253Y5398D01*
X1025186Y5412D01*
X1025119Y5429D01*
X1025053Y5450D01*
X1024989Y5474D01*
X1024926Y5503D01*
X1024865Y5534D01*
X1024806Y5569D01*
X1024748Y5607D01*
X1024693Y5649D01*
X1024641Y5693D01*
X1024591Y5741D01*
X1024543Y5791D01*
X1024499Y5843D01*
X1024457Y5898D01*
X1024419Y5956D01*
X1024384Y6015D01*
X1024353Y6076D01*
X1024324Y6139D01*
X1024300Y6203D01*
X1024279Y6269D01*
X1024262Y6336D01*
X1024248Y6403D01*
X1024239Y6472D01*
X1024233Y6540D01*
X1024231Y6609D01*
X1024231Y9064D01*
X1024233Y9133D01*
X1024239Y9201D01*
X1024248Y9270D01*
X1024262Y9337D01*
X1024279Y9404D01*
X1024300Y9470D01*
X1024324Y9534D01*
X1024353Y9597D01*
X1024384Y9658D01*
X1024419Y9717D01*
X1024457Y9775D01*
X1024499Y9830D01*
X1024543Y9882D01*
X1024591Y9932D01*
X1024641Y9980D01*
X1024693Y10024D01*
X1024748Y10066D01*
X1024806Y10104D01*
X1024865Y10139D01*
X1024926Y10170D01*
X1024989Y10199D01*
X1025053Y10223D01*
X1025119Y10244D01*
X1025186Y10261D01*
X1025253Y10275D01*
X1025322Y10284D01*
X1025390Y10290D01*
X1025459Y10292D01*
X1027505Y10292D01*
X1027505Y4153D01*
X1027503Y4084D01*
X1027497Y4016D01*
X1027488Y3947D01*
X1027474Y3880D01*
X1027457Y3813D01*
X1027436Y3747D01*
X1027412Y3683D01*
X1027383Y3620D01*
X1027352Y3559D01*
X1027317Y3500D01*
X1027279Y3442D01*
X1027237Y3387D01*
X1027193Y3335D01*
X1027145Y3285D01*
X1027095Y3237D01*
X1027043Y3193D01*
X1026988Y3152D01*
X1026930Y3113D01*
X1026871Y3078D01*
X1026810Y3047D01*
X1026747Y3018D01*
X1026683Y2994D01*
X1026617Y2973D01*
X1026550Y2956D01*
X1026483Y2942D01*
X1026415Y2933D01*
X1026346Y2927D01*
X1026277Y2925D01*
X1026277Y2926D02*
X1024640Y2926D01*
X1030786Y5381D02*
X1030786Y10292D01*
X1030581Y12338D02*
X1030581Y12747D01*
X1030990Y12747D01*
X1030990Y12338D01*
X1030581Y12338D01*
X1033151Y10292D02*
X1035607Y10292D01*
X1033970Y12747D02*
X1033970Y6609D01*
X1033969Y6609D02*
X1033971Y6540D01*
X1033977Y6472D01*
X1033986Y6403D01*
X1034000Y6336D01*
X1034017Y6269D01*
X1034038Y6203D01*
X1034062Y6139D01*
X1034091Y6076D01*
X1034122Y6015D01*
X1034157Y5956D01*
X1034195Y5898D01*
X1034237Y5843D01*
X1034281Y5791D01*
X1034329Y5741D01*
X1034379Y5693D01*
X1034431Y5649D01*
X1034486Y5607D01*
X1034544Y5569D01*
X1034603Y5534D01*
X1034664Y5503D01*
X1034727Y5474D01*
X1034791Y5450D01*
X1034857Y5429D01*
X1034924Y5412D01*
X1034991Y5398D01*
X1035060Y5389D01*
X1035128Y5383D01*
X1035197Y5381D01*
X1035607Y5381D01*
X1038658Y5381D02*
X1038658Y12747D01*
X1038658Y10292D02*
X1040704Y10292D01*
X1040773Y10290D01*
X1040841Y10284D01*
X1040910Y10275D01*
X1040977Y10261D01*
X1041044Y10244D01*
X1041110Y10223D01*
X1041174Y10199D01*
X1041237Y10170D01*
X1041298Y10139D01*
X1041357Y10104D01*
X1041415Y10066D01*
X1041470Y10024D01*
X1041522Y9980D01*
X1041572Y9932D01*
X1041620Y9882D01*
X1041664Y9830D01*
X1041706Y9775D01*
X1041744Y9717D01*
X1041779Y9658D01*
X1041810Y9597D01*
X1041839Y9534D01*
X1041863Y9470D01*
X1041884Y9404D01*
X1041901Y9337D01*
X1041915Y9270D01*
X1041924Y9201D01*
X1041930Y9133D01*
X1041932Y9064D01*
X1041932Y5381D01*
X1045486Y6609D02*
X1045486Y10292D01*
X1045486Y6609D02*
X1045488Y6540D01*
X1045494Y6472D01*
X1045503Y6403D01*
X1045517Y6336D01*
X1045534Y6269D01*
X1045555Y6203D01*
X1045579Y6139D01*
X1045608Y6076D01*
X1045639Y6015D01*
X1045674Y5956D01*
X1045712Y5898D01*
X1045754Y5843D01*
X1045798Y5791D01*
X1045846Y5741D01*
X1045896Y5693D01*
X1045948Y5649D01*
X1046003Y5607D01*
X1046061Y5569D01*
X1046120Y5534D01*
X1046181Y5503D01*
X1046244Y5474D01*
X1046308Y5450D01*
X1046374Y5429D01*
X1046441Y5412D01*
X1046508Y5398D01*
X1046577Y5389D01*
X1046645Y5383D01*
X1046714Y5381D01*
X1048760Y5381D01*
X1048760Y10292D01*
X1052354Y12747D02*
X1052354Y5381D01*
X1054400Y5381D01*
X1054469Y5383D01*
X1054537Y5389D01*
X1054606Y5398D01*
X1054673Y5412D01*
X1054740Y5429D01*
X1054806Y5450D01*
X1054870Y5474D01*
X1054933Y5503D01*
X1054994Y5534D01*
X1055053Y5569D01*
X1055111Y5607D01*
X1055166Y5649D01*
X1055218Y5693D01*
X1055268Y5741D01*
X1055316Y5791D01*
X1055360Y5843D01*
X1055402Y5898D01*
X1055440Y5956D01*
X1055475Y6015D01*
X1055506Y6076D01*
X1055535Y6139D01*
X1055559Y6203D01*
X1055580Y6269D01*
X1055597Y6336D01*
X1055611Y6403D01*
X1055620Y6472D01*
X1055626Y6540D01*
X1055628Y6609D01*
X1055628Y9064D01*
X1055626Y9133D01*
X1055620Y9201D01*
X1055611Y9270D01*
X1055597Y9337D01*
X1055580Y9404D01*
X1055559Y9470D01*
X1055535Y9534D01*
X1055506Y9597D01*
X1055475Y9658D01*
X1055440Y9717D01*
X1055402Y9775D01*
X1055360Y9830D01*
X1055316Y9882D01*
X1055268Y9932D01*
X1055218Y9980D01*
X1055166Y10024D01*
X1055111Y10066D01*
X1055053Y10104D01*
X1054994Y10139D01*
X1054933Y10170D01*
X1054870Y10199D01*
X1054806Y10223D01*
X1054740Y10244D01*
X1054673Y10261D01*
X1054606Y10275D01*
X1054537Y10284D01*
X1054469Y10290D01*
X1054400Y10292D01*
X1052354Y10292D01*
X1058379Y5790D02*
X1058379Y5381D01*
X1058379Y5790D02*
X1058788Y5790D01*
X1058788Y5381D01*
X1058379Y5381D01*
X1062816Y5381D02*
X1064453Y5381D01*
X1062816Y5381D02*
X1062747Y5383D01*
X1062679Y5389D01*
X1062610Y5398D01*
X1062543Y5412D01*
X1062476Y5429D01*
X1062410Y5450D01*
X1062346Y5474D01*
X1062283Y5503D01*
X1062222Y5534D01*
X1062163Y5569D01*
X1062105Y5607D01*
X1062050Y5649D01*
X1061998Y5693D01*
X1061948Y5741D01*
X1061900Y5791D01*
X1061856Y5843D01*
X1061814Y5898D01*
X1061776Y5956D01*
X1061741Y6015D01*
X1061710Y6076D01*
X1061681Y6139D01*
X1061657Y6203D01*
X1061636Y6269D01*
X1061619Y6336D01*
X1061605Y6403D01*
X1061596Y6472D01*
X1061590Y6540D01*
X1061588Y6609D01*
X1061588Y9064D01*
X1061590Y9133D01*
X1061596Y9201D01*
X1061605Y9270D01*
X1061619Y9337D01*
X1061636Y9404D01*
X1061657Y9470D01*
X1061681Y9534D01*
X1061710Y9597D01*
X1061741Y9658D01*
X1061776Y9717D01*
X1061814Y9775D01*
X1061856Y9830D01*
X1061900Y9882D01*
X1061948Y9932D01*
X1061998Y9980D01*
X1062050Y10024D01*
X1062105Y10066D01*
X1062163Y10104D01*
X1062222Y10139D01*
X1062283Y10170D01*
X1062346Y10199D01*
X1062410Y10223D01*
X1062476Y10244D01*
X1062543Y10261D01*
X1062610Y10275D01*
X1062679Y10284D01*
X1062747Y10290D01*
X1062816Y10292D01*
X1064453Y10292D01*
X1067187Y8655D02*
X1067187Y7018D01*
X1067187Y8655D02*
X1067189Y8734D01*
X1067195Y8813D01*
X1067204Y8892D01*
X1067217Y8970D01*
X1067235Y9047D01*
X1067255Y9123D01*
X1067280Y9198D01*
X1067308Y9272D01*
X1067339Y9345D01*
X1067375Y9416D01*
X1067413Y9485D01*
X1067455Y9552D01*
X1067500Y9617D01*
X1067548Y9680D01*
X1067599Y9741D01*
X1067653Y9798D01*
X1067709Y9854D01*
X1067768Y9906D01*
X1067830Y9956D01*
X1067894Y10002D01*
X1067960Y10046D01*
X1068028Y10086D01*
X1068098Y10122D01*
X1068170Y10156D01*
X1068244Y10186D01*
X1068318Y10212D01*
X1068394Y10235D01*
X1068471Y10253D01*
X1068548Y10269D01*
X1068627Y10280D01*
X1068705Y10288D01*
X1068784Y10292D01*
X1068864Y10292D01*
X1068943Y10288D01*
X1069021Y10280D01*
X1069100Y10269D01*
X1069177Y10253D01*
X1069254Y10235D01*
X1069330Y10212D01*
X1069404Y10186D01*
X1069478Y10156D01*
X1069550Y10122D01*
X1069620Y10086D01*
X1069688Y10046D01*
X1069754Y10002D01*
X1069818Y9956D01*
X1069880Y9906D01*
X1069939Y9854D01*
X1069995Y9798D01*
X1070049Y9741D01*
X1070100Y9680D01*
X1070148Y9617D01*
X1070193Y9552D01*
X1070235Y9485D01*
X1070273Y9416D01*
X1070309Y9345D01*
X1070340Y9272D01*
X1070368Y9198D01*
X1070393Y9123D01*
X1070413Y9047D01*
X1070431Y8970D01*
X1070444Y8892D01*
X1070453Y8813D01*
X1070459Y8734D01*
X1070461Y8655D01*
X1070461Y7018D01*
X1070459Y6939D01*
X1070453Y6860D01*
X1070444Y6781D01*
X1070431Y6703D01*
X1070413Y6626D01*
X1070393Y6550D01*
X1070368Y6475D01*
X1070340Y6401D01*
X1070309Y6328D01*
X1070273Y6257D01*
X1070235Y6188D01*
X1070193Y6121D01*
X1070148Y6056D01*
X1070100Y5993D01*
X1070049Y5932D01*
X1069995Y5875D01*
X1069939Y5819D01*
X1069880Y5767D01*
X1069818Y5717D01*
X1069754Y5671D01*
X1069688Y5627D01*
X1069620Y5587D01*
X1069550Y5551D01*
X1069478Y5517D01*
X1069404Y5487D01*
X1069330Y5461D01*
X1069254Y5438D01*
X1069177Y5420D01*
X1069100Y5404D01*
X1069021Y5393D01*
X1068943Y5385D01*
X1068864Y5381D01*
X1068784Y5381D01*
X1068705Y5385D01*
X1068627Y5393D01*
X1068548Y5404D01*
X1068471Y5420D01*
X1068394Y5438D01*
X1068318Y5461D01*
X1068244Y5487D01*
X1068170Y5517D01*
X1068098Y5551D01*
X1068028Y5587D01*
X1067960Y5627D01*
X1067894Y5671D01*
X1067830Y5717D01*
X1067768Y5767D01*
X1067709Y5819D01*
X1067653Y5875D01*
X1067599Y5932D01*
X1067548Y5993D01*
X1067500Y6056D01*
X1067455Y6121D01*
X1067413Y6188D01*
X1067375Y6257D01*
X1067339Y6328D01*
X1067308Y6401D01*
X1067280Y6475D01*
X1067255Y6550D01*
X1067235Y6626D01*
X1067217Y6703D01*
X1067204Y6781D01*
X1067195Y6860D01*
X1067189Y6939D01*
X1067187Y7018D01*
X1073928Y5381D02*
X1073928Y10292D01*
X1077611Y10292D01*
X1077680Y10290D01*
X1077748Y10284D01*
X1077817Y10275D01*
X1077884Y10261D01*
X1077951Y10244D01*
X1078017Y10223D01*
X1078081Y10199D01*
X1078144Y10170D01*
X1078205Y10139D01*
X1078264Y10104D01*
X1078322Y10066D01*
X1078377Y10024D01*
X1078429Y9980D01*
X1078479Y9932D01*
X1078527Y9882D01*
X1078571Y9830D01*
X1078613Y9775D01*
X1078651Y9717D01*
X1078686Y9658D01*
X1078717Y9597D01*
X1078746Y9534D01*
X1078770Y9470D01*
X1078791Y9404D01*
X1078808Y9337D01*
X1078822Y9270D01*
X1078831Y9201D01*
X1078837Y9133D01*
X1078839Y9064D01*
X1078839Y5381D01*
X1076383Y5381D02*
X1076383Y10292D01*
X1082062Y4563D02*
X1085335Y13565D01*
X1088771Y8246D02*
X1090818Y7427D01*
X1088772Y8246D02*
X1088713Y8271D01*
X1088656Y8300D01*
X1088601Y8333D01*
X1088548Y8369D01*
X1088497Y8407D01*
X1088449Y8449D01*
X1088403Y8494D01*
X1088360Y8541D01*
X1088320Y8591D01*
X1088283Y8643D01*
X1088249Y8698D01*
X1088218Y8754D01*
X1088191Y8812D01*
X1088168Y8872D01*
X1088148Y8932D01*
X1088132Y8994D01*
X1088119Y9057D01*
X1088111Y9121D01*
X1088106Y9184D01*
X1088105Y9248D01*
X1088108Y9312D01*
X1088115Y9376D01*
X1088126Y9439D01*
X1088140Y9501D01*
X1088158Y9563D01*
X1088180Y9623D01*
X1088205Y9682D01*
X1088234Y9739D01*
X1088267Y9794D01*
X1088302Y9847D01*
X1088341Y9898D01*
X1088383Y9947D01*
X1088427Y9993D01*
X1088475Y10036D01*
X1088524Y10076D01*
X1088577Y10113D01*
X1088631Y10147D01*
X1088687Y10178D01*
X1088745Y10205D01*
X1088804Y10229D01*
X1088865Y10248D01*
X1088927Y10265D01*
X1088990Y10277D01*
X1089053Y10286D01*
X1089117Y10291D01*
X1089181Y10292D01*
X1089180Y10292D02*
X1089316Y10288D01*
X1089451Y10280D01*
X1089587Y10268D01*
X1089721Y10252D01*
X1089856Y10232D01*
X1089989Y10209D01*
X1090122Y10181D01*
X1090254Y10150D01*
X1090385Y10115D01*
X1090515Y10076D01*
X1090644Y10033D01*
X1090771Y9986D01*
X1090897Y9936D01*
X1091022Y9882D01*
X1090817Y7427D02*
X1090876Y7402D01*
X1090933Y7373D01*
X1090988Y7340D01*
X1091041Y7304D01*
X1091092Y7266D01*
X1091140Y7224D01*
X1091186Y7179D01*
X1091229Y7132D01*
X1091269Y7082D01*
X1091306Y7030D01*
X1091340Y6975D01*
X1091371Y6919D01*
X1091398Y6861D01*
X1091421Y6801D01*
X1091441Y6741D01*
X1091457Y6679D01*
X1091470Y6616D01*
X1091478Y6552D01*
X1091483Y6489D01*
X1091484Y6425D01*
X1091481Y6361D01*
X1091474Y6297D01*
X1091463Y6234D01*
X1091449Y6172D01*
X1091431Y6110D01*
X1091409Y6050D01*
X1091384Y5991D01*
X1091355Y5934D01*
X1091322Y5879D01*
X1091287Y5826D01*
X1091248Y5775D01*
X1091206Y5726D01*
X1091162Y5680D01*
X1091114Y5637D01*
X1091065Y5597D01*
X1091012Y5560D01*
X1090958Y5526D01*
X1090902Y5495D01*
X1090844Y5468D01*
X1090785Y5444D01*
X1090724Y5425D01*
X1090662Y5408D01*
X1090599Y5396D01*
X1090536Y5387D01*
X1090472Y5382D01*
X1090408Y5381D01*
X1090244Y5385D01*
X1090080Y5393D01*
X1089916Y5405D01*
X1089753Y5421D01*
X1089590Y5441D01*
X1089427Y5464D01*
X1089266Y5492D01*
X1089104Y5523D01*
X1088944Y5558D01*
X1088785Y5597D01*
X1088626Y5640D01*
X1088469Y5686D01*
X1088312Y5736D01*
X1088157Y5790D01*
X1093867Y10292D02*
X1096322Y10292D01*
X1094686Y12747D02*
X1094686Y6609D01*
X1094685Y6609D02*
X1094687Y6540D01*
X1094693Y6472D01*
X1094702Y6403D01*
X1094716Y6336D01*
X1094733Y6269D01*
X1094754Y6203D01*
X1094778Y6139D01*
X1094807Y6076D01*
X1094838Y6015D01*
X1094873Y5956D01*
X1094911Y5898D01*
X1094953Y5843D01*
X1094997Y5791D01*
X1095045Y5741D01*
X1095095Y5693D01*
X1095147Y5649D01*
X1095202Y5607D01*
X1095260Y5569D01*
X1095319Y5534D01*
X1095380Y5503D01*
X1095443Y5474D01*
X1095507Y5450D01*
X1095573Y5429D01*
X1095640Y5412D01*
X1095707Y5398D01*
X1095776Y5389D01*
X1095844Y5383D01*
X1095913Y5381D01*
X1096322Y5381D01*
X1099415Y5381D02*
X1099415Y12747D01*
X1099415Y5381D02*
X1101461Y5381D01*
X1101530Y5383D01*
X1101598Y5389D01*
X1101667Y5398D01*
X1101734Y5412D01*
X1101801Y5429D01*
X1101867Y5450D01*
X1101931Y5474D01*
X1101994Y5503D01*
X1102055Y5534D01*
X1102114Y5569D01*
X1102172Y5607D01*
X1102227Y5649D01*
X1102279Y5693D01*
X1102329Y5741D01*
X1102377Y5791D01*
X1102421Y5843D01*
X1102463Y5898D01*
X1102501Y5956D01*
X1102536Y6015D01*
X1102567Y6076D01*
X1102596Y6139D01*
X1102620Y6203D01*
X1102641Y6269D01*
X1102658Y6336D01*
X1102672Y6403D01*
X1102681Y6472D01*
X1102687Y6540D01*
X1102689Y6609D01*
X1102689Y9064D01*
X1102687Y9133D01*
X1102681Y9201D01*
X1102672Y9270D01*
X1102658Y9337D01*
X1102641Y9404D01*
X1102620Y9470D01*
X1102596Y9534D01*
X1102567Y9597D01*
X1102536Y9658D01*
X1102501Y9717D01*
X1102463Y9775D01*
X1102421Y9830D01*
X1102377Y9882D01*
X1102329Y9932D01*
X1102279Y9980D01*
X1102227Y10024D01*
X1102172Y10066D01*
X1102114Y10104D01*
X1102055Y10139D01*
X1101994Y10170D01*
X1101931Y10199D01*
X1101867Y10223D01*
X1101801Y10244D01*
X1101734Y10261D01*
X1101667Y10275D01*
X1101598Y10284D01*
X1101530Y10290D01*
X1101461Y10292D01*
X1099415Y10292D01*
X1105792Y7018D02*
X1107429Y12747D01*
X1105792Y7018D02*
X1109885Y7018D01*
X1108657Y8655D02*
X1108657Y5381D01*
X1114745Y8655D02*
X1117200Y8655D01*
X1114745Y8655D02*
X1114667Y8657D01*
X1114589Y8662D01*
X1114512Y8672D01*
X1114435Y8685D01*
X1114359Y8701D01*
X1114284Y8721D01*
X1114210Y8745D01*
X1114137Y8772D01*
X1114065Y8803D01*
X1113995Y8837D01*
X1113926Y8874D01*
X1113860Y8915D01*
X1113795Y8959D01*
X1113733Y9005D01*
X1113673Y9055D01*
X1113615Y9107D01*
X1113560Y9162D01*
X1113508Y9220D01*
X1113458Y9280D01*
X1113412Y9342D01*
X1113368Y9407D01*
X1113327Y9474D01*
X1113290Y9542D01*
X1113256Y9612D01*
X1113225Y9684D01*
X1113198Y9757D01*
X1113174Y9831D01*
X1113154Y9906D01*
X1113138Y9982D01*
X1113125Y10059D01*
X1113115Y10136D01*
X1113110Y10214D01*
X1113108Y10292D01*
X1113108Y10701D01*
X1113110Y10790D01*
X1113116Y10879D01*
X1113126Y10968D01*
X1113139Y11056D01*
X1113156Y11144D01*
X1113178Y11231D01*
X1113203Y11316D01*
X1113231Y11401D01*
X1113264Y11484D01*
X1113300Y11566D01*
X1113339Y11646D01*
X1113382Y11724D01*
X1113428Y11800D01*
X1113478Y11875D01*
X1113531Y11947D01*
X1113587Y12016D01*
X1113646Y12083D01*
X1113707Y12148D01*
X1113772Y12209D01*
X1113839Y12268D01*
X1113908Y12324D01*
X1113980Y12377D01*
X1114055Y12427D01*
X1114131Y12473D01*
X1114209Y12516D01*
X1114289Y12555D01*
X1114371Y12591D01*
X1114454Y12624D01*
X1114539Y12652D01*
X1114624Y12677D01*
X1114711Y12699D01*
X1114799Y12716D01*
X1114887Y12729D01*
X1114976Y12739D01*
X1115065Y12745D01*
X1115154Y12747D01*
X1115243Y12745D01*
X1115332Y12739D01*
X1115421Y12729D01*
X1115509Y12716D01*
X1115597Y12699D01*
X1115684Y12677D01*
X1115769Y12652D01*
X1115854Y12624D01*
X1115937Y12591D01*
X1116019Y12555D01*
X1116099Y12516D01*
X1116177Y12473D01*
X1116253Y12427D01*
X1116328Y12377D01*
X1116400Y12324D01*
X1116469Y12268D01*
X1116536Y12209D01*
X1116601Y12148D01*
X1116662Y12083D01*
X1116721Y12016D01*
X1116777Y11947D01*
X1116830Y11875D01*
X1116880Y11800D01*
X1116926Y11724D01*
X1116969Y11646D01*
X1117008Y11566D01*
X1117044Y11484D01*
X1117077Y11401D01*
X1117105Y11316D01*
X1117130Y11231D01*
X1117152Y11144D01*
X1117169Y11056D01*
X1117182Y10968D01*
X1117192Y10879D01*
X1117198Y10790D01*
X1117200Y10701D01*
X1117200Y8655D01*
X1117198Y8543D01*
X1117192Y8432D01*
X1117183Y8320D01*
X1117170Y8209D01*
X1117152Y8099D01*
X1117132Y7989D01*
X1117107Y7880D01*
X1117079Y7772D01*
X1117047Y7665D01*
X1117011Y7559D01*
X1116972Y7454D01*
X1116929Y7351D01*
X1116883Y7249D01*
X1116833Y7149D01*
X1116780Y7050D01*
X1116723Y6954D01*
X1116664Y6859D01*
X1116601Y6767D01*
X1116535Y6677D01*
X1116466Y6589D01*
X1116394Y6503D01*
X1116319Y6420D01*
X1116241Y6340D01*
X1116161Y6262D01*
X1116078Y6187D01*
X1115992Y6115D01*
X1115904Y6046D01*
X1115814Y5980D01*
X1115722Y5917D01*
X1115627Y5858D01*
X1115531Y5801D01*
X1115432Y5748D01*
X1115332Y5698D01*
X1115230Y5652D01*
X1115127Y5609D01*
X1115022Y5570D01*
X1114916Y5534D01*
X1114809Y5502D01*
X1114701Y5474D01*
X1114592Y5449D01*
X1114482Y5429D01*
X1114372Y5411D01*
X1114261Y5398D01*
X1114149Y5389D01*
X1114038Y5383D01*
X1113926Y5381D01*
X1120423Y9064D02*
X1120425Y9217D01*
X1120431Y9370D01*
X1120440Y9522D01*
X1120454Y9675D01*
X1120471Y9827D01*
X1120492Y9978D01*
X1120517Y10129D01*
X1120546Y10279D01*
X1120578Y10429D01*
X1120615Y10577D01*
X1120655Y10725D01*
X1120698Y10872D01*
X1120746Y11017D01*
X1120797Y11161D01*
X1120851Y11304D01*
X1120910Y11446D01*
X1120971Y11585D01*
X1121037Y11724D01*
X1121063Y11794D01*
X1121093Y11864D01*
X1121126Y11931D01*
X1121162Y11997D01*
X1121201Y12061D01*
X1121244Y12123D01*
X1121290Y12182D01*
X1121338Y12240D01*
X1121389Y12294D01*
X1121443Y12347D01*
X1121500Y12396D01*
X1121559Y12443D01*
X1121620Y12486D01*
X1121683Y12527D01*
X1121748Y12564D01*
X1121815Y12599D01*
X1121884Y12629D01*
X1121954Y12657D01*
X1122025Y12680D01*
X1122097Y12701D01*
X1122170Y12717D01*
X1122244Y12730D01*
X1122319Y12740D01*
X1122394Y12745D01*
X1122469Y12747D01*
X1122544Y12745D01*
X1122619Y12740D01*
X1122694Y12730D01*
X1122768Y12717D01*
X1122841Y12701D01*
X1122913Y12680D01*
X1122984Y12657D01*
X1123054Y12629D01*
X1123123Y12599D01*
X1123190Y12564D01*
X1123255Y12527D01*
X1123318Y12486D01*
X1123379Y12443D01*
X1123438Y12396D01*
X1123495Y12347D01*
X1123549Y12294D01*
X1123600Y12240D01*
X1123649Y12182D01*
X1123694Y12123D01*
X1123737Y12061D01*
X1123776Y11997D01*
X1123813Y11931D01*
X1123845Y11863D01*
X1123875Y11794D01*
X1123901Y11724D01*
X1123966Y11586D01*
X1124028Y11446D01*
X1124086Y11304D01*
X1124141Y11161D01*
X1124192Y11017D01*
X1124240Y10872D01*
X1124283Y10725D01*
X1124323Y10578D01*
X1124360Y10429D01*
X1124392Y10279D01*
X1124421Y10129D01*
X1124446Y9978D01*
X1124467Y9827D01*
X1124484Y9675D01*
X1124498Y9522D01*
X1124507Y9370D01*
X1124513Y9217D01*
X1124515Y9064D01*
X1120422Y9064D02*
X1120424Y8911D01*
X1120430Y8758D01*
X1120439Y8605D01*
X1120453Y8453D01*
X1120470Y8301D01*
X1120491Y8150D01*
X1120516Y7999D01*
X1120545Y7848D01*
X1120577Y7699D01*
X1120614Y7550D01*
X1120654Y7403D01*
X1120697Y7256D01*
X1120745Y7111D01*
X1120796Y6966D01*
X1120851Y6824D01*
X1120909Y6682D01*
X1120971Y6542D01*
X1121036Y6404D01*
X1121037Y6404D02*
X1121063Y6333D01*
X1121093Y6264D01*
X1121126Y6197D01*
X1121162Y6131D01*
X1121201Y6067D01*
X1121244Y6005D01*
X1121290Y5946D01*
X1121338Y5888D01*
X1121389Y5834D01*
X1121443Y5781D01*
X1121500Y5732D01*
X1121559Y5685D01*
X1121620Y5642D01*
X1121683Y5601D01*
X1121748Y5564D01*
X1121815Y5529D01*
X1121884Y5499D01*
X1121954Y5471D01*
X1122025Y5448D01*
X1122097Y5427D01*
X1122170Y5411D01*
X1122244Y5398D01*
X1122319Y5388D01*
X1122394Y5383D01*
X1122469Y5381D01*
X1123901Y6404D02*
X1123966Y6542D01*
X1124028Y6682D01*
X1124086Y6824D01*
X1124141Y6967D01*
X1124192Y7111D01*
X1124240Y7256D01*
X1124283Y7403D01*
X1124323Y7551D01*
X1124360Y7699D01*
X1124392Y7849D01*
X1124421Y7999D01*
X1124446Y8150D01*
X1124467Y8301D01*
X1124484Y8453D01*
X1124498Y8606D01*
X1124507Y8758D01*
X1124513Y8911D01*
X1124515Y9064D01*
X1123901Y6404D02*
X1123875Y6334D01*
X1123845Y6264D01*
X1123813Y6197D01*
X1123776Y6131D01*
X1123737Y6067D01*
X1123694Y6005D01*
X1123648Y5946D01*
X1123600Y5888D01*
X1123549Y5834D01*
X1123495Y5781D01*
X1123438Y5732D01*
X1123379Y5685D01*
X1123318Y5642D01*
X1123255Y5601D01*
X1123190Y5564D01*
X1123123Y5529D01*
X1123054Y5499D01*
X1122984Y5471D01*
X1122913Y5448D01*
X1122841Y5427D01*
X1122768Y5411D01*
X1122694Y5398D01*
X1122619Y5388D01*
X1122544Y5383D01*
X1122469Y5381D01*
X1120832Y7018D02*
X1124106Y11110D01*
X1127738Y11929D02*
X1127738Y12747D01*
X1131830Y12747D01*
X1129784Y5381D01*
X1135053Y7427D02*
X1135055Y7516D01*
X1135061Y7605D01*
X1135071Y7694D01*
X1135084Y7782D01*
X1135101Y7870D01*
X1135123Y7957D01*
X1135148Y8042D01*
X1135176Y8127D01*
X1135209Y8210D01*
X1135245Y8292D01*
X1135284Y8372D01*
X1135327Y8450D01*
X1135373Y8526D01*
X1135423Y8601D01*
X1135476Y8673D01*
X1135532Y8742D01*
X1135591Y8809D01*
X1135652Y8874D01*
X1135717Y8935D01*
X1135784Y8994D01*
X1135853Y9050D01*
X1135925Y9103D01*
X1136000Y9153D01*
X1136076Y9199D01*
X1136154Y9242D01*
X1136234Y9281D01*
X1136316Y9317D01*
X1136399Y9350D01*
X1136484Y9378D01*
X1136569Y9403D01*
X1136656Y9425D01*
X1136744Y9442D01*
X1136832Y9455D01*
X1136921Y9465D01*
X1137010Y9471D01*
X1137099Y9473D01*
X1137188Y9471D01*
X1137277Y9465D01*
X1137366Y9455D01*
X1137454Y9442D01*
X1137542Y9425D01*
X1137629Y9403D01*
X1137714Y9378D01*
X1137799Y9350D01*
X1137882Y9317D01*
X1137964Y9281D01*
X1138044Y9242D01*
X1138122Y9199D01*
X1138198Y9153D01*
X1138273Y9103D01*
X1138345Y9050D01*
X1138414Y8994D01*
X1138481Y8935D01*
X1138546Y8874D01*
X1138607Y8809D01*
X1138666Y8742D01*
X1138722Y8673D01*
X1138775Y8601D01*
X1138825Y8526D01*
X1138871Y8450D01*
X1138914Y8372D01*
X1138953Y8292D01*
X1138989Y8210D01*
X1139022Y8127D01*
X1139050Y8042D01*
X1139075Y7957D01*
X1139097Y7870D01*
X1139114Y7782D01*
X1139127Y7694D01*
X1139137Y7605D01*
X1139143Y7516D01*
X1139145Y7427D01*
X1139143Y7338D01*
X1139137Y7249D01*
X1139127Y7160D01*
X1139114Y7072D01*
X1139097Y6984D01*
X1139075Y6897D01*
X1139050Y6812D01*
X1139022Y6727D01*
X1138989Y6644D01*
X1138953Y6562D01*
X1138914Y6482D01*
X1138871Y6404D01*
X1138825Y6328D01*
X1138775Y6253D01*
X1138722Y6181D01*
X1138666Y6112D01*
X1138607Y6045D01*
X1138546Y5980D01*
X1138481Y5919D01*
X1138414Y5860D01*
X1138345Y5804D01*
X1138273Y5751D01*
X1138198Y5701D01*
X1138122Y5655D01*
X1138044Y5612D01*
X1137964Y5573D01*
X1137882Y5537D01*
X1137799Y5504D01*
X1137714Y5476D01*
X1137629Y5451D01*
X1137542Y5429D01*
X1137454Y5412D01*
X1137366Y5399D01*
X1137277Y5389D01*
X1137188Y5383D01*
X1137099Y5381D01*
X1137010Y5383D01*
X1136921Y5389D01*
X1136832Y5399D01*
X1136744Y5412D01*
X1136656Y5429D01*
X1136569Y5451D01*
X1136484Y5476D01*
X1136399Y5504D01*
X1136316Y5537D01*
X1136234Y5573D01*
X1136154Y5612D01*
X1136076Y5655D01*
X1136000Y5701D01*
X1135925Y5751D01*
X1135853Y5804D01*
X1135784Y5860D01*
X1135717Y5919D01*
X1135652Y5980D01*
X1135591Y6045D01*
X1135532Y6112D01*
X1135476Y6181D01*
X1135423Y6253D01*
X1135373Y6328D01*
X1135327Y6404D01*
X1135284Y6482D01*
X1135245Y6562D01*
X1135209Y6644D01*
X1135176Y6727D01*
X1135148Y6812D01*
X1135123Y6897D01*
X1135101Y6984D01*
X1135084Y7072D01*
X1135071Y7160D01*
X1135061Y7249D01*
X1135055Y7338D01*
X1135053Y7427D01*
X1135462Y11110D02*
X1135464Y11189D01*
X1135470Y11268D01*
X1135479Y11347D01*
X1135492Y11425D01*
X1135510Y11502D01*
X1135530Y11578D01*
X1135555Y11653D01*
X1135583Y11727D01*
X1135614Y11800D01*
X1135650Y11871D01*
X1135688Y11940D01*
X1135730Y12007D01*
X1135775Y12072D01*
X1135823Y12135D01*
X1135874Y12196D01*
X1135928Y12253D01*
X1135984Y12309D01*
X1136043Y12361D01*
X1136105Y12411D01*
X1136169Y12457D01*
X1136235Y12501D01*
X1136303Y12541D01*
X1136373Y12577D01*
X1136445Y12611D01*
X1136519Y12641D01*
X1136593Y12667D01*
X1136669Y12690D01*
X1136746Y12708D01*
X1136823Y12724D01*
X1136902Y12735D01*
X1136980Y12743D01*
X1137059Y12747D01*
X1137139Y12747D01*
X1137218Y12743D01*
X1137296Y12735D01*
X1137375Y12724D01*
X1137452Y12708D01*
X1137529Y12690D01*
X1137605Y12667D01*
X1137679Y12641D01*
X1137753Y12611D01*
X1137825Y12577D01*
X1137895Y12541D01*
X1137963Y12501D01*
X1138029Y12457D01*
X1138093Y12411D01*
X1138155Y12361D01*
X1138214Y12309D01*
X1138270Y12253D01*
X1138324Y12196D01*
X1138375Y12135D01*
X1138423Y12072D01*
X1138468Y12007D01*
X1138510Y11940D01*
X1138548Y11871D01*
X1138584Y11800D01*
X1138615Y11727D01*
X1138643Y11653D01*
X1138668Y11578D01*
X1138688Y11502D01*
X1138706Y11425D01*
X1138719Y11347D01*
X1138728Y11268D01*
X1138734Y11189D01*
X1138736Y11110D01*
X1138734Y11031D01*
X1138728Y10952D01*
X1138719Y10873D01*
X1138706Y10795D01*
X1138688Y10718D01*
X1138668Y10642D01*
X1138643Y10567D01*
X1138615Y10493D01*
X1138584Y10420D01*
X1138548Y10349D01*
X1138510Y10280D01*
X1138468Y10213D01*
X1138423Y10148D01*
X1138375Y10085D01*
X1138324Y10024D01*
X1138270Y9967D01*
X1138214Y9911D01*
X1138155Y9859D01*
X1138093Y9809D01*
X1138029Y9763D01*
X1137963Y9719D01*
X1137895Y9679D01*
X1137825Y9643D01*
X1137753Y9609D01*
X1137679Y9579D01*
X1137605Y9553D01*
X1137529Y9530D01*
X1137452Y9512D01*
X1137375Y9496D01*
X1137296Y9485D01*
X1137218Y9477D01*
X1137139Y9473D01*
X1137059Y9473D01*
X1136980Y9477D01*
X1136902Y9485D01*
X1136823Y9496D01*
X1136746Y9512D01*
X1136669Y9530D01*
X1136593Y9553D01*
X1136519Y9579D01*
X1136445Y9609D01*
X1136373Y9643D01*
X1136303Y9679D01*
X1136235Y9719D01*
X1136169Y9763D01*
X1136105Y9809D01*
X1136043Y9859D01*
X1135984Y9911D01*
X1135928Y9967D01*
X1135874Y10024D01*
X1135823Y10085D01*
X1135775Y10148D01*
X1135730Y10213D01*
X1135688Y10280D01*
X1135650Y10349D01*
X1135614Y10420D01*
X1135583Y10493D01*
X1135555Y10567D01*
X1135530Y10642D01*
X1135510Y10718D01*
X1135492Y10795D01*
X1135479Y10873D01*
X1135470Y10952D01*
X1135464Y11031D01*
X1135462Y11110D01*
X1142046Y4563D02*
X1145320Y13565D01*
X1148386Y10292D02*
X1148386Y5381D01*
X1148386Y10292D02*
X1150432Y10292D01*
X1150501Y10290D01*
X1150569Y10284D01*
X1150638Y10275D01*
X1150705Y10261D01*
X1150772Y10244D01*
X1150838Y10223D01*
X1150902Y10199D01*
X1150965Y10170D01*
X1151026Y10139D01*
X1151085Y10104D01*
X1151143Y10066D01*
X1151198Y10024D01*
X1151250Y9980D01*
X1151300Y9932D01*
X1151348Y9882D01*
X1151392Y9830D01*
X1151434Y9775D01*
X1151472Y9717D01*
X1151507Y9658D01*
X1151538Y9597D01*
X1151567Y9534D01*
X1151591Y9470D01*
X1151612Y9404D01*
X1151629Y9337D01*
X1151643Y9270D01*
X1151652Y9201D01*
X1151658Y9133D01*
X1151660Y9064D01*
X1151660Y5381D01*
X1155584Y8246D02*
X1157630Y7427D01*
X1155584Y8246D02*
X1155525Y8271D01*
X1155468Y8300D01*
X1155413Y8333D01*
X1155360Y8369D01*
X1155309Y8407D01*
X1155261Y8449D01*
X1155215Y8494D01*
X1155172Y8541D01*
X1155132Y8591D01*
X1155095Y8643D01*
X1155061Y8698D01*
X1155030Y8754D01*
X1155003Y8812D01*
X1154980Y8872D01*
X1154960Y8932D01*
X1154944Y8994D01*
X1154931Y9057D01*
X1154923Y9121D01*
X1154918Y9184D01*
X1154917Y9248D01*
X1154920Y9312D01*
X1154927Y9376D01*
X1154938Y9439D01*
X1154952Y9501D01*
X1154970Y9563D01*
X1154992Y9623D01*
X1155017Y9682D01*
X1155046Y9739D01*
X1155079Y9794D01*
X1155114Y9847D01*
X1155153Y9898D01*
X1155195Y9947D01*
X1155239Y9993D01*
X1155287Y10036D01*
X1155336Y10076D01*
X1155389Y10113D01*
X1155443Y10147D01*
X1155499Y10178D01*
X1155557Y10205D01*
X1155616Y10229D01*
X1155677Y10248D01*
X1155739Y10265D01*
X1155802Y10277D01*
X1155865Y10286D01*
X1155929Y10291D01*
X1155993Y10292D01*
X1155992Y10292D02*
X1156128Y10288D01*
X1156263Y10280D01*
X1156399Y10268D01*
X1156533Y10252D01*
X1156668Y10232D01*
X1156801Y10209D01*
X1156934Y10181D01*
X1157066Y10150D01*
X1157197Y10115D01*
X1157327Y10076D01*
X1157456Y10033D01*
X1157583Y9986D01*
X1157709Y9936D01*
X1157834Y9882D01*
X1157630Y7427D02*
X1157689Y7402D01*
X1157746Y7373D01*
X1157801Y7340D01*
X1157854Y7304D01*
X1157905Y7266D01*
X1157953Y7224D01*
X1157999Y7179D01*
X1158042Y7132D01*
X1158082Y7082D01*
X1158119Y7030D01*
X1158153Y6975D01*
X1158184Y6919D01*
X1158211Y6861D01*
X1158234Y6801D01*
X1158254Y6741D01*
X1158270Y6679D01*
X1158283Y6616D01*
X1158291Y6552D01*
X1158296Y6489D01*
X1158297Y6425D01*
X1158294Y6361D01*
X1158287Y6297D01*
X1158276Y6234D01*
X1158262Y6172D01*
X1158244Y6110D01*
X1158222Y6050D01*
X1158197Y5991D01*
X1158168Y5934D01*
X1158135Y5879D01*
X1158100Y5826D01*
X1158061Y5775D01*
X1158019Y5726D01*
X1157975Y5680D01*
X1157927Y5637D01*
X1157878Y5597D01*
X1157825Y5560D01*
X1157771Y5526D01*
X1157715Y5495D01*
X1157657Y5468D01*
X1157598Y5444D01*
X1157537Y5425D01*
X1157475Y5408D01*
X1157412Y5396D01*
X1157349Y5387D01*
X1157285Y5382D01*
X1157221Y5381D01*
X1157057Y5385D01*
X1156893Y5393D01*
X1156729Y5405D01*
X1156566Y5421D01*
X1156403Y5441D01*
X1156240Y5464D01*
X1156079Y5492D01*
X1155917Y5523D01*
X1155757Y5558D01*
X1155598Y5597D01*
X1155439Y5640D01*
X1155282Y5686D01*
X1155125Y5736D01*
X1154970Y5790D01*
X1162546Y5381D02*
X1164183Y5381D01*
X1162546Y5381D02*
X1162477Y5383D01*
X1162409Y5389D01*
X1162340Y5398D01*
X1162273Y5412D01*
X1162206Y5429D01*
X1162140Y5450D01*
X1162076Y5474D01*
X1162013Y5503D01*
X1161952Y5534D01*
X1161893Y5569D01*
X1161835Y5607D01*
X1161780Y5649D01*
X1161728Y5693D01*
X1161678Y5741D01*
X1161630Y5791D01*
X1161586Y5843D01*
X1161544Y5898D01*
X1161506Y5956D01*
X1161471Y6015D01*
X1161440Y6076D01*
X1161411Y6139D01*
X1161387Y6203D01*
X1161366Y6269D01*
X1161349Y6336D01*
X1161335Y6403D01*
X1161326Y6472D01*
X1161320Y6540D01*
X1161318Y6609D01*
X1161319Y6609D02*
X1161319Y9064D01*
X1161318Y9064D02*
X1161320Y9133D01*
X1161326Y9201D01*
X1161335Y9270D01*
X1161349Y9337D01*
X1161366Y9404D01*
X1161387Y9470D01*
X1161411Y9534D01*
X1161440Y9597D01*
X1161471Y9658D01*
X1161506Y9717D01*
X1161544Y9775D01*
X1161586Y9830D01*
X1161630Y9882D01*
X1161678Y9932D01*
X1161728Y9980D01*
X1161780Y10024D01*
X1161835Y10066D01*
X1161893Y10104D01*
X1161952Y10139D01*
X1162013Y10170D01*
X1162076Y10199D01*
X1162140Y10223D01*
X1162206Y10244D01*
X1162273Y10261D01*
X1162340Y10275D01*
X1162409Y10284D01*
X1162477Y10290D01*
X1162546Y10292D01*
X1164183Y10292D01*
X1168309Y8246D02*
X1170151Y8246D01*
X1168309Y8245D02*
X1168234Y8243D01*
X1168159Y8237D01*
X1168085Y8227D01*
X1168011Y8214D01*
X1167938Y8196D01*
X1167866Y8175D01*
X1167796Y8150D01*
X1167727Y8121D01*
X1167659Y8089D01*
X1167593Y8053D01*
X1167529Y8014D01*
X1167467Y7972D01*
X1167408Y7926D01*
X1167351Y7877D01*
X1167296Y7826D01*
X1167245Y7771D01*
X1167196Y7714D01*
X1167150Y7655D01*
X1167108Y7593D01*
X1167069Y7529D01*
X1167033Y7463D01*
X1167001Y7395D01*
X1166972Y7326D01*
X1166947Y7256D01*
X1166926Y7184D01*
X1166908Y7111D01*
X1166895Y7037D01*
X1166885Y6963D01*
X1166879Y6888D01*
X1166877Y6813D01*
X1166879Y6738D01*
X1166885Y6663D01*
X1166895Y6589D01*
X1166908Y6515D01*
X1166926Y6442D01*
X1166947Y6370D01*
X1166972Y6300D01*
X1167001Y6231D01*
X1167033Y6163D01*
X1167069Y6097D01*
X1167108Y6033D01*
X1167150Y5971D01*
X1167196Y5912D01*
X1167245Y5855D01*
X1167296Y5800D01*
X1167351Y5749D01*
X1167408Y5700D01*
X1167467Y5654D01*
X1167529Y5612D01*
X1167593Y5573D01*
X1167659Y5537D01*
X1167727Y5505D01*
X1167796Y5476D01*
X1167866Y5451D01*
X1167938Y5430D01*
X1168011Y5412D01*
X1168085Y5399D01*
X1168159Y5389D01*
X1168234Y5383D01*
X1168309Y5381D01*
X1170151Y5381D01*
X1170151Y9064D01*
X1170149Y9133D01*
X1170143Y9201D01*
X1170134Y9270D01*
X1170120Y9337D01*
X1170103Y9404D01*
X1170082Y9470D01*
X1170058Y9534D01*
X1170029Y9597D01*
X1169998Y9658D01*
X1169963Y9717D01*
X1169925Y9775D01*
X1169883Y9830D01*
X1169839Y9882D01*
X1169791Y9932D01*
X1169741Y9980D01*
X1169689Y10024D01*
X1169634Y10066D01*
X1169576Y10104D01*
X1169517Y10139D01*
X1169456Y10170D01*
X1169393Y10199D01*
X1169329Y10223D01*
X1169263Y10244D01*
X1169196Y10261D01*
X1169129Y10275D01*
X1169060Y10284D01*
X1168992Y10290D01*
X1168923Y10292D01*
X1167286Y10292D01*
X1173584Y12747D02*
X1173584Y6609D01*
X1173586Y6540D01*
X1173592Y6472D01*
X1173601Y6403D01*
X1173615Y6336D01*
X1173632Y6269D01*
X1173653Y6203D01*
X1173677Y6139D01*
X1173706Y6076D01*
X1173737Y6015D01*
X1173772Y5956D01*
X1173810Y5898D01*
X1173852Y5843D01*
X1173896Y5791D01*
X1173944Y5741D01*
X1173994Y5693D01*
X1174046Y5649D01*
X1174101Y5607D01*
X1174159Y5569D01*
X1174218Y5534D01*
X1174279Y5503D01*
X1174342Y5474D01*
X1174406Y5450D01*
X1174472Y5429D01*
X1174539Y5412D01*
X1174606Y5398D01*
X1174675Y5389D01*
X1174743Y5383D01*
X1174812Y5381D01*
X1178631Y5381D02*
X1180677Y5381D01*
X1178631Y5381D02*
X1178562Y5383D01*
X1178494Y5389D01*
X1178425Y5398D01*
X1178358Y5412D01*
X1178291Y5429D01*
X1178225Y5450D01*
X1178161Y5474D01*
X1178098Y5503D01*
X1178037Y5534D01*
X1177978Y5569D01*
X1177920Y5607D01*
X1177865Y5649D01*
X1177813Y5693D01*
X1177763Y5741D01*
X1177715Y5791D01*
X1177671Y5843D01*
X1177629Y5898D01*
X1177591Y5956D01*
X1177556Y6015D01*
X1177525Y6076D01*
X1177496Y6139D01*
X1177472Y6203D01*
X1177451Y6269D01*
X1177434Y6336D01*
X1177420Y6403D01*
X1177411Y6472D01*
X1177405Y6540D01*
X1177403Y6609D01*
X1177403Y8655D01*
X1177405Y8734D01*
X1177411Y8813D01*
X1177420Y8892D01*
X1177433Y8970D01*
X1177451Y9047D01*
X1177471Y9123D01*
X1177496Y9198D01*
X1177524Y9272D01*
X1177555Y9345D01*
X1177591Y9416D01*
X1177629Y9485D01*
X1177671Y9552D01*
X1177716Y9617D01*
X1177764Y9680D01*
X1177815Y9741D01*
X1177869Y9798D01*
X1177925Y9854D01*
X1177984Y9906D01*
X1178046Y9956D01*
X1178110Y10002D01*
X1178176Y10046D01*
X1178244Y10086D01*
X1178314Y10122D01*
X1178386Y10156D01*
X1178460Y10186D01*
X1178534Y10212D01*
X1178610Y10235D01*
X1178687Y10253D01*
X1178764Y10269D01*
X1178843Y10280D01*
X1178921Y10288D01*
X1179000Y10292D01*
X1179080Y10292D01*
X1179159Y10288D01*
X1179237Y10280D01*
X1179316Y10269D01*
X1179393Y10253D01*
X1179470Y10235D01*
X1179546Y10212D01*
X1179620Y10186D01*
X1179694Y10156D01*
X1179766Y10122D01*
X1179836Y10086D01*
X1179904Y10046D01*
X1179970Y10002D01*
X1180034Y9956D01*
X1180096Y9906D01*
X1180155Y9854D01*
X1180211Y9798D01*
X1180265Y9741D01*
X1180316Y9680D01*
X1180364Y9617D01*
X1180409Y9552D01*
X1180451Y9485D01*
X1180489Y9416D01*
X1180525Y9345D01*
X1180556Y9272D01*
X1180584Y9198D01*
X1180609Y9123D01*
X1180629Y9047D01*
X1180647Y8970D01*
X1180660Y8892D01*
X1180669Y8813D01*
X1180675Y8734D01*
X1180677Y8655D01*
X1180677Y7836D01*
X1177403Y7836D01*
X1183900Y8246D02*
X1188810Y8246D01*
X1193425Y8246D02*
X1195266Y8246D01*
X1193425Y8245D02*
X1193350Y8243D01*
X1193275Y8237D01*
X1193201Y8227D01*
X1193127Y8214D01*
X1193054Y8196D01*
X1192982Y8175D01*
X1192912Y8150D01*
X1192843Y8121D01*
X1192775Y8089D01*
X1192709Y8053D01*
X1192645Y8014D01*
X1192583Y7972D01*
X1192524Y7926D01*
X1192467Y7877D01*
X1192412Y7826D01*
X1192361Y7771D01*
X1192312Y7714D01*
X1192266Y7655D01*
X1192224Y7593D01*
X1192185Y7529D01*
X1192149Y7463D01*
X1192117Y7395D01*
X1192088Y7326D01*
X1192063Y7256D01*
X1192042Y7184D01*
X1192024Y7111D01*
X1192011Y7037D01*
X1192001Y6963D01*
X1191995Y6888D01*
X1191993Y6813D01*
X1191995Y6738D01*
X1192001Y6663D01*
X1192011Y6589D01*
X1192024Y6515D01*
X1192042Y6442D01*
X1192063Y6370D01*
X1192088Y6300D01*
X1192117Y6231D01*
X1192149Y6163D01*
X1192185Y6097D01*
X1192224Y6033D01*
X1192266Y5971D01*
X1192312Y5912D01*
X1192361Y5855D01*
X1192412Y5800D01*
X1192467Y5749D01*
X1192524Y5700D01*
X1192583Y5654D01*
X1192645Y5612D01*
X1192709Y5573D01*
X1192775Y5537D01*
X1192843Y5505D01*
X1192912Y5476D01*
X1192982Y5451D01*
X1193054Y5430D01*
X1193127Y5412D01*
X1193201Y5399D01*
X1193275Y5389D01*
X1193350Y5383D01*
X1193425Y5381D01*
X1195266Y5381D01*
X1195266Y9064D01*
X1195264Y9133D01*
X1195258Y9201D01*
X1195249Y9270D01*
X1195235Y9337D01*
X1195218Y9404D01*
X1195197Y9470D01*
X1195173Y9534D01*
X1195144Y9597D01*
X1195113Y9658D01*
X1195078Y9717D01*
X1195040Y9775D01*
X1194998Y9830D01*
X1194954Y9882D01*
X1194906Y9932D01*
X1194856Y9980D01*
X1194804Y10024D01*
X1194749Y10066D01*
X1194691Y10104D01*
X1194632Y10139D01*
X1194571Y10170D01*
X1194508Y10199D01*
X1194444Y10223D01*
X1194378Y10244D01*
X1194311Y10261D01*
X1194244Y10275D01*
X1194175Y10284D01*
X1194107Y10290D01*
X1194038Y10292D01*
X1192402Y10292D01*
X1201850Y12747D02*
X1201850Y5381D01*
X1199804Y5381D01*
X1199735Y5383D01*
X1199667Y5389D01*
X1199598Y5398D01*
X1199531Y5412D01*
X1199464Y5429D01*
X1199398Y5450D01*
X1199334Y5474D01*
X1199271Y5503D01*
X1199210Y5534D01*
X1199151Y5569D01*
X1199093Y5607D01*
X1199038Y5649D01*
X1198986Y5693D01*
X1198936Y5741D01*
X1198888Y5791D01*
X1198844Y5843D01*
X1198802Y5898D01*
X1198764Y5956D01*
X1198729Y6015D01*
X1198698Y6076D01*
X1198669Y6139D01*
X1198645Y6203D01*
X1198624Y6269D01*
X1198607Y6336D01*
X1198593Y6403D01*
X1198584Y6472D01*
X1198578Y6540D01*
X1198576Y6609D01*
X1198576Y9064D01*
X1198578Y9133D01*
X1198584Y9201D01*
X1198593Y9270D01*
X1198607Y9337D01*
X1198624Y9404D01*
X1198645Y9470D01*
X1198669Y9534D01*
X1198698Y9597D01*
X1198729Y9658D01*
X1198764Y9717D01*
X1198802Y9775D01*
X1198844Y9830D01*
X1198888Y9882D01*
X1198936Y9932D01*
X1198986Y9980D01*
X1199038Y10024D01*
X1199093Y10066D01*
X1199151Y10104D01*
X1199210Y10139D01*
X1199271Y10170D01*
X1199334Y10199D01*
X1199398Y10223D01*
X1199464Y10244D01*
X1199531Y10261D01*
X1199598Y10275D01*
X1199667Y10284D01*
X1199735Y10290D01*
X1199804Y10292D01*
X1201850Y10292D01*
X1206592Y8246D02*
X1208433Y8246D01*
X1206592Y8245D02*
X1206517Y8243D01*
X1206442Y8237D01*
X1206368Y8227D01*
X1206294Y8214D01*
X1206221Y8196D01*
X1206149Y8175D01*
X1206079Y8150D01*
X1206010Y8121D01*
X1205942Y8089D01*
X1205876Y8053D01*
X1205812Y8014D01*
X1205750Y7972D01*
X1205691Y7926D01*
X1205634Y7877D01*
X1205579Y7826D01*
X1205528Y7771D01*
X1205479Y7714D01*
X1205433Y7655D01*
X1205391Y7593D01*
X1205352Y7529D01*
X1205316Y7463D01*
X1205284Y7395D01*
X1205255Y7326D01*
X1205230Y7256D01*
X1205209Y7184D01*
X1205191Y7111D01*
X1205178Y7037D01*
X1205168Y6963D01*
X1205162Y6888D01*
X1205160Y6813D01*
X1205162Y6738D01*
X1205168Y6663D01*
X1205178Y6589D01*
X1205191Y6515D01*
X1205209Y6442D01*
X1205230Y6370D01*
X1205255Y6300D01*
X1205284Y6231D01*
X1205316Y6163D01*
X1205352Y6097D01*
X1205391Y6033D01*
X1205433Y5971D01*
X1205479Y5912D01*
X1205528Y5855D01*
X1205579Y5800D01*
X1205634Y5749D01*
X1205691Y5700D01*
X1205750Y5654D01*
X1205812Y5612D01*
X1205876Y5573D01*
X1205942Y5537D01*
X1206010Y5505D01*
X1206079Y5476D01*
X1206149Y5451D01*
X1206221Y5430D01*
X1206294Y5412D01*
X1206368Y5399D01*
X1206442Y5389D01*
X1206517Y5383D01*
X1206592Y5381D01*
X1208433Y5381D01*
X1208433Y9064D01*
X1208434Y9064D02*
X1208432Y9133D01*
X1208426Y9201D01*
X1208417Y9270D01*
X1208403Y9337D01*
X1208386Y9404D01*
X1208365Y9470D01*
X1208341Y9534D01*
X1208312Y9597D01*
X1208281Y9658D01*
X1208246Y9717D01*
X1208208Y9775D01*
X1208166Y9830D01*
X1208122Y9882D01*
X1208074Y9932D01*
X1208024Y9980D01*
X1207972Y10024D01*
X1207917Y10066D01*
X1207859Y10104D01*
X1207800Y10139D01*
X1207739Y10170D01*
X1207676Y10199D01*
X1207612Y10223D01*
X1207546Y10244D01*
X1207479Y10261D01*
X1207412Y10275D01*
X1207343Y10284D01*
X1207275Y10290D01*
X1207206Y10292D01*
X1205569Y10292D01*
X1212069Y10292D02*
X1212069Y2926D01*
X1212069Y10292D02*
X1214115Y10292D01*
X1214184Y10290D01*
X1214252Y10284D01*
X1214321Y10275D01*
X1214388Y10261D01*
X1214455Y10244D01*
X1214521Y10223D01*
X1214585Y10199D01*
X1214648Y10170D01*
X1214709Y10139D01*
X1214768Y10104D01*
X1214826Y10066D01*
X1214881Y10024D01*
X1214933Y9980D01*
X1214983Y9932D01*
X1215031Y9882D01*
X1215075Y9830D01*
X1215117Y9775D01*
X1215155Y9717D01*
X1215190Y9658D01*
X1215221Y9597D01*
X1215250Y9534D01*
X1215274Y9470D01*
X1215295Y9404D01*
X1215312Y9337D01*
X1215326Y9270D01*
X1215335Y9201D01*
X1215341Y9133D01*
X1215343Y9064D01*
X1215343Y6609D01*
X1215341Y6540D01*
X1215335Y6472D01*
X1215326Y6403D01*
X1215312Y6336D01*
X1215295Y6269D01*
X1215274Y6203D01*
X1215250Y6139D01*
X1215221Y6076D01*
X1215190Y6015D01*
X1215155Y5956D01*
X1215117Y5898D01*
X1215075Y5843D01*
X1215031Y5791D01*
X1214983Y5741D01*
X1214933Y5693D01*
X1214881Y5649D01*
X1214826Y5608D01*
X1214768Y5569D01*
X1214709Y5534D01*
X1214648Y5503D01*
X1214585Y5474D01*
X1214521Y5450D01*
X1214455Y5429D01*
X1214388Y5412D01*
X1214321Y5398D01*
X1214253Y5389D01*
X1214184Y5383D01*
X1214115Y5381D01*
X1212069Y5381D01*
X1217738Y10292D02*
X1220193Y10292D01*
X1218556Y12747D02*
X1218556Y6609D01*
X1218558Y6540D01*
X1218564Y6472D01*
X1218573Y6403D01*
X1218587Y6336D01*
X1218604Y6269D01*
X1218625Y6203D01*
X1218649Y6139D01*
X1218678Y6076D01*
X1218709Y6015D01*
X1218744Y5956D01*
X1218782Y5898D01*
X1218824Y5843D01*
X1218868Y5791D01*
X1218916Y5741D01*
X1218966Y5693D01*
X1219018Y5649D01*
X1219073Y5607D01*
X1219131Y5569D01*
X1219190Y5534D01*
X1219251Y5503D01*
X1219314Y5474D01*
X1219378Y5450D01*
X1219444Y5429D01*
X1219511Y5412D01*
X1219578Y5398D01*
X1219647Y5389D01*
X1219715Y5383D01*
X1219784Y5381D01*
X1220193Y5381D01*
X1224228Y5381D02*
X1226275Y5381D01*
X1224228Y5381D02*
X1224159Y5383D01*
X1224091Y5389D01*
X1224022Y5398D01*
X1223955Y5412D01*
X1223888Y5429D01*
X1223822Y5450D01*
X1223758Y5474D01*
X1223695Y5503D01*
X1223634Y5534D01*
X1223575Y5569D01*
X1223517Y5607D01*
X1223462Y5649D01*
X1223410Y5693D01*
X1223360Y5741D01*
X1223312Y5791D01*
X1223268Y5843D01*
X1223226Y5898D01*
X1223188Y5956D01*
X1223153Y6015D01*
X1223122Y6076D01*
X1223093Y6139D01*
X1223069Y6203D01*
X1223048Y6269D01*
X1223031Y6336D01*
X1223017Y6403D01*
X1223008Y6472D01*
X1223002Y6540D01*
X1223000Y6609D01*
X1223001Y6609D02*
X1223001Y8655D01*
X1223003Y8734D01*
X1223009Y8813D01*
X1223018Y8892D01*
X1223031Y8970D01*
X1223049Y9047D01*
X1223069Y9123D01*
X1223094Y9198D01*
X1223122Y9272D01*
X1223153Y9345D01*
X1223189Y9416D01*
X1223227Y9485D01*
X1223269Y9552D01*
X1223314Y9617D01*
X1223362Y9680D01*
X1223413Y9741D01*
X1223467Y9798D01*
X1223523Y9854D01*
X1223582Y9906D01*
X1223644Y9956D01*
X1223708Y10002D01*
X1223774Y10046D01*
X1223842Y10086D01*
X1223912Y10122D01*
X1223984Y10156D01*
X1224058Y10186D01*
X1224132Y10212D01*
X1224208Y10235D01*
X1224285Y10253D01*
X1224362Y10269D01*
X1224441Y10280D01*
X1224519Y10288D01*
X1224598Y10292D01*
X1224678Y10292D01*
X1224757Y10288D01*
X1224835Y10280D01*
X1224914Y10269D01*
X1224991Y10253D01*
X1225068Y10235D01*
X1225144Y10212D01*
X1225218Y10186D01*
X1225292Y10156D01*
X1225364Y10122D01*
X1225434Y10086D01*
X1225502Y10046D01*
X1225568Y10002D01*
X1225632Y9956D01*
X1225694Y9906D01*
X1225753Y9854D01*
X1225809Y9798D01*
X1225863Y9741D01*
X1225914Y9680D01*
X1225962Y9617D01*
X1226007Y9552D01*
X1226049Y9485D01*
X1226087Y9416D01*
X1226123Y9345D01*
X1226154Y9272D01*
X1226182Y9198D01*
X1226207Y9123D01*
X1226227Y9047D01*
X1226245Y8970D01*
X1226258Y8892D01*
X1226267Y8813D01*
X1226273Y8734D01*
X1226275Y8655D01*
X1226275Y7836D01*
X1223001Y7836D01*
X1229631Y5381D02*
X1229631Y10292D01*
X1232086Y10292D01*
X1232086Y9473D01*
X1234618Y8246D02*
X1239529Y8246D01*
X1245985Y5381D02*
X1245985Y12747D01*
X1245985Y5381D02*
X1243938Y5381D01*
X1243869Y5383D01*
X1243801Y5389D01*
X1243732Y5398D01*
X1243665Y5412D01*
X1243598Y5429D01*
X1243532Y5450D01*
X1243468Y5474D01*
X1243405Y5503D01*
X1243344Y5534D01*
X1243285Y5569D01*
X1243227Y5607D01*
X1243172Y5649D01*
X1243120Y5693D01*
X1243070Y5741D01*
X1243022Y5791D01*
X1242978Y5843D01*
X1242936Y5898D01*
X1242898Y5956D01*
X1242863Y6015D01*
X1242832Y6076D01*
X1242803Y6139D01*
X1242779Y6203D01*
X1242758Y6269D01*
X1242741Y6336D01*
X1242727Y6403D01*
X1242718Y6472D01*
X1242712Y6540D01*
X1242710Y6609D01*
X1242711Y6609D02*
X1242711Y9064D01*
X1242710Y9064D02*
X1242712Y9133D01*
X1242718Y9201D01*
X1242727Y9270D01*
X1242741Y9337D01*
X1242758Y9404D01*
X1242779Y9470D01*
X1242803Y9534D01*
X1242832Y9597D01*
X1242863Y9658D01*
X1242898Y9717D01*
X1242936Y9775D01*
X1242978Y9830D01*
X1243022Y9882D01*
X1243070Y9932D01*
X1243120Y9980D01*
X1243172Y10024D01*
X1243227Y10066D01*
X1243285Y10104D01*
X1243344Y10139D01*
X1243405Y10170D01*
X1243468Y10199D01*
X1243532Y10223D01*
X1243598Y10244D01*
X1243665Y10261D01*
X1243732Y10275D01*
X1243801Y10284D01*
X1243869Y10290D01*
X1243938Y10292D01*
X1245985Y10292D01*
X1250563Y5381D02*
X1252609Y5381D01*
X1250563Y5381D02*
X1250494Y5383D01*
X1250426Y5389D01*
X1250357Y5398D01*
X1250290Y5412D01*
X1250223Y5429D01*
X1250157Y5450D01*
X1250093Y5474D01*
X1250030Y5503D01*
X1249969Y5534D01*
X1249910Y5569D01*
X1249852Y5607D01*
X1249797Y5649D01*
X1249745Y5693D01*
X1249695Y5741D01*
X1249647Y5791D01*
X1249603Y5843D01*
X1249561Y5898D01*
X1249523Y5956D01*
X1249488Y6015D01*
X1249457Y6076D01*
X1249428Y6139D01*
X1249404Y6203D01*
X1249383Y6269D01*
X1249366Y6336D01*
X1249352Y6403D01*
X1249343Y6472D01*
X1249337Y6540D01*
X1249335Y6609D01*
X1249335Y8655D01*
X1249337Y8734D01*
X1249343Y8813D01*
X1249352Y8892D01*
X1249365Y8970D01*
X1249383Y9047D01*
X1249403Y9123D01*
X1249428Y9198D01*
X1249456Y9272D01*
X1249487Y9345D01*
X1249523Y9416D01*
X1249561Y9485D01*
X1249603Y9552D01*
X1249648Y9617D01*
X1249696Y9680D01*
X1249747Y9741D01*
X1249801Y9798D01*
X1249857Y9854D01*
X1249916Y9906D01*
X1249978Y9956D01*
X1250042Y10002D01*
X1250108Y10046D01*
X1250176Y10086D01*
X1250246Y10122D01*
X1250318Y10156D01*
X1250392Y10186D01*
X1250466Y10212D01*
X1250542Y10235D01*
X1250619Y10253D01*
X1250696Y10269D01*
X1250775Y10280D01*
X1250853Y10288D01*
X1250932Y10292D01*
X1251012Y10292D01*
X1251091Y10288D01*
X1251169Y10280D01*
X1251248Y10269D01*
X1251325Y10253D01*
X1251402Y10235D01*
X1251478Y10212D01*
X1251552Y10186D01*
X1251626Y10156D01*
X1251698Y10122D01*
X1251768Y10086D01*
X1251836Y10046D01*
X1251902Y10002D01*
X1251966Y9956D01*
X1252028Y9906D01*
X1252087Y9854D01*
X1252143Y9798D01*
X1252197Y9741D01*
X1252248Y9680D01*
X1252296Y9617D01*
X1252341Y9552D01*
X1252383Y9485D01*
X1252421Y9416D01*
X1252457Y9345D01*
X1252488Y9272D01*
X1252516Y9198D01*
X1252541Y9123D01*
X1252561Y9047D01*
X1252579Y8970D01*
X1252592Y8892D01*
X1252601Y8813D01*
X1252607Y8734D01*
X1252609Y8655D01*
X1252609Y7836D01*
X1249335Y7836D01*
X1256912Y5381D02*
X1258549Y5381D01*
X1256912Y5381D02*
X1256843Y5383D01*
X1256775Y5389D01*
X1256706Y5398D01*
X1256639Y5412D01*
X1256572Y5429D01*
X1256506Y5450D01*
X1256442Y5474D01*
X1256379Y5503D01*
X1256318Y5534D01*
X1256259Y5569D01*
X1256201Y5607D01*
X1256146Y5649D01*
X1256094Y5693D01*
X1256044Y5741D01*
X1255996Y5791D01*
X1255952Y5843D01*
X1255910Y5898D01*
X1255872Y5956D01*
X1255837Y6015D01*
X1255806Y6076D01*
X1255777Y6139D01*
X1255753Y6203D01*
X1255732Y6269D01*
X1255715Y6336D01*
X1255701Y6403D01*
X1255692Y6472D01*
X1255686Y6540D01*
X1255684Y6609D01*
X1255684Y9064D01*
X1255686Y9133D01*
X1255692Y9201D01*
X1255701Y9270D01*
X1255715Y9337D01*
X1255732Y9404D01*
X1255753Y9470D01*
X1255777Y9534D01*
X1255806Y9597D01*
X1255837Y9658D01*
X1255872Y9717D01*
X1255910Y9775D01*
X1255952Y9830D01*
X1255996Y9882D01*
X1256044Y9932D01*
X1256094Y9980D01*
X1256146Y10024D01*
X1256201Y10066D01*
X1256259Y10104D01*
X1256318Y10139D01*
X1256379Y10170D01*
X1256442Y10199D01*
X1256506Y10223D01*
X1256572Y10244D01*
X1256639Y10261D01*
X1256706Y10275D01*
X1256775Y10284D01*
X1256843Y10290D01*
X1256912Y10292D01*
X1258549Y10292D01*
X1261283Y8655D02*
X1261283Y7018D01*
X1261283Y8655D02*
X1261285Y8734D01*
X1261291Y8813D01*
X1261300Y8892D01*
X1261313Y8970D01*
X1261331Y9047D01*
X1261351Y9123D01*
X1261376Y9198D01*
X1261404Y9272D01*
X1261435Y9345D01*
X1261471Y9416D01*
X1261509Y9485D01*
X1261551Y9552D01*
X1261596Y9617D01*
X1261644Y9680D01*
X1261695Y9741D01*
X1261749Y9798D01*
X1261805Y9854D01*
X1261864Y9906D01*
X1261926Y9956D01*
X1261990Y10002D01*
X1262056Y10046D01*
X1262124Y10086D01*
X1262194Y10122D01*
X1262266Y10156D01*
X1262340Y10186D01*
X1262414Y10212D01*
X1262490Y10235D01*
X1262567Y10253D01*
X1262644Y10269D01*
X1262723Y10280D01*
X1262801Y10288D01*
X1262880Y10292D01*
X1262960Y10292D01*
X1263039Y10288D01*
X1263117Y10280D01*
X1263196Y10269D01*
X1263273Y10253D01*
X1263350Y10235D01*
X1263426Y10212D01*
X1263500Y10186D01*
X1263574Y10156D01*
X1263646Y10122D01*
X1263716Y10086D01*
X1263784Y10046D01*
X1263850Y10002D01*
X1263914Y9956D01*
X1263976Y9906D01*
X1264035Y9854D01*
X1264091Y9798D01*
X1264145Y9741D01*
X1264196Y9680D01*
X1264244Y9617D01*
X1264289Y9552D01*
X1264331Y9485D01*
X1264369Y9416D01*
X1264405Y9345D01*
X1264436Y9272D01*
X1264464Y9198D01*
X1264489Y9123D01*
X1264509Y9047D01*
X1264527Y8970D01*
X1264540Y8892D01*
X1264549Y8813D01*
X1264555Y8734D01*
X1264557Y8655D01*
X1264557Y7018D01*
X1264555Y6939D01*
X1264549Y6860D01*
X1264540Y6781D01*
X1264527Y6703D01*
X1264509Y6626D01*
X1264489Y6550D01*
X1264464Y6475D01*
X1264436Y6401D01*
X1264405Y6328D01*
X1264369Y6257D01*
X1264331Y6188D01*
X1264289Y6121D01*
X1264244Y6056D01*
X1264196Y5993D01*
X1264145Y5932D01*
X1264091Y5875D01*
X1264035Y5819D01*
X1263976Y5767D01*
X1263914Y5717D01*
X1263850Y5671D01*
X1263784Y5627D01*
X1263716Y5587D01*
X1263646Y5551D01*
X1263574Y5517D01*
X1263500Y5487D01*
X1263426Y5461D01*
X1263350Y5438D01*
X1263273Y5420D01*
X1263196Y5404D01*
X1263117Y5393D01*
X1263039Y5385D01*
X1262960Y5381D01*
X1262880Y5381D01*
X1262801Y5385D01*
X1262723Y5393D01*
X1262644Y5404D01*
X1262567Y5420D01*
X1262490Y5438D01*
X1262414Y5461D01*
X1262340Y5487D01*
X1262266Y5517D01*
X1262194Y5551D01*
X1262124Y5587D01*
X1262056Y5627D01*
X1261990Y5671D01*
X1261926Y5717D01*
X1261864Y5767D01*
X1261805Y5819D01*
X1261749Y5875D01*
X1261695Y5932D01*
X1261644Y5993D01*
X1261596Y6056D01*
X1261551Y6121D01*
X1261509Y6188D01*
X1261471Y6257D01*
X1261435Y6328D01*
X1261404Y6401D01*
X1261376Y6475D01*
X1261351Y6550D01*
X1261331Y6626D01*
X1261313Y6703D01*
X1261300Y6781D01*
X1261291Y6860D01*
X1261285Y6939D01*
X1261283Y7018D01*
X1270856Y5381D02*
X1270856Y12747D01*
X1270856Y5381D02*
X1268810Y5381D01*
X1268741Y5383D01*
X1268673Y5389D01*
X1268604Y5398D01*
X1268537Y5412D01*
X1268470Y5429D01*
X1268404Y5450D01*
X1268340Y5474D01*
X1268277Y5503D01*
X1268216Y5534D01*
X1268157Y5569D01*
X1268099Y5607D01*
X1268044Y5649D01*
X1267992Y5693D01*
X1267942Y5741D01*
X1267894Y5791D01*
X1267850Y5843D01*
X1267808Y5898D01*
X1267770Y5956D01*
X1267735Y6015D01*
X1267704Y6076D01*
X1267675Y6139D01*
X1267651Y6203D01*
X1267630Y6269D01*
X1267613Y6336D01*
X1267599Y6403D01*
X1267590Y6472D01*
X1267584Y6540D01*
X1267582Y6609D01*
X1267582Y9064D01*
X1267584Y9133D01*
X1267590Y9201D01*
X1267599Y9270D01*
X1267613Y9337D01*
X1267630Y9404D01*
X1267651Y9470D01*
X1267675Y9534D01*
X1267704Y9597D01*
X1267735Y9658D01*
X1267770Y9717D01*
X1267808Y9775D01*
X1267850Y9830D01*
X1267894Y9882D01*
X1267942Y9932D01*
X1267992Y9980D01*
X1268044Y10024D01*
X1268099Y10066D01*
X1268157Y10104D01*
X1268216Y10139D01*
X1268277Y10170D01*
X1268340Y10199D01*
X1268404Y10223D01*
X1268470Y10244D01*
X1268537Y10261D01*
X1268604Y10275D01*
X1268673Y10284D01*
X1268741Y10290D01*
X1268810Y10292D01*
X1270856Y10292D01*
X1275435Y5381D02*
X1277481Y5381D01*
X1275435Y5381D02*
X1275366Y5383D01*
X1275298Y5389D01*
X1275229Y5398D01*
X1275162Y5412D01*
X1275095Y5429D01*
X1275029Y5450D01*
X1274965Y5474D01*
X1274902Y5503D01*
X1274841Y5534D01*
X1274782Y5569D01*
X1274724Y5607D01*
X1274669Y5649D01*
X1274617Y5693D01*
X1274567Y5741D01*
X1274519Y5791D01*
X1274475Y5843D01*
X1274433Y5898D01*
X1274395Y5956D01*
X1274360Y6015D01*
X1274329Y6076D01*
X1274300Y6139D01*
X1274276Y6203D01*
X1274255Y6269D01*
X1274238Y6336D01*
X1274224Y6403D01*
X1274215Y6472D01*
X1274209Y6540D01*
X1274207Y6609D01*
X1274207Y8655D01*
X1274209Y8734D01*
X1274215Y8813D01*
X1274224Y8892D01*
X1274237Y8970D01*
X1274255Y9047D01*
X1274275Y9123D01*
X1274300Y9198D01*
X1274328Y9272D01*
X1274359Y9345D01*
X1274395Y9416D01*
X1274433Y9485D01*
X1274475Y9552D01*
X1274520Y9617D01*
X1274568Y9680D01*
X1274619Y9741D01*
X1274673Y9798D01*
X1274729Y9854D01*
X1274788Y9906D01*
X1274850Y9956D01*
X1274914Y10002D01*
X1274980Y10046D01*
X1275048Y10086D01*
X1275118Y10122D01*
X1275190Y10156D01*
X1275264Y10186D01*
X1275338Y10212D01*
X1275414Y10235D01*
X1275491Y10253D01*
X1275568Y10269D01*
X1275647Y10280D01*
X1275725Y10288D01*
X1275804Y10292D01*
X1275884Y10292D01*
X1275963Y10288D01*
X1276041Y10280D01*
X1276120Y10269D01*
X1276197Y10253D01*
X1276274Y10235D01*
X1276350Y10212D01*
X1276424Y10186D01*
X1276498Y10156D01*
X1276570Y10122D01*
X1276640Y10086D01*
X1276708Y10046D01*
X1276774Y10002D01*
X1276838Y9956D01*
X1276900Y9906D01*
X1276959Y9854D01*
X1277015Y9798D01*
X1277069Y9741D01*
X1277120Y9680D01*
X1277168Y9617D01*
X1277213Y9552D01*
X1277255Y9485D01*
X1277293Y9416D01*
X1277329Y9345D01*
X1277360Y9272D01*
X1277388Y9198D01*
X1277413Y9123D01*
X1277433Y9047D01*
X1277451Y8970D01*
X1277464Y8892D01*
X1277473Y8813D01*
X1277479Y8734D01*
X1277481Y8655D01*
X1277481Y7836D01*
X1274207Y7836D01*
X1280837Y5381D02*
X1280837Y10292D01*
X1283292Y10292D01*
X1283292Y9473D01*
D11*
X757160Y29000D02*
X757160Y76000D01*
X797160Y76000D01*
X797160Y29000D01*
X757160Y29000D01*
D12*
X767460Y33450D02*
X767460Y39800D01*
X764460Y65200D02*
X770810Y65200D01*
X767710Y62050D02*
X767710Y68400D01*
X789910Y36500D02*
X789844Y36442D01*
X789781Y36381D01*
X789721Y36318D01*
X789663Y36252D01*
X789609Y36183D01*
X789557Y36112D01*
X789509Y36039D01*
X789464Y35964D01*
X789423Y35887D01*
X789385Y35808D01*
X789351Y35727D01*
X789320Y35645D01*
X789293Y35562D01*
X789270Y35477D01*
X789251Y35392D01*
X789235Y35305D01*
X789223Y35219D01*
X789215Y35131D01*
X789211Y35044D01*
X789211Y34956D01*
X789215Y34869D01*
X789223Y34781D01*
X789235Y34695D01*
X789251Y34608D01*
X789270Y34523D01*
X789293Y34438D01*
X789320Y34355D01*
X789351Y34273D01*
X789385Y34192D01*
X789423Y34113D01*
X789464Y34036D01*
X789509Y33961D01*
X789557Y33888D01*
X789609Y33817D01*
X789663Y33748D01*
X789721Y33682D01*
X789781Y33619D01*
X789844Y33558D01*
X789910Y33500D01*
X789910Y36500D02*
X789976Y36558D01*
X790039Y36619D01*
X790099Y36682D01*
X790157Y36748D01*
X790211Y36817D01*
X790263Y36888D01*
X790311Y36961D01*
X790356Y37036D01*
X790397Y37113D01*
X790435Y37192D01*
X790469Y37273D01*
X790500Y37355D01*
X790527Y37438D01*
X790550Y37523D01*
X790569Y37608D01*
X790585Y37695D01*
X790597Y37781D01*
X790605Y37869D01*
X790609Y37956D01*
X790609Y38044D01*
X790605Y38131D01*
X790597Y38219D01*
X790585Y38305D01*
X790569Y38392D01*
X790550Y38477D01*
X790527Y38562D01*
X790500Y38645D01*
X790469Y38727D01*
X790435Y38808D01*
X790397Y38887D01*
X790356Y38964D01*
X790311Y39039D01*
X790263Y39112D01*
X790211Y39183D01*
X790157Y39252D01*
X790099Y39318D01*
X790039Y39381D01*
X789976Y39442D01*
X789910Y39500D01*
X789910Y65250D02*
X789844Y65308D01*
X789781Y65369D01*
X789721Y65432D01*
X789663Y65498D01*
X789609Y65567D01*
X789557Y65638D01*
X789509Y65711D01*
X789464Y65786D01*
X789423Y65863D01*
X789385Y65942D01*
X789351Y66023D01*
X789320Y66105D01*
X789293Y66188D01*
X789270Y66273D01*
X789251Y66358D01*
X789235Y66445D01*
X789223Y66531D01*
X789215Y66619D01*
X789211Y66706D01*
X789211Y66794D01*
X789215Y66881D01*
X789223Y66969D01*
X789235Y67055D01*
X789251Y67142D01*
X789270Y67227D01*
X789293Y67312D01*
X789320Y67395D01*
X789351Y67477D01*
X789385Y67558D01*
X789423Y67637D01*
X789464Y67714D01*
X789509Y67789D01*
X789557Y67862D01*
X789609Y67933D01*
X789663Y68002D01*
X789721Y68068D01*
X789781Y68131D01*
X789844Y68192D01*
X789910Y68250D01*
X789976Y68308D01*
X790039Y68369D01*
X790099Y68432D01*
X790157Y68498D01*
X790211Y68567D01*
X790263Y68638D01*
X790311Y68711D01*
X790356Y68786D01*
X790397Y68863D01*
X790435Y68942D01*
X790469Y69023D01*
X790500Y69105D01*
X790527Y69188D01*
X790550Y69273D01*
X790569Y69358D01*
X790585Y69445D01*
X790597Y69531D01*
X790605Y69619D01*
X790609Y69706D01*
X790609Y69794D01*
X790605Y69881D01*
X790597Y69969D01*
X790585Y70055D01*
X790569Y70142D01*
X790550Y70227D01*
X790527Y70312D01*
X790500Y70395D01*
X790469Y70477D01*
X790435Y70558D01*
X790397Y70637D01*
X790356Y70714D01*
X790311Y70789D01*
X790263Y70862D01*
X790211Y70933D01*
X790157Y71002D01*
X790099Y71068D01*
X790039Y71131D01*
X789976Y71192D01*
X789910Y71250D01*
D13*
X760660Y52500D03*
D12*
X368032Y45501D02*
X368032Y42904D01*
X368030Y42805D01*
X368024Y42705D01*
X368015Y42606D01*
X368002Y42508D01*
X367985Y42410D01*
X367964Y42312D01*
X367939Y42216D01*
X367911Y42121D01*
X367879Y42027D01*
X367844Y41934D01*
X367805Y41842D01*
X367762Y41752D01*
X367717Y41664D01*
X367667Y41577D01*
X367615Y41493D01*
X367559Y41410D01*
X367501Y41330D01*
X367439Y41252D01*
X367374Y41177D01*
X367306Y41104D01*
X367236Y41034D01*
X367163Y40966D01*
X367088Y40901D01*
X367010Y40839D01*
X366930Y40781D01*
X366847Y40725D01*
X366763Y40673D01*
X366676Y40623D01*
X366588Y40578D01*
X366498Y40535D01*
X366406Y40496D01*
X366313Y40461D01*
X366219Y40429D01*
X366124Y40401D01*
X366028Y40376D01*
X365930Y40355D01*
X365832Y40338D01*
X365734Y40325D01*
X365635Y40316D01*
X365535Y40310D01*
X365436Y40308D01*
X358944Y40308D01*
X358845Y40310D01*
X358745Y40316D01*
X358646Y40325D01*
X358548Y40338D01*
X358450Y40356D01*
X358352Y40376D01*
X358256Y40401D01*
X358160Y40429D01*
X358066Y40461D01*
X357973Y40496D01*
X357882Y40535D01*
X357792Y40578D01*
X357703Y40623D01*
X357617Y40673D01*
X357532Y40725D01*
X357450Y40781D01*
X357370Y40840D01*
X357292Y40901D01*
X357216Y40966D01*
X357143Y41034D01*
X357073Y41104D01*
X357005Y41177D01*
X356940Y41253D01*
X356879Y41331D01*
X356820Y41411D01*
X356764Y41493D01*
X356712Y41578D01*
X356663Y41664D01*
X356617Y41753D01*
X356574Y41843D01*
X356535Y41934D01*
X356500Y42027D01*
X356468Y42121D01*
X356440Y42217D01*
X356415Y42313D01*
X356395Y42411D01*
X356377Y42509D01*
X356364Y42607D01*
X356355Y42706D01*
X356349Y42805D01*
X356347Y42905D01*
X356348Y42904D02*
X356348Y45501D01*
X358944Y49866D02*
X356348Y53112D01*
X368032Y53112D01*
X368032Y56357D02*
X368032Y49866D01*
X1408032Y45501D02*
X1408032Y42904D01*
X1408030Y42805D01*
X1408024Y42705D01*
X1408015Y42606D01*
X1408002Y42508D01*
X1407985Y42410D01*
X1407964Y42312D01*
X1407939Y42216D01*
X1407911Y42121D01*
X1407879Y42027D01*
X1407844Y41934D01*
X1407805Y41842D01*
X1407762Y41752D01*
X1407717Y41664D01*
X1407667Y41577D01*
X1407615Y41493D01*
X1407559Y41410D01*
X1407501Y41330D01*
X1407439Y41252D01*
X1407374Y41177D01*
X1407306Y41104D01*
X1407236Y41034D01*
X1407163Y40966D01*
X1407088Y40901D01*
X1407010Y40839D01*
X1406930Y40781D01*
X1406847Y40725D01*
X1406763Y40673D01*
X1406676Y40623D01*
X1406588Y40578D01*
X1406498Y40535D01*
X1406406Y40496D01*
X1406313Y40461D01*
X1406219Y40429D01*
X1406124Y40401D01*
X1406028Y40376D01*
X1405930Y40355D01*
X1405832Y40338D01*
X1405734Y40325D01*
X1405635Y40316D01*
X1405535Y40310D01*
X1405436Y40308D01*
X1398944Y40308D01*
X1398845Y40310D01*
X1398745Y40316D01*
X1398646Y40325D01*
X1398548Y40338D01*
X1398450Y40356D01*
X1398352Y40376D01*
X1398256Y40401D01*
X1398160Y40429D01*
X1398066Y40461D01*
X1397973Y40496D01*
X1397882Y40535D01*
X1397792Y40578D01*
X1397703Y40623D01*
X1397617Y40673D01*
X1397532Y40725D01*
X1397450Y40781D01*
X1397370Y40840D01*
X1397292Y40901D01*
X1397216Y40966D01*
X1397143Y41034D01*
X1397073Y41104D01*
X1397005Y41177D01*
X1396940Y41253D01*
X1396879Y41331D01*
X1396820Y41411D01*
X1396764Y41493D01*
X1396712Y41578D01*
X1396663Y41664D01*
X1396617Y41753D01*
X1396574Y41843D01*
X1396535Y41934D01*
X1396500Y42027D01*
X1396468Y42121D01*
X1396440Y42217D01*
X1396415Y42313D01*
X1396395Y42411D01*
X1396377Y42509D01*
X1396364Y42607D01*
X1396355Y42706D01*
X1396349Y42805D01*
X1396347Y42905D01*
X1396348Y42904D02*
X1396348Y45501D01*
X1396348Y53436D02*
X1396350Y53543D01*
X1396356Y53649D01*
X1396366Y53755D01*
X1396379Y53861D01*
X1396397Y53967D01*
X1396418Y54071D01*
X1396443Y54175D01*
X1396472Y54278D01*
X1396504Y54379D01*
X1396541Y54479D01*
X1396581Y54578D01*
X1396624Y54676D01*
X1396671Y54772D01*
X1396722Y54866D01*
X1396776Y54958D01*
X1396833Y55048D01*
X1396893Y55136D01*
X1396957Y55221D01*
X1397024Y55304D01*
X1397094Y55385D01*
X1397166Y55463D01*
X1397242Y55539D01*
X1397320Y55611D01*
X1397401Y55681D01*
X1397484Y55748D01*
X1397569Y55812D01*
X1397657Y55872D01*
X1397747Y55929D01*
X1397839Y55983D01*
X1397933Y56034D01*
X1398029Y56081D01*
X1398127Y56124D01*
X1398226Y56164D01*
X1398326Y56201D01*
X1398427Y56233D01*
X1398530Y56262D01*
X1398634Y56287D01*
X1398738Y56308D01*
X1398844Y56326D01*
X1398950Y56339D01*
X1399056Y56349D01*
X1399162Y56355D01*
X1399269Y56357D01*
X1396348Y53436D02*
X1396350Y53315D01*
X1396356Y53194D01*
X1396366Y53074D01*
X1396379Y52953D01*
X1396397Y52834D01*
X1396418Y52714D01*
X1396443Y52596D01*
X1396472Y52479D01*
X1396505Y52362D01*
X1396541Y52247D01*
X1396582Y52133D01*
X1396625Y52020D01*
X1396673Y51908D01*
X1396724Y51799D01*
X1396779Y51691D01*
X1396837Y51584D01*
X1396898Y51480D01*
X1396963Y51378D01*
X1397031Y51278D01*
X1397102Y51180D01*
X1397176Y51084D01*
X1397253Y50991D01*
X1397334Y50901D01*
X1397417Y50813D01*
X1397503Y50728D01*
X1397592Y50645D01*
X1397683Y50566D01*
X1397777Y50489D01*
X1397873Y50416D01*
X1397971Y50346D01*
X1398072Y50279D01*
X1398175Y50215D01*
X1398280Y50155D01*
X1398387Y50097D01*
X1398495Y50044D01*
X1398605Y49994D01*
X1398717Y49948D01*
X1398830Y49905D01*
X1398945Y49866D01*
X1401541Y55383D02*
X1401463Y55462D01*
X1401383Y55538D01*
X1401300Y55611D01*
X1401214Y55681D01*
X1401127Y55748D01*
X1401036Y55812D01*
X1400944Y55872D01*
X1400850Y55930D01*
X1400753Y55984D01*
X1400655Y56034D01*
X1400555Y56081D01*
X1400454Y56125D01*
X1400351Y56165D01*
X1400246Y56201D01*
X1400141Y56233D01*
X1400034Y56262D01*
X1399927Y56287D01*
X1399818Y56309D01*
X1399709Y56326D01*
X1399600Y56340D01*
X1399490Y56349D01*
X1399379Y56355D01*
X1399269Y56357D01*
X1401541Y55384D02*
X1408032Y49866D01*
X1408032Y56357D01*
X1278032Y45501D02*
X1278032Y42904D01*
X1278030Y42805D01*
X1278024Y42705D01*
X1278015Y42606D01*
X1278002Y42508D01*
X1277985Y42410D01*
X1277964Y42312D01*
X1277939Y42216D01*
X1277911Y42121D01*
X1277879Y42027D01*
X1277844Y41934D01*
X1277805Y41842D01*
X1277762Y41752D01*
X1277717Y41664D01*
X1277667Y41577D01*
X1277615Y41493D01*
X1277559Y41410D01*
X1277501Y41330D01*
X1277439Y41252D01*
X1277374Y41177D01*
X1277306Y41104D01*
X1277236Y41034D01*
X1277163Y40966D01*
X1277088Y40901D01*
X1277010Y40839D01*
X1276930Y40781D01*
X1276847Y40725D01*
X1276763Y40673D01*
X1276676Y40623D01*
X1276588Y40578D01*
X1276498Y40535D01*
X1276406Y40496D01*
X1276313Y40461D01*
X1276219Y40429D01*
X1276124Y40401D01*
X1276028Y40376D01*
X1275930Y40355D01*
X1275832Y40338D01*
X1275734Y40325D01*
X1275635Y40316D01*
X1275535Y40310D01*
X1275436Y40308D01*
X1268944Y40308D01*
X1268845Y40310D01*
X1268745Y40316D01*
X1268646Y40325D01*
X1268548Y40338D01*
X1268450Y40356D01*
X1268352Y40376D01*
X1268256Y40401D01*
X1268160Y40429D01*
X1268066Y40461D01*
X1267973Y40496D01*
X1267882Y40535D01*
X1267792Y40578D01*
X1267703Y40623D01*
X1267617Y40673D01*
X1267532Y40725D01*
X1267450Y40781D01*
X1267370Y40840D01*
X1267292Y40901D01*
X1267216Y40966D01*
X1267143Y41034D01*
X1267073Y41104D01*
X1267005Y41177D01*
X1266940Y41253D01*
X1266879Y41331D01*
X1266820Y41411D01*
X1266764Y41493D01*
X1266712Y41578D01*
X1266663Y41664D01*
X1266617Y41753D01*
X1266574Y41843D01*
X1266535Y41934D01*
X1266500Y42027D01*
X1266468Y42121D01*
X1266440Y42217D01*
X1266415Y42313D01*
X1266395Y42411D01*
X1266377Y42509D01*
X1266364Y42607D01*
X1266355Y42706D01*
X1266349Y42805D01*
X1266347Y42905D01*
X1266348Y42904D02*
X1266348Y45501D01*
X1278032Y49866D02*
X1278032Y53112D01*
X1278030Y53225D01*
X1278024Y53338D01*
X1278014Y53451D01*
X1278000Y53564D01*
X1277983Y53676D01*
X1277961Y53787D01*
X1277936Y53897D01*
X1277906Y54007D01*
X1277873Y54115D01*
X1277836Y54222D01*
X1277796Y54328D01*
X1277751Y54432D01*
X1277703Y54535D01*
X1277652Y54636D01*
X1277597Y54735D01*
X1277539Y54832D01*
X1277477Y54927D01*
X1277412Y55020D01*
X1277344Y55110D01*
X1277273Y55198D01*
X1277198Y55284D01*
X1277121Y55367D01*
X1277041Y55447D01*
X1276958Y55524D01*
X1276872Y55599D01*
X1276784Y55670D01*
X1276694Y55738D01*
X1276601Y55803D01*
X1276506Y55865D01*
X1276409Y55923D01*
X1276310Y55978D01*
X1276209Y56029D01*
X1276106Y56077D01*
X1276002Y56122D01*
X1275896Y56162D01*
X1275789Y56199D01*
X1275681Y56232D01*
X1275571Y56262D01*
X1275461Y56287D01*
X1275350Y56309D01*
X1275238Y56326D01*
X1275125Y56340D01*
X1275012Y56350D01*
X1274899Y56356D01*
X1274786Y56358D01*
X1274673Y56356D01*
X1274560Y56350D01*
X1274447Y56340D01*
X1274334Y56326D01*
X1274222Y56309D01*
X1274111Y56287D01*
X1274001Y56262D01*
X1273891Y56232D01*
X1273783Y56199D01*
X1273676Y56162D01*
X1273570Y56122D01*
X1273466Y56077D01*
X1273363Y56029D01*
X1273262Y55978D01*
X1273163Y55923D01*
X1273066Y55865D01*
X1272971Y55803D01*
X1272878Y55738D01*
X1272788Y55670D01*
X1272700Y55599D01*
X1272614Y55524D01*
X1272531Y55447D01*
X1272451Y55367D01*
X1272374Y55284D01*
X1272299Y55198D01*
X1272228Y55110D01*
X1272160Y55020D01*
X1272095Y54927D01*
X1272033Y54832D01*
X1271975Y54735D01*
X1271920Y54636D01*
X1271869Y54535D01*
X1271821Y54432D01*
X1271776Y54328D01*
X1271736Y54222D01*
X1271699Y54115D01*
X1271666Y54007D01*
X1271636Y53897D01*
X1271611Y53787D01*
X1271589Y53676D01*
X1271572Y53564D01*
X1271558Y53451D01*
X1271548Y53338D01*
X1271542Y53225D01*
X1271540Y53112D01*
X1266348Y53761D02*
X1266348Y49866D01*
X1266348Y53761D02*
X1266350Y53862D01*
X1266356Y53962D01*
X1266366Y54062D01*
X1266379Y54162D01*
X1266397Y54261D01*
X1266418Y54360D01*
X1266443Y54457D01*
X1266472Y54554D01*
X1266505Y54649D01*
X1266541Y54743D01*
X1266581Y54835D01*
X1266624Y54926D01*
X1266671Y55015D01*
X1266721Y55102D01*
X1266775Y55188D01*
X1266832Y55271D01*
X1266892Y55351D01*
X1266955Y55430D01*
X1267022Y55506D01*
X1267091Y55579D01*
X1267163Y55649D01*
X1267237Y55717D01*
X1267314Y55782D01*
X1267394Y55843D01*
X1267476Y55902D01*
X1267560Y55957D01*
X1267646Y56009D01*
X1267734Y56058D01*
X1267824Y56103D01*
X1267916Y56145D01*
X1268009Y56183D01*
X1268104Y56217D01*
X1268199Y56248D01*
X1268296Y56275D01*
X1268394Y56298D01*
X1268493Y56318D01*
X1268593Y56333D01*
X1268693Y56345D01*
X1268793Y56353D01*
X1268894Y56357D01*
X1268994Y56357D01*
X1269095Y56353D01*
X1269195Y56345D01*
X1269295Y56333D01*
X1269395Y56318D01*
X1269494Y56298D01*
X1269592Y56275D01*
X1269689Y56248D01*
X1269784Y56217D01*
X1269879Y56183D01*
X1269972Y56145D01*
X1270064Y56103D01*
X1270154Y56058D01*
X1270242Y56009D01*
X1270328Y55957D01*
X1270412Y55902D01*
X1270494Y55843D01*
X1270574Y55782D01*
X1270651Y55717D01*
X1270725Y55649D01*
X1270797Y55579D01*
X1270866Y55506D01*
X1270933Y55430D01*
X1270996Y55351D01*
X1271056Y55271D01*
X1271113Y55188D01*
X1271167Y55102D01*
X1271217Y55015D01*
X1271264Y54926D01*
X1271307Y54835D01*
X1271347Y54743D01*
X1271383Y54649D01*
X1271416Y54554D01*
X1271445Y54457D01*
X1271470Y54360D01*
X1271491Y54261D01*
X1271509Y54162D01*
X1271522Y54062D01*
X1271532Y53962D01*
X1271538Y53862D01*
X1271540Y53761D01*
X1271541Y53761D02*
X1271541Y51164D01*
X95636Y14048D02*
X93039Y14048D01*
X92940Y14050D01*
X92840Y14056D01*
X92741Y14065D01*
X92643Y14078D01*
X92545Y14095D01*
X92447Y14116D01*
X92351Y14141D01*
X92256Y14169D01*
X92162Y14201D01*
X92069Y14236D01*
X91977Y14275D01*
X91887Y14318D01*
X91799Y14363D01*
X91712Y14413D01*
X91628Y14465D01*
X91545Y14521D01*
X91465Y14579D01*
X91387Y14641D01*
X91312Y14706D01*
X91239Y14774D01*
X91169Y14844D01*
X91101Y14917D01*
X91036Y14992D01*
X90974Y15070D01*
X90916Y15150D01*
X90860Y15233D01*
X90808Y15317D01*
X90758Y15404D01*
X90713Y15492D01*
X90670Y15582D01*
X90631Y15674D01*
X90596Y15767D01*
X90564Y15861D01*
X90536Y15956D01*
X90511Y16052D01*
X90490Y16150D01*
X90473Y16248D01*
X90460Y16346D01*
X90451Y16445D01*
X90445Y16545D01*
X90443Y16644D01*
X90443Y23136D01*
X90445Y23235D01*
X90451Y23335D01*
X90460Y23434D01*
X90473Y23532D01*
X90490Y23630D01*
X90511Y23728D01*
X90536Y23824D01*
X90564Y23919D01*
X90596Y24013D01*
X90631Y24106D01*
X90670Y24198D01*
X90713Y24288D01*
X90758Y24376D01*
X90808Y24463D01*
X90860Y24547D01*
X90916Y24630D01*
X90974Y24710D01*
X91036Y24788D01*
X91101Y24863D01*
X91169Y24936D01*
X91239Y25006D01*
X91312Y25074D01*
X91387Y25139D01*
X91465Y25201D01*
X91545Y25259D01*
X91628Y25315D01*
X91712Y25367D01*
X91799Y25417D01*
X91887Y25462D01*
X91977Y25505D01*
X92069Y25544D01*
X92161Y25579D01*
X92256Y25611D01*
X92351Y25639D01*
X92447Y25664D01*
X92545Y25685D01*
X92643Y25702D01*
X92741Y25715D01*
X92840Y25724D01*
X92940Y25730D01*
X93039Y25732D01*
X95636Y25732D01*
X100001Y14048D02*
X103896Y14048D01*
X103995Y14050D01*
X104095Y14056D01*
X104194Y14065D01*
X104292Y14078D01*
X104390Y14095D01*
X104488Y14116D01*
X104584Y14141D01*
X104679Y14169D01*
X104773Y14201D01*
X104866Y14236D01*
X104958Y14275D01*
X105048Y14318D01*
X105136Y14363D01*
X105223Y14413D01*
X105307Y14465D01*
X105390Y14521D01*
X105470Y14579D01*
X105548Y14641D01*
X105623Y14706D01*
X105696Y14774D01*
X105766Y14844D01*
X105834Y14917D01*
X105899Y14992D01*
X105961Y15070D01*
X106019Y15150D01*
X106075Y15233D01*
X106127Y15317D01*
X106177Y15404D01*
X106222Y15492D01*
X106265Y15582D01*
X106304Y15674D01*
X106339Y15767D01*
X106371Y15861D01*
X106399Y15956D01*
X106424Y16052D01*
X106445Y16150D01*
X106462Y16248D01*
X106475Y16346D01*
X106484Y16445D01*
X106490Y16545D01*
X106492Y16644D01*
X106492Y17943D01*
X106490Y18042D01*
X106484Y18142D01*
X106475Y18241D01*
X106462Y18339D01*
X106445Y18437D01*
X106424Y18535D01*
X106399Y18631D01*
X106371Y18726D01*
X106339Y18820D01*
X106304Y18913D01*
X106265Y19005D01*
X106222Y19095D01*
X106177Y19183D01*
X106127Y19270D01*
X106075Y19354D01*
X106019Y19437D01*
X105961Y19517D01*
X105899Y19595D01*
X105834Y19670D01*
X105766Y19743D01*
X105696Y19813D01*
X105623Y19881D01*
X105548Y19946D01*
X105470Y20008D01*
X105390Y20066D01*
X105307Y20122D01*
X105223Y20174D01*
X105136Y20224D01*
X105048Y20269D01*
X104958Y20312D01*
X104866Y20351D01*
X104773Y20386D01*
X104679Y20418D01*
X104584Y20446D01*
X104488Y20471D01*
X104390Y20492D01*
X104292Y20509D01*
X104194Y20522D01*
X104095Y20531D01*
X103995Y20537D01*
X103896Y20539D01*
X100001Y20539D01*
X100001Y25732D01*
X106492Y25732D01*
X125039Y13088D02*
X127636Y13088D01*
X125039Y13088D02*
X124940Y13090D01*
X124840Y13096D01*
X124741Y13105D01*
X124643Y13118D01*
X124545Y13135D01*
X124447Y13156D01*
X124351Y13181D01*
X124256Y13209D01*
X124162Y13241D01*
X124069Y13276D01*
X123977Y13315D01*
X123887Y13358D01*
X123799Y13403D01*
X123712Y13453D01*
X123628Y13505D01*
X123545Y13561D01*
X123465Y13619D01*
X123387Y13681D01*
X123312Y13746D01*
X123239Y13814D01*
X123169Y13884D01*
X123101Y13957D01*
X123036Y14032D01*
X122974Y14110D01*
X122916Y14190D01*
X122860Y14273D01*
X122808Y14357D01*
X122758Y14444D01*
X122713Y14532D01*
X122670Y14622D01*
X122631Y14714D01*
X122596Y14807D01*
X122564Y14901D01*
X122536Y14996D01*
X122511Y15092D01*
X122490Y15190D01*
X122473Y15288D01*
X122460Y15386D01*
X122451Y15485D01*
X122445Y15585D01*
X122443Y15684D01*
X122443Y22176D01*
X122445Y22275D01*
X122451Y22375D01*
X122460Y22474D01*
X122473Y22572D01*
X122490Y22670D01*
X122511Y22768D01*
X122536Y22864D01*
X122564Y22959D01*
X122596Y23053D01*
X122631Y23146D01*
X122670Y23238D01*
X122713Y23328D01*
X122758Y23416D01*
X122808Y23503D01*
X122860Y23587D01*
X122916Y23670D01*
X122974Y23750D01*
X123036Y23828D01*
X123101Y23903D01*
X123169Y23976D01*
X123239Y24046D01*
X123312Y24114D01*
X123387Y24179D01*
X123465Y24241D01*
X123545Y24299D01*
X123628Y24355D01*
X123712Y24407D01*
X123799Y24457D01*
X123887Y24502D01*
X123977Y24545D01*
X124069Y24584D01*
X124161Y24619D01*
X124256Y24651D01*
X124351Y24679D01*
X124447Y24704D01*
X124545Y24725D01*
X124643Y24742D01*
X124741Y24755D01*
X124840Y24764D01*
X124940Y24770D01*
X125039Y24772D01*
X127636Y24772D01*
X132001Y19579D02*
X135896Y19579D01*
X135995Y19577D01*
X136095Y19571D01*
X136194Y19562D01*
X136292Y19549D01*
X136390Y19532D01*
X136488Y19511D01*
X136584Y19486D01*
X136679Y19458D01*
X136773Y19426D01*
X136866Y19391D01*
X136958Y19352D01*
X137048Y19309D01*
X137136Y19264D01*
X137223Y19214D01*
X137307Y19162D01*
X137390Y19106D01*
X137470Y19048D01*
X137548Y18986D01*
X137623Y18921D01*
X137696Y18853D01*
X137766Y18783D01*
X137834Y18710D01*
X137899Y18635D01*
X137961Y18557D01*
X138019Y18477D01*
X138075Y18394D01*
X138127Y18310D01*
X138177Y18223D01*
X138222Y18135D01*
X138265Y18045D01*
X138304Y17953D01*
X138339Y17860D01*
X138371Y17766D01*
X138399Y17671D01*
X138424Y17575D01*
X138445Y17477D01*
X138462Y17379D01*
X138475Y17281D01*
X138484Y17182D01*
X138490Y17082D01*
X138492Y16983D01*
X138492Y16334D01*
X138490Y16221D01*
X138484Y16108D01*
X138474Y15995D01*
X138460Y15882D01*
X138443Y15770D01*
X138421Y15659D01*
X138396Y15549D01*
X138366Y15439D01*
X138333Y15331D01*
X138296Y15224D01*
X138256Y15118D01*
X138211Y15014D01*
X138163Y14911D01*
X138112Y14810D01*
X138057Y14711D01*
X137999Y14614D01*
X137937Y14519D01*
X137872Y14426D01*
X137804Y14336D01*
X137733Y14248D01*
X137658Y14162D01*
X137581Y14079D01*
X137501Y13999D01*
X137418Y13922D01*
X137332Y13847D01*
X137244Y13776D01*
X137154Y13708D01*
X137061Y13643D01*
X136966Y13581D01*
X136869Y13523D01*
X136770Y13468D01*
X136669Y13417D01*
X136566Y13369D01*
X136462Y13324D01*
X136356Y13284D01*
X136249Y13247D01*
X136141Y13214D01*
X136031Y13184D01*
X135921Y13159D01*
X135810Y13137D01*
X135698Y13120D01*
X135585Y13106D01*
X135472Y13096D01*
X135359Y13090D01*
X135246Y13088D01*
X135133Y13090D01*
X135020Y13096D01*
X134907Y13106D01*
X134794Y13120D01*
X134682Y13137D01*
X134571Y13159D01*
X134461Y13184D01*
X134351Y13214D01*
X134243Y13247D01*
X134136Y13284D01*
X134030Y13324D01*
X133926Y13369D01*
X133823Y13417D01*
X133722Y13468D01*
X133623Y13523D01*
X133526Y13581D01*
X133431Y13643D01*
X133338Y13708D01*
X133248Y13776D01*
X133160Y13847D01*
X133074Y13922D01*
X132991Y13999D01*
X132911Y14079D01*
X132834Y14162D01*
X132759Y14248D01*
X132688Y14336D01*
X132620Y14426D01*
X132555Y14519D01*
X132493Y14614D01*
X132435Y14711D01*
X132380Y14810D01*
X132329Y14911D01*
X132281Y15014D01*
X132236Y15118D01*
X132196Y15224D01*
X132159Y15331D01*
X132126Y15439D01*
X132096Y15549D01*
X132071Y15659D01*
X132049Y15770D01*
X132032Y15882D01*
X132018Y15995D01*
X132008Y16108D01*
X132002Y16221D01*
X132000Y16334D01*
X132001Y16334D02*
X132001Y19579D01*
X132003Y19722D01*
X132009Y19865D01*
X132019Y20008D01*
X132033Y20150D01*
X132050Y20292D01*
X132072Y20434D01*
X132097Y20575D01*
X132127Y20715D01*
X132160Y20854D01*
X132197Y20992D01*
X132238Y21129D01*
X132282Y21265D01*
X132331Y21400D01*
X132383Y21533D01*
X132438Y21665D01*
X132498Y21795D01*
X132561Y21924D01*
X132627Y22051D01*
X132697Y22175D01*
X132770Y22298D01*
X132847Y22419D01*
X132927Y22538D01*
X133010Y22654D01*
X133096Y22769D01*
X133185Y22880D01*
X133278Y22990D01*
X133373Y23096D01*
X133472Y23200D01*
X133573Y23301D01*
X133677Y23400D01*
X133783Y23495D01*
X133893Y23588D01*
X134004Y23677D01*
X134119Y23763D01*
X134235Y23846D01*
X134354Y23926D01*
X134475Y24003D01*
X134597Y24076D01*
X134722Y24146D01*
X134849Y24212D01*
X134978Y24275D01*
X135108Y24335D01*
X135240Y24390D01*
X135373Y24442D01*
X135508Y24491D01*
X135644Y24535D01*
X135781Y24576D01*
X135919Y24613D01*
X136058Y24646D01*
X136198Y24676D01*
X136339Y24701D01*
X136481Y24723D01*
X136623Y24740D01*
X136765Y24754D01*
X136908Y24764D01*
X137051Y24770D01*
X137194Y24772D01*
X1129772Y44104D02*
X1129772Y46701D01*
X1129772Y44104D02*
X1129770Y44005D01*
X1129764Y43905D01*
X1129755Y43806D01*
X1129742Y43708D01*
X1129725Y43610D01*
X1129704Y43512D01*
X1129679Y43416D01*
X1129651Y43321D01*
X1129619Y43227D01*
X1129584Y43134D01*
X1129545Y43042D01*
X1129502Y42952D01*
X1129457Y42864D01*
X1129407Y42777D01*
X1129355Y42693D01*
X1129299Y42610D01*
X1129241Y42530D01*
X1129179Y42452D01*
X1129114Y42377D01*
X1129046Y42304D01*
X1128976Y42234D01*
X1128903Y42166D01*
X1128828Y42101D01*
X1128750Y42039D01*
X1128670Y41981D01*
X1128587Y41925D01*
X1128503Y41873D01*
X1128416Y41823D01*
X1128328Y41778D01*
X1128238Y41735D01*
X1128146Y41696D01*
X1128053Y41661D01*
X1127959Y41629D01*
X1127864Y41601D01*
X1127768Y41576D01*
X1127670Y41555D01*
X1127572Y41538D01*
X1127474Y41525D01*
X1127375Y41516D01*
X1127275Y41510D01*
X1127176Y41508D01*
X1120684Y41508D01*
X1120585Y41510D01*
X1120485Y41516D01*
X1120386Y41525D01*
X1120288Y41538D01*
X1120190Y41556D01*
X1120092Y41576D01*
X1119996Y41601D01*
X1119900Y41629D01*
X1119806Y41661D01*
X1119713Y41696D01*
X1119622Y41735D01*
X1119532Y41778D01*
X1119443Y41823D01*
X1119357Y41873D01*
X1119272Y41925D01*
X1119190Y41981D01*
X1119110Y42040D01*
X1119032Y42101D01*
X1118956Y42166D01*
X1118883Y42234D01*
X1118813Y42304D01*
X1118745Y42377D01*
X1118680Y42453D01*
X1118619Y42531D01*
X1118560Y42611D01*
X1118504Y42693D01*
X1118452Y42778D01*
X1118403Y42864D01*
X1118357Y42953D01*
X1118314Y43043D01*
X1118275Y43134D01*
X1118240Y43227D01*
X1118208Y43321D01*
X1118180Y43417D01*
X1118155Y43513D01*
X1118135Y43611D01*
X1118117Y43709D01*
X1118104Y43807D01*
X1118095Y43906D01*
X1118089Y44005D01*
X1118087Y44105D01*
X1118088Y44104D02*
X1118088Y46701D01*
X1118088Y51066D02*
X1119386Y51066D01*
X1118088Y51066D02*
X1118088Y57557D01*
X1129772Y54312D01*
X1164772Y46701D02*
X1164772Y44104D01*
X1164770Y44005D01*
X1164764Y43905D01*
X1164755Y43806D01*
X1164742Y43708D01*
X1164725Y43610D01*
X1164704Y43512D01*
X1164679Y43416D01*
X1164651Y43321D01*
X1164619Y43227D01*
X1164584Y43134D01*
X1164545Y43042D01*
X1164502Y42952D01*
X1164457Y42864D01*
X1164407Y42777D01*
X1164355Y42693D01*
X1164299Y42610D01*
X1164241Y42530D01*
X1164179Y42452D01*
X1164114Y42377D01*
X1164046Y42304D01*
X1163976Y42234D01*
X1163903Y42166D01*
X1163828Y42101D01*
X1163750Y42039D01*
X1163670Y41981D01*
X1163587Y41925D01*
X1163503Y41873D01*
X1163416Y41823D01*
X1163328Y41778D01*
X1163238Y41735D01*
X1163146Y41696D01*
X1163053Y41661D01*
X1162959Y41629D01*
X1162864Y41601D01*
X1162768Y41576D01*
X1162670Y41555D01*
X1162572Y41538D01*
X1162474Y41525D01*
X1162375Y41516D01*
X1162275Y41510D01*
X1162176Y41508D01*
X1155684Y41508D01*
X1155585Y41510D01*
X1155485Y41516D01*
X1155386Y41525D01*
X1155288Y41538D01*
X1155190Y41556D01*
X1155092Y41576D01*
X1154996Y41601D01*
X1154900Y41629D01*
X1154806Y41661D01*
X1154713Y41696D01*
X1154622Y41735D01*
X1154532Y41778D01*
X1154443Y41823D01*
X1154357Y41873D01*
X1154272Y41925D01*
X1154190Y41981D01*
X1154110Y42040D01*
X1154032Y42101D01*
X1153956Y42166D01*
X1153883Y42234D01*
X1153813Y42304D01*
X1153745Y42377D01*
X1153680Y42453D01*
X1153619Y42531D01*
X1153560Y42611D01*
X1153504Y42693D01*
X1153452Y42778D01*
X1153403Y42864D01*
X1153357Y42953D01*
X1153314Y43043D01*
X1153275Y43134D01*
X1153240Y43227D01*
X1153208Y43321D01*
X1153180Y43417D01*
X1153155Y43513D01*
X1153135Y43611D01*
X1153117Y43709D01*
X1153104Y43807D01*
X1153095Y43906D01*
X1153089Y44005D01*
X1153087Y44105D01*
X1153088Y44104D02*
X1153088Y46701D01*
X1161526Y51066D02*
X1161413Y51068D01*
X1161300Y51074D01*
X1161187Y51084D01*
X1161074Y51098D01*
X1160962Y51115D01*
X1160851Y51137D01*
X1160741Y51162D01*
X1160631Y51192D01*
X1160523Y51225D01*
X1160416Y51262D01*
X1160310Y51302D01*
X1160206Y51347D01*
X1160103Y51395D01*
X1160002Y51446D01*
X1159903Y51501D01*
X1159806Y51559D01*
X1159711Y51621D01*
X1159618Y51686D01*
X1159528Y51754D01*
X1159440Y51825D01*
X1159354Y51900D01*
X1159271Y51977D01*
X1159191Y52057D01*
X1159114Y52140D01*
X1159039Y52226D01*
X1158968Y52314D01*
X1158900Y52404D01*
X1158835Y52497D01*
X1158773Y52592D01*
X1158715Y52689D01*
X1158660Y52788D01*
X1158609Y52889D01*
X1158561Y52992D01*
X1158516Y53096D01*
X1158476Y53202D01*
X1158439Y53309D01*
X1158406Y53417D01*
X1158376Y53527D01*
X1158351Y53637D01*
X1158329Y53748D01*
X1158312Y53860D01*
X1158298Y53973D01*
X1158288Y54086D01*
X1158282Y54199D01*
X1158280Y54312D01*
X1158282Y54425D01*
X1158288Y54538D01*
X1158298Y54651D01*
X1158312Y54764D01*
X1158329Y54876D01*
X1158351Y54987D01*
X1158376Y55097D01*
X1158406Y55207D01*
X1158439Y55315D01*
X1158476Y55422D01*
X1158516Y55528D01*
X1158561Y55632D01*
X1158609Y55735D01*
X1158660Y55836D01*
X1158715Y55935D01*
X1158773Y56032D01*
X1158835Y56127D01*
X1158900Y56220D01*
X1158968Y56310D01*
X1159039Y56398D01*
X1159114Y56484D01*
X1159191Y56567D01*
X1159271Y56647D01*
X1159354Y56724D01*
X1159440Y56799D01*
X1159528Y56870D01*
X1159618Y56938D01*
X1159711Y57003D01*
X1159806Y57065D01*
X1159903Y57123D01*
X1160002Y57178D01*
X1160103Y57229D01*
X1160206Y57277D01*
X1160310Y57322D01*
X1160416Y57362D01*
X1160523Y57399D01*
X1160631Y57432D01*
X1160741Y57462D01*
X1160851Y57487D01*
X1160962Y57509D01*
X1161074Y57526D01*
X1161187Y57540D01*
X1161300Y57550D01*
X1161413Y57556D01*
X1161526Y57558D01*
X1161639Y57556D01*
X1161752Y57550D01*
X1161865Y57540D01*
X1161978Y57526D01*
X1162090Y57509D01*
X1162201Y57487D01*
X1162311Y57462D01*
X1162421Y57432D01*
X1162529Y57399D01*
X1162636Y57362D01*
X1162742Y57322D01*
X1162846Y57277D01*
X1162949Y57229D01*
X1163050Y57178D01*
X1163149Y57123D01*
X1163246Y57065D01*
X1163341Y57003D01*
X1163434Y56938D01*
X1163524Y56870D01*
X1163612Y56799D01*
X1163698Y56724D01*
X1163781Y56647D01*
X1163861Y56567D01*
X1163938Y56484D01*
X1164013Y56398D01*
X1164084Y56310D01*
X1164152Y56220D01*
X1164217Y56127D01*
X1164279Y56032D01*
X1164337Y55935D01*
X1164392Y55836D01*
X1164443Y55735D01*
X1164491Y55632D01*
X1164536Y55528D01*
X1164576Y55422D01*
X1164613Y55315D01*
X1164646Y55207D01*
X1164676Y55097D01*
X1164701Y54987D01*
X1164723Y54876D01*
X1164740Y54764D01*
X1164754Y54651D01*
X1164764Y54538D01*
X1164770Y54425D01*
X1164772Y54312D01*
X1164770Y54199D01*
X1164764Y54086D01*
X1164754Y53973D01*
X1164740Y53860D01*
X1164723Y53748D01*
X1164701Y53637D01*
X1164676Y53527D01*
X1164646Y53417D01*
X1164613Y53309D01*
X1164576Y53202D01*
X1164536Y53096D01*
X1164491Y52992D01*
X1164443Y52889D01*
X1164392Y52788D01*
X1164337Y52689D01*
X1164279Y52592D01*
X1164217Y52497D01*
X1164152Y52404D01*
X1164084Y52314D01*
X1164013Y52226D01*
X1163938Y52140D01*
X1163861Y52057D01*
X1163781Y51977D01*
X1163698Y51900D01*
X1163612Y51825D01*
X1163524Y51754D01*
X1163434Y51686D01*
X1163341Y51621D01*
X1163246Y51559D01*
X1163149Y51501D01*
X1163050Y51446D01*
X1162949Y51395D01*
X1162846Y51347D01*
X1162742Y51302D01*
X1162636Y51262D01*
X1162529Y51225D01*
X1162421Y51192D01*
X1162311Y51162D01*
X1162201Y51137D01*
X1162090Y51115D01*
X1161978Y51098D01*
X1161865Y51084D01*
X1161752Y51074D01*
X1161639Y51068D01*
X1161526Y51066D01*
X1155684Y51716D02*
X1155583Y51718D01*
X1155483Y51724D01*
X1155383Y51734D01*
X1155283Y51747D01*
X1155184Y51765D01*
X1155085Y51786D01*
X1154988Y51811D01*
X1154891Y51840D01*
X1154796Y51873D01*
X1154702Y51909D01*
X1154610Y51949D01*
X1154519Y51992D01*
X1154430Y52039D01*
X1154343Y52089D01*
X1154257Y52143D01*
X1154174Y52200D01*
X1154094Y52260D01*
X1154015Y52323D01*
X1153939Y52390D01*
X1153866Y52459D01*
X1153796Y52531D01*
X1153728Y52605D01*
X1153663Y52682D01*
X1153602Y52762D01*
X1153543Y52844D01*
X1153488Y52928D01*
X1153436Y53014D01*
X1153387Y53102D01*
X1153342Y53192D01*
X1153300Y53284D01*
X1153262Y53377D01*
X1153228Y53472D01*
X1153197Y53567D01*
X1153170Y53664D01*
X1153147Y53762D01*
X1153127Y53861D01*
X1153112Y53961D01*
X1153100Y54061D01*
X1153092Y54161D01*
X1153088Y54262D01*
X1153088Y54362D01*
X1153092Y54463D01*
X1153100Y54563D01*
X1153112Y54663D01*
X1153127Y54763D01*
X1153147Y54862D01*
X1153170Y54960D01*
X1153197Y55057D01*
X1153228Y55152D01*
X1153262Y55247D01*
X1153300Y55340D01*
X1153342Y55432D01*
X1153387Y55522D01*
X1153436Y55610D01*
X1153488Y55696D01*
X1153543Y55780D01*
X1153602Y55862D01*
X1153663Y55942D01*
X1153728Y56019D01*
X1153796Y56093D01*
X1153866Y56165D01*
X1153939Y56234D01*
X1154015Y56301D01*
X1154094Y56364D01*
X1154174Y56424D01*
X1154257Y56481D01*
X1154343Y56535D01*
X1154430Y56585D01*
X1154519Y56632D01*
X1154610Y56675D01*
X1154702Y56715D01*
X1154796Y56751D01*
X1154891Y56784D01*
X1154988Y56813D01*
X1155085Y56838D01*
X1155184Y56859D01*
X1155283Y56877D01*
X1155383Y56890D01*
X1155483Y56900D01*
X1155583Y56906D01*
X1155684Y56908D01*
X1155785Y56906D01*
X1155885Y56900D01*
X1155985Y56890D01*
X1156085Y56877D01*
X1156184Y56859D01*
X1156283Y56838D01*
X1156380Y56813D01*
X1156477Y56784D01*
X1156572Y56751D01*
X1156666Y56715D01*
X1156758Y56675D01*
X1156849Y56632D01*
X1156938Y56585D01*
X1157025Y56535D01*
X1157111Y56481D01*
X1157194Y56424D01*
X1157274Y56364D01*
X1157353Y56301D01*
X1157429Y56234D01*
X1157502Y56165D01*
X1157572Y56093D01*
X1157640Y56019D01*
X1157705Y55942D01*
X1157766Y55862D01*
X1157825Y55780D01*
X1157880Y55696D01*
X1157932Y55610D01*
X1157981Y55522D01*
X1158026Y55432D01*
X1158068Y55340D01*
X1158106Y55247D01*
X1158140Y55152D01*
X1158171Y55057D01*
X1158198Y54960D01*
X1158221Y54862D01*
X1158241Y54763D01*
X1158256Y54663D01*
X1158268Y54563D01*
X1158276Y54463D01*
X1158280Y54362D01*
X1158280Y54262D01*
X1158276Y54161D01*
X1158268Y54061D01*
X1158256Y53961D01*
X1158241Y53861D01*
X1158221Y53762D01*
X1158198Y53664D01*
X1158171Y53567D01*
X1158140Y53472D01*
X1158106Y53377D01*
X1158068Y53284D01*
X1158026Y53192D01*
X1157981Y53102D01*
X1157932Y53014D01*
X1157880Y52928D01*
X1157825Y52844D01*
X1157766Y52762D01*
X1157705Y52682D01*
X1157640Y52605D01*
X1157572Y52531D01*
X1157502Y52459D01*
X1157429Y52390D01*
X1157353Y52323D01*
X1157274Y52260D01*
X1157194Y52200D01*
X1157111Y52143D01*
X1157025Y52089D01*
X1156938Y52039D01*
X1156849Y51992D01*
X1156758Y51949D01*
X1156666Y51909D01*
X1156572Y51873D01*
X1156477Y51840D01*
X1156380Y51811D01*
X1156283Y51786D01*
X1156184Y51765D01*
X1156085Y51747D01*
X1155985Y51734D01*
X1155885Y51724D01*
X1155785Y51718D01*
X1155684Y51716D01*
D11*
X233440Y27042D02*
X228940Y27042D01*
X228940Y73042D01*
X233440Y73042D01*
X253440Y73042D02*
X257940Y73042D01*
X257940Y27042D01*
X253440Y27042D01*
X253440Y81792D02*
X233440Y81792D01*
D14*
X226295Y45867D02*
X221469Y45867D01*
X221469Y47207D01*
X221471Y47277D01*
X221476Y47347D01*
X221486Y47417D01*
X221498Y47486D01*
X221515Y47554D01*
X221535Y47621D01*
X221558Y47688D01*
X221585Y47752D01*
X221615Y47816D01*
X221649Y47878D01*
X221685Y47937D01*
X221725Y47995D01*
X221768Y48051D01*
X221813Y48104D01*
X221862Y48155D01*
X221913Y48204D01*
X221966Y48249D01*
X222022Y48292D01*
X222080Y48332D01*
X222140Y48368D01*
X222201Y48402D01*
X222265Y48432D01*
X222329Y48459D01*
X222396Y48482D01*
X222463Y48502D01*
X222531Y48519D01*
X222600Y48531D01*
X222670Y48541D01*
X222740Y48546D01*
X222810Y48548D01*
X224954Y48548D01*
X225024Y48546D01*
X225094Y48541D01*
X225164Y48531D01*
X225233Y48519D01*
X225301Y48502D01*
X225368Y48482D01*
X225435Y48459D01*
X225499Y48432D01*
X225563Y48402D01*
X225625Y48368D01*
X225684Y48332D01*
X225742Y48292D01*
X225798Y48249D01*
X225851Y48204D01*
X225902Y48155D01*
X225951Y48104D01*
X225996Y48051D01*
X226039Y47995D01*
X226079Y47937D01*
X226115Y47877D01*
X226149Y47816D01*
X226179Y47752D01*
X226206Y47688D01*
X226229Y47621D01*
X226249Y47554D01*
X226266Y47486D01*
X226278Y47417D01*
X226288Y47347D01*
X226293Y47277D01*
X226295Y47207D01*
X226295Y45867D01*
X222541Y51536D02*
X221469Y52877D01*
X226295Y52877D01*
X226295Y54217D02*
X226295Y51536D01*
X883690Y30150D02*
X908330Y30150D01*
X908330Y74850D02*
X883690Y74850D01*
D15*
X1313890Y65200D02*
X1326590Y65200D01*
X1332940Y58850D01*
X1332940Y46150D01*
X1326590Y39800D01*
X1307540Y46150D02*
X1307540Y58850D01*
X1313890Y65200D01*
X1307540Y46150D02*
X1313890Y39800D01*
X1326590Y39800D01*
X204150Y65200D02*
X191450Y65200D01*
X204150Y65200D02*
X210500Y58850D01*
X210500Y46150D01*
X204150Y39800D01*
X185100Y46150D02*
X185100Y58850D01*
X191450Y65200D01*
X185100Y46150D02*
X191450Y39800D01*
X204150Y39800D01*
D12*
X400716Y37000D02*
X400716Y68000D01*
X427716Y68000D02*
X427716Y37000D01*
X404716Y46000D02*
X404560Y46235D01*
X404411Y46474D01*
X404267Y46716D01*
X404129Y46961D01*
X403997Y47210D01*
X403871Y47462D01*
X403751Y47717D01*
X403638Y47975D01*
X403531Y48236D01*
X403430Y48499D01*
X403336Y48765D01*
X403248Y49032D01*
X403167Y49302D01*
X403092Y49574D01*
X403024Y49847D01*
X402963Y50122D01*
X402909Y50399D01*
X402861Y50676D01*
X402820Y50955D01*
X402785Y51235D01*
X402758Y51515D01*
X402737Y51796D01*
X402724Y52077D01*
X402717Y52359D01*
X402717Y52641D01*
X402724Y52923D01*
X402737Y53204D01*
X402758Y53485D01*
X402785Y53765D01*
X402820Y54045D01*
X402861Y54324D01*
X402909Y54601D01*
X402963Y54878D01*
X403024Y55153D01*
X403092Y55426D01*
X403167Y55698D01*
X403248Y55968D01*
X403336Y56235D01*
X403430Y56501D01*
X403531Y56764D01*
X403638Y57025D01*
X403751Y57283D01*
X403871Y57538D01*
X403997Y57790D01*
X404129Y58039D01*
X404267Y58284D01*
X404411Y58526D01*
X404560Y58765D01*
X404716Y59000D01*
X423716Y59000D02*
X423872Y58765D01*
X424021Y58526D01*
X424165Y58284D01*
X424303Y58039D01*
X424435Y57790D01*
X424561Y57538D01*
X424681Y57283D01*
X424794Y57025D01*
X424901Y56764D01*
X425002Y56501D01*
X425096Y56235D01*
X425184Y55968D01*
X425265Y55698D01*
X425340Y55426D01*
X425408Y55153D01*
X425469Y54878D01*
X425523Y54601D01*
X425571Y54324D01*
X425612Y54045D01*
X425647Y53765D01*
X425674Y53485D01*
X425695Y53204D01*
X425708Y52923D01*
X425715Y52641D01*
X425715Y52359D01*
X425708Y52077D01*
X425695Y51796D01*
X425674Y51515D01*
X425647Y51235D01*
X425612Y50955D01*
X425571Y50676D01*
X425523Y50399D01*
X425469Y50122D01*
X425408Y49847D01*
X425340Y49574D01*
X425265Y49302D01*
X425184Y49032D01*
X425096Y48765D01*
X425002Y48499D01*
X424901Y48236D01*
X424794Y47975D01*
X424681Y47717D01*
X424561Y47462D01*
X424435Y47210D01*
X424303Y46961D01*
X424165Y46716D01*
X424021Y46474D01*
X423872Y46235D01*
X423716Y46000D01*
X1208109Y37000D02*
X1208109Y68000D01*
X1235109Y68000D02*
X1235109Y37000D01*
X1212109Y46000D02*
X1211953Y46235D01*
X1211804Y46474D01*
X1211660Y46716D01*
X1211522Y46961D01*
X1211390Y47210D01*
X1211264Y47462D01*
X1211144Y47717D01*
X1211031Y47975D01*
X1210924Y48236D01*
X1210823Y48499D01*
X1210729Y48765D01*
X1210641Y49032D01*
X1210560Y49302D01*
X1210485Y49574D01*
X1210417Y49847D01*
X1210356Y50122D01*
X1210302Y50399D01*
X1210254Y50676D01*
X1210213Y50955D01*
X1210178Y51235D01*
X1210151Y51515D01*
X1210130Y51796D01*
X1210117Y52077D01*
X1210110Y52359D01*
X1210110Y52641D01*
X1210117Y52923D01*
X1210130Y53204D01*
X1210151Y53485D01*
X1210178Y53765D01*
X1210213Y54045D01*
X1210254Y54324D01*
X1210302Y54601D01*
X1210356Y54878D01*
X1210417Y55153D01*
X1210485Y55426D01*
X1210560Y55698D01*
X1210641Y55968D01*
X1210729Y56235D01*
X1210823Y56501D01*
X1210924Y56764D01*
X1211031Y57025D01*
X1211144Y57283D01*
X1211264Y57538D01*
X1211390Y57790D01*
X1211522Y58039D01*
X1211660Y58284D01*
X1211804Y58526D01*
X1211953Y58765D01*
X1212109Y59000D01*
X1231109Y59000D02*
X1231265Y58765D01*
X1231414Y58526D01*
X1231558Y58284D01*
X1231696Y58039D01*
X1231828Y57790D01*
X1231954Y57538D01*
X1232074Y57283D01*
X1232187Y57025D01*
X1232294Y56764D01*
X1232395Y56501D01*
X1232489Y56235D01*
X1232577Y55968D01*
X1232658Y55698D01*
X1232733Y55426D01*
X1232801Y55153D01*
X1232862Y54878D01*
X1232916Y54601D01*
X1232964Y54324D01*
X1233005Y54045D01*
X1233040Y53765D01*
X1233067Y53485D01*
X1233088Y53204D01*
X1233101Y52923D01*
X1233108Y52641D01*
X1233108Y52359D01*
X1233101Y52077D01*
X1233088Y51796D01*
X1233067Y51515D01*
X1233040Y51235D01*
X1233005Y50955D01*
X1232964Y50676D01*
X1232916Y50399D01*
X1232862Y50122D01*
X1232801Y49847D01*
X1232733Y49574D01*
X1232658Y49302D01*
X1232577Y49032D01*
X1232489Y48765D01*
X1232395Y48499D01*
X1232294Y48236D01*
X1232187Y47975D01*
X1232074Y47717D01*
X1231954Y47462D01*
X1231828Y47210D01*
X1231696Y46961D01*
X1231558Y46716D01*
X1231414Y46474D01*
X1231265Y46235D01*
X1231109Y46000D01*
X1367174Y37000D02*
X1367174Y68000D01*
X1340174Y68000D02*
X1340174Y37000D01*
X1363174Y46000D02*
X1363330Y46235D01*
X1363479Y46474D01*
X1363623Y46716D01*
X1363761Y46961D01*
X1363893Y47210D01*
X1364019Y47462D01*
X1364139Y47717D01*
X1364252Y47975D01*
X1364359Y48236D01*
X1364460Y48499D01*
X1364554Y48765D01*
X1364642Y49032D01*
X1364723Y49302D01*
X1364798Y49574D01*
X1364866Y49847D01*
X1364927Y50122D01*
X1364981Y50399D01*
X1365029Y50676D01*
X1365070Y50955D01*
X1365105Y51235D01*
X1365132Y51515D01*
X1365153Y51796D01*
X1365166Y52077D01*
X1365173Y52359D01*
X1365173Y52641D01*
X1365166Y52923D01*
X1365153Y53204D01*
X1365132Y53485D01*
X1365105Y53765D01*
X1365070Y54045D01*
X1365029Y54324D01*
X1364981Y54601D01*
X1364927Y54878D01*
X1364866Y55153D01*
X1364798Y55426D01*
X1364723Y55698D01*
X1364642Y55968D01*
X1364554Y56235D01*
X1364460Y56501D01*
X1364359Y56764D01*
X1364252Y57025D01*
X1364139Y57283D01*
X1364019Y57538D01*
X1363893Y57790D01*
X1363761Y58039D01*
X1363623Y58284D01*
X1363479Y58526D01*
X1363330Y58765D01*
X1363174Y59000D01*
X1344174Y59000D02*
X1344018Y58765D01*
X1343869Y58526D01*
X1343725Y58284D01*
X1343587Y58039D01*
X1343455Y57790D01*
X1343329Y57538D01*
X1343209Y57283D01*
X1343096Y57025D01*
X1342989Y56764D01*
X1342888Y56501D01*
X1342794Y56235D01*
X1342706Y55968D01*
X1342625Y55698D01*
X1342550Y55426D01*
X1342482Y55153D01*
X1342421Y54878D01*
X1342367Y54601D01*
X1342319Y54324D01*
X1342278Y54045D01*
X1342243Y53765D01*
X1342216Y53485D01*
X1342195Y53204D01*
X1342182Y52923D01*
X1342175Y52641D01*
X1342175Y52359D01*
X1342182Y52077D01*
X1342195Y51796D01*
X1342216Y51515D01*
X1342243Y51235D01*
X1342278Y50955D01*
X1342319Y50676D01*
X1342367Y50399D01*
X1342421Y50122D01*
X1342482Y49847D01*
X1342550Y49574D01*
X1342625Y49302D01*
X1342706Y49032D01*
X1342794Y48765D01*
X1342888Y48499D01*
X1342989Y48236D01*
X1343096Y47975D01*
X1343209Y47717D01*
X1343329Y47462D01*
X1343455Y47210D01*
X1343587Y46961D01*
X1343725Y46716D01*
X1343869Y46474D01*
X1344018Y46235D01*
X1344174Y46000D01*
X1472239Y37000D02*
X1472239Y68000D01*
X1499239Y68000D02*
X1499239Y37000D01*
X1476239Y46000D02*
X1476083Y46235D01*
X1475934Y46474D01*
X1475790Y46716D01*
X1475652Y46961D01*
X1475520Y47210D01*
X1475394Y47462D01*
X1475274Y47717D01*
X1475161Y47975D01*
X1475054Y48236D01*
X1474953Y48499D01*
X1474859Y48765D01*
X1474771Y49032D01*
X1474690Y49302D01*
X1474615Y49574D01*
X1474547Y49847D01*
X1474486Y50122D01*
X1474432Y50399D01*
X1474384Y50676D01*
X1474343Y50955D01*
X1474308Y51235D01*
X1474281Y51515D01*
X1474260Y51796D01*
X1474247Y52077D01*
X1474240Y52359D01*
X1474240Y52641D01*
X1474247Y52923D01*
X1474260Y53204D01*
X1474281Y53485D01*
X1474308Y53765D01*
X1474343Y54045D01*
X1474384Y54324D01*
X1474432Y54601D01*
X1474486Y54878D01*
X1474547Y55153D01*
X1474615Y55426D01*
X1474690Y55698D01*
X1474771Y55968D01*
X1474859Y56235D01*
X1474953Y56501D01*
X1475054Y56764D01*
X1475161Y57025D01*
X1475274Y57283D01*
X1475394Y57538D01*
X1475520Y57790D01*
X1475652Y58039D01*
X1475790Y58284D01*
X1475934Y58526D01*
X1476083Y58765D01*
X1476239Y59000D01*
X1495239Y59000D02*
X1495395Y58765D01*
X1495544Y58526D01*
X1495688Y58284D01*
X1495826Y58039D01*
X1495958Y57790D01*
X1496084Y57538D01*
X1496204Y57283D01*
X1496317Y57025D01*
X1496424Y56764D01*
X1496525Y56501D01*
X1496619Y56235D01*
X1496707Y55968D01*
X1496788Y55698D01*
X1496863Y55426D01*
X1496931Y55153D01*
X1496992Y54878D01*
X1497046Y54601D01*
X1497094Y54324D01*
X1497135Y54045D01*
X1497170Y53765D01*
X1497197Y53485D01*
X1497218Y53204D01*
X1497231Y52923D01*
X1497238Y52641D01*
X1497238Y52359D01*
X1497231Y52077D01*
X1497218Y51796D01*
X1497197Y51515D01*
X1497170Y51235D01*
X1497135Y50955D01*
X1497094Y50676D01*
X1497046Y50399D01*
X1496992Y50122D01*
X1496931Y49847D01*
X1496863Y49574D01*
X1496788Y49302D01*
X1496707Y49032D01*
X1496619Y48765D01*
X1496525Y48499D01*
X1496424Y48236D01*
X1496317Y47975D01*
X1496204Y47717D01*
X1496084Y47462D01*
X1495958Y47210D01*
X1495826Y46961D01*
X1495688Y46716D01*
X1495544Y46474D01*
X1495395Y46235D01*
X1495239Y46000D01*
X310651Y37000D02*
X310651Y68000D01*
X283651Y68000D02*
X283651Y37000D01*
X306651Y46000D02*
X306807Y46235D01*
X306956Y46474D01*
X307100Y46716D01*
X307238Y46961D01*
X307370Y47210D01*
X307496Y47462D01*
X307616Y47717D01*
X307729Y47975D01*
X307836Y48236D01*
X307937Y48499D01*
X308031Y48765D01*
X308119Y49032D01*
X308200Y49302D01*
X308275Y49574D01*
X308343Y49847D01*
X308404Y50122D01*
X308458Y50399D01*
X308506Y50676D01*
X308547Y50955D01*
X308582Y51235D01*
X308609Y51515D01*
X308630Y51796D01*
X308643Y52077D01*
X308650Y52359D01*
X308650Y52641D01*
X308643Y52923D01*
X308630Y53204D01*
X308609Y53485D01*
X308582Y53765D01*
X308547Y54045D01*
X308506Y54324D01*
X308458Y54601D01*
X308404Y54878D01*
X308343Y55153D01*
X308275Y55426D01*
X308200Y55698D01*
X308119Y55968D01*
X308031Y56235D01*
X307937Y56501D01*
X307836Y56764D01*
X307729Y57025D01*
X307616Y57283D01*
X307496Y57538D01*
X307370Y57790D01*
X307238Y58039D01*
X307100Y58284D01*
X306956Y58526D01*
X306807Y58765D01*
X306651Y59000D01*
X287651Y59000D02*
X287495Y58765D01*
X287346Y58526D01*
X287202Y58284D01*
X287064Y58039D01*
X286932Y57790D01*
X286806Y57538D01*
X286686Y57283D01*
X286573Y57025D01*
X286466Y56764D01*
X286365Y56501D01*
X286271Y56235D01*
X286183Y55968D01*
X286102Y55698D01*
X286027Y55426D01*
X285959Y55153D01*
X285898Y54878D01*
X285844Y54601D01*
X285796Y54324D01*
X285755Y54045D01*
X285720Y53765D01*
X285693Y53485D01*
X285672Y53204D01*
X285659Y52923D01*
X285652Y52641D01*
X285652Y52359D01*
X285659Y52077D01*
X285672Y51796D01*
X285693Y51515D01*
X285720Y51235D01*
X285755Y50955D01*
X285796Y50676D01*
X285844Y50399D01*
X285898Y50122D01*
X285959Y49847D01*
X286027Y49574D01*
X286102Y49302D01*
X286183Y49032D01*
X286271Y48765D01*
X286365Y48499D01*
X286466Y48236D01*
X286573Y47975D01*
X286686Y47717D01*
X286806Y47462D01*
X286932Y47210D01*
X287064Y46961D01*
X287202Y46716D01*
X287346Y46474D01*
X287495Y46235D01*
X287651Y46000D01*
X151585Y37000D02*
X151585Y68000D01*
X178585Y68000D02*
X178585Y37000D01*
X155585Y46000D02*
X155429Y46235D01*
X155280Y46474D01*
X155136Y46716D01*
X154998Y46961D01*
X154866Y47210D01*
X154740Y47462D01*
X154620Y47717D01*
X154507Y47975D01*
X154400Y48236D01*
X154299Y48499D01*
X154205Y48765D01*
X154117Y49032D01*
X154036Y49302D01*
X153961Y49574D01*
X153893Y49847D01*
X153832Y50122D01*
X153778Y50399D01*
X153730Y50676D01*
X153689Y50955D01*
X153654Y51235D01*
X153627Y51515D01*
X153606Y51796D01*
X153593Y52077D01*
X153586Y52359D01*
X153586Y52641D01*
X153593Y52923D01*
X153606Y53204D01*
X153627Y53485D01*
X153654Y53765D01*
X153689Y54045D01*
X153730Y54324D01*
X153778Y54601D01*
X153832Y54878D01*
X153893Y55153D01*
X153961Y55426D01*
X154036Y55698D01*
X154117Y55968D01*
X154205Y56235D01*
X154299Y56501D01*
X154400Y56764D01*
X154507Y57025D01*
X154620Y57283D01*
X154740Y57538D01*
X154866Y57790D01*
X154998Y58039D01*
X155136Y58284D01*
X155280Y58526D01*
X155429Y58765D01*
X155585Y59000D01*
X174585Y59000D02*
X174741Y58765D01*
X174890Y58526D01*
X175034Y58284D01*
X175172Y58039D01*
X175304Y57790D01*
X175430Y57538D01*
X175550Y57283D01*
X175663Y57025D01*
X175770Y56764D01*
X175871Y56501D01*
X175965Y56235D01*
X176053Y55968D01*
X176134Y55698D01*
X176209Y55426D01*
X176277Y55153D01*
X176338Y54878D01*
X176392Y54601D01*
X176440Y54324D01*
X176481Y54045D01*
X176516Y53765D01*
X176543Y53485D01*
X176564Y53204D01*
X176577Y52923D01*
X176584Y52641D01*
X176584Y52359D01*
X176577Y52077D01*
X176564Y51796D01*
X176543Y51515D01*
X176516Y51235D01*
X176481Y50955D01*
X176440Y50676D01*
X176392Y50399D01*
X176338Y50122D01*
X176277Y49847D01*
X176209Y49574D01*
X176134Y49302D01*
X176053Y49032D01*
X175965Y48765D01*
X175871Y48499D01*
X175770Y48236D01*
X175663Y47975D01*
X175550Y47717D01*
X175430Y47462D01*
X175304Y47210D01*
X175172Y46961D01*
X175034Y46716D01*
X174890Y46474D01*
X174741Y46235D01*
X174585Y46000D01*
X46520Y37000D02*
X46520Y68000D01*
X19520Y68000D02*
X19520Y37000D01*
X42520Y46000D02*
X42676Y46235D01*
X42825Y46474D01*
X42969Y46716D01*
X43107Y46961D01*
X43239Y47210D01*
X43365Y47462D01*
X43485Y47717D01*
X43598Y47975D01*
X43705Y48236D01*
X43806Y48499D01*
X43900Y48765D01*
X43988Y49032D01*
X44069Y49302D01*
X44144Y49574D01*
X44212Y49847D01*
X44273Y50122D01*
X44327Y50399D01*
X44375Y50676D01*
X44416Y50955D01*
X44451Y51235D01*
X44478Y51515D01*
X44499Y51796D01*
X44512Y52077D01*
X44519Y52359D01*
X44519Y52641D01*
X44512Y52923D01*
X44499Y53204D01*
X44478Y53485D01*
X44451Y53765D01*
X44416Y54045D01*
X44375Y54324D01*
X44327Y54601D01*
X44273Y54878D01*
X44212Y55153D01*
X44144Y55426D01*
X44069Y55698D01*
X43988Y55968D01*
X43900Y56235D01*
X43806Y56501D01*
X43705Y56764D01*
X43598Y57025D01*
X43485Y57283D01*
X43365Y57538D01*
X43239Y57790D01*
X43107Y58039D01*
X42969Y58284D01*
X42825Y58526D01*
X42676Y58765D01*
X42520Y59000D01*
X23520Y59000D02*
X23364Y58765D01*
X23215Y58526D01*
X23071Y58284D01*
X22933Y58039D01*
X22801Y57790D01*
X22675Y57538D01*
X22555Y57283D01*
X22442Y57025D01*
X22335Y56764D01*
X22234Y56501D01*
X22140Y56235D01*
X22052Y55968D01*
X21971Y55698D01*
X21896Y55426D01*
X21828Y55153D01*
X21767Y54878D01*
X21713Y54601D01*
X21665Y54324D01*
X21624Y54045D01*
X21589Y53765D01*
X21562Y53485D01*
X21541Y53204D01*
X21528Y52923D01*
X21521Y52641D01*
X21521Y52359D01*
X21528Y52077D01*
X21541Y51796D01*
X21562Y51515D01*
X21589Y51235D01*
X21624Y50955D01*
X21665Y50676D01*
X21713Y50399D01*
X21767Y50122D01*
X21828Y49847D01*
X21896Y49574D01*
X21971Y49302D01*
X22052Y49032D01*
X22140Y48765D01*
X22234Y48499D01*
X22335Y48236D01*
X22442Y47975D01*
X22555Y47717D01*
X22675Y47462D01*
X22801Y47210D01*
X22933Y46961D01*
X23071Y46716D01*
X23215Y46474D01*
X23364Y46235D01*
X23520Y46000D01*
X557782Y37000D02*
X557782Y68000D01*
X584782Y68000D02*
X584782Y37000D01*
X561782Y46000D02*
X561626Y46235D01*
X561477Y46474D01*
X561333Y46716D01*
X561195Y46961D01*
X561063Y47210D01*
X560937Y47462D01*
X560817Y47717D01*
X560704Y47975D01*
X560597Y48236D01*
X560496Y48499D01*
X560402Y48765D01*
X560314Y49032D01*
X560233Y49302D01*
X560158Y49574D01*
X560090Y49847D01*
X560029Y50122D01*
X559975Y50399D01*
X559927Y50676D01*
X559886Y50955D01*
X559851Y51235D01*
X559824Y51515D01*
X559803Y51796D01*
X559790Y52077D01*
X559783Y52359D01*
X559783Y52641D01*
X559790Y52923D01*
X559803Y53204D01*
X559824Y53485D01*
X559851Y53765D01*
X559886Y54045D01*
X559927Y54324D01*
X559975Y54601D01*
X560029Y54878D01*
X560090Y55153D01*
X560158Y55426D01*
X560233Y55698D01*
X560314Y55968D01*
X560402Y56235D01*
X560496Y56501D01*
X560597Y56764D01*
X560704Y57025D01*
X560817Y57283D01*
X560937Y57538D01*
X561063Y57790D01*
X561195Y58039D01*
X561333Y58284D01*
X561477Y58526D01*
X561626Y58765D01*
X561782Y59000D01*
X580782Y59000D02*
X580938Y58765D01*
X581087Y58526D01*
X581231Y58284D01*
X581369Y58039D01*
X581501Y57790D01*
X581627Y57538D01*
X581747Y57283D01*
X581860Y57025D01*
X581967Y56764D01*
X582068Y56501D01*
X582162Y56235D01*
X582250Y55968D01*
X582331Y55698D01*
X582406Y55426D01*
X582474Y55153D01*
X582535Y54878D01*
X582589Y54601D01*
X582637Y54324D01*
X582678Y54045D01*
X582713Y53765D01*
X582740Y53485D01*
X582761Y53204D01*
X582774Y52923D01*
X582781Y52641D01*
X582781Y52359D01*
X582774Y52077D01*
X582761Y51796D01*
X582740Y51515D01*
X582713Y51235D01*
X582678Y50955D01*
X582637Y50676D01*
X582589Y50399D01*
X582535Y50122D01*
X582474Y49847D01*
X582406Y49574D01*
X582331Y49302D01*
X582250Y49032D01*
X582162Y48765D01*
X582068Y48499D01*
X581967Y48236D01*
X581860Y47975D01*
X581747Y47717D01*
X581627Y47462D01*
X581501Y47210D01*
X581369Y46961D01*
X581231Y46716D01*
X581087Y46474D01*
X580938Y46235D01*
X580782Y46000D01*
X696847Y37000D02*
X696847Y68000D01*
X669847Y68000D02*
X669847Y37000D01*
X692847Y46000D02*
X693003Y46235D01*
X693152Y46474D01*
X693296Y46716D01*
X693434Y46961D01*
X693566Y47210D01*
X693692Y47462D01*
X693812Y47717D01*
X693925Y47975D01*
X694032Y48236D01*
X694133Y48499D01*
X694227Y48765D01*
X694315Y49032D01*
X694396Y49302D01*
X694471Y49574D01*
X694539Y49847D01*
X694600Y50122D01*
X694654Y50399D01*
X694702Y50676D01*
X694743Y50955D01*
X694778Y51235D01*
X694805Y51515D01*
X694826Y51796D01*
X694839Y52077D01*
X694846Y52359D01*
X694846Y52641D01*
X694839Y52923D01*
X694826Y53204D01*
X694805Y53485D01*
X694778Y53765D01*
X694743Y54045D01*
X694702Y54324D01*
X694654Y54601D01*
X694600Y54878D01*
X694539Y55153D01*
X694471Y55426D01*
X694396Y55698D01*
X694315Y55968D01*
X694227Y56235D01*
X694133Y56501D01*
X694032Y56764D01*
X693925Y57025D01*
X693812Y57283D01*
X693692Y57538D01*
X693566Y57790D01*
X693434Y58039D01*
X693296Y58284D01*
X693152Y58526D01*
X693003Y58765D01*
X692847Y59000D01*
X673847Y59000D02*
X673691Y58765D01*
X673542Y58526D01*
X673398Y58284D01*
X673260Y58039D01*
X673128Y57790D01*
X673002Y57538D01*
X672882Y57283D01*
X672769Y57025D01*
X672662Y56764D01*
X672561Y56501D01*
X672467Y56235D01*
X672379Y55968D01*
X672298Y55698D01*
X672223Y55426D01*
X672155Y55153D01*
X672094Y54878D01*
X672040Y54601D01*
X671992Y54324D01*
X671951Y54045D01*
X671916Y53765D01*
X671889Y53485D01*
X671868Y53204D01*
X671855Y52923D01*
X671848Y52641D01*
X671848Y52359D01*
X671855Y52077D01*
X671868Y51796D01*
X671889Y51515D01*
X671916Y51235D01*
X671951Y50955D01*
X671992Y50676D01*
X672040Y50399D01*
X672094Y50122D01*
X672155Y49847D01*
X672223Y49574D01*
X672298Y49302D01*
X672379Y49032D01*
X672467Y48765D01*
X672561Y48499D01*
X672662Y48236D01*
X672769Y47975D01*
X672882Y47717D01*
X673002Y47462D01*
X673128Y47210D01*
X673260Y46961D01*
X673398Y46716D01*
X673542Y46474D01*
X673691Y46235D01*
X673847Y46000D01*
X826912Y37000D02*
X826912Y68000D01*
X853912Y68000D02*
X853912Y37000D01*
X830912Y46000D02*
X830756Y46235D01*
X830607Y46474D01*
X830463Y46716D01*
X830325Y46961D01*
X830193Y47210D01*
X830067Y47462D01*
X829947Y47717D01*
X829834Y47975D01*
X829727Y48236D01*
X829626Y48499D01*
X829532Y48765D01*
X829444Y49032D01*
X829363Y49302D01*
X829288Y49574D01*
X829220Y49847D01*
X829159Y50122D01*
X829105Y50399D01*
X829057Y50676D01*
X829016Y50955D01*
X828981Y51235D01*
X828954Y51515D01*
X828933Y51796D01*
X828920Y52077D01*
X828913Y52359D01*
X828913Y52641D01*
X828920Y52923D01*
X828933Y53204D01*
X828954Y53485D01*
X828981Y53765D01*
X829016Y54045D01*
X829057Y54324D01*
X829105Y54601D01*
X829159Y54878D01*
X829220Y55153D01*
X829288Y55426D01*
X829363Y55698D01*
X829444Y55968D01*
X829532Y56235D01*
X829626Y56501D01*
X829727Y56764D01*
X829834Y57025D01*
X829947Y57283D01*
X830067Y57538D01*
X830193Y57790D01*
X830325Y58039D01*
X830463Y58284D01*
X830607Y58526D01*
X830756Y58765D01*
X830912Y59000D01*
X849912Y59000D02*
X850068Y58765D01*
X850217Y58526D01*
X850361Y58284D01*
X850499Y58039D01*
X850631Y57790D01*
X850757Y57538D01*
X850877Y57283D01*
X850990Y57025D01*
X851097Y56764D01*
X851198Y56501D01*
X851292Y56235D01*
X851380Y55968D01*
X851461Y55698D01*
X851536Y55426D01*
X851604Y55153D01*
X851665Y54878D01*
X851719Y54601D01*
X851767Y54324D01*
X851808Y54045D01*
X851843Y53765D01*
X851870Y53485D01*
X851891Y53204D01*
X851904Y52923D01*
X851911Y52641D01*
X851911Y52359D01*
X851904Y52077D01*
X851891Y51796D01*
X851870Y51515D01*
X851843Y51235D01*
X851808Y50955D01*
X851767Y50676D01*
X851719Y50399D01*
X851665Y50122D01*
X851604Y49847D01*
X851536Y49574D01*
X851461Y49302D01*
X851380Y49032D01*
X851292Y48765D01*
X851198Y48499D01*
X851097Y48236D01*
X850990Y47975D01*
X850877Y47717D01*
X850757Y47462D01*
X850631Y47210D01*
X850499Y46961D01*
X850361Y46716D01*
X850217Y46474D01*
X850068Y46235D01*
X849912Y46000D01*
X970978Y37000D02*
X970978Y68000D01*
X943978Y68000D02*
X943978Y37000D01*
X966978Y46000D02*
X967134Y46235D01*
X967283Y46474D01*
X967427Y46716D01*
X967565Y46961D01*
X967697Y47210D01*
X967823Y47462D01*
X967943Y47717D01*
X968056Y47975D01*
X968163Y48236D01*
X968264Y48499D01*
X968358Y48765D01*
X968446Y49032D01*
X968527Y49302D01*
X968602Y49574D01*
X968670Y49847D01*
X968731Y50122D01*
X968785Y50399D01*
X968833Y50676D01*
X968874Y50955D01*
X968909Y51235D01*
X968936Y51515D01*
X968957Y51796D01*
X968970Y52077D01*
X968977Y52359D01*
X968977Y52641D01*
X968970Y52923D01*
X968957Y53204D01*
X968936Y53485D01*
X968909Y53765D01*
X968874Y54045D01*
X968833Y54324D01*
X968785Y54601D01*
X968731Y54878D01*
X968670Y55153D01*
X968602Y55426D01*
X968527Y55698D01*
X968446Y55968D01*
X968358Y56235D01*
X968264Y56501D01*
X968163Y56764D01*
X968056Y57025D01*
X967943Y57283D01*
X967823Y57538D01*
X967697Y57790D01*
X967565Y58039D01*
X967427Y58284D01*
X967283Y58526D01*
X967134Y58765D01*
X966978Y59000D01*
X947978Y59000D02*
X947822Y58765D01*
X947673Y58526D01*
X947529Y58284D01*
X947391Y58039D01*
X947259Y57790D01*
X947133Y57538D01*
X947013Y57283D01*
X946900Y57025D01*
X946793Y56764D01*
X946692Y56501D01*
X946598Y56235D01*
X946510Y55968D01*
X946429Y55698D01*
X946354Y55426D01*
X946286Y55153D01*
X946225Y54878D01*
X946171Y54601D01*
X946123Y54324D01*
X946082Y54045D01*
X946047Y53765D01*
X946020Y53485D01*
X945999Y53204D01*
X945986Y52923D01*
X945979Y52641D01*
X945979Y52359D01*
X945986Y52077D01*
X945999Y51796D01*
X946020Y51515D01*
X946047Y51235D01*
X946082Y50955D01*
X946123Y50676D01*
X946171Y50399D01*
X946225Y50122D01*
X946286Y49847D01*
X946354Y49574D01*
X946429Y49302D01*
X946510Y49032D01*
X946598Y48765D01*
X946692Y48499D01*
X946793Y48236D01*
X946900Y47975D01*
X947013Y47717D01*
X947133Y47462D01*
X947259Y47210D01*
X947391Y46961D01*
X947529Y46716D01*
X947673Y46474D01*
X947822Y46235D01*
X947978Y46000D01*
X1103043Y37000D02*
X1103043Y68000D01*
X1076043Y68000D02*
X1076043Y37000D01*
X1099043Y46000D02*
X1099199Y46235D01*
X1099348Y46474D01*
X1099492Y46716D01*
X1099630Y46961D01*
X1099762Y47210D01*
X1099888Y47462D01*
X1100008Y47717D01*
X1100121Y47975D01*
X1100228Y48236D01*
X1100329Y48499D01*
X1100423Y48765D01*
X1100511Y49032D01*
X1100592Y49302D01*
X1100667Y49574D01*
X1100735Y49847D01*
X1100796Y50122D01*
X1100850Y50399D01*
X1100898Y50676D01*
X1100939Y50955D01*
X1100974Y51235D01*
X1101001Y51515D01*
X1101022Y51796D01*
X1101035Y52077D01*
X1101042Y52359D01*
X1101042Y52641D01*
X1101035Y52923D01*
X1101022Y53204D01*
X1101001Y53485D01*
X1100974Y53765D01*
X1100939Y54045D01*
X1100898Y54324D01*
X1100850Y54601D01*
X1100796Y54878D01*
X1100735Y55153D01*
X1100667Y55426D01*
X1100592Y55698D01*
X1100511Y55968D01*
X1100423Y56235D01*
X1100329Y56501D01*
X1100228Y56764D01*
X1100121Y57025D01*
X1100008Y57283D01*
X1099888Y57538D01*
X1099762Y57790D01*
X1099630Y58039D01*
X1099492Y58284D01*
X1099348Y58526D01*
X1099199Y58765D01*
X1099043Y59000D01*
X1080043Y59000D02*
X1079887Y58765D01*
X1079738Y58526D01*
X1079594Y58284D01*
X1079456Y58039D01*
X1079324Y57790D01*
X1079198Y57538D01*
X1079078Y57283D01*
X1078965Y57025D01*
X1078858Y56764D01*
X1078757Y56501D01*
X1078663Y56235D01*
X1078575Y55968D01*
X1078494Y55698D01*
X1078419Y55426D01*
X1078351Y55153D01*
X1078290Y54878D01*
X1078236Y54601D01*
X1078188Y54324D01*
X1078147Y54045D01*
X1078112Y53765D01*
X1078085Y53485D01*
X1078064Y53204D01*
X1078051Y52923D01*
X1078044Y52641D01*
X1078044Y52359D01*
X1078051Y52077D01*
X1078064Y51796D01*
X1078085Y51515D01*
X1078112Y51235D01*
X1078147Y50955D01*
X1078188Y50676D01*
X1078236Y50399D01*
X1078290Y50122D01*
X1078351Y49847D01*
X1078419Y49574D01*
X1078494Y49302D01*
X1078575Y49032D01*
X1078663Y48765D01*
X1078757Y48499D01*
X1078858Y48236D01*
X1078965Y47975D01*
X1079078Y47717D01*
X1079198Y47462D01*
X1079324Y47210D01*
X1079456Y46961D01*
X1079594Y46716D01*
X1079738Y46474D01*
X1079887Y46235D01*
X1080043Y46000D01*
X737452Y46845D02*
X725768Y46845D01*
X725768Y50090D01*
X725770Y50203D01*
X725776Y50316D01*
X725786Y50429D01*
X725800Y50542D01*
X725817Y50654D01*
X725839Y50765D01*
X725864Y50875D01*
X725894Y50985D01*
X725927Y51093D01*
X725964Y51200D01*
X726004Y51306D01*
X726049Y51410D01*
X726097Y51513D01*
X726148Y51614D01*
X726203Y51713D01*
X726261Y51810D01*
X726323Y51905D01*
X726388Y51998D01*
X726456Y52088D01*
X726527Y52176D01*
X726602Y52262D01*
X726679Y52345D01*
X726759Y52425D01*
X726842Y52502D01*
X726928Y52577D01*
X727016Y52648D01*
X727106Y52716D01*
X727199Y52781D01*
X727294Y52843D01*
X727391Y52901D01*
X727490Y52956D01*
X727591Y53007D01*
X727694Y53055D01*
X727798Y53100D01*
X727904Y53140D01*
X728011Y53177D01*
X728119Y53210D01*
X728229Y53240D01*
X728339Y53265D01*
X728450Y53287D01*
X728562Y53304D01*
X728675Y53318D01*
X728788Y53328D01*
X728901Y53334D01*
X729014Y53336D01*
X729127Y53334D01*
X729240Y53328D01*
X729353Y53318D01*
X729466Y53304D01*
X729578Y53287D01*
X729689Y53265D01*
X729799Y53240D01*
X729909Y53210D01*
X730017Y53177D01*
X730124Y53140D01*
X730230Y53100D01*
X730334Y53055D01*
X730437Y53007D01*
X730538Y52956D01*
X730637Y52901D01*
X730734Y52843D01*
X730829Y52781D01*
X730922Y52716D01*
X731012Y52648D01*
X731100Y52577D01*
X731186Y52502D01*
X731269Y52425D01*
X731349Y52345D01*
X731426Y52262D01*
X731501Y52176D01*
X731572Y52088D01*
X731640Y51998D01*
X731705Y51905D01*
X731767Y51810D01*
X731825Y51713D01*
X731880Y51614D01*
X731931Y51513D01*
X731979Y51410D01*
X732024Y51306D01*
X732064Y51200D01*
X732101Y51093D01*
X732134Y50985D01*
X732164Y50875D01*
X732189Y50765D01*
X732211Y50654D01*
X732228Y50542D01*
X732242Y50429D01*
X732252Y50316D01*
X732258Y50203D01*
X732260Y50090D01*
X732259Y50090D02*
X732259Y46845D01*
X732259Y50739D02*
X737452Y53336D01*
X728364Y58201D02*
X725768Y61446D01*
X737452Y61446D01*
X737452Y58201D02*
X737452Y64692D01*
X1236348Y40308D02*
X1248032Y40308D01*
X1236348Y40308D02*
X1236348Y43554D01*
X1236350Y43667D01*
X1236356Y43780D01*
X1236366Y43893D01*
X1236380Y44006D01*
X1236397Y44118D01*
X1236419Y44229D01*
X1236444Y44339D01*
X1236474Y44449D01*
X1236507Y44557D01*
X1236544Y44664D01*
X1236584Y44770D01*
X1236629Y44874D01*
X1236677Y44977D01*
X1236728Y45078D01*
X1236783Y45177D01*
X1236841Y45274D01*
X1236903Y45369D01*
X1236968Y45462D01*
X1237036Y45552D01*
X1237107Y45640D01*
X1237182Y45726D01*
X1237259Y45809D01*
X1237339Y45889D01*
X1237422Y45966D01*
X1237508Y46041D01*
X1237596Y46112D01*
X1237686Y46180D01*
X1237779Y46245D01*
X1237874Y46307D01*
X1237971Y46365D01*
X1238070Y46420D01*
X1238171Y46471D01*
X1238274Y46519D01*
X1238378Y46564D01*
X1238484Y46604D01*
X1238591Y46641D01*
X1238699Y46674D01*
X1238809Y46704D01*
X1238919Y46729D01*
X1239030Y46751D01*
X1239142Y46768D01*
X1239255Y46782D01*
X1239368Y46792D01*
X1239481Y46798D01*
X1239594Y46800D01*
X1239707Y46798D01*
X1239820Y46792D01*
X1239933Y46782D01*
X1240046Y46768D01*
X1240158Y46751D01*
X1240269Y46729D01*
X1240379Y46704D01*
X1240489Y46674D01*
X1240597Y46641D01*
X1240704Y46604D01*
X1240810Y46564D01*
X1240914Y46519D01*
X1241017Y46471D01*
X1241118Y46420D01*
X1241217Y46365D01*
X1241314Y46307D01*
X1241409Y46245D01*
X1241502Y46180D01*
X1241592Y46112D01*
X1241680Y46041D01*
X1241766Y45966D01*
X1241849Y45889D01*
X1241929Y45809D01*
X1242006Y45726D01*
X1242081Y45640D01*
X1242152Y45552D01*
X1242220Y45462D01*
X1242285Y45369D01*
X1242347Y45274D01*
X1242405Y45177D01*
X1242460Y45078D01*
X1242511Y44977D01*
X1242559Y44874D01*
X1242604Y44770D01*
X1242644Y44664D01*
X1242681Y44557D01*
X1242714Y44449D01*
X1242744Y44339D01*
X1242769Y44229D01*
X1242791Y44118D01*
X1242808Y44006D01*
X1242822Y43893D01*
X1242832Y43780D01*
X1242838Y43667D01*
X1242840Y43554D01*
X1242839Y43554D02*
X1242839Y40308D01*
X1242839Y44203D02*
X1248032Y46799D01*
X1238944Y51664D02*
X1236348Y54910D01*
X1248032Y54910D01*
X1248032Y58155D02*
X1248032Y51664D01*
X1238944Y63094D02*
X1236348Y66340D01*
X1248032Y66340D01*
X1248032Y69585D02*
X1248032Y63094D01*
X598032Y40308D02*
X586348Y40308D01*
X586348Y43554D01*
X586350Y43667D01*
X586356Y43780D01*
X586366Y43893D01*
X586380Y44006D01*
X586397Y44118D01*
X586419Y44229D01*
X586444Y44339D01*
X586474Y44449D01*
X586507Y44557D01*
X586544Y44664D01*
X586584Y44770D01*
X586629Y44874D01*
X586677Y44977D01*
X586728Y45078D01*
X586783Y45177D01*
X586841Y45274D01*
X586903Y45369D01*
X586968Y45462D01*
X587036Y45552D01*
X587107Y45640D01*
X587182Y45726D01*
X587259Y45809D01*
X587339Y45889D01*
X587422Y45966D01*
X587508Y46041D01*
X587596Y46112D01*
X587686Y46180D01*
X587779Y46245D01*
X587874Y46307D01*
X587971Y46365D01*
X588070Y46420D01*
X588171Y46471D01*
X588274Y46519D01*
X588378Y46564D01*
X588484Y46604D01*
X588591Y46641D01*
X588699Y46674D01*
X588809Y46704D01*
X588919Y46729D01*
X589030Y46751D01*
X589142Y46768D01*
X589255Y46782D01*
X589368Y46792D01*
X589481Y46798D01*
X589594Y46800D01*
X589707Y46798D01*
X589820Y46792D01*
X589933Y46782D01*
X590046Y46768D01*
X590158Y46751D01*
X590269Y46729D01*
X590379Y46704D01*
X590489Y46674D01*
X590597Y46641D01*
X590704Y46604D01*
X590810Y46564D01*
X590914Y46519D01*
X591017Y46471D01*
X591118Y46420D01*
X591217Y46365D01*
X591314Y46307D01*
X591409Y46245D01*
X591502Y46180D01*
X591592Y46112D01*
X591680Y46041D01*
X591766Y45966D01*
X591849Y45889D01*
X591929Y45809D01*
X592006Y45726D01*
X592081Y45640D01*
X592152Y45552D01*
X592220Y45462D01*
X592285Y45369D01*
X592347Y45274D01*
X592405Y45177D01*
X592460Y45078D01*
X592511Y44977D01*
X592559Y44874D01*
X592604Y44770D01*
X592644Y44664D01*
X592681Y44557D01*
X592714Y44449D01*
X592744Y44339D01*
X592769Y44229D01*
X592791Y44118D01*
X592808Y44006D01*
X592822Y43893D01*
X592832Y43780D01*
X592838Y43667D01*
X592840Y43554D01*
X592839Y43554D02*
X592839Y40308D01*
X592839Y44203D02*
X598032Y46799D01*
X589269Y58155D02*
X589162Y58153D01*
X589056Y58147D01*
X588950Y58137D01*
X588844Y58124D01*
X588738Y58106D01*
X588634Y58085D01*
X588530Y58060D01*
X588427Y58031D01*
X588326Y57999D01*
X588226Y57962D01*
X588127Y57922D01*
X588029Y57879D01*
X587933Y57832D01*
X587839Y57781D01*
X587747Y57727D01*
X587657Y57670D01*
X587569Y57610D01*
X587484Y57546D01*
X587401Y57479D01*
X587320Y57409D01*
X587242Y57337D01*
X587166Y57261D01*
X587094Y57183D01*
X587024Y57102D01*
X586957Y57019D01*
X586893Y56934D01*
X586833Y56846D01*
X586776Y56756D01*
X586722Y56664D01*
X586671Y56570D01*
X586624Y56474D01*
X586581Y56376D01*
X586541Y56277D01*
X586504Y56177D01*
X586472Y56076D01*
X586443Y55973D01*
X586418Y55869D01*
X586397Y55765D01*
X586379Y55659D01*
X586366Y55553D01*
X586356Y55447D01*
X586350Y55341D01*
X586348Y55234D01*
X586350Y55113D01*
X586356Y54992D01*
X586366Y54872D01*
X586379Y54751D01*
X586397Y54632D01*
X586418Y54512D01*
X586443Y54394D01*
X586472Y54277D01*
X586505Y54160D01*
X586541Y54045D01*
X586582Y53931D01*
X586625Y53818D01*
X586673Y53706D01*
X586724Y53597D01*
X586779Y53489D01*
X586837Y53382D01*
X586898Y53278D01*
X586963Y53176D01*
X587031Y53076D01*
X587102Y52978D01*
X587176Y52882D01*
X587253Y52789D01*
X587334Y52699D01*
X587417Y52611D01*
X587503Y52526D01*
X587592Y52443D01*
X587683Y52364D01*
X587777Y52287D01*
X587873Y52214D01*
X587971Y52144D01*
X588072Y52077D01*
X588175Y52013D01*
X588280Y51953D01*
X588387Y51895D01*
X588495Y51842D01*
X588605Y51792D01*
X588717Y51746D01*
X588830Y51703D01*
X588945Y51664D01*
X591541Y57181D02*
X591463Y57260D01*
X591383Y57336D01*
X591300Y57409D01*
X591214Y57479D01*
X591127Y57546D01*
X591036Y57610D01*
X590944Y57670D01*
X590850Y57728D01*
X590753Y57782D01*
X590655Y57832D01*
X590555Y57879D01*
X590454Y57923D01*
X590351Y57963D01*
X590246Y57999D01*
X590141Y58031D01*
X590034Y58060D01*
X589927Y58085D01*
X589818Y58107D01*
X589709Y58124D01*
X589600Y58138D01*
X589490Y58147D01*
X589379Y58153D01*
X589269Y58155D01*
X591541Y57182D02*
X598032Y51664D01*
X598032Y58155D01*
X328032Y40308D02*
X316348Y40308D01*
X316348Y43554D01*
X316350Y43667D01*
X316356Y43780D01*
X316366Y43893D01*
X316380Y44006D01*
X316397Y44118D01*
X316419Y44229D01*
X316444Y44339D01*
X316474Y44449D01*
X316507Y44557D01*
X316544Y44664D01*
X316584Y44770D01*
X316629Y44874D01*
X316677Y44977D01*
X316728Y45078D01*
X316783Y45177D01*
X316841Y45274D01*
X316903Y45369D01*
X316968Y45462D01*
X317036Y45552D01*
X317107Y45640D01*
X317182Y45726D01*
X317259Y45809D01*
X317339Y45889D01*
X317422Y45966D01*
X317508Y46041D01*
X317596Y46112D01*
X317686Y46180D01*
X317779Y46245D01*
X317874Y46307D01*
X317971Y46365D01*
X318070Y46420D01*
X318171Y46471D01*
X318274Y46519D01*
X318378Y46564D01*
X318484Y46604D01*
X318591Y46641D01*
X318699Y46674D01*
X318809Y46704D01*
X318919Y46729D01*
X319030Y46751D01*
X319142Y46768D01*
X319255Y46782D01*
X319368Y46792D01*
X319481Y46798D01*
X319594Y46800D01*
X319707Y46798D01*
X319820Y46792D01*
X319933Y46782D01*
X320046Y46768D01*
X320158Y46751D01*
X320269Y46729D01*
X320379Y46704D01*
X320489Y46674D01*
X320597Y46641D01*
X320704Y46604D01*
X320810Y46564D01*
X320914Y46519D01*
X321017Y46471D01*
X321118Y46420D01*
X321217Y46365D01*
X321314Y46307D01*
X321409Y46245D01*
X321502Y46180D01*
X321592Y46112D01*
X321680Y46041D01*
X321766Y45966D01*
X321849Y45889D01*
X321929Y45809D01*
X322006Y45726D01*
X322081Y45640D01*
X322152Y45552D01*
X322220Y45462D01*
X322285Y45369D01*
X322347Y45274D01*
X322405Y45177D01*
X322460Y45078D01*
X322511Y44977D01*
X322559Y44874D01*
X322604Y44770D01*
X322644Y44664D01*
X322681Y44557D01*
X322714Y44449D01*
X322744Y44339D01*
X322769Y44229D01*
X322791Y44118D01*
X322808Y44006D01*
X322822Y43893D01*
X322832Y43780D01*
X322838Y43667D01*
X322840Y43554D01*
X322839Y43554D02*
X322839Y40308D01*
X322839Y44203D02*
X328032Y46799D01*
X317646Y51664D02*
X316348Y51664D01*
X316348Y58155D01*
X328032Y54910D01*
X1031348Y40308D02*
X1043032Y40308D01*
X1031348Y40308D02*
X1031348Y43554D01*
X1031350Y43667D01*
X1031356Y43780D01*
X1031366Y43893D01*
X1031380Y44006D01*
X1031397Y44118D01*
X1031419Y44229D01*
X1031444Y44339D01*
X1031474Y44449D01*
X1031507Y44557D01*
X1031544Y44664D01*
X1031584Y44770D01*
X1031629Y44874D01*
X1031677Y44977D01*
X1031728Y45078D01*
X1031783Y45177D01*
X1031841Y45274D01*
X1031903Y45369D01*
X1031968Y45462D01*
X1032036Y45552D01*
X1032107Y45640D01*
X1032182Y45726D01*
X1032259Y45809D01*
X1032339Y45889D01*
X1032422Y45966D01*
X1032508Y46041D01*
X1032596Y46112D01*
X1032686Y46180D01*
X1032779Y46245D01*
X1032874Y46307D01*
X1032971Y46365D01*
X1033070Y46420D01*
X1033171Y46471D01*
X1033274Y46519D01*
X1033378Y46564D01*
X1033484Y46604D01*
X1033591Y46641D01*
X1033699Y46674D01*
X1033809Y46704D01*
X1033919Y46729D01*
X1034030Y46751D01*
X1034142Y46768D01*
X1034255Y46782D01*
X1034368Y46792D01*
X1034481Y46798D01*
X1034594Y46800D01*
X1034707Y46798D01*
X1034820Y46792D01*
X1034933Y46782D01*
X1035046Y46768D01*
X1035158Y46751D01*
X1035269Y46729D01*
X1035379Y46704D01*
X1035489Y46674D01*
X1035597Y46641D01*
X1035704Y46604D01*
X1035810Y46564D01*
X1035914Y46519D01*
X1036017Y46471D01*
X1036118Y46420D01*
X1036217Y46365D01*
X1036314Y46307D01*
X1036409Y46245D01*
X1036502Y46180D01*
X1036592Y46112D01*
X1036680Y46041D01*
X1036766Y45966D01*
X1036849Y45889D01*
X1036929Y45809D01*
X1037006Y45726D01*
X1037081Y45640D01*
X1037152Y45552D01*
X1037220Y45462D01*
X1037285Y45369D01*
X1037347Y45274D01*
X1037405Y45177D01*
X1037460Y45078D01*
X1037511Y44977D01*
X1037559Y44874D01*
X1037604Y44770D01*
X1037644Y44664D01*
X1037681Y44557D01*
X1037714Y44449D01*
X1037744Y44339D01*
X1037769Y44229D01*
X1037791Y44118D01*
X1037808Y44006D01*
X1037822Y43893D01*
X1037832Y43780D01*
X1037838Y43667D01*
X1037840Y43554D01*
X1037839Y43554D02*
X1037839Y40308D01*
X1037839Y44203D02*
X1043032Y46799D01*
X1039786Y51664D02*
X1039673Y51666D01*
X1039560Y51672D01*
X1039447Y51682D01*
X1039334Y51696D01*
X1039222Y51713D01*
X1039111Y51735D01*
X1039001Y51760D01*
X1038891Y51790D01*
X1038783Y51823D01*
X1038676Y51860D01*
X1038570Y51900D01*
X1038466Y51945D01*
X1038363Y51993D01*
X1038262Y52044D01*
X1038163Y52099D01*
X1038066Y52157D01*
X1037971Y52219D01*
X1037878Y52284D01*
X1037788Y52352D01*
X1037700Y52423D01*
X1037614Y52498D01*
X1037531Y52575D01*
X1037451Y52655D01*
X1037374Y52738D01*
X1037299Y52824D01*
X1037228Y52912D01*
X1037160Y53002D01*
X1037095Y53095D01*
X1037033Y53190D01*
X1036975Y53287D01*
X1036920Y53386D01*
X1036869Y53487D01*
X1036821Y53590D01*
X1036776Y53694D01*
X1036736Y53800D01*
X1036699Y53907D01*
X1036666Y54015D01*
X1036636Y54125D01*
X1036611Y54235D01*
X1036589Y54346D01*
X1036572Y54458D01*
X1036558Y54571D01*
X1036548Y54684D01*
X1036542Y54797D01*
X1036540Y54910D01*
X1036542Y55023D01*
X1036548Y55136D01*
X1036558Y55249D01*
X1036572Y55362D01*
X1036589Y55474D01*
X1036611Y55585D01*
X1036636Y55695D01*
X1036666Y55805D01*
X1036699Y55913D01*
X1036736Y56020D01*
X1036776Y56126D01*
X1036821Y56230D01*
X1036869Y56333D01*
X1036920Y56434D01*
X1036975Y56533D01*
X1037033Y56630D01*
X1037095Y56725D01*
X1037160Y56818D01*
X1037228Y56908D01*
X1037299Y56996D01*
X1037374Y57082D01*
X1037451Y57165D01*
X1037531Y57245D01*
X1037614Y57322D01*
X1037700Y57397D01*
X1037788Y57468D01*
X1037878Y57536D01*
X1037971Y57601D01*
X1038066Y57663D01*
X1038163Y57721D01*
X1038262Y57776D01*
X1038363Y57827D01*
X1038466Y57875D01*
X1038570Y57920D01*
X1038676Y57960D01*
X1038783Y57997D01*
X1038891Y58030D01*
X1039001Y58060D01*
X1039111Y58085D01*
X1039222Y58107D01*
X1039334Y58124D01*
X1039447Y58138D01*
X1039560Y58148D01*
X1039673Y58154D01*
X1039786Y58156D01*
X1039899Y58154D01*
X1040012Y58148D01*
X1040125Y58138D01*
X1040238Y58124D01*
X1040350Y58107D01*
X1040461Y58085D01*
X1040571Y58060D01*
X1040681Y58030D01*
X1040789Y57997D01*
X1040896Y57960D01*
X1041002Y57920D01*
X1041106Y57875D01*
X1041209Y57827D01*
X1041310Y57776D01*
X1041409Y57721D01*
X1041506Y57663D01*
X1041601Y57601D01*
X1041694Y57536D01*
X1041784Y57468D01*
X1041872Y57397D01*
X1041958Y57322D01*
X1042041Y57245D01*
X1042121Y57165D01*
X1042198Y57082D01*
X1042273Y56996D01*
X1042344Y56908D01*
X1042412Y56818D01*
X1042477Y56725D01*
X1042539Y56630D01*
X1042597Y56533D01*
X1042652Y56434D01*
X1042703Y56333D01*
X1042751Y56230D01*
X1042796Y56126D01*
X1042836Y56020D01*
X1042873Y55913D01*
X1042906Y55805D01*
X1042936Y55695D01*
X1042961Y55585D01*
X1042983Y55474D01*
X1043000Y55362D01*
X1043014Y55249D01*
X1043024Y55136D01*
X1043030Y55023D01*
X1043032Y54910D01*
X1043030Y54797D01*
X1043024Y54684D01*
X1043014Y54571D01*
X1043000Y54458D01*
X1042983Y54346D01*
X1042961Y54235D01*
X1042936Y54125D01*
X1042906Y54015D01*
X1042873Y53907D01*
X1042836Y53800D01*
X1042796Y53694D01*
X1042751Y53590D01*
X1042703Y53487D01*
X1042652Y53386D01*
X1042597Y53287D01*
X1042539Y53190D01*
X1042477Y53095D01*
X1042412Y53002D01*
X1042344Y52912D01*
X1042273Y52824D01*
X1042198Y52738D01*
X1042121Y52655D01*
X1042041Y52575D01*
X1041958Y52498D01*
X1041872Y52423D01*
X1041784Y52352D01*
X1041694Y52284D01*
X1041601Y52219D01*
X1041506Y52157D01*
X1041409Y52099D01*
X1041310Y52044D01*
X1041209Y51993D01*
X1041106Y51945D01*
X1041002Y51900D01*
X1040896Y51860D01*
X1040789Y51823D01*
X1040681Y51790D01*
X1040571Y51760D01*
X1040461Y51735D01*
X1040350Y51713D01*
X1040238Y51696D01*
X1040125Y51682D01*
X1040012Y51672D01*
X1039899Y51666D01*
X1039786Y51664D01*
X1033944Y52314D02*
X1033843Y52316D01*
X1033743Y52322D01*
X1033643Y52332D01*
X1033543Y52345D01*
X1033444Y52363D01*
X1033345Y52384D01*
X1033248Y52409D01*
X1033151Y52438D01*
X1033056Y52471D01*
X1032962Y52507D01*
X1032870Y52547D01*
X1032779Y52590D01*
X1032690Y52637D01*
X1032603Y52687D01*
X1032517Y52741D01*
X1032434Y52798D01*
X1032354Y52858D01*
X1032275Y52921D01*
X1032199Y52988D01*
X1032126Y53057D01*
X1032056Y53129D01*
X1031988Y53203D01*
X1031923Y53280D01*
X1031862Y53360D01*
X1031803Y53442D01*
X1031748Y53526D01*
X1031696Y53612D01*
X1031647Y53700D01*
X1031602Y53790D01*
X1031560Y53882D01*
X1031522Y53975D01*
X1031488Y54070D01*
X1031457Y54165D01*
X1031430Y54262D01*
X1031407Y54360D01*
X1031387Y54459D01*
X1031372Y54559D01*
X1031360Y54659D01*
X1031352Y54759D01*
X1031348Y54860D01*
X1031348Y54960D01*
X1031352Y55061D01*
X1031360Y55161D01*
X1031372Y55261D01*
X1031387Y55361D01*
X1031407Y55460D01*
X1031430Y55558D01*
X1031457Y55655D01*
X1031488Y55750D01*
X1031522Y55845D01*
X1031560Y55938D01*
X1031602Y56030D01*
X1031647Y56120D01*
X1031696Y56208D01*
X1031748Y56294D01*
X1031803Y56378D01*
X1031862Y56460D01*
X1031923Y56540D01*
X1031988Y56617D01*
X1032056Y56691D01*
X1032126Y56763D01*
X1032199Y56832D01*
X1032275Y56899D01*
X1032354Y56962D01*
X1032434Y57022D01*
X1032517Y57079D01*
X1032603Y57133D01*
X1032690Y57183D01*
X1032779Y57230D01*
X1032870Y57273D01*
X1032962Y57313D01*
X1033056Y57349D01*
X1033151Y57382D01*
X1033248Y57411D01*
X1033345Y57436D01*
X1033444Y57457D01*
X1033543Y57475D01*
X1033643Y57488D01*
X1033743Y57498D01*
X1033843Y57504D01*
X1033944Y57506D01*
X1034045Y57504D01*
X1034145Y57498D01*
X1034245Y57488D01*
X1034345Y57475D01*
X1034444Y57457D01*
X1034543Y57436D01*
X1034640Y57411D01*
X1034737Y57382D01*
X1034832Y57349D01*
X1034926Y57313D01*
X1035018Y57273D01*
X1035109Y57230D01*
X1035198Y57183D01*
X1035285Y57133D01*
X1035371Y57079D01*
X1035454Y57022D01*
X1035534Y56962D01*
X1035613Y56899D01*
X1035689Y56832D01*
X1035762Y56763D01*
X1035832Y56691D01*
X1035900Y56617D01*
X1035965Y56540D01*
X1036026Y56460D01*
X1036085Y56378D01*
X1036140Y56294D01*
X1036192Y56208D01*
X1036241Y56120D01*
X1036286Y56030D01*
X1036328Y55938D01*
X1036366Y55845D01*
X1036400Y55750D01*
X1036431Y55655D01*
X1036458Y55558D01*
X1036481Y55460D01*
X1036501Y55361D01*
X1036516Y55261D01*
X1036528Y55161D01*
X1036536Y55061D01*
X1036540Y54960D01*
X1036540Y54860D01*
X1036536Y54759D01*
X1036528Y54659D01*
X1036516Y54559D01*
X1036501Y54459D01*
X1036481Y54360D01*
X1036458Y54262D01*
X1036431Y54165D01*
X1036400Y54070D01*
X1036366Y53975D01*
X1036328Y53882D01*
X1036286Y53790D01*
X1036241Y53700D01*
X1036192Y53612D01*
X1036140Y53526D01*
X1036085Y53442D01*
X1036026Y53360D01*
X1035965Y53280D01*
X1035900Y53203D01*
X1035832Y53129D01*
X1035762Y53057D01*
X1035689Y52988D01*
X1035613Y52921D01*
X1035534Y52858D01*
X1035454Y52798D01*
X1035371Y52741D01*
X1035285Y52687D01*
X1035198Y52637D01*
X1035109Y52590D01*
X1035018Y52547D01*
X1034926Y52507D01*
X1034832Y52471D01*
X1034737Y52438D01*
X1034640Y52409D01*
X1034543Y52384D01*
X1034444Y52363D01*
X1034345Y52345D01*
X1034245Y52332D01*
X1034145Y52322D01*
X1034045Y52316D01*
X1033944Y52314D01*
D11*
X51360Y46500D02*
X51360Y58500D01*
X51360Y46500D02*
X80360Y46500D01*
X80360Y58500D01*
X51360Y58500D01*
X55360Y50000D02*
X55362Y50063D01*
X55368Y50125D01*
X55378Y50187D01*
X55391Y50249D01*
X55409Y50309D01*
X55430Y50368D01*
X55455Y50426D01*
X55484Y50482D01*
X55516Y50536D01*
X55551Y50588D01*
X55589Y50637D01*
X55631Y50685D01*
X55675Y50729D01*
X55723Y50771D01*
X55772Y50809D01*
X55824Y50844D01*
X55878Y50876D01*
X55934Y50905D01*
X55992Y50930D01*
X56051Y50951D01*
X56111Y50969D01*
X56173Y50982D01*
X56235Y50992D01*
X56297Y50998D01*
X56360Y51000D01*
X56423Y50998D01*
X56485Y50992D01*
X56547Y50982D01*
X56609Y50969D01*
X56669Y50951D01*
X56728Y50930D01*
X56786Y50905D01*
X56842Y50876D01*
X56896Y50844D01*
X56948Y50809D01*
X56997Y50771D01*
X57045Y50729D01*
X57089Y50685D01*
X57131Y50637D01*
X57169Y50588D01*
X57204Y50536D01*
X57236Y50482D01*
X57265Y50426D01*
X57290Y50368D01*
X57311Y50309D01*
X57329Y50249D01*
X57342Y50187D01*
X57352Y50125D01*
X57358Y50063D01*
X57360Y50000D01*
X57358Y49937D01*
X57352Y49875D01*
X57342Y49813D01*
X57329Y49751D01*
X57311Y49691D01*
X57290Y49632D01*
X57265Y49574D01*
X57236Y49518D01*
X57204Y49464D01*
X57169Y49412D01*
X57131Y49363D01*
X57089Y49315D01*
X57045Y49271D01*
X56997Y49229D01*
X56948Y49191D01*
X56896Y49156D01*
X56842Y49124D01*
X56786Y49095D01*
X56728Y49070D01*
X56669Y49049D01*
X56609Y49031D01*
X56547Y49018D01*
X56485Y49008D01*
X56423Y49002D01*
X56360Y49000D01*
X56297Y49002D01*
X56235Y49008D01*
X56173Y49018D01*
X56111Y49031D01*
X56051Y49049D01*
X55992Y49070D01*
X55934Y49095D01*
X55878Y49124D01*
X55824Y49156D01*
X55772Y49191D01*
X55723Y49229D01*
X55675Y49271D01*
X55631Y49315D01*
X55589Y49363D01*
X55551Y49412D01*
X55516Y49464D01*
X55484Y49518D01*
X55455Y49574D01*
X55430Y49632D01*
X55409Y49691D01*
X55391Y49751D01*
X55378Y49813D01*
X55368Y49875D01*
X55362Y49937D01*
X55360Y50000D01*
X977520Y46500D02*
X977520Y58500D01*
X977520Y46500D02*
X1006520Y46500D01*
X1006520Y58500D01*
X977520Y58500D01*
X981520Y50000D02*
X981522Y50063D01*
X981528Y50125D01*
X981538Y50187D01*
X981551Y50249D01*
X981569Y50309D01*
X981590Y50368D01*
X981615Y50426D01*
X981644Y50482D01*
X981676Y50536D01*
X981711Y50588D01*
X981749Y50637D01*
X981791Y50685D01*
X981835Y50729D01*
X981883Y50771D01*
X981932Y50809D01*
X981984Y50844D01*
X982038Y50876D01*
X982094Y50905D01*
X982152Y50930D01*
X982211Y50951D01*
X982271Y50969D01*
X982333Y50982D01*
X982395Y50992D01*
X982457Y50998D01*
X982520Y51000D01*
X982583Y50998D01*
X982645Y50992D01*
X982707Y50982D01*
X982769Y50969D01*
X982829Y50951D01*
X982888Y50930D01*
X982946Y50905D01*
X983002Y50876D01*
X983056Y50844D01*
X983108Y50809D01*
X983157Y50771D01*
X983205Y50729D01*
X983249Y50685D01*
X983291Y50637D01*
X983329Y50588D01*
X983364Y50536D01*
X983396Y50482D01*
X983425Y50426D01*
X983450Y50368D01*
X983471Y50309D01*
X983489Y50249D01*
X983502Y50187D01*
X983512Y50125D01*
X983518Y50063D01*
X983520Y50000D01*
X983518Y49937D01*
X983512Y49875D01*
X983502Y49813D01*
X983489Y49751D01*
X983471Y49691D01*
X983450Y49632D01*
X983425Y49574D01*
X983396Y49518D01*
X983364Y49464D01*
X983329Y49412D01*
X983291Y49363D01*
X983249Y49315D01*
X983205Y49271D01*
X983157Y49229D01*
X983108Y49191D01*
X983056Y49156D01*
X983002Y49124D01*
X982946Y49095D01*
X982888Y49070D01*
X982829Y49049D01*
X982769Y49031D01*
X982707Y49018D01*
X982645Y49008D01*
X982583Y49002D01*
X982520Y49000D01*
X982457Y49002D01*
X982395Y49008D01*
X982333Y49018D01*
X982271Y49031D01*
X982211Y49049D01*
X982152Y49070D01*
X982094Y49095D01*
X982038Y49124D01*
X981984Y49156D01*
X981932Y49191D01*
X981883Y49229D01*
X981835Y49271D01*
X981791Y49315D01*
X981749Y49363D01*
X981711Y49412D01*
X981676Y49464D01*
X981644Y49518D01*
X981615Y49574D01*
X981590Y49632D01*
X981569Y49691D01*
X981551Y49751D01*
X981538Y49813D01*
X981528Y49875D01*
X981522Y49937D01*
X981520Y50000D01*
X1437500Y46500D02*
X1437500Y58500D01*
X1437500Y46500D02*
X1466500Y46500D01*
X1466500Y58500D01*
X1437500Y58500D01*
X1441500Y50000D02*
X1441502Y50063D01*
X1441508Y50125D01*
X1441518Y50187D01*
X1441531Y50249D01*
X1441549Y50309D01*
X1441570Y50368D01*
X1441595Y50426D01*
X1441624Y50482D01*
X1441656Y50536D01*
X1441691Y50588D01*
X1441729Y50637D01*
X1441771Y50685D01*
X1441815Y50729D01*
X1441863Y50771D01*
X1441912Y50809D01*
X1441964Y50844D01*
X1442018Y50876D01*
X1442074Y50905D01*
X1442132Y50930D01*
X1442191Y50951D01*
X1442251Y50969D01*
X1442313Y50982D01*
X1442375Y50992D01*
X1442437Y50998D01*
X1442500Y51000D01*
X1442563Y50998D01*
X1442625Y50992D01*
X1442687Y50982D01*
X1442749Y50969D01*
X1442809Y50951D01*
X1442868Y50930D01*
X1442926Y50905D01*
X1442982Y50876D01*
X1443036Y50844D01*
X1443088Y50809D01*
X1443137Y50771D01*
X1443185Y50729D01*
X1443229Y50685D01*
X1443271Y50637D01*
X1443309Y50588D01*
X1443344Y50536D01*
X1443376Y50482D01*
X1443405Y50426D01*
X1443430Y50368D01*
X1443451Y50309D01*
X1443469Y50249D01*
X1443482Y50187D01*
X1443492Y50125D01*
X1443498Y50063D01*
X1443500Y50000D01*
X1443498Y49937D01*
X1443492Y49875D01*
X1443482Y49813D01*
X1443469Y49751D01*
X1443451Y49691D01*
X1443430Y49632D01*
X1443405Y49574D01*
X1443376Y49518D01*
X1443344Y49464D01*
X1443309Y49412D01*
X1443271Y49363D01*
X1443229Y49315D01*
X1443185Y49271D01*
X1443137Y49229D01*
X1443088Y49191D01*
X1443036Y49156D01*
X1442982Y49124D01*
X1442926Y49095D01*
X1442868Y49070D01*
X1442809Y49049D01*
X1442749Y49031D01*
X1442687Y49018D01*
X1442625Y49008D01*
X1442563Y49002D01*
X1442500Y49000D01*
X1442437Y49002D01*
X1442375Y49008D01*
X1442313Y49018D01*
X1442251Y49031D01*
X1442191Y49049D01*
X1442132Y49070D01*
X1442074Y49095D01*
X1442018Y49124D01*
X1441964Y49156D01*
X1441912Y49191D01*
X1441863Y49229D01*
X1441815Y49271D01*
X1441771Y49315D01*
X1441729Y49363D01*
X1441691Y49412D01*
X1441656Y49464D01*
X1441624Y49518D01*
X1441595Y49574D01*
X1441570Y49632D01*
X1441549Y49691D01*
X1441531Y49751D01*
X1441518Y49813D01*
X1441508Y49875D01*
X1441502Y49937D01*
X1441500Y50000D01*
M02*
