G04 EAGLE Gerber RS-274X export*
G75*
%MOMM*%
%FSLAX34Y34*%
%LPD*%
%INSoldermask Top*%
%IPPOS*%
%AMOC8*
5,1,8,0,0,1.08239X$1,22.5*%
G01*
%ADD10R,1.403200X1.403200*%
%ADD11R,1.703200X1.503200*%
%ADD12R,2.003200X1.803200*%
%ADD13R,1.673200X1.473200*%
%ADD14C,2.403200*%
%ADD15R,1.575000X1.050000*%
%ADD16R,0.803200X2.403200*%
%ADD17P,1.869504X8X22.500000*%
%ADD18R,2.403200X1.703200*%
%ADD19R,1.203200X1.603200*%
%ADD20R,2.006200X1.803200*%
%ADD21R,0.803200X0.803200*%
%ADD22C,0.959600*%


D10*
X746660Y39500D03*
X746660Y65500D03*
X807660Y65500D03*
X807660Y39500D03*
D11*
X381240Y43000D03*
X381240Y62000D03*
D12*
X1421240Y38500D03*
X1421240Y66500D03*
X1291240Y38500D03*
X1291240Y66500D03*
X101240Y38500D03*
X101240Y66500D03*
X133280Y38500D03*
X133280Y66500D03*
X1138280Y38500D03*
X1138280Y66500D03*
X1178280Y38500D03*
X1178280Y66500D03*
D13*
X243440Y28542D03*
X243440Y71542D03*
D14*
X898040Y52500D02*
X913040Y52500D01*
D15*
X876265Y67500D03*
X876265Y37500D03*
X876265Y52500D03*
D16*
X515400Y78500D03*
X515400Y26500D03*
X528100Y78500D03*
X502700Y78500D03*
X490000Y78500D03*
X528100Y26500D03*
X502700Y26500D03*
X490000Y26500D03*
X464600Y78500D03*
X464600Y26500D03*
X477300Y78500D03*
X451900Y78500D03*
X477300Y26500D03*
X451900Y26500D03*
D17*
X1320240Y52500D03*
X197800Y52500D03*
D18*
X414216Y37000D03*
X414216Y68000D03*
X1221609Y37000D03*
X1221609Y68000D03*
X1353674Y68000D03*
X1353674Y37000D03*
X1485739Y37000D03*
X1485739Y68000D03*
X297151Y68000D03*
X297151Y37000D03*
X165085Y37000D03*
X165085Y68000D03*
X33020Y68000D03*
X33020Y37000D03*
X571282Y37000D03*
X571282Y68000D03*
X683347Y68000D03*
X683347Y37000D03*
X840412Y37000D03*
X840412Y68000D03*
X957478Y68000D03*
X957478Y37000D03*
X1089543Y68000D03*
X1089543Y37000D03*
D19*
X648120Y63500D03*
X657620Y41500D03*
X638620Y41500D03*
D20*
X712560Y38280D03*
X712560Y66720D03*
X1261240Y66720D03*
X1261240Y38280D03*
X611240Y66720D03*
X611240Y38280D03*
X341240Y66720D03*
X341240Y38280D03*
X1056240Y66720D03*
X1056240Y38280D03*
D21*
X56360Y40500D03*
X65860Y40500D03*
X75360Y40500D03*
X75360Y64500D03*
X65860Y64500D03*
X56360Y64500D03*
X982520Y40500D03*
X992020Y40500D03*
X1001520Y40500D03*
X1001520Y64500D03*
X992020Y64500D03*
X982520Y64500D03*
X1442500Y40500D03*
X1452000Y40500D03*
X1461500Y40500D03*
X1461500Y64500D03*
X1452000Y64500D03*
X1442500Y64500D03*
D22*
X536448Y70104D03*
X822960Y39624D03*
X173736Y51816D03*
X397764Y42672D03*
X536448Y25908D03*
X1071372Y68580D03*
X937260Y68580D03*
X455676Y48768D03*
X518160Y48768D03*
X861060Y59436D03*
X536448Y79248D03*
X118872Y39624D03*
X973836Y21336D03*
X1431036Y51816D03*
X726948Y62484D03*
X588264Y39624D03*
X470916Y42672D03*
X1007364Y79248D03*
X554736Y70104D03*
X545592Y60960D03*
X489204Y60960D03*
M02*
