G04 EAGLE Gerber RS-274X export*
G75*
%MOMM*%
%FSLAX34Y34*%
%LPD*%
%INSolderpaste Top*%
%IPPOS*%
%AMOC8*
5,1,8,0,0,1.08239X$1,22.5*%
G01*
%ADD10R,1.200000X1.200000*%
%ADD11R,1.500000X1.300000*%
%ADD12R,1.800000X1.600000*%
%ADD13R,1.470000X1.270000*%
%ADD14R,1.400000X0.800000*%
%ADD15R,2.200000X1.800000*%
%ADD16R,0.600000X2.200000*%
%ADD17R,2.200000X1.500000*%
%ADD18R,1.000000X1.400000*%
%ADD19R,1.803000X1.600000*%
%ADD20R,0.600000X0.600000*%


D10*
X746660Y39500D03*
X746660Y65500D03*
X807660Y65500D03*
X807660Y39500D03*
D11*
X381240Y43000D03*
X381240Y62000D03*
D12*
X1421240Y38500D03*
X1421240Y66500D03*
X1291240Y38500D03*
X1291240Y66500D03*
X101240Y38500D03*
X101240Y66500D03*
X133280Y38500D03*
X133280Y66500D03*
X1138280Y38500D03*
X1138280Y66500D03*
X1178280Y38500D03*
X1178280Y66500D03*
D13*
X243440Y28542D03*
X243440Y71542D03*
D14*
X876340Y52500D03*
X876340Y37500D03*
X876340Y67500D03*
D15*
X907140Y52500D03*
D16*
X515400Y78500D03*
X515400Y26500D03*
X528100Y78500D03*
X502700Y78500D03*
X490000Y78500D03*
X528100Y26500D03*
X502700Y26500D03*
X490000Y26500D03*
X464600Y78500D03*
X464600Y26500D03*
X477300Y78500D03*
X451900Y78500D03*
X477300Y26500D03*
X451900Y26500D03*
D17*
X414216Y37000D03*
X414216Y68000D03*
X1221609Y37000D03*
X1221609Y68000D03*
X1353674Y68000D03*
X1353674Y37000D03*
X1485739Y37000D03*
X1485739Y68000D03*
X297151Y68000D03*
X297151Y37000D03*
X165085Y37000D03*
X165085Y68000D03*
X33020Y68000D03*
X33020Y37000D03*
X571282Y37000D03*
X571282Y68000D03*
X683347Y68000D03*
X683347Y37000D03*
X840412Y37000D03*
X840412Y68000D03*
X957478Y68000D03*
X957478Y37000D03*
X1089543Y68000D03*
X1089543Y37000D03*
D18*
X648120Y63500D03*
X657620Y41500D03*
X638620Y41500D03*
D19*
X712560Y38280D03*
X712560Y66720D03*
X1261240Y66720D03*
X1261240Y38280D03*
X611240Y66720D03*
X611240Y38280D03*
X341240Y66720D03*
X341240Y38280D03*
X1056240Y66720D03*
X1056240Y38280D03*
D20*
X56360Y40500D03*
X65860Y40500D03*
X75360Y40500D03*
X75360Y64500D03*
X65860Y64500D03*
X56360Y64500D03*
X982520Y40500D03*
X992020Y40500D03*
X1001520Y40500D03*
X1001520Y64500D03*
X992020Y64500D03*
X982520Y64500D03*
X1442500Y40500D03*
X1452000Y40500D03*
X1461500Y40500D03*
X1461500Y64500D03*
X1452000Y64500D03*
X1442500Y64500D03*
M02*
