G04 EAGLE Gerber RS-274X export*
G75*
%MOMM*%
%FSLAX34Y34*%
%LPD*%
%INTop Copper*%
%IPPOS*%
%AMOC8*
5,1,8,0,0,1.08239X$1,22.5*%
G01*
%ADD10C,1.008000*%
%ADD11R,5.080000X2.540000*%
%ADD12P,1.814519X8X112.500000*%
%ADD13C,1.879600*%
%ADD14P,1.429621X8X22.500000*%
%ADD15P,2.089446X8X292.500000*%
%ADD16C,1.270000*%
%ADD17C,1.016000*%
%ADD18C,1.500000*%
%ADD19C,0.812800*%
%ADD20C,0.254000*%
%ADD21C,0.806400*%


D10*
X323060Y52450D02*
X333140Y52450D01*
X333140Y65150D02*
X323060Y65150D01*
X323060Y77850D02*
X333140Y77850D01*
X333140Y90550D02*
X323060Y90550D01*
X323060Y103250D02*
X333140Y103250D01*
X333140Y115950D02*
X323060Y115950D01*
D11*
X71000Y14000D03*
X71000Y156000D03*
D12*
X360000Y72300D03*
X360000Y97700D03*
D13*
X18000Y123000D03*
X18000Y97600D03*
X18000Y72200D03*
X18000Y46800D03*
D14*
X344300Y135000D03*
X369700Y135000D03*
X343300Y34000D03*
X368700Y34000D03*
D15*
X289000Y130000D03*
D16*
X90000Y33000D02*
X71000Y14000D01*
D17*
X308650Y33000D02*
X328100Y52450D01*
D16*
X308650Y33000D02*
X90000Y33000D01*
X160000Y137150D02*
X242000Y55150D01*
D17*
X160000Y137150D02*
X160000Y138000D01*
D16*
X92000Y138000D01*
D17*
X74000Y156000D01*
X71000Y156000D01*
D18*
X272000Y55150D03*
D16*
X242000Y55150D01*
D18*
X187000Y60000D03*
D16*
X83000Y60000D01*
X69800Y46800D02*
X18000Y46800D01*
X69800Y46800D02*
X83000Y60000D01*
D19*
X328028Y77778D02*
X328100Y77850D01*
X328028Y77778D02*
X319658Y77778D01*
X307380Y65500D02*
X306970Y65910D01*
X307380Y65500D02*
X319658Y77778D01*
X306970Y65910D02*
X293090Y65910D01*
X276888Y82112D01*
X276888Y84888D01*
X277000Y85000D01*
D18*
X277000Y85000D03*
D16*
X69000Y106000D02*
X53000Y106000D01*
X36000Y123000D01*
X18000Y123000D01*
X80842Y94158D02*
X80842Y84000D01*
X80842Y94158D02*
X69000Y106000D01*
X80842Y84000D02*
X187000Y84000D01*
X192000Y79000D01*
D18*
X192000Y79000D03*
D20*
X357591Y135000D02*
X369700Y135000D01*
X357591Y135000D02*
X348193Y144398D01*
X303398Y144398D01*
X289000Y130000D01*
X360000Y50700D02*
X343300Y34000D01*
X360000Y50700D02*
X360000Y72300D01*
X18000Y97600D02*
X6000Y109600D01*
X6000Y117758D02*
X5808Y117950D01*
X5808Y129808D01*
X17000Y141000D01*
X38000Y141000D01*
X62000Y117000D02*
X157000Y117000D01*
D21*
X168000Y106000D03*
D20*
X6000Y109600D02*
X6000Y117758D01*
X38000Y141000D02*
X62000Y117000D01*
X157000Y117000D02*
X168000Y106000D01*
X215750Y103250D02*
X328100Y103250D01*
D21*
X196000Y123000D03*
D20*
X215750Y103250D01*
X341750Y115950D02*
X360000Y97700D01*
X341750Y115950D02*
X328100Y115950D01*
M02*
