M48
;GenerationSoftware,Autodesk,EAGLE,9.5.2*%
;CreationDate,2020-01-22T21:20:19Z*%
FMAT,2
ICI,OFF
METRIC,TZ,000.000
T5C0.400
T4C0.500
T3C0.813
T2C1.000
T1C1.016
%
G90
M71
T1
X1800Y12300
X1800Y9760
X1800Y7220
X1800Y4680
X28900Y13000
T2
X27200Y5515
X18700Y6000
X27700Y8500
X19200Y7900
T3
X36000Y7230
X36000Y9770
X34430Y13500
X36970Y13500
X34330Y3400
X36870Y3400
T4
X32810Y5245
X32810Y6515
X32810Y7785
X32810Y9055
X32810Y10325
X32810Y11595
T5
X16800Y10600
X19600Y12300
M30