M48
;GenerationSoftware,Autodesk,EAGLE,9.5.2*%
;CreationDate,2020-01-22T21:11:40Z*%
FMAT,2
ICI,OFF
METRIC,TZ,000.000
T5C0.350
T4C0.500
T3C0.800
T2C0.813
T1C1.016
%
G90
M71
T1
X11100Y6100
T2
X1400Y2930
X1400Y5470
X72300Y4970
X72300Y2430
T3
X29500Y1200
X58100Y1200
X31200Y7100
X58000Y7000
X18000Y5885
X18100Y1400
T4
X14800Y7155
X14800Y5885
X14800Y4615
X14800Y3345
X14800Y2075
X14800Y805
T5
X42700Y5961
X30000Y5500
X46700Y4100
X31200Y2700
M30