G04 EAGLE Gerber RS-274X export*
G75*
%MOMM*%
%FSLAX34Y34*%
%LPD*%
%INTop Copper*%
%IPPOS*%
%AMOC8*
5,1,8,0,0,1.08239X$1,22.5*%
G01*
%ADD10C,1.008000*%
%ADD11R,1.800000X1.400000*%
%ADD12R,5.080000X2.540000*%
%ADD13R,1.100000X1.000000*%
%ADD14P,1.429621X8X112.500000*%
%ADD15P,1.429621X8X292.500000*%
%ADD16P,1.649562X8X22.500000*%
%ADD17C,0.152400*%
%ADD18C,0.756400*%
%ADD19C,1.016000*%
%ADD20C,1.206400*%


D10*
X153040Y71550D02*
X142960Y71550D01*
X142960Y58850D02*
X153040Y58850D01*
X153040Y46150D02*
X142960Y46150D01*
X142960Y33450D02*
X153040Y33450D01*
X153040Y20750D02*
X142960Y20750D01*
X142960Y8050D02*
X153040Y8050D01*
D11*
X408800Y56600D03*
X408800Y22600D03*
X445200Y56800D03*
X445200Y22800D03*
D12*
X228800Y13400D03*
X228600Y66600D03*
D13*
X485000Y48400D03*
X485000Y31400D03*
X366000Y32200D03*
X366000Y49200D03*
D12*
X58700Y13700D03*
X680800Y13600D03*
X680700Y66300D03*
X58700Y66500D03*
D14*
X14000Y29300D03*
X14000Y54700D03*
D15*
X723000Y49700D03*
X723000Y24300D03*
D16*
X111000Y61000D03*
D17*
X445000Y57000D02*
X445200Y56800D01*
X445000Y57000D02*
X427000Y57000D01*
X409200Y57000D02*
X408800Y56600D01*
X409200Y57000D02*
X427000Y57000D01*
X510000Y50000D02*
X720000Y50000D01*
X510000Y50000D02*
X498000Y62000D01*
X452000Y62000D01*
X450000Y60000D01*
X720000Y50000D02*
X723000Y49700D01*
X450000Y60000D02*
X445200Y56800D01*
D18*
X427000Y59614D03*
D17*
X427000Y57000D01*
D19*
X148000Y33450D02*
X78450Y33450D01*
X58700Y13700D01*
X148000Y33450D02*
X272000Y33450D01*
X293450Y12000D02*
X295000Y12000D01*
X293450Y12000D02*
X272000Y33450D01*
D20*
X295000Y12000D03*
X581000Y12000D03*
D19*
X587000Y18000D01*
X676400Y18000D01*
X680800Y13600D01*
D17*
X405000Y20000D02*
X395000Y10000D01*
X300000Y10000D01*
X405000Y20000D02*
X408800Y22600D01*
X300000Y10000D02*
X295000Y12000D01*
D19*
X148000Y46150D02*
X79050Y46150D01*
X58700Y66500D01*
X296850Y71000D02*
X312000Y71000D01*
X296850Y71000D02*
X272000Y46150D01*
D20*
X312000Y71000D03*
D19*
X272000Y46150D02*
X148000Y46150D01*
D20*
X580000Y70000D03*
D19*
X677000Y70000D02*
X680700Y66300D01*
X658051Y62634D02*
X586949Y62634D01*
X665417Y70000D02*
X677000Y70000D01*
X586949Y62634D02*
X580000Y69583D01*
X580000Y70000D01*
X658051Y62634D02*
X665417Y70000D01*
D17*
X445000Y25000D02*
X425000Y45000D01*
X400000Y45000D01*
X374000Y71000D01*
X312000Y71000D01*
X445000Y25000D02*
X445200Y22800D01*
X361202Y55000D02*
X300000Y55000D01*
X365000Y50200D02*
X366000Y49200D01*
X365000Y50200D02*
X361202Y55000D01*
D18*
X300000Y55000D03*
D17*
X485000Y31000D02*
X714000Y31000D01*
X720000Y25000D01*
X485000Y31000D02*
X485000Y31400D01*
X720000Y25000D02*
X723000Y24300D01*
X485000Y46000D02*
X485000Y48400D01*
X485000Y46000D02*
X480000Y41000D01*
X467000Y41000D01*
D18*
X467000Y41000D03*
D17*
X366000Y32200D02*
X365720Y32480D01*
X317480Y32480D01*
X312000Y27000D01*
D18*
X312000Y27000D03*
D19*
X223650Y71550D02*
X148000Y71550D01*
X223650Y71550D02*
X228600Y66600D01*
D20*
X180000Y58850D03*
X181000Y14000D03*
D19*
X181600Y13400D01*
X228800Y13400D01*
X180000Y58850D02*
X148000Y58850D01*
M02*
