G04 EAGLE Gerber RS-274X export*
G75*
%MOMM*%
%FSLAX34Y34*%
%LPD*%
%INSoldermask Top*%
%IPPOS*%
%AMOC8*
5,1,8,0,0,1.08239X$1,22.5*%
G01*
%ADD10C,1.211200*%
%ADD11R,2.003200X1.603200*%
%ADD12R,5.283200X2.743200*%
%ADD13R,1.303200X1.203200*%
%ADD14P,1.649562X8X112.500000*%
%ADD15P,1.649562X8X292.500000*%
%ADD16P,1.869504X8X22.500000*%
%ADD17C,0.959600*%
%ADD18C,1.409600*%


D10*
X153040Y71550D02*
X142960Y71550D01*
X142960Y58850D02*
X153040Y58850D01*
X153040Y46150D02*
X142960Y46150D01*
X142960Y33450D02*
X153040Y33450D01*
X153040Y20750D02*
X142960Y20750D01*
X142960Y8050D02*
X153040Y8050D01*
D11*
X408800Y56600D03*
X408800Y22600D03*
X445200Y56800D03*
X445200Y22800D03*
D12*
X228800Y13400D03*
X228600Y66600D03*
D13*
X485000Y48400D03*
X485000Y31400D03*
X366000Y32200D03*
X366000Y49200D03*
D12*
X58700Y13700D03*
X680800Y13600D03*
X680700Y66300D03*
X58700Y66500D03*
D14*
X14000Y29300D03*
X14000Y54700D03*
D15*
X723000Y49700D03*
X723000Y24300D03*
D16*
X111000Y61000D03*
D17*
X427000Y59614D03*
D18*
X295000Y12000D03*
X581000Y12000D03*
X312000Y71000D03*
X580000Y70000D03*
D17*
X300000Y55000D03*
X467000Y41000D03*
X312000Y27000D03*
D18*
X180000Y58850D03*
X181000Y14000D03*
M02*
