M48
;GenerationSoftware,Autodesk,EAGLE,9.5.2*%
;CreationDate,2020-01-22T21:33:50Z*%
FMAT,2
ICI,OFF
METRIC,TZ,000.000
T3C0.300
T2C0.813
T1C1.016
%
G90
M71
T1
X3810Y5588
X150876Y5842
T2
X153924Y6096
X1016Y3556
X1016Y6096
X153924Y3556
T3
X54864Y3658
X71018Y3048
X77572Y-914
X87782Y3048
X48311Y3048
X37490Y2591
X11887Y3505
X118872Y4877
X45110Y6096
X71780Y7010
X48311Y4877
X43586Y3200
X102870Y914
X76810Y2438
X67361Y1829
X72238Y1067
X55626Y4420
X82144Y305
X37948Y3810
X71323Y5486
X77572Y7772
X123749Y6096
X144018Y4115
X83363Y5791
X8839Y914
X72847Y0
X152400Y2896
X123749Y3200
X82601Y4115
X66446Y4115
X65380Y2591
X64922Y3810
X144780Y4115
X109271Y3200
X140665Y2286
X138379Y2286
X74524Y8230
X26518Y3200
M30