M48
;GenerationSoftware,Autodesk,EAGLE,9.5.2*%
;CreationDate,2020-01-22T21:24:32Z*%
FMAT,2
ICI,OFF
METRIC,TZ,000.000
T3C0.350
T2C0.813
T1C1.016
%
G90
M71
T1
X14020Y5100
X40000Y5400
X45000Y5400
X19100Y5100
X16560Y5100
T2
X93440Y4220
X93440Y6760
X1320Y4120
X1320Y6660
T3
X42824Y2591
X44196Y6858
X65532Y5944
X37795Y6401
X72847Y8382
X44958Y2286
X4877Y8687
X49225Y1676
X81991Y8687
X46787Y3200
X32200Y7900
X15392Y7315
X63703Y6401
X53645Y5182
X64618Y4420
X70104Y8992
X16612Y7620
X12802Y4115
X53645Y4267
X7315Y5182
X58674Y3048
X76100Y9700
X9754Y6553
X50140Y1829
X20574Y6706
X51054Y7010
X66294Y4115
X76000Y1700
X28100Y1900
X57302Y3505
M30