G04 EAGLE Gerber RS-274X export*
G75*
%MOMM*%
%FSLAX34Y34*%
%LPD*%
%INBottom Copper*%
%IPPOS*%
%AMOC8*
5,1,8,0,0,1.08239X$1,22.5*%
G01*
%ADD10P,1.649562X8X22.500000*%
%ADD11R,1.600000X1.803000*%
%ADD12R,1.500000X2.200000*%
%ADD13R,2.200000X1.500000*%
%ADD14P,1.319650X8X112.500000*%
%ADD15C,0.152400*%
%ADD16C,0.604800*%


D10*
X38100Y55880D03*
X1508760Y58420D03*
D11*
X788920Y-10160D03*
X760480Y-10160D03*
D12*
X9900Y15240D03*
X40900Y15240D03*
D13*
X78740Y25140D03*
X78740Y56140D03*
X187960Y50500D03*
X187960Y19500D03*
X294640Y19500D03*
X294640Y50500D03*
X431800Y50500D03*
X431800Y19500D03*
X535940Y19500D03*
X535940Y50500D03*
X629920Y50500D03*
X629920Y19500D03*
X739140Y19500D03*
X739140Y50500D03*
D11*
X788920Y81280D03*
X760480Y81280D03*
D13*
X1115060Y50500D03*
X1115060Y19500D03*
X1013460Y19500D03*
X1013460Y50500D03*
X919480Y50500D03*
X919480Y19500D03*
X807720Y19500D03*
X807720Y50500D03*
X1252220Y50500D03*
X1252220Y19500D03*
X1358900Y19500D03*
X1358900Y50500D03*
X1475740Y56140D03*
X1475740Y25140D03*
D12*
X1508500Y12700D03*
X1539500Y12700D03*
D14*
X10160Y35560D03*
X10160Y60960D03*
X1539240Y35560D03*
X1539240Y60960D03*
D15*
X1237488Y32004D02*
X1092708Y32004D01*
D16*
X1237488Y32004D03*
X1092708Y32004D03*
D15*
X1383792Y22860D02*
X1406652Y22860D01*
X760476Y82296D02*
X745236Y82296D01*
X760476Y82296D02*
X760480Y81280D01*
X556260Y44196D02*
X548640Y36576D01*
D16*
X1406652Y22860D03*
X1383792Y22860D03*
X745236Y82296D03*
X556260Y44196D03*
X548640Y36576D03*
D15*
X710184Y30480D02*
X751332Y30480D01*
X760476Y21336D01*
X760476Y-9144D01*
X760480Y-10160D01*
D16*
X710184Y30480D03*
D15*
X775716Y-9144D02*
X787908Y-9144D01*
X788920Y-10160D01*
D16*
X775716Y-9144D03*
D15*
X755904Y30480D02*
X877824Y30480D01*
X755904Y30480D02*
X749808Y36576D01*
X667512Y36576D01*
X665988Y35052D01*
X659892Y35052D01*
X650748Y44196D01*
X646176Y44196D01*
X632460Y30480D01*
X483108Y30480D01*
D16*
X877824Y30480D03*
X483108Y30480D03*
D15*
X10668Y35052D02*
X10668Y15240D01*
X9900Y15240D01*
X399288Y50292D02*
X431292Y50292D01*
X399288Y50292D02*
X374904Y25908D01*
X431292Y50292D02*
X431800Y50500D01*
X118872Y35052D02*
X10668Y35052D01*
X10160Y35560D01*
X1188720Y51816D02*
X1251204Y51816D01*
X1188720Y51816D02*
X1115568Y51816D01*
X1115060Y50500D01*
X1251204Y51816D02*
X1252220Y50500D01*
X1188720Y51816D02*
X1188720Y48768D01*
X441960Y51816D02*
X432816Y51816D01*
X441960Y51816D02*
X451104Y60960D01*
X717804Y70104D02*
X751332Y70104D01*
X757428Y64008D01*
X1083564Y64008D01*
X1095756Y51816D01*
X1114044Y51816D01*
X432816Y51816D02*
X431800Y50500D01*
X1114044Y51816D02*
X1115060Y50500D01*
D16*
X374904Y25908D03*
X118872Y35052D03*
X1188720Y48768D03*
X451104Y60960D03*
X717804Y70104D03*
D15*
X483108Y48768D02*
X452628Y48768D01*
X435864Y32004D01*
X783336Y9144D02*
X934212Y9144D01*
X1028700Y9144D01*
X783336Y9144D02*
X768096Y24384D01*
X512064Y48768D02*
X483108Y48768D01*
X512064Y48768D02*
X524256Y60960D01*
X699516Y60960D01*
X711708Y48768D01*
X714756Y48768D01*
X726948Y60960D01*
X822960Y60960D01*
X847344Y36576D01*
X925068Y36576D01*
X934212Y27432D01*
X934212Y9144D01*
D16*
X483108Y48768D03*
X435864Y32004D03*
X1028700Y9144D03*
X768096Y24384D03*
D15*
X714756Y18288D02*
X673608Y18288D01*
X714756Y18288D02*
X722376Y10668D01*
D16*
X673608Y18288D03*
X722376Y10668D03*
D15*
X1409700Y3048D02*
X1447800Y41148D01*
X1409700Y3048D02*
X821436Y3048D01*
D16*
X1447800Y41148D03*
X821436Y3048D03*
D15*
X382524Y38100D02*
X379476Y38100D01*
X382524Y38100D02*
X411480Y67056D01*
X701040Y67056D01*
X713232Y54864D01*
D16*
X379476Y38100D03*
X713232Y54864D03*
D15*
X778764Y80772D02*
X787908Y80772D01*
X778764Y80772D02*
X775716Y77724D01*
X787908Y80772D02*
X788920Y81280D01*
X1091184Y60960D02*
X1237488Y60960D01*
X1091184Y60960D02*
X1085088Y67056D01*
X803148Y67056D01*
X789432Y80772D01*
X788920Y81280D01*
D16*
X775716Y77724D03*
X1237488Y60960D03*
D15*
X294132Y19812D02*
X188976Y19812D01*
X187960Y19500D01*
X294132Y19812D02*
X294640Y19500D01*
X630936Y19812D02*
X667512Y19812D01*
X672084Y24384D01*
X734568Y24384D01*
X739140Y19812D01*
X630936Y19812D02*
X629920Y19500D01*
X739140Y19812D02*
X739140Y19500D01*
X807720Y19812D02*
X918972Y19812D01*
X807720Y19812D02*
X807720Y19500D01*
X918972Y19812D02*
X919480Y19500D01*
X1487424Y13716D02*
X1507236Y13716D01*
X1487424Y13716D02*
X1476756Y24384D01*
X1507236Y13716D02*
X1508500Y12700D01*
X1476756Y24384D02*
X1475740Y25140D01*
X1472184Y51816D02*
X1359408Y51816D01*
X1472184Y51816D02*
X1475232Y54864D01*
X1359408Y51816D02*
X1358900Y50500D01*
X1475232Y54864D02*
X1475740Y56140D01*
X1013460Y51816D02*
X920496Y51816D01*
X919480Y50500D01*
X1013460Y50500D02*
X1013460Y51816D01*
X629412Y51816D02*
X536448Y51816D01*
X535940Y50500D01*
X629412Y51816D02*
X629920Y50500D01*
X187452Y51816D02*
X82296Y51816D01*
X79248Y54864D01*
X187452Y51816D02*
X187960Y50500D01*
X79248Y54864D02*
X78740Y56140D01*
X68580Y15240D02*
X40900Y15240D01*
X68580Y15240D02*
X77724Y24384D01*
X78740Y25140D01*
X432816Y19812D02*
X534924Y19812D01*
X432816Y19812D02*
X431800Y19500D01*
X534924Y19812D02*
X535940Y19500D01*
X1013460Y19812D02*
X1114044Y19812D01*
X1013460Y19812D02*
X1013460Y19500D01*
X1114044Y19812D02*
X1115060Y19500D01*
X1252728Y19812D02*
X1357884Y19812D01*
X1252728Y19812D02*
X1252220Y19500D01*
X1357884Y19812D02*
X1358900Y19500D01*
X1371600Y41148D02*
X1440180Y41148D01*
X1371600Y41148D02*
X1370076Y39624D01*
X851916Y39624D01*
X833628Y57912D01*
D16*
X1440180Y41148D03*
X833628Y57912D03*
D15*
X716280Y9144D02*
X88392Y9144D01*
X716280Y9144D02*
X725424Y0D01*
X728472Y0D01*
D16*
X88392Y9144D03*
X728472Y0D03*
D15*
X1524000Y28956D02*
X1539240Y13716D01*
X1539500Y12700D01*
D16*
X1524000Y28956D03*
D15*
X275844Y32004D02*
X265176Y32004D01*
X275844Y32004D02*
X294132Y50292D01*
X294640Y50500D01*
D16*
X265176Y32004D03*
D15*
X816864Y41148D02*
X826008Y41148D01*
X816864Y41148D02*
X807720Y50292D01*
X807720Y50500D01*
D16*
X826008Y41148D03*
D15*
X729996Y41148D02*
X664464Y41148D01*
X729996Y41148D02*
X739140Y50292D01*
X739140Y50500D01*
X653796Y33528D02*
X653796Y25908D01*
X653796Y33528D02*
X649224Y38100D01*
D16*
X664464Y41148D03*
X653796Y25908D03*
X649224Y38100D03*
M02*
