G04 EAGLE Gerber RS-274X export*
G75*
%MOMM*%
%FSLAX34Y34*%
%LPD*%
%INSilkscreen Top*%
%IPPOS*%
%AMOC8*
5,1,8,0,0,1.08239X$1,22.5*%
G01*
%ADD10C,0.203200*%
%ADD11C,0.101600*%
%ADD12R,0.300000X4.100000*%
%ADD13C,0.127000*%
%ADD14C,0.152400*%
%ADD15C,0.254000*%


D10*
X906047Y11500D02*
X906047Y58500D01*
X946047Y58500D01*
X946047Y11500D01*
X906047Y11500D01*
D11*
X916347Y15950D02*
X916347Y22300D01*
X913347Y47700D02*
X919697Y47700D01*
X916597Y44550D02*
X916597Y50900D01*
X938797Y19000D02*
X938731Y18942D01*
X938668Y18881D01*
X938608Y18818D01*
X938550Y18752D01*
X938496Y18683D01*
X938444Y18612D01*
X938396Y18539D01*
X938351Y18464D01*
X938310Y18387D01*
X938272Y18308D01*
X938238Y18227D01*
X938207Y18145D01*
X938180Y18062D01*
X938157Y17977D01*
X938138Y17892D01*
X938122Y17805D01*
X938110Y17719D01*
X938102Y17631D01*
X938098Y17544D01*
X938098Y17456D01*
X938102Y17369D01*
X938110Y17281D01*
X938122Y17195D01*
X938138Y17108D01*
X938157Y17023D01*
X938180Y16938D01*
X938207Y16855D01*
X938238Y16773D01*
X938272Y16692D01*
X938310Y16613D01*
X938351Y16536D01*
X938396Y16461D01*
X938444Y16388D01*
X938496Y16317D01*
X938550Y16248D01*
X938608Y16182D01*
X938668Y16119D01*
X938731Y16058D01*
X938797Y16000D01*
X938797Y19000D02*
X938863Y19058D01*
X938926Y19119D01*
X938986Y19182D01*
X939044Y19248D01*
X939098Y19317D01*
X939150Y19388D01*
X939198Y19461D01*
X939243Y19536D01*
X939284Y19613D01*
X939322Y19692D01*
X939356Y19773D01*
X939387Y19855D01*
X939414Y19938D01*
X939437Y20023D01*
X939456Y20108D01*
X939472Y20195D01*
X939484Y20281D01*
X939492Y20369D01*
X939496Y20456D01*
X939496Y20544D01*
X939492Y20631D01*
X939484Y20719D01*
X939472Y20805D01*
X939456Y20892D01*
X939437Y20977D01*
X939414Y21062D01*
X939387Y21145D01*
X939356Y21227D01*
X939322Y21308D01*
X939284Y21387D01*
X939243Y21464D01*
X939198Y21539D01*
X939150Y21612D01*
X939098Y21683D01*
X939044Y21752D01*
X938986Y21818D01*
X938926Y21881D01*
X938863Y21942D01*
X938797Y22000D01*
X938797Y47750D02*
X938731Y47808D01*
X938668Y47869D01*
X938608Y47932D01*
X938550Y47998D01*
X938496Y48067D01*
X938444Y48138D01*
X938396Y48211D01*
X938351Y48286D01*
X938310Y48363D01*
X938272Y48442D01*
X938238Y48523D01*
X938207Y48605D01*
X938180Y48688D01*
X938157Y48773D01*
X938138Y48858D01*
X938122Y48945D01*
X938110Y49031D01*
X938102Y49119D01*
X938098Y49206D01*
X938098Y49294D01*
X938102Y49381D01*
X938110Y49469D01*
X938122Y49555D01*
X938138Y49642D01*
X938157Y49727D01*
X938180Y49812D01*
X938207Y49895D01*
X938238Y49977D01*
X938272Y50058D01*
X938310Y50137D01*
X938351Y50214D01*
X938396Y50289D01*
X938444Y50362D01*
X938496Y50433D01*
X938550Y50502D01*
X938608Y50568D01*
X938668Y50631D01*
X938731Y50692D01*
X938797Y50750D01*
X938863Y50808D01*
X938926Y50869D01*
X938986Y50932D01*
X939044Y50998D01*
X939098Y51067D01*
X939150Y51138D01*
X939198Y51211D01*
X939243Y51286D01*
X939284Y51363D01*
X939322Y51442D01*
X939356Y51523D01*
X939387Y51605D01*
X939414Y51688D01*
X939437Y51773D01*
X939456Y51858D01*
X939472Y51945D01*
X939484Y52031D01*
X939492Y52119D01*
X939496Y52206D01*
X939496Y52294D01*
X939492Y52381D01*
X939484Y52469D01*
X939472Y52555D01*
X939456Y52642D01*
X939437Y52727D01*
X939414Y52812D01*
X939387Y52895D01*
X939356Y52977D01*
X939322Y53058D01*
X939284Y53137D01*
X939243Y53214D01*
X939198Y53289D01*
X939150Y53362D01*
X939098Y53433D01*
X939044Y53502D01*
X938986Y53568D01*
X938926Y53631D01*
X938863Y53692D01*
X938797Y53750D01*
D12*
X909547Y35000D03*
D13*
X1006868Y57350D02*
X1031508Y57350D01*
X1031508Y12650D02*
X1006868Y12650D01*
D14*
X44450Y68580D02*
X31750Y68580D01*
X44450Y68580D02*
X50800Y62230D01*
X50800Y49530D01*
X44450Y43180D01*
X25400Y49530D02*
X25400Y62230D01*
X31750Y68580D01*
X25400Y49530D02*
X31750Y43180D01*
X44450Y43180D01*
X1502410Y71120D02*
X1515110Y71120D01*
X1521460Y64770D01*
X1521460Y52070D01*
X1515110Y45720D01*
X1496060Y52070D02*
X1496060Y64770D01*
X1502410Y71120D01*
X1496060Y52070D02*
X1502410Y45720D01*
X1515110Y45720D01*
D11*
X493155Y29345D02*
X481471Y29345D01*
X481471Y32590D01*
X481470Y32590D02*
X481472Y32703D01*
X481478Y32816D01*
X481488Y32929D01*
X481502Y33042D01*
X481519Y33154D01*
X481541Y33265D01*
X481566Y33375D01*
X481596Y33485D01*
X481629Y33593D01*
X481666Y33700D01*
X481706Y33806D01*
X481751Y33910D01*
X481799Y34013D01*
X481850Y34114D01*
X481905Y34213D01*
X481963Y34310D01*
X482025Y34405D01*
X482090Y34498D01*
X482158Y34588D01*
X482229Y34676D01*
X482304Y34762D01*
X482381Y34845D01*
X482461Y34925D01*
X482544Y35002D01*
X482630Y35077D01*
X482718Y35148D01*
X482808Y35216D01*
X482901Y35281D01*
X482996Y35343D01*
X483093Y35401D01*
X483192Y35456D01*
X483293Y35507D01*
X483396Y35555D01*
X483500Y35600D01*
X483606Y35640D01*
X483713Y35677D01*
X483821Y35710D01*
X483931Y35740D01*
X484041Y35765D01*
X484152Y35787D01*
X484264Y35804D01*
X484377Y35818D01*
X484490Y35828D01*
X484603Y35834D01*
X484716Y35836D01*
X484829Y35834D01*
X484942Y35828D01*
X485055Y35818D01*
X485168Y35804D01*
X485280Y35787D01*
X485391Y35765D01*
X485501Y35740D01*
X485611Y35710D01*
X485719Y35677D01*
X485826Y35640D01*
X485932Y35600D01*
X486036Y35555D01*
X486139Y35507D01*
X486240Y35456D01*
X486339Y35401D01*
X486436Y35343D01*
X486531Y35281D01*
X486624Y35216D01*
X486714Y35148D01*
X486802Y35077D01*
X486888Y35002D01*
X486971Y34925D01*
X487051Y34845D01*
X487128Y34762D01*
X487203Y34676D01*
X487274Y34588D01*
X487342Y34498D01*
X487407Y34405D01*
X487469Y34310D01*
X487527Y34213D01*
X487582Y34114D01*
X487633Y34013D01*
X487681Y33910D01*
X487726Y33806D01*
X487766Y33700D01*
X487803Y33593D01*
X487836Y33485D01*
X487866Y33375D01*
X487891Y33265D01*
X487913Y33154D01*
X487930Y33042D01*
X487944Y32929D01*
X487954Y32816D01*
X487960Y32703D01*
X487962Y32590D01*
X487962Y29345D01*
X487962Y33239D02*
X493155Y35836D01*
X484067Y40701D02*
X481471Y43946D01*
X493155Y43946D01*
X493155Y40701D02*
X493155Y47192D01*
X1247396Y22808D02*
X1259080Y22808D01*
X1247396Y22808D02*
X1247396Y26054D01*
X1247398Y26167D01*
X1247404Y26280D01*
X1247414Y26393D01*
X1247428Y26506D01*
X1247445Y26618D01*
X1247467Y26729D01*
X1247492Y26839D01*
X1247522Y26949D01*
X1247555Y27057D01*
X1247592Y27164D01*
X1247632Y27270D01*
X1247677Y27374D01*
X1247725Y27477D01*
X1247776Y27578D01*
X1247831Y27677D01*
X1247889Y27774D01*
X1247951Y27869D01*
X1248016Y27962D01*
X1248084Y28052D01*
X1248155Y28140D01*
X1248230Y28226D01*
X1248307Y28309D01*
X1248387Y28389D01*
X1248470Y28466D01*
X1248556Y28541D01*
X1248644Y28612D01*
X1248734Y28680D01*
X1248827Y28745D01*
X1248922Y28807D01*
X1249019Y28865D01*
X1249118Y28920D01*
X1249219Y28971D01*
X1249322Y29019D01*
X1249426Y29064D01*
X1249532Y29104D01*
X1249639Y29141D01*
X1249747Y29174D01*
X1249857Y29204D01*
X1249967Y29229D01*
X1250078Y29251D01*
X1250190Y29268D01*
X1250303Y29282D01*
X1250416Y29292D01*
X1250529Y29298D01*
X1250642Y29300D01*
X1250755Y29298D01*
X1250868Y29292D01*
X1250981Y29282D01*
X1251094Y29268D01*
X1251206Y29251D01*
X1251317Y29229D01*
X1251427Y29204D01*
X1251537Y29174D01*
X1251645Y29141D01*
X1251752Y29104D01*
X1251858Y29064D01*
X1251962Y29019D01*
X1252065Y28971D01*
X1252166Y28920D01*
X1252265Y28865D01*
X1252362Y28807D01*
X1252457Y28745D01*
X1252550Y28680D01*
X1252640Y28612D01*
X1252728Y28541D01*
X1252814Y28466D01*
X1252897Y28389D01*
X1252977Y28309D01*
X1253054Y28226D01*
X1253129Y28140D01*
X1253200Y28052D01*
X1253268Y27962D01*
X1253333Y27869D01*
X1253395Y27774D01*
X1253453Y27677D01*
X1253508Y27578D01*
X1253559Y27477D01*
X1253607Y27374D01*
X1253652Y27270D01*
X1253692Y27164D01*
X1253729Y27057D01*
X1253762Y26949D01*
X1253792Y26839D01*
X1253817Y26729D01*
X1253839Y26618D01*
X1253856Y26506D01*
X1253870Y26393D01*
X1253880Y26280D01*
X1253886Y26167D01*
X1253888Y26054D01*
X1253887Y26054D02*
X1253887Y22808D01*
X1253887Y26703D02*
X1259080Y29299D01*
X1248694Y34164D02*
X1247396Y34164D01*
X1247396Y40655D01*
X1259080Y37410D01*
X601014Y36336D02*
X601014Y33739D01*
X601013Y33739D02*
X601011Y33640D01*
X601005Y33540D01*
X600996Y33441D01*
X600983Y33343D01*
X600966Y33245D01*
X600945Y33147D01*
X600920Y33051D01*
X600892Y32956D01*
X600860Y32862D01*
X600825Y32769D01*
X600786Y32677D01*
X600743Y32587D01*
X600698Y32499D01*
X600648Y32412D01*
X600596Y32328D01*
X600540Y32245D01*
X600482Y32165D01*
X600420Y32087D01*
X600355Y32012D01*
X600287Y31939D01*
X600217Y31869D01*
X600144Y31801D01*
X600069Y31736D01*
X599991Y31674D01*
X599911Y31616D01*
X599828Y31560D01*
X599744Y31508D01*
X599657Y31458D01*
X599569Y31413D01*
X599479Y31370D01*
X599387Y31331D01*
X599294Y31296D01*
X599200Y31264D01*
X599105Y31236D01*
X599009Y31211D01*
X598911Y31190D01*
X598813Y31173D01*
X598715Y31160D01*
X598616Y31151D01*
X598516Y31145D01*
X598417Y31143D01*
X591926Y31143D01*
X591926Y31142D02*
X591827Y31144D01*
X591727Y31150D01*
X591628Y31159D01*
X591530Y31172D01*
X591432Y31190D01*
X591334Y31210D01*
X591238Y31235D01*
X591142Y31263D01*
X591048Y31295D01*
X590955Y31330D01*
X590864Y31369D01*
X590774Y31412D01*
X590685Y31457D01*
X590599Y31507D01*
X590514Y31559D01*
X590432Y31615D01*
X590352Y31674D01*
X590274Y31735D01*
X590198Y31800D01*
X590125Y31868D01*
X590055Y31938D01*
X589987Y32011D01*
X589922Y32087D01*
X589861Y32165D01*
X589802Y32245D01*
X589746Y32327D01*
X589694Y32412D01*
X589645Y32498D01*
X589599Y32587D01*
X589556Y32677D01*
X589517Y32768D01*
X589482Y32861D01*
X589450Y32955D01*
X589422Y33051D01*
X589397Y33147D01*
X589377Y33245D01*
X589359Y33343D01*
X589346Y33441D01*
X589337Y33540D01*
X589331Y33639D01*
X589329Y33739D01*
X589330Y33739D02*
X589330Y36336D01*
X591926Y40701D02*
X589330Y43946D01*
X601014Y43946D01*
X601014Y40701D02*
X601014Y47192D01*
X1210301Y28001D02*
X1210301Y25404D01*
X1210299Y25305D01*
X1210293Y25205D01*
X1210284Y25106D01*
X1210271Y25008D01*
X1210254Y24910D01*
X1210233Y24812D01*
X1210208Y24716D01*
X1210180Y24621D01*
X1210148Y24527D01*
X1210113Y24434D01*
X1210074Y24342D01*
X1210031Y24252D01*
X1209986Y24164D01*
X1209936Y24077D01*
X1209884Y23993D01*
X1209828Y23910D01*
X1209770Y23830D01*
X1209708Y23752D01*
X1209643Y23677D01*
X1209575Y23604D01*
X1209505Y23534D01*
X1209432Y23466D01*
X1209357Y23401D01*
X1209279Y23339D01*
X1209199Y23281D01*
X1209116Y23225D01*
X1209032Y23173D01*
X1208945Y23123D01*
X1208857Y23078D01*
X1208767Y23035D01*
X1208675Y22996D01*
X1208582Y22961D01*
X1208488Y22929D01*
X1208393Y22901D01*
X1208297Y22876D01*
X1208199Y22855D01*
X1208101Y22838D01*
X1208003Y22825D01*
X1207904Y22816D01*
X1207804Y22810D01*
X1207705Y22808D01*
X1201213Y22808D01*
X1201114Y22810D01*
X1201014Y22816D01*
X1200915Y22825D01*
X1200817Y22838D01*
X1200719Y22856D01*
X1200621Y22876D01*
X1200525Y22901D01*
X1200429Y22929D01*
X1200335Y22961D01*
X1200242Y22996D01*
X1200151Y23035D01*
X1200061Y23078D01*
X1199972Y23123D01*
X1199886Y23173D01*
X1199801Y23225D01*
X1199719Y23281D01*
X1199639Y23340D01*
X1199561Y23401D01*
X1199485Y23466D01*
X1199412Y23534D01*
X1199342Y23604D01*
X1199274Y23677D01*
X1199209Y23753D01*
X1199148Y23831D01*
X1199089Y23911D01*
X1199033Y23993D01*
X1198981Y24078D01*
X1198932Y24164D01*
X1198886Y24253D01*
X1198843Y24343D01*
X1198804Y24434D01*
X1198769Y24527D01*
X1198737Y24621D01*
X1198709Y24717D01*
X1198684Y24813D01*
X1198664Y24911D01*
X1198646Y25009D01*
X1198633Y25107D01*
X1198624Y25206D01*
X1198618Y25305D01*
X1198616Y25405D01*
X1198617Y25404D02*
X1198617Y28001D01*
X1210301Y32366D02*
X1210301Y35612D01*
X1210299Y35725D01*
X1210293Y35838D01*
X1210283Y35951D01*
X1210269Y36064D01*
X1210252Y36176D01*
X1210230Y36287D01*
X1210205Y36397D01*
X1210175Y36507D01*
X1210142Y36615D01*
X1210105Y36722D01*
X1210065Y36828D01*
X1210020Y36932D01*
X1209972Y37035D01*
X1209921Y37136D01*
X1209866Y37235D01*
X1209808Y37332D01*
X1209746Y37427D01*
X1209681Y37520D01*
X1209613Y37610D01*
X1209542Y37698D01*
X1209467Y37784D01*
X1209390Y37867D01*
X1209310Y37947D01*
X1209227Y38024D01*
X1209141Y38099D01*
X1209053Y38170D01*
X1208963Y38238D01*
X1208870Y38303D01*
X1208775Y38365D01*
X1208678Y38423D01*
X1208579Y38478D01*
X1208478Y38529D01*
X1208375Y38577D01*
X1208271Y38622D01*
X1208165Y38662D01*
X1208058Y38699D01*
X1207950Y38732D01*
X1207840Y38762D01*
X1207730Y38787D01*
X1207619Y38809D01*
X1207507Y38826D01*
X1207394Y38840D01*
X1207281Y38850D01*
X1207168Y38856D01*
X1207055Y38858D01*
X1206942Y38856D01*
X1206829Y38850D01*
X1206716Y38840D01*
X1206603Y38826D01*
X1206491Y38809D01*
X1206380Y38787D01*
X1206270Y38762D01*
X1206160Y38732D01*
X1206052Y38699D01*
X1205945Y38662D01*
X1205839Y38622D01*
X1205735Y38577D01*
X1205632Y38529D01*
X1205531Y38478D01*
X1205432Y38423D01*
X1205335Y38365D01*
X1205240Y38303D01*
X1205147Y38238D01*
X1205057Y38170D01*
X1204969Y38099D01*
X1204883Y38024D01*
X1204800Y37947D01*
X1204720Y37867D01*
X1204643Y37784D01*
X1204568Y37698D01*
X1204497Y37610D01*
X1204429Y37520D01*
X1204364Y37427D01*
X1204302Y37332D01*
X1204244Y37235D01*
X1204189Y37136D01*
X1204138Y37035D01*
X1204090Y36932D01*
X1204045Y36828D01*
X1204005Y36722D01*
X1203968Y36615D01*
X1203935Y36507D01*
X1203905Y36397D01*
X1203880Y36287D01*
X1203858Y36176D01*
X1203841Y36064D01*
X1203827Y35951D01*
X1203817Y35838D01*
X1203811Y35725D01*
X1203809Y35612D01*
X1198617Y36261D02*
X1198617Y32366D01*
X1198617Y36261D02*
X1198619Y36362D01*
X1198625Y36462D01*
X1198635Y36562D01*
X1198648Y36662D01*
X1198666Y36761D01*
X1198687Y36860D01*
X1198712Y36957D01*
X1198741Y37054D01*
X1198774Y37149D01*
X1198810Y37243D01*
X1198850Y37335D01*
X1198893Y37426D01*
X1198940Y37515D01*
X1198990Y37602D01*
X1199044Y37688D01*
X1199101Y37771D01*
X1199161Y37851D01*
X1199224Y37930D01*
X1199291Y38006D01*
X1199360Y38079D01*
X1199432Y38149D01*
X1199506Y38217D01*
X1199583Y38282D01*
X1199663Y38343D01*
X1199745Y38402D01*
X1199829Y38457D01*
X1199915Y38509D01*
X1200003Y38558D01*
X1200093Y38603D01*
X1200185Y38645D01*
X1200278Y38683D01*
X1200373Y38717D01*
X1200468Y38748D01*
X1200565Y38775D01*
X1200663Y38798D01*
X1200762Y38818D01*
X1200862Y38833D01*
X1200962Y38845D01*
X1201062Y38853D01*
X1201163Y38857D01*
X1201263Y38857D01*
X1201364Y38853D01*
X1201464Y38845D01*
X1201564Y38833D01*
X1201664Y38818D01*
X1201763Y38798D01*
X1201861Y38775D01*
X1201958Y38748D01*
X1202053Y38717D01*
X1202148Y38683D01*
X1202241Y38645D01*
X1202333Y38603D01*
X1202423Y38558D01*
X1202511Y38509D01*
X1202597Y38457D01*
X1202681Y38402D01*
X1202763Y38343D01*
X1202843Y38282D01*
X1202920Y38217D01*
X1202994Y38149D01*
X1203066Y38079D01*
X1203135Y38006D01*
X1203202Y37930D01*
X1203265Y37851D01*
X1203325Y37771D01*
X1203382Y37688D01*
X1203436Y37602D01*
X1203486Y37515D01*
X1203533Y37426D01*
X1203576Y37335D01*
X1203616Y37243D01*
X1203652Y37149D01*
X1203685Y37054D01*
X1203714Y36957D01*
X1203739Y36860D01*
X1203760Y36761D01*
X1203778Y36662D01*
X1203791Y36562D01*
X1203801Y36462D01*
X1203807Y36362D01*
X1203809Y36261D01*
X1203810Y36261D02*
X1203810Y33664D01*
X293266Y28001D02*
X293266Y25404D01*
X293264Y25305D01*
X293258Y25205D01*
X293249Y25106D01*
X293236Y25008D01*
X293219Y24910D01*
X293198Y24812D01*
X293173Y24716D01*
X293145Y24621D01*
X293113Y24527D01*
X293078Y24434D01*
X293039Y24342D01*
X292996Y24252D01*
X292951Y24164D01*
X292901Y24077D01*
X292849Y23993D01*
X292793Y23910D01*
X292735Y23830D01*
X292673Y23752D01*
X292608Y23677D01*
X292540Y23604D01*
X292470Y23534D01*
X292397Y23466D01*
X292322Y23401D01*
X292244Y23339D01*
X292164Y23281D01*
X292081Y23225D01*
X291997Y23173D01*
X291910Y23123D01*
X291822Y23078D01*
X291732Y23035D01*
X291640Y22996D01*
X291547Y22961D01*
X291453Y22929D01*
X291358Y22901D01*
X291262Y22876D01*
X291164Y22855D01*
X291066Y22838D01*
X290968Y22825D01*
X290869Y22816D01*
X290769Y22810D01*
X290670Y22808D01*
X284179Y22808D01*
X284080Y22810D01*
X283980Y22816D01*
X283881Y22825D01*
X283783Y22838D01*
X283685Y22856D01*
X283587Y22876D01*
X283491Y22901D01*
X283395Y22929D01*
X283301Y22961D01*
X283208Y22996D01*
X283117Y23035D01*
X283027Y23078D01*
X282938Y23123D01*
X282852Y23173D01*
X282767Y23225D01*
X282685Y23281D01*
X282605Y23340D01*
X282527Y23401D01*
X282451Y23466D01*
X282378Y23534D01*
X282308Y23604D01*
X282240Y23677D01*
X282175Y23753D01*
X282114Y23831D01*
X282055Y23911D01*
X281999Y23993D01*
X281947Y24078D01*
X281898Y24164D01*
X281852Y24253D01*
X281809Y24343D01*
X281770Y24434D01*
X281735Y24527D01*
X281703Y24621D01*
X281675Y24717D01*
X281650Y24813D01*
X281630Y24911D01*
X281612Y25009D01*
X281599Y25107D01*
X281590Y25206D01*
X281584Y25305D01*
X281582Y25405D01*
X281582Y25404D02*
X281582Y28001D01*
X281582Y35936D02*
X281584Y36043D01*
X281590Y36149D01*
X281600Y36255D01*
X281613Y36361D01*
X281631Y36467D01*
X281652Y36571D01*
X281677Y36675D01*
X281706Y36778D01*
X281738Y36879D01*
X281775Y36979D01*
X281815Y37078D01*
X281858Y37176D01*
X281905Y37272D01*
X281956Y37366D01*
X282010Y37458D01*
X282067Y37548D01*
X282127Y37636D01*
X282191Y37721D01*
X282258Y37804D01*
X282328Y37885D01*
X282400Y37963D01*
X282476Y38039D01*
X282554Y38111D01*
X282635Y38181D01*
X282718Y38248D01*
X282803Y38312D01*
X282891Y38372D01*
X282981Y38429D01*
X283073Y38483D01*
X283167Y38534D01*
X283263Y38581D01*
X283361Y38624D01*
X283460Y38664D01*
X283560Y38701D01*
X283661Y38733D01*
X283764Y38762D01*
X283868Y38787D01*
X283972Y38808D01*
X284078Y38826D01*
X284184Y38839D01*
X284290Y38849D01*
X284396Y38855D01*
X284503Y38857D01*
X281582Y35936D02*
X281584Y35815D01*
X281590Y35694D01*
X281600Y35574D01*
X281613Y35453D01*
X281631Y35334D01*
X281652Y35214D01*
X281677Y35096D01*
X281706Y34979D01*
X281739Y34862D01*
X281775Y34747D01*
X281816Y34633D01*
X281859Y34520D01*
X281907Y34408D01*
X281958Y34299D01*
X282013Y34191D01*
X282071Y34084D01*
X282132Y33980D01*
X282197Y33878D01*
X282265Y33778D01*
X282336Y33680D01*
X282410Y33584D01*
X282487Y33491D01*
X282568Y33401D01*
X282651Y33313D01*
X282737Y33228D01*
X282826Y33145D01*
X282917Y33066D01*
X283011Y32989D01*
X283107Y32916D01*
X283205Y32846D01*
X283306Y32779D01*
X283409Y32715D01*
X283514Y32655D01*
X283621Y32597D01*
X283729Y32544D01*
X283839Y32494D01*
X283951Y32448D01*
X284064Y32405D01*
X284179Y32366D01*
X286775Y37883D02*
X286697Y37962D01*
X286617Y38038D01*
X286534Y38111D01*
X286448Y38181D01*
X286361Y38248D01*
X286270Y38312D01*
X286178Y38372D01*
X286084Y38430D01*
X285987Y38484D01*
X285889Y38534D01*
X285789Y38581D01*
X285688Y38625D01*
X285585Y38665D01*
X285480Y38701D01*
X285375Y38733D01*
X285268Y38762D01*
X285161Y38787D01*
X285052Y38809D01*
X284943Y38826D01*
X284834Y38840D01*
X284724Y38849D01*
X284613Y38855D01*
X284503Y38857D01*
X286775Y37884D02*
X293266Y32366D01*
X293266Y38857D01*
X547084Y36336D02*
X547084Y33739D01*
X547082Y33640D01*
X547076Y33540D01*
X547067Y33441D01*
X547054Y33343D01*
X547037Y33245D01*
X547016Y33147D01*
X546991Y33051D01*
X546963Y32956D01*
X546931Y32862D01*
X546896Y32769D01*
X546857Y32677D01*
X546814Y32587D01*
X546769Y32499D01*
X546719Y32412D01*
X546667Y32328D01*
X546611Y32245D01*
X546553Y32165D01*
X546491Y32087D01*
X546426Y32012D01*
X546358Y31939D01*
X546288Y31869D01*
X546215Y31801D01*
X546140Y31736D01*
X546062Y31674D01*
X545982Y31616D01*
X545899Y31560D01*
X545815Y31508D01*
X545728Y31458D01*
X545640Y31413D01*
X545550Y31370D01*
X545458Y31331D01*
X545365Y31296D01*
X545271Y31264D01*
X545176Y31236D01*
X545080Y31211D01*
X544982Y31190D01*
X544884Y31173D01*
X544786Y31160D01*
X544687Y31151D01*
X544587Y31145D01*
X544488Y31143D01*
X537997Y31143D01*
X537997Y31142D02*
X537898Y31144D01*
X537798Y31150D01*
X537699Y31159D01*
X537601Y31172D01*
X537503Y31190D01*
X537405Y31210D01*
X537309Y31235D01*
X537213Y31263D01*
X537119Y31295D01*
X537026Y31330D01*
X536935Y31369D01*
X536845Y31412D01*
X536756Y31457D01*
X536670Y31507D01*
X536585Y31559D01*
X536503Y31615D01*
X536423Y31674D01*
X536345Y31735D01*
X536269Y31800D01*
X536196Y31868D01*
X536126Y31938D01*
X536058Y32011D01*
X535993Y32087D01*
X535932Y32165D01*
X535873Y32245D01*
X535817Y32327D01*
X535765Y32412D01*
X535716Y32498D01*
X535670Y32587D01*
X535627Y32677D01*
X535588Y32768D01*
X535553Y32861D01*
X535521Y32955D01*
X535493Y33051D01*
X535468Y33147D01*
X535448Y33245D01*
X535430Y33343D01*
X535417Y33441D01*
X535408Y33540D01*
X535402Y33639D01*
X535400Y33739D01*
X535400Y36336D01*
X547084Y40701D02*
X547084Y44596D01*
X547082Y44695D01*
X547076Y44795D01*
X547067Y44894D01*
X547054Y44992D01*
X547037Y45090D01*
X547016Y45188D01*
X546991Y45284D01*
X546963Y45379D01*
X546931Y45473D01*
X546896Y45566D01*
X546857Y45658D01*
X546814Y45748D01*
X546769Y45836D01*
X546719Y45923D01*
X546667Y46007D01*
X546611Y46090D01*
X546553Y46170D01*
X546491Y46248D01*
X546426Y46323D01*
X546358Y46396D01*
X546288Y46466D01*
X546215Y46534D01*
X546140Y46599D01*
X546062Y46661D01*
X545982Y46719D01*
X545899Y46775D01*
X545815Y46827D01*
X545728Y46877D01*
X545640Y46922D01*
X545550Y46965D01*
X545458Y47004D01*
X545365Y47039D01*
X545271Y47071D01*
X545176Y47099D01*
X545080Y47124D01*
X544982Y47145D01*
X544884Y47162D01*
X544786Y47175D01*
X544687Y47184D01*
X544587Y47190D01*
X544488Y47192D01*
X543190Y47192D01*
X543091Y47190D01*
X542991Y47184D01*
X542892Y47175D01*
X542794Y47162D01*
X542696Y47145D01*
X542598Y47124D01*
X542502Y47099D01*
X542407Y47071D01*
X542313Y47039D01*
X542220Y47004D01*
X542128Y46965D01*
X542038Y46922D01*
X541950Y46877D01*
X541863Y46827D01*
X541779Y46775D01*
X541696Y46719D01*
X541616Y46661D01*
X541538Y46599D01*
X541463Y46534D01*
X541390Y46466D01*
X541320Y46396D01*
X541252Y46323D01*
X541187Y46248D01*
X541125Y46170D01*
X541067Y46090D01*
X541011Y46007D01*
X540959Y45923D01*
X540909Y45836D01*
X540864Y45748D01*
X540821Y45658D01*
X540782Y45566D01*
X540747Y45473D01*
X540715Y45379D01*
X540687Y45284D01*
X540662Y45188D01*
X540641Y45090D01*
X540624Y44992D01*
X540611Y44894D01*
X540602Y44795D01*
X540596Y44695D01*
X540594Y44596D01*
X540593Y44596D02*
X540593Y40701D01*
X535400Y40701D01*
X535400Y47192D01*
D10*
X1080269Y45000D02*
X1080269Y49500D01*
X1126269Y49500D01*
X1126269Y45000D01*
X1126269Y25000D02*
X1126269Y20500D01*
X1080269Y20500D01*
X1080269Y25000D01*
X1135019Y25000D02*
X1135019Y45000D01*
D13*
X1099094Y52145D02*
X1099094Y56971D01*
X1100434Y56971D01*
X1100504Y56969D01*
X1100574Y56964D01*
X1100644Y56954D01*
X1100713Y56942D01*
X1100781Y56925D01*
X1100848Y56905D01*
X1100915Y56882D01*
X1100979Y56855D01*
X1101043Y56825D01*
X1101105Y56791D01*
X1101164Y56755D01*
X1101222Y56715D01*
X1101278Y56672D01*
X1101331Y56627D01*
X1101382Y56578D01*
X1101431Y56527D01*
X1101476Y56474D01*
X1101519Y56418D01*
X1101559Y56360D01*
X1101595Y56301D01*
X1101629Y56239D01*
X1101659Y56175D01*
X1101686Y56111D01*
X1101709Y56044D01*
X1101729Y55977D01*
X1101746Y55909D01*
X1101758Y55840D01*
X1101768Y55770D01*
X1101773Y55700D01*
X1101775Y55630D01*
X1101775Y53486D01*
X1101773Y53416D01*
X1101768Y53346D01*
X1101758Y53276D01*
X1101746Y53207D01*
X1101729Y53139D01*
X1101709Y53072D01*
X1101686Y53005D01*
X1101659Y52941D01*
X1101629Y52877D01*
X1101595Y52815D01*
X1101559Y52756D01*
X1101519Y52698D01*
X1101476Y52642D01*
X1101431Y52589D01*
X1101382Y52538D01*
X1101331Y52489D01*
X1101278Y52444D01*
X1101222Y52401D01*
X1101164Y52361D01*
X1101104Y52325D01*
X1101043Y52291D01*
X1100979Y52261D01*
X1100915Y52234D01*
X1100848Y52211D01*
X1100781Y52191D01*
X1100713Y52174D01*
X1100644Y52162D01*
X1100574Y52152D01*
X1100504Y52147D01*
X1100434Y52145D01*
X1099094Y52145D01*
X1104763Y55899D02*
X1106104Y56971D01*
X1106104Y52145D01*
X1107444Y52145D02*
X1104763Y52145D01*
D14*
X1302Y60661D02*
X1002Y60442D01*
X708Y60215D01*
X420Y59981D01*
X137Y59740D01*
X-140Y59493D01*
X-411Y59238D01*
X-675Y58977D01*
X-933Y58710D01*
X-1184Y58437D01*
X-1429Y58157D01*
X-1667Y57872D01*
X-1897Y57581D01*
X-2121Y57284D01*
X-2337Y56982D01*
X-2546Y56675D01*
X-2747Y56363D01*
X-2941Y56046D01*
X-3127Y55724D01*
X-3305Y55398D01*
X-3475Y55068D01*
X-3637Y54734D01*
X-3790Y54396D01*
X-3936Y54054D01*
X-4073Y53709D01*
X-4201Y53360D01*
X-4321Y53009D01*
X-4433Y52654D01*
X-4535Y52297D01*
X-4630Y51938D01*
X-4715Y51577D01*
X-4791Y51213D01*
X-4859Y50848D01*
X-4917Y50481D01*
X-4967Y50113D01*
X-5008Y49744D01*
X-5039Y49374D01*
X-5062Y49003D01*
X-5075Y48632D01*
X-5080Y48260D01*
X-5075Y47888D01*
X-5062Y47517D01*
X-5039Y47145D01*
X-5007Y46775D01*
X-4967Y46405D01*
X-4917Y46037D01*
X-4858Y45669D01*
X-4791Y45304D01*
X-4714Y44940D01*
X-4628Y44578D01*
X-4534Y44218D01*
X-4431Y43861D01*
X-4320Y43506D01*
X-4199Y43154D01*
X-4070Y42805D01*
X-3933Y42460D01*
X-3787Y42118D01*
X-3633Y41779D01*
X-3471Y41444D01*
X-3301Y41114D01*
X-3122Y40788D01*
X-2936Y40466D01*
X-2742Y40148D01*
X-2540Y39836D01*
X-2331Y39529D01*
X-2114Y39227D01*
X-1890Y38930D01*
X-1659Y38638D01*
X-1421Y38353D01*
X-1175Y38073D01*
X-923Y37800D01*
X-665Y37532D01*
X-400Y37272D01*
X-129Y37017D01*
X149Y36769D01*
X432Y36529D01*
X721Y36295D01*
X1016Y36068D01*
X25400Y48260D02*
X25396Y48625D01*
X25383Y48990D01*
X25361Y49354D01*
X25330Y49717D01*
X25291Y50080D01*
X25243Y50442D01*
X25186Y50802D01*
X25121Y51161D01*
X25048Y51519D01*
X24965Y51874D01*
X24875Y52227D01*
X24775Y52579D01*
X24668Y52927D01*
X24552Y53273D01*
X24428Y53616D01*
X24295Y53956D01*
X24155Y54293D01*
X24007Y54626D01*
X23850Y54956D01*
X23686Y55282D01*
X23514Y55604D01*
X23334Y55921D01*
X23147Y56234D01*
X22953Y56543D01*
X22751Y56847D01*
X22541Y57146D01*
X22325Y57440D01*
X22102Y57728D01*
X21872Y58011D01*
X21635Y58289D01*
X21392Y58561D01*
X21142Y58827D01*
X20886Y59087D01*
X20623Y59340D01*
X20355Y59588D01*
X20081Y59828D01*
X19801Y60063D01*
X19516Y60290D01*
X25400Y48260D02*
X25396Y47895D01*
X25383Y47530D01*
X25361Y47166D01*
X25330Y46803D01*
X25291Y46440D01*
X25243Y46078D01*
X25186Y45718D01*
X25121Y45359D01*
X25048Y45001D01*
X24965Y44646D01*
X24875Y44293D01*
X24775Y43941D01*
X24668Y43593D01*
X24552Y43247D01*
X24428Y42904D01*
X24295Y42564D01*
X24155Y42227D01*
X24007Y41894D01*
X23850Y41564D01*
X23686Y41238D01*
X23514Y40916D01*
X23334Y40599D01*
X23147Y40286D01*
X22953Y39977D01*
X22751Y39673D01*
X22541Y39374D01*
X22325Y39080D01*
X22102Y38792D01*
X21872Y38509D01*
X21635Y38231D01*
X21392Y37959D01*
X21142Y37693D01*
X20886Y37433D01*
X20623Y37180D01*
X20355Y36932D01*
X20081Y36692D01*
X19801Y36457D01*
X19516Y36230D01*
D15*
X-10160Y48260D02*
X-10154Y48754D01*
X-10136Y49248D01*
X-10106Y49742D01*
X-10064Y50235D01*
X-10010Y50726D01*
X-9944Y51216D01*
X-9866Y51704D01*
X-9776Y52191D01*
X-9675Y52675D01*
X-9561Y53156D01*
X-9436Y53634D01*
X-9300Y54110D01*
X-9152Y54581D01*
X-8992Y55049D01*
X-8821Y55513D01*
X-8639Y55973D01*
X-8446Y56428D01*
X-8242Y56879D01*
X-8027Y57324D01*
X-7801Y57764D01*
X-7564Y58198D01*
X-7317Y58626D01*
X-7060Y59048D01*
X-6792Y59464D01*
X-6514Y59873D01*
X-6227Y60275D01*
X-5930Y60671D01*
X-5623Y61058D01*
X-5307Y61439D01*
X-4982Y61811D01*
X-4647Y62176D01*
X-4304Y62532D01*
X-3953Y62879D01*
X-3593Y63219D01*
X-3225Y63549D01*
X-2849Y63870D01*
X-10160Y48260D02*
X-10154Y47772D01*
X-10137Y47285D01*
X-10107Y46798D01*
X-10066Y46311D01*
X-10014Y45826D01*
X-9949Y45342D01*
X-9873Y44860D01*
X-9786Y44380D01*
X-9687Y43902D01*
X-9577Y43427D01*
X-9455Y42954D01*
X-9322Y42485D01*
X-9177Y42018D01*
X-9022Y41556D01*
X-8855Y41097D01*
X-8678Y40642D01*
X-8489Y40192D01*
X-8290Y39747D01*
X-8080Y39306D01*
X-7860Y38870D01*
X-7629Y38440D01*
X-7388Y38016D01*
X-7137Y37598D01*
X-6876Y37185D01*
X-6605Y36779D01*
X-6325Y36380D01*
X-6035Y35987D01*
X-5735Y35602D01*
X-5426Y35224D01*
X-5109Y34853D01*
X-4782Y34491D01*
X-4447Y34136D01*
X-4104Y33789D01*
X-3752Y33451D01*
X-3393Y33121D01*
X-3025Y32800D01*
X-2650Y32487D01*
X-2267Y32184D01*
X-1878Y31890D01*
X-1481Y31606D01*
X-1078Y31331D01*
X-668Y31066D01*
X-252Y30811D01*
X170Y30566D01*
X598Y30331D01*
X30480Y48260D02*
X30474Y48750D01*
X30456Y49240D01*
X30427Y49729D01*
X30385Y50218D01*
X30332Y50705D01*
X30268Y51191D01*
X30191Y51675D01*
X30103Y52157D01*
X30003Y52637D01*
X29892Y53115D01*
X29769Y53589D01*
X29634Y54061D01*
X29489Y54529D01*
X29332Y54993D01*
X29164Y55454D01*
X28985Y55910D01*
X28795Y56362D01*
X28594Y56809D01*
X28382Y57251D01*
X28160Y57688D01*
X27928Y58120D01*
X27685Y58546D01*
X27431Y58965D01*
X27168Y59379D01*
X26895Y59786D01*
X26612Y60186D01*
X26319Y60580D01*
X26018Y60966D01*
X25706Y61345D01*
X25386Y61716D01*
X25057Y62079D01*
X24720Y62435D01*
X24373Y62782D01*
X24019Y63120D01*
X23656Y63450D01*
X23286Y63772D01*
X30480Y48260D02*
X30474Y47763D01*
X30456Y47266D01*
X30425Y46770D01*
X30383Y46275D01*
X30328Y45781D01*
X30262Y45288D01*
X30183Y44798D01*
X30092Y44309D01*
X29990Y43823D01*
X29875Y43339D01*
X29749Y42859D01*
X29611Y42381D01*
X29462Y41907D01*
X29301Y41437D01*
X29128Y40971D01*
X28944Y40509D01*
X28749Y40052D01*
X28543Y39600D01*
X28326Y39153D01*
X28097Y38712D01*
X27859Y38276D01*
X27609Y37846D01*
X27349Y37423D01*
X27079Y37005D01*
X26799Y36595D01*
X26509Y36192D01*
X26209Y35795D01*
X25899Y35407D01*
X25580Y35026D01*
X25252Y34653D01*
X24915Y34288D01*
X24569Y33931D01*
X24214Y33583D01*
X23851Y33244D01*
X23480Y32913D01*
X23100Y32592D01*
X22713Y32280D01*
X22319Y31978D01*
X21917Y31686D01*
X21508Y31403D01*
X21093Y31131D01*
X20670Y30868D01*
X20242Y30617D01*
D14*
X1524000Y48260D02*
X1524005Y48632D01*
X1524018Y49003D01*
X1524041Y49374D01*
X1524072Y49744D01*
X1524113Y50113D01*
X1524163Y50481D01*
X1524221Y50848D01*
X1524289Y51213D01*
X1524365Y51577D01*
X1524450Y51938D01*
X1524545Y52297D01*
X1524647Y52654D01*
X1524759Y53009D01*
X1524879Y53360D01*
X1525007Y53709D01*
X1525144Y54054D01*
X1525290Y54396D01*
X1525443Y54734D01*
X1525605Y55068D01*
X1525775Y55398D01*
X1525953Y55724D01*
X1526139Y56046D01*
X1526333Y56363D01*
X1526534Y56675D01*
X1526743Y56982D01*
X1526959Y57284D01*
X1527183Y57581D01*
X1527413Y57872D01*
X1527651Y58157D01*
X1527896Y58437D01*
X1528147Y58710D01*
X1528405Y58977D01*
X1528669Y59238D01*
X1528940Y59493D01*
X1529217Y59740D01*
X1529500Y59981D01*
X1529788Y60215D01*
X1530082Y60442D01*
X1530382Y60661D01*
X1524000Y48260D02*
X1524005Y47888D01*
X1524018Y47517D01*
X1524041Y47145D01*
X1524073Y46775D01*
X1524113Y46405D01*
X1524163Y46037D01*
X1524222Y45669D01*
X1524289Y45304D01*
X1524366Y44940D01*
X1524452Y44578D01*
X1524546Y44218D01*
X1524649Y43861D01*
X1524760Y43506D01*
X1524881Y43154D01*
X1525010Y42805D01*
X1525147Y42460D01*
X1525293Y42118D01*
X1525447Y41779D01*
X1525609Y41444D01*
X1525779Y41114D01*
X1525958Y40788D01*
X1526144Y40466D01*
X1526338Y40148D01*
X1526540Y39836D01*
X1526749Y39529D01*
X1526966Y39227D01*
X1527190Y38930D01*
X1527421Y38638D01*
X1527659Y38353D01*
X1527905Y38073D01*
X1528157Y37800D01*
X1528415Y37532D01*
X1528680Y37272D01*
X1528951Y37017D01*
X1529229Y36769D01*
X1529512Y36529D01*
X1529801Y36295D01*
X1530096Y36068D01*
X1554480Y48260D02*
X1554476Y48625D01*
X1554463Y48990D01*
X1554441Y49354D01*
X1554410Y49717D01*
X1554371Y50080D01*
X1554323Y50442D01*
X1554266Y50802D01*
X1554201Y51161D01*
X1554128Y51519D01*
X1554045Y51874D01*
X1553955Y52227D01*
X1553855Y52579D01*
X1553748Y52927D01*
X1553632Y53273D01*
X1553508Y53616D01*
X1553375Y53956D01*
X1553235Y54293D01*
X1553087Y54626D01*
X1552930Y54956D01*
X1552766Y55282D01*
X1552594Y55604D01*
X1552414Y55921D01*
X1552227Y56234D01*
X1552033Y56543D01*
X1551831Y56847D01*
X1551621Y57146D01*
X1551405Y57440D01*
X1551182Y57728D01*
X1550952Y58011D01*
X1550715Y58289D01*
X1550472Y58561D01*
X1550222Y58827D01*
X1549966Y59087D01*
X1549703Y59340D01*
X1549435Y59588D01*
X1549161Y59828D01*
X1548881Y60063D01*
X1548596Y60290D01*
X1554480Y48260D02*
X1554476Y47895D01*
X1554463Y47530D01*
X1554441Y47166D01*
X1554410Y46803D01*
X1554371Y46440D01*
X1554323Y46078D01*
X1554266Y45718D01*
X1554201Y45359D01*
X1554128Y45001D01*
X1554045Y44646D01*
X1553955Y44293D01*
X1553855Y43941D01*
X1553748Y43593D01*
X1553632Y43247D01*
X1553508Y42904D01*
X1553375Y42564D01*
X1553235Y42227D01*
X1553087Y41894D01*
X1552930Y41564D01*
X1552766Y41238D01*
X1552594Y40916D01*
X1552414Y40599D01*
X1552227Y40286D01*
X1552033Y39977D01*
X1551831Y39673D01*
X1551621Y39374D01*
X1551405Y39080D01*
X1551182Y38792D01*
X1550952Y38509D01*
X1550715Y38231D01*
X1550472Y37959D01*
X1550222Y37693D01*
X1549966Y37433D01*
X1549703Y37180D01*
X1549435Y36932D01*
X1549161Y36692D01*
X1548881Y36457D01*
X1548596Y36230D01*
D15*
X1518920Y48260D02*
X1518926Y48754D01*
X1518944Y49248D01*
X1518974Y49742D01*
X1519016Y50235D01*
X1519070Y50726D01*
X1519136Y51216D01*
X1519214Y51704D01*
X1519304Y52191D01*
X1519405Y52675D01*
X1519519Y53156D01*
X1519644Y53634D01*
X1519780Y54110D01*
X1519928Y54581D01*
X1520088Y55049D01*
X1520259Y55513D01*
X1520441Y55973D01*
X1520634Y56428D01*
X1520838Y56879D01*
X1521053Y57324D01*
X1521279Y57764D01*
X1521516Y58198D01*
X1521763Y58626D01*
X1522020Y59048D01*
X1522288Y59464D01*
X1522566Y59873D01*
X1522853Y60275D01*
X1523150Y60671D01*
X1523457Y61058D01*
X1523773Y61439D01*
X1524098Y61811D01*
X1524433Y62176D01*
X1524776Y62532D01*
X1525127Y62879D01*
X1525487Y63219D01*
X1525855Y63549D01*
X1526231Y63870D01*
X1518920Y48260D02*
X1518926Y47772D01*
X1518943Y47285D01*
X1518973Y46798D01*
X1519014Y46311D01*
X1519066Y45826D01*
X1519131Y45342D01*
X1519207Y44860D01*
X1519294Y44380D01*
X1519393Y43902D01*
X1519503Y43427D01*
X1519625Y42954D01*
X1519758Y42485D01*
X1519903Y42018D01*
X1520058Y41556D01*
X1520225Y41097D01*
X1520402Y40642D01*
X1520591Y40192D01*
X1520790Y39747D01*
X1521000Y39306D01*
X1521220Y38870D01*
X1521451Y38440D01*
X1521692Y38016D01*
X1521943Y37598D01*
X1522204Y37185D01*
X1522475Y36779D01*
X1522755Y36380D01*
X1523045Y35987D01*
X1523345Y35602D01*
X1523654Y35224D01*
X1523971Y34853D01*
X1524298Y34491D01*
X1524633Y34136D01*
X1524976Y33789D01*
X1525328Y33451D01*
X1525687Y33121D01*
X1526055Y32800D01*
X1526430Y32487D01*
X1526813Y32184D01*
X1527202Y31890D01*
X1527599Y31606D01*
X1528002Y31331D01*
X1528412Y31066D01*
X1528828Y30811D01*
X1529250Y30566D01*
X1529678Y30331D01*
X1559560Y48260D02*
X1559554Y48750D01*
X1559536Y49240D01*
X1559507Y49729D01*
X1559465Y50218D01*
X1559412Y50705D01*
X1559348Y51191D01*
X1559271Y51675D01*
X1559183Y52157D01*
X1559083Y52637D01*
X1558972Y53115D01*
X1558849Y53589D01*
X1558714Y54061D01*
X1558569Y54529D01*
X1558412Y54993D01*
X1558244Y55454D01*
X1558065Y55910D01*
X1557875Y56362D01*
X1557674Y56809D01*
X1557462Y57251D01*
X1557240Y57688D01*
X1557008Y58120D01*
X1556765Y58546D01*
X1556511Y58965D01*
X1556248Y59379D01*
X1555975Y59786D01*
X1555692Y60186D01*
X1555399Y60580D01*
X1555098Y60966D01*
X1554786Y61345D01*
X1554466Y61716D01*
X1554137Y62079D01*
X1553800Y62435D01*
X1553453Y62782D01*
X1553099Y63120D01*
X1552736Y63450D01*
X1552366Y63772D01*
X1559560Y48260D02*
X1559554Y47763D01*
X1559536Y47266D01*
X1559505Y46770D01*
X1559463Y46275D01*
X1559408Y45781D01*
X1559342Y45288D01*
X1559263Y44798D01*
X1559172Y44309D01*
X1559070Y43823D01*
X1558955Y43339D01*
X1558829Y42859D01*
X1558691Y42381D01*
X1558542Y41907D01*
X1558381Y41437D01*
X1558208Y40971D01*
X1558024Y40509D01*
X1557829Y40052D01*
X1557623Y39600D01*
X1557406Y39153D01*
X1557177Y38712D01*
X1556939Y38276D01*
X1556689Y37846D01*
X1556429Y37423D01*
X1556159Y37005D01*
X1555879Y36595D01*
X1555589Y36192D01*
X1555289Y35795D01*
X1554979Y35407D01*
X1554660Y35026D01*
X1554332Y34653D01*
X1553995Y34288D01*
X1553649Y33931D01*
X1553294Y33583D01*
X1552931Y33244D01*
X1552560Y32913D01*
X1552180Y32592D01*
X1551793Y32280D01*
X1551399Y31978D01*
X1550997Y31686D01*
X1550588Y31403D01*
X1550173Y31131D01*
X1549750Y30868D01*
X1549322Y30617D01*
D11*
X401125Y22808D02*
X389441Y22808D01*
X389441Y26054D01*
X389443Y26167D01*
X389449Y26280D01*
X389459Y26393D01*
X389473Y26506D01*
X389490Y26618D01*
X389512Y26729D01*
X389537Y26839D01*
X389567Y26949D01*
X389600Y27057D01*
X389637Y27164D01*
X389677Y27270D01*
X389722Y27374D01*
X389770Y27477D01*
X389821Y27578D01*
X389876Y27677D01*
X389934Y27774D01*
X389996Y27869D01*
X390061Y27962D01*
X390129Y28052D01*
X390200Y28140D01*
X390275Y28226D01*
X390352Y28309D01*
X390432Y28389D01*
X390515Y28466D01*
X390601Y28541D01*
X390689Y28612D01*
X390779Y28680D01*
X390872Y28745D01*
X390967Y28807D01*
X391064Y28865D01*
X391163Y28920D01*
X391264Y28971D01*
X391367Y29019D01*
X391471Y29064D01*
X391577Y29104D01*
X391684Y29141D01*
X391792Y29174D01*
X391902Y29204D01*
X392012Y29229D01*
X392123Y29251D01*
X392235Y29268D01*
X392348Y29282D01*
X392461Y29292D01*
X392574Y29298D01*
X392687Y29300D01*
X392800Y29298D01*
X392913Y29292D01*
X393026Y29282D01*
X393139Y29268D01*
X393251Y29251D01*
X393362Y29229D01*
X393472Y29204D01*
X393582Y29174D01*
X393690Y29141D01*
X393797Y29104D01*
X393903Y29064D01*
X394007Y29019D01*
X394110Y28971D01*
X394211Y28920D01*
X394310Y28865D01*
X394407Y28807D01*
X394502Y28745D01*
X394595Y28680D01*
X394685Y28612D01*
X394773Y28541D01*
X394859Y28466D01*
X394942Y28389D01*
X395022Y28309D01*
X395099Y28226D01*
X395174Y28140D01*
X395245Y28052D01*
X395313Y27962D01*
X395378Y27869D01*
X395440Y27774D01*
X395498Y27677D01*
X395553Y27578D01*
X395604Y27477D01*
X395652Y27374D01*
X395697Y27270D01*
X395737Y27164D01*
X395774Y27057D01*
X395807Y26949D01*
X395837Y26839D01*
X395862Y26729D01*
X395884Y26618D01*
X395901Y26506D01*
X395915Y26393D01*
X395925Y26280D01*
X395931Y26167D01*
X395933Y26054D01*
X395932Y26054D02*
X395932Y22808D01*
X395932Y26703D02*
X401125Y29299D01*
X392038Y34164D02*
X389441Y37410D01*
X401125Y37410D01*
X401125Y40655D02*
X401125Y34164D01*
X392038Y45594D02*
X389441Y48840D01*
X401125Y48840D01*
X401125Y52085D02*
X401125Y45594D01*
X174543Y28001D02*
X174543Y25404D01*
X174541Y25305D01*
X174535Y25205D01*
X174526Y25106D01*
X174513Y25008D01*
X174496Y24910D01*
X174475Y24812D01*
X174450Y24716D01*
X174422Y24621D01*
X174390Y24527D01*
X174355Y24434D01*
X174316Y24342D01*
X174273Y24252D01*
X174228Y24164D01*
X174178Y24077D01*
X174126Y23993D01*
X174070Y23910D01*
X174012Y23830D01*
X173950Y23752D01*
X173885Y23677D01*
X173817Y23604D01*
X173747Y23534D01*
X173674Y23466D01*
X173599Y23401D01*
X173521Y23339D01*
X173441Y23281D01*
X173358Y23225D01*
X173274Y23173D01*
X173187Y23123D01*
X173099Y23078D01*
X173009Y23035D01*
X172917Y22996D01*
X172824Y22961D01*
X172730Y22929D01*
X172635Y22901D01*
X172539Y22876D01*
X172441Y22855D01*
X172343Y22838D01*
X172245Y22825D01*
X172146Y22816D01*
X172046Y22810D01*
X171947Y22808D01*
X165456Y22808D01*
X165357Y22810D01*
X165257Y22816D01*
X165158Y22825D01*
X165060Y22838D01*
X164962Y22856D01*
X164864Y22876D01*
X164768Y22901D01*
X164672Y22929D01*
X164578Y22961D01*
X164485Y22996D01*
X164394Y23035D01*
X164304Y23078D01*
X164215Y23123D01*
X164129Y23173D01*
X164044Y23225D01*
X163962Y23281D01*
X163882Y23340D01*
X163804Y23401D01*
X163728Y23466D01*
X163655Y23534D01*
X163585Y23604D01*
X163517Y23677D01*
X163452Y23753D01*
X163391Y23831D01*
X163332Y23911D01*
X163276Y23993D01*
X163224Y24078D01*
X163175Y24164D01*
X163129Y24253D01*
X163086Y24343D01*
X163047Y24434D01*
X163012Y24527D01*
X162980Y24621D01*
X162952Y24717D01*
X162927Y24813D01*
X162907Y24911D01*
X162889Y25009D01*
X162876Y25107D01*
X162867Y25206D01*
X162861Y25305D01*
X162859Y25405D01*
X162859Y25404D02*
X162859Y28001D01*
X168052Y32366D02*
X168052Y36261D01*
X168054Y36360D01*
X168060Y36460D01*
X168069Y36559D01*
X168082Y36657D01*
X168099Y36755D01*
X168120Y36853D01*
X168145Y36949D01*
X168173Y37044D01*
X168205Y37138D01*
X168240Y37231D01*
X168279Y37323D01*
X168322Y37413D01*
X168367Y37501D01*
X168417Y37588D01*
X168469Y37672D01*
X168525Y37755D01*
X168583Y37835D01*
X168645Y37913D01*
X168710Y37988D01*
X168778Y38061D01*
X168848Y38131D01*
X168921Y38199D01*
X168996Y38264D01*
X169074Y38326D01*
X169154Y38384D01*
X169237Y38440D01*
X169321Y38492D01*
X169408Y38542D01*
X169496Y38587D01*
X169586Y38630D01*
X169678Y38669D01*
X169771Y38704D01*
X169865Y38736D01*
X169960Y38764D01*
X170056Y38789D01*
X170154Y38810D01*
X170252Y38827D01*
X170350Y38840D01*
X170449Y38849D01*
X170549Y38855D01*
X170648Y38857D01*
X171298Y38857D01*
X171298Y38858D02*
X171411Y38856D01*
X171524Y38850D01*
X171637Y38840D01*
X171750Y38826D01*
X171862Y38809D01*
X171973Y38787D01*
X172083Y38762D01*
X172193Y38732D01*
X172301Y38699D01*
X172408Y38662D01*
X172514Y38622D01*
X172618Y38577D01*
X172721Y38529D01*
X172822Y38478D01*
X172921Y38423D01*
X173018Y38365D01*
X173113Y38303D01*
X173206Y38238D01*
X173296Y38170D01*
X173384Y38099D01*
X173470Y38024D01*
X173553Y37947D01*
X173633Y37867D01*
X173710Y37784D01*
X173785Y37698D01*
X173856Y37610D01*
X173924Y37520D01*
X173989Y37427D01*
X174051Y37332D01*
X174109Y37235D01*
X174164Y37136D01*
X174215Y37035D01*
X174263Y36932D01*
X174308Y36828D01*
X174348Y36722D01*
X174385Y36615D01*
X174418Y36507D01*
X174448Y36397D01*
X174473Y36287D01*
X174495Y36176D01*
X174512Y36064D01*
X174526Y35951D01*
X174536Y35838D01*
X174542Y35725D01*
X174544Y35612D01*
X174542Y35499D01*
X174536Y35386D01*
X174526Y35273D01*
X174512Y35160D01*
X174495Y35048D01*
X174473Y34937D01*
X174448Y34827D01*
X174418Y34717D01*
X174385Y34609D01*
X174348Y34502D01*
X174308Y34396D01*
X174263Y34292D01*
X174215Y34189D01*
X174164Y34088D01*
X174109Y33989D01*
X174051Y33892D01*
X173989Y33797D01*
X173924Y33704D01*
X173856Y33614D01*
X173785Y33526D01*
X173710Y33440D01*
X173633Y33357D01*
X173553Y33277D01*
X173470Y33200D01*
X173384Y33125D01*
X173296Y33054D01*
X173206Y32986D01*
X173113Y32921D01*
X173018Y32859D01*
X172921Y32801D01*
X172822Y32746D01*
X172721Y32695D01*
X172618Y32647D01*
X172514Y32602D01*
X172408Y32562D01*
X172301Y32525D01*
X172193Y32492D01*
X172083Y32462D01*
X171973Y32437D01*
X171862Y32415D01*
X171750Y32398D01*
X171637Y32384D01*
X171524Y32374D01*
X171411Y32368D01*
X171298Y32366D01*
X168052Y32366D01*
X167909Y32368D01*
X167766Y32374D01*
X167623Y32384D01*
X167481Y32398D01*
X167339Y32415D01*
X167197Y32437D01*
X167056Y32462D01*
X166916Y32492D01*
X166777Y32525D01*
X166639Y32562D01*
X166502Y32603D01*
X166366Y32647D01*
X166231Y32696D01*
X166098Y32748D01*
X165966Y32803D01*
X165836Y32863D01*
X165707Y32926D01*
X165580Y32992D01*
X165456Y33062D01*
X165333Y33135D01*
X165212Y33212D01*
X165093Y33291D01*
X164977Y33375D01*
X164862Y33461D01*
X164751Y33550D01*
X164642Y33643D01*
X164535Y33738D01*
X164431Y33837D01*
X164330Y33938D01*
X164231Y34042D01*
X164136Y34148D01*
X164043Y34258D01*
X163954Y34369D01*
X163868Y34483D01*
X163785Y34600D01*
X163705Y34719D01*
X163628Y34840D01*
X163555Y34962D01*
X163485Y35087D01*
X163419Y35214D01*
X163356Y35343D01*
X163296Y35473D01*
X163241Y35605D01*
X163189Y35738D01*
X163140Y35873D01*
X163096Y36009D01*
X163055Y36146D01*
X163018Y36284D01*
X162985Y36423D01*
X162955Y36563D01*
X162930Y36704D01*
X162908Y36846D01*
X162891Y36988D01*
X162877Y37130D01*
X162867Y37273D01*
X162861Y37416D01*
X162859Y37559D01*
X1394738Y36336D02*
X1394738Y33739D01*
X1394736Y33640D01*
X1394730Y33540D01*
X1394721Y33441D01*
X1394708Y33343D01*
X1394691Y33245D01*
X1394670Y33147D01*
X1394645Y33051D01*
X1394617Y32956D01*
X1394585Y32862D01*
X1394550Y32769D01*
X1394511Y32677D01*
X1394468Y32587D01*
X1394423Y32499D01*
X1394373Y32412D01*
X1394321Y32328D01*
X1394265Y32245D01*
X1394207Y32165D01*
X1394145Y32087D01*
X1394080Y32012D01*
X1394012Y31939D01*
X1393942Y31869D01*
X1393869Y31801D01*
X1393794Y31736D01*
X1393716Y31674D01*
X1393636Y31616D01*
X1393553Y31560D01*
X1393469Y31508D01*
X1393382Y31458D01*
X1393294Y31413D01*
X1393204Y31370D01*
X1393112Y31331D01*
X1393019Y31296D01*
X1392925Y31264D01*
X1392830Y31236D01*
X1392734Y31211D01*
X1392636Y31190D01*
X1392538Y31173D01*
X1392440Y31160D01*
X1392341Y31151D01*
X1392241Y31145D01*
X1392142Y31143D01*
X1385650Y31143D01*
X1385650Y31142D02*
X1385551Y31144D01*
X1385451Y31150D01*
X1385352Y31159D01*
X1385254Y31172D01*
X1385156Y31190D01*
X1385058Y31210D01*
X1384962Y31235D01*
X1384866Y31263D01*
X1384772Y31295D01*
X1384679Y31330D01*
X1384588Y31369D01*
X1384498Y31412D01*
X1384409Y31457D01*
X1384323Y31507D01*
X1384238Y31559D01*
X1384156Y31615D01*
X1384076Y31674D01*
X1383998Y31735D01*
X1383922Y31800D01*
X1383849Y31868D01*
X1383779Y31938D01*
X1383711Y32011D01*
X1383646Y32087D01*
X1383585Y32165D01*
X1383526Y32245D01*
X1383470Y32327D01*
X1383418Y32412D01*
X1383369Y32498D01*
X1383323Y32587D01*
X1383280Y32677D01*
X1383241Y32768D01*
X1383206Y32861D01*
X1383174Y32955D01*
X1383146Y33051D01*
X1383121Y33147D01*
X1383101Y33245D01*
X1383083Y33343D01*
X1383070Y33441D01*
X1383061Y33540D01*
X1383055Y33639D01*
X1383053Y33739D01*
X1383054Y33739D02*
X1383054Y36336D01*
X1383054Y40701D02*
X1384352Y40701D01*
X1383054Y40701D02*
X1383054Y47192D01*
X1394738Y43946D01*
X1199622Y36336D02*
X1199622Y33739D01*
X1199620Y33640D01*
X1199614Y33540D01*
X1199605Y33441D01*
X1199592Y33343D01*
X1199575Y33245D01*
X1199554Y33147D01*
X1199529Y33051D01*
X1199501Y32956D01*
X1199469Y32862D01*
X1199434Y32769D01*
X1199395Y32677D01*
X1199352Y32587D01*
X1199307Y32499D01*
X1199257Y32412D01*
X1199205Y32328D01*
X1199149Y32245D01*
X1199091Y32165D01*
X1199029Y32087D01*
X1198964Y32012D01*
X1198896Y31939D01*
X1198826Y31869D01*
X1198753Y31801D01*
X1198678Y31736D01*
X1198600Y31674D01*
X1198520Y31616D01*
X1198437Y31560D01*
X1198353Y31508D01*
X1198266Y31458D01*
X1198178Y31413D01*
X1198088Y31370D01*
X1197996Y31331D01*
X1197903Y31296D01*
X1197809Y31264D01*
X1197714Y31236D01*
X1197618Y31211D01*
X1197520Y31190D01*
X1197422Y31173D01*
X1197324Y31160D01*
X1197225Y31151D01*
X1197125Y31145D01*
X1197026Y31143D01*
X1190534Y31143D01*
X1190534Y31142D02*
X1190435Y31144D01*
X1190335Y31150D01*
X1190236Y31159D01*
X1190138Y31172D01*
X1190040Y31190D01*
X1189942Y31210D01*
X1189846Y31235D01*
X1189750Y31263D01*
X1189656Y31295D01*
X1189563Y31330D01*
X1189472Y31369D01*
X1189382Y31412D01*
X1189293Y31457D01*
X1189207Y31507D01*
X1189122Y31559D01*
X1189040Y31615D01*
X1188960Y31674D01*
X1188882Y31735D01*
X1188806Y31800D01*
X1188733Y31868D01*
X1188663Y31938D01*
X1188595Y32011D01*
X1188530Y32087D01*
X1188469Y32165D01*
X1188410Y32245D01*
X1188354Y32327D01*
X1188302Y32412D01*
X1188253Y32498D01*
X1188207Y32587D01*
X1188164Y32677D01*
X1188125Y32768D01*
X1188090Y32861D01*
X1188058Y32955D01*
X1188030Y33051D01*
X1188005Y33147D01*
X1187985Y33245D01*
X1187967Y33343D01*
X1187954Y33441D01*
X1187945Y33540D01*
X1187939Y33639D01*
X1187937Y33739D01*
X1187938Y33739D02*
X1187938Y36336D01*
X1196376Y40700D02*
X1196263Y40702D01*
X1196150Y40708D01*
X1196037Y40718D01*
X1195924Y40732D01*
X1195812Y40749D01*
X1195701Y40771D01*
X1195591Y40796D01*
X1195481Y40826D01*
X1195373Y40859D01*
X1195266Y40896D01*
X1195160Y40936D01*
X1195056Y40981D01*
X1194953Y41029D01*
X1194852Y41080D01*
X1194753Y41135D01*
X1194656Y41193D01*
X1194561Y41255D01*
X1194468Y41320D01*
X1194378Y41388D01*
X1194290Y41459D01*
X1194204Y41534D01*
X1194121Y41611D01*
X1194041Y41691D01*
X1193964Y41774D01*
X1193889Y41860D01*
X1193818Y41948D01*
X1193750Y42038D01*
X1193685Y42131D01*
X1193623Y42226D01*
X1193565Y42323D01*
X1193510Y42422D01*
X1193459Y42523D01*
X1193411Y42626D01*
X1193366Y42730D01*
X1193326Y42836D01*
X1193289Y42943D01*
X1193256Y43051D01*
X1193226Y43161D01*
X1193201Y43271D01*
X1193179Y43382D01*
X1193162Y43494D01*
X1193148Y43607D01*
X1193138Y43720D01*
X1193132Y43833D01*
X1193130Y43946D01*
X1193132Y44059D01*
X1193138Y44172D01*
X1193148Y44285D01*
X1193162Y44398D01*
X1193179Y44510D01*
X1193201Y44621D01*
X1193226Y44731D01*
X1193256Y44841D01*
X1193289Y44949D01*
X1193326Y45056D01*
X1193366Y45162D01*
X1193411Y45266D01*
X1193459Y45369D01*
X1193510Y45470D01*
X1193565Y45569D01*
X1193623Y45666D01*
X1193685Y45761D01*
X1193750Y45854D01*
X1193818Y45944D01*
X1193889Y46032D01*
X1193964Y46118D01*
X1194041Y46201D01*
X1194121Y46281D01*
X1194204Y46358D01*
X1194290Y46433D01*
X1194378Y46504D01*
X1194468Y46572D01*
X1194561Y46637D01*
X1194656Y46699D01*
X1194753Y46757D01*
X1194852Y46812D01*
X1194953Y46863D01*
X1195056Y46911D01*
X1195160Y46956D01*
X1195266Y46996D01*
X1195373Y47033D01*
X1195481Y47066D01*
X1195591Y47096D01*
X1195701Y47121D01*
X1195812Y47143D01*
X1195924Y47160D01*
X1196037Y47174D01*
X1196150Y47184D01*
X1196263Y47190D01*
X1196376Y47192D01*
X1196489Y47190D01*
X1196602Y47184D01*
X1196715Y47174D01*
X1196828Y47160D01*
X1196940Y47143D01*
X1197051Y47121D01*
X1197161Y47096D01*
X1197271Y47066D01*
X1197379Y47033D01*
X1197486Y46996D01*
X1197592Y46956D01*
X1197696Y46911D01*
X1197799Y46863D01*
X1197900Y46812D01*
X1197999Y46757D01*
X1198096Y46699D01*
X1198191Y46637D01*
X1198284Y46572D01*
X1198374Y46504D01*
X1198462Y46433D01*
X1198548Y46358D01*
X1198631Y46281D01*
X1198711Y46201D01*
X1198788Y46118D01*
X1198863Y46032D01*
X1198934Y45944D01*
X1199002Y45854D01*
X1199067Y45761D01*
X1199129Y45666D01*
X1199187Y45569D01*
X1199242Y45470D01*
X1199293Y45369D01*
X1199341Y45266D01*
X1199386Y45162D01*
X1199426Y45056D01*
X1199463Y44949D01*
X1199496Y44841D01*
X1199526Y44731D01*
X1199551Y44621D01*
X1199573Y44510D01*
X1199590Y44398D01*
X1199604Y44285D01*
X1199614Y44172D01*
X1199620Y44059D01*
X1199622Y43946D01*
X1199620Y43833D01*
X1199614Y43720D01*
X1199604Y43607D01*
X1199590Y43494D01*
X1199573Y43382D01*
X1199551Y43271D01*
X1199526Y43161D01*
X1199496Y43051D01*
X1199463Y42943D01*
X1199426Y42836D01*
X1199386Y42730D01*
X1199341Y42626D01*
X1199293Y42523D01*
X1199242Y42422D01*
X1199187Y42323D01*
X1199129Y42226D01*
X1199067Y42131D01*
X1199002Y42038D01*
X1198934Y41948D01*
X1198863Y41860D01*
X1198788Y41774D01*
X1198711Y41691D01*
X1198631Y41611D01*
X1198548Y41534D01*
X1198462Y41459D01*
X1198374Y41388D01*
X1198284Y41320D01*
X1198191Y41255D01*
X1198096Y41193D01*
X1197999Y41135D01*
X1197900Y41080D01*
X1197799Y41029D01*
X1197696Y40981D01*
X1197592Y40936D01*
X1197486Y40896D01*
X1197379Y40859D01*
X1197271Y40826D01*
X1197161Y40796D01*
X1197051Y40771D01*
X1196940Y40749D01*
X1196828Y40732D01*
X1196715Y40718D01*
X1196602Y40708D01*
X1196489Y40702D01*
X1196376Y40700D01*
X1190534Y41350D02*
X1190433Y41352D01*
X1190333Y41358D01*
X1190233Y41368D01*
X1190133Y41381D01*
X1190034Y41399D01*
X1189935Y41420D01*
X1189838Y41445D01*
X1189741Y41474D01*
X1189646Y41507D01*
X1189552Y41543D01*
X1189460Y41583D01*
X1189369Y41626D01*
X1189280Y41673D01*
X1189193Y41723D01*
X1189107Y41777D01*
X1189024Y41834D01*
X1188944Y41894D01*
X1188865Y41957D01*
X1188789Y42024D01*
X1188716Y42093D01*
X1188646Y42165D01*
X1188578Y42239D01*
X1188513Y42316D01*
X1188452Y42396D01*
X1188393Y42478D01*
X1188338Y42562D01*
X1188286Y42648D01*
X1188237Y42736D01*
X1188192Y42826D01*
X1188150Y42918D01*
X1188112Y43011D01*
X1188078Y43106D01*
X1188047Y43201D01*
X1188020Y43298D01*
X1187997Y43396D01*
X1187977Y43495D01*
X1187962Y43595D01*
X1187950Y43695D01*
X1187942Y43795D01*
X1187938Y43896D01*
X1187938Y43996D01*
X1187942Y44097D01*
X1187950Y44197D01*
X1187962Y44297D01*
X1187977Y44397D01*
X1187997Y44496D01*
X1188020Y44594D01*
X1188047Y44691D01*
X1188078Y44786D01*
X1188112Y44881D01*
X1188150Y44974D01*
X1188192Y45066D01*
X1188237Y45156D01*
X1188286Y45244D01*
X1188338Y45330D01*
X1188393Y45414D01*
X1188452Y45496D01*
X1188513Y45576D01*
X1188578Y45653D01*
X1188646Y45727D01*
X1188716Y45799D01*
X1188789Y45868D01*
X1188865Y45935D01*
X1188944Y45998D01*
X1189024Y46058D01*
X1189107Y46115D01*
X1189193Y46169D01*
X1189280Y46219D01*
X1189369Y46266D01*
X1189460Y46309D01*
X1189552Y46349D01*
X1189646Y46385D01*
X1189741Y46418D01*
X1189838Y46447D01*
X1189935Y46472D01*
X1190034Y46493D01*
X1190133Y46511D01*
X1190233Y46524D01*
X1190333Y46534D01*
X1190433Y46540D01*
X1190534Y46542D01*
X1190635Y46540D01*
X1190735Y46534D01*
X1190835Y46524D01*
X1190935Y46511D01*
X1191034Y46493D01*
X1191133Y46472D01*
X1191230Y46447D01*
X1191327Y46418D01*
X1191422Y46385D01*
X1191516Y46349D01*
X1191608Y46309D01*
X1191699Y46266D01*
X1191788Y46219D01*
X1191875Y46169D01*
X1191961Y46115D01*
X1192044Y46058D01*
X1192124Y45998D01*
X1192203Y45935D01*
X1192279Y45868D01*
X1192352Y45799D01*
X1192422Y45727D01*
X1192490Y45653D01*
X1192555Y45576D01*
X1192616Y45496D01*
X1192675Y45414D01*
X1192730Y45330D01*
X1192782Y45244D01*
X1192831Y45156D01*
X1192876Y45066D01*
X1192918Y44974D01*
X1192956Y44881D01*
X1192990Y44786D01*
X1193021Y44691D01*
X1193048Y44594D01*
X1193071Y44496D01*
X1193091Y44397D01*
X1193106Y44297D01*
X1193118Y44197D01*
X1193126Y44097D01*
X1193130Y43996D01*
X1193130Y43896D01*
X1193126Y43795D01*
X1193118Y43695D01*
X1193106Y43595D01*
X1193091Y43495D01*
X1193071Y43396D01*
X1193048Y43298D01*
X1193021Y43201D01*
X1192990Y43106D01*
X1192956Y43011D01*
X1192918Y42918D01*
X1192876Y42826D01*
X1192831Y42736D01*
X1192782Y42648D01*
X1192730Y42562D01*
X1192675Y42478D01*
X1192616Y42396D01*
X1192555Y42316D01*
X1192490Y42239D01*
X1192422Y42165D01*
X1192352Y42093D01*
X1192279Y42024D01*
X1192203Y41957D01*
X1192124Y41894D01*
X1192044Y41834D01*
X1191961Y41777D01*
X1191875Y41723D01*
X1191788Y41673D01*
X1191699Y41626D01*
X1191608Y41583D01*
X1191516Y41543D01*
X1191422Y41507D01*
X1191327Y41474D01*
X1191230Y41445D01*
X1191133Y41420D01*
X1191034Y41399D01*
X1190935Y41381D01*
X1190835Y41368D01*
X1190735Y41358D01*
X1190635Y41352D01*
X1190534Y41350D01*
D10*
X232613Y41000D02*
X232613Y29000D01*
X261613Y29000D01*
X261613Y41000D01*
X232613Y41000D01*
X236613Y32500D02*
X236615Y32563D01*
X236621Y32625D01*
X236631Y32687D01*
X236644Y32749D01*
X236662Y32809D01*
X236683Y32868D01*
X236708Y32926D01*
X236737Y32982D01*
X236769Y33036D01*
X236804Y33088D01*
X236842Y33137D01*
X236884Y33185D01*
X236928Y33229D01*
X236976Y33271D01*
X237025Y33309D01*
X237077Y33344D01*
X237131Y33376D01*
X237187Y33405D01*
X237245Y33430D01*
X237304Y33451D01*
X237364Y33469D01*
X237426Y33482D01*
X237488Y33492D01*
X237550Y33498D01*
X237613Y33500D01*
X237676Y33498D01*
X237738Y33492D01*
X237800Y33482D01*
X237862Y33469D01*
X237922Y33451D01*
X237981Y33430D01*
X238039Y33405D01*
X238095Y33376D01*
X238149Y33344D01*
X238201Y33309D01*
X238250Y33271D01*
X238298Y33229D01*
X238342Y33185D01*
X238384Y33137D01*
X238422Y33088D01*
X238457Y33036D01*
X238489Y32982D01*
X238518Y32926D01*
X238543Y32868D01*
X238564Y32809D01*
X238582Y32749D01*
X238595Y32687D01*
X238605Y32625D01*
X238611Y32563D01*
X238613Y32500D01*
X238611Y32437D01*
X238605Y32375D01*
X238595Y32313D01*
X238582Y32251D01*
X238564Y32191D01*
X238543Y32132D01*
X238518Y32074D01*
X238489Y32018D01*
X238457Y31964D01*
X238422Y31912D01*
X238384Y31863D01*
X238342Y31815D01*
X238298Y31771D01*
X238250Y31729D01*
X238201Y31691D01*
X238149Y31656D01*
X238095Y31624D01*
X238039Y31595D01*
X237981Y31570D01*
X237922Y31549D01*
X237862Y31531D01*
X237800Y31518D01*
X237738Y31508D01*
X237676Y31502D01*
X237613Y31500D01*
X237550Y31502D01*
X237488Y31508D01*
X237426Y31518D01*
X237364Y31531D01*
X237304Y31549D01*
X237245Y31570D01*
X237187Y31595D01*
X237131Y31624D01*
X237077Y31656D01*
X237025Y31691D01*
X236976Y31729D01*
X236928Y31771D01*
X236884Y31815D01*
X236842Y31863D01*
X236804Y31912D01*
X236769Y31964D01*
X236737Y32018D01*
X236708Y32074D01*
X236683Y32132D01*
X236662Y32191D01*
X236644Y32251D01*
X236631Y32313D01*
X236621Y32375D01*
X236615Y32437D01*
X236613Y32500D01*
X620983Y29000D02*
X620983Y41000D01*
X620983Y29000D02*
X649983Y29000D01*
X649983Y41000D01*
X620983Y41000D01*
X624983Y32500D02*
X624985Y32563D01*
X624991Y32625D01*
X625001Y32687D01*
X625014Y32749D01*
X625032Y32809D01*
X625053Y32868D01*
X625078Y32926D01*
X625107Y32982D01*
X625139Y33036D01*
X625174Y33088D01*
X625212Y33137D01*
X625254Y33185D01*
X625298Y33229D01*
X625346Y33271D01*
X625395Y33309D01*
X625447Y33344D01*
X625501Y33376D01*
X625557Y33405D01*
X625615Y33430D01*
X625674Y33451D01*
X625734Y33469D01*
X625796Y33482D01*
X625858Y33492D01*
X625920Y33498D01*
X625983Y33500D01*
X626046Y33498D01*
X626108Y33492D01*
X626170Y33482D01*
X626232Y33469D01*
X626292Y33451D01*
X626351Y33430D01*
X626409Y33405D01*
X626465Y33376D01*
X626519Y33344D01*
X626571Y33309D01*
X626620Y33271D01*
X626668Y33229D01*
X626712Y33185D01*
X626754Y33137D01*
X626792Y33088D01*
X626827Y33036D01*
X626859Y32982D01*
X626888Y32926D01*
X626913Y32868D01*
X626934Y32809D01*
X626952Y32749D01*
X626965Y32687D01*
X626975Y32625D01*
X626981Y32563D01*
X626983Y32500D01*
X626981Y32437D01*
X626975Y32375D01*
X626965Y32313D01*
X626952Y32251D01*
X626934Y32191D01*
X626913Y32132D01*
X626888Y32074D01*
X626859Y32018D01*
X626827Y31964D01*
X626792Y31912D01*
X626754Y31863D01*
X626712Y31815D01*
X626668Y31771D01*
X626620Y31729D01*
X626571Y31691D01*
X626519Y31656D01*
X626465Y31624D01*
X626409Y31595D01*
X626351Y31570D01*
X626292Y31549D01*
X626232Y31531D01*
X626170Y31518D01*
X626108Y31508D01*
X626046Y31502D01*
X625983Y31500D01*
X625920Y31502D01*
X625858Y31508D01*
X625796Y31518D01*
X625734Y31531D01*
X625674Y31549D01*
X625615Y31570D01*
X625557Y31595D01*
X625501Y31624D01*
X625447Y31656D01*
X625395Y31691D01*
X625346Y31729D01*
X625298Y31771D01*
X625254Y31815D01*
X625212Y31863D01*
X625174Y31912D01*
X625139Y31964D01*
X625107Y32018D01*
X625078Y32074D01*
X625053Y32132D01*
X625032Y32191D01*
X625014Y32251D01*
X625001Y32313D01*
X624991Y32375D01*
X624985Y32437D01*
X624983Y32500D01*
X840920Y29000D02*
X840920Y41000D01*
X840920Y29000D02*
X869920Y29000D01*
X869920Y41000D01*
X840920Y41000D01*
X844920Y32500D02*
X844922Y32563D01*
X844928Y32625D01*
X844938Y32687D01*
X844951Y32749D01*
X844969Y32809D01*
X844990Y32868D01*
X845015Y32926D01*
X845044Y32982D01*
X845076Y33036D01*
X845111Y33088D01*
X845149Y33137D01*
X845191Y33185D01*
X845235Y33229D01*
X845283Y33271D01*
X845332Y33309D01*
X845384Y33344D01*
X845438Y33376D01*
X845494Y33405D01*
X845552Y33430D01*
X845611Y33451D01*
X845671Y33469D01*
X845733Y33482D01*
X845795Y33492D01*
X845857Y33498D01*
X845920Y33500D01*
X845983Y33498D01*
X846045Y33492D01*
X846107Y33482D01*
X846169Y33469D01*
X846229Y33451D01*
X846288Y33430D01*
X846346Y33405D01*
X846402Y33376D01*
X846456Y33344D01*
X846508Y33309D01*
X846557Y33271D01*
X846605Y33229D01*
X846649Y33185D01*
X846691Y33137D01*
X846729Y33088D01*
X846764Y33036D01*
X846796Y32982D01*
X846825Y32926D01*
X846850Y32868D01*
X846871Y32809D01*
X846889Y32749D01*
X846902Y32687D01*
X846912Y32625D01*
X846918Y32563D01*
X846920Y32500D01*
X846918Y32437D01*
X846912Y32375D01*
X846902Y32313D01*
X846889Y32251D01*
X846871Y32191D01*
X846850Y32132D01*
X846825Y32074D01*
X846796Y32018D01*
X846764Y31964D01*
X846729Y31912D01*
X846691Y31863D01*
X846649Y31815D01*
X846605Y31771D01*
X846557Y31729D01*
X846508Y31691D01*
X846456Y31656D01*
X846402Y31624D01*
X846346Y31595D01*
X846288Y31570D01*
X846229Y31549D01*
X846169Y31531D01*
X846107Y31518D01*
X846045Y31508D01*
X845983Y31502D01*
X845920Y31500D01*
X845857Y31502D01*
X845795Y31508D01*
X845733Y31518D01*
X845671Y31531D01*
X845611Y31549D01*
X845552Y31570D01*
X845494Y31595D01*
X845438Y31624D01*
X845384Y31656D01*
X845332Y31691D01*
X845283Y31729D01*
X845235Y31771D01*
X845191Y31815D01*
X845149Y31863D01*
X845111Y31912D01*
X845076Y31964D01*
X845044Y32018D01*
X845015Y32074D01*
X844990Y32132D01*
X844969Y32191D01*
X844951Y32251D01*
X844938Y32313D01*
X844928Y32375D01*
X844922Y32437D01*
X844920Y32500D01*
X1488200Y29000D02*
X1488200Y41000D01*
X1459200Y41000D01*
X1459200Y29000D01*
X1488200Y29000D01*
X1482200Y37500D02*
X1482202Y37563D01*
X1482208Y37625D01*
X1482218Y37687D01*
X1482231Y37749D01*
X1482249Y37809D01*
X1482270Y37868D01*
X1482295Y37926D01*
X1482324Y37982D01*
X1482356Y38036D01*
X1482391Y38088D01*
X1482429Y38137D01*
X1482471Y38185D01*
X1482515Y38229D01*
X1482563Y38271D01*
X1482612Y38309D01*
X1482664Y38344D01*
X1482718Y38376D01*
X1482774Y38405D01*
X1482832Y38430D01*
X1482891Y38451D01*
X1482951Y38469D01*
X1483013Y38482D01*
X1483075Y38492D01*
X1483137Y38498D01*
X1483200Y38500D01*
X1483263Y38498D01*
X1483325Y38492D01*
X1483387Y38482D01*
X1483449Y38469D01*
X1483509Y38451D01*
X1483568Y38430D01*
X1483626Y38405D01*
X1483682Y38376D01*
X1483736Y38344D01*
X1483788Y38309D01*
X1483837Y38271D01*
X1483885Y38229D01*
X1483929Y38185D01*
X1483971Y38137D01*
X1484009Y38088D01*
X1484044Y38036D01*
X1484076Y37982D01*
X1484105Y37926D01*
X1484130Y37868D01*
X1484151Y37809D01*
X1484169Y37749D01*
X1484182Y37687D01*
X1484192Y37625D01*
X1484198Y37563D01*
X1484200Y37500D01*
X1484198Y37437D01*
X1484192Y37375D01*
X1484182Y37313D01*
X1484169Y37251D01*
X1484151Y37191D01*
X1484130Y37132D01*
X1484105Y37074D01*
X1484076Y37018D01*
X1484044Y36964D01*
X1484009Y36912D01*
X1483971Y36863D01*
X1483929Y36815D01*
X1483885Y36771D01*
X1483837Y36729D01*
X1483788Y36691D01*
X1483736Y36656D01*
X1483682Y36624D01*
X1483626Y36595D01*
X1483568Y36570D01*
X1483509Y36549D01*
X1483449Y36531D01*
X1483387Y36518D01*
X1483325Y36508D01*
X1483263Y36502D01*
X1483200Y36500D01*
X1483137Y36502D01*
X1483075Y36508D01*
X1483013Y36518D01*
X1482951Y36531D01*
X1482891Y36549D01*
X1482832Y36570D01*
X1482774Y36595D01*
X1482718Y36624D01*
X1482664Y36656D01*
X1482612Y36691D01*
X1482563Y36729D01*
X1482515Y36771D01*
X1482471Y36815D01*
X1482429Y36863D01*
X1482391Y36912D01*
X1482356Y36964D01*
X1482324Y37018D01*
X1482295Y37074D01*
X1482270Y37132D01*
X1482249Y37191D01*
X1482231Y37251D01*
X1482218Y37313D01*
X1482208Y37375D01*
X1482202Y37437D01*
X1482200Y37500D01*
X69960Y41000D02*
X69960Y29000D01*
X98960Y29000D01*
X98960Y41000D01*
X69960Y41000D01*
X73960Y32500D02*
X73962Y32563D01*
X73968Y32625D01*
X73978Y32687D01*
X73991Y32749D01*
X74009Y32809D01*
X74030Y32868D01*
X74055Y32926D01*
X74084Y32982D01*
X74116Y33036D01*
X74151Y33088D01*
X74189Y33137D01*
X74231Y33185D01*
X74275Y33229D01*
X74323Y33271D01*
X74372Y33309D01*
X74424Y33344D01*
X74478Y33376D01*
X74534Y33405D01*
X74592Y33430D01*
X74651Y33451D01*
X74711Y33469D01*
X74773Y33482D01*
X74835Y33492D01*
X74897Y33498D01*
X74960Y33500D01*
X75023Y33498D01*
X75085Y33492D01*
X75147Y33482D01*
X75209Y33469D01*
X75269Y33451D01*
X75328Y33430D01*
X75386Y33405D01*
X75442Y33376D01*
X75496Y33344D01*
X75548Y33309D01*
X75597Y33271D01*
X75645Y33229D01*
X75689Y33185D01*
X75731Y33137D01*
X75769Y33088D01*
X75804Y33036D01*
X75836Y32982D01*
X75865Y32926D01*
X75890Y32868D01*
X75911Y32809D01*
X75929Y32749D01*
X75942Y32687D01*
X75952Y32625D01*
X75958Y32563D01*
X75960Y32500D01*
X75958Y32437D01*
X75952Y32375D01*
X75942Y32313D01*
X75929Y32251D01*
X75911Y32191D01*
X75890Y32132D01*
X75865Y32074D01*
X75836Y32018D01*
X75804Y31964D01*
X75769Y31912D01*
X75731Y31863D01*
X75689Y31815D01*
X75645Y31771D01*
X75597Y31729D01*
X75548Y31691D01*
X75496Y31656D01*
X75442Y31624D01*
X75386Y31595D01*
X75328Y31570D01*
X75269Y31549D01*
X75209Y31531D01*
X75147Y31518D01*
X75085Y31508D01*
X75023Y31502D01*
X74960Y31500D01*
X74897Y31502D01*
X74835Y31508D01*
X74773Y31518D01*
X74711Y31531D01*
X74651Y31549D01*
X74592Y31570D01*
X74534Y31595D01*
X74478Y31624D01*
X74424Y31656D01*
X74372Y31691D01*
X74323Y31729D01*
X74275Y31771D01*
X74231Y31815D01*
X74189Y31863D01*
X74151Y31912D01*
X74116Y31964D01*
X74084Y32018D01*
X74055Y32074D01*
X74030Y32132D01*
X74009Y32191D01*
X73991Y32251D01*
X73978Y32313D01*
X73968Y32375D01*
X73962Y32437D01*
X73960Y32500D01*
X1438557Y29000D02*
X1438557Y41000D01*
X1409557Y41000D01*
X1409557Y29000D01*
X1438557Y29000D01*
X1432557Y37500D02*
X1432559Y37563D01*
X1432565Y37625D01*
X1432575Y37687D01*
X1432588Y37749D01*
X1432606Y37809D01*
X1432627Y37868D01*
X1432652Y37926D01*
X1432681Y37982D01*
X1432713Y38036D01*
X1432748Y38088D01*
X1432786Y38137D01*
X1432828Y38185D01*
X1432872Y38229D01*
X1432920Y38271D01*
X1432969Y38309D01*
X1433021Y38344D01*
X1433075Y38376D01*
X1433131Y38405D01*
X1433189Y38430D01*
X1433248Y38451D01*
X1433308Y38469D01*
X1433370Y38482D01*
X1433432Y38492D01*
X1433494Y38498D01*
X1433557Y38500D01*
X1433620Y38498D01*
X1433682Y38492D01*
X1433744Y38482D01*
X1433806Y38469D01*
X1433866Y38451D01*
X1433925Y38430D01*
X1433983Y38405D01*
X1434039Y38376D01*
X1434093Y38344D01*
X1434145Y38309D01*
X1434194Y38271D01*
X1434242Y38229D01*
X1434286Y38185D01*
X1434328Y38137D01*
X1434366Y38088D01*
X1434401Y38036D01*
X1434433Y37982D01*
X1434462Y37926D01*
X1434487Y37868D01*
X1434508Y37809D01*
X1434526Y37749D01*
X1434539Y37687D01*
X1434549Y37625D01*
X1434555Y37563D01*
X1434557Y37500D01*
X1434555Y37437D01*
X1434549Y37375D01*
X1434539Y37313D01*
X1434526Y37251D01*
X1434508Y37191D01*
X1434487Y37132D01*
X1434462Y37074D01*
X1434433Y37018D01*
X1434401Y36964D01*
X1434366Y36912D01*
X1434328Y36863D01*
X1434286Y36815D01*
X1434242Y36771D01*
X1434194Y36729D01*
X1434145Y36691D01*
X1434093Y36656D01*
X1434039Y36624D01*
X1433983Y36595D01*
X1433925Y36570D01*
X1433866Y36549D01*
X1433806Y36531D01*
X1433744Y36518D01*
X1433682Y36508D01*
X1433620Y36502D01*
X1433557Y36500D01*
X1433494Y36502D01*
X1433432Y36508D01*
X1433370Y36518D01*
X1433308Y36531D01*
X1433248Y36549D01*
X1433189Y36570D01*
X1433131Y36595D01*
X1433075Y36624D01*
X1433021Y36656D01*
X1432969Y36691D01*
X1432920Y36729D01*
X1432872Y36771D01*
X1432828Y36815D01*
X1432786Y36863D01*
X1432748Y36912D01*
X1432713Y36964D01*
X1432681Y37018D01*
X1432652Y37074D01*
X1432627Y37132D01*
X1432606Y37191D01*
X1432588Y37251D01*
X1432575Y37313D01*
X1432565Y37375D01*
X1432559Y37437D01*
X1432557Y37500D01*
D11*
X120614Y28001D02*
X120614Y25404D01*
X120613Y25404D02*
X120611Y25305D01*
X120605Y25205D01*
X120596Y25106D01*
X120583Y25008D01*
X120566Y24910D01*
X120545Y24812D01*
X120520Y24716D01*
X120492Y24621D01*
X120460Y24527D01*
X120425Y24434D01*
X120386Y24342D01*
X120343Y24252D01*
X120298Y24164D01*
X120248Y24077D01*
X120196Y23993D01*
X120140Y23910D01*
X120082Y23830D01*
X120020Y23752D01*
X119955Y23677D01*
X119887Y23604D01*
X119817Y23534D01*
X119744Y23466D01*
X119669Y23401D01*
X119591Y23339D01*
X119511Y23281D01*
X119428Y23225D01*
X119344Y23173D01*
X119257Y23123D01*
X119169Y23078D01*
X119079Y23035D01*
X118987Y22996D01*
X118894Y22961D01*
X118800Y22929D01*
X118705Y22901D01*
X118609Y22876D01*
X118511Y22855D01*
X118413Y22838D01*
X118315Y22825D01*
X118216Y22816D01*
X118116Y22810D01*
X118017Y22808D01*
X111526Y22808D01*
X111427Y22810D01*
X111327Y22816D01*
X111228Y22825D01*
X111130Y22838D01*
X111032Y22856D01*
X110934Y22876D01*
X110838Y22901D01*
X110742Y22929D01*
X110648Y22961D01*
X110555Y22996D01*
X110464Y23035D01*
X110374Y23078D01*
X110285Y23123D01*
X110199Y23173D01*
X110114Y23225D01*
X110032Y23281D01*
X109952Y23340D01*
X109874Y23401D01*
X109798Y23466D01*
X109725Y23534D01*
X109655Y23604D01*
X109587Y23677D01*
X109522Y23753D01*
X109461Y23831D01*
X109402Y23911D01*
X109346Y23993D01*
X109294Y24078D01*
X109245Y24164D01*
X109199Y24253D01*
X109156Y24343D01*
X109117Y24434D01*
X109082Y24527D01*
X109050Y24621D01*
X109022Y24717D01*
X108997Y24813D01*
X108977Y24911D01*
X108959Y25009D01*
X108946Y25107D01*
X108937Y25206D01*
X108931Y25305D01*
X108929Y25405D01*
X108930Y25404D02*
X108930Y28001D01*
X108930Y34963D02*
X118017Y32366D01*
X118017Y38857D01*
X115421Y36910D02*
X120614Y36910D01*
X347196Y28001D02*
X347196Y25404D01*
X347195Y25404D02*
X347193Y25305D01*
X347187Y25205D01*
X347178Y25106D01*
X347165Y25008D01*
X347148Y24910D01*
X347127Y24812D01*
X347102Y24716D01*
X347074Y24621D01*
X347042Y24527D01*
X347007Y24434D01*
X346968Y24342D01*
X346925Y24252D01*
X346880Y24164D01*
X346830Y24077D01*
X346778Y23993D01*
X346722Y23910D01*
X346664Y23830D01*
X346602Y23752D01*
X346537Y23677D01*
X346469Y23604D01*
X346399Y23534D01*
X346326Y23466D01*
X346251Y23401D01*
X346173Y23339D01*
X346093Y23281D01*
X346010Y23225D01*
X345926Y23173D01*
X345839Y23123D01*
X345751Y23078D01*
X345661Y23035D01*
X345569Y22996D01*
X345476Y22961D01*
X345382Y22929D01*
X345287Y22901D01*
X345191Y22876D01*
X345093Y22855D01*
X344995Y22838D01*
X344897Y22825D01*
X344798Y22816D01*
X344698Y22810D01*
X344599Y22808D01*
X338108Y22808D01*
X338009Y22810D01*
X337909Y22816D01*
X337810Y22825D01*
X337712Y22838D01*
X337614Y22856D01*
X337516Y22876D01*
X337420Y22901D01*
X337324Y22929D01*
X337230Y22961D01*
X337137Y22996D01*
X337046Y23035D01*
X336956Y23078D01*
X336867Y23123D01*
X336781Y23173D01*
X336696Y23225D01*
X336614Y23281D01*
X336534Y23340D01*
X336456Y23401D01*
X336380Y23466D01*
X336307Y23534D01*
X336237Y23604D01*
X336169Y23677D01*
X336104Y23753D01*
X336043Y23831D01*
X335984Y23911D01*
X335928Y23993D01*
X335876Y24078D01*
X335827Y24164D01*
X335781Y24253D01*
X335738Y24343D01*
X335699Y24434D01*
X335664Y24527D01*
X335632Y24621D01*
X335604Y24717D01*
X335579Y24813D01*
X335559Y24911D01*
X335541Y25009D01*
X335528Y25107D01*
X335519Y25206D01*
X335513Y25305D01*
X335511Y25405D01*
X335512Y25404D02*
X335512Y28001D01*
X342003Y34963D02*
X342003Y38857D01*
X342002Y34963D02*
X342000Y34864D01*
X341994Y34764D01*
X341985Y34665D01*
X341972Y34567D01*
X341955Y34469D01*
X341934Y34371D01*
X341909Y34275D01*
X341881Y34180D01*
X341849Y34086D01*
X341814Y33993D01*
X341775Y33901D01*
X341732Y33811D01*
X341687Y33723D01*
X341637Y33636D01*
X341585Y33552D01*
X341529Y33469D01*
X341471Y33389D01*
X341409Y33311D01*
X341344Y33236D01*
X341276Y33163D01*
X341206Y33093D01*
X341133Y33025D01*
X341058Y32960D01*
X340980Y32898D01*
X340900Y32840D01*
X340817Y32784D01*
X340733Y32732D01*
X340646Y32682D01*
X340558Y32637D01*
X340468Y32594D01*
X340376Y32555D01*
X340283Y32520D01*
X340189Y32488D01*
X340094Y32460D01*
X339998Y32435D01*
X339900Y32414D01*
X339802Y32397D01*
X339704Y32384D01*
X339605Y32375D01*
X339505Y32369D01*
X339406Y32367D01*
X339406Y32366D02*
X338757Y32366D01*
X338644Y32368D01*
X338531Y32374D01*
X338418Y32384D01*
X338305Y32398D01*
X338193Y32415D01*
X338082Y32437D01*
X337972Y32462D01*
X337862Y32492D01*
X337754Y32525D01*
X337647Y32562D01*
X337541Y32602D01*
X337437Y32647D01*
X337334Y32695D01*
X337233Y32746D01*
X337134Y32801D01*
X337037Y32859D01*
X336942Y32921D01*
X336849Y32986D01*
X336759Y33054D01*
X336671Y33125D01*
X336585Y33200D01*
X336502Y33277D01*
X336422Y33357D01*
X336345Y33440D01*
X336270Y33526D01*
X336199Y33614D01*
X336131Y33704D01*
X336066Y33797D01*
X336004Y33892D01*
X335946Y33989D01*
X335891Y34088D01*
X335840Y34189D01*
X335792Y34292D01*
X335747Y34396D01*
X335707Y34502D01*
X335670Y34609D01*
X335637Y34717D01*
X335607Y34827D01*
X335582Y34937D01*
X335560Y35048D01*
X335543Y35160D01*
X335529Y35273D01*
X335519Y35386D01*
X335513Y35499D01*
X335511Y35612D01*
X335513Y35725D01*
X335519Y35838D01*
X335529Y35951D01*
X335543Y36064D01*
X335560Y36176D01*
X335582Y36287D01*
X335607Y36397D01*
X335637Y36507D01*
X335670Y36615D01*
X335707Y36722D01*
X335747Y36828D01*
X335792Y36932D01*
X335840Y37035D01*
X335891Y37136D01*
X335946Y37235D01*
X336004Y37332D01*
X336066Y37427D01*
X336131Y37520D01*
X336199Y37610D01*
X336270Y37698D01*
X336345Y37784D01*
X336422Y37867D01*
X336502Y37947D01*
X336585Y38024D01*
X336671Y38099D01*
X336759Y38170D01*
X336849Y38238D01*
X336942Y38303D01*
X337037Y38365D01*
X337134Y38423D01*
X337233Y38478D01*
X337334Y38529D01*
X337437Y38577D01*
X337541Y38622D01*
X337647Y38662D01*
X337754Y38699D01*
X337862Y38732D01*
X337972Y38762D01*
X338082Y38787D01*
X338193Y38809D01*
X338305Y38826D01*
X338418Y38840D01*
X338531Y38850D01*
X338644Y38856D01*
X338757Y38858D01*
X338757Y38857D02*
X342003Y38857D01*
X342146Y38855D01*
X342289Y38849D01*
X342432Y38839D01*
X342574Y38825D01*
X342716Y38808D01*
X342858Y38786D01*
X342999Y38761D01*
X343139Y38731D01*
X343278Y38698D01*
X343416Y38661D01*
X343553Y38620D01*
X343689Y38576D01*
X343824Y38527D01*
X343957Y38475D01*
X344089Y38420D01*
X344219Y38360D01*
X344348Y38297D01*
X344475Y38231D01*
X344600Y38161D01*
X344722Y38088D01*
X344843Y38011D01*
X344962Y37931D01*
X345078Y37848D01*
X345193Y37762D01*
X345304Y37673D01*
X345414Y37580D01*
X345520Y37485D01*
X345624Y37386D01*
X345725Y37285D01*
X345824Y37181D01*
X345919Y37075D01*
X346012Y36965D01*
X346101Y36854D01*
X346187Y36739D01*
X346270Y36623D01*
X346350Y36504D01*
X346427Y36383D01*
X346500Y36261D01*
X346570Y36136D01*
X346636Y36009D01*
X346699Y35880D01*
X346759Y35750D01*
X346814Y35618D01*
X346866Y35485D01*
X346915Y35350D01*
X346959Y35214D01*
X347000Y35077D01*
X347037Y34939D01*
X347070Y34800D01*
X347100Y34660D01*
X347125Y34519D01*
X347147Y34377D01*
X347164Y34235D01*
X347178Y34093D01*
X347188Y33950D01*
X347194Y33807D01*
X347196Y33664D01*
X1345959Y24906D02*
X1345959Y22309D01*
X1345957Y22210D01*
X1345951Y22110D01*
X1345942Y22011D01*
X1345929Y21913D01*
X1345912Y21815D01*
X1345891Y21717D01*
X1345866Y21621D01*
X1345838Y21526D01*
X1345806Y21432D01*
X1345771Y21339D01*
X1345732Y21247D01*
X1345689Y21157D01*
X1345644Y21069D01*
X1345594Y20982D01*
X1345542Y20898D01*
X1345486Y20815D01*
X1345428Y20735D01*
X1345366Y20657D01*
X1345301Y20582D01*
X1345233Y20509D01*
X1345163Y20439D01*
X1345090Y20371D01*
X1345015Y20306D01*
X1344937Y20244D01*
X1344857Y20186D01*
X1344774Y20130D01*
X1344690Y20078D01*
X1344603Y20028D01*
X1344515Y19983D01*
X1344425Y19940D01*
X1344333Y19901D01*
X1344240Y19866D01*
X1344146Y19834D01*
X1344051Y19806D01*
X1343955Y19781D01*
X1343857Y19760D01*
X1343759Y19743D01*
X1343661Y19730D01*
X1343562Y19721D01*
X1343462Y19715D01*
X1343363Y19713D01*
X1336871Y19713D01*
X1336871Y19712D02*
X1336772Y19714D01*
X1336672Y19720D01*
X1336573Y19729D01*
X1336475Y19742D01*
X1336377Y19760D01*
X1336279Y19780D01*
X1336183Y19805D01*
X1336087Y19833D01*
X1335993Y19865D01*
X1335900Y19900D01*
X1335809Y19939D01*
X1335719Y19982D01*
X1335630Y20027D01*
X1335544Y20077D01*
X1335459Y20129D01*
X1335377Y20185D01*
X1335297Y20244D01*
X1335219Y20305D01*
X1335143Y20370D01*
X1335070Y20438D01*
X1335000Y20508D01*
X1334932Y20581D01*
X1334867Y20657D01*
X1334806Y20735D01*
X1334747Y20815D01*
X1334691Y20897D01*
X1334639Y20982D01*
X1334590Y21068D01*
X1334544Y21157D01*
X1334501Y21247D01*
X1334462Y21338D01*
X1334427Y21431D01*
X1334395Y21525D01*
X1334367Y21621D01*
X1334342Y21717D01*
X1334322Y21815D01*
X1334304Y21913D01*
X1334291Y22011D01*
X1334282Y22110D01*
X1334276Y22209D01*
X1334274Y22309D01*
X1334275Y22309D02*
X1334275Y24906D01*
X1336871Y29271D02*
X1334275Y32516D01*
X1345959Y32516D01*
X1345959Y29271D02*
X1345959Y35762D01*
X1340117Y40701D02*
X1339887Y40704D01*
X1339657Y40712D01*
X1339428Y40726D01*
X1339199Y40745D01*
X1338970Y40770D01*
X1338742Y40800D01*
X1338515Y40835D01*
X1338289Y40876D01*
X1338064Y40922D01*
X1337840Y40974D01*
X1337617Y41031D01*
X1337396Y41093D01*
X1337176Y41161D01*
X1336958Y41234D01*
X1336742Y41312D01*
X1336528Y41395D01*
X1336316Y41483D01*
X1336105Y41576D01*
X1335898Y41675D01*
X1335898Y41674D02*
X1335808Y41707D01*
X1335719Y41743D01*
X1335631Y41783D01*
X1335546Y41827D01*
X1335462Y41874D01*
X1335380Y41924D01*
X1335300Y41978D01*
X1335223Y42034D01*
X1335147Y42094D01*
X1335074Y42157D01*
X1335004Y42222D01*
X1334936Y42291D01*
X1334872Y42362D01*
X1334810Y42435D01*
X1334751Y42511D01*
X1334695Y42589D01*
X1334642Y42670D01*
X1334593Y42752D01*
X1334547Y42836D01*
X1334504Y42923D01*
X1334465Y43010D01*
X1334429Y43100D01*
X1334397Y43190D01*
X1334369Y43282D01*
X1334344Y43375D01*
X1334323Y43469D01*
X1334306Y43563D01*
X1334292Y43658D01*
X1334283Y43754D01*
X1334277Y43850D01*
X1334275Y43946D01*
X1334277Y44042D01*
X1334283Y44138D01*
X1334292Y44234D01*
X1334306Y44329D01*
X1334323Y44423D01*
X1334344Y44517D01*
X1334369Y44610D01*
X1334397Y44702D01*
X1334429Y44792D01*
X1334465Y44882D01*
X1334504Y44970D01*
X1334547Y45056D01*
X1334593Y45140D01*
X1334642Y45222D01*
X1334695Y45303D01*
X1334751Y45381D01*
X1334810Y45457D01*
X1334872Y45530D01*
X1334936Y45601D01*
X1335004Y45670D01*
X1335074Y45735D01*
X1335147Y45798D01*
X1335223Y45858D01*
X1335300Y45914D01*
X1335380Y45968D01*
X1335462Y46018D01*
X1335546Y46065D01*
X1335631Y46109D01*
X1335719Y46149D01*
X1335808Y46185D01*
X1335898Y46218D01*
X1336105Y46317D01*
X1336316Y46410D01*
X1336528Y46498D01*
X1336742Y46581D01*
X1336958Y46659D01*
X1337176Y46732D01*
X1337396Y46800D01*
X1337617Y46862D01*
X1337840Y46919D01*
X1338064Y46971D01*
X1338289Y47017D01*
X1338515Y47058D01*
X1338742Y47093D01*
X1338970Y47123D01*
X1339199Y47148D01*
X1339428Y47167D01*
X1339657Y47181D01*
X1339887Y47189D01*
X1340117Y47192D01*
X1340117Y40701D02*
X1340347Y40704D01*
X1340577Y40712D01*
X1340806Y40726D01*
X1341035Y40745D01*
X1341264Y40770D01*
X1341492Y40800D01*
X1341719Y40835D01*
X1341945Y40876D01*
X1342170Y40922D01*
X1342394Y40974D01*
X1342617Y41031D01*
X1342838Y41093D01*
X1343058Y41161D01*
X1343276Y41234D01*
X1343492Y41312D01*
X1343706Y41395D01*
X1343918Y41483D01*
X1344129Y41576D01*
X1344336Y41675D01*
X1344336Y41674D02*
X1344426Y41707D01*
X1344515Y41743D01*
X1344603Y41784D01*
X1344688Y41827D01*
X1344772Y41874D01*
X1344854Y41924D01*
X1344934Y41978D01*
X1345011Y42034D01*
X1345087Y42094D01*
X1345160Y42157D01*
X1345230Y42222D01*
X1345298Y42291D01*
X1345362Y42362D01*
X1345424Y42435D01*
X1345483Y42511D01*
X1345539Y42589D01*
X1345592Y42670D01*
X1345641Y42752D01*
X1345687Y42836D01*
X1345730Y42923D01*
X1345769Y43010D01*
X1345805Y43100D01*
X1345837Y43190D01*
X1345865Y43282D01*
X1345890Y43375D01*
X1345911Y43469D01*
X1345928Y43563D01*
X1345942Y43658D01*
X1345951Y43754D01*
X1345957Y43850D01*
X1345959Y43946D01*
X1344336Y46218D02*
X1344129Y46317D01*
X1343918Y46410D01*
X1343706Y46498D01*
X1343492Y46581D01*
X1343276Y46659D01*
X1343058Y46732D01*
X1342838Y46800D01*
X1342617Y46862D01*
X1342394Y46919D01*
X1342170Y46971D01*
X1341945Y47017D01*
X1341719Y47058D01*
X1341492Y47093D01*
X1341264Y47123D01*
X1341035Y47148D01*
X1340806Y47167D01*
X1340577Y47181D01*
X1340347Y47189D01*
X1340117Y47192D01*
X1344336Y46218D02*
X1344426Y46185D01*
X1344515Y46149D01*
X1344603Y46109D01*
X1344688Y46065D01*
X1344772Y46018D01*
X1344854Y45968D01*
X1344934Y45914D01*
X1345011Y45858D01*
X1345087Y45798D01*
X1345160Y45735D01*
X1345230Y45670D01*
X1345298Y45601D01*
X1345362Y45530D01*
X1345424Y45457D01*
X1345483Y45381D01*
X1345539Y45303D01*
X1345592Y45222D01*
X1345641Y45140D01*
X1345687Y45056D01*
X1345730Y44969D01*
X1345769Y44882D01*
X1345805Y44792D01*
X1345837Y44702D01*
X1345865Y44610D01*
X1345890Y44517D01*
X1345911Y44423D01*
X1345928Y44329D01*
X1345942Y44234D01*
X1345951Y44138D01*
X1345957Y44042D01*
X1345959Y43946D01*
X1343363Y41350D02*
X1336871Y46543D01*
M02*
