G04 EAGLE Gerber RS-274X export*
G75*
%MOMM*%
%FSLAX34Y34*%
%LPD*%
%INSoldermask Top*%
%IPPOS*%
%AMOC8*
5,1,8,0,0,1.08239X$1,22.5*%
G01*
%ADD10R,1.403200X1.403200*%
%ADD11C,2.403200*%
%ADD12R,1.575000X1.050000*%
%ADD13P,1.869504X8X22.500000*%
%ADD14R,2.006200X1.803200*%
%ADD15R,1.203200X1.603200*%
%ADD16R,0.803200X2.403200*%
%ADD17R,1.703200X1.503200*%
%ADD18R,2.003200X1.803200*%
%ADD19R,1.473200X1.673200*%
%ADD20P,1.539592X8X112.500000*%
%ADD21R,0.803200X0.803200*%
%ADD22C,0.808000*%


D10*
X895547Y22000D03*
X895547Y48000D03*
X956547Y48000D03*
X956547Y22000D03*
D11*
X1002158Y35000D02*
X1017158Y35000D01*
D12*
X1038933Y20000D03*
X1038933Y50000D03*
X1038933Y35000D03*
D13*
X38100Y55880D03*
X1508760Y58420D03*
D14*
X468263Y20780D03*
X468263Y49220D03*
D15*
X684620Y24000D03*
X675120Y46000D03*
X694120Y46000D03*
D16*
X749600Y9000D03*
X749600Y61000D03*
X736900Y9000D03*
X762300Y9000D03*
X775000Y9000D03*
X736900Y61000D03*
X762300Y61000D03*
X775000Y61000D03*
X800400Y9000D03*
X800400Y61000D03*
X787700Y9000D03*
X813100Y9000D03*
X787700Y61000D03*
X813100Y61000D03*
D14*
X1272288Y49220D03*
X1272288Y20780D03*
D17*
X576122Y44500D03*
X576122Y25500D03*
D18*
X1223509Y21000D03*
X1223509Y49000D03*
X306474Y21000D03*
X306474Y49000D03*
X522192Y49000D03*
X522192Y21000D03*
D19*
X1081769Y35000D03*
X1124769Y35000D03*
D20*
X10160Y35560D03*
X10160Y60960D03*
X1539240Y35560D03*
X1539240Y60960D03*
D14*
X414333Y49220D03*
X414333Y20780D03*
D18*
X187751Y21000D03*
X187751Y49000D03*
X1369846Y49000D03*
X1369846Y21000D03*
X1174730Y49000D03*
X1174730Y21000D03*
D21*
X237613Y23000D03*
X247113Y23000D03*
X256613Y23000D03*
X256613Y47000D03*
X247113Y47000D03*
X237613Y47000D03*
X625983Y23000D03*
X635483Y23000D03*
X644983Y23000D03*
X644983Y47000D03*
X635483Y47000D03*
X625983Y47000D03*
X845920Y23000D03*
X855420Y23000D03*
X864920Y23000D03*
X864920Y47000D03*
X855420Y47000D03*
X845920Y47000D03*
X1483200Y47000D03*
X1473700Y47000D03*
X1464200Y47000D03*
X1464200Y23000D03*
X1473700Y23000D03*
X1483200Y23000D03*
X74960Y23000D03*
X84460Y23000D03*
X93960Y23000D03*
X93960Y47000D03*
X84460Y47000D03*
X74960Y47000D03*
X1433557Y47000D03*
X1424057Y47000D03*
X1414557Y47000D03*
X1414557Y23000D03*
X1424057Y23000D03*
X1433557Y23000D03*
D18*
X133822Y21000D03*
X133822Y49000D03*
X360404Y21000D03*
X360404Y49000D03*
X1321067Y49000D03*
X1321067Y21000D03*
D22*
X1237488Y32004D03*
X1092708Y32004D03*
X1406652Y22860D03*
X1383792Y22860D03*
X745236Y82296D03*
X556260Y44196D03*
X548640Y36576D03*
X710184Y30480D03*
X775716Y-9144D03*
X877824Y30480D03*
X483108Y30480D03*
X374904Y25908D03*
X118872Y35052D03*
X1188720Y48768D03*
X451104Y60960D03*
X717804Y70104D03*
X483108Y48768D03*
X435864Y32004D03*
X1028700Y9144D03*
X768096Y24384D03*
X673608Y18288D03*
X722376Y10668D03*
X1447800Y41148D03*
X821436Y3048D03*
X379476Y38100D03*
X713232Y54864D03*
X775716Y77724D03*
X1237488Y60960D03*
X1440180Y41148D03*
X833628Y57912D03*
X88392Y9144D03*
X728472Y0D03*
X1524000Y28956D03*
X265176Y32004D03*
X826008Y41148D03*
X664464Y41148D03*
X653796Y25908D03*
X649224Y38100D03*
M02*
