G04 EAGLE Gerber RS-274X export*
G75*
%MOMM*%
%FSLAX34Y34*%
%LPD*%
%INSolderpaste Top*%
%IPPOS*%
%AMOC8*
5,1,8,0,0,1.08239X$1,22.5*%
G01*
%ADD10R,1.200000X1.200000*%
%ADD11R,1.400000X0.800000*%
%ADD12R,2.200000X1.800000*%
%ADD13R,1.803000X1.600000*%
%ADD14R,1.000000X1.400000*%
%ADD15R,0.600000X2.200000*%
%ADD16R,1.500000X1.300000*%
%ADD17R,1.800000X1.600000*%
%ADD18R,1.270000X1.470000*%
%ADD19R,0.600000X0.600000*%


D10*
X895547Y22000D03*
X895547Y48000D03*
X956547Y48000D03*
X956547Y22000D03*
D11*
X1038858Y35000D03*
X1038858Y50000D03*
X1038858Y20000D03*
D12*
X1008058Y35000D03*
D13*
X468263Y20780D03*
X468263Y49220D03*
D14*
X684620Y24000D03*
X675120Y46000D03*
X694120Y46000D03*
D15*
X749600Y9000D03*
X749600Y61000D03*
X736900Y9000D03*
X762300Y9000D03*
X775000Y9000D03*
X736900Y61000D03*
X762300Y61000D03*
X775000Y61000D03*
X800400Y9000D03*
X800400Y61000D03*
X787700Y9000D03*
X813100Y9000D03*
X787700Y61000D03*
X813100Y61000D03*
D13*
X1272288Y49220D03*
X1272288Y20780D03*
D16*
X576122Y44500D03*
X576122Y25500D03*
D17*
X1223509Y21000D03*
X1223509Y49000D03*
X306474Y21000D03*
X306474Y49000D03*
X522192Y49000D03*
X522192Y21000D03*
D18*
X1081769Y35000D03*
X1124769Y35000D03*
D13*
X414333Y49220D03*
X414333Y20780D03*
D17*
X187751Y21000D03*
X187751Y49000D03*
X1369846Y49000D03*
X1369846Y21000D03*
X1174730Y49000D03*
X1174730Y21000D03*
D19*
X237613Y23000D03*
X247113Y23000D03*
X256613Y23000D03*
X256613Y47000D03*
X247113Y47000D03*
X237613Y47000D03*
X625983Y23000D03*
X635483Y23000D03*
X644983Y23000D03*
X644983Y47000D03*
X635483Y47000D03*
X625983Y47000D03*
X845920Y23000D03*
X855420Y23000D03*
X864920Y23000D03*
X864920Y47000D03*
X855420Y47000D03*
X845920Y47000D03*
X1483200Y47000D03*
X1473700Y47000D03*
X1464200Y47000D03*
X1464200Y23000D03*
X1473700Y23000D03*
X1483200Y23000D03*
X74960Y23000D03*
X84460Y23000D03*
X93960Y23000D03*
X93960Y47000D03*
X84460Y47000D03*
X74960Y47000D03*
X1433557Y47000D03*
X1424057Y47000D03*
X1414557Y47000D03*
X1414557Y23000D03*
X1424057Y23000D03*
X1433557Y23000D03*
D17*
X133822Y21000D03*
X133822Y49000D03*
X360404Y21000D03*
X360404Y49000D03*
X1321067Y49000D03*
X1321067Y21000D03*
M02*
