M48
;GenerationSoftware,Autodesk,EAGLE,9.6.2*%
;CreationDate,2021-01-11T16:01:18Z*%
FMAT,2
ICI,OFF
METRIC,TZ,000.000
T5C0.400
T4C0.500
T3C0.813
T2C1.000
T1C1.016
%
G90
M71
T1
X1800Y12300
X1800Y9760
X1800Y7220
X1800Y4680
X28900Y13000
T2
X27200Y5515
X18700Y6000
X25900Y8500
X19200Y7900
T3
X36400Y7230
X36400Y9770
X34530Y13800
X37070Y13800
X34530Y3200
X37070Y3200
T4
X34210Y5245
X34210Y6515
X34210Y7785
X34210Y9055
X34210Y10325
X34210Y11595
T5
X16800Y10600
X19600Y12300
M30